<?xml version="1.0" encoding="UTF-8" standalone="no"?>
<!DOCTYPE svg PUBLIC "-//W3C//DTD SVG 1.1//EN"
 "http://www.w3.org/Graphics/SVG/1.1/DTD/svg11.dtd">
<!-- Generated by graphviz version 2.43.0 (0)
 -->
<!-- Title: DirektDSP::DirektTabPanel Pages: 1 -->
<svg width="631pt" height="124pt"
 viewBox="0.00 0.00 631.00 123.50" xmlns="http://www.w3.org/2000/svg" xmlns:xlink="http://www.w3.org/1999/xlink">
<g id="graph0" class="graph" transform="scale(1 1) rotate(0) translate(4 119.5)">
<title>DirektDSP::DirektTabPanel</title>
<!-- Node1 -->
<g id="Node000001" class="node">
<title>Node1</title>
<g id="a_Node000001"><a xlink:title=" ">
<polygon fill="#999999" stroke="#666666" points="623,-72.5 478,-72.5 478,-53.5 623,-53.5 623,-72.5"/>
<text text-anchor="middle" x="550.5" y="-60.5" font-family="Helvetica,sans-Serif" font-size="10.00">DirektDSP::DirektTabPanel</text>
</a>
</g>
</g>
<!-- Node2 -->
<g id="Node000002" class="node">
<title>Node2</title>
<g id="a_Node000002"><a xlink:title=" ">
<polygon fill="white" stroke="#666666" points="357,-115.5 258,-115.5 258,-96.5 357,-96.5 357,-115.5"/>
<text text-anchor="middle" x="307.5" y="-103.5" font-family="Helvetica,sans-Serif" font-size="10.00">juce::Component</text>
</a>
</g>
</g>
<!-- Node2&#45;&gt;Node1 -->
<g id="edge1_Node000001_Node000002" class="edge">
<title>Node2&#45;&gt;Node1</title>
<g id="a_edge1_Node000001_Node000002"><a xlink:title=" ">
<path fill="none" stroke="#63b8ff" d="M367.26,-95.52C406.62,-88.49 458.02,-79.32 496.2,-72.51"/>
<polygon fill="#63b8ff" stroke="#63b8ff" points="366.5,-92.1 357.27,-97.3 367.73,-98.99 366.5,-92.1"/>
</a>
</g>
</g>
<!-- Node3 -->
<g id="Node000003" class="node">
<title>Node3</title>
<g id="a_Node000003"><a xlink:title=" ">
<polygon fill="white" stroke="#666666" points="385,-78 230,-78 230,-48 385,-48 385,-78"/>
<text text-anchor="start" x="238" y="-66" font-family="Helvetica,sans-Serif" font-size="10.00">std::vector&lt; DirektDSP</text>
<text text-anchor="middle" x="307.5" y="-55" font-family="Helvetica,sans-Serif" font-size="10.00">::DirektTabPanel::TabEntry &gt;</text>
</a>
</g>
</g>
<!-- Node3&#45;&gt;Node1 -->
<g id="edge2_Node000001_Node000003" class="edge">
<title>Node3&#45;&gt;Node1</title>
<g id="a_edge2_Node000001_Node000003"><a xlink:title=" ">
<path fill="none" stroke="#9a32cd" stroke-dasharray="5,2" d="M395.3,-63C422.3,-63 451.76,-63 477.63,-63"/>
<polygon fill="#9a32cd" stroke="#9a32cd" points="395.09,-59.5 385.09,-63 395.09,-66.5 395.09,-59.5"/>
</a>
</g>
<text text-anchor="middle" x="431.5" y="-66" font-family="Helvetica,sans-Serif" font-size="10.00" fill="grey"> tabs</text>
</g>
<!-- Node4 -->
<g id="Node000004" class="node">
<title>Node4</title>
<g id="a_Node000004"><a xlink:href="structDirektDSP_1_1DirektTabPanel_1_1TabEntry.html" target="_top" xlink:title=" ">
<polygon fill="white" stroke="#666666" points="145,-78 0,-78 0,-48 145,-48 145,-78"/>
<text text-anchor="start" x="8" y="-66" font-family="Helvetica,sans-Serif" font-size="10.00">DirektDSP::DirektTabPanel</text>
<text text-anchor="middle" x="72.5" y="-55" font-family="Helvetica,sans-Serif" font-size="10.00">::TabEntry</text>
</a>
</g>
</g>
<!-- Node4&#45;&gt;Node3 -->
<g id="edge3_Node000003_Node000004" class="edge">
<title>Node4&#45;&gt;Node3</title>
<g id="a_edge3_Node000003_Node000004"><a xlink:title=" ">
<path fill="none" stroke="#9a32cd" stroke-dasharray="5,2" d="M155.5,-63C179.61,-63 205.89,-63 229.67,-63"/>
<polygon fill="#9a32cd" stroke="#9a32cd" points="155.31,-59.5 145.31,-63 155.31,-66.5 155.31,-59.5"/>
</a>
</g>
<text text-anchor="middle" x="187.5" y="-66" font-family="Helvetica,sans-Serif" font-size="10.00" fill="grey"> elements</text>
</g>
<!-- Node5 -->
<g id="Node000005" class="node">
<title>Node5</title>
<g id="a_Node000005"><a xlink:title=" ">
<polygon fill="white" stroke="#666666" points="381.5,-30 233.5,-30 233.5,0 381.5,0 381.5,-30"/>
<text text-anchor="start" x="241.5" y="-18" font-family="Helvetica,sans-Serif" font-size="10.00">std::vector&lt; std::unique</text>
<text text-anchor="middle" x="307.5" y="-7" font-family="Helvetica,sans-Serif" font-size="10.00">_ptr&lt; juce::TextButton &gt; &gt;</text>
</a>
</g>
</g>
<!-- Node5&#45;&gt;Node1 -->
<g id="edge4_Node000001_Node000005" class="edge">
<title>Node5&#45;&gt;Node1</title>
<g id="a_edge4_Node000001_Node000005"><a xlink:title=" ">
<path fill="none" stroke="#9a32cd" stroke-dasharray="5,2" d="M391.98,-31.63C428.64,-38.93 470.36,-47.24 501.65,-53.47"/>
<polygon fill="#9a32cd" stroke="#9a32cd" points="392.28,-28.12 381.79,-29.6 390.91,-34.98 392.28,-28.12"/>
</a>
</g>
<text text-anchor="middle" x="431.5" y="-48" font-family="Helvetica,sans-Serif" font-size="10.00" fill="grey"> tabButtons</text>
</g>
<!-- Node6 -->
<g id="Node000006" class="node">
<title>Node6</title>
<g id="a_Node000006"><a xlink:title=" ">
<polygon fill="white" stroke="#666666" points="133,-30 12,-30 12,0 133,0 133,-30"/>
<text text-anchor="start" x="20" y="-18" font-family="Helvetica,sans-Serif" font-size="10.00">std::unique_ptr&lt; juce</text>
<text text-anchor="middle" x="72.5" y="-7" font-family="Helvetica,sans-Serif" font-size="10.00">::TextButton &gt;</text>
</a>
</g>
</g>
<!-- Node6&#45;&gt;Node5 -->
<g id="edge5_Node000005_Node000006" class="edge">
<title>Node6&#45;&gt;Node5</title>
<g id="a_edge5_Node000005_Node000006"><a xlink:title=" ">
<path fill="none" stroke="#9a32cd" stroke-dasharray="5,2" d="M143.43,-15C171.78,-15 204.53,-15 233.21,-15"/>
<polygon fill="#9a32cd" stroke="#9a32cd" points="143.2,-11.5 133.2,-15 143.2,-18.5 143.2,-11.5"/>
</a>
</g>
<text text-anchor="middle" x="187.5" y="-18" font-family="Helvetica,sans-Serif" font-size="10.00" fill="grey"> elements</text>
</g>
</g>
</svg>
