<?xml version="1.0" encoding="UTF-8" standalone="no"?>
<!DOCTYPE svg PUBLIC "-//W3C//DTD SVG 1.1//EN"
 "http://www.w3.org/Graphics/SVG/1.1/DTD/svg11.dtd">
<!-- Generated by graphviz version 2.43.0 (0)
 -->
<!-- Title: DirektDSP::DirektSection Pages: 1 -->
<svg width="392pt" height="124pt"
 viewBox="0.00 0.00 392.00 123.50" xmlns="http://www.w3.org/2000/svg" xmlns:xlink="http://www.w3.org/1999/xlink">
<g id="graph0" class="graph" transform="scale(1 1) rotate(0) translate(4 119.5)">
<title>DirektDSP::DirektSection</title>
<!-- Node1 -->
<g id="Node000001" class="node">
<title>Node1</title>
<g id="a_Node000001"><a xlink:title=" ">
<polygon fill="#999999" stroke="#666666" points="384,-72.5 246,-72.5 246,-53.5 384,-53.5 384,-72.5"/>
<text text-anchor="middle" x="315" y="-60.5" font-family="Helvetica,sans-Serif" font-size="10.00">DirektDSP::DirektSection</text>
</a>
</g>
</g>
<!-- Node2 -->
<g id="Node000002" class="node">
<title>Node2</title>
<g id="a_Node000002"><a xlink:title=" ">
<polygon fill="white" stroke="#666666" points="110,-115.5 11,-115.5 11,-96.5 110,-96.5 110,-115.5"/>
<text text-anchor="middle" x="60.5" y="-103.5" font-family="Helvetica,sans-Serif" font-size="10.00">juce::Component</text>
</a>
</g>
</g>
<!-- Node2&#45;&gt;Node1 -->
<g id="edge1_Node000001_Node000002" class="edge">
<title>Node2&#45;&gt;Node1</title>
<g id="a_edge1_Node000001_Node000002"><a xlink:title=" ">
<path fill="none" stroke="#63b8ff" d="M120.37,-96.19C152.24,-90.86 192.28,-84.12 228,-78 238.16,-76.26 248.99,-74.39 259.42,-72.57"/>
<polygon fill="#63b8ff" stroke="#63b8ff" points="119.61,-92.77 110.33,-97.87 120.77,-99.67 119.61,-92.77"/>
</a>
</g>
</g>
<!-- Node3 -->
<g id="Node000003" class="node">
<title>Node3</title>
<g id="a_Node000003"><a xlink:title=" ">
<polygon fill="white" stroke="#666666" points="113.5,-78 7.5,-78 7.5,-48 113.5,-48 113.5,-78"/>
<text text-anchor="start" x="15.5" y="-66" font-family="Helvetica,sans-Serif" font-size="10.00">std::vector&lt; juce::</text>
<text text-anchor="middle" x="60.5" y="-55" font-family="Helvetica,sans-Serif" font-size="10.00">Component * &gt;</text>
</a>
</g>
</g>
<!-- Node3&#45;&gt;Node1 -->
<g id="edge2_Node000001_Node000003" class="edge">
<title>Node3&#45;&gt;Node1</title>
<g id="a_edge2_Node000001_Node000003"><a xlink:title=" ">
<path fill="none" stroke="#9a32cd" stroke-dasharray="5,2" d="M123.67,-63C160.69,-63 207.71,-63 245.75,-63"/>
<polygon fill="#9a32cd" stroke="#9a32cd" points="123.51,-59.5 113.51,-63 123.51,-66.5 123.51,-59.5"/>
</a>
</g>
<text text-anchor="middle" x="183.5" y="-66" font-family="Helvetica,sans-Serif" font-size="10.00" fill="grey"> controls</text>
</g>
<!-- Node4 -->
<g id="Node000004" class="node">
<title>Node4</title>
<g id="a_Node000004"><a xlink:title=" ">
<polygon fill="white" stroke="#666666" points="121,-30 0,-30 0,0 121,0 121,-30"/>
<text text-anchor="start" x="8" y="-18" font-family="Helvetica,sans-Serif" font-size="10.00">std::unique_ptr&lt; juce</text>
<text text-anchor="middle" x="60.5" y="-7" font-family="Helvetica,sans-Serif" font-size="10.00">::Component &gt;</text>
</a>
</g>
</g>
<!-- Node4&#45;&gt;Node1 -->
<g id="edge3_Node000001_Node000004" class="edge">
<title>Node4&#45;&gt;Node1</title>
<g id="a_edge3_Node000001_Node000004"><a xlink:title=" ">
<path fill="none" stroke="#9a32cd" stroke-dasharray="5,2" d="M130.92,-28.2C173.02,-36.2 225.76,-46.23 263.81,-53.46"/>
<polygon fill="#9a32cd" stroke="#9a32cd" points="131.5,-24.74 121.02,-26.31 130.19,-31.62 131.5,-24.74"/>
</a>
</g>
<text text-anchor="middle" x="183.5" y="-50" font-family="Helvetica,sans-Serif" font-size="10.00" fill="grey"> titleBarAccessory</text>
</g>
</g>
</svg>
