<?xml version="1.0" encoding="UTF-8" standalone="no"?>
<!DOCTYPE svg PUBLIC "-//W3C//DTD SVG 1.1//EN"
 "http://www.w3.org/Graphics/SVG/1.1/DTD/svg11.dtd">
<!-- Generated by graphviz version 2.43.0 (0)
 -->
<!-- Title: DirektDSP::DirektToggle Pages: 1 -->
<svg width="886pt" height="140pt"
 viewBox="0.00 0.00 886.00 140.00" xmlns="http://www.w3.org/2000/svg" xmlns:xlink="http://www.w3.org/1999/xlink">
<g id="graph0" class="graph" transform="scale(1 1) rotate(0) translate(4 136)">
<title>DirektDSP::DirektToggle</title>
<!-- Node1 -->
<g id="Node000001" class="node">
<title>Node1</title>
<g id="a_Node000001"><a xlink:title=" ">
<polygon fill="#999999" stroke="#666666" points="878,-84 744,-84 744,-65 878,-65 878,-84"/>
<text text-anchor="middle" x="811" y="-72" font-family="Helvetica,sans-Serif" font-size="10.00">DirektDSP::DirektToggle</text>
</a>
</g>
</g>
<!-- Node2 -->
<g id="Node000002" class="node">
<title>Node2</title>
<g id="a_Node000002"><a xlink:title=" ">
<polygon fill="white" stroke="#666666" points="582.5,-132 483.5,-132 483.5,-113 582.5,-113 582.5,-132"/>
<text text-anchor="middle" x="533" y="-120" font-family="Helvetica,sans-Serif" font-size="10.00">juce::Component</text>
</a>
</g>
</g>
<!-- Node2&#45;&gt;Node1 -->
<g id="edge1_Node000001_Node000002" class="edge">
<title>Node2&#45;&gt;Node1</title>
<g id="a_edge1_Node000001_Node000002"><a xlink:title=" ">
<path fill="none" stroke="#63b8ff" d="M592.43,-112.56C630.48,-106.06 681.2,-97.35 726,-89.5 735.92,-87.76 746.5,-85.89 756.69,-84.07"/>
<polygon fill="#63b8ff" stroke="#63b8ff" points="591.81,-109.11 582.54,-114.25 592.99,-116.01 591.81,-109.11"/>
</a>
</g>
</g>
<!-- Node3 -->
<g id="Node000003" class="node">
<title>Node3</title>
<g id="a_Node000003"><a xlink:title=" ">
<polygon fill="white" stroke="#666666" points="618,-95 448,-95 448,-54 618,-54 618,-95"/>
<text text-anchor="start" x="456" y="-83" font-family="Helvetica,sans-Serif" font-size="10.00">std::unique_ptr&lt; juce</text>
<text text-anchor="start" x="456" y="-72" font-family="Helvetica,sans-Serif" font-size="10.00">::AudioProcessorValueTreeState</text>
<text text-anchor="middle" x="533" y="-61" font-family="Helvetica,sans-Serif" font-size="10.00">::ButtonAttachment &gt;</text>
</a>
</g>
</g>
<!-- Node3&#45;&gt;Node1 -->
<g id="edge2_Node000001_Node000003" class="edge">
<title>Node3&#45;&gt;Node1</title>
<g id="a_edge2_Node000001_Node000003"><a xlink:title=" ">
<path fill="none" stroke="#9a32cd" stroke-dasharray="5,2" d="M628.35,-74.5C666.3,-74.5 709.15,-74.5 743.7,-74.5"/>
<polygon fill="#9a32cd" stroke="#9a32cd" points="628.31,-71 618.31,-74.5 628.31,-78 628.31,-71"/>
</a>
</g>
<text text-anchor="middle" x="681" y="-77.5" font-family="Helvetica,sans-Serif" font-size="10.00" fill="grey"> attachment</text>
</g>
<!-- Node4 -->
<g id="Node000004" class="node">
<title>Node4</title>
<g id="a_Node000004"><a xlink:href="classDirektDSP_1_1DirektParameterHistory.html" target="_top" xlink:title="Maintains undo/redo history for APVTS parameter edits.">
<polygon fill="white" stroke="#666666" points="609,-35.5 457,-35.5 457,-5.5 609,-5.5 609,-35.5"/>
<text text-anchor="start" x="465" y="-23.5" font-family="Helvetica,sans-Serif" font-size="10.00">DirektDSP::DirektParameter</text>
<text text-anchor="middle" x="533" y="-12.5" font-family="Helvetica,sans-Serif" font-size="10.00">History</text>
</a>
</g>
</g>
<!-- Node4&#45;&gt;Node1 -->
<g id="edge3_Node000001_Node000004" class="edge">
<title>Node4&#45;&gt;Node1</title>
<g id="a_edge3_Node000001_Node000004"><a xlink:title=" ">
<path fill="none" stroke="#9a32cd" stroke-dasharray="5,2" d="M619.15,-37.16C665.74,-46.27 721.8,-57.24 761.06,-64.93"/>
<polygon fill="#9a32cd" stroke="#9a32cd" points="619.54,-33.67 609.05,-35.18 618.2,-40.54 619.54,-33.67"/>
</a>
</g>
<text text-anchor="middle" x="681" y="-59.5" font-family="Helvetica,sans-Serif" font-size="10.00" fill="grey"> parameterHistory</text>
</g>
<!-- Node5 -->
<g id="Node000005" class="node">
<title>Node5</title>
<g id="a_Node000005"><a xlink:title=" ">
<polygon fill="white" stroke="#666666" points="375,-41 237,-41 237,0 375,0 375,-41"/>
<text text-anchor="start" x="245" y="-29" font-family="Helvetica,sans-Serif" font-size="10.00">std::vector&lt; DirektDSP</text>
<text text-anchor="start" x="245" y="-18" font-family="Helvetica,sans-Serif" font-size="10.00">::DirektParameterHistory</text>
<text text-anchor="middle" x="306" y="-7" font-family="Helvetica,sans-Serif" font-size="10.00">::ParameterChange &gt;</text>
</a>
</g>
</g>
<!-- Node5&#45;&gt;Node4 -->
<g id="edge4_Node000004_Node000005" class="edge">
<title>Node5&#45;&gt;Node4</title>
<g id="a_edge4_Node000004_Node000005"><a xlink:title=" ">
<path fill="none" stroke="#9a32cd" stroke-dasharray="5,2" d="M385.24,-20.5C408.39,-20.5 433.69,-20.5 456.65,-20.5"/>
<polygon fill="#9a32cd" stroke="#9a32cd" points="385.12,-17 375.12,-20.5 385.12,-24 385.12,-17"/>
</a>
</g>
<text text-anchor="middle" x="411.5" y="-23.5" font-family="Helvetica,sans-Serif" font-size="10.00" fill="grey"> history</text>
</g>
<!-- Node6 -->
<g id="Node000006" class="node">
<title>Node6</title>
<g id="a_Node000006"><a xlink:href="structDirektDSP_1_1DirektParameterHistory_1_1ParameterChange.html" target="_top" xlink:title=" ">
<polygon fill="white" stroke="#666666" points="152,-35.5 0,-35.5 0,-5.5 152,-5.5 152,-35.5"/>
<text text-anchor="start" x="8" y="-23.5" font-family="Helvetica,sans-Serif" font-size="10.00">DirektDSP::DirektParameter</text>
<text text-anchor="middle" x="76" y="-12.5" font-family="Helvetica,sans-Serif" font-size="10.00">History::ParameterChange</text>
</a>
</g>
</g>
<!-- Node6&#45;&gt;Node5 -->
<g id="edge5_Node000005_Node000006" class="edge">
<title>Node6&#45;&gt;Node5</title>
<g id="a_edge5_Node000005_Node000006"><a xlink:title=" ">
<path fill="none" stroke="#9a32cd" stroke-dasharray="5,2" d="M162.32,-20.5C186.88,-20.5 213.33,-20.5 236.72,-20.5"/>
<polygon fill="#9a32cd" stroke="#9a32cd" points="162.29,-17 152.29,-20.5 162.29,-24 162.29,-17"/>
</a>
</g>
<text text-anchor="middle" x="194.5" y="-23.5" font-family="Helvetica,sans-Serif" font-size="10.00" fill="grey"> elements</text>
</g>
</g>
</svg>
