<?xml version="1.0" encoding="UTF-8" standalone="no"?>
<!DOCTYPE svg PUBLIC "-//W3C//DTD SVG 1.1//EN"
 "http://www.w3.org/Graphics/SVG/1.1/DTD/svg11.dtd">
<!-- Generated by graphviz version 2.43.0 (0)
 -->
<!-- Title: DirektDSP::DirektMeter Pages: 1 -->
<svg width="480pt" height="104pt"
 viewBox="0.00 0.00 479.50 104.00" xmlns="http://www.w3.org/2000/svg" xmlns:xlink="http://www.w3.org/1999/xlink">

<svg id="main" version="1.1" xmlns="http://www.w3.org/2000/svg" xmlns:xlink="http://www.w3.org/1999/xlink" xml:space="preserve" onload="init(evt)">
<style type="text/css"><![CDATA[
.node, .edge {opacity: 0.7;}
.node.selected, .edge.selected {opacity: 1;}
.edge:hover path { stroke: red; }
.edge:hover polygon { stroke: red; fill: red; }
]]></style>
<script type="application/ecmascript" xlink:href="svg.min.js"/>
<svg id="graph" class="graph">
<g id="graph0" class="graph" transform="scale(1 1) rotate(0) translate(4 100)">
<title>DirektDSP::DirektMeter</title>
<!-- Node1 -->
<g id="Node000001" class="node">
<title>Node1</title>
<g id="a_Node000001"><a xlink:title=" ">
<polygon fill="#999999" stroke="#666666" points="277,-19 146,-19 146,0 277,0 277,-19"/>
<text text-anchor="middle" x="211.5" y="-7" font-family="Helvetica,sans-Serif" font-size="10.00">DirektDSP::DirektMeter</text>
</a>
</g>
</g>
<!-- Node2 -->
<g id="Node000002" class="node">
<title>Node2</title>
<g id="a_Node000002"><a xlink:title=" ">
<polygon fill="white" stroke="#666666" points="99,-90.5 0,-90.5 0,-71.5 99,-71.5 99,-90.5"/>
<text text-anchor="middle" x="49.5" y="-78.5" font-family="Helvetica,sans-Serif" font-size="10.00">juce::Component</text>
</a>
</g>
</g>
<!-- Node2&#45;&gt;Node1 -->
<g id="edge1_Node000001_Node000002" class="edge">
<title>Node2&#45;&gt;Node1</title>
<g id="a_edge1_Node000001_Node000002"><a xlink:title=" ">
<path fill="none" stroke="#63b8ff" d="M78.82,-67.42C111.42,-53.43 163.21,-31.22 191.47,-19.09"/>
<polygon fill="#63b8ff" stroke="#63b8ff" points="77.17,-64.32 69.36,-71.48 79.93,-70.75 77.17,-64.32"/>
</a>
</g>
</g>
<!-- Node3 -->
<g id="Node000003" class="node">
<title>Node3</title>
<g id="a_Node000003"><a xlink:title=" ">
<polygon fill="white" stroke="#666666" points="188,-90.5 117,-90.5 117,-71.5 188,-71.5 188,-90.5"/>
<text text-anchor="middle" x="152.5" y="-78.5" font-family="Helvetica,sans-Serif" font-size="10.00">juce::Timer</text>
</a>
</g>
</g>
<!-- Node3&#45;&gt;Node1 -->
<g id="edge2_Node000001_Node000003" class="edge">
<title>Node3&#45;&gt;Node1</title>
<g id="a_edge2_Node000001_Node000003"><a xlink:title=" ">
<path fill="none" stroke="#8b1a1a" d="M166.39,-63.63C178.24,-49.68 194.8,-30.17 204.21,-19.09"/>
<polygon fill="#8b1a1a" stroke="#8b1a1a" points="163.54,-61.59 159.73,-71.48 168.87,-66.12 163.54,-61.59"/>
</a>
</g>
</g>
<!-- Node4 -->
<g id="Node000004" class="node">
<title>Node4</title>
<g id="a_Node000004"><a xlink:href="structDirektDSP_1_1DirektMeter_1_1Config.html" target="_top" xlink:title=" ">
<polygon fill="white" stroke="#666666" points="337,-96 206,-96 206,-66 337,-66 337,-96"/>
<text text-anchor="start" x="214" y="-84" font-family="Helvetica,sans-Serif" font-size="10.00">DirektDSP::DirektMeter</text>
<text text-anchor="middle" x="271.5" y="-73" font-family="Helvetica,sans-Serif" font-size="10.00">::Config</text>
</a>
</g>
</g>
<!-- Node4&#45;&gt;Node1 -->
<g id="edge3_Node000001_Node000004" class="edge">
<title>Node4&#45;&gt;Node1</title>
<g id="a_edge3_Node000001_Node000004"><a xlink:title=" ">
<path fill="none" stroke="#9a32cd" stroke-dasharray="5,2" d="M252.68,-58.2C241.32,-45.04 227.46,-28.99 219.07,-19.27"/>
<polygon fill="#9a32cd" stroke="#9a32cd" points="250.17,-60.65 259.36,-65.94 255.47,-56.08 250.17,-60.65"/>
</a>
</g>
<text text-anchor="middle" x="260" y="-40" font-family="Helvetica,sans-Serif" font-size="10.00" fill="grey"> config</text>
</g>
<!-- Node5 -->
<g id="Node000005" class="node">
<title>Node5</title>
<g id="a_Node000005"><a xlink:title=" ">
<polygon fill="white" stroke="#666666" points="471.5,-90.5 355.5,-90.5 355.5,-71.5 471.5,-71.5 471.5,-90.5"/>
<text text-anchor="middle" x="413.5" y="-78.5" font-family="Helvetica,sans-Serif" font-size="10.00">std::atomic&lt; float &gt;</text>
</a>
</g>
</g>
<!-- Node5&#45;&gt;Node1 -->
<g id="edge4_Node000001_Node000005" class="edge">
<title>Node5&#45;&gt;Node1</title>
<g id="a_edge4_Node000001_Node000005"><a xlink:title=" ">
<path fill="none" stroke="#9a32cd" stroke-dasharray="5,2" d="M379.02,-68.14C338.52,-54.2 272.33,-31.43 236.47,-19.09"/>
<polygon fill="#9a32cd" stroke="#9a32cd" points="378.14,-71.53 388.73,-71.48 380.41,-64.91 378.14,-71.53"/>
</a>
</g>
<text text-anchor="middle" x="336.5" y="-40" font-family="Helvetica,sans-Serif" font-size="10.00" fill="grey"> source</text>
</g>
</g>
</svg>
</svg>

<style type='text/css'>
<![CDATA[
[data-mouse-over-selected='false'] { opacity: 0.7; }
[data-mouse-over-selected='true']  { opacity: 1.0; }
]]>
</style>
<script type="application/ecmascript"><![CDATA[
document.addEventListener('DOMContentLoaded', (event) => {
  highlightEdges();
  highlightAdjacentNodes();
});
]]></script>
</svg>
