<?xml version="1.0" encoding="UTF-8" standalone="no"?>
<!DOCTYPE svg PUBLIC "-//W3C//DTD SVG 1.1//EN"
 "http://www.w3.org/Graphics/SVG/1.1/DTD/svg11.dtd">
<!-- Generated by graphviz version 2.43.0 (0)
 -->
<!-- Title: DirektDSP::DirektSection Pages: 1 -->
<svg width="232pt" height="104pt"
 viewBox="0.00 0.00 231.50 104.00" xmlns="http://www.w3.org/2000/svg" xmlns:xlink="http://www.w3.org/1999/xlink">
<g id="graph0" class="graph" transform="scale(1 1) rotate(0) translate(4 100)">
<title>DirektDSP::DirektSection</title>
<!-- Node1 -->
<g id="Node000001" class="node">
<title>Node1</title>
<g id="a_Node000001"><a xlink:title=" ">
<polygon fill="#999999" stroke="#666666" points="178.5,-19 40.5,-19 40.5,0 178.5,0 178.5,-19"/>
<text text-anchor="middle" x="109.5" y="-7" font-family="Helvetica,sans-Serif" font-size="10.00">DirektDSP::DirektSection</text>
</a>
</g>
</g>
<!-- Node2 -->
<g id="Node000002" class="node">
<title>Node2</title>
<g id="a_Node000002"><a xlink:title=" ">
<polygon fill="white" stroke="#666666" points="99,-90.5 0,-90.5 0,-71.5 99,-71.5 99,-90.5"/>
<text text-anchor="middle" x="49.5" y="-78.5" font-family="Helvetica,sans-Serif" font-size="10.00">juce::Component</text>
</a>
</g>
</g>
<!-- Node2&#45;&gt;Node1 -->
<g id="edge1_Node000001_Node000002" class="edge">
<title>Node2&#45;&gt;Node1</title>
<g id="a_edge1_Node000001_Node000002"><a xlink:title=" ">
<path fill="none" stroke="#63b8ff" d="M63.63,-63.63C75.68,-49.68 92.52,-30.17 102.08,-19.09"/>
<polygon fill="#63b8ff" stroke="#63b8ff" points="60.74,-61.62 56.86,-71.48 66.04,-66.2 60.74,-61.62"/>
</a>
</g>
</g>
<!-- Node3 -->
<g id="Node000003" class="node">
<title>Node3</title>
<g id="a_Node000003"><a xlink:title=" ">
<polygon fill="white" stroke="#666666" points="223.5,-96 117.5,-96 117.5,-66 223.5,-66 223.5,-96"/>
<text text-anchor="start" x="125.5" y="-84" font-family="Helvetica,sans-Serif" font-size="10.00">std::vector&lt; juce::</text>
<text text-anchor="middle" x="170.5" y="-73" font-family="Helvetica,sans-Serif" font-size="10.00">Component * &gt;</text>
</a>
</g>
</g>
<!-- Node3&#45;&gt;Node1 -->
<g id="edge2_Node000001_Node000003" class="edge">
<title>Node3&#45;&gt;Node1</title>
<g id="a_edge2_Node000001_Node000003"><a xlink:title=" ">
<path fill="none" stroke="#9a32cd" stroke-dasharray="5,2" d="M151.36,-58.2C139.81,-45.04 125.73,-28.99 117.19,-19.27"/>
<polygon fill="#9a32cd" stroke="#9a32cd" points="148.93,-60.73 158.16,-65.94 154.19,-56.11 148.93,-60.73"/>
</a>
</g>
<text text-anchor="middle" x="163" y="-40" font-family="Helvetica,sans-Serif" font-size="10.00" fill="grey"> controls</text>
</g>
</g>
</svg>
