<?xml version="1.0" encoding="UTF-8" standalone="no"?>
<!DOCTYPE svg PUBLIC "-//W3C//DTD SVG 1.1//EN"
 "http://www.w3.org/Graphics/SVG/1.1/DTD/svg11.dtd">
<!-- Generated by graphviz version 2.43.0 (0)
 -->
<!-- Title: DirektDSP::DirektBaseEditor Pages: 1 -->
<!--zoomable 665 -->

<svg id="main" version="1.1" xmlns="http://www.w3.org/2000/svg" xmlns:xlink="http://www.w3.org/1999/xlink" xml:space="preserve" onload="init(evt)">
<style type="text/css"><![CDATA[
.node, .edge {opacity: 0.7;}
.node.selected, .edge.selected {opacity: 1;}
.edge:hover path { stroke: red; }
.edge:hover polygon { stroke: red; fill: red; }
]]></style>

<defs>
  <circle id="rim" cx="0" cy="0" r="7"/>
  <circle id="rim2" cx="0" cy="0" r="3.5"/>
  <g id="zoomPlus">
    <use xlink:href="#rim" fill="#404040"><set attributeName="fill" to="#808080" begin="zoomplus.mouseover" end="zoomplus.mouseout"/></use>
    <path d="M-4,0h8M0,-4v8" fill="none" stroke="white" stroke-width="1.5" pointer-events="none"/>
  </g>
  <g id="zoomMin">
    <use xlink:href="#rim" fill="#404040"><set attributeName="fill" to="#808080" begin="zoomminus.mouseover" end="zoomminus.mouseout"/></use>
    <path d="M-4,0h8" fill="none" stroke="white" stroke-width="1.5" pointer-events="none"/>
  </g>
  <g id="arrowUp" transform="translate(30 24)">
    <use xlink:href="#rim"/>
    <path pointer-events="none" fill="none" stroke="white" stroke-width="1.5" d="M0,-3.0v7 M-2.5,-0.5L0,-3.0L2.5,-0.5"/>
  </g>
  <g id="arrowRight" transform="rotate(90) translate(36 -43)">
    <use xlink:href="#rim"/>
    <path pointer-events="none" fill="none" stroke="white" stroke-width="1.5" d="M0,-3.0v7 M-2.5,-0.5L0,-3.0L2.5,-0.5"/>
  </g>
  <g id="arrowDown" transform="rotate(180) translate(-30 -48)">
    <use xlink:href="#rim"/>
    <path pointer-events="none" fill="none" stroke="white" stroke-width="1.5" d="M0,-3.0v7 M-2.5,-0.5L0,-3.0L2.5,-0.5"/>
  </g>
  <g id="arrowLeft" transform="rotate(270) translate(-36 17)">
    <use xlink:href="#rim"/>
    <path pointer-events="none" fill="none" stroke="white" stroke-width="1.5" d="M0,-3.0v7 M-2.5,-0.5L0,-3.0L2.5,-0.5"/>
  </g>
  <g id="resetDef">
    <use xlink:href="#rim2" fill="#404040"><set attributeName="fill" to="#808080" begin="reset.mouseover" end="reset.mouseout"/></use>
  </g>
</defs>
<script type="application/ecmascript">
var viewWidth = 1559;
var viewHeight = 665;
var sectionId = 'dynsection-1';
</script>
<script type="application/ecmascript" xlink:href="svg.min.js"/>
<svg id="graph" class="graph">
<g id="viewport">
<title>DirektDSP::DirektBaseEditor</title>
<!-- Node1 -->
<g id="Node000001" class="node">
<title>Node1</title>
<g id="a_Node000001"><a xlink:title=" ">
<polygon fill="#999999" stroke="#666666" points="1551,-401.43 1396,-401.43 1396,-382.43 1551,-382.43 1551,-401.43"/>
<text text-anchor="middle" x="1473.5" y="-389.43" font-family="Helvetica,sans-Serif" font-size="10.00">DirektDSP::DirektBaseEditor</text>
</a>
</g>
</g>
<!-- Node2 -->
<g id="Node000002" class="node">
<title>Node2</title>
<g id="a_Node000002"><a xlink:title=" ">
<polygon fill="white" stroke="#666666" points="1274,-657.43 1128,-657.43 1128,-638.43 1274,-638.43 1274,-657.43"/>
<text text-anchor="middle" x="1201" y="-645.43" font-family="Helvetica,sans-Serif" font-size="10.00">juce::AudioProcessorEditor</text>
</a>
</g>
</g>
<!-- Node2&#45;&gt;Node1 -->
<g id="edge1_Node000001_Node000002" class="edge">
<title>Node2&#45;&gt;Node1</title>
<g id="a_edge1_Node000001_Node000002"><a xlink:title=" ">
<path fill="none" stroke="#63b8ff" d="M1284.34,-650.32C1316.49,-647.33 1351.84,-638.73 1378,-617.93 1450.57,-560.23 1468.07,-436.91 1471.67,-401.57"/>
<polygon fill="#63b8ff" stroke="#63b8ff" points="1283.73,-646.85 1274.03,-651.1 1284.26,-653.83 1283.73,-646.85"/>
</a>
</g>
</g>
<!-- Node3 -->
<g id="Node000003" class="node">
<title>Node3</title>
<g id="a_Node000003"><a xlink:title=" ">
<polygon fill="white" stroke="#666666" points="1265.5,-619.93 1136.5,-619.93 1136.5,-589.93 1265.5,-589.93 1265.5,-619.93"/>
<text text-anchor="start" x="1144.5" y="-607.93" font-family="Helvetica,sans-Serif" font-size="10.00">std::vector&lt; DirektDSP</text>
<text text-anchor="middle" x="1201" y="-596.93" font-family="Helvetica,sans-Serif" font-size="10.00">::BuiltSection &gt;</text>
</a>
</g>
</g>
<!-- Node3&#45;&gt;Node1 -->
<g id="edge2_Node000001_Node000003" class="edge">
<title>Node3&#45;&gt;Node1</title>
<g id="a_edge2_Node000001_Node000003"><a xlink:title=" ">
<path fill="none" stroke="#9a32cd" stroke-dasharray="5,2" d="M1275.9,-607.41C1309.81,-605.09 1348.86,-597.17 1378,-575.93 1440.1,-530.66 1464.41,-432.5 1470.72,-401.51"/>
<polygon fill="#9a32cd" stroke="#9a32cd" points="1275.35,-603.93 1265.55,-607.95 1275.73,-610.92 1275.35,-603.93"/>
</a>
</g>
<text text-anchor="middle" x="1341" y="-605.93" font-family="Helvetica,sans-Serif" font-size="10.00" fill="grey"> builtSections</text>
</g>
<!-- Node4 -->
<g id="Node000004" class="node">
<title>Node4</title>
<g id="a_Node000004"><a xlink:href="structDirektDSP_1_1BuiltSection.html" target="_top" xlink:title=" ">
<polygon fill="white" stroke="#666666" points="962,-614.43 831,-614.43 831,-595.43 962,-595.43 962,-614.43"/>
<text text-anchor="middle" x="896.5" y="-602.43" font-family="Helvetica,sans-Serif" font-size="10.00">DirektDSP::BuiltSection</text>
</a>
</g>
</g>
<!-- Node4&#45;&gt;Node3 -->
<g id="edge3_Node000003_Node000004" class="edge">
<title>Node4&#45;&gt;Node3</title>
<g id="a_edge3_Node000003_Node000004"><a xlink:title=" ">
<path fill="none" stroke="#9a32cd" stroke-dasharray="5,2" d="M972.21,-604.93C1022.62,-604.93 1088.44,-604.93 1136.36,-604.93"/>
<polygon fill="#9a32cd" stroke="#9a32cd" points="972.02,-601.43 962.02,-604.93 972.02,-608.43 972.02,-601.43"/>
</a>
</g>
<text text-anchor="middle" x="1049.5" y="-607.93" font-family="Helvetica,sans-Serif" font-size="10.00" fill="grey"> elements</text>
</g>
<!-- Node5 -->
<g id="Node000005" class="node">
<title>Node5</title>
<g id="a_Node000005"><a xlink:title=" ">
<polygon fill="white" stroke="#666666" points="604.5,-627.93 454.5,-627.93 454.5,-597.93 604.5,-597.93 604.5,-627.93"/>
<text text-anchor="start" x="462.5" y="-615.93" font-family="Helvetica,sans-Serif" font-size="10.00">std::unique_ptr&lt; DirektDSP</text>
<text text-anchor="middle" x="529.5" y="-604.93" font-family="Helvetica,sans-Serif" font-size="10.00">::DirektSection &gt;</text>
</a>
</g>
</g>
<!-- Node5&#45;&gt;Node4 -->
<g id="edge4_Node000004_Node000005" class="edge">
<title>Node5&#45;&gt;Node4</title>
<g id="a_edge4_Node000004_Node000005"><a xlink:title=" ">
<path fill="none" stroke="#9a32cd" stroke-dasharray="5,2" d="M615.14,-611.07C680.88,-609.63 770.69,-607.66 830.77,-606.35"/>
<polygon fill="#9a32cd" stroke="#9a32cd" points="614.72,-607.58 604.8,-611.3 614.88,-614.58 614.72,-607.58"/>
</a>
</g>
<text text-anchor="middle" x="713" y="-612.93" font-family="Helvetica,sans-Serif" font-size="10.00" fill="grey"> section</text>
</g>
<!-- Node6 -->
<g id="Node000006" class="node">
<title>Node6</title>
<g id="a_Node000006"><a xlink:href="classDirektDSP_1_1DirektSection.html" target="_top" xlink:title=" ">
<polygon fill="#fff0f0" stroke="red" points="274,-585.43 136,-585.43 136,-566.43 274,-566.43 274,-585.43"/>
<text text-anchor="middle" x="205" y="-573.43" font-family="Helvetica,sans-Serif" font-size="10.00">DirektDSP::DirektSection</text>
</a>
</g>
</g>
<!-- Node6&#45;&gt;Node5 -->
<g id="edge5_Node000005_Node000006" class="edge">
<title>Node6&#45;&gt;Node5</title>
<g id="a_edge5_Node000005_Node000006"><a xlink:title=" ">
<path fill="none" stroke="#9a32cd" stroke-dasharray="5,2" d="M284.52,-584.94C336.22,-590.87 403.5,-598.59 454.3,-604.42"/>
<polygon fill="#9a32cd" stroke="#9a32cd" points="284.73,-581.44 274.39,-583.77 283.93,-588.39 284.73,-581.44"/>
</a>
</g>
<text text-anchor="middle" x="358.5" y="-603.93" font-family="Helvetica,sans-Serif" font-size="10.00" fill="grey"> ptr</text>
</g>
<!-- Node7 -->
<g id="Node000007" class="node">
<title>Node7</title>
<g id="a_Node000007"><a xlink:title=" ">
<polygon fill="white" stroke="#666666" points="99,-228.43 0,-228.43 0,-209.43 99,-209.43 99,-228.43"/>
<text text-anchor="middle" x="49.5" y="-216.43" font-family="Helvetica,sans-Serif" font-size="10.00">juce::Component</text>
</a>
</g>
</g>
<!-- Node7&#45;&gt;Node6 -->
<g id="edge6_Node000006_Node000007" class="edge">
<title>Node7&#45;&gt;Node6</title>
<g id="a_edge6_Node000006_Node000007"><a xlink:title=" ">
<path fill="none" stroke="#63b8ff" d="M50.12,-238.67C50.12,-293.81 57.37,-451.53 136,-544.93 144.27,-554.75 156.32,-561.62 167.98,-566.34"/>
<polygon fill="#63b8ff" stroke="#63b8ff" points="53.62,-238.55 50.21,-228.52 46.62,-238.49 53.62,-238.55"/>
</a>
</g>
</g>
<!-- Node13 -->
<g id="Node000013" class="node">
<title>Node13</title>
<g id="a_Node000013"><a xlink:href="classDirektDSP_1_1DirektHeader.html" target="_top" xlink:title=" ">
<polygon fill="white" stroke="#666666" points="965,-447.43 828,-447.43 828,-428.43 965,-428.43 965,-447.43"/>
<text text-anchor="middle" x="896.5" y="-435.43" font-family="Helvetica,sans-Serif" font-size="10.00">DirektDSP::DirektHeader</text>
</a>
</g>
</g>
<!-- Node7&#45;&gt;Node13 -->
<g id="edge12_Node000013_Node000007" class="edge">
<title>Node7&#45;&gt;Node13</title>
<g id="a_edge12_Node000013_Node000007"><a xlink:title=" ">
<path fill="none" stroke="#63b8ff" d="M78.5,-232.97C141.75,-264.06 301.26,-338.99 443,-376.93 525.82,-399.1 549.05,-392.4 634,-403.93 699.78,-412.85 774.94,-422.58 827.75,-429.33"/>
<polygon fill="#63b8ff" stroke="#63b8ff" points="80.05,-229.83 69.53,-228.54 76.94,-236.1 80.05,-229.83"/>
</a>
</g>
</g>
<!-- Node15 -->
<g id="Node000015" class="node">
<title>Node15</title>
<g id="a_Node000015"><a xlink:href="classDirektDSP_1_1DirektFooter.html" target="_top" xlink:title=" ">
<polygon fill="white" stroke="#666666" points="425,-228.43 292,-228.43 292,-209.43 425,-209.43 425,-228.43"/>
<text text-anchor="middle" x="358.5" y="-216.43" font-family="Helvetica,sans-Serif" font-size="10.00">DirektDSP::DirektFooter</text>
</a>
</g>
</g>
<!-- Node7&#45;&gt;Node15 -->
<g id="edge15_Node000015_Node000007" class="edge">
<title>Node7&#45;&gt;Node15</title>
<g id="a_edge15_Node000015_Node000007"><a xlink:title=" ">
<path fill="none" stroke="#63b8ff" d="M109.26,-218.93C161.49,-218.93 237.75,-218.93 291.94,-218.93"/>
<polygon fill="#63b8ff" stroke="#63b8ff" points="109.15,-215.43 99.15,-218.93 109.15,-222.43 109.15,-215.43"/>
</a>
</g>
</g>
<!-- Node16 -->
<g id="Node000016" class="node">
<title>Node16</title>
<g id="a_Node000016"><a xlink:href="classDirektDSP_1_1DirektPopupPanel.html" target="_top" xlink:title=" ">
<polygon fill="white" stroke="#666666" points="792,-186.43 634,-186.43 634,-167.43 792,-167.43 792,-186.43"/>
<text text-anchor="middle" x="713" y="-174.43" font-family="Helvetica,sans-Serif" font-size="10.00">DirektDSP::DirektPopupPanel</text>
</a>
</g>
</g>
<!-- Node7&#45;&gt;Node16 -->
<g id="edge17_Node000016_Node000007" class="edge">
<title>Node7&#45;&gt;Node16</title>
<g id="a_edge17_Node000016_Node000007"><a xlink:title=" ">
<path fill="none" stroke="#63b8ff" d="M109.13,-214.27C158.02,-210.46 229.53,-205.04 292,-200.93 411.16,-193.08 549.43,-185.47 633.79,-180.99"/>
<polygon fill="#63b8ff" stroke="#63b8ff" points="108.75,-210.79 99.05,-215.06 109.29,-217.77 108.75,-210.79"/>
</a>
</g>
</g>
<!-- Node20 -->
<g id="Node000020" class="node">
<title>Node20</title>
<g id="a_Node000020"><a xlink:href="classDirektDSP_1_1DirektPresetBrowser.html" target="_top" xlink:title=" ">
<polygon fill="white" stroke="#666666" points="983,-139.43 810,-139.43 810,-120.43 983,-120.43 983,-139.43"/>
<text text-anchor="middle" x="896.5" y="-127.43" font-family="Helvetica,sans-Serif" font-size="10.00">DirektDSP::DirektPresetBrowser</text>
</a>
</g>
</g>
<!-- Node7&#45;&gt;Node20 -->
<g id="edge23_Node000020_Node000007" class="edge">
<title>Node7&#45;&gt;Node20</title>
<g id="a_edge23_Node000020_Node000007"><a xlink:title=" ">
<path fill="none" stroke="#63b8ff" d="M54.51,-199.36C62.8,-164.62 85.45,-92.98 136,-62.93 391.73,89.09 783.83,-77.45 875.74,-120.38"/>
<polygon fill="#63b8ff" stroke="#63b8ff" points="51.07,-198.73 52.3,-209.25 57.9,-200.25 51.07,-198.73"/>
</a>
</g>
</g>
<!-- Node9 -->
<g id="Node000009" class="node">
<title>Node9</title>
<g id="a_Node000009"><a xlink:title=" ">
<polygon fill="white" stroke="#666666" points="605.5,-570.93 453.5,-570.93 453.5,-540.93 605.5,-540.93 605.5,-570.93"/>
<text text-anchor="start" x="461.5" y="-558.93" font-family="Helvetica,sans-Serif" font-size="10.00">std::vector&lt; std::unique</text>
<text text-anchor="middle" x="529.5" y="-547.93" font-family="Helvetica,sans-Serif" font-size="10.00">_ptr&lt; juce::Component &gt; &gt;</text>
</a>
</g>
</g>
<!-- Node9&#45;&gt;Node1 -->
<g id="edge33_Node000001_Node000009" class="edge">
<title>Node9&#45;&gt;Node1</title>
<g id="a_edge33_Node000001_Node000009"><a xlink:title=" ">
<path fill="none" stroke="#9a32cd" stroke-dasharray="5,2" d="M616.04,-560.29C756.62,-566.02 1045.01,-571.77 1286,-537.93 1327.85,-532.05 1342.73,-537.21 1378,-513.93 1423.39,-483.97 1456.22,-424.81 1467.86,-401.6"/>
<polygon fill="#9a32cd" stroke="#9a32cd" points="615.9,-556.78 605.76,-559.86 615.61,-563.77 615.9,-556.78"/>
</a>
</g>
<text text-anchor="middle" x="1049.5" y="-563.93" font-family="Helvetica,sans-Serif" font-size="10.00" fill="grey"> ownedComponents</text>
</g>
<!-- Node9&#45;&gt;Node4 -->
<g id="edge7_Node000004_Node000009" class="edge">
<title>Node9&#45;&gt;Node4</title>
<g id="a_edge7_Node000004_Node000009"><a xlink:title=" ">
<path fill="none" stroke="#9a32cd" stroke-dasharray="5,2" d="M615.93,-570.24C622.04,-571.18 628.11,-572.08 634,-572.93 701.01,-582.53 777.94,-591.72 830.92,-597.77"/>
<polygon fill="#9a32cd" stroke="#9a32cd" points="616.05,-566.72 605.63,-568.64 614.97,-573.64 616.05,-566.72"/>
</a>
</g>
<text text-anchor="middle" x="713" y="-595.93" font-family="Helvetica,sans-Serif" font-size="10.00" fill="grey"> controls</text>
</g>
<!-- Node26 -->
<g id="Node000026" class="node">
<title>Node26</title>
<g id="a_Node000026"><a xlink:href="structDirektDSP_1_1BuiltNode.html" target="_top" xlink:title=" ">
<polygon fill="white" stroke="#666666" points="956.5,-532.43 836.5,-532.43 836.5,-513.43 956.5,-513.43 956.5,-532.43"/>
<text text-anchor="middle" x="896.5" y="-520.43" font-family="Helvetica,sans-Serif" font-size="10.00">DirektDSP::BuiltNode</text>
</a>
</g>
</g>
<!-- Node9&#45;&gt;Node26 -->
<g id="edge32_Node000026_Node000009" class="edge">
<title>Node9&#45;&gt;Node26</title>
<g id="a_edge32_Node000026_Node000009"><a xlink:title=" ">
<path fill="none" stroke="#9a32cd" stroke-dasharray="5,2" d="M615.84,-539.38C621.97,-538.46 628.07,-537.63 634,-536.93 703.19,-528.76 783.26,-525.35 836.38,-523.94"/>
<polygon fill="#9a32cd" stroke="#9a32cd" points="614.85,-535.99 605.51,-540.99 615.93,-542.9 614.85,-535.99"/>
</a>
</g>
<text text-anchor="middle" x="713" y="-539.93" font-family="Helvetica,sans-Serif" font-size="10.00" fill="grey"> ownedChildren</text>
</g>
<!-- Node10 -->
<g id="Node000010" class="node">
<title>Node10</title>
<g id="a_Node000010"><a xlink:title=" ">
<polygon fill="white" stroke="#666666" points="265.5,-535.93 144.5,-535.93 144.5,-505.93 265.5,-505.93 265.5,-535.93"/>
<text text-anchor="start" x="152.5" y="-523.93" font-family="Helvetica,sans-Serif" font-size="10.00">std::unique_ptr&lt; juce</text>
<text text-anchor="middle" x="205" y="-512.93" font-family="Helvetica,sans-Serif" font-size="10.00">::Component &gt;</text>
</a>
</g>
</g>
<!-- Node10&#45;&gt;Node9 -->
<g id="edge8_Node000009_Node000010" class="edge">
<title>Node10&#45;&gt;Node9</title>
<g id="a_edge8_Node000009_Node000010"><a xlink:title=" ">
<path fill="none" stroke="#9a32cd" stroke-dasharray="5,2" d="M275.74,-528.5C328.12,-534.18 399.77,-541.96 453.41,-547.78"/>
<polygon fill="#9a32cd" stroke="#9a32cd" points="275.85,-524.99 265.53,-527.39 275.09,-531.95 275.85,-524.99"/>
</a>
</g>
<text text-anchor="middle" x="358.5" y="-546.93" font-family="Helvetica,sans-Serif" font-size="10.00" fill="grey"> elements</text>
</g>
<!-- Node10&#45;&gt;Node26 -->
<g id="edge31_Node000026_Node000010" class="edge">
<title>Node10&#45;&gt;Node26</title>
<g id="a_edge31_Node000026_Node000010"><a xlink:title=" ">
<path fill="none" stroke="#9a32cd" stroke-dasharray="5,2" d="M276.19,-520.49C386.15,-519.9 605.74,-519.13 792,-520.93 806.38,-521.07 821.88,-521.31 836.39,-521.59"/>
<polygon fill="#9a32cd" stroke="#9a32cd" points="275.88,-516.99 265.9,-520.55 275.92,-523.99 275.88,-516.99"/>
</a>
</g>
<text text-anchor="middle" x="529.5" y="-521.93" font-family="Helvetica,sans-Serif" font-size="10.00" fill="grey"> component</text>
</g>
<!-- Node11 -->
<g id="Node000011" class="node">
<title>Node11</title>
<g id="a_Node000011"><a xlink:href="classDirektDSP_1_1DirektLookAndFeel.html" target="_top" xlink:title=" ">
<polygon fill="white" stroke="#666666" points="978.5,-354.43 814.5,-354.43 814.5,-335.43 978.5,-335.43 978.5,-354.43"/>
<text text-anchor="middle" x="896.5" y="-342.43" font-family="Helvetica,sans-Serif" font-size="10.00">DirektDSP::DirektLookAndFeel</text>
</a>
</g>
</g>
<!-- Node11&#45;&gt;Node1 -->
<g id="edge9_Node000001_Node000011" class="edge">
<title>Node11&#45;&gt;Node1</title>
<g id="a_edge9_Node000001_Node000011"><a xlink:title=" ">
<path fill="none" stroke="#9a32cd" stroke-dasharray="5,2" d="M989.18,-346.39C1068.03,-348.31 1184.74,-352.74 1286,-362.93 1331.81,-367.54 1383.51,-375.82 1420.84,-382.36"/>
<polygon fill="#9a32cd" stroke="#9a32cd" points="988.87,-342.88 978.79,-346.14 988.71,-349.88 988.87,-342.88"/>
</a>
</g>
<text text-anchor="middle" x="1201" y="-365.93" font-family="Helvetica,sans-Serif" font-size="10.00" fill="grey"> lookAndFeel</text>
</g>
<!-- Node27 -->
<g id="Node000027" class="node">
<title>Node27</title>
<g id="a_Node000027"><a xlink:href="structDirektDSP_1_1BuildContext.html" target="_top" xlink:title=" ">
<polygon fill="white" stroke="#666666" points="1268.5,-401.43 1133.5,-401.43 1133.5,-382.43 1268.5,-382.43 1268.5,-401.43"/>
<text text-anchor="middle" x="1201" y="-389.43" font-family="Helvetica,sans-Serif" font-size="10.00">DirektDSP::BuildContext</text>
</a>
</g>
</g>
<!-- Node11&#45;&gt;Node27 -->
<g id="edge35_Node000027_Node000011" class="edge">
<title>Node11&#45;&gt;Node27</title>
<g id="a_edge35_Node000027_Node000011"><a xlink:title=" ">
<path fill="none" stroke="#9a32cd" stroke-dasharray="5,2" d="M968.79,-356.01C1020.41,-364.02 1089.45,-374.75 1138.62,-382.39"/>
<polygon fill="#9a32cd" stroke="#9a32cd" points="969.13,-352.52 958.72,-354.44 968.06,-359.43 969.13,-352.52"/>
</a>
</g>
<text text-anchor="middle" x="1049.5" y="-377.93" font-family="Helvetica,sans-Serif" font-size="10.00" fill="grey"> lookAndFeel</text>
</g>
<!-- Node12 -->
<g id="Node000012" class="node">
<title>Node12</title>
<g id="a_Node000012"><a xlink:title=" ">
<polygon fill="white" stroke="#666666" points="591,-330.43 468,-330.43 468,-311.43 591,-311.43 591,-330.43"/>
<text text-anchor="middle" x="529.5" y="-318.43" font-family="Helvetica,sans-Serif" font-size="10.00">juce::LookAndFeel_V4</text>
</a>
</g>
</g>
<!-- Node12&#45;&gt;Node11 -->
<g id="edge10_Node000011_Node000012" class="edge">
<title>Node12&#45;&gt;Node11</title>
<g id="a_edge10_Node000011_Node000012"><a xlink:title=" ">
<path fill="none" stroke="#63b8ff" d="M601.27,-324.42C653.91,-327.16 727.47,-331.27 792,-335.93 799.29,-336.45 806.86,-337.04 814.44,-337.65"/>
<polygon fill="#63b8ff" stroke="#63b8ff" points="601.2,-320.91 591.04,-323.89 600.84,-327.91 601.2,-320.91"/>
</a>
</g>
</g>
<!-- Node13&#45;&gt;Node1 -->
<g id="edge11_Node000001_Node000013" class="edge">
<title>Node13&#45;&gt;Node1</title>
<g id="a_edge11_Node000001_Node000013"><a xlink:title=" ">
<path fill="none" stroke="#9a32cd" stroke-dasharray="5,2" d="M975.43,-435.13C1070.64,-431.2 1236.52,-422.69 1378,-406.93 1391.04,-405.48 1405.03,-403.49 1418.15,-401.44"/>
<polygon fill="#9a32cd" stroke="#9a32cd" points="975.16,-431.64 965.31,-435.54 975.45,-438.63 975.16,-431.64"/>
</a>
</g>
<text text-anchor="middle" x="1201" y="-430.93" font-family="Helvetica,sans-Serif" font-size="10.00" fill="grey"> header</text>
</g>
<!-- Node14 -->
<g id="Node000014" class="node">
<title>Node14</title>
<g id="a_Node000014"><a xlink:href="classService_1_1PresetManager.html" target="_top" xlink:title=" ">
<polygon fill="white" stroke="#666666" points="595.5,-465.43 463.5,-465.43 463.5,-446.43 595.5,-446.43 595.5,-465.43"/>
<text text-anchor="middle" x="529.5" y="-453.43" font-family="Helvetica,sans-Serif" font-size="10.00">Service::PresetManager</text>
</a>
</g>
</g>
<!-- Node14&#45;&gt;Node1 -->
<g id="edge20_Node000001_Node000014" class="edge">
<title>Node14&#45;&gt;Node1</title>
<g id="a_edge20_Node000001_Node000014"><a xlink:title=" ">
<path fill="none" stroke="#9a32cd" stroke-dasharray="5,2" d="M605.84,-461.62C615.31,-462.16 624.88,-462.62 634,-462.93 704.18,-465.3 721.79,-464.03 792,-462.93 1011.71,-459.48 1067.98,-470.3 1286,-442.93 1327.43,-437.73 1337.71,-434.87 1378,-423.93 1401.74,-417.48 1428.22,-408.34 1447.09,-401.48"/>
<polygon fill="#9a32cd" stroke="#9a32cd" points="605.81,-458.11 595.62,-461.01 605.39,-465.1 605.81,-458.11"/>
</a>
</g>
<text text-anchor="middle" x="1049.5" y="-464.93" font-family="Helvetica,sans-Serif" font-size="10.00" fill="grey"> presetManager</text>
</g>
<!-- Node14&#45;&gt;Node13 -->
<g id="edge13_Node000013_Node000014" class="edge">
<title>Node14&#45;&gt;Node13</title>
<g id="a_edge13_Node000013_Node000014"><a xlink:title=" ">
<path fill="none" stroke="#9a32cd" stroke-dasharray="5,2" d="M605.98,-452.21C671.26,-448.99 764.79,-444.37 827.72,-441.27"/>
<polygon fill="#9a32cd" stroke="#9a32cd" points="605.57,-448.72 595.75,-452.71 605.91,-455.71 605.57,-448.72"/>
</a>
</g>
<text text-anchor="middle" x="713" y="-452.93" font-family="Helvetica,sans-Serif" font-size="10.00" fill="grey"> presetManager</text>
</g>
<!-- Node14&#45;&gt;Node20 -->
<g id="edge24_Node000020_Node000014" class="edge">
<title>Node14&#45;&gt;Node20</title>
<g id="a_edge24_Node000020_Node000014"><a xlink:title=" ">
<path fill="none" stroke="#9a32cd" stroke-dasharray="5,2" d="M576.59,-443.69C647.87,-424.35 778.14,-387.13 792,-369.93 816.26,-339.83 791.3,-230.76 810,-196.93 824.78,-170.19 855.09,-150.46 875.36,-139.58"/>
<polygon fill="#9a32cd" stroke="#9a32cd" points="575.27,-440.43 566.53,-446.41 577.09,-447.18 575.27,-440.43"/>
</a>
</g>
<text text-anchor="middle" x="713" y="-428.93" font-family="Helvetica,sans-Serif" font-size="10.00" fill="grey"> presetManager</text>
</g>
<!-- Node15&#45;&gt;Node1 -->
<g id="edge14_Node000001_Node000015" class="edge">
<title>Node15&#45;&gt;Node1</title>
<g id="a_edge14_Node000001_Node000015"><a xlink:title=" ">
<path fill="none" stroke="#9a32cd" stroke-dasharray="5,2" d="M435.54,-216.69C626.68,-211.56 1123.51,-201.48 1286,-229.93 1328.64,-237.39 1343.24,-236.13 1378,-261.93 1423.71,-295.85 1456.58,-358.26 1468.04,-382.21"/>
<polygon fill="#9a32cd" stroke="#9a32cd" points="435.21,-213.19 425.31,-216.96 435.4,-220.19 435.21,-213.19"/>
</a>
</g>
<text text-anchor="middle" x="896.5" y="-213.93" font-family="Helvetica,sans-Serif" font-size="10.00" fill="grey"> footer</text>
</g>
<!-- Node16&#45;&gt;Node1 -->
<g id="edge16_Node000001_Node000016" class="edge">
<title>Node16&#45;&gt;Node1</title>
<g id="a_edge16_Node000001_Node000016"><a xlink:title=" ">
<path fill="none" stroke="#9a32cd" stroke-dasharray="5,2" d="M802.36,-168.6C960.84,-155.42 1285.47,-136.99 1378,-196.93 1446.2,-241.11 1466.59,-349.56 1471.29,-382.37"/>
<polygon fill="#9a32cd" stroke="#9a32cd" points="801.84,-165.13 792.17,-169.46 802.43,-172.1 801.84,-165.13"/>
</a>
</g>
<text text-anchor="middle" x="1049.5" y="-159.93" font-family="Helvetica,sans-Serif" font-size="10.00" fill="grey"> popup</text>
</g>
<!-- Node17 -->
<g id="Node000017" class="node">
<title>Node17</title>
<g id="a_Node000017"><a xlink:title=" ">
<polygon fill="white" stroke="#666666" points="1261.5,-316.93 1140.5,-316.93 1140.5,-286.93 1261.5,-286.93 1261.5,-316.93"/>
<text text-anchor="start" x="1148.5" y="-304.93" font-family="Helvetica,sans-Serif" font-size="10.00">std::unique_ptr&lt; juce</text>
<text text-anchor="middle" x="1201" y="-293.93" font-family="Helvetica,sans-Serif" font-size="10.00">::TooltipWindow &gt;</text>
</a>
</g>
</g>
<!-- Node17&#45;&gt;Node1 -->
<g id="edge18_Node000001_Node000017" class="edge">
<title>Node17&#45;&gt;Node1</title>
<g id="a_edge18_Node000001_Node000017"><a xlink:title=" ">
<path fill="none" stroke="#9a32cd" stroke-dasharray="5,2" d="M1271.61,-305.02C1304.73,-308.28 1344.35,-314.84 1378,-327.93 1411.61,-341 1445.19,-367.83 1461.8,-382.25"/>
<polygon fill="#9a32cd" stroke="#9a32cd" points="1271.83,-301.53 1261.55,-304.11 1271.2,-308.5 1271.83,-301.53"/>
</a>
</g>
<text text-anchor="middle" x="1341" y="-330.93" font-family="Helvetica,sans-Serif" font-size="10.00" fill="grey"> tooltipWindow</text>
</g>
<!-- Node18 -->
<g id="Node000018" class="node">
<title>Node18</title>
<g id="a_Node000018"><a xlink:title=" ">
<polygon fill="white" stroke="#666666" points="1286,-268.93 1116,-268.93 1116,-238.93 1286,-238.93 1286,-268.93"/>
<text text-anchor="start" x="1124" y="-256.93" font-family="Helvetica,sans-Serif" font-size="10.00">std::unique_ptr&lt; juce</text>
<text text-anchor="middle" x="1201" y="-245.93" font-family="Helvetica,sans-Serif" font-size="10.00">::ResizableCornerComponent &gt;</text>
</a>
</g>
</g>
<!-- Node18&#45;&gt;Node1 -->
<g id="edge19_Node000001_Node000018" class="edge">
<title>Node18&#45;&gt;Node1</title>
<g id="a_edge19_Node000001_Node000018"><a xlink:title=" ">
<path fill="none" stroke="#9a32cd" stroke-dasharray="5,2" d="M1296.28,-264.93C1323.85,-270.85 1353.21,-279.94 1378,-293.93 1418.56,-316.8 1452.65,-362.5 1466.22,-382.36"/>
<polygon fill="#9a32cd" stroke="#9a32cd" points="1296.72,-261.45 1286.22,-262.89 1295.33,-268.31 1296.72,-261.45"/>
</a>
</g>
<text text-anchor="middle" x="1341" y="-296.93" font-family="Helvetica,sans-Serif" font-size="10.00" fill="grey"> resizer</text>
</g>
<!-- Node19 -->
<g id="Node000019" class="node">
<title>Node19</title>
<g id="a_Node000019"><a xlink:title=" ">
<polygon fill="white" stroke="#666666" points="1276,-144.93 1126,-144.93 1126,-114.93 1276,-114.93 1276,-144.93"/>
<text text-anchor="start" x="1134" y="-132.93" font-family="Helvetica,sans-Serif" font-size="10.00">std::unique_ptr&lt; DirektDSP</text>
<text text-anchor="middle" x="1201" y="-121.93" font-family="Helvetica,sans-Serif" font-size="10.00">::DirektPresetBrowser &gt;</text>
</a>
</g>
</g>
<!-- Node19&#45;&gt;Node1 -->
<g id="edge21_Node000001_Node000019" class="edge">
<title>Node19&#45;&gt;Node1</title>
<g id="a_edge21_Node000001_Node000019"><a xlink:title=" ">
<path fill="none" stroke="#9a32cd" stroke-dasharray="5,2" d="M1286.18,-120.9C1317.77,-121.76 1352.22,-128.26 1378,-147.93 1457.46,-208.54 1470.14,-345.17 1472.13,-382.41"/>
<polygon fill="#9a32cd" stroke="#9a32cd" points="1286.07,-117.4 1276.04,-120.81 1286.01,-124.4 1286.07,-117.4"/>
</a>
</g>
<text text-anchor="middle" x="1341" y="-150.93" font-family="Helvetica,sans-Serif" font-size="10.00" fill="grey"> presetBrowser</text>
</g>
<!-- Node20&#45;&gt;Node19 -->
<g id="edge22_Node000019_Node000020" class="edge">
<title>Node20&#45;&gt;Node19</title>
<g id="a_edge22_Node000019_Node000020"><a xlink:title=" ">
<path fill="none" stroke="#9a32cd" stroke-dasharray="5,2" d="M993.54,-129.93C1036.38,-129.93 1086.08,-129.93 1125.98,-129.93"/>
<polygon fill="#9a32cd" stroke="#9a32cd" points="993.38,-126.43 983.38,-129.93 993.38,-133.43 993.38,-126.43"/>
</a>
</g>
<text text-anchor="middle" x="1049.5" y="-132.93" font-family="Helvetica,sans-Serif" font-size="10.00" fill="grey"> ptr</text>
</g>
<!-- Node21 -->
<g id="Node000021" class="node">
<title>Node21</title>
<g id="a_Node000021"><a xlink:href="classDirektDSP_1_1DirektPresetBrowser_1_1CategoryListModel.html" target="_top" xlink:title=" ">
<polygon fill="white" stroke="#666666" points="616,-100.93 443,-100.93 443,-70.93 616,-70.93 616,-100.93"/>
<text text-anchor="start" x="451" y="-88.93" font-family="Helvetica,sans-Serif" font-size="10.00">DirektDSP::DirektPresetBrowser</text>
<text text-anchor="middle" x="529.5" y="-77.93" font-family="Helvetica,sans-Serif" font-size="10.00">::CategoryListModel</text>
</a>
</g>
</g>
<!-- Node21&#45;&gt;Node20 -->
<g id="edge25_Node000020_Node000021" class="edge">
<title>Node21&#45;&gt;Node20</title>
<g id="a_edge25_Node000020_Node000021"><a xlink:title=" ">
<path fill="none" stroke="#9a32cd" stroke-dasharray="5,2" d="M626.25,-97.12C675.75,-102.94 737.13,-110.23 792,-116.93 801.17,-118.05 810.79,-119.24 820.32,-120.42"/>
<polygon fill="#9a32cd" stroke="#9a32cd" points="626.54,-93.63 616.2,-95.94 625.72,-100.58 626.54,-93.63"/>
</a>
</g>
<text text-anchor="middle" x="713" y="-119.93" font-family="Helvetica,sans-Serif" font-size="10.00" fill="grey"> categoryModel</text>
</g>
<!-- Node22 -->
<g id="Node000022" class="node">
<title>Node22</title>
<g id="a_Node000022"><a xlink:title=" ">
<polygon fill="white" stroke="#666666" points="259.5,-91.43 150.5,-91.43 150.5,-72.43 259.5,-72.43 259.5,-91.43"/>
<text text-anchor="middle" x="205" y="-79.43" font-family="Helvetica,sans-Serif" font-size="10.00">juce::ListBoxModel</text>
</a>
</g>
</g>
<!-- Node22&#45;&gt;Node21 -->
<g id="edge26_Node000021_Node000022" class="edge">
<title>Node22&#45;&gt;Node21</title>
<g id="a_edge26_Node000021_Node000022"><a xlink:title=" ">
<path fill="none" stroke="#63b8ff" d="M269.88,-82.72C319.41,-83.33 388.53,-84.19 442.86,-84.87"/>
<polygon fill="#63b8ff" stroke="#63b8ff" points="269.66,-79.22 259.62,-82.59 269.57,-86.22 269.66,-79.22"/>
</a>
</g>
</g>
<!-- Node23 -->
<g id="Node000023" class="node">
<title>Node23</title>
<g id="a_Node000023"><a xlink:href="classDirektDSP_1_1DirektPresetBrowser_1_1PresetListModel.html" target="_top" xlink:title=" ">
<polygon fill="white" stroke="#666666" points="616,-148.93 443,-148.93 443,-118.93 616,-118.93 616,-148.93"/>
<text text-anchor="start" x="451" y="-136.93" font-family="Helvetica,sans-Serif" font-size="10.00">DirektDSP::DirektPresetBrowser</text>
<text text-anchor="middle" x="529.5" y="-125.93" font-family="Helvetica,sans-Serif" font-size="10.00">::PresetListModel</text>
</a>
</g>
</g>
<!-- Node22&#45;&gt;Node23 -->
<g id="edge28_Node000023_Node000022" class="edge">
<title>Node22&#45;&gt;Node23</title>
<g id="a_edge28_Node000023_Node000022"><a xlink:title=" ">
<path fill="none" stroke="#63b8ff" d="M269.57,-92.18C319.12,-100.17 388.42,-111.34 442.86,-120.12"/>
<polygon fill="#63b8ff" stroke="#63b8ff" points="270.05,-88.71 259.62,-90.57 268.93,-95.62 270.05,-88.71"/>
</a>
</g>
</g>
<!-- Node23&#45;&gt;Node20 -->
<g id="edge27_Node000020_Node000023" class="edge">
<title>Node23&#45;&gt;Node20</title>
<g id="a_edge27_Node000020_Node000023"><a xlink:title=" ">
<path fill="none" stroke="#9a32cd" stroke-dasharray="5,2" d="M626.17,-132.88C683.11,-132.26 754.75,-131.47 809.83,-130.87"/>
<polygon fill="#9a32cd" stroke="#9a32cd" points="626.04,-129.38 616.08,-132.99 626.11,-136.38 626.04,-129.38"/>
</a>
</g>
<text text-anchor="middle" x="713" y="-135.93" font-family="Helvetica,sans-Serif" font-size="10.00" fill="grey"> presetModel</text>
</g>
<!-- Node24 -->
<g id="Node000024" class="node">
<title>Node24</title>
<g id="a_Node000024"><a xlink:title=" ">
<polygon fill="#fff0f0" stroke="red" points="269.5,-152.43 140.5,-152.43 140.5,-111.43 269.5,-111.43 269.5,-152.43"/>
<text text-anchor="start" x="148.5" y="-140.43" font-family="Helvetica,sans-Serif" font-size="10.00">std::vector&lt; DirektDSP</text>
<text text-anchor="start" x="148.5" y="-129.43" font-family="Helvetica,sans-Serif" font-size="10.00">::DirektPresetBrowser</text>
<text text-anchor="middle" x="205" y="-118.43" font-family="Helvetica,sans-Serif" font-size="10.00">::PresetEntry &gt;</text>
</a>
</g>
</g>
<!-- Node24&#45;&gt;Node23 -->
<g id="edge29_Node000023_Node000024" class="edge">
<title>Node24&#45;&gt;Node23</title>
<g id="a_edge29_Node000023_Node000024"><a xlink:title=" ">
<path fill="none" stroke="#9a32cd" stroke-dasharray="5,2" d="M279.84,-132.39C328.41,-132.69 392.15,-133.08 442.93,-133.4"/>
<polygon fill="#9a32cd" stroke="#9a32cd" points="279.74,-128.89 269.72,-132.32 279.69,-135.89 279.74,-128.89"/>
</a>
</g>
<text text-anchor="middle" x="358.5" y="-136.93" font-family="Helvetica,sans-Serif" font-size="10.00" fill="grey"> presets</text>
</g>
<!-- Node26&#45;&gt;Node1 -->
<g id="edge30_Node000001_Node000026" class="edge">
<title>Node26&#45;&gt;Node1</title>
<g id="a_edge30_Node000001_Node000026"><a xlink:title=" ">
<path fill="none" stroke="#9a32cd" stroke-dasharray="5,2" d="M966.89,-524.41C1082.03,-525.87 1306.97,-524.16 1378,-490.93 1420.83,-470.89 1454.18,-422.18 1466.9,-401.49"/>
<polygon fill="#9a32cd" stroke="#9a32cd" points="966.81,-520.91 956.77,-524.27 966.72,-527.91 966.81,-520.91"/>
</a>
</g>
<text text-anchor="middle" x="1201" y="-525.93" font-family="Helvetica,sans-Serif" font-size="10.00" fill="grey"> rootBuiltNode</text>
</g>
<!-- Node27&#45;&gt;Node1 -->
<g id="edge34_Node000001_Node000027" class="edge">
<title>Node27&#45;&gt;Node1</title>
<g id="a_edge34_Node000001_Node000027"><a xlink:title=" ">
<path fill="none" stroke="#9a32cd" stroke-dasharray="5,2" d="M1278.65,-391.93C1315.29,-391.93 1359.04,-391.93 1395.7,-391.93"/>
<polygon fill="#9a32cd" stroke="#9a32cd" points="1278.52,-388.43 1268.52,-391.93 1278.52,-395.43 1278.52,-388.43"/>
</a>
</g>
<text text-anchor="middle" x="1341" y="-394.93" font-family="Helvetica,sans-Serif" font-size="10.00" fill="grey"> buildContext</text>
</g>
<!-- Node28 -->
<g id="Node000028" class="node">
<title>Node28</title>
<g id="a_Node000028"><a xlink:title=" ">
<polygon fill="white" stroke="#666666" points="980,-406.93 813,-406.93 813,-376.93 980,-376.93 980,-406.93"/>
<text text-anchor="start" x="821" y="-394.93" font-family="Helvetica,sans-Serif" font-size="10.00">std::map&lt; juce::String,</text>
<text text-anchor="middle" x="896.5" y="-383.93" font-family="Helvetica,sans-Serif" font-size="10.00"> const std::atomic&lt; float &gt; * &gt;</text>
</a>
</g>
</g>
<!-- Node28&#45;&gt;Node27 -->
<g id="edge36_Node000027_Node000028" class="edge">
<title>Node28&#45;&gt;Node27</title>
<g id="a_edge36_Node000027_Node000028"><a xlink:title=" ">
<path fill="none" stroke="#9a32cd" stroke-dasharray="5,2" d="M990.18,-391.93C1036.38,-391.93 1091.2,-391.93 1133.22,-391.93"/>
<polygon fill="#9a32cd" stroke="#9a32cd" points="990.16,-388.43 980.16,-391.93 990.16,-395.43 990.16,-388.43"/>
</a>
</g>
<text text-anchor="middle" x="1049.5" y="-394.93" font-family="Helvetica,sans-Serif" font-size="10.00" fill="grey"> meterSources</text>
</g>
<!-- Node29 -->
<g id="Node000029" class="node">
<title>Node29</title>
<g id="a_Node000029"><a xlink:title=" ">
<polygon fill="white" stroke="#666666" points="587.5,-367.43 471.5,-367.43 471.5,-348.43 587.5,-348.43 587.5,-367.43"/>
<text text-anchor="middle" x="529.5" y="-355.43" font-family="Helvetica,sans-Serif" font-size="10.00">std::atomic&lt; float &gt;</text>
</a>
</g>
</g>
<!-- Node29&#45;&gt;Node28 -->
<g id="edge37_Node000028_Node000029" class="edge">
<title>Node29&#45;&gt;Node28</title>
<g id="a_edge37_Node000028_Node000029"><a xlink:title=" ">
<path fill="none" stroke="#9a32cd" stroke-dasharray="5,2" d="M597.82,-352.6C650.9,-349.74 726.62,-348.63 792,-358.93 795.12,-359.42 823.33,-368.44 849.51,-376.92"/>
<polygon fill="#9a32cd" stroke="#9a32cd" points="597.3,-349.12 587.52,-353.19 597.7,-356.11 597.3,-349.12"/>
</a>
</g>
<text text-anchor="middle" x="713" y="-361.93" font-family="Helvetica,sans-Serif" font-size="10.00" fill="grey"> elements</text>
</g>
</g>
</svg>

<g id="navigator" transform="translate(0 0)" fill="#404254">
  <rect fill="#f2f5e9" fill-opacity="0.5" stroke="#606060" stroke-width=".5" x="0" y="0" width="60" height="60"/>
  <use id="zoomplus" xlink:href="#zoomPlus" x="17" y="9" onmousedown="handleZoom(evt,'in')"/>
  <use id="zoomminus" xlink:href="#zoomMin" x="42" y="9" onmousedown="handleZoom(evt,'out')"/>
  <use id="reset" xlink:href="#resetDef" x="30" y="36" onmousedown="handleReset()"/>
   <use id="arrowup" xlink:href="#arrowUp" x="0" y="0" onmousedown="handlePan(0,-1)"/>
  <use id="arrowright" xlink:href="#arrowRight" x="0" y="0" onmousedown="handlePan(1,0)"/>
  <use id="arrowdown" xlink:href="#arrowDown" x="0" y="0" onmousedown="handlePan(0,1)"/>
  <use id="arrowleft" xlink:href="#arrowLeft" x="0" y="0" onmousedown="handlePan(-1,0)"/>
</g>
<svg viewBox="0 0 15 15" width="100%" height="30px" preserveAspectRatio="xMaxYMin meet">
 <g id="arrow_out" transform="scale(0.3 0.3)">
  <a xlink:href="classDirektDSP_1_1DirektBaseEditor__coll__graph_org.svg" target="_base">
   <rect id="button" ry="5" rx="5" y="6" x="6" height="38" width="38"
        fill="#f2f5e9" fill-opacity="0.5" stroke="#606060" stroke-width="1.0"/>
   <path id="arrow"
     d="M 11.500037,31.436501 C 11.940474,20.09759 22.043105,11.32322 32.158766,21.979434 L 37.068811,17.246167 C 37.068811,17.246167 37.088388,32 37.088388,32 L 22.160133,31.978069 C 22.160133,31.978069 26.997745,27.140456 26.997745,27.140456 C 18.528582,18.264221 13.291696,25.230495 11.500037,31.436501 z"
     style="fill:#404040;"/>
  </a>
 </g>
</svg>

<style type='text/css'>
<![CDATA[
[data-mouse-over-selected='false'] { opacity: 0.7; }
[data-mouse-over-selected='true']  { opacity: 1.0; }
]]>
</style>
<script type="application/ecmascript"><![CDATA[
document.addEventListener('DOMContentLoaded', (event) => {
  highlightEdges();
  highlightAdjacentNodes();
});
]]></script>
</svg>
