<?xml version="1.0" encoding="UTF-8" standalone="no"?>
<!DOCTYPE svg PUBLIC "-//W3C//DTD SVG 1.1//EN"
 "http://www.w3.org/Graphics/SVG/1.1/DTD/svg11.dtd">
<!-- Generated by graphviz version 2.43.0 (0)
 -->
<!-- Title: DirektDSP::DirektABCompare Pages: 1 -->
<svg width="296pt" height="93pt"
 viewBox="0.00 0.00 296.00 93.00" xmlns="http://www.w3.org/2000/svg" xmlns:xlink="http://www.w3.org/1999/xlink">
<g id="graph0" class="graph" transform="scale(1 1) rotate(0) translate(4 89)">
<title>DirektDSP::DirektABCompare</title>
<!-- Node1 -->
<g id="Node000001" class="node">
<title>Node1</title>
<g id="a_Node000001"><a xlink:title="A/B compare control that stores two APVTS snapshots and lets the user switch between them.">
<polygon fill="#999999" stroke="#666666" points="205.5,-19 45.5,-19 45.5,0 205.5,0 205.5,-19"/>
<text text-anchor="middle" x="125.5" y="-7" font-family="Helvetica,sans-Serif" font-size="10.00">DirektDSP::DirektABCompare</text>
</a>
</g>
</g>
<!-- Node2 -->
<g id="Node000002" class="node">
<title>Node2</title>
<g id="a_Node000002"><a xlink:title=" ">
<polygon fill="white" stroke="#666666" points="99,-85 0,-85 0,-66 99,-66 99,-85"/>
<text text-anchor="middle" x="49.5" y="-73" font-family="Helvetica,sans-Serif" font-size="10.00">juce::Component</text>
</a>
</g>
</g>
<!-- Node2&#45;&gt;Node1 -->
<g id="edge1_Node000001_Node000002" class="edge">
<title>Node2&#45;&gt;Node1</title>
<g id="a_edge1_Node000001_Node000002"><a xlink:title=" ">
<path fill="none" stroke="#63b8ff" d="M67.69,-59.18C82.44,-46.76 102.72,-29.68 114.93,-19.41"/>
<polygon fill="#63b8ff" stroke="#63b8ff" points="65.14,-56.75 59.75,-65.87 69.65,-62.1 65.14,-56.75"/>
</a>
</g>
</g>
<!-- Node3 -->
<g id="Node000003" class="node">
<title>Node3</title>
<g id="a_Node000003"><a xlink:title=" ">
<polygon fill="white" stroke="#666666" points="288,-85 117,-85 117,-66 288,-66 288,-85"/>
<text text-anchor="middle" x="202.5" y="-73" font-family="Helvetica,sans-Serif" font-size="10.00">std::array&lt; juce::ValueTree, 2 &gt;</text>
</a>
</g>
</g>
<!-- Node3&#45;&gt;Node1 -->
<g id="edge2_Node000001_Node000003" class="edge">
<title>Node3&#45;&gt;Node1</title>
<g id="a_edge2_Node000001_Node000003"><a xlink:title=" ">
<path fill="none" stroke="#9a32cd" stroke-dasharray="5,2" d="M184.07,-59.18C169.12,-46.76 148.58,-29.68 136.21,-19.41"/>
<polygon fill="#9a32cd" stroke="#9a32cd" points="182.19,-62.17 192.12,-65.87 186.66,-56.78 182.19,-62.17"/>
</a>
</g>
<text text-anchor="middle" x="196" y="-40" font-family="Helvetica,sans-Serif" font-size="10.00" fill="grey"> snapshots</text>
</g>
</g>
</svg>
