<?xml version="1.0" encoding="UTF-8" standalone="no"?>
<!DOCTYPE svg PUBLIC "-//W3C//DTD SVG 1.1//EN"
 "http://www.w3.org/Graphics/SVG/1.1/DTD/svg11.dtd">
<!-- Generated by graphviz version 2.43.0 (0)
 -->
<!-- Title: DirektDSP::DirektBaseEditor Pages: 1 -->
<svg width="1683pt" height="779pt"
 viewBox="0.00 0.00 1683.00 778.50" xmlns="http://www.w3.org/2000/svg" xmlns:xlink="http://www.w3.org/1999/xlink">
<g id="graph0" class="graph" transform="scale(1 1) rotate(0) translate(4 774.5)">
<title>DirektDSP::DirektBaseEditor</title>
<!-- Node1 -->
<g id="Node000001" class="node">
<title>Node1</title>
<g id="a_Node000001"><a xlink:title=" ">
<polygon fill="#999999" stroke="#666666" points="1675,-357.5 1520,-357.5 1520,-338.5 1675,-338.5 1675,-357.5"/>
<text text-anchor="middle" x="1597.5" y="-345.5" font-family="Helvetica,sans-Serif" font-size="10.00">DirektDSP::DirektBaseEditor</text>
</a>
</g>
</g>
<!-- Node2 -->
<g id="Node000002" class="node">
<title>Node2</title>
<g id="a_Node000002"><a xlink:title=" ">
<polygon fill="white" stroke="#666666" points="1398,-770.5 1252,-770.5 1252,-751.5 1398,-751.5 1398,-770.5"/>
<text text-anchor="middle" x="1325" y="-758.5" font-family="Helvetica,sans-Serif" font-size="10.00">juce::AudioProcessorEditor</text>
</a>
</g>
</g>
<!-- Node2&#45;&gt;Node1 -->
<g id="edge1_Node000001_Node000002" class="edge">
<title>Node2&#45;&gt;Node1</title>
<g id="a_edge1_Node000001_Node000002"><a xlink:title=" ">
<path fill="none" stroke="#63b8ff" d="M1408.17,-768.65C1441,-767.3 1476.89,-759.65 1502,-737 1561.34,-683.46 1590.33,-412.13 1595.61,-357.57"/>
<polygon fill="#63b8ff" stroke="#63b8ff" points="1408.02,-765.15 1398.1,-768.87 1408.17,-772.15 1408.02,-765.15"/>
</a>
</g>
</g>
<!-- Node3 -->
<g id="Node000003" class="node">
<title>Node3</title>
<g id="a_Node000003"><a xlink:title=" ">
<polygon fill="white" stroke="#666666" points="1389.5,-385 1260.5,-385 1260.5,-355 1389.5,-355 1389.5,-385"/>
<text text-anchor="start" x="1268.5" y="-373" font-family="Helvetica,sans-Serif" font-size="10.00">std::vector&lt; DirektDSP</text>
<text text-anchor="middle" x="1325" y="-362" font-family="Helvetica,sans-Serif" font-size="10.00">::BuiltSection &gt;</text>
</a>
</g>
</g>
<!-- Node3&#45;&gt;Node1 -->
<g id="edge2_Node000001_Node000003" class="edge">
<title>Node3&#45;&gt;Node1</title>
<g id="a_edge2_Node000001_Node000003"><a xlink:title=" ">
<path fill="none" stroke="#9a32cd" stroke-dasharray="5,2" d="M1400.02,-363.98C1437.18,-360.96 1482.14,-357.3 1519.68,-354.25"/>
<polygon fill="#9a32cd" stroke="#9a32cd" points="1399.45,-360.51 1389.76,-364.81 1400.01,-367.49 1399.45,-360.51"/>
</a>
</g>
<text text-anchor="middle" x="1465" y="-364" font-family="Helvetica,sans-Serif" font-size="10.00" fill="grey"> builtSections</text>
</g>
<!-- Node4 -->
<g id="Node000004" class="node">
<title>Node4</title>
<g id="a_Node000004"><a xlink:href="structDirektDSP_1_1BuiltSection.html" target="_top" xlink:title=" ">
<polygon fill="white" stroke="#666666" points="1086,-379.5 955,-379.5 955,-360.5 1086,-360.5 1086,-379.5"/>
<text text-anchor="middle" x="1020.5" y="-367.5" font-family="Helvetica,sans-Serif" font-size="10.00">DirektDSP::BuiltSection</text>
</a>
</g>
</g>
<!-- Node4&#45;&gt;Node3 -->
<g id="edge3_Node000003_Node000004" class="edge">
<title>Node4&#45;&gt;Node3</title>
<g id="a_edge3_Node000003_Node000004"><a xlink:title=" ">
<path fill="none" stroke="#9a32cd" stroke-dasharray="5,2" d="M1096.21,-370C1146.62,-370 1212.44,-370 1260.36,-370"/>
<polygon fill="#9a32cd" stroke="#9a32cd" points="1096.02,-366.5 1086.02,-370 1096.02,-373.5 1096.02,-366.5"/>
</a>
</g>
<text text-anchor="middle" x="1173.5" y="-373" font-family="Helvetica,sans-Serif" font-size="10.00" fill="grey"> elements</text>
</g>
<!-- Node5 -->
<g id="Node000005" class="node">
<title>Node5</title>
<g id="a_Node000005"><a xlink:title=" ">
<polygon fill="white" stroke="#666666" points="728.5,-385 578.5,-385 578.5,-355 728.5,-355 728.5,-385"/>
<text text-anchor="start" x="586.5" y="-373" font-family="Helvetica,sans-Serif" font-size="10.00">std::unique_ptr&lt; DirektDSP</text>
<text text-anchor="middle" x="653.5" y="-362" font-family="Helvetica,sans-Serif" font-size="10.00">::DirektSection &gt;</text>
</a>
</g>
</g>
<!-- Node5&#45;&gt;Node4 -->
<g id="edge4_Node000004_Node000005" class="edge">
<title>Node5&#45;&gt;Node4</title>
<g id="a_edge4_Node000004_Node000005"><a xlink:title=" ">
<path fill="none" stroke="#9a32cd" stroke-dasharray="5,2" d="M739.14,-370C804.88,-370 894.69,-370 954.77,-370"/>
<polygon fill="#9a32cd" stroke="#9a32cd" points="738.8,-366.5 728.8,-370 738.8,-373.5 738.8,-366.5"/>
</a>
</g>
<text text-anchor="middle" x="837" y="-373" font-family="Helvetica,sans-Serif" font-size="10.00" fill="grey"> section</text>
</g>
<!-- Node6 -->
<g id="Node000006" class="node">
<title>Node6</title>
<g id="a_Node000006"><a xlink:href="classDirektDSP_1_1DirektSection.html" target="_top" xlink:title=" ">
<polygon fill="#fff0f0" stroke="red" points="391,-379.5 253,-379.5 253,-360.5 391,-360.5 391,-379.5"/>
<text text-anchor="middle" x="322" y="-367.5" font-family="Helvetica,sans-Serif" font-size="10.00">DirektDSP::DirektSection</text>
</a>
</g>
</g>
<!-- Node6&#45;&gt;Node5 -->
<g id="edge5_Node000005_Node000006" class="edge">
<title>Node6&#45;&gt;Node5</title>
<g id="a_edge5_Node000005_Node000006"><a xlink:title=" ">
<path fill="none" stroke="#9a32cd" stroke-dasharray="5,2" d="M401.42,-370C455.02,-370 525.61,-370 578.3,-370"/>
<polygon fill="#9a32cd" stroke="#9a32cd" points="401.27,-366.5 391.27,-370 401.27,-373.5 401.27,-366.5"/>
</a>
</g>
<text text-anchor="middle" x="482.5" y="-373" font-family="Helvetica,sans-Serif" font-size="10.00" fill="grey"> ptr</text>
</g>
<!-- Node7 -->
<g id="Node000007" class="node">
<title>Node7</title>
<g id="a_Node000007"><a xlink:title=" ">
<polygon fill="white" stroke="#666666" points="110,-608.5 11,-608.5 11,-589.5 110,-589.5 110,-608.5"/>
<text text-anchor="middle" x="60.5" y="-596.5" font-family="Helvetica,sans-Serif" font-size="10.00">juce::Component</text>
</a>
</g>
</g>
<!-- Node7&#45;&gt;Node6 -->
<g id="edge6_Node000006_Node000007" class="edge">
<title>Node7&#45;&gt;Node6</title>
<g id="a_edge6_Node000006_Node000007"><a xlink:title=" ">
<path fill="none" stroke="#63b8ff" d="M62.89,-579.08C66.88,-538.23 82.08,-444.99 139,-399 170.48,-373.56 215.29,-366.18 252.57,-365.23"/>
<polygon fill="#63b8ff" stroke="#63b8ff" points="59.39,-578.86 62.03,-589.12 66.37,-579.46 59.39,-578.86"/>
</a>
</g>
</g>
<!-- Node13 -->
<g id="Node000013" class="node">
<title>Node13</title>
<g id="a_Node000013"><a xlink:href="classDirektDSP_1_1DirektHeader.html" target="_top" xlink:title=" ">
<polygon fill="white" stroke="#666666" points="1089,-430.5 952,-430.5 952,-411.5 1089,-411.5 1089,-430.5"/>
<text text-anchor="middle" x="1020.5" y="-418.5" font-family="Helvetica,sans-Serif" font-size="10.00">DirektDSP::DirektHeader</text>
</a>
</g>
</g>
<!-- Node7&#45;&gt;Node13 -->
<g id="edge13_Node000013_Node000007" class="edge">
<title>Node7&#45;&gt;Node13</title>
<g id="a_edge13_Node000013_Node000007"><a xlink:title=" ">
<path fill="none" stroke="#63b8ff" d="M79.51,-582.44C110.72,-554.86 178.03,-500.17 246,-476 493.98,-387.8 814.31,-402.24 951.87,-413.99"/>
<polygon fill="#63b8ff" stroke="#63b8ff" points="76.8,-580.17 71.7,-589.45 81.48,-585.38 76.8,-580.17"/>
</a>
</g>
</g>
<!-- Node15 -->
<g id="Node000015" class="node">
<title>Node15</title>
<g id="a_Node000015"><a xlink:href="classDirektDSP_1_1DirektFooter.html" target="_top" xlink:title=" ">
<polygon fill="white" stroke="#666666" points="549,-694.5 416,-694.5 416,-675.5 549,-675.5 549,-694.5"/>
<text text-anchor="middle" x="482.5" y="-682.5" font-family="Helvetica,sans-Serif" font-size="10.00">DirektDSP::DirektFooter</text>
</a>
</g>
</g>
<!-- Node7&#45;&gt;Node15 -->
<g id="edge16_Node000015_Node000007" class="edge">
<title>Node7&#45;&gt;Node15</title>
<g id="a_edge16_Node000015_Node000007"><a xlink:title=" ">
<path fill="none" stroke="#63b8ff" d="M93.91,-612.35C130.28,-626.75 191.36,-649.19 246,-661 302.64,-673.24 368.33,-679.28 415.92,-682.23"/>
<polygon fill="#63b8ff" stroke="#63b8ff" points="94.92,-608.98 84.34,-608.52 92.32,-615.48 94.92,-608.98"/>
</a>
</g>
</g>
<!-- Node16 -->
<g id="Node000016" class="node">
<title>Node16</title>
<g id="a_Node000016"><a xlink:href="classDirektDSP_1_1DirektPopupPanel.html" target="_top" xlink:title=" ">
<polygon fill="white" stroke="#666666" points="916,-732.5 758,-732.5 758,-713.5 916,-713.5 916,-732.5"/>
<text text-anchor="middle" x="837" y="-720.5" font-family="Helvetica,sans-Serif" font-size="10.00">DirektDSP::DirektPopupPanel</text>
</a>
</g>
</g>
<!-- Node7&#45;&gt;Node16 -->
<g id="edge18_Node000016_Node000007" class="edge">
<title>Node7&#45;&gt;Node16</title>
<g id="a_edge18_Node000016_Node000007"><a xlink:title=" ">
<path fill="none" stroke="#63b8ff" d="M79.1,-615.41C94,-628.46 116.47,-646.26 139,-657 183.27,-678.1 197.77,-675.12 246,-684 427.22,-717.38 644.37,-723.12 757.98,-723.58"/>
<polygon fill="#63b8ff" stroke="#63b8ff" points="81.43,-612.8 71.65,-608.72 76.76,-618.01 81.43,-612.8"/>
</a>
</g>
</g>
<!-- Node20 -->
<g id="Node000020" class="node">
<title>Node20</title>
<g id="a_Node000020"><a xlink:href="classDirektDSP_1_1DirektPresetBrowser.html" target="_top" xlink:title=" ">
<polygon fill="white" stroke="#666666" points="1107,-575.5 934,-575.5 934,-556.5 1107,-556.5 1107,-575.5"/>
<text text-anchor="middle" x="1020.5" y="-563.5" font-family="Helvetica,sans-Serif" font-size="10.00">DirektDSP::DirektPresetBrowser</text>
</a>
</g>
</g>
<!-- Node7&#45;&gt;Node20 -->
<g id="edge24_Node000020_Node000007" class="edge">
<title>Node7&#45;&gt;Node20</title>
<g id="a_edge24_Node000020_Node000007"><a xlink:title=" ">
<path fill="none" stroke="#63b8ff" d="M120.64,-599.39C259.6,-599.92 617.71,-598.91 916,-578 925.2,-577.35 934.85,-576.49 944.39,-575.52"/>
<polygon fill="#63b8ff" stroke="#63b8ff" points="120.24,-595.89 110.23,-599.35 120.21,-602.89 120.24,-595.89"/>
</a>
</g>
</g>
<!-- Node9 -->
<g id="Node000009" class="node">
<title>Node9</title>
<g id="a_Node000009"><a xlink:title=" ">
<polygon fill="white" stroke="#666666" points="121,-335 0,-335 0,-305 121,-305 121,-335"/>
<text text-anchor="start" x="8" y="-323" font-family="Helvetica,sans-Serif" font-size="10.00">std::unique_ptr&lt; juce</text>
<text text-anchor="middle" x="60.5" y="-312" font-family="Helvetica,sans-Serif" font-size="10.00">::Component &gt;</text>
</a>
</g>
</g>
<!-- Node9&#45;&gt;Node6 -->
<g id="edge7_Node000006_Node000009" class="edge">
<title>Node9&#45;&gt;Node6</title>
<g id="a_edge7_Node000006_Node000009"><a xlink:title=" ">
<path fill="none" stroke="#9a32cd" stroke-dasharray="5,2" d="M130.86,-333.36C175.14,-341.9 231.5,-352.76 271.33,-360.43"/>
<polygon fill="#9a32cd" stroke="#9a32cd" points="131.52,-329.93 121.03,-331.47 130.19,-336.8 131.52,-329.93"/>
</a>
</g>
<text text-anchor="middle" x="183.5" y="-353" font-family="Helvetica,sans-Serif" font-size="10.00" fill="grey"> titleBarAccessory</text>
</g>
<!-- Node10 -->
<g id="Node000010" class="node">
<title>Node10</title>
<g id="a_Node000010"><a xlink:title=" ">
<polygon fill="white" stroke="#666666" points="729.5,-335 577.5,-335 577.5,-305 729.5,-305 729.5,-335"/>
<text text-anchor="start" x="585.5" y="-323" font-family="Helvetica,sans-Serif" font-size="10.00">std::vector&lt; std::unique</text>
<text text-anchor="middle" x="653.5" y="-312" font-family="Helvetica,sans-Serif" font-size="10.00">_ptr&lt; juce::Component &gt; &gt;</text>
</a>
</g>
</g>
<!-- Node9&#45;&gt;Node10 -->
<g id="edge9_Node000010_Node000009" class="edge">
<title>Node9&#45;&gt;Node10</title>
<g id="a_edge9_Node000010_Node000009"><a xlink:title=" ">
<path fill="none" stroke="#9a32cd" stroke-dasharray="5,2" d="M131.31,-320C243.19,-320 461.77,-320 577.1,-320"/>
<polygon fill="#9a32cd" stroke="#9a32cd" points="131.15,-316.5 121.15,-320 131.15,-323.5 131.15,-316.5"/>
</a>
</g>
<text text-anchor="middle" x="322" y="-323" font-family="Helvetica,sans-Serif" font-size="10.00" fill="grey"> elements</text>
</g>
<!-- Node32 -->
<g id="Node000032" class="node">
<title>Node32</title>
<g id="a_Node000032"><a xlink:href="structDirektDSP_1_1BuiltNode.html" target="_top" xlink:title=" ">
<polygon fill="white" stroke="#666666" points="1080.5,-297.5 960.5,-297.5 960.5,-278.5 1080.5,-278.5 1080.5,-297.5"/>
<text text-anchor="middle" x="1020.5" y="-285.5" font-family="Helvetica,sans-Serif" font-size="10.00">DirektDSP::BuiltNode</text>
</a>
</g>
</g>
<!-- Node9&#45;&gt;Node32 -->
<g id="edge37_Node000032_Node000009" class="edge">
<title>Node9&#45;&gt;Node32</title>
<g id="a_edge37_Node000032_Node000009"><a xlink:title=" ">
<path fill="none" stroke="#9a32cd" stroke-dasharray="5,2" d="M131.3,-314.8C256.69,-305.74 528.38,-287.42 758,-281 828.19,-279.04 845.82,-278.63 916,-281 930.4,-281.49 945.91,-282.35 960.42,-283.31"/>
<polygon fill="#9a32cd" stroke="#9a32cd" points="130.8,-311.32 121.08,-315.54 131.31,-318.3 130.8,-311.32"/>
</a>
</g>
<text text-anchor="middle" x="482.5" y="-299" font-family="Helvetica,sans-Serif" font-size="10.00" fill="grey"> component</text>
</g>
<!-- Node10&#45;&gt;Node1 -->
<g id="edge39_Node000001_Node000010" class="edge">
<title>Node10&#45;&gt;Node1</title>
<g id="a_edge39_Node000001_Node000010"><a xlink:title=" ">
<path fill="none" stroke="#9a32cd" stroke-dasharray="5,2" d="M739.66,-322.53C921.61,-327.94 1345.85,-340.55 1519.9,-345.72"/>
<polygon fill="#9a32cd" stroke="#9a32cd" points="739.7,-319.03 729.6,-322.23 739.49,-326.03 739.7,-319.03"/>
</a>
</g>
<text text-anchor="middle" x="1173.5" y="-339" font-family="Helvetica,sans-Serif" font-size="10.00" fill="grey"> ownedComponents</text>
</g>
<!-- Node10&#45;&gt;Node4 -->
<g id="edge8_Node000004_Node000010" class="edge">
<title>Node10&#45;&gt;Node4</title>
<g id="a_edge8_Node000004_Node000010"><a xlink:title=" ">
<path fill="none" stroke="#9a32cd" stroke-dasharray="5,2" d="M739.79,-331.18C790.91,-337.94 857.2,-346.8 916,-355 928.59,-356.75 942.03,-358.67 954.92,-360.53"/>
<polygon fill="#9a32cd" stroke="#9a32cd" points="740.14,-327.69 729.77,-329.85 739.23,-334.63 740.14,-327.69"/>
</a>
</g>
<text text-anchor="middle" x="837" y="-358" font-family="Helvetica,sans-Serif" font-size="10.00" fill="grey"> controls</text>
</g>
<!-- Node10&#45;&gt;Node32 -->
<g id="edge38_Node000032_Node000010" class="edge">
<title>Node10&#45;&gt;Node32</title>
<g id="a_edge38_Node000032_Node000010"><a xlink:title=" ">
<path fill="none" stroke="#9a32cd" stroke-dasharray="5,2" d="M717.31,-302.6C730.65,-299.53 744.71,-296.76 758,-295 826.99,-285.85 907.1,-285.14 960.28,-286.05"/>
<polygon fill="#9a32cd" stroke="#9a32cd" points="716.2,-299.27 707.28,-304.99 717.82,-306.07 716.2,-299.27"/>
</a>
</g>
<text text-anchor="middle" x="837" y="-298" font-family="Helvetica,sans-Serif" font-size="10.00" fill="grey"> ownedChildren</text>
</g>
<!-- Node11 -->
<g id="Node000011" class="node">
<title>Node11</title>
<g id="a_Node000011"><a xlink:href="classDirektDSP_1_1DirektLookAndFeel.html" target="_top" xlink:title=" ">
<polygon fill="white" stroke="#666666" points="1102.5,-126.5 938.5,-126.5 938.5,-107.5 1102.5,-107.5 1102.5,-126.5"/>
<text text-anchor="middle" x="1020.5" y="-114.5" font-family="Helvetica,sans-Serif" font-size="10.00">DirektDSP::DirektLookAndFeel</text>
</a>
</g>
</g>
<!-- Node11&#45;&gt;Node1 -->
<g id="edge10_Node000001_Node000011" class="edge">
<title>Node11&#45;&gt;Node1</title>
<g id="a_edge10_Node000001_Node000011"><a xlink:title=" ">
<path fill="none" stroke="#9a32cd" stroke-dasharray="5,2" d="M1096.37,-106.45C1199.08,-96.28 1384.3,-93.88 1502,-186 1555.85,-228.14 1584.94,-310.16 1593.66,-338.27"/>
<polygon fill="#9a32cd" stroke="#9a32cd" points="1095.98,-102.97 1086.39,-107.49 1096.7,-109.93 1095.98,-102.97"/>
</a>
</g>
<text text-anchor="middle" x="1325" y="-137" font-family="Helvetica,sans-Serif" font-size="10.00" fill="grey"> lookAndFeel</text>
</g>
<!-- Node33 -->
<g id="Node000033" class="node">
<title>Node33</title>
<g id="a_Node000033"><a xlink:href="structDirektDSP_1_1BuildContext.html" target="_top" xlink:title=" ">
<polygon fill="white" stroke="#666666" points="1392.5,-197.5 1257.5,-197.5 1257.5,-178.5 1392.5,-178.5 1392.5,-197.5"/>
<text text-anchor="middle" x="1325" y="-185.5" font-family="Helvetica,sans-Serif" font-size="10.00">DirektDSP::BuildContext</text>
</a>
</g>
</g>
<!-- Node11&#45;&gt;Node33 -->
<g id="edge41_Node000033_Node000011" class="edge">
<title>Node11&#45;&gt;Node33</title>
<g id="a_edge41_Node000033_Node000011"><a xlink:title=" ">
<path fill="none" stroke="#9a32cd" stroke-dasharray="5,2" d="M1073.7,-128.75C1114.19,-137.92 1171.71,-151.07 1222,-163 1243.11,-168.01 1266.64,-173.76 1285.77,-178.49"/>
<polygon fill="#9a32cd" stroke="#9a32cd" points="1074.31,-125.3 1063.79,-126.51 1072.77,-132.13 1074.31,-125.3"/>
</a>
</g>
<text text-anchor="middle" x="1173.5" y="-166" font-family="Helvetica,sans-Serif" font-size="10.00" fill="grey"> lookAndFeel</text>
</g>
<!-- Node12 -->
<g id="Node000012" class="node">
<title>Node12</title>
<g id="a_Node000012"><a xlink:title=" ">
<polygon fill="white" stroke="#666666" points="715,-126.5 592,-126.5 592,-107.5 715,-107.5 715,-126.5"/>
<text text-anchor="middle" x="653.5" y="-114.5" font-family="Helvetica,sans-Serif" font-size="10.00">juce::LookAndFeel_V4</text>
</a>
</g>
</g>
<!-- Node12&#45;&gt;Node11 -->
<g id="edge11_Node000011_Node000012" class="edge">
<title>Node12&#45;&gt;Node11</title>
<g id="a_edge11_Node000011_Node000012"><a xlink:title=" ">
<path fill="none" stroke="#63b8ff" d="M725.5,-117C786.57,-117 874.66,-117 938.47,-117"/>
<polygon fill="#63b8ff" stroke="#63b8ff" points="725.18,-113.5 715.18,-117 725.18,-120.5 725.18,-113.5"/>
</a>
</g>
</g>
<!-- Node13&#45;&gt;Node1 -->
<g id="edge12_Node000001_Node000013" class="edge">
<title>Node13&#45;&gt;Node1</title>
<g id="a_edge12_Node000001_Node000013"><a xlink:title=" ">
<path fill="none" stroke="#9a32cd" stroke-dasharray="5,2" d="M1099.6,-420.7C1195.65,-418.73 1363.04,-410.1 1502,-376 1523.94,-370.62 1548.38,-363.34 1566.9,-357.56"/>
<polygon fill="#9a32cd" stroke="#9a32cd" points="1099.32,-417.2 1089.39,-420.89 1099.45,-424.2 1099.32,-417.2"/>
</a>
</g>
<text text-anchor="middle" x="1325" y="-416" font-family="Helvetica,sans-Serif" font-size="10.00" fill="grey"> header</text>
</g>
<!-- Node14 -->
<g id="Node000014" class="node">
<title>Node14</title>
<g id="a_Node000014"><a xlink:href="classService_1_1PresetManager.html" target="_top" xlink:title=" ">
<polygon fill="white" stroke="#666666" points="719.5,-474.5 587.5,-474.5 587.5,-455.5 719.5,-455.5 719.5,-474.5"/>
<text text-anchor="middle" x="653.5" y="-462.5" font-family="Helvetica,sans-Serif" font-size="10.00">Service::PresetManager</text>
</a>
</g>
</g>
<!-- Node14&#45;&gt;Node1 -->
<g id="edge21_Node000001_Node000014" class="edge">
<title>Node14&#45;&gt;Node1</title>
<g id="a_edge21_Node000001_Node000014"><a xlink:title=" ">
<path fill="none" stroke="#9a32cd" stroke-dasharray="5,2" d="M730.06,-468.41C867.04,-473.03 1164.9,-475.86 1410,-428 1476.74,-414.97 1548.85,-376.12 1580.3,-357.78"/>
<polygon fill="#9a32cd" stroke="#9a32cd" points="729.8,-464.9 719.68,-468.05 729.55,-471.9 729.8,-464.9"/>
</a>
</g>
<text text-anchor="middle" x="1173.5" y="-465" font-family="Helvetica,sans-Serif" font-size="10.00" fill="grey"> presetManager</text>
</g>
<!-- Node14&#45;&gt;Node13 -->
<g id="edge14_Node000013_Node000014" class="edge">
<title>Node14&#45;&gt;Node13</title>
<g id="a_edge14_Node000013_Node000014"><a xlink:title=" ">
<path fill="none" stroke="#9a32cd" stroke-dasharray="5,2" d="M715,-453.71C729.08,-451.3 744.04,-448.91 758,-447 823.66,-438.04 898.99,-430.88 951.89,-426.36"/>
<polygon fill="#9a32cd" stroke="#9a32cd" points="714.17,-450.31 704.92,-455.47 715.37,-457.2 714.17,-450.31"/>
</a>
</g>
<text text-anchor="middle" x="837" y="-450" font-family="Helvetica,sans-Serif" font-size="10.00" fill="grey"> presetManager</text>
</g>
<!-- Node14&#45;&gt;Node20 -->
<g id="edge25_Node000020_Node000014" class="edge">
<title>Node14&#45;&gt;Node20</title>
<g id="a_edge25_Node000020_Node000014"><a xlink:title=" ">
<path fill="none" stroke="#9a32cd" stroke-dasharray="5,2" d="M717.21,-476.26C730.66,-478.57 744.79,-480.93 758,-483 828.05,-493.96 849.05,-481.66 916,-505 951.45,-517.36 988.22,-542.5 1006.92,-556.33"/>
<polygon fill="#9a32cd" stroke="#9a32cd" points="717.55,-472.76 707.1,-474.5 716.35,-479.66 717.55,-472.76"/>
</a>
</g>
<text text-anchor="middle" x="837" y="-508" font-family="Helvetica,sans-Serif" font-size="10.00" fill="grey"> presetManager</text>
</g>
<!-- Node15&#45;&gt;Node1 -->
<g id="edge15_Node000001_Node000015" class="edge">
<title>Node15&#45;&gt;Node1</title>
<g id="a_edge15_Node000001_Node000015"><a xlink:title=" ">
<path fill="none" stroke="#9a32cd" stroke-dasharray="5,2" d="M559.34,-681.88C719.05,-673.91 1100.78,-647.48 1410,-568 1451.93,-557.22 1469.45,-564.54 1502,-536 1560.5,-484.7 1587.07,-388.62 1594.35,-357.79"/>
<polygon fill="#9a32cd" stroke="#9a32cd" points="558.96,-678.4 549.14,-682.38 559.3,-685.39 558.96,-678.4"/>
</a>
</g>
<text text-anchor="middle" x="1020.5" y="-654" font-family="Helvetica,sans-Serif" font-size="10.00" fill="grey"> footer</text>
</g>
<!-- Node16&#45;&gt;Node1 -->
<g id="edge17_Node000001_Node000016" class="edge">
<title>Node16&#45;&gt;Node1</title>
<g id="a_edge17_Node000001_Node000016"><a xlink:title=" ">
<path fill="none" stroke="#9a32cd" stroke-dasharray="5,2" d="M926.24,-725.4C1096.62,-729.21 1458.05,-732.99 1502,-698 1558.26,-653.21 1589.37,-409.53 1595.41,-357.7"/>
<polygon fill="#9a32cd" stroke="#9a32cd" points="926.12,-721.89 916.04,-725.16 925.96,-728.89 926.12,-721.89"/>
</a>
</g>
<text text-anchor="middle" x="1173.5" y="-730" font-family="Helvetica,sans-Serif" font-size="10.00" fill="grey"> popup</text>
</g>
<!-- Node17 -->
<g id="Node000017" class="node">
<title>Node17</title>
<g id="a_Node000017"><a xlink:title=" ">
<polygon fill="white" stroke="#666666" points="1385.5,-78 1264.5,-78 1264.5,-48 1385.5,-48 1385.5,-78"/>
<text text-anchor="start" x="1272.5" y="-66" font-family="Helvetica,sans-Serif" font-size="10.00">std::unique_ptr&lt; juce</text>
<text text-anchor="middle" x="1325" y="-55" font-family="Helvetica,sans-Serif" font-size="10.00">::TooltipWindow &gt;</text>
</a>
</g>
</g>
<!-- Node17&#45;&gt;Node1 -->
<g id="edge19_Node000001_Node000017" class="edge">
<title>Node17&#45;&gt;Node1</title>
<g id="a_edge19_Node000001_Node000017"><a xlink:title=" ">
<path fill="none" stroke="#9a32cd" stroke-dasharray="5,2" d="M1395.81,-57.34C1431.17,-58.13 1472.69,-65.11 1502,-89 1583.81,-155.68 1594.8,-299.64 1596.27,-338.29"/>
<polygon fill="#9a32cd" stroke="#9a32cd" points="1395.56,-53.84 1385.54,-57.28 1395.52,-60.84 1395.56,-53.84"/>
</a>
</g>
<text text-anchor="middle" x="1465" y="-92" font-family="Helvetica,sans-Serif" font-size="10.00" fill="grey"> tooltipWindow</text>
</g>
<!-- Node18 -->
<g id="Node000018" class="node">
<title>Node18</title>
<g id="a_Node000018"><a xlink:title=" ">
<polygon fill="white" stroke="#666666" points="1410,-30 1240,-30 1240,0 1410,0 1410,-30"/>
<text text-anchor="start" x="1248" y="-18" font-family="Helvetica,sans-Serif" font-size="10.00">std::unique_ptr&lt; juce</text>
<text text-anchor="middle" x="1325" y="-7" font-family="Helvetica,sans-Serif" font-size="10.00">::ResizableCornerComponent &gt;</text>
</a>
</g>
</g>
<!-- Node18&#45;&gt;Node1 -->
<g id="edge20_Node000001_Node000018" class="edge">
<title>Node18&#45;&gt;Node1</title>
<g id="a_edge20_Node000001_Node000018"><a xlink:title=" ">
<path fill="none" stroke="#9a32cd" stroke-dasharray="5,2" d="M1420.33,-12.58C1449.43,-16.35 1479.67,-25.47 1502,-45 1594.49,-125.9 1597.55,-295.77 1596.8,-338.23"/>
<polygon fill="#9a32cd" stroke="#9a32cd" points="1420.41,-9.07 1410.09,-11.47 1419.65,-16.03 1420.41,-9.07"/>
</a>
</g>
<text text-anchor="middle" x="1465" y="-48" font-family="Helvetica,sans-Serif" font-size="10.00" fill="grey"> resizer</text>
</g>
<!-- Node19 -->
<g id="Node000019" class="node">
<title>Node19</title>
<g id="a_Node000019"><a xlink:title=" ">
<polygon fill="white" stroke="#666666" points="1400,-559 1250,-559 1250,-529 1400,-529 1400,-559"/>
<text text-anchor="start" x="1258" y="-547" font-family="Helvetica,sans-Serif" font-size="10.00">std::unique_ptr&lt; DirektDSP</text>
<text text-anchor="middle" x="1325" y="-536" font-family="Helvetica,sans-Serif" font-size="10.00">::DirektPresetBrowser &gt;</text>
</a>
</g>
</g>
<!-- Node19&#45;&gt;Node1 -->
<g id="edge22_Node000001_Node000019" class="edge">
<title>Node19&#45;&gt;Node1</title>
<g id="a_edge22_Node000001_Node000019"><a xlink:title=" ">
<path fill="none" stroke="#9a32cd" stroke-dasharray="5,2" d="M1409.97,-528.25C1441.04,-519.5 1475.19,-506.14 1502,-486 1549.82,-450.07 1581.87,-382.61 1592.57,-357.62"/>
<polygon fill="#9a32cd" stroke="#9a32cd" points="1408.75,-524.95 1400,-530.93 1410.57,-531.71 1408.75,-524.95"/>
</a>
</g>
<text text-anchor="middle" x="1465" y="-524" font-family="Helvetica,sans-Serif" font-size="10.00" fill="grey"> presetBrowser</text>
</g>
<!-- Node20&#45;&gt;Node19 -->
<g id="edge23_Node000019_Node000020" class="edge">
<title>Node20&#45;&gt;Node19</title>
<g id="a_edge23_Node000019_Node000020"><a xlink:title=" ">
<path fill="none" stroke="#9a32cd" stroke-dasharray="5,2" d="M1117.54,-559.02C1160.38,-555.9 1210.08,-552.29 1249.98,-549.38"/>
<polygon fill="#9a32cd" stroke="#9a32cd" points="1117.09,-555.54 1107.38,-559.75 1117.6,-562.52 1117.09,-555.54"/>
</a>
</g>
<text text-anchor="middle" x="1173.5" y="-561" font-family="Helvetica,sans-Serif" font-size="10.00" fill="grey"> ptr</text>
</g>
<!-- Node21 -->
<g id="Node000021" class="node">
<title>Node21</title>
<g id="a_Node000021"><a xlink:href="classDirektDSP_1_1DirektPresetBrowser_1_1CategoryListModel.html" target="_top" xlink:title=" ">
<polygon fill="white" stroke="#666666" points="740,-571 567,-571 567,-541 740,-541 740,-571"/>
<text text-anchor="start" x="575" y="-559" font-family="Helvetica,sans-Serif" font-size="10.00">DirektDSP::DirektPresetBrowser</text>
<text text-anchor="middle" x="653.5" y="-548" font-family="Helvetica,sans-Serif" font-size="10.00">::CategoryListModel</text>
</a>
</g>
</g>
<!-- Node21&#45;&gt;Node20 -->
<g id="edge26_Node000020_Node000021" class="edge">
<title>Node21&#45;&gt;Node20</title>
<g id="a_edge26_Node000020_Node000021"><a xlink:title=" ">
<path fill="none" stroke="#9a32cd" stroke-dasharray="5,2" d="M750.17,-558.62C807.11,-560.18 878.75,-562.14 933.83,-563.65"/>
<polygon fill="#9a32cd" stroke="#9a32cd" points="750.17,-555.12 740.08,-558.34 749.98,-562.12 750.17,-555.12"/>
</a>
</g>
<text text-anchor="middle" x="837" y="-566" font-family="Helvetica,sans-Serif" font-size="10.00" fill="grey"> categoryModel</text>
</g>
<!-- Node22 -->
<g id="Node000022" class="node">
<title>Node22</title>
<g id="a_Node000022"><a xlink:title=" ">
<polygon fill="white" stroke="#666666" points="376.5,-564.5 267.5,-564.5 267.5,-545.5 376.5,-545.5 376.5,-564.5"/>
<text text-anchor="middle" x="322" y="-552.5" font-family="Helvetica,sans-Serif" font-size="10.00">juce::ListBoxModel</text>
</a>
</g>
</g>
<!-- Node22&#45;&gt;Node21 -->
<g id="edge27_Node000021_Node000022" class="edge">
<title>Node22&#45;&gt;Node21</title>
<g id="a_edge27_Node000021_Node000022"><a xlink:title=" ">
<path fill="none" stroke="#63b8ff" d="M386.96,-555.19C438.25,-555.35 510.71,-555.57 566.98,-555.74"/>
<polygon fill="#63b8ff" stroke="#63b8ff" points="386.68,-551.69 376.67,-555.16 386.66,-558.69 386.68,-551.69"/>
</a>
</g>
</g>
<!-- Node23 -->
<g id="Node000023" class="node">
<title>Node23</title>
<g id="a_Node000023"><a xlink:href="classDirektDSP_1_1DirektPresetBrowser_1_1PresetListModel.html" target="_top" xlink:title=" ">
<polygon fill="white" stroke="#666666" points="740,-523 567,-523 567,-493 740,-493 740,-523"/>
<text text-anchor="start" x="575" y="-511" font-family="Helvetica,sans-Serif" font-size="10.00">DirektDSP::DirektPresetBrowser</text>
<text text-anchor="middle" x="653.5" y="-500" font-family="Helvetica,sans-Serif" font-size="10.00">::PresetListModel</text>
</a>
</g>
</g>
<!-- Node22&#45;&gt;Node23 -->
<g id="edge29_Node000023_Node000022" class="edge">
<title>Node22&#45;&gt;Node23</title>
<g id="a_edge29_Node000023_Node000022"><a xlink:title=" ">
<path fill="none" stroke="#63b8ff" d="M386.64,-545.92C437.95,-538.6 510.59,-528.24 566.98,-520.2"/>
<polygon fill="#63b8ff" stroke="#63b8ff" points="386.08,-542.47 376.67,-547.34 387.07,-549.4 386.08,-542.47"/>
</a>
</g>
</g>
<!-- Node23&#45;&gt;Node20 -->
<g id="edge28_Node000020_Node000023" class="edge">
<title>Node23&#45;&gt;Node20</title>
<g id="a_edge28_Node000020_Node000023"><a xlink:title=" ">
<path fill="none" stroke="#9a32cd" stroke-dasharray="5,2" d="M750.25,-518.82C799.87,-524.93 861.36,-533.29 916,-543 937.39,-546.8 961.05,-551.98 980.34,-556.47"/>
<polygon fill="#9a32cd" stroke="#9a32cd" points="750.52,-515.33 740.17,-517.59 749.67,-522.28 750.52,-515.33"/>
</a>
</g>
<text text-anchor="middle" x="837" y="-546" font-family="Helvetica,sans-Serif" font-size="10.00" fill="grey"> presetModel</text>
</g>
<!-- Node24 -->
<g id="Node000024" class="node">
<title>Node24</title>
<g id="a_Node000024"><a xlink:title=" ">
<polygon fill="#fff0f0" stroke="red" points="386.5,-525.5 257.5,-525.5 257.5,-484.5 386.5,-484.5 386.5,-525.5"/>
<text text-anchor="start" x="265.5" y="-513.5" font-family="Helvetica,sans-Serif" font-size="10.00">std::vector&lt; DirektDSP</text>
<text text-anchor="start" x="265.5" y="-502.5" font-family="Helvetica,sans-Serif" font-size="10.00">::DirektPresetBrowser</text>
<text text-anchor="middle" x="322" y="-491.5" font-family="Helvetica,sans-Serif" font-size="10.00">::PresetEntry &gt;</text>
</a>
</g>
</g>
<!-- Node24&#45;&gt;Node23 -->
<g id="edge30_Node000023_Node000024" class="edge">
<title>Node24&#45;&gt;Node23</title>
<g id="a_edge30_Node000023_Node000024"><a xlink:title=" ">
<path fill="none" stroke="#9a32cd" stroke-dasharray="5,2" d="M396.88,-505.05C441.03,-505.15 498.22,-505.4 549,-506 554.84,-506.07 560.87,-506.15 566.94,-506.25"/>
<polygon fill="#9a32cd" stroke="#9a32cd" points="396.82,-501.55 386.81,-505.03 396.8,-508.55 396.82,-501.55"/>
</a>
</g>
<text text-anchor="middle" x="482.5" y="-509" font-family="Helvetica,sans-Serif" font-size="10.00" fill="grey"> presets</text>
</g>
<!-- Node26 -->
<g id="Node000026" class="node">
<title>Node26</title>
<g id="a_Node000026"><a xlink:title=" ">
<polygon fill="white" stroke="#666666" points="707,-657 600,-657 600,-627 707,-627 707,-657"/>
<text text-anchor="start" x="608" y="-645" font-family="Helvetica,sans-Serif" font-size="10.00">std::unordered_set</text>
<text text-anchor="middle" x="653.5" y="-634" font-family="Helvetica,sans-Serif" font-size="10.00">&lt; std::string &gt;</text>
</a>
</g>
</g>
<!-- Node26&#45;&gt;Node20 -->
<g id="edge31_Node000020_Node000026" class="edge">
<title>Node26&#45;&gt;Node20</title>
<g id="a_edge31_Node000020_Node000026"><a xlink:title=" ">
<path fill="none" stroke="#9a32cd" stroke-dasharray="5,2" d="M717.06,-640.58C770.69,-638.07 849.59,-631.26 916,-613 948.16,-604.16 982.96,-586.51 1002.91,-575.53"/>
<polygon fill="#9a32cd" stroke="#9a32cd" points="716.85,-637.09 707.01,-641.02 717.15,-644.08 716.85,-637.09"/>
</a>
</g>
<text text-anchor="middle" x="837" y="-640" font-family="Helvetica,sans-Serif" font-size="10.00" fill="grey"> favoritePresetKeys</text>
</g>
<!-- Node27 -->
<g id="Node000027" class="node">
<title>Node27</title>
<g id="a_Node000027"><a xlink:title=" ">
<polygon fill="#fff0f0" stroke="red" points="354.5,-651.5 289.5,-651.5 289.5,-632.5 354.5,-632.5 354.5,-651.5"/>
<text text-anchor="middle" x="322" y="-639.5" font-family="Helvetica,sans-Serif" font-size="10.00">std::string</text>
</a>
</g>
</g>
<!-- Node27&#45;&gt;Node26 -->
<g id="edge32_Node000026_Node000027" class="edge">
<title>Node27&#45;&gt;Node26</title>
<g id="a_edge32_Node000026_Node000027"><a xlink:title=" ">
<path fill="none" stroke="#9a32cd" stroke-dasharray="5,2" d="M364.8,-642C424.56,-642 534.42,-642 599.72,-642"/>
<polygon fill="#9a32cd" stroke="#9a32cd" points="364.59,-638.5 354.59,-642 364.59,-645.5 364.59,-638.5"/>
</a>
</g>
<text text-anchor="middle" x="482.5" y="-645" font-family="Helvetica,sans-Serif" font-size="10.00" fill="grey"> keys</text>
</g>
<!-- Node29 -->
<g id="Node000029" class="node">
<title>Node29</title>
<g id="a_Node000029"><a xlink:href="classDirektDSP_1_1DirektParameterHistory.html" target="_top" xlink:title="Maintains undo/redo history for APVTS parameter edits.">
<polygon fill="white" stroke="#666666" points="1096.5,-190 944.5,-190 944.5,-160 1096.5,-160 1096.5,-190"/>
<text text-anchor="start" x="952.5" y="-178" font-family="Helvetica,sans-Serif" font-size="10.00">DirektDSP::DirektParameter</text>
<text text-anchor="middle" x="1020.5" y="-167" font-family="Helvetica,sans-Serif" font-size="10.00">History</text>
</a>
</g>
</g>
<!-- Node29&#45;&gt;Node1 -->
<g id="edge33_Node000001_Node000029" class="edge">
<title>Node29&#45;&gt;Node1</title>
<g id="a_edge33_Node000001_Node000029"><a xlink:title=" ">
<path fill="none" stroke="#9a32cd" stroke-dasharray="5,2" d="M1100.49,-194.81C1102.74,-196.12 1104.91,-197.51 1107,-199 1118.44,-207.16 1113.06,-217.58 1125,-225 1233.76,-292.55 1284.94,-239.57 1410,-267 1451.62,-276.13 1462.79,-277.32 1502,-294 1531.91,-306.73 1564.28,-326.73 1582.31,-338.48"/>
<polygon fill="#9a32cd" stroke="#9a32cd" points="1102.02,-191.66 1091.53,-190.17 1098.8,-197.87 1102.02,-191.66"/>
</a>
</g>
<text text-anchor="middle" x="1325" y="-270" font-family="Helvetica,sans-Serif" font-size="10.00" fill="grey"> parameterHistory</text>
</g>
<!-- Node29&#45;&gt;Node33 -->
<g id="edge42_Node000033_Node000029" class="edge">
<title>Node29&#45;&gt;Node33</title>
<g id="a_edge42_Node000033_Node000029"><a xlink:title=" ">
<path fill="none" stroke="#9a32cd" stroke-dasharray="5,2" d="M1107.07,-177.54C1142.63,-178.71 1184.32,-180.23 1222,-182 1233.43,-182.54 1245.57,-183.18 1257.35,-183.85"/>
<polygon fill="#9a32cd" stroke="#9a32cd" points="1106.84,-174.03 1096.73,-177.2 1106.61,-181.03 1106.84,-174.03"/>
</a>
</g>
<text text-anchor="middle" x="1173.5" y="-185" font-family="Helvetica,sans-Serif" font-size="10.00" fill="grey"> parameterHistory</text>
</g>
<!-- Node30 -->
<g id="Node000030" class="node">
<title>Node30</title>
<g id="a_Node000030"><a xlink:title=" ">
<polygon fill="white" stroke="#666666" points="722.5,-195.5 584.5,-195.5 584.5,-154.5 722.5,-154.5 722.5,-195.5"/>
<text text-anchor="start" x="592.5" y="-183.5" font-family="Helvetica,sans-Serif" font-size="10.00">std::vector&lt; DirektDSP</text>
<text text-anchor="start" x="592.5" y="-172.5" font-family="Helvetica,sans-Serif" font-size="10.00">::DirektParameterHistory</text>
<text text-anchor="middle" x="653.5" y="-161.5" font-family="Helvetica,sans-Serif" font-size="10.00">::ParameterChange &gt;</text>
</a>
</g>
</g>
<!-- Node30&#45;&gt;Node29 -->
<g id="edge34_Node000029_Node000030" class="edge">
<title>Node30&#45;&gt;Node29</title>
<g id="a_edge34_Node000029_Node000030"><a xlink:title=" ">
<path fill="none" stroke="#9a32cd" stroke-dasharray="5,2" d="M732.94,-175C795.54,-175 882.67,-175 944.38,-175"/>
<polygon fill="#9a32cd" stroke="#9a32cd" points="732.73,-171.5 722.73,-175 732.73,-178.5 732.73,-171.5"/>
</a>
</g>
<text text-anchor="middle" x="837" y="-178" font-family="Helvetica,sans-Serif" font-size="10.00" fill="grey"> history</text>
</g>
<!-- Node31 -->
<g id="Node000031" class="node">
<title>Node31</title>
<g id="a_Node000031"><a xlink:href="structDirektDSP_1_1DirektParameterHistory_1_1ParameterChange.html" target="_top" xlink:title=" ">
<polygon fill="white" stroke="#666666" points="398,-190 246,-190 246,-160 398,-160 398,-190"/>
<text text-anchor="start" x="254" y="-178" font-family="Helvetica,sans-Serif" font-size="10.00">DirektDSP::DirektParameter</text>
<text text-anchor="middle" x="322" y="-167" font-family="Helvetica,sans-Serif" font-size="10.00">History::ParameterChange</text>
</a>
</g>
</g>
<!-- Node31&#45;&gt;Node30 -->
<g id="edge35_Node000030_Node000031" class="edge">
<title>Node31&#45;&gt;Node30</title>
<g id="a_edge35_Node000030_Node000031"><a xlink:title=" ">
<path fill="none" stroke="#9a32cd" stroke-dasharray="5,2" d="M408.23,-175C463.03,-175 533.28,-175 584.37,-175"/>
<polygon fill="#9a32cd" stroke="#9a32cd" points="408.18,-171.5 398.18,-175 408.18,-178.5 408.18,-171.5"/>
</a>
</g>
<text text-anchor="middle" x="482.5" y="-178" font-family="Helvetica,sans-Serif" font-size="10.00" fill="grey"> elements</text>
</g>
<!-- Node32&#45;&gt;Node1 -->
<g id="edge36_Node000001_Node000032" class="edge">
<title>Node32&#45;&gt;Node1</title>
<g id="a_edge36_Node000001_Node000032"><a xlink:title=" ">
<path fill="none" stroke="#9a32cd" stroke-dasharray="5,2" d="M1090.55,-283.71C1184.93,-279.63 1358.82,-278.44 1502,-313 1527.85,-319.24 1556.32,-330.41 1575.18,-338.45"/>
<polygon fill="#9a32cd" stroke="#9a32cd" points="1090.39,-280.22 1080.56,-284.17 1090.71,-287.21 1090.39,-280.22"/>
</a>
</g>
<text text-anchor="middle" x="1325" y="-298" font-family="Helvetica,sans-Serif" font-size="10.00" fill="grey"> rootBuiltNode</text>
</g>
<!-- Node33&#45;&gt;Node1 -->
<g id="edge40_Node000001_Node000033" class="edge">
<title>Node33&#45;&gt;Node1</title>
<g id="a_edge40_Node000001_Node000033"><a xlink:title=" ">
<path fill="none" stroke="#9a32cd" stroke-dasharray="5,2" d="M1402.5,-187.32C1435.2,-190.15 1472.54,-197.79 1502,-216 1551.39,-246.53 1582.48,-313.4 1592.75,-338.35"/>
<polygon fill="#9a32cd" stroke="#9a32cd" points="1402.75,-183.83 1392.52,-186.59 1402.24,-190.81 1402.75,-183.83"/>
</a>
</g>
<text text-anchor="middle" x="1465" y="-219" font-family="Helvetica,sans-Serif" font-size="10.00" fill="grey"> buildContext</text>
</g>
<!-- Node34 -->
<g id="Node000034" class="node">
<title>Node34</title>
<g id="a_Node000034"><a xlink:title=" ">
<polygon fill="white" stroke="#666666" points="1104,-238 937,-238 937,-208 1104,-208 1104,-238"/>
<text text-anchor="start" x="945" y="-226" font-family="Helvetica,sans-Serif" font-size="10.00">std::map&lt; juce::String,</text>
<text text-anchor="middle" x="1020.5" y="-215" font-family="Helvetica,sans-Serif" font-size="10.00"> const std::atomic&lt; float &gt; * &gt;</text>
</a>
</g>
</g>
<!-- Node34&#45;&gt;Node33 -->
<g id="edge43_Node000033_Node000034" class="edge">
<title>Node34&#45;&gt;Node33</title>
<g id="a_edge43_Node000033_Node000034"><a xlink:title=" ">
<path fill="none" stroke="#9a32cd" stroke-dasharray="5,2" d="M1114.18,-212.28C1160.38,-206.93 1215.2,-200.59 1257.22,-195.73"/>
<polygon fill="#9a32cd" stroke="#9a32cd" points="1113.69,-208.81 1104.16,-213.44 1114.5,-215.76 1113.69,-208.81"/>
</a>
</g>
<text text-anchor="middle" x="1173.5" y="-213" font-family="Helvetica,sans-Serif" font-size="10.00" fill="grey"> meterSources</text>
</g>
<!-- Node35 -->
<g id="Node000035" class="node">
<title>Node35</title>
<g id="a_Node000035"><a xlink:title=" ">
<polygon fill="white" stroke="#666666" points="711.5,-232.5 595.5,-232.5 595.5,-213.5 711.5,-213.5 711.5,-232.5"/>
<text text-anchor="middle" x="653.5" y="-220.5" font-family="Helvetica,sans-Serif" font-size="10.00">std::atomic&lt; float &gt;</text>
</a>
</g>
</g>
<!-- Node35&#45;&gt;Node34 -->
<g id="edge44_Node000034_Node000035" class="edge">
<title>Node35&#45;&gt;Node34</title>
<g id="a_edge44_Node000034_Node000035"><a xlink:title=" ">
<path fill="none" stroke="#9a32cd" stroke-dasharray="5,2" d="M721.76,-223C782.41,-223 871.79,-223 936.79,-223"/>
<polygon fill="#9a32cd" stroke="#9a32cd" points="721.53,-219.5 711.53,-223 721.53,-226.5 721.53,-219.5"/>
</a>
</g>
<text text-anchor="middle" x="837" y="-226" font-family="Helvetica,sans-Serif" font-size="10.00" fill="grey"> elements</text>
</g>
</g>
</svg>
