<?xml version="1.0" encoding="UTF-8" standalone="no"?>
<!DOCTYPE svg PUBLIC "-//W3C//DTD SVG 1.1//EN"
 "http://www.w3.org/Graphics/SVG/1.1/DTD/svg11.dtd">
<!-- Generated by graphviz version 2.43.0 (0)
 -->
<!-- Title: StandaloneTestProcessor Pages: 1 -->
<svg width="828pt" height="135pt"
 viewBox="0.00 0.00 828.00 134.50" xmlns="http://www.w3.org/2000/svg" xmlns:xlink="http://www.w3.org/1999/xlink">
<g id="graph0" class="graph" transform="scale(1 1) rotate(0) translate(4 130.5)">
<title>StandaloneTestProcessor</title>
<!-- Node1 -->
<g id="Node000001" class="node">
<title>Node1</title>
<g id="a_Node000001"><a xlink:title=" ">
<polygon fill="#999999" stroke="#666666" points="820,-67.5 682,-67.5 682,-48.5 820,-48.5 820,-67.5"/>
<text text-anchor="middle" x="751" y="-55.5" font-family="Helvetica,sans-Serif" font-size="10.00">StandaloneTestProcessor</text>
</a>
</g>
</g>
<!-- Node2 -->
<g id="Node000002" class="node">
<title>Node2</title>
<g id="a_Node000002"><a xlink:title=" ">
<polygon fill="white" stroke="#666666" points="523.5,-126.5 405.5,-126.5 405.5,-107.5 523.5,-107.5 523.5,-126.5"/>
<text text-anchor="middle" x="464.5" y="-114.5" font-family="Helvetica,sans-Serif" font-size="10.00">juce::AudioProcessor</text>
</a>
</g>
</g>
<!-- Node2&#45;&gt;Node1 -->
<g id="edge1_Node000001_Node000002" class="edge">
<title>Node2&#45;&gt;Node1</title>
<g id="a_edge1_Node000001_Node000002"><a xlink:title=" ">
<path fill="none" stroke="#63b8ff" d="M534.05,-119.03C572.85,-118.49 621.89,-114.94 664,-103 691.24,-95.28 719.76,-78.31 736.16,-67.56"/>
<polygon fill="#63b8ff" stroke="#63b8ff" points="533.88,-115.53 523.91,-119.11 533.93,-122.53 533.88,-115.53"/>
</a>
</g>
</g>
<!-- Node3 -->
<g id="Node000003" class="node">
<title>Node3</title>
<g id="a_Node000003"><a xlink:title=" ">
<polygon fill="white" stroke="#666666" points="522.5,-67.5 406.5,-67.5 406.5,-48.5 522.5,-48.5 522.5,-67.5"/>
<text text-anchor="middle" x="464.5" y="-55.5" font-family="Helvetica,sans-Serif" font-size="10.00">std::atomic&lt; float &gt;</text>
</a>
</g>
</g>
<!-- Node3&#45;&gt;Node1 -->
<g id="edge2_Node000001_Node000003" class="edge">
<title>Node3&#45;&gt;Node1</title>
<g id="a_edge2_Node000001_Node000003"><a xlink:title=" ">
<path fill="none" stroke="#9a32cd" stroke-dasharray="5,2" d="M532.97,-58C577.9,-58 636.75,-58 681.83,-58"/>
<polygon fill="#9a32cd" stroke="#9a32cd" points="532.73,-54.5 522.73,-58 532.73,-61.5 532.73,-54.5"/>
</a>
</g>
<text text-anchor="middle" x="625.5" y="-94" font-family="Helvetica,sans-Serif" font-size="10.00" fill="grey"> clipLevel</text>
<text text-anchor="middle" x="625.5" y="-83" font-family="Helvetica,sans-Serif" font-size="10.00" fill="grey">meterL</text>
<text text-anchor="middle" x="625.5" y="-72" font-family="Helvetica,sans-Serif" font-size="10.00" fill="grey">meterMono</text>
<text text-anchor="middle" x="625.5" y="-61" font-family="Helvetica,sans-Serif" font-size="10.00" fill="grey">meterR</text>
</g>
<!-- Node4 -->
<g id="Node000004" class="node">
<title>Node4</title>
<g id="a_Node000004"><a xlink:title=" ">
<polygon fill="white" stroke="#666666" points="569,-30 360,-30 360,0 569,0 569,-30"/>
<text text-anchor="start" x="368" y="-18" font-family="Helvetica,sans-Serif" font-size="10.00">std::unique_ptr&lt; Standalone</text>
<text text-anchor="middle" x="464.5" y="-7" font-family="Helvetica,sans-Serif" font-size="10.00">TestProcessor::GalleryPresetManager &gt;</text>
</a>
</g>
</g>
<!-- Node4&#45;&gt;Node1 -->
<g id="edge3_Node000001_Node000004" class="edge">
<title>Node4&#45;&gt;Node1</title>
<g id="a_edge3_Node000001_Node000004"><a xlink:title=" ">
<path fill="none" stroke="#9a32cd" stroke-dasharray="5,2" d="M579.27,-30.4C607.01,-34.33 636.6,-38.68 664,-43 674.63,-44.68 685.98,-46.58 696.83,-48.45"/>
<polygon fill="#9a32cd" stroke="#9a32cd" points="579.52,-26.9 569.13,-28.97 578.55,-33.83 579.52,-26.9"/>
</a>
</g>
<text text-anchor="middle" x="625.5" y="-46" font-family="Helvetica,sans-Serif" font-size="10.00" fill="grey"> presetManager</text>
</g>
<!-- Node5 -->
<g id="Node000005" class="node">
<title>Node5</title>
<g id="a_Node000005"><a xlink:href="classStandaloneTestProcessor_1_1GalleryPresetManager.html" target="_top" xlink:title=" ">
<polygon fill="white" stroke="#666666" points="307,-30 169,-30 169,0 307,0 307,-30"/>
<text text-anchor="start" x="177" y="-18" font-family="Helvetica,sans-Serif" font-size="10.00">StandaloneTestProcessor</text>
<text text-anchor="middle" x="238" y="-7" font-family="Helvetica,sans-Serif" font-size="10.00">::GalleryPresetManager</text>
</a>
</g>
</g>
<!-- Node5&#45;&gt;Node4 -->
<g id="edge4_Node000004_Node000005" class="edge">
<title>Node5&#45;&gt;Node4</title>
<g id="a_edge4_Node000004_Node000005"><a xlink:title=" ">
<path fill="none" stroke="#9a32cd" stroke-dasharray="5,2" d="M317.59,-15C331.28,-15 345.72,-15 359.96,-15"/>
<polygon fill="#9a32cd" stroke="#9a32cd" points="317.27,-11.5 307.27,-15 317.27,-18.5 317.27,-11.5"/>
</a>
</g>
<text text-anchor="middle" x="333.5" y="-18" font-family="Helvetica,sans-Serif" font-size="10.00" fill="grey"> ptr</text>
</g>
<!-- Node6 -->
<g id="Node000006" class="node">
<title>Node6</title>
<g id="a_Node000006"><a xlink:href="classService_1_1PresetManager.html" target="_top" xlink:title=" ">
<polygon fill="white" stroke="#666666" points="132,-24.5 0,-24.5 0,-5.5 132,-5.5 132,-24.5"/>
<text text-anchor="middle" x="66" y="-12.5" font-family="Helvetica,sans-Serif" font-size="10.00">Service::PresetManager</text>
</a>
</g>
</g>
<!-- Node6&#45;&gt;Node5 -->
<g id="edge5_Node000005_Node000006" class="edge">
<title>Node6&#45;&gt;Node5</title>
<g id="a_edge5_Node000005_Node000006"><a xlink:title=" ">
<path fill="none" stroke="#63b8ff" d="M142.46,-15C151.24,-15 160.16,-15 168.83,-15"/>
<polygon fill="#63b8ff" stroke="#63b8ff" points="142.24,-11.5 132.24,-15 142.24,-18.5 142.24,-11.5"/>
</a>
</g>
</g>
</g>
</svg>
