<?xml version="1.0" encoding="UTF-8" standalone="no"?>
<!DOCTYPE svg PUBLIC "-//W3C//DTD SVG 1.1//EN"
 "http://www.w3.org/Graphics/SVG/1.1/DTD/svg11.dtd">
<!-- Generated by graphviz version 2.43.0 (0)
 -->
<!-- Title: DirektDSP::DirektBaseEditor Pages: 1 -->
<!--zoomable 679 -->

<svg id="main" version="1.1" xmlns="http://www.w3.org/2000/svg" xmlns:xlink="http://www.w3.org/1999/xlink" xml:space="preserve" onload="init(evt)">
<style type="text/css"><![CDATA[
.node, .edge {opacity: 0.7;}
.node.selected, .edge.selected {opacity: 1;}
.edge:hover path { stroke: red; }
.edge:hover polygon { stroke: red; fill: red; }
]]></style>

<defs>
  <circle id="rim" cx="0" cy="0" r="7"/>
  <circle id="rim2" cx="0" cy="0" r="3.5"/>
  <g id="zoomPlus">
    <use xlink:href="#rim" fill="#404040"><set attributeName="fill" to="#808080" begin="zoomplus.mouseover" end="zoomplus.mouseout"/></use>
    <path d="M-4,0h8M0,-4v8" fill="none" stroke="white" stroke-width="1.5" pointer-events="none"/>
  </g>
  <g id="zoomMin">
    <use xlink:href="#rim" fill="#404040"><set attributeName="fill" to="#808080" begin="zoomminus.mouseover" end="zoomminus.mouseout"/></use>
    <path d="M-4,0h8" fill="none" stroke="white" stroke-width="1.5" pointer-events="none"/>
  </g>
  <g id="arrowUp" transform="translate(30 24)">
    <use xlink:href="#rim"/>
    <path pointer-events="none" fill="none" stroke="white" stroke-width="1.5" d="M0,-3.0v7 M-2.5,-0.5L0,-3.0L2.5,-0.5"/>
  </g>
  <g id="arrowRight" transform="rotate(90) translate(36 -43)">
    <use xlink:href="#rim"/>
    <path pointer-events="none" fill="none" stroke="white" stroke-width="1.5" d="M0,-3.0v7 M-2.5,-0.5L0,-3.0L2.5,-0.5"/>
  </g>
  <g id="arrowDown" transform="rotate(180) translate(-30 -48)">
    <use xlink:href="#rim"/>
    <path pointer-events="none" fill="none" stroke="white" stroke-width="1.5" d="M0,-3.0v7 M-2.5,-0.5L0,-3.0L2.5,-0.5"/>
  </g>
  <g id="arrowLeft" transform="rotate(270) translate(-36 17)">
    <use xlink:href="#rim"/>
    <path pointer-events="none" fill="none" stroke="white" stroke-width="1.5" d="M0,-3.0v7 M-2.5,-0.5L0,-3.0L2.5,-0.5"/>
  </g>
  <g id="resetDef">
    <use xlink:href="#rim2" fill="#404040"><set attributeName="fill" to="#808080" begin="reset.mouseover" end="reset.mouseout"/></use>
  </g>
</defs>
<script type="application/ecmascript">
var viewWidth = 1559;
var viewHeight = 679;
var sectionId = 'dynsection-1';
</script>
<script type="application/ecmascript" xlink:href="svg.min.js"/>
<svg id="graph" class="graph">
<g id="viewport">
<title>DirektDSP::DirektBaseEditor</title>
<!-- Node1 -->
<g id="Node000001" class="node">
<title>Node1</title>
<g id="a_Node000001"><a xlink:title=" ">
<polygon fill="#999999" stroke="#666666" points="1551,-303.5 1396,-303.5 1396,-284.5 1551,-284.5 1551,-303.5"/>
<text text-anchor="middle" x="1473.5" y="-291.5" font-family="Helvetica,sans-Serif" font-size="10.00">DirektDSP::DirektBaseEditor</text>
</a>
</g>
</g>
<!-- Node2 -->
<g id="Node000002" class="node">
<title>Node2</title>
<g id="a_Node000002"><a xlink:title=" ">
<polygon fill="white" stroke="#666666" points="1274,-670.5 1128,-670.5 1128,-651.5 1274,-651.5 1274,-670.5"/>
<text text-anchor="middle" x="1201" y="-658.5" font-family="Helvetica,sans-Serif" font-size="10.00">juce::AudioProcessorEditor</text>
</a>
</g>
</g>
<!-- Node2&#45;&gt;Node1 -->
<g id="edge1_Node000001_Node000002" class="edge">
<title>Node2&#45;&gt;Node1</title>
<g id="a_edge1_Node000001_Node000002"><a xlink:title=" ">
<path fill="none" stroke="#63b8ff" d="M1284.24,-668.25C1316.91,-666.8 1352.65,-659.17 1378,-637 1431,-590.64 1464.55,-354.79 1471.26,-303.75"/>
<polygon fill="#63b8ff" stroke="#63b8ff" points="1284.12,-664.75 1274.22,-668.51 1284.31,-671.75 1284.12,-664.75"/>
</a>
</g>
</g>
<!-- Node3 -->
<g id="Node000003" class="node">
<title>Node3</title>
<g id="a_Node000003"><a xlink:title=" ">
<polygon fill="white" stroke="#666666" points="1265.5,-309 1136.5,-309 1136.5,-279 1265.5,-279 1265.5,-309"/>
<text text-anchor="start" x="1144.5" y="-297" font-family="Helvetica,sans-Serif" font-size="10.00">std::vector&lt; DirektDSP</text>
<text text-anchor="middle" x="1201" y="-286" font-family="Helvetica,sans-Serif" font-size="10.00">::BuiltSection &gt;</text>
</a>
</g>
</g>
<!-- Node3&#45;&gt;Node1 -->
<g id="edge2_Node000001_Node000003" class="edge">
<title>Node3&#45;&gt;Node1</title>
<g id="a_edge2_Node000001_Node000003"><a xlink:title=" ">
<path fill="none" stroke="#9a32cd" stroke-dasharray="5,2" d="M1276.02,-294C1313.18,-294 1358.14,-294 1395.68,-294"/>
<polygon fill="#9a32cd" stroke="#9a32cd" points="1275.76,-290.5 1265.76,-294 1275.76,-297.5 1275.76,-290.5"/>
</a>
</g>
<text text-anchor="middle" x="1341" y="-297" font-family="Helvetica,sans-Serif" font-size="10.00" fill="grey"> builtSections</text>
</g>
<!-- Node4 -->
<g id="Node000004" class="node">
<title>Node4</title>
<g id="a_Node000004"><a xlink:href="structDirektDSP_1_1BuiltSection.html" target="_top" xlink:title=" ">
<polygon fill="white" stroke="#666666" points="962,-303.5 831,-303.5 831,-284.5 962,-284.5 962,-303.5"/>
<text text-anchor="middle" x="896.5" y="-291.5" font-family="Helvetica,sans-Serif" font-size="10.00">DirektDSP::BuiltSection</text>
</a>
</g>
</g>
<!-- Node4&#45;&gt;Node3 -->
<g id="edge3_Node000003_Node000004" class="edge">
<title>Node4&#45;&gt;Node3</title>
<g id="a_edge3_Node000003_Node000004"><a xlink:title=" ">
<path fill="none" stroke="#9a32cd" stroke-dasharray="5,2" d="M972.21,-294C1022.62,-294 1088.44,-294 1136.36,-294"/>
<polygon fill="#9a32cd" stroke="#9a32cd" points="972.02,-290.5 962.02,-294 972.02,-297.5 972.02,-290.5"/>
</a>
</g>
<text text-anchor="middle" x="1049.5" y="-297" font-family="Helvetica,sans-Serif" font-size="10.00" fill="grey"> elements</text>
</g>
<!-- Node5 -->
<g id="Node000005" class="node">
<title>Node5</title>
<g id="a_Node000005"><a xlink:title=" ">
<polygon fill="white" stroke="#666666" points="604.5,-287 454.5,-287 454.5,-257 604.5,-257 604.5,-287"/>
<text text-anchor="start" x="462.5" y="-275" font-family="Helvetica,sans-Serif" font-size="10.00">std::unique_ptr&lt; DirektDSP</text>
<text text-anchor="middle" x="529.5" y="-264" font-family="Helvetica,sans-Serif" font-size="10.00">::DirektSection &gt;</text>
</a>
</g>
</g>
<!-- Node5&#45;&gt;Node4 -->
<g id="edge4_Node000004_Node000005" class="edge">
<title>Node5&#45;&gt;Node4</title>
<g id="a_edge4_Node000004_Node000005"><a xlink:title=" ">
<path fill="none" stroke="#9a32cd" stroke-dasharray="5,2" d="M614.92,-282.33C621.37,-282.95 627.79,-283.52 634,-284 701.04,-289.16 777.97,-291.7 830.94,-292.92"/>
<polygon fill="#9a32cd" stroke="#9a32cd" points="615.08,-278.83 604.78,-281.31 614.38,-285.79 615.08,-278.83"/>
</a>
</g>
<text text-anchor="middle" x="713" y="-294" font-family="Helvetica,sans-Serif" font-size="10.00" fill="grey"> section</text>
</g>
<!-- Node6 -->
<g id="Node000006" class="node">
<title>Node6</title>
<g id="a_Node000006"><a xlink:href="classDirektDSP_1_1DirektSection.html" target="_top" xlink:title=" ">
<polygon fill="#fff0f0" stroke="red" points="274,-281.5 136,-281.5 136,-262.5 274,-262.5 274,-281.5"/>
<text text-anchor="middle" x="205" y="-269.5" font-family="Helvetica,sans-Serif" font-size="10.00">DirektDSP::DirektSection</text>
</a>
</g>
</g>
<!-- Node6&#45;&gt;Node5 -->
<g id="edge5_Node000005_Node000006" class="edge">
<title>Node6&#45;&gt;Node5</title>
<g id="a_edge5_Node000005_Node000006"><a xlink:title=" ">
<path fill="none" stroke="#9a32cd" stroke-dasharray="5,2" d="M284.52,-272C336.22,-272 403.5,-272 454.3,-272"/>
<polygon fill="#9a32cd" stroke="#9a32cd" points="284.39,-268.5 274.39,-272 284.39,-275.5 284.39,-268.5"/>
</a>
</g>
<text text-anchor="middle" x="358.5" y="-275" font-family="Helvetica,sans-Serif" font-size="10.00" fill="grey"> ptr</text>
</g>
<!-- Node7 -->
<g id="Node000007" class="node">
<title>Node7</title>
<g id="a_Node000007"><a xlink:title=" ">
<polygon fill="white" stroke="#666666" points="99,-544.5 0,-544.5 0,-525.5 99,-525.5 99,-544.5"/>
<text text-anchor="middle" x="49.5" y="-532.5" font-family="Helvetica,sans-Serif" font-size="10.00">juce::Component</text>
</a>
</g>
</g>
<!-- Node7&#45;&gt;Node6 -->
<g id="edge6_Node000006_Node000007" class="edge">
<title>Node7&#45;&gt;Node6</title>
<g id="a_edge6_Node000006_Node000007"><a xlink:title=" ">
<path fill="none" stroke="#63b8ff" d="M51.48,-515.21C54.88,-468.95 69.89,-352.98 136,-291 140.11,-287.14 144.94,-284.06 150.1,-281.6"/>
<polygon fill="#63b8ff" stroke="#63b8ff" points="47.98,-515.2 50.85,-525.4 54.96,-515.63 47.98,-515.2"/>
</a>
</g>
</g>
<!-- Node13 -->
<g id="Node000013" class="node">
<title>Node13</title>
<g id="a_Node000013"><a xlink:href="classDirektDSP_1_1DirektHeader.html" target="_top" xlink:title=" ">
<polygon fill="white" stroke="#666666" points="965,-510.5 828,-510.5 828,-491.5 965,-491.5 965,-510.5"/>
<text text-anchor="middle" x="896.5" y="-498.5" font-family="Helvetica,sans-Serif" font-size="10.00">DirektDSP::DirektHeader</text>
</a>
</g>
</g>
<!-- Node7&#45;&gt;Node13 -->
<g id="edge12_Node000013_Node000007" class="edge">
<title>Node7&#45;&gt;Node13</title>
<g id="a_edge12_Node000013_Node000007"><a xlink:title=" ">
<path fill="none" stroke="#63b8ff" d="M109.32,-534.97C234.88,-534.52 538.38,-531.43 792,-513 803.64,-512.15 815.98,-510.97 827.93,-509.68"/>
<polygon fill="#63b8ff" stroke="#63b8ff" points="109.15,-531.47 99.16,-535 109.17,-538.47 109.15,-531.47"/>
</a>
</g>
</g>
<!-- Node15 -->
<g id="Node000015" class="node">
<title>Node15</title>
<g id="a_Node000015"><a xlink:href="classDirektDSP_1_1DirektFooter.html" target="_top" xlink:title=" ">
<polygon fill="white" stroke="#666666" points="425,-629.5 292,-629.5 292,-610.5 425,-610.5 425,-629.5"/>
<text text-anchor="middle" x="358.5" y="-617.5" font-family="Helvetica,sans-Serif" font-size="10.00">DirektDSP::DirektFooter</text>
</a>
</g>
</g>
<!-- Node7&#45;&gt;Node15 -->
<g id="edge15_Node000015_Node000007" class="edge">
<title>Node7&#45;&gt;Node15</title>
<g id="a_edge15_Node000015_Node000007"><a xlink:title=" ">
<path fill="none" stroke="#63b8ff" d="M66.15,-552.02C78.64,-564.45 97.27,-580.54 117,-589 172.81,-612.93 242.09,-619.74 291.93,-621.12"/>
<polygon fill="#63b8ff" stroke="#63b8ff" points="68.34,-549.26 58.88,-544.5 63.31,-554.12 68.34,-549.26"/>
</a>
</g>
</g>
<!-- Node16 -->
<g id="Node000016" class="node">
<title>Node16</title>
<g id="a_Node000016"><a xlink:href="classDirektDSP_1_1DirektPopupPanel.html" target="_top" xlink:title=" ">
<polygon fill="white" stroke="#666666" points="792,-586.5 634,-586.5 634,-567.5 792,-567.5 792,-586.5"/>
<text text-anchor="middle" x="713" y="-574.5" font-family="Helvetica,sans-Serif" font-size="10.00">DirektDSP::DirektPopupPanel</text>
</a>
</g>
</g>
<!-- Node7&#45;&gt;Node16 -->
<g id="edge17_Node000016_Node000007" class="edge">
<title>Node7&#45;&gt;Node16</title>
<g id="a_edge17_Node000016_Node000007"><a xlink:title=" ">
<path fill="none" stroke="#63b8ff" d="M100.6,-546.44C106.11,-547.43 111.66,-548.32 117,-549 301.13,-572.56 519.57,-576.85 633.68,-577.3"/>
<polygon fill="#63b8ff" stroke="#63b8ff" points="101.24,-543 90.77,-544.56 99.93,-549.88 101.24,-543"/>
</a>
</g>
</g>
<!-- Node20 -->
<g id="Node000020" class="node">
<title>Node20</title>
<g id="a_Node000020"><a xlink:href="classDirektDSP_1_1DirektPresetBrowser.html" target="_top" xlink:title=" ">
<polygon fill="white" stroke="#666666" points="983,-400.5 810,-400.5 810,-381.5 983,-381.5 983,-400.5"/>
<text text-anchor="middle" x="896.5" y="-388.5" font-family="Helvetica,sans-Serif" font-size="10.00">DirektDSP::DirektPresetBrowser</text>
</a>
</g>
</g>
<!-- Node7&#45;&gt;Node20 -->
<g id="edge23_Node000020_Node000007" class="edge">
<title>Node7&#45;&gt;Node20</title>
<g id="a_edge23_Node000020_Node000007"><a xlink:title=" ">
<path fill="none" stroke="#63b8ff" d="M109.49,-526.27C273.2,-501.97 725.47,-434.43 792,-420 816.8,-414.62 844.46,-406.77 864.94,-400.6"/>
<polygon fill="#63b8ff" stroke="#63b8ff" points="108.51,-522.87 99.13,-527.8 109.54,-529.8 108.51,-522.87"/>
</a>
</g>
</g>
<!-- Node9 -->
<g id="Node000009" class="node">
<title>Node9</title>
<g id="a_Node000009"><a xlink:title=" ">
<polygon fill="white" stroke="#666666" points="605.5,-239 453.5,-239 453.5,-209 605.5,-209 605.5,-239"/>
<text text-anchor="start" x="461.5" y="-227" font-family="Helvetica,sans-Serif" font-size="10.00">std::vector&lt; std::unique</text>
<text text-anchor="middle" x="529.5" y="-216" font-family="Helvetica,sans-Serif" font-size="10.00">_ptr&lt; juce::Component &gt; &gt;</text>
</a>
</g>
</g>
<!-- Node9&#45;&gt;Node1 -->
<g id="edge35_Node000001_Node000009" class="edge">
<title>Node9&#45;&gt;Node1</title>
<g id="a_edge35_Node000001_Node000009"><a xlink:title=" ">
<path fill="none" stroke="#9a32cd" stroke-dasharray="5,2" d="M615.93,-227.33C756.09,-233.21 1043.51,-247.04 1286,-270 1326.3,-273.82 1371.32,-279.57 1407.02,-284.48"/>
<polygon fill="#9a32cd" stroke="#9a32cd" points="615.83,-223.82 605.69,-226.9 615.54,-230.82 615.83,-223.82"/>
</a>
</g>
<text text-anchor="middle" x="1049.5" y="-257" font-family="Helvetica,sans-Serif" font-size="10.00" fill="grey"> ownedComponents</text>
</g>
<!-- Node9&#45;&gt;Node4 -->
<g id="edge7_Node000004_Node000009" class="edge">
<title>Node9&#45;&gt;Node4</title>
<g id="a_edge7_Node000004_Node000009"><a xlink:title=" ">
<path fill="none" stroke="#9a32cd" stroke-dasharray="5,2" d="M595.37,-241.5C608.12,-244.6 621.44,-247.6 634,-250 703.58,-263.32 722.25,-258.64 792,-271 813.39,-274.79 837.05,-279.97 856.34,-284.46"/>
<polygon fill="#9a32cd" stroke="#9a32cd" points="595.85,-238.01 585.3,-239 594.16,-244.8 595.85,-238.01"/>
</a>
</g>
<text text-anchor="middle" x="713" y="-274" font-family="Helvetica,sans-Serif" font-size="10.00" fill="grey"> controls</text>
</g>
<!-- Node29 -->
<g id="Node000029" class="node">
<title>Node29</title>
<g id="a_Node000029"><a xlink:href="structDirektDSP_1_1BuiltNode.html" target="_top" xlink:title=" ">
<polygon fill="white" stroke="#666666" points="956.5,-216.5 836.5,-216.5 836.5,-197.5 956.5,-197.5 956.5,-216.5"/>
<text text-anchor="middle" x="896.5" y="-204.5" font-family="Helvetica,sans-Serif" font-size="10.00">DirektDSP::BuiltNode</text>
</a>
</g>
</g>
<!-- Node9&#45;&gt;Node29 -->
<g id="edge34_Node000029_Node000009" class="edge">
<title>Node9&#45;&gt;Node29</title>
<g id="a_edge34_Node000029_Node000009"><a xlink:title=" ">
<path fill="none" stroke="#9a32cd" stroke-dasharray="5,2" d="M615.93,-215.28C622.04,-214.8 628.11,-214.36 634,-214 703.35,-209.73 783.21,-208.06 836.25,-207.41"/>
<polygon fill="#9a32cd" stroke="#9a32cd" points="615.32,-211.81 605.64,-216.12 615.89,-218.79 615.32,-211.81"/>
</a>
</g>
<text text-anchor="middle" x="713" y="-217" font-family="Helvetica,sans-Serif" font-size="10.00" fill="grey"> ownedChildren</text>
</g>
<!-- Node10 -->
<g id="Node000010" class="node">
<title>Node10</title>
<g id="a_Node000010"><a xlink:title=" ">
<polygon fill="white" stroke="#666666" points="265.5,-215 144.5,-215 144.5,-185 265.5,-185 265.5,-215"/>
<text text-anchor="start" x="152.5" y="-203" font-family="Helvetica,sans-Serif" font-size="10.00">std::unique_ptr&lt; juce</text>
<text text-anchor="middle" x="205" y="-192" font-family="Helvetica,sans-Serif" font-size="10.00">::Component &gt;</text>
</a>
</g>
</g>
<!-- Node10&#45;&gt;Node9 -->
<g id="edge8_Node000009_Node000010" class="edge">
<title>Node10&#45;&gt;Node9</title>
<g id="a_edge8_Node000009_Node000010"><a xlink:title=" ">
<path fill="none" stroke="#9a32cd" stroke-dasharray="5,2" d="M275.74,-205.19C328.12,-209.09 399.77,-214.42 453.41,-218.41"/>
<polygon fill="#9a32cd" stroke="#9a32cd" points="275.76,-201.68 265.53,-204.43 275.24,-208.66 275.76,-201.68"/>
</a>
</g>
<text text-anchor="middle" x="358.5" y="-219" font-family="Helvetica,sans-Serif" font-size="10.00" fill="grey"> elements</text>
</g>
<!-- Node10&#45;&gt;Node29 -->
<g id="edge33_Node000029_Node000010" class="edge">
<title>Node10&#45;&gt;Node29</title>
<g id="a_edge33_Node000029_Node000010"><a xlink:title=" ">
<path fill="none" stroke="#9a32cd" stroke-dasharray="5,2" d="M275.98,-195.9C323.16,-193.34 386.8,-190.3 443,-189 519.87,-187.22 539.15,-186.53 616,-189 692.18,-191.45 779.86,-197.65 836.39,-202.09"/>
<polygon fill="#9a32cd" stroke="#9a32cd" points="275.67,-192.41 265.88,-196.45 276.05,-199.4 275.67,-192.41"/>
</a>
</g>
<text text-anchor="middle" x="529.5" y="-192" font-family="Helvetica,sans-Serif" font-size="10.00" fill="grey"> component</text>
</g>
<!-- Node11 -->
<g id="Node000011" class="node">
<title>Node11</title>
<g id="a_Node000011"><a xlink:href="classDirektDSP_1_1DirektLookAndFeel.html" target="_top" xlink:title=" ">
<polygon fill="white" stroke="#666666" points="978.5,-123.5 814.5,-123.5 814.5,-104.5 978.5,-104.5 978.5,-123.5"/>
<text text-anchor="middle" x="896.5" y="-111.5" font-family="Helvetica,sans-Serif" font-size="10.00">DirektDSP::DirektLookAndFeel</text>
</a>
</g>
</g>
<!-- Node11&#45;&gt;Node1 -->
<g id="edge9_Node000001_Node000011" class="edge">
<title>Node11&#45;&gt;Node1</title>
<g id="a_edge9_Node000001_Node000011"><a xlink:title=" ">
<path fill="none" stroke="#9a32cd" stroke-dasharray="5,2" d="M951.14,-102.64C1046.56,-85.64 1247.96,-64.57 1378,-156 1426.93,-190.4 1458.31,-258.8 1468.69,-284.2"/>
<polygon fill="#9a32cd" stroke="#9a32cd" points="950.35,-99.23 941.14,-104.48 951.61,-106.12 950.35,-99.23"/>
</a>
</g>
<text text-anchor="middle" x="1201" y="-113" font-family="Helvetica,sans-Serif" font-size="10.00" fill="grey"> lookAndFeel</text>
</g>
<!-- Node30 -->
<g id="Node000030" class="node">
<title>Node30</title>
<g id="a_Node000030"><a xlink:href="structDirektDSP_1_1BuildContext.html" target="_top" xlink:title=" ">
<polygon fill="white" stroke="#666666" points="1268.5,-170.5 1133.5,-170.5 1133.5,-151.5 1268.5,-151.5 1268.5,-170.5"/>
<text text-anchor="middle" x="1201" y="-158.5" font-family="Helvetica,sans-Serif" font-size="10.00">DirektDSP::BuildContext</text>
</a>
</g>
</g>
<!-- Node11&#45;&gt;Node30 -->
<g id="edge37_Node000030_Node000011" class="edge">
<title>Node11&#45;&gt;Node30</title>
<g id="a_edge37_Node000030_Node000011"><a xlink:title=" ">
<path fill="none" stroke="#9a32cd" stroke-dasharray="5,2" d="M968.79,-125.08C1020.41,-133.1 1089.45,-143.82 1138.62,-151.46"/>
<polygon fill="#9a32cd" stroke="#9a32cd" points="969.13,-121.59 958.72,-123.51 968.06,-128.51 969.13,-121.59"/>
</a>
</g>
<text text-anchor="middle" x="1049.5" y="-147" font-family="Helvetica,sans-Serif" font-size="10.00" fill="grey"> lookAndFeel</text>
</g>
<!-- Node12 -->
<g id="Node000012" class="node">
<title>Node12</title>
<g id="a_Node000012"><a xlink:title=" ">
<polygon fill="white" stroke="#666666" points="591,-106.5 468,-106.5 468,-87.5 591,-87.5 591,-106.5"/>
<text text-anchor="middle" x="529.5" y="-94.5" font-family="Helvetica,sans-Serif" font-size="10.00">juce::LookAndFeel_V4</text>
</a>
</g>
</g>
<!-- Node12&#45;&gt;Node11 -->
<g id="edge10_Node000011_Node000012" class="edge">
<title>Node12&#45;&gt;Node11</title>
<g id="a_edge10_Node000011_Node000012"><a xlink:title=" ">
<path fill="none" stroke="#63b8ff" d="M601.5,-100.31C662.57,-103.15 750.66,-107.25 814.47,-110.23"/>
<polygon fill="#63b8ff" stroke="#63b8ff" points="601.33,-96.8 591.18,-99.83 601.01,-103.79 601.33,-96.8"/>
</a>
</g>
</g>
<!-- Node13&#45;&gt;Node1 -->
<g id="edge11_Node000001_Node000013" class="edge">
<title>Node13&#45;&gt;Node1</title>
<g id="a_edge11_Node000001_Node000013"><a xlink:title=" ">
<path fill="none" stroke="#9a32cd" stroke-dasharray="5,2" d="M946.67,-489.03C1035.18,-466.65 1226.24,-414.45 1378,-346 1406.68,-333.07 1438.41,-314.71 1456.84,-303.62"/>
<polygon fill="#9a32cd" stroke="#9a32cd" points="945.75,-485.66 936.9,-491.49 947.45,-492.45 945.75,-485.66"/>
</a>
</g>
<text text-anchor="middle" x="1201" y="-443" font-family="Helvetica,sans-Serif" font-size="10.00" fill="grey"> header</text>
</g>
<!-- Node14 -->
<g id="Node000014" class="node">
<title>Node14</title>
<g id="a_Node000014"><a xlink:href="classService_1_1PresetManager.html" target="_top" xlink:title=" ">
<polygon fill="white" stroke="#666666" points="595.5,-506.5 463.5,-506.5 463.5,-487.5 595.5,-487.5 595.5,-506.5"/>
<text text-anchor="middle" x="529.5" y="-494.5" font-family="Helvetica,sans-Serif" font-size="10.00">Service::PresetManager</text>
</a>
</g>
</g>
<!-- Node14&#45;&gt;Node1 -->
<g id="edge20_Node000001_Node000014" class="edge">
<title>Node14&#45;&gt;Node1</title>
<g id="a_edge20_Node000001_Node000014"><a xlink:title=" ">
<path fill="none" stroke="#9a32cd" stroke-dasharray="5,2" d="M587.37,-508.3C718.64,-531.43 1049.59,-572.64 1286,-455 1366.42,-414.98 1440.4,-332.28 1464.39,-303.85"/>
<polygon fill="#9a32cd" stroke="#9a32cd" points="587.99,-504.86 577.52,-506.53 586.75,-511.75 587.99,-504.86"/>
</a>
</g>
<text text-anchor="middle" x="1049.5" y="-531" font-family="Helvetica,sans-Serif" font-size="10.00" fill="grey"> presetManager</text>
</g>
<!-- Node14&#45;&gt;Node13 -->
<g id="edge13_Node000013_Node000014" class="edge">
<title>Node14&#45;&gt;Node13</title>
<g id="a_edge13_Node000013_Node000014"><a xlink:title=" ">
<path fill="none" stroke="#9a32cd" stroke-dasharray="5,2" d="M605.98,-497.83C671.26,-498.54 764.79,-499.57 827.72,-500.26"/>
<polygon fill="#9a32cd" stroke="#9a32cd" points="605.79,-494.33 595.75,-497.72 605.72,-501.32 605.79,-494.33"/>
</a>
</g>
<text text-anchor="middle" x="713" y="-502" font-family="Helvetica,sans-Serif" font-size="10.00" fill="grey"> presetManager</text>
</g>
<!-- Node14&#45;&gt;Node20 -->
<g id="edge24_Node000020_Node000014" class="edge">
<title>Node14&#45;&gt;Node20</title>
<g id="a_edge24_Node000020_Node000014"><a xlink:title=" ">
<path fill="none" stroke="#9a32cd" stroke-dasharray="5,2" d="M598.57,-485.72C663.72,-474.53 757.08,-457.3 792,-445 825.07,-433.35 860.71,-412.79 880.35,-400.68"/>
<polygon fill="#9a32cd" stroke="#9a32cd" points="597.64,-482.33 588.37,-487.47 598.82,-489.23 597.64,-482.33"/>
</a>
</g>
<text text-anchor="middle" x="713" y="-481" font-family="Helvetica,sans-Serif" font-size="10.00" fill="grey"> presetManager</text>
</g>
<!-- Node15&#45;&gt;Node1 -->
<g id="edge14_Node000001_Node000015" class="edge">
<title>Node15&#45;&gt;Node1</title>
<g id="a_edge14_Node000001_Node000015"><a xlink:title=" ">
<path fill="none" stroke="#9a32cd" stroke-dasharray="5,2" d="M435.36,-621.02C506.75,-621.89 616.63,-623 712,-623 712,-623 712,-623 1202,-623 1283.08,-623 1319.03,-630.64 1378,-575 1460.92,-496.76 1471.1,-343.55 1472.33,-303.67"/>
<polygon fill="#9a32cd" stroke="#9a32cd" points="435.16,-617.52 425.12,-620.89 435.07,-624.52 435.16,-617.52"/>
</a>
</g>
<text text-anchor="middle" x="896.5" y="-626" font-family="Helvetica,sans-Serif" font-size="10.00" fill="grey"> footer</text>
</g>
<!-- Node16&#45;&gt;Node1 -->
<g id="edge16_Node000001_Node000016" class="edge">
<title>Node16&#45;&gt;Node1</title>
<g id="a_edge16_Node000001_Node000016"><a xlink:title=" ">
<path fill="none" stroke="#9a32cd" stroke-dasharray="5,2" d="M802.31,-579.21C972.36,-582.69 1332.59,-586 1378,-553 1463.57,-490.8 1471.82,-342.97 1472.48,-303.71"/>
<polygon fill="#9a32cd" stroke="#9a32cd" points="802.2,-575.71 792.13,-579 802.05,-582.71 802.2,-575.71"/>
</a>
</g>
<text text-anchor="middle" x="1049.5" y="-584" font-family="Helvetica,sans-Serif" font-size="10.00" fill="grey"> popup</text>
</g>
<!-- Node17 -->
<g id="Node000017" class="node">
<title>Node17</title>
<g id="a_Node000017"><a xlink:title=" ">
<polygon fill="white" stroke="#666666" points="1261.5,-78 1140.5,-78 1140.5,-48 1261.5,-48 1261.5,-78"/>
<text text-anchor="start" x="1148.5" y="-66" font-family="Helvetica,sans-Serif" font-size="10.00">std::unique_ptr&lt; juce</text>
<text text-anchor="middle" x="1201" y="-55" font-family="Helvetica,sans-Serif" font-size="10.00">::TooltipWindow &gt;</text>
</a>
</g>
</g>
<!-- Node17&#45;&gt;Node1 -->
<g id="edge18_Node000001_Node000017" class="edge">
<title>Node17&#45;&gt;Node1</title>
<g id="a_edge18_Node000001_Node000017"><a xlink:title=" ">
<path fill="none" stroke="#9a32cd" stroke-dasharray="5,2" d="M1271.82,-58.36C1306.79,-59.51 1347.96,-66.5 1378,-89 1445.76,-139.74 1466.45,-250.8 1471.26,-284.27"/>
<polygon fill="#9a32cd" stroke="#9a32cd" points="1271.72,-54.86 1261.66,-58.18 1271.6,-61.86 1271.72,-54.86"/>
</a>
</g>
<text text-anchor="middle" x="1341" y="-92" font-family="Helvetica,sans-Serif" font-size="10.00" fill="grey"> tooltipWindow</text>
</g>
<!-- Node18 -->
<g id="Node000018" class="node">
<title>Node18</title>
<g id="a_Node000018"><a xlink:title=" ">
<polygon fill="white" stroke="#666666" points="1286,-30 1116,-30 1116,0 1286,0 1286,-30"/>
<text text-anchor="start" x="1124" y="-18" font-family="Helvetica,sans-Serif" font-size="10.00">std::unique_ptr&lt; juce</text>
<text text-anchor="middle" x="1201" y="-7" font-family="Helvetica,sans-Serif" font-size="10.00">::ResizableCornerComponent &gt;</text>
</a>
</g>
</g>
<!-- Node18&#45;&gt;Node1 -->
<g id="edge19_Node000001_Node000018" class="edge">
<title>Node18&#45;&gt;Node1</title>
<g id="a_edge19_Node000001_Node000018"><a xlink:title=" ">
<path fill="none" stroke="#9a32cd" stroke-dasharray="5,2" d="M1296.48,-14.11C1325.3,-18.15 1355.32,-27.26 1378,-46 1456.14,-110.57 1469.77,-247.31 1472.06,-284.5"/>
<polygon fill="#9a32cd" stroke="#9a32cd" points="1296.7,-10.61 1286.35,-12.88 1295.86,-17.56 1296.7,-10.61"/>
</a>
</g>
<text text-anchor="middle" x="1341" y="-49" font-family="Helvetica,sans-Serif" font-size="10.00" fill="grey"> resizer</text>
</g>
<!-- Node19 -->
<g id="Node000019" class="node">
<title>Node19</title>
<g id="a_Node000019"><a xlink:title=" ">
<polygon fill="white" stroke="#666666" points="1276,-370 1126,-370 1126,-340 1276,-340 1276,-370"/>
<text text-anchor="start" x="1134" y="-358" font-family="Helvetica,sans-Serif" font-size="10.00">std::unique_ptr&lt; DirektDSP</text>
<text text-anchor="middle" x="1201" y="-347" font-family="Helvetica,sans-Serif" font-size="10.00">::DirektPresetBrowser &gt;</text>
</a>
</g>
</g>
<!-- Node19&#45;&gt;Node1 -->
<g id="edge21_Node000001_Node000019" class="edge">
<title>Node19&#45;&gt;Node1</title>
<g id="a_edge21_Node000001_Node000019"><a xlink:title=" ">
<path fill="none" stroke="#9a32cd" stroke-dasharray="5,2" d="M1278.49,-337.75C1327.7,-326.65 1389.79,-312.65 1430.29,-303.52"/>
<polygon fill="#9a32cd" stroke="#9a32cd" points="1277.5,-334.39 1268.52,-340 1279.04,-341.21 1277.5,-334.39"/>
</a>
</g>
<text text-anchor="middle" x="1341" y="-334" font-family="Helvetica,sans-Serif" font-size="10.00" fill="grey"> presetBrowser</text>
</g>
<!-- Node20&#45;&gt;Node19 -->
<g id="edge22_Node000019_Node000020" class="edge">
<title>Node20&#45;&gt;Node19</title>
<g id="a_edge22_Node000019_Node000020"><a xlink:title=" ">
<path fill="none" stroke="#9a32cd" stroke-dasharray="5,2" d="M987.52,-380.29C1031.65,-375.03 1084.15,-368.79 1125.92,-363.82"/>
<polygon fill="#9a32cd" stroke="#9a32cd" points="986.89,-376.84 977.37,-381.49 987.72,-383.79 986.89,-376.84"/>
</a>
</g>
<text text-anchor="middle" x="1049.5" y="-381" font-family="Helvetica,sans-Serif" font-size="10.00" fill="grey"> ptr</text>
</g>
<!-- Node21 -->
<g id="Node000021" class="node">
<title>Node21</title>
<g id="a_Node000021"><a xlink:href="classDirektDSP_1_1DirektPresetBrowser_1_1CategoryListModel.html" target="_top" xlink:title=" ">
<polygon fill="white" stroke="#666666" points="616,-383 443,-383 443,-353 616,-353 616,-383"/>
<text text-anchor="start" x="451" y="-371" font-family="Helvetica,sans-Serif" font-size="10.00">DirektDSP::DirektPresetBrowser</text>
<text text-anchor="middle" x="529.5" y="-360" font-family="Helvetica,sans-Serif" font-size="10.00">::CategoryListModel</text>
</a>
</g>
</g>
<!-- Node21&#45;&gt;Node20 -->
<g id="edge25_Node000020_Node000021" class="edge">
<title>Node21&#45;&gt;Node20</title>
<g id="a_edge25_Node000020_Node000021"><a xlink:title=" ">
<path fill="none" stroke="#9a32cd" stroke-dasharray="5,2" d="M626.12,-367.66C675.7,-368.22 737.2,-370.05 792,-375 808.48,-376.49 826.32,-378.94 842.47,-381.48"/>
<polygon fill="#9a32cd" stroke="#9a32cd" points="626.08,-364.16 616.04,-367.56 626.01,-371.16 626.08,-364.16"/>
</a>
</g>
<text text-anchor="middle" x="713" y="-378" font-family="Helvetica,sans-Serif" font-size="10.00" fill="grey"> categoryModel</text>
</g>
<!-- Node22 -->
<g id="Node000022" class="node">
<title>Node22</title>
<g id="a_Node000022"><a xlink:title=" ">
<polygon fill="white" stroke="#666666" points="259.5,-379.5 150.5,-379.5 150.5,-360.5 259.5,-360.5 259.5,-379.5"/>
<text text-anchor="middle" x="205" y="-367.5" font-family="Helvetica,sans-Serif" font-size="10.00">juce::ListBoxModel</text>
</a>
</g>
</g>
<!-- Node22&#45;&gt;Node21 -->
<g id="edge26_Node000021_Node000022" class="edge">
<title>Node22&#45;&gt;Node21</title>
<g id="a_edge26_Node000021_Node000022"><a xlink:title=" ">
<path fill="none" stroke="#63b8ff" d="M269.88,-369.6C319.41,-369.3 388.53,-368.87 442.86,-368.53"/>
<polygon fill="#63b8ff" stroke="#63b8ff" points="269.59,-366.11 259.62,-369.67 269.64,-373.11 269.59,-366.11"/>
</a>
</g>
</g>
<!-- Node23 -->
<g id="Node000023" class="node">
<title>Node23</title>
<g id="a_Node000023"><a xlink:href="classDirektDSP_1_1DirektPresetBrowser_1_1PresetListModel.html" target="_top" xlink:title=" ">
<polygon fill="white" stroke="#666666" points="616,-335 443,-335 443,-305 616,-305 616,-335"/>
<text text-anchor="start" x="451" y="-323" font-family="Helvetica,sans-Serif" font-size="10.00">DirektDSP::DirektPresetBrowser</text>
<text text-anchor="middle" x="529.5" y="-312" font-family="Helvetica,sans-Serif" font-size="10.00">::PresetListModel</text>
</a>
</g>
</g>
<!-- Node22&#45;&gt;Node23 -->
<g id="edge28_Node000023_Node000022" class="edge">
<title>Node22&#45;&gt;Node23</title>
<g id="a_edge28_Node000023_Node000022"><a xlink:title=" ">
<path fill="none" stroke="#63b8ff" d="M269.57,-360.14C319.12,-352.46 388.42,-341.72 442.86,-333.28"/>
<polygon fill="#63b8ff" stroke="#63b8ff" points="268.96,-356.7 259.62,-361.69 270.03,-363.61 268.96,-356.7"/>
</a>
</g>
</g>
<!-- Node23&#45;&gt;Node20 -->
<g id="edge27_Node000020_Node000023" class="edge">
<title>Node23&#45;&gt;Node20</title>
<g id="a_edge27_Node000020_Node000023"><a xlink:title=" ">
<path fill="none" stroke="#9a32cd" stroke-dasharray="5,2" d="M626.36,-326.22C676.27,-330.84 737.98,-338.72 792,-352 821.46,-359.24 853.98,-372.4 874.56,-381.41"/>
<polygon fill="#9a32cd" stroke="#9a32cd" points="626.5,-322.72 616.22,-325.31 625.87,-329.69 626.5,-322.72"/>
</a>
</g>
<text text-anchor="middle" x="713" y="-355" font-family="Helvetica,sans-Serif" font-size="10.00" fill="grey"> presetModel</text>
</g>
<!-- Node24 -->
<g id="Node000024" class="node">
<title>Node24</title>
<g id="a_Node000024"><a xlink:title=" ">
<polygon fill="#fff0f0" stroke="red" points="269.5,-340.5 140.5,-340.5 140.5,-299.5 269.5,-299.5 269.5,-340.5"/>
<text text-anchor="start" x="148.5" y="-328.5" font-family="Helvetica,sans-Serif" font-size="10.00">std::vector&lt; DirektDSP</text>
<text text-anchor="start" x="148.5" y="-317.5" font-family="Helvetica,sans-Serif" font-size="10.00">::DirektPresetBrowser</text>
<text text-anchor="middle" x="205" y="-306.5" font-family="Helvetica,sans-Serif" font-size="10.00">::PresetEntry &gt;</text>
</a>
</g>
</g>
<!-- Node24&#45;&gt;Node23 -->
<g id="edge29_Node000023_Node000024" class="edge">
<title>Node24&#45;&gt;Node23</title>
<g id="a_edge29_Node000023_Node000024"><a xlink:title=" ">
<path fill="none" stroke="#9a32cd" stroke-dasharray="5,2" d="M279.84,-320C328.41,-320 392.15,-320 442.93,-320"/>
<polygon fill="#9a32cd" stroke="#9a32cd" points="279.72,-316.5 269.72,-320 279.72,-323.5 279.72,-316.5"/>
</a>
</g>
<text text-anchor="middle" x="358.5" y="-323" font-family="Helvetica,sans-Serif" font-size="10.00" fill="grey"> presets</text>
</g>
<!-- Node26 -->
<g id="Node000026" class="node">
<title>Node26</title>
<g id="a_Node000026"><a xlink:title=" ">
<polygon fill="white" stroke="#666666" points="583,-431 476,-431 476,-401 583,-401 583,-431"/>
<text text-anchor="start" x="484" y="-419" font-family="Helvetica,sans-Serif" font-size="10.00">std::unordered_set</text>
<text text-anchor="middle" x="529.5" y="-408" font-family="Helvetica,sans-Serif" font-size="10.00">&lt; std::string &gt;</text>
</a>
</g>
</g>
<!-- Node26&#45;&gt;Node20 -->
<g id="edge30_Node000020_Node000026" class="edge">
<title>Node26&#45;&gt;Node20</title>
<g id="a_edge30_Node000020_Node000026"><a xlink:title=" ">
<path fill="none" stroke="#9a32cd" stroke-dasharray="5,2" d="M593.23,-411.7C652.94,-407.61 743.3,-401.42 809.67,-396.88"/>
<polygon fill="#9a32cd" stroke="#9a32cd" points="592.92,-408.22 583.18,-412.39 593.4,-415.2 592.92,-408.22"/>
</a>
</g>
<text text-anchor="middle" x="713" y="-411" font-family="Helvetica,sans-Serif" font-size="10.00" fill="grey"> favoritePresetKeys</text>
</g>
<!-- Node27 -->
<g id="Node000027" class="node">
<title>Node27</title>
<g id="a_Node000027"><a xlink:title=" ">
<polygon fill="#fff0f0" stroke="red" points="237.5,-425.5 172.5,-425.5 172.5,-406.5 237.5,-406.5 237.5,-425.5"/>
<text text-anchor="middle" x="205" y="-413.5" font-family="Helvetica,sans-Serif" font-size="10.00">std::string</text>
</a>
</g>
</g>
<!-- Node27&#45;&gt;Node26 -->
<g id="edge31_Node000026_Node000027" class="edge">
<title>Node27&#45;&gt;Node26</title>
<g id="a_edge31_Node000026_Node000027"><a xlink:title=" ">
<path fill="none" stroke="#9a32cd" stroke-dasharray="5,2" d="M247.84,-416C306.26,-416 412.23,-416 475.91,-416"/>
<polygon fill="#9a32cd" stroke="#9a32cd" points="247.51,-412.5 237.51,-416 247.51,-419.5 247.51,-412.5"/>
</a>
</g>
<text text-anchor="middle" x="358.5" y="-419" font-family="Helvetica,sans-Serif" font-size="10.00" fill="grey"> keys</text>
</g>
<!-- Node29&#45;&gt;Node1 -->
<g id="edge32_Node000001_Node000029" class="edge">
<title>Node29&#45;&gt;Node1</title>
<g id="a_edge32_Node000001_Node000029"><a xlink:title=" ">
<path fill="none" stroke="#9a32cd" stroke-dasharray="5,2" d="M966.77,-198.2C1062.48,-188.78 1239.06,-181.31 1378,-232 1411.36,-244.17 1444.79,-270.13 1461.51,-284.29"/>
<polygon fill="#9a32cd" stroke="#9a32cd" points="966.23,-194.74 956.64,-199.24 966.94,-201.7 966.23,-194.74"/>
</a>
</g>
<text text-anchor="middle" x="1201" y="-208" font-family="Helvetica,sans-Serif" font-size="10.00" fill="grey"> rootBuiltNode</text>
</g>
<!-- Node30&#45;&gt;Node1 -->
<g id="edge36_Node000001_Node000030" class="edge">
<title>Node30&#45;&gt;Node1</title>
<g id="a_edge36_Node000001_Node000030"><a xlink:title=" ">
<path fill="none" stroke="#9a32cd" stroke-dasharray="5,2" d="M1278.89,-158C1311.16,-159.74 1348.06,-165.86 1378,-182 1423.24,-206.38 1455.92,-262.02 1467.7,-284.41"/>
<polygon fill="#9a32cd" stroke="#9a32cd" points="1278.73,-154.49 1268.6,-157.58 1278.45,-161.49 1278.73,-154.49"/>
</a>
</g>
<text text-anchor="middle" x="1341" y="-185" font-family="Helvetica,sans-Serif" font-size="10.00" fill="grey"> buildContext</text>
</g>
<!-- Node31 -->
<g id="Node000031" class="node">
<title>Node31</title>
<g id="a_Node000031"><a xlink:title=" ">
<polygon fill="white" stroke="#666666" points="980,-176 813,-176 813,-146 980,-146 980,-176"/>
<text text-anchor="start" x="821" y="-164" font-family="Helvetica,sans-Serif" font-size="10.00">std::map&lt; juce::String,</text>
<text text-anchor="middle" x="896.5" y="-153" font-family="Helvetica,sans-Serif" font-size="10.00"> const std::atomic&lt; float &gt; * &gt;</text>
</a>
</g>
</g>
<!-- Node31&#45;&gt;Node30 -->
<g id="edge38_Node000030_Node000031" class="edge">
<title>Node31&#45;&gt;Node30</title>
<g id="a_edge38_Node000030_Node000031"><a xlink:title=" ">
<path fill="none" stroke="#9a32cd" stroke-dasharray="5,2" d="M990.18,-161C1036.38,-161 1091.2,-161 1133.22,-161"/>
<polygon fill="#9a32cd" stroke="#9a32cd" points="990.16,-157.5 980.16,-161 990.16,-164.5 990.16,-157.5"/>
</a>
</g>
<text text-anchor="middle" x="1049.5" y="-164" font-family="Helvetica,sans-Serif" font-size="10.00" fill="grey"> meterSources</text>
</g>
<!-- Node32 -->
<g id="Node000032" class="node">
<title>Node32</title>
<g id="a_Node000032"><a xlink:title=" ">
<polygon fill="white" stroke="#666666" points="587.5,-143.5 471.5,-143.5 471.5,-124.5 587.5,-124.5 587.5,-143.5"/>
<text text-anchor="middle" x="529.5" y="-131.5" font-family="Helvetica,sans-Serif" font-size="10.00">std::atomic&lt; float &gt;</text>
</a>
</g>
</g>
<!-- Node32&#45;&gt;Node31 -->
<g id="edge39_Node000031_Node000032" class="edge">
<title>Node32&#45;&gt;Node31</title>
<g id="a_edge39_Node000031_Node000032"><a xlink:title=" ">
<path fill="none" stroke="#9a32cd" stroke-dasharray="5,2" d="M597.76,-138.98C658.41,-143.46 747.79,-150.07 812.79,-154.88"/>
<polygon fill="#9a32cd" stroke="#9a32cd" points="597.76,-135.47 587.53,-138.22 597.25,-142.45 597.76,-135.47"/>
</a>
</g>
<text text-anchor="middle" x="713" y="-156" font-family="Helvetica,sans-Serif" font-size="10.00" fill="grey"> elements</text>
</g>
</g>
</svg>

<g id="navigator" transform="translate(0 0)" fill="#404254">
  <rect fill="#f2f5e9" fill-opacity="0.5" stroke="#606060" stroke-width=".5" x="0" y="0" width="60" height="60"/>
  <use id="zoomplus" xlink:href="#zoomPlus" x="17" y="9" onmousedown="handleZoom(evt,'in')"/>
  <use id="zoomminus" xlink:href="#zoomMin" x="42" y="9" onmousedown="handleZoom(evt,'out')"/>
  <use id="reset" xlink:href="#resetDef" x="30" y="36" onmousedown="handleReset()"/>
   <use id="arrowup" xlink:href="#arrowUp" x="0" y="0" onmousedown="handlePan(0,-1)"/>
  <use id="arrowright" xlink:href="#arrowRight" x="0" y="0" onmousedown="handlePan(1,0)"/>
  <use id="arrowdown" xlink:href="#arrowDown" x="0" y="0" onmousedown="handlePan(0,1)"/>
  <use id="arrowleft" xlink:href="#arrowLeft" x="0" y="0" onmousedown="handlePan(-1,0)"/>
</g>
<svg viewBox="0 0 15 15" width="100%" height="30px" preserveAspectRatio="xMaxYMin meet">
 <g id="arrow_out" transform="scale(0.3 0.3)">
  <a xlink:href="classDirektDSP_1_1DirektBaseEditor__coll__graph_org.svg" target="_base">
   <rect id="button" ry="5" rx="5" y="6" x="6" height="38" width="38"
        fill="#f2f5e9" fill-opacity="0.5" stroke="#606060" stroke-width="1.0"/>
   <path id="arrow"
     d="M 11.500037,31.436501 C 11.940474,20.09759 22.043105,11.32322 32.158766,21.979434 L 37.068811,17.246167 C 37.068811,17.246167 37.088388,32 37.088388,32 L 22.160133,31.978069 C 22.160133,31.978069 26.997745,27.140456 26.997745,27.140456 C 18.528582,18.264221 13.291696,25.230495 11.500037,31.436501 z"
     style="fill:#404040;"/>
  </a>
 </g>
</svg>

<style type='text/css'>
<![CDATA[
[data-mouse-over-selected='false'] { opacity: 0.7; }
[data-mouse-over-selected='true']  { opacity: 1.0; }
]]>
</style>
<script type="application/ecmascript"><![CDATA[
document.addEventListener('DOMContentLoaded', (event) => {
  highlightEdges();
  highlightAdjacentNodes();
});
]]></script>
</svg>
