<?xml version="1.0" encoding="UTF-8" standalone="no"?>
<!DOCTYPE svg PUBLIC "-//W3C//DTD SVG 1.1//EN"
 "http://www.w3.org/Graphics/SVG/1.1/DTD/svg11.dtd">
<!-- Generated by graphviz version 2.43.0 (0)
 -->
<!-- Title: DirektDSP::DirektABCompare Pages: 1 -->
<svg width="459pt" height="93pt"
 viewBox="0.00 0.00 459.00 93.00" xmlns="http://www.w3.org/2000/svg" xmlns:xlink="http://www.w3.org/1999/xlink">
<g id="graph0" class="graph" transform="scale(1 1) rotate(0) translate(4 89)">
<title>DirektDSP::DirektABCompare</title>
<!-- Node1 -->
<g id="Node000001" class="node">
<title>Node1</title>
<g id="a_Node000001"><a xlink:title="A/B compare control that stores two APVTS snapshots and lets the user switch between them.">
<polygon fill="#999999" stroke="#666666" points="269.5,-19 109.5,-19 109.5,0 269.5,0 269.5,-19"/>
<text text-anchor="middle" x="189.5" y="-7" font-family="Helvetica,sans-Serif" font-size="10.00">DirektDSP::DirektABCompare</text>
</a>
</g>
</g>
<!-- Node2 -->
<g id="Node000002" class="node">
<title>Node2</title>
<g id="a_Node000002"><a xlink:title=" ">
<polygon fill="white" stroke="#666666" points="99,-85 0,-85 0,-66 99,-66 99,-85"/>
<text text-anchor="middle" x="49.5" y="-73" font-family="Helvetica,sans-Serif" font-size="10.00">juce::Component</text>
</a>
</g>
</g>
<!-- Node2&#45;&gt;Node1 -->
<g id="edge1_Node000001_Node000002" class="edge">
<title>Node2&#45;&gt;Node1</title>
<g id="a_edge1_Node000001_Node000002"><a xlink:title=" ">
<path fill="none" stroke="#63b8ff" d="M77.51,-61.69C105.1,-49.08 146.5,-30.16 170.47,-19.2"/>
<polygon fill="#63b8ff" stroke="#63b8ff" points="76.02,-58.53 68.38,-65.87 78.93,-64.89 76.02,-58.53"/>
</a>
</g>
</g>
<!-- Node3 -->
<g id="Node000003" class="node">
<title>Node3</title>
<g id="a_Node000003"><a xlink:title=" ">
<polygon fill="white" stroke="#666666" points="261.5,-85 117.5,-85 117.5,-66 261.5,-66 261.5,-85"/>
<text text-anchor="middle" x="189.5" y="-73" font-family="Helvetica,sans-Serif" font-size="10.00">juce::SettableTooltipClient</text>
</a>
</g>
</g>
<!-- Node3&#45;&gt;Node1 -->
<g id="edge2_Node000001_Node000003" class="edge">
<title>Node3&#45;&gt;Node1</title>
<g id="a_edge2_Node000001_Node000003"><a xlink:title=" ">
<path fill="none" stroke="#63b8ff" d="M189.5,-55.58C189.5,-43.63 189.5,-28.72 189.5,-19.41"/>
<polygon fill="#63b8ff" stroke="#63b8ff" points="186,-55.87 189.5,-65.87 193,-55.87 186,-55.87"/>
</a>
</g>
</g>
<!-- Node4 -->
<g id="Node000004" class="node">
<title>Node4</title>
<g id="a_Node000004"><a xlink:title=" ">
<polygon fill="white" stroke="#666666" points="451,-85 280,-85 280,-66 451,-66 451,-85"/>
<text text-anchor="middle" x="365.5" y="-73" font-family="Helvetica,sans-Serif" font-size="10.00">std::array&lt; juce::ValueTree, 2 &gt;</text>
</a>
</g>
</g>
<!-- Node4&#45;&gt;Node1 -->
<g id="edge3_Node000001_Node000004" class="edge">
<title>Node4&#45;&gt;Node1</title>
<g id="a_edge3_Node000001_Node000004"><a xlink:title=" ">
<path fill="none" stroke="#9a32cd" stroke-dasharray="5,2" d="M332.06,-62.34C297.29,-49.7 243.75,-30.23 213.14,-19.1"/>
<polygon fill="#9a32cd" stroke="#9a32cd" points="331.17,-65.74 341.76,-65.87 333.56,-59.16 331.17,-65.74"/>
</a>
</g>
<text text-anchor="middle" x="315" y="-40" font-family="Helvetica,sans-Serif" font-size="10.00" fill="grey"> snapshots</text>
</g>
</g>
</svg>
