<?xml version="1.0" encoding="UTF-8" standalone="no"?>
<!DOCTYPE svg PUBLIC "-//W3C//DTD SVG 1.1//EN"
 "http://www.w3.org/Graphics/SVG/1.1/DTD/svg11.dtd">
<!-- Generated by graphviz version 2.43.0 (0)
 -->
<!-- Title: DirektDSP::DirektModuleBypassSoloStrip Pages: 1 -->
<!--zoomable 137 -->

<svg id="main" version="1.1" xmlns="http://www.w3.org/2000/svg" xmlns:xlink="http://www.w3.org/1999/xlink" xml:space="preserve" onload="init(evt)">
<style type="text/css"><![CDATA[
.node, .edge {opacity: 0.7;}
.node.selected, .edge.selected {opacity: 1;}
.edge:hover path { stroke: red; }
.edge:hover polygon { stroke: red; fill: red; }
]]></style>

<defs>
  <circle id="rim" cx="0" cy="0" r="7"/>
  <circle id="rim2" cx="0" cy="0" r="3.5"/>
  <g id="zoomPlus">
    <use xlink:href="#rim" fill="#404040"><set attributeName="fill" to="#808080" begin="zoomplus.mouseover" end="zoomplus.mouseout"/></use>
    <path d="M-4,0h8M0,-4v8" fill="none" stroke="white" stroke-width="1.5" pointer-events="none"/>
  </g>
  <g id="zoomMin">
    <use xlink:href="#rim" fill="#404040"><set attributeName="fill" to="#808080" begin="zoomminus.mouseover" end="zoomminus.mouseout"/></use>
    <path d="M-4,0h8" fill="none" stroke="white" stroke-width="1.5" pointer-events="none"/>
  </g>
  <g id="arrowUp" transform="translate(30 24)">
    <use xlink:href="#rim"/>
    <path pointer-events="none" fill="none" stroke="white" stroke-width="1.5" d="M0,-3.0v7 M-2.5,-0.5L0,-3.0L2.5,-0.5"/>
  </g>
  <g id="arrowRight" transform="rotate(90) translate(36 -43)">
    <use xlink:href="#rim"/>
    <path pointer-events="none" fill="none" stroke="white" stroke-width="1.5" d="M0,-3.0v7 M-2.5,-0.5L0,-3.0L2.5,-0.5"/>
  </g>
  <g id="arrowDown" transform="rotate(180) translate(-30 -48)">
    <use xlink:href="#rim"/>
    <path pointer-events="none" fill="none" stroke="white" stroke-width="1.5" d="M0,-3.0v7 M-2.5,-0.5L0,-3.0L2.5,-0.5"/>
  </g>
  <g id="arrowLeft" transform="rotate(270) translate(-36 17)">
    <use xlink:href="#rim"/>
    <path pointer-events="none" fill="none" stroke="white" stroke-width="1.5" d="M0,-3.0v7 M-2.5,-0.5L0,-3.0L2.5,-0.5"/>
  </g>
  <g id="resetDef">
    <use xlink:href="#rim2" fill="#404040"><set attributeName="fill" to="#808080" begin="reset.mouseover" end="reset.mouseout"/></use>
  </g>
</defs>
<script type="application/ecmascript">
var viewWidth = 1161;
var viewHeight = 137;
var sectionId = 'dynsection-1';
</script>
<script type="application/ecmascript" xlink:href="svg.min.js"/>
<svg id="graph" class="graph">
<g id="viewport">
<title>DirektDSP::DirektModuleBypassSoloStrip</title>
<!-- Node1 -->
<g id="Node000001" class="node">
<title>Node1</title>
<g id="a_Node000001"><a xlink:title="Compact bypass and solo toggles for a module section title bar.">
<polygon fill="#999999" stroke="#666666" points="1153,-114 980,-114 980,-84 1153,-84 1153,-114"/>
<text text-anchor="start" x="988" y="-102" font-family="Helvetica,sans-Serif" font-size="10.00">DirektDSP::DirektModuleBypass</text>
<text text-anchor="middle" x="1066.5" y="-91" font-family="Helvetica,sans-Serif" font-size="10.00">SoloStrip</text>
</a>
</g>
</g>
<!-- Node2 -->
<g id="Node000002" class="node">
<title>Node2</title>
<g id="a_Node000002"><a xlink:title=" ">
<polygon fill="white" stroke="#666666" points="134.5,-128.5 35.5,-128.5 35.5,-109.5 134.5,-109.5 134.5,-128.5"/>
<text text-anchor="middle" x="85" y="-116.5" font-family="Helvetica,sans-Serif" font-size="10.00">juce::Component</text>
</a>
</g>
</g>
<!-- Node2&#45;&gt;Node1 -->
<g id="edge1_Node000001_Node000002" class="edge">
<title>Node2&#45;&gt;Node1</title>
<g id="a_edge1_Node000001_Node000002"><a xlink:title=" ">
<path fill="none" stroke="#63b8ff" d="M144.93,-119.34C200.81,-119.63 287.12,-120 362,-120 362,-120 362,-120 812,-120 868.08,-120 930.91,-114.83 979.99,-109.62"/>
<polygon fill="#63b8ff" stroke="#63b8ff" points="144.88,-115.84 134.86,-119.28 144.84,-122.84 144.88,-115.84"/>
</a>
</g>
</g>
<!-- Node5 -->
<g id="Node000005" class="node">
<title>Node5</title>
<g id="a_Node000005"><a xlink:href="classDirektDSP_1_1DirektToggle.html" target="_top" xlink:title=" ">
<polygon fill="white" stroke="#666666" points="430,-79.5 296,-79.5 296,-60.5 430,-60.5 430,-79.5"/>
<text text-anchor="middle" x="363" y="-67.5" font-family="Helvetica,sans-Serif" font-size="10.00">DirektDSP::DirektToggle</text>
</a>
</g>
</g>
<!-- Node2&#45;&gt;Node5 -->
<g id="edge5_Node000005_Node000002" class="edge">
<title>Node2&#45;&gt;Node5</title>
<g id="a_edge5_Node000005_Node000002"><a xlink:title=" ">
<path fill="none" stroke="#63b8ff" d="M144.72,-108.58C193.09,-99.99 261.12,-87.91 308.12,-79.57"/>
<polygon fill="#63b8ff" stroke="#63b8ff" points="143.94,-105.16 134.71,-110.35 145.17,-112.05 143.94,-105.16"/>
</a>
</g>
</g>
<!-- Node3 -->
<g id="Node000003" class="node">
<title>Node3</title>
<g id="a_Node000003"><a xlink:title=" ">
<polygon fill="white" stroke="#666666" points="904,-92 718,-92 718,-62 904,-62 904,-92"/>
<text text-anchor="start" x="726" y="-80" font-family="Helvetica,sans-Serif" font-size="10.00">std::vector&lt; std::unique</text>
<text text-anchor="middle" x="811" y="-69" font-family="Helvetica,sans-Serif" font-size="10.00">_ptr&lt; DirektDSP::DirektToggle &gt; &gt;</text>
</a>
</g>
</g>
<!-- Node3&#45;&gt;Node1 -->
<g id="edge2_Node000001_Node000003" class="edge">
<title>Node3&#45;&gt;Node1</title>
<g id="a_edge2_Node000001_Node000003"><a xlink:title=" ">
<path fill="none" stroke="#9a32cd" stroke-dasharray="5,2" d="M914.43,-85.89C936.08,-87.77 958.7,-89.73 979.66,-91.55"/>
<polygon fill="#9a32cd" stroke="#9a32cd" points="914.5,-82.38 904.24,-85 913.9,-89.36 914.5,-82.38"/>
</a>
</g>
<text text-anchor="middle" x="942" y="-92" font-family="Helvetica,sans-Serif" font-size="10.00" fill="grey"> toggles</text>
</g>
<!-- Node4 -->
<g id="Node000004" class="node">
<title>Node4</title>
<g id="a_Node000004"><a xlink:title=" ">
<polygon fill="white" stroke="#666666" points="633,-90 483,-90 483,-60 633,-60 633,-90"/>
<text text-anchor="start" x="491" y="-78" font-family="Helvetica,sans-Serif" font-size="10.00">std::unique_ptr&lt; DirektDSP</text>
<text text-anchor="middle" x="558" y="-67" font-family="Helvetica,sans-Serif" font-size="10.00">::DirektToggle &gt;</text>
</a>
</g>
</g>
<!-- Node4&#45;&gt;Node3 -->
<g id="edge3_Node000003_Node000004" class="edge">
<title>Node4&#45;&gt;Node3</title>
<g id="a_edge3_Node000003_Node000004"><a xlink:title=" ">
<path fill="none" stroke="#9a32cd" stroke-dasharray="5,2" d="M643.37,-75.67C667.24,-75.86 693.34,-76.07 717.65,-76.26"/>
<polygon fill="#9a32cd" stroke="#9a32cd" points="643.32,-72.17 633.29,-75.59 643.26,-79.17 643.32,-72.17"/>
</a>
</g>
<text text-anchor="middle" x="675.5" y="-79" font-family="Helvetica,sans-Serif" font-size="10.00" fill="grey"> elements</text>
</g>
<!-- Node5&#45;&gt;Node4 -->
<g id="edge4_Node000004_Node000005" class="edge">
<title>Node5&#45;&gt;Node4</title>
<g id="a_edge4_Node000004_Node000005"><a xlink:title=" ">
<path fill="none" stroke="#9a32cd" stroke-dasharray="5,2" d="M440.27,-71.98C454.33,-72.34 469,-72.72 482.99,-73.08"/>
<polygon fill="#9a32cd" stroke="#9a32cd" points="440.24,-68.47 430.15,-71.71 440.06,-75.47 440.24,-68.47"/>
</a>
</g>
<text text-anchor="middle" x="456.5" y="-75" font-family="Helvetica,sans-Serif" font-size="10.00" fill="grey"> ptr</text>
</g>
<!-- Node6 -->
<g id="Node000006" class="node">
<title>Node6</title>
<g id="a_Node000006"><a xlink:title=" ">
<polygon fill="white" stroke="#666666" points="170,-89.5 0,-89.5 0,-48.5 170,-48.5 170,-89.5"/>
<text text-anchor="start" x="8" y="-77.5" font-family="Helvetica,sans-Serif" font-size="10.00">std::unique_ptr&lt; juce</text>
<text text-anchor="start" x="8" y="-66.5" font-family="Helvetica,sans-Serif" font-size="10.00">::AudioProcessorValueTreeState</text>
<text text-anchor="middle" x="85" y="-55.5" font-family="Helvetica,sans-Serif" font-size="10.00">::ButtonAttachment &gt;</text>
</a>
</g>
</g>
<!-- Node6&#45;&gt;Node5 -->
<g id="edge6_Node000005_Node000006" class="edge">
<title>Node6&#45;&gt;Node5</title>
<g id="a_edge6_Node000005_Node000006"><a xlink:title=" ">
<path fill="none" stroke="#9a32cd" stroke-dasharray="5,2" d="M180.35,-69.34C218.3,-69.48 261.15,-69.63 295.7,-69.76"/>
<polygon fill="#9a32cd" stroke="#9a32cd" points="180.32,-65.84 170.31,-69.31 180.3,-72.84 180.32,-65.84"/>
</a>
</g>
<text text-anchor="middle" x="233" y="-72" font-family="Helvetica,sans-Serif" font-size="10.00" fill="grey"> attachment</text>
</g>
<!-- Node7 -->
<g id="Node000007" class="node">
<title>Node7</title>
<g id="a_Node000007"><a xlink:href="classDirektDSP_1_1DirektParameterHistory.html" target="_top" xlink:title="Maintains undo/redo history for APVTS parameter edits.">
<polygon fill="#fff0f0" stroke="red" points="161,-30 9,-30 9,0 161,0 161,-30"/>
<text text-anchor="start" x="17" y="-18" font-family="Helvetica,sans-Serif" font-size="10.00">DirektDSP::DirektParameter</text>
<text text-anchor="middle" x="85" y="-7" font-family="Helvetica,sans-Serif" font-size="10.00">History</text>
</a>
</g>
</g>
<!-- Node7&#45;&gt;Node5 -->
<g id="edge7_Node000005_Node000007" class="edge">
<title>Node7&#45;&gt;Node5</title>
<g id="a_edge7_Node000005_Node000007"><a xlink:title=" ">
<path fill="none" stroke="#9a32cd" stroke-dasharray="5,2" d="M170.95,-31.93C218.08,-41.32 274.94,-52.65 314.31,-60.5"/>
<polygon fill="#9a32cd" stroke="#9a32cd" points="171.54,-28.48 161.05,-29.96 170.18,-35.34 171.54,-28.48"/>
</a>
</g>
<text text-anchor="middle" x="233" y="-55" font-family="Helvetica,sans-Serif" font-size="10.00" fill="grey"> parameterHistory</text>
</g>
</g>
</svg>

<g id="navigator" transform="translate(0 0)" fill="#404254">
  <rect fill="#f2f5e9" fill-opacity="0.5" stroke="#606060" stroke-width=".5" x="0" y="0" width="60" height="60"/>
  <use id="zoomplus" xlink:href="#zoomPlus" x="17" y="9" onmousedown="handleZoom(evt,'in')"/>
  <use id="zoomminus" xlink:href="#zoomMin" x="42" y="9" onmousedown="handleZoom(evt,'out')"/>
  <use id="reset" xlink:href="#resetDef" x="30" y="36" onmousedown="handleReset()"/>
   <use id="arrowup" xlink:href="#arrowUp" x="0" y="0" onmousedown="handlePan(0,-1)"/>
  <use id="arrowright" xlink:href="#arrowRight" x="0" y="0" onmousedown="handlePan(1,0)"/>
  <use id="arrowdown" xlink:href="#arrowDown" x="0" y="0" onmousedown="handlePan(0,1)"/>
  <use id="arrowleft" xlink:href="#arrowLeft" x="0" y="0" onmousedown="handlePan(-1,0)"/>
</g>
<svg viewBox="0 0 15 15" width="100%" height="30px" preserveAspectRatio="xMaxYMin meet">
 <g id="arrow_out" transform="scale(0.3 0.3)">
  <a xlink:href="classDirektDSP_1_1DirektModuleBypassSoloStrip__coll__graph_org.svg" target="_base">
   <rect id="button" ry="5" rx="5" y="6" x="6" height="38" width="38"
        fill="#f2f5e9" fill-opacity="0.5" stroke="#606060" stroke-width="1.0"/>
   <path id="arrow"
     d="M 11.500037,31.436501 C 11.940474,20.09759 22.043105,11.32322 32.158766,21.979434 L 37.068811,17.246167 C 37.068811,17.246167 37.088388,32 37.088388,32 L 22.160133,31.978069 C 22.160133,31.978069 26.997745,27.140456 26.997745,27.140456 C 18.528582,18.264221 13.291696,25.230495 11.500037,31.436501 z"
     style="fill:#404040;"/>
  </a>
 </g>
</svg>

<style type='text/css'>
<![CDATA[
[data-mouse-over-selected='false'] { opacity: 0.7; }
[data-mouse-over-selected='true']  { opacity: 1.0; }
]]>
</style>
<script type="application/ecmascript"><![CDATA[
document.addEventListener('DOMContentLoaded', (event) => {
  highlightEdges();
  highlightAdjacentNodes();
});
]]></script>
</svg>
