<?xml version="1.0" encoding="UTF-8" standalone="no"?>
<!DOCTYPE svg PUBLIC "-//W3C//DTD SVG 1.1//EN"
 "http://www.w3.org/Graphics/SVG/1.1/DTD/svg11.dtd">
<!-- Generated by graphviz version 2.43.0 (0)
 -->
<!-- Title: DirektDSP::DirektStereoMeter Pages: 1 -->
<svg width="490pt" height="181pt"
 viewBox="0.00 0.00 490.00 181.00" xmlns="http://www.w3.org/2000/svg" xmlns:xlink="http://www.w3.org/1999/xlink">

<svg id="main" version="1.1" xmlns="http://www.w3.org/2000/svg" xmlns:xlink="http://www.w3.org/1999/xlink" xml:space="preserve" onload="init(evt)">
<style type="text/css"><![CDATA[
.node, .edge {opacity: 0.7;}
.node.selected, .edge.selected {opacity: 1;}
.edge:hover path { stroke: red; }
.edge:hover polygon { stroke: red; fill: red; }
]]></style>
<script type="application/ecmascript" xlink:href="svg.min.js"/>
<svg id="graph" class="graph">
<g id="graph0" class="graph" transform="scale(1 1) rotate(0) translate(4 177)">
<title>DirektDSP::DirektStereoMeter</title>
<!-- Node1 -->
<g id="Node000001" class="node">
<title>Node1</title>
<g id="a_Node000001"><a xlink:title="A stereo meter pair (L + R) laid out side&#45;by&#45;side (vertical) or stacked top&#45;to&#45;bottom (horizontal ori...">
<polygon fill="#999999" stroke="#666666" points="162,-19 0,-19 0,0 162,0 162,-19"/>
<text text-anchor="middle" x="81" y="-7" font-family="Helvetica,sans-Serif" font-size="10.00">DirektDSP::DirektStereoMeter</text>
</a>
</g>
</g>
<!-- Node2 -->
<g id="Node000002" class="node">
<title>Node2</title>
<g id="a_Node000002"><a xlink:title=" ">
<polygon fill="white" stroke="#666666" points="109.5,-167.5 10.5,-167.5 10.5,-148.5 109.5,-148.5 109.5,-167.5"/>
<text text-anchor="middle" x="60" y="-155.5" font-family="Helvetica,sans-Serif" font-size="10.00">juce::Component</text>
</a>
</g>
</g>
<!-- Node2&#45;&gt;Node1 -->
<g id="edge1_Node000001_Node000002" class="edge">
<title>Node2&#45;&gt;Node1</title>
<g id="a_edge1_Node000001_Node000002"><a xlink:title=" ">
<path fill="none" stroke="#63b8ff" d="M62.72,-138.06C67.3,-106.1 76.39,-42.68 79.73,-19.37"/>
<polygon fill="#63b8ff" stroke="#63b8ff" points="59.21,-137.88 61.25,-148.27 66.13,-138.87 59.21,-137.88"/>
</a>
</g>
</g>
<!-- Node3 -->
<g id="Node000003" class="node">
<title>Node3</title>
<g id="a_Node000003"><a xlink:href="classDirektDSP_1_1DirektMeter.html" target="_top" xlink:title=" ">
<polygon fill="white" stroke="#666666" points="228.5,-96 97.5,-96 97.5,-77 228.5,-77 228.5,-96"/>
<text text-anchor="middle" x="163" y="-84" font-family="Helvetica,sans-Serif" font-size="10.00">DirektDSP::DirektMeter</text>
</a>
</g>
</g>
<!-- Node2&#45;&gt;Node3 -->
<g id="edge3_Node000003_Node000002" class="edge">
<title>Node2&#45;&gt;Node3</title>
<g id="a_edge3_Node000003_Node000002"><a xlink:title=" ">
<path fill="none" stroke="#63b8ff" d="M81.11,-142.76C101.9,-128.73 132.99,-107.75 150.27,-96.09"/>
<polygon fill="#63b8ff" stroke="#63b8ff" points="78.96,-139.98 72.63,-148.48 82.88,-145.79 78.96,-139.98"/>
</a>
</g>
</g>
<!-- Node3&#45;&gt;Node1 -->
<g id="edge2_Node000001_Node000003" class="edge">
<title>Node3&#45;&gt;Node1</title>
<g id="a_edge2_Node000001_Node000003"><a xlink:title=" ">
<path fill="none" stroke="#9a32cd" stroke-dasharray="5,2" d="M146.06,-70.01C129.17,-54.55 103.83,-31.38 90.3,-19"/>
<polygon fill="#9a32cd" stroke="#9a32cd" points="143.85,-72.73 153.59,-76.9 148.58,-67.56 143.85,-72.73"/>
</a>
</g>
<text text-anchor="middle" x="151" y="-51" font-family="Helvetica,sans-Serif" font-size="10.00" fill="grey"> meterL</text>
<text text-anchor="middle" x="151" y="-40" font-family="Helvetica,sans-Serif" font-size="10.00" fill="grey">meterR</text>
</g>
<!-- Node4 -->
<g id="Node000004" class="node">
<title>Node4</title>
<g id="a_Node000004"><a xlink:title=" ">
<polygon fill="white" stroke="#666666" points="198.5,-167.5 127.5,-167.5 127.5,-148.5 198.5,-148.5 198.5,-167.5"/>
<text text-anchor="middle" x="163" y="-155.5" font-family="Helvetica,sans-Serif" font-size="10.00">juce::Timer</text>
</a>
</g>
</g>
<!-- Node4&#45;&gt;Node3 -->
<g id="edge4_Node000003_Node000004" class="edge">
<title>Node4&#45;&gt;Node3</title>
<g id="a_edge4_Node000003_Node000004"><a xlink:title=" ">
<path fill="none" stroke="#8b1a1a" d="M163,-138.21C163,-124.5 163,-106.55 163,-96.09"/>
<polygon fill="#8b1a1a" stroke="#8b1a1a" points="159.5,-138.48 163,-148.48 166.5,-138.48 159.5,-138.48"/>
</a>
</g>
</g>
<!-- Node5 -->
<g id="Node000005" class="node">
<title>Node5</title>
<g id="a_Node000005"><a xlink:href="structDirektDSP_1_1DirektMeter_1_1Config.html" target="_top" xlink:title=" ">
<polygon fill="white" stroke="#666666" points="347.5,-173 216.5,-173 216.5,-143 347.5,-143 347.5,-173"/>
<text text-anchor="start" x="224.5" y="-161" font-family="Helvetica,sans-Serif" font-size="10.00">DirektDSP::DirektMeter</text>
<text text-anchor="middle" x="282" y="-150" font-family="Helvetica,sans-Serif" font-size="10.00">::Config</text>
</a>
</g>
</g>
<!-- Node5&#45;&gt;Node3 -->
<g id="edge5_Node000003_Node000005" class="edge">
<title>Node5&#45;&gt;Node3</title>
<g id="a_edge5_Node000003_Node000005"><a xlink:title=" ">
<path fill="none" stroke="#9a32cd" stroke-dasharray="5,2" d="M249.01,-137.73C225.62,-124.07 195.36,-106.4 177.67,-96.07"/>
<polygon fill="#9a32cd" stroke="#9a32cd" points="247.52,-140.91 257.92,-142.94 251.05,-134.87 247.52,-140.91"/>
</a>
</g>
<text text-anchor="middle" x="243.5" y="-117" font-family="Helvetica,sans-Serif" font-size="10.00" fill="grey"> config</text>
</g>
<!-- Node6 -->
<g id="Node000006" class="node">
<title>Node6</title>
<g id="a_Node000006"><a xlink:title=" ">
<polygon fill="white" stroke="#666666" points="482,-167.5 366,-167.5 366,-148.5 482,-148.5 482,-167.5"/>
<text text-anchor="middle" x="424" y="-155.5" font-family="Helvetica,sans-Serif" font-size="10.00">std::atomic&lt; float &gt;</text>
</a>
</g>
</g>
<!-- Node6&#45;&gt;Node3 -->
<g id="edge6_Node000003_Node000006" class="edge">
<title>Node6&#45;&gt;Node3</title>
<g id="a_edge6_Node000003_Node000006"><a xlink:title=" ">
<path fill="none" stroke="#9a32cd" stroke-dasharray="5,2" d="M382.46,-145.76C350.18,-137.05 304.26,-124.69 264,-114 241.22,-107.95 215.53,-101.21 195.76,-96.04"/>
<polygon fill="#9a32cd" stroke="#9a32cd" points="381.88,-149.23 392.44,-148.46 383.7,-142.47 381.88,-149.23"/>
</a>
</g>
<text text-anchor="middle" x="322" y="-117" font-family="Helvetica,sans-Serif" font-size="10.00" fill="grey"> source</text>
</g>
</g>
</svg>
</svg>

<style type='text/css'>
<![CDATA[
[data-mouse-over-selected='false'] { opacity: 0.7; }
[data-mouse-over-selected='true']  { opacity: 1.0; }
]]>
</style>
<script type="application/ecmascript"><![CDATA[
document.addEventListener('DOMContentLoaded', (event) => {
  highlightEdges();
  highlightAdjacentNodes();
});
]]></script>
</svg>
