<?xml version="1.0" encoding="UTF-8" standalone="no"?>
<!DOCTYPE svg PUBLIC "-//W3C//DTD SVG 1.1//EN"
 "http://www.w3.org/Graphics/SVG/1.1/DTD/svg11.dtd">
<!-- Generated by graphviz version 2.43.0 (0)
 -->
<!-- Title: DirektDSP::DirektBaseEditor Pages: 1 -->
<svg width="1683pt" height="805pt"
 viewBox="0.00 0.00 1683.00 804.50" xmlns="http://www.w3.org/2000/svg" xmlns:xlink="http://www.w3.org/1999/xlink">
<g id="graph0" class="graph" transform="scale(1 1) rotate(0) translate(4 800.5)">
<title>DirektDSP::DirektBaseEditor</title>
<!-- Node1 -->
<g id="Node000001" class="node">
<title>Node1</title>
<g id="a_Node000001"><a xlink:title=" ">
<polygon fill="#999999" stroke="#666666" points="1675,-379.5 1520,-379.5 1520,-360.5 1675,-360.5 1675,-379.5"/>
<text text-anchor="middle" x="1597.5" y="-367.5" font-family="Helvetica,sans-Serif" font-size="10.00">DirektDSP::DirektBaseEditor</text>
</a>
</g>
</g>
<!-- Node2 -->
<g id="Node000002" class="node">
<title>Node2</title>
<g id="a_Node000002"><a xlink:title=" ">
<polygon fill="white" stroke="#666666" points="1398,-796.5 1252,-796.5 1252,-777.5 1398,-777.5 1398,-796.5"/>
<text text-anchor="middle" x="1325" y="-784.5" font-family="Helvetica,sans-Serif" font-size="10.00">juce::AudioProcessorEditor</text>
</a>
</g>
</g>
<!-- Node2&#45;&gt;Node1 -->
<g id="edge1_Node000001_Node000002" class="edge">
<title>Node2&#45;&gt;Node1</title>
<g id="a_edge1_Node000001_Node000002"><a xlink:title=" ">
<path fill="none" stroke="#63b8ff" d="M1408.5,-789.94C1441.39,-786.83 1477.23,-777.42 1502,-754 1559.24,-699.87 1589.8,-434.18 1595.51,-379.75"/>
<polygon fill="#63b8ff" stroke="#63b8ff" points="1408.11,-786.46 1398.41,-790.71 1408.65,-793.44 1408.11,-786.46"/>
</a>
</g>
</g>
<!-- Node3 -->
<g id="Node000003" class="node">
<title>Node3</title>
<g id="a_Node000003"><a xlink:title=" ">
<polygon fill="white" stroke="#666666" points="1360.5,-759.5 1289.5,-759.5 1289.5,-740.5 1360.5,-740.5 1360.5,-759.5"/>
<text text-anchor="middle" x="1325" y="-747.5" font-family="Helvetica,sans-Serif" font-size="10.00">juce::Timer</text>
</a>
</g>
</g>
<!-- Node3&#45;&gt;Node1 -->
<g id="edge2_Node000001_Node000003" class="edge">
<title>Node3&#45;&gt;Node1</title>
<g id="a_edge2_Node000001_Node000003"><a xlink:title=" ">
<path fill="none" stroke="#8b1a1a" d="M1370.79,-756.59C1410.12,-759.73 1466.46,-757.39 1502,-726 1556.76,-677.64 1589.05,-431.99 1595.36,-379.77"/>
<polygon fill="#8b1a1a" stroke="#8b1a1a" points="1370.96,-753.09 1360.68,-755.64 1370.3,-760.06 1370.96,-753.09"/>
</a>
</g>
</g>
<!-- Node4 -->
<g id="Node000004" class="node">
<title>Node4</title>
<g id="a_Node000004"><a xlink:title=" ">
<polygon fill="white" stroke="#666666" points="1389.5,-385 1260.5,-385 1260.5,-355 1389.5,-355 1389.5,-385"/>
<text text-anchor="start" x="1268.5" y="-373" font-family="Helvetica,sans-Serif" font-size="10.00">std::vector&lt; DirektDSP</text>
<text text-anchor="middle" x="1325" y="-362" font-family="Helvetica,sans-Serif" font-size="10.00">::BuiltSection &gt;</text>
</a>
</g>
</g>
<!-- Node4&#45;&gt;Node1 -->
<g id="edge3_Node000001_Node000004" class="edge">
<title>Node4&#45;&gt;Node1</title>
<g id="a_edge3_Node000001_Node000004"><a xlink:title=" ">
<path fill="none" stroke="#9a32cd" stroke-dasharray="5,2" d="M1400.02,-370C1437.18,-370 1482.14,-370 1519.68,-370"/>
<polygon fill="#9a32cd" stroke="#9a32cd" points="1399.76,-366.5 1389.76,-370 1399.76,-373.5 1399.76,-366.5"/>
</a>
</g>
<text text-anchor="middle" x="1465" y="-373" font-family="Helvetica,sans-Serif" font-size="10.00" fill="grey"> builtSections</text>
</g>
<!-- Node5 -->
<g id="Node000005" class="node">
<title>Node5</title>
<g id="a_Node000005"><a xlink:href="structDirektDSP_1_1BuiltSection.html" target="_top" xlink:title=" ">
<polygon fill="white" stroke="#666666" points="1086,-379.5 955,-379.5 955,-360.5 1086,-360.5 1086,-379.5"/>
<text text-anchor="middle" x="1020.5" y="-367.5" font-family="Helvetica,sans-Serif" font-size="10.00">DirektDSP::BuiltSection</text>
</a>
</g>
</g>
<!-- Node5&#45;&gt;Node4 -->
<g id="edge4_Node000004_Node000005" class="edge">
<title>Node5&#45;&gt;Node4</title>
<g id="a_edge4_Node000004_Node000005"><a xlink:title=" ">
<path fill="none" stroke="#9a32cd" stroke-dasharray="5,2" d="M1096.21,-370C1146.62,-370 1212.44,-370 1260.36,-370"/>
<polygon fill="#9a32cd" stroke="#9a32cd" points="1096.02,-366.5 1086.02,-370 1096.02,-373.5 1096.02,-366.5"/>
</a>
</g>
<text text-anchor="middle" x="1173.5" y="-373" font-family="Helvetica,sans-Serif" font-size="10.00" fill="grey"> elements</text>
</g>
<!-- Node6 -->
<g id="Node000006" class="node">
<title>Node6</title>
<g id="a_Node000006"><a xlink:title=" ">
<polygon fill="white" stroke="#666666" points="728.5,-377 578.5,-377 578.5,-347 728.5,-347 728.5,-377"/>
<text text-anchor="start" x="586.5" y="-365" font-family="Helvetica,sans-Serif" font-size="10.00">std::unique_ptr&lt; DirektDSP</text>
<text text-anchor="middle" x="653.5" y="-354" font-family="Helvetica,sans-Serif" font-size="10.00">::DirektSection &gt;</text>
</a>
</g>
</g>
<!-- Node6&#45;&gt;Node5 -->
<g id="edge5_Node000005_Node000006" class="edge">
<title>Node6&#45;&gt;Node5</title>
<g id="a_edge5_Node000005_Node000006"><a xlink:title=" ">
<path fill="none" stroke="#9a32cd" stroke-dasharray="5,2" d="M739.14,-363.86C804.88,-365.3 894.69,-367.26 954.77,-368.58"/>
<polygon fill="#9a32cd" stroke="#9a32cd" points="738.88,-360.35 728.8,-363.63 738.72,-367.35 738.88,-360.35"/>
</a>
</g>
<text text-anchor="middle" x="837" y="-370" font-family="Helvetica,sans-Serif" font-size="10.00" fill="grey"> section</text>
</g>
<!-- Node7 -->
<g id="Node000007" class="node">
<title>Node7</title>
<g id="a_Node000007"><a xlink:href="classDirektDSP_1_1DirektSection.html" target="_top" xlink:title=" ">
<polygon fill="#fff0f0" stroke="red" points="391,-371.5 253,-371.5 253,-352.5 391,-352.5 391,-371.5"/>
<text text-anchor="middle" x="322" y="-359.5" font-family="Helvetica,sans-Serif" font-size="10.00">DirektDSP::DirektSection</text>
</a>
</g>
</g>
<!-- Node7&#45;&gt;Node6 -->
<g id="edge6_Node000006_Node000007" class="edge">
<title>Node7&#45;&gt;Node6</title>
<g id="a_edge6_Node000006_Node000007"><a xlink:title=" ">
<path fill="none" stroke="#9a32cd" stroke-dasharray="5,2" d="M401.42,-362C455.02,-362 525.61,-362 578.3,-362"/>
<polygon fill="#9a32cd" stroke="#9a32cd" points="401.27,-358.5 391.27,-362 401.27,-365.5 401.27,-358.5"/>
</a>
</g>
<text text-anchor="middle" x="482.5" y="-365" font-family="Helvetica,sans-Serif" font-size="10.00" fill="grey"> ptr</text>
</g>
<!-- Node8 -->
<g id="Node000008" class="node">
<title>Node8</title>
<g id="a_Node000008"><a xlink:title=" ">
<polygon fill="white" stroke="#666666" points="110,-597.5 11,-597.5 11,-578.5 110,-578.5 110,-597.5"/>
<text text-anchor="middle" x="60.5" y="-585.5" font-family="Helvetica,sans-Serif" font-size="10.00">juce::Component</text>
</a>
</g>
</g>
<!-- Node8&#45;&gt;Node7 -->
<g id="edge7_Node000007_Node000008" class="edge">
<title>Node8&#45;&gt;Node7</title>
<g id="a_edge7_Node000007_Node000008"><a xlink:title=" ">
<path fill="none" stroke="#63b8ff" d="M63.02,-568.11C67.23,-527.73 82.82,-436.15 139,-391 170.55,-365.64 215.36,-358.27 252.62,-357.29"/>
<polygon fill="#63b8ff" stroke="#63b8ff" points="59.51,-567.99 62.09,-578.27 66.48,-568.63 59.51,-567.99"/>
</a>
</g>
</g>
<!-- Node14 -->
<g id="Node000014" class="node">
<title>Node14</title>
<g id="a_Node000014"><a xlink:href="classDirektDSP_1_1DirektHeader.html" target="_top" xlink:title=" ">
<polygon fill="white" stroke="#666666" points="1089,-430.5 952,-430.5 952,-411.5 1089,-411.5 1089,-430.5"/>
<text text-anchor="middle" x="1020.5" y="-418.5" font-family="Helvetica,sans-Serif" font-size="10.00">DirektDSP::DirektHeader</text>
</a>
</g>
</g>
<!-- Node8&#45;&gt;Node14 -->
<g id="edge14_Node000014_Node000008" class="edge">
<title>Node8&#45;&gt;Node14</title>
<g id="a_edge14_Node000014_Node000008"><a xlink:title=" ">
<path fill="none" stroke="#63b8ff" d="M79.5,-571.4C110.68,-543.76 177.97,-488.99 246,-465 493.99,-377.54 814.31,-398 951.87,-412.56"/>
<polygon fill="#63b8ff" stroke="#63b8ff" points="76.78,-569.13 71.69,-578.43 81.46,-574.34 76.78,-569.13"/>
</a>
</g>
</g>
<!-- Node16 -->
<g id="Node000016" class="node">
<title>Node16</title>
<g id="a_Node000016"><a xlink:href="classDirektDSP_1_1DirektFooter.html" target="_top" xlink:title=" ">
<polygon fill="white" stroke="#666666" points="549,-682.5 416,-682.5 416,-663.5 549,-663.5 549,-682.5"/>
<text text-anchor="middle" x="482.5" y="-670.5" font-family="Helvetica,sans-Serif" font-size="10.00">DirektDSP::DirektFooter</text>
</a>
</g>
</g>
<!-- Node8&#45;&gt;Node16 -->
<g id="edge17_Node000016_Node000008" class="edge">
<title>Node8&#45;&gt;Node16</title>
<g id="a_edge17_Node000016_Node000008"><a xlink:title=" ">
<path fill="none" stroke="#63b8ff" d="M93.9,-601.39C130.26,-615.83 191.33,-638.3 246,-650 302.64,-662.12 368.33,-667.86 415.92,-670.58"/>
<polygon fill="#63b8ff" stroke="#63b8ff" points="94.91,-598.03 84.33,-597.55 92.3,-604.52 94.91,-598.03"/>
</a>
</g>
</g>
<!-- Node17 -->
<g id="Node000017" class="node">
<title>Node17</title>
<g id="a_Node000017"><a xlink:href="classDirektDSP_1_1DirektPopupPanel.html" target="_top" xlink:title=" ">
<polygon fill="white" stroke="#666666" points="916,-721.5 758,-721.5 758,-702.5 916,-702.5 916,-721.5"/>
<text text-anchor="middle" x="837" y="-709.5" font-family="Helvetica,sans-Serif" font-size="10.00">DirektDSP::DirektPopupPanel</text>
</a>
</g>
</g>
<!-- Node8&#45;&gt;Node17 -->
<g id="edge19_Node000017_Node000008" class="edge">
<title>Node8&#45;&gt;Node17</title>
<g id="a_edge19_Node000017_Node000008"><a xlink:title=" ">
<path fill="none" stroke="#63b8ff" d="M79.1,-604.41C94,-617.46 116.47,-635.26 139,-646 183.27,-667.1 197.74,-664.26 246,-673 427.06,-705.81 643.83,-711.79 757.53,-712.43"/>
<polygon fill="#63b8ff" stroke="#63b8ff" points="81.43,-601.8 71.65,-597.72 76.76,-607.01 81.43,-601.8"/>
</a>
</g>
</g>
<!-- Node21 -->
<g id="Node000021" class="node">
<title>Node21</title>
<g id="a_Node000021"><a xlink:href="classDirektDSP_1_1DirektPresetBrowser.html" target="_top" xlink:title=" ">
<polygon fill="white" stroke="#666666" points="1107,-557.5 934,-557.5 934,-538.5 1107,-538.5 1107,-557.5"/>
<text text-anchor="middle" x="1020.5" y="-545.5" font-family="Helvetica,sans-Serif" font-size="10.00">DirektDSP::DirektPresetBrowser</text>
</a>
</g>
</g>
<!-- Node8&#45;&gt;Node21 -->
<g id="edge25_Node000021_Node000008" class="edge">
<title>Node8&#45;&gt;Node21</title>
<g id="a_edge25_Node000021_Node000008"><a xlink:title=" ">
<path fill="none" stroke="#63b8ff" d="M120.27,-586.59C237.93,-583.71 510.78,-576.77 740,-569 818.24,-566.35 838.01,-568.81 916,-562 929.1,-560.86 943.08,-559.24 956.39,-557.5"/>
<polygon fill="#63b8ff" stroke="#63b8ff" points="119.96,-583.09 110.05,-586.84 120.13,-590.09 119.96,-583.09"/>
</a>
</g>
</g>
<!-- Node10 -->
<g id="Node000010" class="node">
<title>Node10</title>
<g id="a_Node000010"><a xlink:title=" ">
<polygon fill="white" stroke="#666666" points="121,-327 0,-327 0,-297 121,-297 121,-327"/>
<text text-anchor="start" x="8" y="-315" font-family="Helvetica,sans-Serif" font-size="10.00">std::unique_ptr&lt; juce</text>
<text text-anchor="middle" x="60.5" y="-304" font-family="Helvetica,sans-Serif" font-size="10.00">::Component &gt;</text>
</a>
</g>
</g>
<!-- Node10&#45;&gt;Node7 -->
<g id="edge8_Node000007_Node000010" class="edge">
<title>Node10&#45;&gt;Node7</title>
<g id="a_edge8_Node000007_Node000010"><a xlink:title=" ">
<path fill="none" stroke="#9a32cd" stroke-dasharray="5,2" d="M130.86,-325.36C175.14,-333.9 231.5,-344.76 271.33,-352.43"/>
<polygon fill="#9a32cd" stroke="#9a32cd" points="131.52,-321.93 121.03,-323.47 130.19,-328.8 131.52,-321.93"/>
</a>
</g>
<text text-anchor="middle" x="183.5" y="-345" font-family="Helvetica,sans-Serif" font-size="10.00" fill="grey"> titleBarAccessory</text>
</g>
<!-- Node11 -->
<g id="Node000011" class="node">
<title>Node11</title>
<g id="a_Node000011"><a xlink:title=" ">
<polygon fill="white" stroke="#666666" points="729.5,-327 577.5,-327 577.5,-297 729.5,-297 729.5,-327"/>
<text text-anchor="start" x="585.5" y="-315" font-family="Helvetica,sans-Serif" font-size="10.00">std::vector&lt; std::unique</text>
<text text-anchor="middle" x="653.5" y="-304" font-family="Helvetica,sans-Serif" font-size="10.00">_ptr&lt; juce::Component &gt; &gt;</text>
</a>
</g>
</g>
<!-- Node10&#45;&gt;Node11 -->
<g id="edge10_Node000011_Node000010" class="edge">
<title>Node10&#45;&gt;Node11</title>
<g id="a_edge10_Node000011_Node000010"><a xlink:title=" ">
<path fill="none" stroke="#9a32cd" stroke-dasharray="5,2" d="M131.31,-312C243.19,-312 461.77,-312 577.1,-312"/>
<polygon fill="#9a32cd" stroke="#9a32cd" points="131.15,-308.5 121.15,-312 131.15,-315.5 131.15,-308.5"/>
</a>
</g>
<text text-anchor="middle" x="322" y="-315" font-family="Helvetica,sans-Serif" font-size="10.00" fill="grey"> elements</text>
</g>
<!-- Node33 -->
<g id="Node000033" class="node">
<title>Node33</title>
<g id="a_Node000033"><a xlink:href="structDirektDSP_1_1BuiltNode.html" target="_top" xlink:title=" ">
<polygon fill="white" stroke="#666666" points="1080.5,-295.5 960.5,-295.5 960.5,-276.5 1080.5,-276.5 1080.5,-295.5"/>
<text text-anchor="middle" x="1020.5" y="-283.5" font-family="Helvetica,sans-Serif" font-size="10.00">DirektDSP::BuiltNode</text>
</a>
</g>
</g>
<!-- Node10&#45;&gt;Node33 -->
<g id="edge38_Node000033_Node000010" class="edge">
<title>Node10&#45;&gt;Node33</title>
<g id="a_edge38_Node000033_Node000010"><a xlink:title=" ">
<path fill="none" stroke="#9a32cd" stroke-dasharray="5,2" d="M131.31,-307.2C256.71,-298.83 528.42,-281.93 758,-276 828.2,-274.19 845.86,-272.62 916,-276 930.43,-276.7 945.94,-277.93 960.46,-279.31"/>
<polygon fill="#9a32cd" stroke="#9a32cd" points="130.83,-303.72 121.09,-307.88 131.3,-310.7 130.83,-303.72"/>
</a>
</g>
<text text-anchor="middle" x="482.5" y="-292" font-family="Helvetica,sans-Serif" font-size="10.00" fill="grey"> component</text>
</g>
<!-- Node11&#45;&gt;Node1 -->
<g id="edge40_Node000001_Node000011" class="edge">
<title>Node11&#45;&gt;Node1</title>
<g id="a_edge40_Node000001_Node000011"><a xlink:title=" ">
<path fill="none" stroke="#9a32cd" stroke-dasharray="5,2" d="M739.94,-313.54C880.1,-316.57 1167.54,-324.98 1410,-346 1450.98,-349.55 1496.8,-355.42 1532.77,-360.47"/>
<polygon fill="#9a32cd" stroke="#9a32cd" points="739.77,-310.03 729.7,-313.32 739.62,-317.03 739.77,-310.03"/>
</a>
</g>
<text text-anchor="middle" x="1173.5" y="-335" font-family="Helvetica,sans-Serif" font-size="10.00" fill="grey"> ownedComponents</text>
</g>
<!-- Node11&#45;&gt;Node5 -->
<g id="edge9_Node000005_Node000011" class="edge">
<title>Node11&#45;&gt;Node5</title>
<g id="a_edge9_Node000005_Node000011"><a xlink:title=" ">
<path fill="none" stroke="#9a32cd" stroke-dasharray="5,2" d="M739.68,-322.75C790.9,-329.53 857.33,-338.91 916,-349 935.61,-352.37 957.18,-356.66 975.54,-360.48"/>
<polygon fill="#9a32cd" stroke="#9a32cd" points="740.02,-319.26 729.64,-321.42 739.1,-326.2 740.02,-319.26"/>
</a>
</g>
<text text-anchor="middle" x="837" y="-352" font-family="Helvetica,sans-Serif" font-size="10.00" fill="grey"> controls</text>
</g>
<!-- Node11&#45;&gt;Node33 -->
<g id="edge39_Node000033_Node000011" class="edge">
<title>Node11&#45;&gt;Node33</title>
<g id="a_edge39_Node000033_Node000011"><a xlink:title=" ">
<path fill="none" stroke="#9a32cd" stroke-dasharray="5,2" d="M716.22,-294.61C729.87,-291.46 744.34,-288.65 758,-287 827.07,-278.64 907.16,-279.93 960.32,-282.31"/>
<polygon fill="#9a32cd" stroke="#9a32cd" points="715.36,-291.21 706.45,-296.95 716.99,-298.02 715.36,-291.21"/>
</a>
</g>
<text text-anchor="middle" x="837" y="-290" font-family="Helvetica,sans-Serif" font-size="10.00" fill="grey"> ownedChildren</text>
</g>
<!-- Node12 -->
<g id="Node000012" class="node">
<title>Node12</title>
<g id="a_Node000012"><a xlink:href="classDirektDSP_1_1DirektLookAndFeel.html" target="_top" xlink:title=" ">
<polygon fill="white" stroke="#666666" points="1102.5,-125.5 938.5,-125.5 938.5,-106.5 1102.5,-106.5 1102.5,-125.5"/>
<text text-anchor="middle" x="1020.5" y="-113.5" font-family="Helvetica,sans-Serif" font-size="10.00">DirektDSP::DirektLookAndFeel</text>
</a>
</g>
</g>
<!-- Node12&#45;&gt;Node1 -->
<g id="edge11_Node000001_Node000012" class="edge">
<title>Node12&#45;&gt;Node1</title>
<g id="a_edge11_Node000001_Node000012"><a xlink:title=" ">
<path fill="none" stroke="#9a32cd" stroke-dasharray="5,2" d="M1091.87,-105.25C1194.16,-93.78 1384.51,-88.63 1502,-185 1561.39,-233.72 1587.37,-329.44 1594.42,-360.22"/>
<polygon fill="#9a32cd" stroke="#9a32cd" points="1091.17,-101.81 1081.65,-106.45 1091.99,-108.76 1091.17,-101.81"/>
</a>
</g>
<text text-anchor="middle" x="1325" y="-135" font-family="Helvetica,sans-Serif" font-size="10.00" fill="grey"> lookAndFeel</text>
</g>
<!-- Node34 -->
<g id="Node000034" class="node">
<title>Node34</title>
<g id="a_Node000034"><a xlink:href="structDirektDSP_1_1BuildContext.html" target="_top" xlink:title=" ">
<polygon fill="white" stroke="#666666" points="1392.5,-197.5 1257.5,-197.5 1257.5,-178.5 1392.5,-178.5 1392.5,-197.5"/>
<text text-anchor="middle" x="1325" y="-185.5" font-family="Helvetica,sans-Serif" font-size="10.00">DirektDSP::BuildContext</text>
</a>
</g>
</g>
<!-- Node12&#45;&gt;Node34 -->
<g id="edge42_Node000034_Node000012" class="edge">
<title>Node12&#45;&gt;Node34</title>
<g id="a_edge42_Node000034_Node000012"><a xlink:title=" ">
<path fill="none" stroke="#9a32cd" stroke-dasharray="5,2" d="M1080.2,-127.53C1120.3,-135.66 1174.55,-147.18 1222,-159 1245.76,-164.92 1272.36,-172.51 1292.44,-178.45"/>
<polygon fill="#9a32cd" stroke="#9a32cd" points="1080.82,-124.08 1070.32,-125.54 1079.43,-130.95 1080.82,-124.08"/>
</a>
</g>
<text text-anchor="middle" x="1173.5" y="-162" font-family="Helvetica,sans-Serif" font-size="10.00" fill="grey"> lookAndFeel</text>
</g>
<!-- Node13 -->
<g id="Node000013" class="node">
<title>Node13</title>
<g id="a_Node000013"><a xlink:title=" ">
<polygon fill="white" stroke="#666666" points="715,-125.5 592,-125.5 592,-106.5 715,-106.5 715,-125.5"/>
<text text-anchor="middle" x="653.5" y="-113.5" font-family="Helvetica,sans-Serif" font-size="10.00">juce::LookAndFeel_V4</text>
</a>
</g>
</g>
<!-- Node13&#45;&gt;Node12 -->
<g id="edge12_Node000012_Node000013" class="edge">
<title>Node13&#45;&gt;Node12</title>
<g id="a_edge12_Node000012_Node000013"><a xlink:title=" ">
<path fill="none" stroke="#63b8ff" d="M725.5,-116C786.57,-116 874.66,-116 938.47,-116"/>
<polygon fill="#63b8ff" stroke="#63b8ff" points="725.18,-112.5 715.18,-116 725.18,-119.5 725.18,-112.5"/>
</a>
</g>
</g>
<!-- Node14&#45;&gt;Node1 -->
<g id="edge13_Node000001_Node000014" class="edge">
<title>Node14&#45;&gt;Node1</title>
<g id="a_edge13_Node000001_Node000014"><a xlink:title=" ">
<path fill="none" stroke="#9a32cd" stroke-dasharray="5,2" d="M1099.49,-417.69C1194.76,-413.06 1360.7,-403.11 1502,-385 1514.36,-383.42 1527.59,-381.47 1540.11,-379.52"/>
<polygon fill="#9a32cd" stroke="#9a32cd" points="1099.19,-414.2 1089.37,-418.17 1099.52,-421.19 1099.19,-414.2"/>
</a>
</g>
<text text-anchor="middle" x="1325" y="-412" font-family="Helvetica,sans-Serif" font-size="10.00" fill="grey"> header</text>
</g>
<!-- Node15 -->
<g id="Node000015" class="node">
<title>Node15</title>
<g id="a_Node000015"><a xlink:href="classService_1_1PresetManager.html" target="_top" xlink:title=" ">
<polygon fill="white" stroke="#666666" points="719.5,-463.5 587.5,-463.5 587.5,-444.5 719.5,-444.5 719.5,-463.5"/>
<text text-anchor="middle" x="653.5" y="-451.5" font-family="Helvetica,sans-Serif" font-size="10.00">Service::PresetManager</text>
</a>
</g>
</g>
<!-- Node15&#45;&gt;Node1 -->
<g id="edge22_Node000001_Node000015" class="edge">
<title>Node15&#45;&gt;Node1</title>
<g id="a_edge22_Node000001_Node000015"><a xlink:title=" ">
<path fill="none" stroke="#9a32cd" stroke-dasharray="5,2" d="M729.89,-455.91C866.32,-458.29 1162.92,-458.46 1410,-424 1469.59,-415.69 1536.75,-392.71 1571.96,-379.57"/>
<polygon fill="#9a32cd" stroke="#9a32cd" points="729.62,-452.41 719.56,-455.72 729.5,-459.41 729.62,-452.41"/>
</a>
</g>
<text text-anchor="middle" x="1173.5" y="-452" font-family="Helvetica,sans-Serif" font-size="10.00" fill="grey"> presetManager</text>
</g>
<!-- Node15&#45;&gt;Node14 -->
<g id="edge15_Node000014_Node000015" class="edge">
<title>Node15&#45;&gt;Node14</title>
<g id="a_edge15_Node000014_Node000015"><a xlink:title=" ">
<path fill="none" stroke="#9a32cd" stroke-dasharray="5,2" d="M724.93,-443.07C735.98,-441.56 747.29,-440.14 758,-439 823.73,-431.99 899.05,-427.14 951.92,-424.25"/>
<polygon fill="#9a32cd" stroke="#9a32cd" points="724.3,-439.62 714.88,-444.47 725.27,-446.56 724.3,-439.62"/>
</a>
</g>
<text text-anchor="middle" x="837" y="-442" font-family="Helvetica,sans-Serif" font-size="10.00" fill="grey"> presetManager</text>
</g>
<!-- Node15&#45;&gt;Node21 -->
<g id="edge26_Node000021_Node000015" class="edge">
<title>Node15&#45;&gt;Node21</title>
<g id="a_edge26_Node000021_Node000015"><a xlink:title=" ">
<path fill="none" stroke="#9a32cd" stroke-dasharray="5,2" d="M708.4,-465.66C724.33,-468.91 741.83,-472.29 758,-475 827.86,-486.72 848.3,-475.14 916,-496 949.25,-506.24 984.82,-526.39 1004.4,-538.38"/>
<polygon fill="#9a32cd" stroke="#9a32cd" points="708.69,-462.15 698.19,-463.55 707.28,-469 708.69,-462.15"/>
</a>
</g>
<text text-anchor="middle" x="837" y="-499" font-family="Helvetica,sans-Serif" font-size="10.00" fill="grey"> presetManager</text>
</g>
<!-- Node16&#45;&gt;Node1 -->
<g id="edge16_Node000001_Node000016" class="edge">
<title>Node16&#45;&gt;Node1</title>
<g id="a_edge16_Node000001_Node000016"><a xlink:title=" ">
<path fill="none" stroke="#9a32cd" stroke-dasharray="5,2" d="M559.43,-670.65C719.3,-664.22 1101.33,-640.93 1410,-560 1452.02,-548.98 1468.41,-554.54 1502,-527 1553.42,-484.85 1583.87,-406.88 1593.31,-379.67"/>
<polygon fill="#9a32cd" stroke="#9a32cd" points="559.08,-667.16 549.22,-671.05 559.35,-674.16 559.08,-667.16"/>
</a>
</g>
<text text-anchor="middle" x="1020.5" y="-645" font-family="Helvetica,sans-Serif" font-size="10.00" fill="grey"> footer</text>
</g>
<!-- Node17&#45;&gt;Node1 -->
<g id="edge18_Node000001_Node000017" class="edge">
<title>Node17&#45;&gt;Node1</title>
<g id="a_edge18_Node000001_Node000017"><a xlink:title=" ">
<path fill="none" stroke="#9a32cd" stroke-dasharray="5,2" d="M926.48,-714.31C1096.86,-717.94 1457.63,-721.39 1502,-687 1553.52,-647.07 1587.97,-428.71 1595.12,-379.74"/>
<polygon fill="#9a32cd" stroke="#9a32cd" points="926.36,-710.8 916.29,-714.08 926.21,-717.8 926.36,-710.8"/>
</a>
</g>
<text text-anchor="middle" x="1173.5" y="-719" font-family="Helvetica,sans-Serif" font-size="10.00" fill="grey"> popup</text>
</g>
<!-- Node18 -->
<g id="Node000018" class="node">
<title>Node18</title>
<g id="a_Node000018"><a xlink:title=" ">
<polygon fill="white" stroke="#666666" points="1385.5,-78 1264.5,-78 1264.5,-48 1385.5,-48 1385.5,-78"/>
<text text-anchor="start" x="1272.5" y="-66" font-family="Helvetica,sans-Serif" font-size="10.00">std::unique_ptr&lt; juce</text>
<text text-anchor="middle" x="1325" y="-55" font-family="Helvetica,sans-Serif" font-size="10.00">::TooltipWindow &gt;</text>
</a>
</g>
</g>
<!-- Node18&#45;&gt;Node1 -->
<g id="edge20_Node000001_Node000018" class="edge">
<title>Node18&#45;&gt;Node1</title>
<g id="a_edge20_Node000001_Node000018"><a xlink:title=" ">
<path fill="none" stroke="#9a32cd" stroke-dasharray="5,2" d="M1396.06,-57.03C1431.49,-57.74 1473,-64.74 1502,-89 1589.65,-162.31 1596.35,-319.79 1596.58,-360.33"/>
<polygon fill="#9a32cd" stroke="#9a32cd" points="1395.78,-53.53 1385.77,-57 1395.76,-60.53 1395.78,-53.53"/>
</a>
</g>
<text text-anchor="middle" x="1465" y="-92" font-family="Helvetica,sans-Serif" font-size="10.00" fill="grey"> tooltipWindow</text>
</g>
<!-- Node19 -->
<g id="Node000019" class="node">
<title>Node19</title>
<g id="a_Node000019"><a xlink:title=" ">
<polygon fill="white" stroke="#666666" points="1410,-30 1240,-30 1240,0 1410,0 1410,-30"/>
<text text-anchor="start" x="1248" y="-18" font-family="Helvetica,sans-Serif" font-size="10.00">std::unique_ptr&lt; juce</text>
<text text-anchor="middle" x="1325" y="-7" font-family="Helvetica,sans-Serif" font-size="10.00">::ResizableCornerComponent &gt;</text>
</a>
</g>
</g>
<!-- Node19&#45;&gt;Node1 -->
<g id="edge21_Node000001_Node000019" class="edge">
<title>Node19&#45;&gt;Node1</title>
<g id="a_edge21_Node000001_Node000019"><a xlink:title=" ">
<path fill="none" stroke="#9a32cd" stroke-dasharray="5,2" d="M1420.55,-12.33C1449.67,-16.08 1479.86,-25.25 1502,-45 1551.88,-89.49 1587.74,-311.57 1595.1,-360.47"/>
<polygon fill="#9a32cd" stroke="#9a32cd" points="1420.63,-8.82 1410.31,-11.22 1419.87,-15.78 1420.63,-8.82"/>
</a>
</g>
<text text-anchor="middle" x="1465" y="-48" font-family="Helvetica,sans-Serif" font-size="10.00" fill="grey"> resizer</text>
</g>
<!-- Node20 -->
<g id="Node000020" class="node">
<title>Node20</title>
<g id="a_Node000020"><a xlink:title=" ">
<polygon fill="white" stroke="#666666" points="1400,-551 1250,-551 1250,-521 1400,-521 1400,-551"/>
<text text-anchor="start" x="1258" y="-539" font-family="Helvetica,sans-Serif" font-size="10.00">std::unique_ptr&lt; DirektDSP</text>
<text text-anchor="middle" x="1325" y="-528" font-family="Helvetica,sans-Serif" font-size="10.00">::DirektPresetBrowser &gt;</text>
</a>
</g>
</g>
<!-- Node20&#45;&gt;Node1 -->
<g id="edge23_Node000001_Node000020" class="edge">
<title>Node20&#45;&gt;Node1</title>
<g id="a_edge23_Node000001_Node000020"><a xlink:title=" ">
<path fill="none" stroke="#9a32cd" stroke-dasharray="5,2" d="M1409.97,-518.19C1440.58,-509.23 1474.41,-496.28 1502,-478 1543.33,-450.62 1577.51,-400.55 1590.68,-379.61"/>
<polygon fill="#9a32cd" stroke="#9a32cd" points="1408.83,-514.87 1400.16,-520.96 1410.73,-521.61 1408.83,-514.87"/>
</a>
</g>
<text text-anchor="middle" x="1465" y="-515" font-family="Helvetica,sans-Serif" font-size="10.00" fill="grey"> presetBrowser</text>
</g>
<!-- Node21&#45;&gt;Node20 -->
<g id="edge24_Node000020_Node000021" class="edge">
<title>Node21&#45;&gt;Node20</title>
<g id="a_edge24_Node000020_Node000021"><a xlink:title=" ">
<path fill="none" stroke="#9a32cd" stroke-dasharray="5,2" d="M1117.54,-544.19C1160.38,-542.49 1210.08,-540.52 1249.98,-538.94"/>
<polygon fill="#9a32cd" stroke="#9a32cd" points="1117.23,-540.7 1107.38,-544.59 1117.51,-547.69 1117.23,-540.7"/>
</a>
</g>
<text text-anchor="middle" x="1173.5" y="-546" font-family="Helvetica,sans-Serif" font-size="10.00" fill="grey"> ptr</text>
</g>
<!-- Node22 -->
<g id="Node000022" class="node">
<title>Node22</title>
<g id="a_Node000022"><a xlink:href="classDirektDSP_1_1DirektPresetBrowser_1_1CategoryListModel.html" target="_top" xlink:title=" ">
<polygon fill="white" stroke="#666666" points="740,-560 567,-560 567,-530 740,-530 740,-560"/>
<text text-anchor="start" x="575" y="-548" font-family="Helvetica,sans-Serif" font-size="10.00">DirektDSP::DirektPresetBrowser</text>
<text text-anchor="middle" x="653.5" y="-537" font-family="Helvetica,sans-Serif" font-size="10.00">::CategoryListModel</text>
</a>
</g>
</g>
<!-- Node22&#45;&gt;Node21 -->
<g id="edge27_Node000021_Node000022" class="edge">
<title>Node22&#45;&gt;Node21</title>
<g id="a_edge27_Node000021_Node000022"><a xlink:title=" ">
<path fill="none" stroke="#9a32cd" stroke-dasharray="5,2" d="M750.17,-545.79C807.11,-546.25 878.75,-546.84 933.83,-547.3"/>
<polygon fill="#9a32cd" stroke="#9a32cd" points="750.1,-542.29 740.08,-545.7 750.05,-549.29 750.1,-542.29"/>
</a>
</g>
<text text-anchor="middle" x="837" y="-550" font-family="Helvetica,sans-Serif" font-size="10.00" fill="grey"> categoryModel</text>
</g>
<!-- Node23 -->
<g id="Node000023" class="node">
<title>Node23</title>
<g id="a_Node000023"><a xlink:title=" ">
<polygon fill="white" stroke="#666666" points="376.5,-553.5 267.5,-553.5 267.5,-534.5 376.5,-534.5 376.5,-553.5"/>
<text text-anchor="middle" x="322" y="-541.5" font-family="Helvetica,sans-Serif" font-size="10.00">juce::ListBoxModel</text>
</a>
</g>
</g>
<!-- Node23&#45;&gt;Node22 -->
<g id="edge28_Node000022_Node000023" class="edge">
<title>Node23&#45;&gt;Node22</title>
<g id="a_edge28_Node000022_Node000023"><a xlink:title=" ">
<path fill="none" stroke="#63b8ff" d="M386.96,-544.19C438.25,-544.35 510.71,-544.57 566.98,-544.74"/>
<polygon fill="#63b8ff" stroke="#63b8ff" points="386.68,-540.69 376.67,-544.16 386.66,-547.69 386.68,-540.69"/>
</a>
</g>
</g>
<!-- Node24 -->
<g id="Node000024" class="node">
<title>Node24</title>
<g id="a_Node000024"><a xlink:href="classDirektDSP_1_1DirektPresetBrowser_1_1PresetListModel.html" target="_top" xlink:title=" ">
<polygon fill="white" stroke="#666666" points="740,-512 567,-512 567,-482 740,-482 740,-512"/>
<text text-anchor="start" x="575" y="-500" font-family="Helvetica,sans-Serif" font-size="10.00">DirektDSP::DirektPresetBrowser</text>
<text text-anchor="middle" x="653.5" y="-489" font-family="Helvetica,sans-Serif" font-size="10.00">::PresetListModel</text>
</a>
</g>
</g>
<!-- Node23&#45;&gt;Node24 -->
<g id="edge30_Node000024_Node000023" class="edge">
<title>Node23&#45;&gt;Node24</title>
<g id="a_edge30_Node000024_Node000023"><a xlink:title=" ">
<path fill="none" stroke="#63b8ff" d="M386.64,-534.92C437.95,-527.6 510.59,-517.24 566.98,-509.2"/>
<polygon fill="#63b8ff" stroke="#63b8ff" points="386.08,-531.47 376.67,-536.34 387.07,-538.4 386.08,-531.47"/>
</a>
</g>
</g>
<!-- Node24&#45;&gt;Node21 -->
<g id="edge29_Node000021_Node000024" class="edge">
<title>Node24&#45;&gt;Node21</title>
<g id="a_edge29_Node000021_Node000024"><a xlink:title=" ">
<path fill="none" stroke="#9a32cd" stroke-dasharray="5,2" d="M750.29,-508.61C811.41,-516.12 884.81,-525.32 916,-530 932.77,-532.52 951.02,-535.58 967.45,-538.46"/>
<polygon fill="#9a32cd" stroke="#9a32cd" points="750.55,-505.12 740.2,-507.38 749.7,-512.07 750.55,-505.12"/>
</a>
</g>
<text text-anchor="middle" x="837" y="-533" font-family="Helvetica,sans-Serif" font-size="10.00" fill="grey"> presetModel</text>
</g>
<!-- Node25 -->
<g id="Node000025" class="node">
<title>Node25</title>
<g id="a_Node000025"><a xlink:title=" ">
<polygon fill="#fff0f0" stroke="red" points="386.5,-514.5 257.5,-514.5 257.5,-473.5 386.5,-473.5 386.5,-514.5"/>
<text text-anchor="start" x="265.5" y="-502.5" font-family="Helvetica,sans-Serif" font-size="10.00">std::vector&lt; DirektDSP</text>
<text text-anchor="start" x="265.5" y="-491.5" font-family="Helvetica,sans-Serif" font-size="10.00">::DirektPresetBrowser</text>
<text text-anchor="middle" x="322" y="-480.5" font-family="Helvetica,sans-Serif" font-size="10.00">::PresetEntry &gt;</text>
</a>
</g>
</g>
<!-- Node25&#45;&gt;Node24 -->
<g id="edge31_Node000024_Node000025" class="edge">
<title>Node25&#45;&gt;Node24</title>
<g id="a_edge31_Node000024_Node000025"><a xlink:title=" ">
<path fill="none" stroke="#9a32cd" stroke-dasharray="5,2" d="M396.88,-494.05C441.03,-494.15 498.22,-494.4 549,-495 554.84,-495.07 560.87,-495.15 566.94,-495.25"/>
<polygon fill="#9a32cd" stroke="#9a32cd" points="396.82,-490.55 386.81,-494.03 396.8,-497.55 396.82,-490.55"/>
</a>
</g>
<text text-anchor="middle" x="482.5" y="-498" font-family="Helvetica,sans-Serif" font-size="10.00" fill="grey"> presets</text>
</g>
<!-- Node27 -->
<g id="Node000027" class="node">
<title>Node27</title>
<g id="a_Node000027"><a xlink:title=" ">
<polygon fill="white" stroke="#666666" points="707,-646 600,-646 600,-616 707,-616 707,-646"/>
<text text-anchor="start" x="608" y="-634" font-family="Helvetica,sans-Serif" font-size="10.00">std::unordered_set</text>
<text text-anchor="middle" x="653.5" y="-623" font-family="Helvetica,sans-Serif" font-size="10.00">&lt; std::string &gt;</text>
</a>
</g>
</g>
<!-- Node27&#45;&gt;Node21 -->
<g id="edge32_Node000021_Node000027" class="edge">
<title>Node27&#45;&gt;Node21</title>
<g id="a_edge32_Node000021_Node000027"><a xlink:title=" ">
<path fill="none" stroke="#9a32cd" stroke-dasharray="5,2" d="M717.14,-631.36C770.98,-630.07 850.14,-624.33 916,-604 950.55,-593.33 986.8,-570.65 1005.89,-557.66"/>
<polygon fill="#9a32cd" stroke="#9a32cd" points="716.98,-627.86 707.05,-631.56 717.12,-634.86 716.98,-627.86"/>
</a>
</g>
<text text-anchor="middle" x="837" y="-632" font-family="Helvetica,sans-Serif" font-size="10.00" fill="grey"> favoritePresetKeys</text>
</g>
<!-- Node28 -->
<g id="Node000028" class="node">
<title>Node28</title>
<g id="a_Node000028"><a xlink:title=" ">
<polygon fill="#fff0f0" stroke="red" points="354.5,-640.5 289.5,-640.5 289.5,-621.5 354.5,-621.5 354.5,-640.5"/>
<text text-anchor="middle" x="322" y="-628.5" font-family="Helvetica,sans-Serif" font-size="10.00">std::string</text>
</a>
</g>
</g>
<!-- Node28&#45;&gt;Node27 -->
<g id="edge33_Node000027_Node000028" class="edge">
<title>Node28&#45;&gt;Node27</title>
<g id="a_edge33_Node000027_Node000028"><a xlink:title=" ">
<path fill="none" stroke="#9a32cd" stroke-dasharray="5,2" d="M364.8,-631C424.56,-631 534.42,-631 599.72,-631"/>
<polygon fill="#9a32cd" stroke="#9a32cd" points="364.59,-627.5 354.59,-631 364.59,-634.5 364.59,-627.5"/>
</a>
</g>
<text text-anchor="middle" x="482.5" y="-634" font-family="Helvetica,sans-Serif" font-size="10.00" fill="grey"> keys</text>
</g>
<!-- Node30 -->
<g id="Node000030" class="node">
<title>Node30</title>
<g id="a_Node000030"><a xlink:href="classDirektDSP_1_1DirektParameterHistory.html" target="_top" xlink:title="Maintains undo/redo history for APVTS parameter edits.">
<polygon fill="white" stroke="#666666" points="1096.5,-182 944.5,-182 944.5,-152 1096.5,-152 1096.5,-182"/>
<text text-anchor="start" x="952.5" y="-170" font-family="Helvetica,sans-Serif" font-size="10.00">DirektDSP::DirektParameter</text>
<text text-anchor="middle" x="1020.5" y="-159" font-family="Helvetica,sans-Serif" font-size="10.00">History</text>
</a>
</g>
</g>
<!-- Node30&#45;&gt;Node1 -->
<g id="edge34_Node000001_Node000030" class="edge">
<title>Node30&#45;&gt;Node1</title>
<g id="a_edge34_Node000001_Node000030"><a xlink:title=" ">
<path fill="none" stroke="#9a32cd" stroke-dasharray="5,2" d="M1101.23,-187.06C1103.22,-188.3 1105.15,-189.61 1107,-191 1119.13,-200.11 1112.26,-211.76 1125,-220 1232.31,-289.38 1285.54,-229.02 1410,-258 1452.02,-267.79 1464.49,-267.68 1502,-289 1537.51,-309.18 1572.09,-343.71 1587.77,-360.41"/>
<polygon fill="#9a32cd" stroke="#9a32cd" points="1102.6,-183.83 1092.15,-182.12 1099.25,-189.97 1102.6,-183.83"/>
</a>
</g>
<text text-anchor="middle" x="1325" y="-261" font-family="Helvetica,sans-Serif" font-size="10.00" fill="grey"> parameterHistory</text>
</g>
<!-- Node30&#45;&gt;Node34 -->
<g id="edge43_Node000034_Node000030" class="edge">
<title>Node30&#45;&gt;Node34</title>
<g id="a_edge43_Node000034_Node000030"><a xlink:title=" ">
<path fill="none" stroke="#9a32cd" stroke-dasharray="5,2" d="M1106.68,-172.91C1154.43,-176.23 1213.12,-180.3 1257.46,-183.38"/>
<polygon fill="#9a32cd" stroke="#9a32cd" points="1106.88,-169.42 1096.66,-172.22 1106.4,-176.4 1106.88,-169.42"/>
</a>
</g>
<text text-anchor="middle" x="1173.5" y="-183" font-family="Helvetica,sans-Serif" font-size="10.00" fill="grey"> parameterHistory</text>
</g>
<!-- Node31 -->
<g id="Node000031" class="node">
<title>Node31</title>
<g id="a_Node000031"><a xlink:title=" ">
<polygon fill="white" stroke="#666666" points="722.5,-187.5 584.5,-187.5 584.5,-146.5 722.5,-146.5 722.5,-187.5"/>
<text text-anchor="start" x="592.5" y="-175.5" font-family="Helvetica,sans-Serif" font-size="10.00">std::vector&lt; DirektDSP</text>
<text text-anchor="start" x="592.5" y="-164.5" font-family="Helvetica,sans-Serif" font-size="10.00">::DirektParameterHistory</text>
<text text-anchor="middle" x="653.5" y="-153.5" font-family="Helvetica,sans-Serif" font-size="10.00">::ParameterChange &gt;</text>
</a>
</g>
</g>
<!-- Node31&#45;&gt;Node30 -->
<g id="edge35_Node000030_Node000031" class="edge">
<title>Node31&#45;&gt;Node30</title>
<g id="a_edge35_Node000030_Node000031"><a xlink:title=" ">
<path fill="none" stroke="#9a32cd" stroke-dasharray="5,2" d="M732.94,-167C795.54,-167 882.67,-167 944.38,-167"/>
<polygon fill="#9a32cd" stroke="#9a32cd" points="732.73,-163.5 722.73,-167 732.73,-170.5 732.73,-163.5"/>
</a>
</g>
<text text-anchor="middle" x="837" y="-170" font-family="Helvetica,sans-Serif" font-size="10.00" fill="grey"> history</text>
</g>
<!-- Node32 -->
<g id="Node000032" class="node">
<title>Node32</title>
<g id="a_Node000032"><a xlink:href="structDirektDSP_1_1DirektParameterHistory_1_1ParameterChange.html" target="_top" xlink:title=" ">
<polygon fill="white" stroke="#666666" points="398,-182 246,-182 246,-152 398,-152 398,-182"/>
<text text-anchor="start" x="254" y="-170" font-family="Helvetica,sans-Serif" font-size="10.00">DirektDSP::DirektParameter</text>
<text text-anchor="middle" x="322" y="-159" font-family="Helvetica,sans-Serif" font-size="10.00">History::ParameterChange</text>
</a>
</g>
</g>
<!-- Node32&#45;&gt;Node31 -->
<g id="edge36_Node000031_Node000032" class="edge">
<title>Node32&#45;&gt;Node31</title>
<g id="a_edge36_Node000031_Node000032"><a xlink:title=" ">
<path fill="none" stroke="#9a32cd" stroke-dasharray="5,2" d="M408.23,-167C463.03,-167 533.28,-167 584.37,-167"/>
<polygon fill="#9a32cd" stroke="#9a32cd" points="408.18,-163.5 398.18,-167 408.18,-170.5 408.18,-163.5"/>
</a>
</g>
<text text-anchor="middle" x="482.5" y="-170" font-family="Helvetica,sans-Serif" font-size="10.00" fill="grey"> elements</text>
</g>
<!-- Node33&#45;&gt;Node1 -->
<g id="edge37_Node000001_Node000033" class="edge">
<title>Node33&#45;&gt;Node1</title>
<g id="a_edge37_Node000001_Node000033"><a xlink:title=" ">
<path fill="none" stroke="#9a32cd" stroke-dasharray="5,2" d="M1090.89,-278.38C1186.36,-270.43 1362.29,-265.01 1502,-313 1534.25,-324.08 1567.34,-347.31 1584.51,-360.44"/>
<polygon fill="#9a32cd" stroke="#9a32cd" points="1090.44,-274.9 1080.78,-279.25 1091.04,-281.87 1090.44,-274.9"/>
</a>
</g>
<text text-anchor="middle" x="1325" y="-291" font-family="Helvetica,sans-Serif" font-size="10.00" fill="grey"> rootBuiltNode</text>
</g>
<!-- Node34&#45;&gt;Node1 -->
<g id="edge41_Node000001_Node000034" class="edge">
<title>Node34&#45;&gt;Node1</title>
<g id="a_edge41_Node000001_Node000034"><a xlink:title=" ">
<path fill="none" stroke="#9a32cd" stroke-dasharray="5,2" d="M1402.74,-186.31C1435.65,-188.93 1473.09,-196.68 1502,-216 1556.77,-252.6 1585.27,-332.78 1593.75,-360.42"/>
<polygon fill="#9a32cd" stroke="#9a32cd" points="1402.89,-182.81 1392.68,-185.65 1402.43,-189.8 1402.89,-182.81"/>
</a>
</g>
<text text-anchor="middle" x="1465" y="-219" font-family="Helvetica,sans-Serif" font-size="10.00" fill="grey"> buildContext</text>
</g>
<!-- Node35 -->
<g id="Node000035" class="node">
<title>Node35</title>
<g id="a_Node000035"><a xlink:title=" ">
<polygon fill="white" stroke="#666666" points="1104,-230 937,-230 937,-200 1104,-200 1104,-230"/>
<text text-anchor="start" x="945" y="-218" font-family="Helvetica,sans-Serif" font-size="10.00">std::map&lt; juce::String,</text>
<text text-anchor="middle" x="1020.5" y="-207" font-family="Helvetica,sans-Serif" font-size="10.00"> const std::atomic&lt; float &gt; * &gt;</text>
</a>
</g>
</g>
<!-- Node35&#45;&gt;Node34 -->
<g id="edge44_Node000034_Node000035" class="edge">
<title>Node35&#45;&gt;Node34</title>
<g id="a_edge44_Node000034_Node000035"><a xlink:title=" ">
<path fill="none" stroke="#9a32cd" stroke-dasharray="5,2" d="M1114.18,-206.73C1160.38,-202.6 1215.2,-197.71 1257.22,-193.96"/>
<polygon fill="#9a32cd" stroke="#9a32cd" points="1113.81,-203.25 1104.16,-207.62 1114.43,-210.22 1113.81,-203.25"/>
</a>
</g>
<text text-anchor="middle" x="1173.5" y="-208" font-family="Helvetica,sans-Serif" font-size="10.00" fill="grey"> meterSources</text>
</g>
<!-- Node36 -->
<g id="Node000036" class="node">
<title>Node36</title>
<g id="a_Node000036"><a xlink:title=" ">
<polygon fill="white" stroke="#666666" points="711.5,-224.5 595.5,-224.5 595.5,-205.5 711.5,-205.5 711.5,-224.5"/>
<text text-anchor="middle" x="653.5" y="-212.5" font-family="Helvetica,sans-Serif" font-size="10.00">std::atomic&lt; float &gt;</text>
</a>
</g>
</g>
<!-- Node36&#45;&gt;Node35 -->
<g id="edge45_Node000035_Node000036" class="edge">
<title>Node36&#45;&gt;Node35</title>
<g id="a_edge45_Node000035_Node000036"><a xlink:title=" ">
<path fill="none" stroke="#9a32cd" stroke-dasharray="5,2" d="M721.76,-215C782.41,-215 871.79,-215 936.79,-215"/>
<polygon fill="#9a32cd" stroke="#9a32cd" points="721.53,-211.5 711.53,-215 721.53,-218.5 721.53,-211.5"/>
</a>
</g>
<text text-anchor="middle" x="837" y="-218" font-family="Helvetica,sans-Serif" font-size="10.00" fill="grey"> elements</text>
</g>
</g>
</svg>
