<?xml version="1.0" encoding="UTF-8" standalone="no"?>
<!DOCTYPE svg PUBLIC "-//W3C//DTD SVG 1.1//EN"
 "http://www.w3.org/Graphics/SVG/1.1/DTD/svg11.dtd">
<!-- Generated by graphviz version 2.43.0 (0)
 -->
<!-- Title: DirektDSP::DirektPresetBrowser Pages: 1 -->
<svg width="949pt" height="211pt"
 viewBox="0.00 0.00 949.00 210.50" xmlns="http://www.w3.org/2000/svg" xmlns:xlink="http://www.w3.org/1999/xlink">
<g id="graph0" class="graph" transform="scale(1 1) rotate(0) translate(4 206.5)">
<title>DirektDSP::DirektPresetBrowser</title>
<!-- Node1 -->
<g id="Node000001" class="node">
<title>Node1</title>
<g id="a_Node000001"><a xlink:title=" ">
<polygon fill="#999999" stroke="#666666" points="941,-122.5 768,-122.5 768,-103.5 941,-103.5 941,-122.5"/>
<text text-anchor="middle" x="854.5" y="-110.5" font-family="Helvetica,sans-Serif" font-size="10.00">DirektDSP::DirektPresetBrowser</text>
</a>
</g>
</g>
<!-- Node2 -->
<g id="Node000002" class="node">
<title>Node2</title>
<g id="a_Node000002"><a xlink:title=" ">
<polygon fill="white" stroke="#666666" points="599,-202.5 500,-202.5 500,-183.5 599,-183.5 599,-202.5"/>
<text text-anchor="middle" x="549.5" y="-190.5" font-family="Helvetica,sans-Serif" font-size="10.00">juce::Component</text>
</a>
</g>
</g>
<!-- Node2&#45;&gt;Node1 -->
<g id="edge1_Node000001_Node000002" class="edge">
<title>Node2&#45;&gt;Node1</title>
<g id="a_edge1_Node000001_Node000002"><a xlink:title=" ">
<path fill="none" stroke="#63b8ff" d="M609.04,-185.46C649.21,-179.48 703.46,-169.82 750,-156 780.22,-147.03 813.64,-132.19 834.11,-122.51"/>
<polygon fill="#63b8ff" stroke="#63b8ff" points="608.53,-181.99 599.14,-186.9 609.54,-188.92 608.53,-181.99"/>
</a>
</g>
</g>
<!-- Node3 -->
<g id="Node000003" class="node">
<title>Node3</title>
<g id="a_Node000003"><a xlink:href="classService_1_1PresetManager.html" target="_top" xlink:title=" ">
<polygon fill="white" stroke="#666666" points="615.5,-165.5 483.5,-165.5 483.5,-146.5 615.5,-146.5 615.5,-165.5"/>
<text text-anchor="middle" x="549.5" y="-153.5" font-family="Helvetica,sans-Serif" font-size="10.00">Service::PresetManager</text>
</a>
</g>
</g>
<!-- Node3&#45;&gt;Node1 -->
<g id="edge2_Node000001_Node000003" class="edge">
<title>Node3&#45;&gt;Node1</title>
<g id="a_edge2_Node000001_Node000003"><a xlink:title=" ">
<path fill="none" stroke="#9a32cd" stroke-dasharray="5,2" d="M625.95,-145.49C663.28,-140.27 709.01,-133.85 750,-128 762.31,-126.24 775.45,-124.35 788.08,-122.53"/>
<polygon fill="#9a32cd" stroke="#9a32cd" points="625.07,-142.08 615.65,-146.93 626.04,-149.01 625.07,-142.08"/>
</a>
</g>
<text text-anchor="middle" x="702" y="-144" font-family="Helvetica,sans-Serif" font-size="10.00" fill="grey"> presetManager</text>
</g>
<!-- Node4 -->
<g id="Node000004" class="node">
<title>Node4</title>
<g id="a_Node000004"><a xlink:href="classDirektDSP_1_1DirektPresetBrowser_1_1CategoryListModel.html" target="_top" xlink:title=" ">
<polygon fill="white" stroke="#666666" points="636,-128 463,-128 463,-98 636,-98 636,-128"/>
<text text-anchor="start" x="471" y="-116" font-family="Helvetica,sans-Serif" font-size="10.00">DirektDSP::DirektPresetBrowser</text>
<text text-anchor="middle" x="549.5" y="-105" font-family="Helvetica,sans-Serif" font-size="10.00">::CategoryListModel</text>
</a>
</g>
</g>
<!-- Node4&#45;&gt;Node1 -->
<g id="edge3_Node000001_Node000004" class="edge">
<title>Node4&#45;&gt;Node1</title>
<g id="a_edge3_Node000001_Node000004"><a xlink:title=" ">
<path fill="none" stroke="#9a32cd" stroke-dasharray="5,2" d="M646.41,-113C685.36,-113 730,-113 767.84,-113"/>
<polygon fill="#9a32cd" stroke="#9a32cd" points="646.11,-109.5 636.11,-113 646.11,-116.5 646.11,-109.5"/>
</a>
</g>
<text text-anchor="middle" x="702" y="-116" font-family="Helvetica,sans-Serif" font-size="10.00" fill="grey"> categoryModel</text>
</g>
<!-- Node5 -->
<g id="Node000005" class="node">
<title>Node5</title>
<g id="a_Node000005"><a xlink:title=" ">
<polygon fill="white" stroke="#666666" points="377,-121.5 268,-121.5 268,-102.5 377,-102.5 377,-121.5"/>
<text text-anchor="middle" x="322.5" y="-109.5" font-family="Helvetica,sans-Serif" font-size="10.00">juce::ListBoxModel</text>
</a>
</g>
</g>
<!-- Node5&#45;&gt;Node4 -->
<g id="edge4_Node000004_Node000005" class="edge">
<title>Node5&#45;&gt;Node4</title>
<g id="a_edge4_Node000004_Node000005"><a xlink:title=" ">
<path fill="none" stroke="#63b8ff" d="M387.27,-112.28C410.74,-112.39 437.7,-112.51 462.78,-112.62"/>
<polygon fill="#63b8ff" stroke="#63b8ff" points="387.12,-108.78 377.11,-112.24 387.09,-115.78 387.12,-108.78"/>
</a>
</g>
</g>
<!-- Node6 -->
<g id="Node000006" class="node">
<title>Node6</title>
<g id="a_Node000006"><a xlink:href="classDirektDSP_1_1DirektPresetBrowser_1_1PresetListModel.html" target="_top" xlink:title=" ">
<polygon fill="white" stroke="#666666" points="636,-80 463,-80 463,-50 636,-50 636,-80"/>
<text text-anchor="start" x="471" y="-68" font-family="Helvetica,sans-Serif" font-size="10.00">DirektDSP::DirektPresetBrowser</text>
<text text-anchor="middle" x="549.5" y="-57" font-family="Helvetica,sans-Serif" font-size="10.00">::PresetListModel</text>
</a>
</g>
</g>
<!-- Node5&#45;&gt;Node6 -->
<g id="edge6_Node000006_Node000005" class="edge">
<title>Node5&#45;&gt;Node6</title>
<g id="a_edge6_Node000006_Node000005"><a xlink:title=" ">
<path fill="none" stroke="#63b8ff" d="M379.12,-100.38C408.51,-94.24 444.93,-86.64 476.46,-80.05"/>
<polygon fill="#63b8ff" stroke="#63b8ff" points="378.11,-97.02 369.03,-102.49 379.54,-103.87 378.11,-97.02"/>
</a>
</g>
</g>
<!-- Node6&#45;&gt;Node1 -->
<g id="edge5_Node000001_Node000006" class="edge">
<title>Node6&#45;&gt;Node1</title>
<g id="a_edge5_Node000001_Node000006"><a xlink:title=" ">
<path fill="none" stroke="#9a32cd" stroke-dasharray="5,2" d="M646.23,-80.17C694.32,-87.78 751.11,-96.78 793.08,-103.43"/>
<polygon fill="#9a32cd" stroke="#9a32cd" points="646.54,-76.67 636.11,-78.56 645.44,-83.58 646.54,-76.67"/>
</a>
</g>
<text text-anchor="middle" x="702" y="-99" font-family="Helvetica,sans-Serif" font-size="10.00" fill="grey"> presetModel</text>
</g>
<!-- Node7 -->
<g id="Node000007" class="node">
<title>Node7</title>
<g id="a_Node000007"><a xlink:title=" ">
<polygon fill="white" stroke="#666666" points="387,-83.5 258,-83.5 258,-42.5 387,-42.5 387,-83.5"/>
<text text-anchor="start" x="266" y="-71.5" font-family="Helvetica,sans-Serif" font-size="10.00">std::vector&lt; DirektDSP</text>
<text text-anchor="start" x="266" y="-60.5" font-family="Helvetica,sans-Serif" font-size="10.00">::DirektPresetBrowser</text>
<text text-anchor="middle" x="322.5" y="-49.5" font-family="Helvetica,sans-Serif" font-size="10.00">::PresetEntry &gt;</text>
</a>
</g>
</g>
<!-- Node7&#45;&gt;Node6 -->
<g id="edge7_Node000006_Node000007" class="edge">
<title>Node7&#45;&gt;Node6</title>
<g id="a_edge7_Node000006_Node000007"><a xlink:title=" ">
<path fill="none" stroke="#9a32cd" stroke-dasharray="5,2" d="M397.39,-62.77C413.1,-62.79 429.6,-62.85 445,-63 450.84,-63.06 456.87,-63.13 462.94,-63.22"/>
<polygon fill="#9a32cd" stroke="#9a32cd" points="397.19,-59.27 387.19,-62.77 397.19,-66.27 397.19,-59.27"/>
</a>
</g>
<text text-anchor="middle" x="425" y="-66" font-family="Helvetica,sans-Serif" font-size="10.00" fill="grey"> presets</text>
</g>
<!-- Node8 -->
<g id="Node000008" class="node">
<title>Node8</title>
<g id="a_Node000008"><a xlink:href="structDirektDSP_1_1DirektPresetBrowser_1_1PresetEntry.html" target="_top" xlink:title=" ">
<polygon fill="white" stroke="#666666" points="173,-78 0,-78 0,-48 173,-48 173,-78"/>
<text text-anchor="start" x="8" y="-66" font-family="Helvetica,sans-Serif" font-size="10.00">DirektDSP::DirektPresetBrowser</text>
<text text-anchor="middle" x="86.5" y="-55" font-family="Helvetica,sans-Serif" font-size="10.00">::PresetEntry</text>
</a>
</g>
</g>
<!-- Node8&#45;&gt;Node7 -->
<g id="edge8_Node000007_Node000008" class="edge">
<title>Node8&#45;&gt;Node7</title>
<g id="a_edge8_Node000007_Node000008"><a xlink:title=" ">
<path fill="none" stroke="#9a32cd" stroke-dasharray="5,2" d="M183.54,-63C208.53,-63 234.84,-63 257.7,-63"/>
<polygon fill="#9a32cd" stroke="#9a32cd" points="183.3,-59.5 173.3,-63 183.3,-66.5 183.3,-59.5"/>
</a>
</g>
<text text-anchor="middle" x="215.5" y="-66" font-family="Helvetica,sans-Serif" font-size="10.00" fill="grey"> elements</text>
</g>
<!-- Node9 -->
<g id="Node000009" class="node">
<title>Node9</title>
<g id="a_Node000009"><a xlink:title=" ">
<polygon fill="white" stroke="#666666" points="603,-32 496,-32 496,-2 603,-2 603,-32"/>
<text text-anchor="start" x="504" y="-20" font-family="Helvetica,sans-Serif" font-size="10.00">std::unordered_set</text>
<text text-anchor="middle" x="549.5" y="-9" font-family="Helvetica,sans-Serif" font-size="10.00">&lt; std::string &gt;</text>
</a>
</g>
</g>
<!-- Node9&#45;&gt;Node1 -->
<g id="edge9_Node000001_Node000009" class="edge">
<title>Node9&#45;&gt;Node1</title>
<g id="a_edge9_Node000001_Node000009"><a xlink:title=" ">
<path fill="none" stroke="#9a32cd" stroke-dasharray="5,2" d="M613.18,-29.27C652.92,-37.81 705.11,-50.45 750,-66 780.77,-76.66 814.87,-93.1 835.23,-103.45"/>
<polygon fill="#9a32cd" stroke="#9a32cd" points="613.87,-25.84 603.36,-27.19 612.41,-32.68 613.87,-25.84"/>
</a>
</g>
<text text-anchor="middle" x="702" y="-69" font-family="Helvetica,sans-Serif" font-size="10.00" fill="grey"> favoritePresetKeys</text>
</g>
<!-- Node10 -->
<g id="Node000010" class="node">
<title>Node10</title>
<g id="a_Node000010"><a xlink:title=" ">
<polygon fill="white" stroke="#666666" points="355,-24.5 290,-24.5 290,-5.5 355,-5.5 355,-24.5"/>
<text text-anchor="middle" x="322.5" y="-12.5" font-family="Helvetica,sans-Serif" font-size="10.00">std::string</text>
</a>
</g>
</g>
<!-- Node10&#45;&gt;Node9 -->
<g id="edge10_Node000009_Node000010" class="edge">
<title>Node10&#45;&gt;Node9</title>
<g id="a_edge10_Node000009_Node000010"><a xlink:title=" ">
<path fill="none" stroke="#9a32cd" stroke-dasharray="5,2" d="M365.64,-15.37C402.44,-15.7 456.01,-16.18 495.67,-16.53"/>
<polygon fill="#9a32cd" stroke="#9a32cd" points="365.29,-11.87 355.26,-15.28 365.23,-18.87 365.29,-11.87"/>
</a>
</g>
<text text-anchor="middle" x="425" y="-20" font-family="Helvetica,sans-Serif" font-size="10.00" fill="grey"> keys</text>
</g>
<!-- Node11 -->
<g id="Node000011" class="node">
<title>Node11</title>
<g id="a_Node000011"><a xlink:title=" ">
<polygon fill="white" stroke="#666666" points="138.5,-30 34.5,-30 34.5,0 138.5,0 138.5,-30"/>
<text text-anchor="start" x="42.5" y="-18" font-family="Helvetica,sans-Serif" font-size="10.00">std::basic_string&lt;</text>
<text text-anchor="middle" x="86.5" y="-7" font-family="Helvetica,sans-Serif" font-size="10.00"> Char &gt;</text>
</a>
</g>
</g>
<!-- Node11&#45;&gt;Node10 -->
<g id="edge11_Node000010_Node000011" class="edge">
<title>Node11&#45;&gt;Node10</title>
<g id="a_edge11_Node000010_Node000011"><a xlink:title=" ">
<path fill="none" stroke="#63b8ff" d="M148.58,-15C193.89,-15 253.84,-15 289.94,-15"/>
<polygon fill="#63b8ff" stroke="#63b8ff" points="148.56,-11.5 138.56,-15 148.56,-18.5 148.56,-11.5"/>
</a>
</g>
</g>
</g>
</svg>
