<?xml version="1.0" encoding="UTF-8" standalone="no"?>
<!DOCTYPE svg PUBLIC "-//W3C//DTD SVG 1.1//EN"
 "http://www.w3.org/Graphics/SVG/1.1/DTD/svg11.dtd">
<!-- Generated by graphviz version 2.43.0 (0)
 -->
<!-- Title: DirektDSP::DirektPresetBrowser Pages: 1 -->
<svg width="949pt" height="198pt"
 viewBox="0.00 0.00 949.00 198.00" xmlns="http://www.w3.org/2000/svg" xmlns:xlink="http://www.w3.org/1999/xlink">
<g id="graph0" class="graph" transform="scale(1 1) rotate(0) translate(4 194)">
<title>DirektDSP::DirektPresetBrowser</title>
<!-- Node1 -->
<g id="Node000001" class="node">
<title>Node1</title>
<g id="a_Node000001"><a xlink:title=" ">
<polygon fill="#999999" stroke="#666666" points="941,-110 768,-110 768,-91 941,-91 941,-110"/>
<text text-anchor="middle" x="854.5" y="-98" font-family="Helvetica,sans-Serif" font-size="10.00">DirektDSP::DirektPresetBrowser</text>
</a>
</g>
</g>
<!-- Node2 -->
<g id="Node000002" class="node">
<title>Node2</title>
<g id="a_Node000002"><a xlink:title=" ">
<polygon fill="white" stroke="#666666" points="599,-190 500,-190 500,-171 599,-171 599,-190"/>
<text text-anchor="middle" x="549.5" y="-178" font-family="Helvetica,sans-Serif" font-size="10.00">juce::Component</text>
</a>
</g>
</g>
<!-- Node2&#45;&gt;Node1 -->
<g id="edge1_Node000001_Node000002" class="edge">
<title>Node2&#45;&gt;Node1</title>
<g id="a_edge1_Node000001_Node000002"><a xlink:title=" ">
<path fill="none" stroke="#63b8ff" d="M609.04,-172.96C649.21,-166.98 703.46,-157.32 750,-143.5 780.22,-134.53 813.64,-119.69 834.11,-110.01"/>
<polygon fill="#63b8ff" stroke="#63b8ff" points="608.53,-169.49 599.14,-174.4 609.54,-176.42 608.53,-169.49"/>
</a>
</g>
</g>
<!-- Node3 -->
<g id="Node000003" class="node">
<title>Node3</title>
<g id="a_Node000003"><a xlink:href="classService_1_1PresetManager.html" target="_top" xlink:title=" ">
<polygon fill="white" stroke="#666666" points="615.5,-153 483.5,-153 483.5,-134 615.5,-134 615.5,-153"/>
<text text-anchor="middle" x="549.5" y="-141" font-family="Helvetica,sans-Serif" font-size="10.00">Service::PresetManager</text>
</a>
</g>
</g>
<!-- Node3&#45;&gt;Node1 -->
<g id="edge2_Node000001_Node000003" class="edge">
<title>Node3&#45;&gt;Node1</title>
<g id="a_edge2_Node000001_Node000003"><a xlink:title=" ">
<path fill="none" stroke="#9a32cd" stroke-dasharray="5,2" d="M625.95,-132.99C663.28,-127.77 709.01,-121.35 750,-115.5 762.31,-113.74 775.45,-111.85 788.08,-110.03"/>
<polygon fill="#9a32cd" stroke="#9a32cd" points="625.07,-129.58 615.65,-134.43 626.04,-136.51 625.07,-129.58"/>
</a>
</g>
<text text-anchor="middle" x="702" y="-131.5" font-family="Helvetica,sans-Serif" font-size="10.00" fill="grey"> presetManager</text>
</g>
<!-- Node4 -->
<g id="Node000004" class="node">
<title>Node4</title>
<g id="a_Node000004"><a xlink:href="classDirektDSP_1_1DirektPresetBrowser_1_1CategoryListModel.html" target="_top" xlink:title=" ">
<polygon fill="white" stroke="#666666" points="636,-115.5 463,-115.5 463,-85.5 636,-85.5 636,-115.5"/>
<text text-anchor="start" x="471" y="-103.5" font-family="Helvetica,sans-Serif" font-size="10.00">DirektDSP::DirektPresetBrowser</text>
<text text-anchor="middle" x="549.5" y="-92.5" font-family="Helvetica,sans-Serif" font-size="10.00">::CategoryListModel</text>
</a>
</g>
</g>
<!-- Node4&#45;&gt;Node1 -->
<g id="edge3_Node000001_Node000004" class="edge">
<title>Node4&#45;&gt;Node1</title>
<g id="a_edge3_Node000001_Node000004"><a xlink:title=" ">
<path fill="none" stroke="#9a32cd" stroke-dasharray="5,2" d="M646.41,-100.5C685.36,-100.5 730,-100.5 767.84,-100.5"/>
<polygon fill="#9a32cd" stroke="#9a32cd" points="646.11,-97 636.11,-100.5 646.11,-104 646.11,-97"/>
</a>
</g>
<text text-anchor="middle" x="702" y="-103.5" font-family="Helvetica,sans-Serif" font-size="10.00" fill="grey"> categoryModel</text>
</g>
<!-- Node5 -->
<g id="Node000005" class="node">
<title>Node5</title>
<g id="a_Node000005"><a xlink:title=" ">
<polygon fill="white" stroke="#666666" points="377,-108 268,-108 268,-89 377,-89 377,-108"/>
<text text-anchor="middle" x="322.5" y="-96" font-family="Helvetica,sans-Serif" font-size="10.00">juce::ListBoxModel</text>
</a>
</g>
</g>
<!-- Node5&#45;&gt;Node4 -->
<g id="edge4_Node000004_Node000005" class="edge">
<title>Node5&#45;&gt;Node4</title>
<g id="a_edge4_Node000004_Node000005"><a xlink:title=" ">
<path fill="none" stroke="#63b8ff" d="M387.27,-99.07C410.74,-99.28 437.7,-99.52 462.78,-99.74"/>
<polygon fill="#63b8ff" stroke="#63b8ff" points="387.14,-95.57 377.11,-98.98 387.08,-102.57 387.14,-95.57"/>
</a>
</g>
</g>
<!-- Node6 -->
<g id="Node000006" class="node">
<title>Node6</title>
<g id="a_Node000006"><a xlink:href="classDirektDSP_1_1DirektPresetBrowser_1_1PresetListModel.html" target="_top" xlink:title=" ">
<polygon fill="white" stroke="#666666" points="636,-67.5 463,-67.5 463,-37.5 636,-37.5 636,-67.5"/>
<text text-anchor="start" x="471" y="-55.5" font-family="Helvetica,sans-Serif" font-size="10.00">DirektDSP::DirektPresetBrowser</text>
<text text-anchor="middle" x="549.5" y="-44.5" font-family="Helvetica,sans-Serif" font-size="10.00">::PresetListModel</text>
</a>
</g>
</g>
<!-- Node5&#45;&gt;Node6 -->
<g id="edge6_Node000006_Node000005" class="edge">
<title>Node5&#45;&gt;Node6</title>
<g id="a_edge6_Node000006_Node000005"><a xlink:title=" ">
<path fill="none" stroke="#63b8ff" d="M380,-86.95C408.76,-81.07 444.07,-73.85 474.92,-67.54"/>
<polygon fill="#63b8ff" stroke="#63b8ff" points="379.22,-83.54 370.12,-88.97 380.62,-90.39 379.22,-83.54"/>
</a>
</g>
</g>
<!-- Node6&#45;&gt;Node1 -->
<g id="edge5_Node000001_Node000006" class="edge">
<title>Node6&#45;&gt;Node1</title>
<g id="a_edge5_Node000001_Node000006"><a xlink:title=" ">
<path fill="none" stroke="#9a32cd" stroke-dasharray="5,2" d="M646.23,-67.67C694.32,-75.28 751.11,-84.28 793.08,-90.93"/>
<polygon fill="#9a32cd" stroke="#9a32cd" points="646.54,-64.17 636.11,-66.06 645.44,-71.08 646.54,-64.17"/>
</a>
</g>
<text text-anchor="middle" x="702" y="-86.5" font-family="Helvetica,sans-Serif" font-size="10.00" fill="grey"> presetModel</text>
</g>
<!-- Node7 -->
<g id="Node000007" class="node">
<title>Node7</title>
<g id="a_Node000007"><a xlink:title=" ">
<polygon fill="white" stroke="#666666" points="387,-70 258,-70 258,-29 387,-29 387,-70"/>
<text text-anchor="start" x="266" y="-58" font-family="Helvetica,sans-Serif" font-size="10.00">std::vector&lt; DirektDSP</text>
<text text-anchor="start" x="266" y="-47" font-family="Helvetica,sans-Serif" font-size="10.00">::DirektPresetBrowser</text>
<text text-anchor="middle" x="322.5" y="-36" font-family="Helvetica,sans-Serif" font-size="10.00">::PresetEntry &gt;</text>
</a>
</g>
</g>
<!-- Node7&#45;&gt;Node6 -->
<g id="edge7_Node000006_Node000007" class="edge">
<title>Node7&#45;&gt;Node6</title>
<g id="a_edge7_Node000006_Node000007"><a xlink:title=" ">
<path fill="none" stroke="#9a32cd" stroke-dasharray="5,2" d="M397.39,-49.98C413.1,-50.12 429.6,-50.29 445,-50.5 450.84,-50.58 456.87,-50.67 462.94,-50.77"/>
<polygon fill="#9a32cd" stroke="#9a32cd" points="397.22,-46.48 387.19,-49.89 397.16,-53.48 397.22,-46.48"/>
</a>
</g>
<text text-anchor="middle" x="425" y="-53.5" font-family="Helvetica,sans-Serif" font-size="10.00" fill="grey"> presets</text>
</g>
<!-- Node8 -->
<g id="Node000008" class="node">
<title>Node8</title>
<g id="a_Node000008"><a xlink:href="structDirektDSP_1_1DirektPresetBrowser_1_1PresetEntry.html" target="_top" xlink:title=" ">
<polygon fill="white" stroke="#666666" points="173,-64.5 0,-64.5 0,-34.5 173,-34.5 173,-64.5"/>
<text text-anchor="start" x="8" y="-52.5" font-family="Helvetica,sans-Serif" font-size="10.00">DirektDSP::DirektPresetBrowser</text>
<text text-anchor="middle" x="86.5" y="-41.5" font-family="Helvetica,sans-Serif" font-size="10.00">::PresetEntry</text>
</a>
</g>
</g>
<!-- Node8&#45;&gt;Node7 -->
<g id="edge8_Node000007_Node000008" class="edge">
<title>Node8&#45;&gt;Node7</title>
<g id="a_edge8_Node000007_Node000008"><a xlink:title=" ">
<path fill="none" stroke="#9a32cd" stroke-dasharray="5,2" d="M183.54,-49.5C208.53,-49.5 234.84,-49.5 257.7,-49.5"/>
<polygon fill="#9a32cd" stroke="#9a32cd" points="183.3,-46 173.3,-49.5 183.3,-53 183.3,-46"/>
</a>
</g>
<text text-anchor="middle" x="215.5" y="-52.5" font-family="Helvetica,sans-Serif" font-size="10.00" fill="grey"> elements</text>
</g>
<!-- Node9 -->
<g id="Node000009" class="node">
<title>Node9</title>
<g id="a_Node000009"><a xlink:title=" ">
<polygon fill="white" stroke="#666666" points="614.5,-19 484.5,-19 484.5,0 614.5,0 614.5,-19"/>
<text text-anchor="middle" x="549.5" y="-7" font-family="Helvetica,sans-Serif" font-size="10.00">std::set&lt; juce::String &gt;</text>
</a>
</g>
</g>
<!-- Node9&#45;&gt;Node1 -->
<g id="edge9_Node000001_Node000009" class="edge">
<title>Node9&#45;&gt;Node1</title>
<g id="a_edge9_Node000001_Node000009"><a xlink:title=" ">
<path fill="none" stroke="#9a32cd" stroke-dasharray="5,2" d="M619.16,-20.97C658.08,-28.37 707.37,-39.3 750,-53.5 781.08,-63.86 815.37,-80.54 835.64,-91"/>
<polygon fill="#9a32cd" stroke="#9a32cd" points="619.46,-17.46 608.99,-19.06 618.17,-24.34 619.46,-17.46"/>
</a>
</g>
<text text-anchor="middle" x="702" y="-56.5" font-family="Helvetica,sans-Serif" font-size="10.00" fill="grey"> favoritePresetKeys</text>
</g>
</g>
</svg>
