<?xml version="1.0" encoding="UTF-8" standalone="no"?>
<!DOCTYPE svg PUBLIC "-//W3C//DTD SVG 1.1//EN"
 "http://www.w3.org/Graphics/SVG/1.1/DTD/svg11.dtd">
<!-- Generated by graphviz version 2.43.0 (0)
 -->
<!-- Title: DirektDSP::DirektFlexContainer Pages: 1 -->
<svg width="275pt" height="258pt"
 viewBox="0.00 0.00 274.50 258.00" xmlns="http://www.w3.org/2000/svg" xmlns:xlink="http://www.w3.org/1999/xlink">
<g id="graph0" class="graph" transform="scale(1 1) rotate(0) translate(4 254)">
<title>DirektDSP::DirektFlexContainer</title>
<!-- Node1 -->
<g id="Node000001" class="node">
<title>Node1</title>
<g id="a_Node000001"><a xlink:title=" ">
<polygon fill="#999999" stroke="#666666" points="175.5,-19 5.5,-19 5.5,0 175.5,0 175.5,-19"/>
<text text-anchor="middle" x="90.5" y="-7" font-family="Helvetica,sans-Serif" font-size="10.00">DirektDSP::DirektFlexContainer</text>
</a>
</g>
</g>
<!-- Node2 -->
<g id="Node000002" class="node">
<title>Node2</title>
<g id="a_Node000002"><a xlink:title=" ">
<polygon fill="white" stroke="#666666" points="99,-96 0,-96 0,-77 99,-77 99,-96"/>
<text text-anchor="middle" x="49.5" y="-84" font-family="Helvetica,sans-Serif" font-size="10.00">juce::Component</text>
</a>
</g>
</g>
<!-- Node2&#45;&gt;Node1 -->
<g id="edge1_Node000001_Node000002" class="edge">
<title>Node2&#45;&gt;Node1</title>
<g id="a_edge1_Node000001_Node000002"><a xlink:title=" ">
<path fill="none" stroke="#63b8ff" d="M59.14,-67.86C67.56,-52.47 79.39,-30.82 85.85,-19"/>
<polygon fill="#63b8ff" stroke="#63b8ff" points="55.93,-66.44 54.2,-76.9 62.07,-69.8 55.93,-66.44"/>
</a>
</g>
</g>
<!-- Node3 -->
<g id="Node000003" class="node">
<title>Node3</title>
<g id="a_Node000003"><a xlink:title=" ">
<polygon fill="white" stroke="#666666" points="246,-107 117,-107 117,-66 246,-66 246,-107"/>
<text text-anchor="start" x="125" y="-95" font-family="Helvetica,sans-Serif" font-size="10.00">std::vector&lt; DirektDSP</text>
<text text-anchor="start" x="125" y="-84" font-family="Helvetica,sans-Serif" font-size="10.00">::DirektFlexContainer</text>
<text text-anchor="middle" x="181.5" y="-73" font-family="Helvetica,sans-Serif" font-size="10.00">::ChildEntry &gt;</text>
</a>
</g>
</g>
<!-- Node3&#45;&gt;Node1 -->
<g id="edge2_Node000001_Node000003" class="edge">
<title>Node3&#45;&gt;Node1</title>
<g id="a_edge2_Node000001_Node000003"><a xlink:title=" ">
<path fill="none" stroke="#9a32cd" stroke-dasharray="5,2" d="M149.55,-59.16C132.61,-45.21 112.92,-28.98 101.1,-19.24"/>
<polygon fill="#9a32cd" stroke="#9a32cd" points="147.65,-62.14 157.59,-65.79 152.1,-56.73 147.65,-62.14"/>
</a>
</g>
<text text-anchor="middle" x="154" y="-40" font-family="Helvetica,sans-Serif" font-size="10.00" fill="grey"> entries</text>
</g>
<!-- Node4 -->
<g id="Node000004" class="node">
<title>Node4</title>
<g id="a_Node000004"><a xlink:href="structDirektDSP_1_1DirektFlexContainer_1_1ChildEntry.html" target="_top" xlink:title=" ">
<polygon fill="white" stroke="#666666" points="266.5,-184 96.5,-184 96.5,-154 266.5,-154 266.5,-184"/>
<text text-anchor="start" x="104.5" y="-172" font-family="Helvetica,sans-Serif" font-size="10.00">DirektDSP::DirektFlexContainer</text>
<text text-anchor="middle" x="181.5" y="-161" font-family="Helvetica,sans-Serif" font-size="10.00">::ChildEntry</text>
</a>
</g>
</g>
<!-- Node4&#45;&gt;Node3 -->
<g id="edge3_Node000003_Node000004" class="edge">
<title>Node4&#45;&gt;Node3</title>
<g id="a_edge3_Node000003_Node000004"><a xlink:title=" ">
<path fill="none" stroke="#9a32cd" stroke-dasharray="5,2" d="M181.5,-143.94C181.5,-132.17 181.5,-118.19 181.5,-107.09"/>
<polygon fill="#9a32cd" stroke="#9a32cd" points="178,-143.98 181.5,-153.98 185,-143.98 178,-143.98"/>
</a>
</g>
<text text-anchor="middle" x="206" y="-128" font-family="Helvetica,sans-Serif" font-size="10.00" fill="grey"> elements</text>
</g>
<!-- Node5 -->
<g id="Node000005" class="node">
<title>Node5</title>
<g id="a_Node000005"><a xlink:href="structDirektDSP_1_1SizeHint.html" target="_top" xlink:title=" ">
<polygon fill="white" stroke="#666666" points="238,-250 125,-250 125,-231 238,-231 238,-250"/>
<text text-anchor="middle" x="181.5" y="-238" font-family="Helvetica,sans-Serif" font-size="10.00">DirektDSP::SizeHint</text>
</a>
</g>
</g>
<!-- Node5&#45;&gt;Node4 -->
<g id="edge4_Node000004_Node000005" class="edge">
<title>Node5&#45;&gt;Node4</title>
<g id="a_edge4_Node000004_Node000005"><a xlink:title=" ">
<path fill="none" stroke="#9a32cd" stroke-dasharray="5,2" d="M181.5,-220.71C181.5,-209.19 181.5,-194.68 181.5,-184.14"/>
<polygon fill="#9a32cd" stroke="#9a32cd" points="178,-220.98 181.5,-230.98 185,-220.98 178,-220.98"/>
</a>
</g>
<text text-anchor="middle" x="192.5" y="-205" font-family="Helvetica,sans-Serif" font-size="10.00" fill="grey"> hint</text>
</g>
</g>
</svg>
