<?xml version="1.0" encoding="UTF-8" standalone="no"?>
<!DOCTYPE svg PUBLIC "-//W3C//DTD SVG 1.1//EN"
 "http://www.w3.org/Graphics/SVG/1.1/DTD/svg11.dtd">
<!-- Generated by graphviz version 2.43.0 (0)
 -->
<!-- Title: DirektDSP::DirektPresetBrowser Pages: 1 -->
<svg width="930pt" height="169pt"
 viewBox="0.00 0.00 930.00 169.00" xmlns="http://www.w3.org/2000/svg" xmlns:xlink="http://www.w3.org/1999/xlink">
<g id="graph0" class="graph" transform="scale(1 1) rotate(0) translate(4 165)">
<title>DirektDSP::DirektPresetBrowser</title>
<!-- Node1 -->
<g id="Node000001" class="node">
<title>Node1</title>
<g id="a_Node000001"><a xlink:title=" ">
<polygon fill="#999999" stroke="#666666" points="922,-106 749,-106 749,-87 922,-87 922,-106"/>
<text text-anchor="middle" x="835.5" y="-94" font-family="Helvetica,sans-Serif" font-size="10.00">DirektDSP::DirektPresetBrowser</text>
</a>
</g>
</g>
<!-- Node2 -->
<g id="Node000002" class="node">
<title>Node2</title>
<g id="a_Node000002"><a xlink:title=" ">
<polygon fill="white" stroke="#666666" points="599,-161 500,-161 500,-142 599,-142 599,-161"/>
<text text-anchor="middle" x="549.5" y="-149" font-family="Helvetica,sans-Serif" font-size="10.00">juce::Component</text>
</a>
</g>
</g>
<!-- Node2&#45;&gt;Node1 -->
<g id="edge1_Node000001_Node000002" class="edge">
<title>Node2&#45;&gt;Node1</title>
<g id="a_edge1_Node000001_Node000002"><a xlink:title=" ">
<path fill="none" stroke="#63b8ff" d="M609.51,-143.34C644.88,-138.12 690.68,-130.79 731,-122.5 754.05,-117.76 779.7,-111.33 799.7,-106.04"/>
<polygon fill="#63b8ff" stroke="#63b8ff" points="608.74,-139.91 599.36,-144.82 609.76,-146.84 608.74,-139.91"/>
</a>
</g>
</g>
<!-- Node3 -->
<g id="Node000003" class="node">
<title>Node3</title>
<g id="a_Node000003"><a xlink:href="classService_1_1PresetManager.html" target="_top" xlink:title=" ">
<polygon fill="white" stroke="#666666" points="615.5,-124 483.5,-124 483.5,-105 615.5,-105 615.5,-124"/>
<text text-anchor="middle" x="549.5" y="-112" font-family="Helvetica,sans-Serif" font-size="10.00">Service::PresetManager</text>
</a>
</g>
</g>
<!-- Node3&#45;&gt;Node1 -->
<g id="edge2_Node000001_Node000003" class="edge">
<title>Node3&#45;&gt;Node1</title>
<g id="a_edge2_Node000001_Node000003"><a xlink:title=" ">
<path fill="none" stroke="#9a32cd" stroke-dasharray="5,2" d="M626.09,-109.71C663.9,-107.31 709.81,-104.4 748.91,-101.92"/>
<polygon fill="#9a32cd" stroke="#9a32cd" points="625.41,-106.24 615.66,-110.37 625.86,-113.23 625.41,-106.24"/>
</a>
</g>
<text text-anchor="middle" x="692.5" y="-110.5" font-family="Helvetica,sans-Serif" font-size="10.00" fill="grey"> presetManager</text>
</g>
<!-- Node4 -->
<g id="Node000004" class="node">
<title>Node4</title>
<g id="a_Node000004"><a xlink:href="classDirektDSP_1_1DirektPresetBrowser_1_1CategoryListModel.html" target="_top" xlink:title=" ">
<polygon fill="white" stroke="#666666" points="636,-86.5 463,-86.5 463,-56.5 636,-56.5 636,-86.5"/>
<text text-anchor="start" x="471" y="-74.5" font-family="Helvetica,sans-Serif" font-size="10.00">DirektDSP::DirektPresetBrowser</text>
<text text-anchor="middle" x="549.5" y="-63.5" font-family="Helvetica,sans-Serif" font-size="10.00">::CategoryListModel</text>
</a>
</g>
</g>
<!-- Node4&#45;&gt;Node1 -->
<g id="edge3_Node000001_Node000004" class="edge">
<title>Node4&#45;&gt;Node1</title>
<g id="a_edge3_Node000001_Node000004"><a xlink:title=" ">
<path fill="none" stroke="#9a32cd" stroke-dasharray="5,2" d="M646.25,-79.93C679.38,-82.85 716.29,-86.09 748.59,-88.94"/>
<polygon fill="#9a32cd" stroke="#9a32cd" points="646.36,-76.43 636.09,-79.03 645.75,-83.4 646.36,-76.43"/>
</a>
</g>
<text text-anchor="middle" x="692.5" y="-89.5" font-family="Helvetica,sans-Serif" font-size="10.00" fill="grey"> categoryModel</text>
</g>
<!-- Node5 -->
<g id="Node000005" class="node">
<title>Node5</title>
<g id="a_Node000005"><a xlink:title=" ">
<polygon fill="white" stroke="#666666" points="377,-79 268,-79 268,-60 377,-60 377,-79"/>
<text text-anchor="middle" x="322.5" y="-67" font-family="Helvetica,sans-Serif" font-size="10.00">juce::ListBoxModel</text>
</a>
</g>
</g>
<!-- Node5&#45;&gt;Node4 -->
<g id="edge4_Node000004_Node000005" class="edge">
<title>Node5&#45;&gt;Node4</title>
<g id="a_edge4_Node000004_Node000005"><a xlink:title=" ">
<path fill="none" stroke="#63b8ff" d="M387.27,-70.07C410.74,-70.28 437.7,-70.52 462.78,-70.74"/>
<polygon fill="#63b8ff" stroke="#63b8ff" points="387.14,-66.57 377.11,-69.98 387.08,-73.57 387.14,-66.57"/>
</a>
</g>
</g>
<!-- Node6 -->
<g id="Node000006" class="node">
<title>Node6</title>
<g id="a_Node000006"><a xlink:href="classDirektDSP_1_1DirektPresetBrowser_1_1PresetListModel.html" target="_top" xlink:title=" ">
<polygon fill="white" stroke="#666666" points="636,-38.5 463,-38.5 463,-8.5 636,-8.5 636,-38.5"/>
<text text-anchor="start" x="471" y="-26.5" font-family="Helvetica,sans-Serif" font-size="10.00">DirektDSP::DirektPresetBrowser</text>
<text text-anchor="middle" x="549.5" y="-15.5" font-family="Helvetica,sans-Serif" font-size="10.00">::PresetListModel</text>
</a>
</g>
</g>
<!-- Node5&#45;&gt;Node6 -->
<g id="edge6_Node000006_Node000005" class="edge">
<title>Node5&#45;&gt;Node6</title>
<g id="a_edge6_Node000006_Node000005"><a xlink:title=" ">
<path fill="none" stroke="#63b8ff" d="M380,-57.95C408.76,-52.07 444.07,-44.85 474.92,-38.54"/>
<polygon fill="#63b8ff" stroke="#63b8ff" points="379.22,-54.54 370.12,-59.97 380.62,-61.39 379.22,-54.54"/>
</a>
</g>
</g>
<!-- Node6&#45;&gt;Node1 -->
<g id="edge5_Node000001_Node000006" class="edge">
<title>Node6&#45;&gt;Node1</title>
<g id="a_edge5_Node000001_Node000006"><a xlink:title=" ">
<path fill="none" stroke="#9a32cd" stroke-dasharray="5,2" d="M629.82,-40.83C661.41,-48.03 698.03,-56.74 731,-65.5 755.84,-72.1 783.73,-80.52 804.3,-86.91"/>
<polygon fill="#9a32cd" stroke="#9a32cd" points="630.27,-37.35 619.75,-38.55 628.73,-44.17 630.27,-37.35"/>
</a>
</g>
<text text-anchor="middle" x="692.5" y="-68.5" font-family="Helvetica,sans-Serif" font-size="10.00" fill="grey"> presetModel</text>
</g>
<!-- Node7 -->
<g id="Node000007" class="node">
<title>Node7</title>
<g id="a_Node000007"><a xlink:title=" ">
<polygon fill="white" stroke="#666666" points="387,-41 258,-41 258,0 387,0 387,-41"/>
<text text-anchor="start" x="266" y="-29" font-family="Helvetica,sans-Serif" font-size="10.00">std::vector&lt; DirektDSP</text>
<text text-anchor="start" x="266" y="-18" font-family="Helvetica,sans-Serif" font-size="10.00">::DirektPresetBrowser</text>
<text text-anchor="middle" x="322.5" y="-7" font-family="Helvetica,sans-Serif" font-size="10.00">::PresetEntry &gt;</text>
</a>
</g>
</g>
<!-- Node7&#45;&gt;Node6 -->
<g id="edge7_Node000006_Node000007" class="edge">
<title>Node7&#45;&gt;Node6</title>
<g id="a_edge7_Node000006_Node000007"><a xlink:title=" ">
<path fill="none" stroke="#9a32cd" stroke-dasharray="5,2" d="M397.39,-20.98C413.1,-21.12 429.6,-21.29 445,-21.5 450.84,-21.58 456.87,-21.67 462.94,-21.77"/>
<polygon fill="#9a32cd" stroke="#9a32cd" points="397.22,-17.48 387.19,-20.89 397.16,-24.48 397.22,-17.48"/>
</a>
</g>
<text text-anchor="middle" x="425" y="-24.5" font-family="Helvetica,sans-Serif" font-size="10.00" fill="grey"> presets</text>
</g>
<!-- Node8 -->
<g id="Node000008" class="node">
<title>Node8</title>
<g id="a_Node000008"><a xlink:href="structDirektDSP_1_1DirektPresetBrowser_1_1PresetEntry.html" target="_top" xlink:title=" ">
<polygon fill="white" stroke="#666666" points="173,-35.5 0,-35.5 0,-5.5 173,-5.5 173,-35.5"/>
<text text-anchor="start" x="8" y="-23.5" font-family="Helvetica,sans-Serif" font-size="10.00">DirektDSP::DirektPresetBrowser</text>
<text text-anchor="middle" x="86.5" y="-12.5" font-family="Helvetica,sans-Serif" font-size="10.00">::PresetEntry</text>
</a>
</g>
</g>
<!-- Node8&#45;&gt;Node7 -->
<g id="edge8_Node000007_Node000008" class="edge">
<title>Node8&#45;&gt;Node7</title>
<g id="a_edge8_Node000007_Node000008"><a xlink:title=" ">
<path fill="none" stroke="#9a32cd" stroke-dasharray="5,2" d="M183.54,-20.5C208.53,-20.5 234.84,-20.5 257.7,-20.5"/>
<polygon fill="#9a32cd" stroke="#9a32cd" points="183.3,-17 173.3,-20.5 183.3,-24 183.3,-17"/>
</a>
</g>
<text text-anchor="middle" x="215.5" y="-23.5" font-family="Helvetica,sans-Serif" font-size="10.00" fill="grey"> elements</text>
</g>
</g>
</svg>
