<?xml version="1.0" encoding="UTF-8" standalone="no"?>
<!DOCTYPE svg PUBLIC "-//W3C//DTD SVG 1.1//EN"
 "http://www.w3.org/Graphics/SVG/1.1/DTD/svg11.dtd">
<!-- Generated by graphviz version 2.43.0 (0)
 -->
<!-- Title: DirektDSP::DirektToggle Pages: 1 -->
<svg width="408pt" height="86pt"
 viewBox="0.00 0.00 408.00 86.00" xmlns="http://www.w3.org/2000/svg" xmlns:xlink="http://www.w3.org/1999/xlink">
<g id="graph0" class="graph" transform="scale(1 1) rotate(0) translate(4 82)">
<title>DirektDSP::DirektToggle</title>
<!-- Node1 -->
<g id="Node000001" class="node">
<title>Node1</title>
<g id="a_Node000001"><a xlink:title=" ">
<polygon fill="#999999" stroke="#666666" points="400,-54 266,-54 266,-35 400,-35 400,-54"/>
<text text-anchor="middle" x="333" y="-42" font-family="Helvetica,sans-Serif" font-size="10.00">DirektDSP::DirektToggle</text>
</a>
</g>
</g>
<!-- Node2 -->
<g id="Node000002" class="node">
<title>Node2</title>
<g id="a_Node000002"><a xlink:title=" ">
<polygon fill="white" stroke="#666666" points="134.5,-78 35.5,-78 35.5,-59 134.5,-59 134.5,-78"/>
<text text-anchor="middle" x="85" y="-66" font-family="Helvetica,sans-Serif" font-size="10.00">juce::Component</text>
</a>
</g>
</g>
<!-- Node2&#45;&gt;Node1 -->
<g id="edge1_Node000001_Node000002" class="edge">
<title>Node2&#45;&gt;Node1</title>
<g id="a_edge1_Node000001_Node000002"><a xlink:title=" ">
<path fill="none" stroke="#63b8ff" d="M144.59,-62.78C181.04,-59.23 228.01,-54.65 265.8,-50.96"/>
<polygon fill="#63b8ff" stroke="#63b8ff" points="144.21,-59.3 134.6,-63.76 144.89,-66.27 144.21,-59.3"/>
</a>
</g>
</g>
<!-- Node3 -->
<g id="Node000003" class="node">
<title>Node3</title>
<g id="a_Node000003"><a xlink:title=" ">
<polygon fill="white" stroke="#666666" points="170,-41 0,-41 0,0 170,0 170,-41"/>
<text text-anchor="start" x="8" y="-29" font-family="Helvetica,sans-Serif" font-size="10.00">std::unique_ptr&lt; juce</text>
<text text-anchor="start" x="8" y="-18" font-family="Helvetica,sans-Serif" font-size="10.00">::AudioProcessorValueTreeState</text>
<text text-anchor="middle" x="85" y="-7" font-family="Helvetica,sans-Serif" font-size="10.00">::ButtonAttachment &gt;</text>
</a>
</g>
</g>
<!-- Node3&#45;&gt;Node1 -->
<g id="edge2_Node000001_Node000003" class="edge">
<title>Node3&#45;&gt;Node1</title>
<g id="a_edge2_Node000001_Node000003"><a xlink:title=" ">
<path fill="none" stroke="#9a32cd" stroke-dasharray="5,2" d="M180.29,-29.7C208.76,-32.48 239.41,-35.47 265.65,-38.03"/>
<polygon fill="#9a32cd" stroke="#9a32cd" points="180.61,-26.21 170.32,-28.73 179.93,-33.18 180.61,-26.21"/>
</a>
</g>
<text text-anchor="middle" x="218" y="-38.5" font-family="Helvetica,sans-Serif" font-size="10.00" fill="grey"> attachment</text>
</g>
</g>
</svg>
