<?xml version="1.0" encoding="UTF-8" standalone="no"?>
<!DOCTYPE svg PUBLIC "-//W3C//DTD SVG 1.1//EN"
 "http://www.w3.org/Graphics/SVG/1.1/DTD/svg11.dtd">
<!-- Generated by graphviz version 2.43.0 (0)
 -->
<!-- Title: DirektDSP::DirektModuleBypassSoloStrip Pages: 1 -->
<svg width="1161pt" height="137pt"
 viewBox="0.00 0.00 1161.00 136.50" xmlns="http://www.w3.org/2000/svg" xmlns:xlink="http://www.w3.org/1999/xlink">
<g id="graph0" class="graph" transform="scale(1 1) rotate(0) translate(4 132.5)">
<title>DirektDSP::DirektModuleBypassSoloStrip</title>
<!-- Node1 -->
<g id="Node000001" class="node">
<title>Node1</title>
<g id="a_Node000001"><a xlink:title="Compact bypass and solo toggles for a module section title bar.">
<polygon fill="#999999" stroke="#666666" points="1153,-114 980,-114 980,-84 1153,-84 1153,-114"/>
<text text-anchor="start" x="988" y="-102" font-family="Helvetica,sans-Serif" font-size="10.00">DirektDSP::DirektModuleBypass</text>
<text text-anchor="middle" x="1066.5" y="-91" font-family="Helvetica,sans-Serif" font-size="10.00">SoloStrip</text>
</a>
</g>
</g>
<!-- Node2 -->
<g id="Node000002" class="node">
<title>Node2</title>
<g id="a_Node000002"><a xlink:title=" ">
<polygon fill="white" stroke="#666666" points="134.5,-128.5 35.5,-128.5 35.5,-109.5 134.5,-109.5 134.5,-128.5"/>
<text text-anchor="middle" x="85" y="-116.5" font-family="Helvetica,sans-Serif" font-size="10.00">juce::Component</text>
</a>
</g>
</g>
<!-- Node2&#45;&gt;Node1 -->
<g id="edge1_Node000001_Node000002" class="edge">
<title>Node2&#45;&gt;Node1</title>
<g id="a_edge1_Node000001_Node000002"><a xlink:title=" ">
<path fill="none" stroke="#63b8ff" d="M144.93,-119.34C200.81,-119.63 287.12,-120 362,-120 362,-120 362,-120 812,-120 868.08,-120 930.91,-114.83 979.99,-109.62"/>
<polygon fill="#63b8ff" stroke="#63b8ff" points="144.88,-115.84 134.86,-119.28 144.84,-122.84 144.88,-115.84"/>
</a>
</g>
</g>
<!-- Node5 -->
<g id="Node000005" class="node">
<title>Node5</title>
<g id="a_Node000005"><a xlink:href="classDirektDSP_1_1DirektToggle.html" target="_top" xlink:title=" ">
<polygon fill="white" stroke="#666666" points="430,-79.5 296,-79.5 296,-60.5 430,-60.5 430,-79.5"/>
<text text-anchor="middle" x="363" y="-67.5" font-family="Helvetica,sans-Serif" font-size="10.00">DirektDSP::DirektToggle</text>
</a>
</g>
</g>
<!-- Node2&#45;&gt;Node5 -->
<g id="edge5_Node000005_Node000002" class="edge">
<title>Node2&#45;&gt;Node5</title>
<g id="a_edge5_Node000005_Node000002"><a xlink:title=" ">
<path fill="none" stroke="#63b8ff" d="M144.72,-108.58C193.09,-99.99 261.12,-87.91 308.12,-79.57"/>
<polygon fill="#63b8ff" stroke="#63b8ff" points="143.94,-105.16 134.71,-110.35 145.17,-112.05 143.94,-105.16"/>
</a>
</g>
</g>
<!-- Node3 -->
<g id="Node000003" class="node">
<title>Node3</title>
<g id="a_Node000003"><a xlink:title=" ">
<polygon fill="white" stroke="#666666" points="904,-92 718,-92 718,-62 904,-62 904,-92"/>
<text text-anchor="start" x="726" y="-80" font-family="Helvetica,sans-Serif" font-size="10.00">std::vector&lt; std::unique</text>
<text text-anchor="middle" x="811" y="-69" font-family="Helvetica,sans-Serif" font-size="10.00">_ptr&lt; DirektDSP::DirektToggle &gt; &gt;</text>
</a>
</g>
</g>
<!-- Node3&#45;&gt;Node1 -->
<g id="edge2_Node000001_Node000003" class="edge">
<title>Node3&#45;&gt;Node1</title>
<g id="a_edge2_Node000001_Node000003"><a xlink:title=" ">
<path fill="none" stroke="#9a32cd" stroke-dasharray="5,2" d="M914.43,-85.89C936.08,-87.77 958.7,-89.73 979.66,-91.55"/>
<polygon fill="#9a32cd" stroke="#9a32cd" points="914.5,-82.38 904.24,-85 913.9,-89.36 914.5,-82.38"/>
</a>
</g>
<text text-anchor="middle" x="942" y="-92" font-family="Helvetica,sans-Serif" font-size="10.00" fill="grey"> toggles</text>
</g>
<!-- Node4 -->
<g id="Node000004" class="node">
<title>Node4</title>
<g id="a_Node000004"><a xlink:title=" ">
<polygon fill="white" stroke="#666666" points="633,-90 483,-90 483,-60 633,-60 633,-90"/>
<text text-anchor="start" x="491" y="-78" font-family="Helvetica,sans-Serif" font-size="10.00">std::unique_ptr&lt; DirektDSP</text>
<text text-anchor="middle" x="558" y="-67" font-family="Helvetica,sans-Serif" font-size="10.00">::DirektToggle &gt;</text>
</a>
</g>
</g>
<!-- Node4&#45;&gt;Node3 -->
<g id="edge3_Node000003_Node000004" class="edge">
<title>Node4&#45;&gt;Node3</title>
<g id="a_edge3_Node000003_Node000004"><a xlink:title=" ">
<path fill="none" stroke="#9a32cd" stroke-dasharray="5,2" d="M643.37,-75.67C667.24,-75.86 693.34,-76.07 717.65,-76.26"/>
<polygon fill="#9a32cd" stroke="#9a32cd" points="643.32,-72.17 633.29,-75.59 643.26,-79.17 643.32,-72.17"/>
</a>
</g>
<text text-anchor="middle" x="675.5" y="-79" font-family="Helvetica,sans-Serif" font-size="10.00" fill="grey"> elements</text>
</g>
<!-- Node5&#45;&gt;Node4 -->
<g id="edge4_Node000004_Node000005" class="edge">
<title>Node5&#45;&gt;Node4</title>
<g id="a_edge4_Node000004_Node000005"><a xlink:title=" ">
<path fill="none" stroke="#9a32cd" stroke-dasharray="5,2" d="M440.27,-71.98C454.33,-72.34 469,-72.72 482.99,-73.08"/>
<polygon fill="#9a32cd" stroke="#9a32cd" points="440.24,-68.47 430.15,-71.71 440.06,-75.47 440.24,-68.47"/>
</a>
</g>
<text text-anchor="middle" x="456.5" y="-75" font-family="Helvetica,sans-Serif" font-size="10.00" fill="grey"> ptr</text>
</g>
<!-- Node6 -->
<g id="Node000006" class="node">
<title>Node6</title>
<g id="a_Node000006"><a xlink:title=" ">
<polygon fill="white" stroke="#666666" points="170,-89.5 0,-89.5 0,-48.5 170,-48.5 170,-89.5"/>
<text text-anchor="start" x="8" y="-77.5" font-family="Helvetica,sans-Serif" font-size="10.00">std::unique_ptr&lt; juce</text>
<text text-anchor="start" x="8" y="-66.5" font-family="Helvetica,sans-Serif" font-size="10.00">::AudioProcessorValueTreeState</text>
<text text-anchor="middle" x="85" y="-55.5" font-family="Helvetica,sans-Serif" font-size="10.00">::ButtonAttachment &gt;</text>
</a>
</g>
</g>
<!-- Node6&#45;&gt;Node5 -->
<g id="edge6_Node000005_Node000006" class="edge">
<title>Node6&#45;&gt;Node5</title>
<g id="a_edge6_Node000005_Node000006"><a xlink:title=" ">
<path fill="none" stroke="#9a32cd" stroke-dasharray="5,2" d="M180.35,-69.34C218.3,-69.48 261.15,-69.63 295.7,-69.76"/>
<polygon fill="#9a32cd" stroke="#9a32cd" points="180.32,-65.84 170.31,-69.31 180.3,-72.84 180.32,-65.84"/>
</a>
</g>
<text text-anchor="middle" x="233" y="-72" font-family="Helvetica,sans-Serif" font-size="10.00" fill="grey"> attachment</text>
</g>
<!-- Node7 -->
<g id="Node000007" class="node">
<title>Node7</title>
<g id="a_Node000007"><a xlink:href="classDirektDSP_1_1DirektParameterHistory.html" target="_top" xlink:title="Maintains undo/redo history for APVTS parameter edits.">
<polygon fill="#fff0f0" stroke="red" points="161,-30 9,-30 9,0 161,0 161,-30"/>
<text text-anchor="start" x="17" y="-18" font-family="Helvetica,sans-Serif" font-size="10.00">DirektDSP::DirektParameter</text>
<text text-anchor="middle" x="85" y="-7" font-family="Helvetica,sans-Serif" font-size="10.00">History</text>
</a>
</g>
</g>
<!-- Node7&#45;&gt;Node5 -->
<g id="edge7_Node000005_Node000007" class="edge">
<title>Node7&#45;&gt;Node5</title>
<g id="a_edge7_Node000005_Node000007"><a xlink:title=" ">
<path fill="none" stroke="#9a32cd" stroke-dasharray="5,2" d="M170.95,-31.93C218.08,-41.32 274.94,-52.65 314.31,-60.5"/>
<polygon fill="#9a32cd" stroke="#9a32cd" points="171.54,-28.48 161.05,-29.96 170.18,-35.34 171.54,-28.48"/>
</a>
</g>
<text text-anchor="middle" x="233" y="-55" font-family="Helvetica,sans-Serif" font-size="10.00" fill="grey"> parameterHistory</text>
</g>
</g>
</svg>
