<?xml version="1.0" encoding="UTF-8" standalone="no"?>
<!DOCTYPE svg PUBLIC "-//W3C//DTD SVG 1.1//EN"
 "http://www.w3.org/Graphics/SVG/1.1/DTD/svg11.dtd">
<!-- Generated by graphviz version 2.43.0 (0)
 -->
<!-- Title: DirektDSP::DirektBaseEditor Pages: 1 -->
<svg width="1573pt" height="652pt"
 viewBox="0.00 0.00 1573.00 652.00" xmlns="http://www.w3.org/2000/svg" xmlns:xlink="http://www.w3.org/1999/xlink">
<g id="graph0" class="graph" transform="scale(1 1) rotate(0) translate(4 648)">
<title>DirektDSP::DirektBaseEditor</title>
<!-- Node1 -->
<g id="Node000001" class="node">
<title>Node1</title>
<g id="a_Node000001"><a xlink:title=" ">
<polygon fill="#999999" stroke="#666666" points="1565,-357 1410,-357 1410,-338 1565,-338 1565,-357"/>
<text text-anchor="middle" x="1487.5" y="-345" font-family="Helvetica,sans-Serif" font-size="10.00">DirektDSP::DirektBaseEditor</text>
</a>
</g>
</g>
<!-- Node2 -->
<g id="Node000002" class="node">
<title>Node2</title>
<g id="a_Node000002"><a xlink:title=" ">
<polygon fill="white" stroke="#666666" points="1288,-644 1142,-644 1142,-625 1288,-625 1288,-644"/>
<text text-anchor="middle" x="1215" y="-632" font-family="Helvetica,sans-Serif" font-size="10.00">juce::AudioProcessorEditor</text>
</a>
</g>
</g>
<!-- Node2&#45;&gt;Node1 -->
<g id="edge1_Node000001_Node000002" class="edge">
<title>Node2&#45;&gt;Node1</title>
<g id="a_edge1_Node000001_Node000002"><a xlink:title=" ">
<path fill="none" stroke="#63b8ff" d="M1298.37,-638.04C1330.7,-635.37 1366.17,-626.88 1392,-605.5 1473.02,-538.43 1484.58,-395.49 1486.23,-357.14"/>
<polygon fill="#63b8ff" stroke="#63b8ff" points="1297.76,-634.57 1288,-638.71 1298.21,-641.55 1297.76,-634.57"/>
</a>
</g>
</g>
<!-- Node3 -->
<g id="Node000003" class="node">
<title>Node3</title>
<g id="a_Node000003"><a xlink:title=" ">
<polygon fill="white" stroke="#666666" points="1279.5,-606.5 1150.5,-606.5 1150.5,-576.5 1279.5,-576.5 1279.5,-606.5"/>
<text text-anchor="start" x="1158.5" y="-594.5" font-family="Helvetica,sans-Serif" font-size="10.00">std::vector&lt; DirektDSP</text>
<text text-anchor="middle" x="1215" y="-583.5" font-family="Helvetica,sans-Serif" font-size="10.00">::BuiltSection &gt;</text>
</a>
</g>
</g>
<!-- Node3&#45;&gt;Node1 -->
<g id="edge2_Node000001_Node000003" class="edge">
<title>Node3&#45;&gt;Node1</title>
<g id="a_edge2_Node000001_Node000003"><a xlink:title=" ">
<path fill="none" stroke="#9a32cd" stroke-dasharray="5,2" d="M1290.08,-594.78C1324.22,-592.67 1363.4,-584.7 1392,-562.5 1461.9,-508.25 1481.2,-391.49 1485.46,-357.17"/>
<polygon fill="#9a32cd" stroke="#9a32cd" points="1289.5,-591.3 1279.67,-595.25 1289.82,-598.29 1289.5,-591.3"/>
</a>
</g>
<text text-anchor="middle" x="1355" y="-593.5" font-family="Helvetica,sans-Serif" font-size="10.00" fill="grey"> builtSections</text>
</g>
<!-- Node4 -->
<g id="Node000004" class="node">
<title>Node4</title>
<g id="a_Node000004"><a xlink:href="structDirektDSP_1_1BuiltSection.html" target="_top" xlink:title=" ">
<polygon fill="white" stroke="#666666" points="976,-601 845,-601 845,-582 976,-582 976,-601"/>
<text text-anchor="middle" x="910.5" y="-589" font-family="Helvetica,sans-Serif" font-size="10.00">DirektDSP::BuiltSection</text>
</a>
</g>
</g>
<!-- Node4&#45;&gt;Node3 -->
<g id="edge3_Node000003_Node000004" class="edge">
<title>Node4&#45;&gt;Node3</title>
<g id="a_edge3_Node000003_Node000004"><a xlink:title=" ">
<path fill="none" stroke="#9a32cd" stroke-dasharray="5,2" d="M986.21,-591.5C1036.62,-591.5 1102.44,-591.5 1150.36,-591.5"/>
<polygon fill="#9a32cd" stroke="#9a32cd" points="986.02,-588 976.02,-591.5 986.02,-595 986.02,-588"/>
</a>
</g>
<text text-anchor="middle" x="1063.5" y="-594.5" font-family="Helvetica,sans-Serif" font-size="10.00" fill="grey"> elements</text>
</g>
<!-- Node5 -->
<g id="Node000005" class="node">
<title>Node5</title>
<g id="a_Node000005"><a xlink:title=" ">
<polygon fill="white" stroke="#666666" points="618.5,-616.5 468.5,-616.5 468.5,-586.5 618.5,-586.5 618.5,-616.5"/>
<text text-anchor="start" x="476.5" y="-604.5" font-family="Helvetica,sans-Serif" font-size="10.00">std::unique_ptr&lt; DirektDSP</text>
<text text-anchor="middle" x="543.5" y="-593.5" font-family="Helvetica,sans-Serif" font-size="10.00">::DirektSection &gt;</text>
</a>
</g>
</g>
<!-- Node5&#45;&gt;Node4 -->
<g id="edge4_Node000004_Node000005" class="edge">
<title>Node5&#45;&gt;Node4</title>
<g id="a_edge4_Node000004_Node000005"><a xlink:title=" ">
<path fill="none" stroke="#9a32cd" stroke-dasharray="5,2" d="M629.14,-599.18C694.88,-597.38 784.69,-594.92 844.77,-593.27"/>
<polygon fill="#9a32cd" stroke="#9a32cd" points="628.7,-595.69 618.8,-599.46 628.9,-602.69 628.7,-595.69"/>
</a>
</g>
<text text-anchor="middle" x="727" y="-601.5" font-family="Helvetica,sans-Serif" font-size="10.00" fill="grey"> section</text>
</g>
<!-- Node6 -->
<g id="Node000006" class="node">
<title>Node6</title>
<g id="a_Node000006"><a xlink:href="classDirektDSP_1_1DirektSection.html" target="_top" xlink:title=" ">
<polygon fill="#fff0f0" stroke="red" points="281,-572 143,-572 143,-553 281,-553 281,-572"/>
<text text-anchor="middle" x="212" y="-560" font-family="Helvetica,sans-Serif" font-size="10.00">DirektDSP::DirektSection</text>
</a>
</g>
</g>
<!-- Node6&#45;&gt;Node5 -->
<g id="edge5_Node000005_Node000006" class="edge">
<title>Node6&#45;&gt;Node5</title>
<g id="a_edge5_Node000005_Node000006"><a xlink:title=" ">
<path fill="none" stroke="#9a32cd" stroke-dasharray="5,2" d="M291.42,-571.78C345.02,-578.13 415.61,-586.48 468.3,-592.72"/>
<polygon fill="#9a32cd" stroke="#9a32cd" points="291.61,-568.28 281.27,-570.58 290.79,-575.23 291.61,-568.28"/>
</a>
</g>
<text text-anchor="middle" x="372.5" y="-591.5" font-family="Helvetica,sans-Serif" font-size="10.00" fill="grey"> ptr</text>
</g>
<!-- Node7 -->
<g id="Node000007" class="node">
<title>Node7</title>
<g id="a_Node000007"><a xlink:title=" ">
<polygon fill="white" stroke="#666666" points="99,-373 0,-373 0,-354 99,-354 99,-373"/>
<text text-anchor="middle" x="49.5" y="-361" font-family="Helvetica,sans-Serif" font-size="10.00">juce::Component</text>
</a>
</g>
</g>
<!-- Node7&#45;&gt;Node6 -->
<g id="edge6_Node000006_Node000007" class="edge">
<title>Node7&#45;&gt;Node6</title>
<g id="a_edge6_Node000006_Node000007"><a xlink:title=" ">
<path fill="none" stroke="#63b8ff" d="M55.59,-383.1C65.49,-417.58 90.46,-489.41 136,-531.5 146.55,-541.25 160.6,-548.16 173.69,-552.93"/>
<polygon fill="#63b8ff" stroke="#63b8ff" points="58.92,-382.02 52.9,-373.31 52.17,-383.88 58.92,-382.02"/>
</a>
</g>
</g>
<!-- Node13 -->
<g id="Node000013" class="node">
<title>Node13</title>
<g id="a_Node000013"><a xlink:href="classDirektDSP_1_1DirektHeader.html" target="_top" xlink:title=" ">
<polygon fill="white" stroke="#666666" points="979,-461 842,-461 842,-442 979,-442 979,-461"/>
<text text-anchor="middle" x="910.5" y="-449" font-family="Helvetica,sans-Serif" font-size="10.00">DirektDSP::DirektHeader</text>
</a>
</g>
</g>
<!-- Node7&#45;&gt;Node13 -->
<g id="edge12_Node000013_Node000007" class="edge">
<title>Node7&#45;&gt;Node13</title>
<g id="a_edge12_Node000013_Node000007"><a xlink:title=" ">
<path fill="none" stroke="#63b8ff" d="M103.58,-375.02C108.11,-375.9 112.63,-376.74 117,-377.5 351.69,-418.37 410.36,-433.94 648,-450.5 713.78,-455.08 789.1,-454.79 841.96,-453.67"/>
<polygon fill="#63b8ff" stroke="#63b8ff" points="104.19,-371.57 93.7,-373.05 102.82,-378.44 104.19,-371.57"/>
</a>
</g>
</g>
<!-- Node15 -->
<g id="Node000015" class="node">
<title>Node15</title>
<g id="a_Node000015"><a xlink:href="classDirektDSP_1_1DirektFooter.html" target="_top" xlink:title=" ">
<polygon fill="white" stroke="#666666" points="439,-373 306,-373 306,-354 439,-354 439,-373"/>
<text text-anchor="middle" x="372.5" y="-361" font-family="Helvetica,sans-Serif" font-size="10.00">DirektDSP::DirektFooter</text>
</a>
</g>
</g>
<!-- Node7&#45;&gt;Node15 -->
<g id="edge15_Node000015_Node000007" class="edge">
<title>Node7&#45;&gt;Node15</title>
<g id="a_edge15_Node000015_Node000007"><a xlink:title=" ">
<path fill="none" stroke="#63b8ff" d="M109.3,-363.5C164.87,-363.5 248.12,-363.5 305.85,-363.5"/>
<polygon fill="#63b8ff" stroke="#63b8ff" points="109.25,-360 99.25,-363.5 109.25,-367 109.25,-360"/>
</a>
</g>
</g>
<!-- Node16 -->
<g id="Node000016" class="node">
<title>Node16</title>
<g id="a_Node000016"><a xlink:href="classDirektDSP_1_1DirektPopupPanel.html" target="_top" xlink:title=" ">
<polygon fill="white" stroke="#666666" points="806,-331 648,-331 648,-312 806,-312 806,-331"/>
<text text-anchor="middle" x="727" y="-319" font-family="Helvetica,sans-Serif" font-size="10.00">DirektDSP::DirektPopupPanel</text>
</a>
</g>
</g>
<!-- Node7&#45;&gt;Node16 -->
<g id="edge17_Node000016_Node000007" class="edge">
<title>Node7&#45;&gt;Node16</title>
<g id="a_edge17_Node000016_Node000007"><a xlink:title=" ">
<path fill="none" stroke="#63b8ff" d="M109.47,-359.12C161.25,-355.33 238.6,-349.8 306,-345.5 425.17,-337.9 563.44,-330.22 647.8,-325.66"/>
<polygon fill="#63b8ff" stroke="#63b8ff" points="109.19,-355.63 99.47,-359.86 109.7,-362.62 109.19,-355.63"/>
</a>
</g>
</g>
<!-- Node20 -->
<g id="Node000020" class="node">
<title>Node20</title>
<g id="a_Node000020"><a xlink:href="classDirektDSP_1_1DirektPresetBrowser.html" target="_top" xlink:title=" ">
<polygon fill="white" stroke="#666666" points="997,-236 824,-236 824,-217 997,-217 997,-236"/>
<text text-anchor="middle" x="910.5" y="-224" font-family="Helvetica,sans-Serif" font-size="10.00">DirektDSP::DirektPresetBrowser</text>
</a>
</g>
</g>
<!-- Node7&#45;&gt;Node20 -->
<g id="edge23_Node000020_Node000007" class="edge">
<title>Node7&#45;&gt;Node20</title>
<g id="a_edge23_Node000020_Node000007"><a xlink:title=" ">
<path fill="none" stroke="#63b8ff" d="M52.3,-343.8C57.23,-302.67 74.99,-208.13 136,-167.5 260.01,-84.91 661.39,-156.63 806,-192.5 832.99,-199.19 863.11,-209.41 883.86,-216.9"/>
<polygon fill="#63b8ff" stroke="#63b8ff" points="48.8,-343.58 51.22,-353.9 55.76,-344.32 48.8,-343.58"/>
</a>
</g>
</g>
<!-- Node9 -->
<g id="Node000009" class="node">
<title>Node9</title>
<g id="a_Node000009"><a xlink:title=" ">
<polygon fill="white" stroke="#666666" points="619.5,-559.5 467.5,-559.5 467.5,-529.5 619.5,-529.5 619.5,-559.5"/>
<text text-anchor="start" x="475.5" y="-547.5" font-family="Helvetica,sans-Serif" font-size="10.00">std::vector&lt; std::unique</text>
<text text-anchor="middle" x="543.5" y="-536.5" font-family="Helvetica,sans-Serif" font-size="10.00">_ptr&lt; juce::Component &gt; &gt;</text>
</a>
</g>
</g>
<!-- Node9&#45;&gt;Node1 -->
<g id="edge38_Node000001_Node000009" class="edge">
<title>Node9&#45;&gt;Node1</title>
<g id="a_edge38_Node000001_Node000009"><a xlink:title=" ">
<path fill="none" stroke="#9a32cd" stroke-dasharray="5,2" d="M629.81,-548.07C800.11,-554.32 1176.45,-563.49 1300,-528.5 1345.62,-515.58 1356.7,-506.15 1392,-474.5 1433.33,-437.44 1468.28,-379.79 1481.18,-357.12"/>
<polygon fill="#9a32cd" stroke="#9a32cd" points="629.76,-544.57 619.64,-547.69 629.5,-551.56 629.76,-544.57"/>
</a>
</g>
<text text-anchor="middle" x="1063.5" y="-555.5" font-family="Helvetica,sans-Serif" font-size="10.00" fill="grey"> ownedComponents</text>
</g>
<!-- Node9&#45;&gt;Node4 -->
<g id="edge7_Node000004_Node000009" class="edge">
<title>Node9&#45;&gt;Node4</title>
<g id="a_edge7_Node000004_Node000009"><a xlink:title=" ">
<path fill="none" stroke="#9a32cd" stroke-dasharray="5,2" d="M629.95,-557.04C636.06,-557.88 642.12,-558.71 648,-559.5 715.1,-568.47 792.01,-577.76 844.97,-584.01"/>
<polygon fill="#9a32cd" stroke="#9a32cd" points="630.05,-553.51 619.66,-555.59 629.07,-560.45 630.05,-553.51"/>
</a>
</g>
<text text-anchor="middle" x="727" y="-581.5" font-family="Helvetica,sans-Serif" font-size="10.00" fill="grey"> controls</text>
</g>
<!-- Node32 -->
<g id="Node000032" class="node">
<title>Node32</title>
<g id="a_Node000032"><a xlink:href="structDirektDSP_1_1BuiltNode.html" target="_top" xlink:title=" ">
<polygon fill="white" stroke="#666666" points="970.5,-508 850.5,-508 850.5,-489 970.5,-489 970.5,-508"/>
<text text-anchor="middle" x="910.5" y="-496" font-family="Helvetica,sans-Serif" font-size="10.00">DirektDSP::BuiltNode</text>
</a>
</g>
</g>
<!-- Node9&#45;&gt;Node32 -->
<g id="edge37_Node000032_Node000009" class="edge">
<title>Node9&#45;&gt;Node32</title>
<g id="a_edge37_Node000032_Node000009"><a xlink:title=" ">
<path fill="none" stroke="#9a32cd" stroke-dasharray="5,2" d="M623.42,-527.6C631.7,-526.09 640.01,-524.69 648,-523.5 717.13,-513.21 797.2,-506.28 850.35,-502.38"/>
<polygon fill="#9a32cd" stroke="#9a32cd" points="622.54,-524.2 613.36,-529.48 623.83,-531.08 622.54,-524.2"/>
</a>
</g>
<text text-anchor="middle" x="727" y="-526.5" font-family="Helvetica,sans-Serif" font-size="10.00" fill="grey"> ownedChildren</text>
</g>
<!-- Node10 -->
<g id="Node000010" class="node">
<title>Node10</title>
<g id="a_Node000010"><a xlink:title=" ">
<polygon fill="white" stroke="#666666" points="272.5,-522.5 151.5,-522.5 151.5,-492.5 272.5,-492.5 272.5,-522.5"/>
<text text-anchor="start" x="159.5" y="-510.5" font-family="Helvetica,sans-Serif" font-size="10.00">std::unique_ptr&lt; juce</text>
<text text-anchor="middle" x="212" y="-499.5" font-family="Helvetica,sans-Serif" font-size="10.00">::Component &gt;</text>
</a>
</g>
</g>
<!-- Node10&#45;&gt;Node9 -->
<g id="edge8_Node000009_Node000010" class="edge">
<title>Node10&#45;&gt;Node9</title>
<g id="a_edge8_Node000009_Node000010"><a xlink:title=" ">
<path fill="none" stroke="#9a32cd" stroke-dasharray="5,2" d="M282.87,-515.35C337.02,-521.43 411.92,-529.84 467.36,-536.06"/>
<polygon fill="#9a32cd" stroke="#9a32cd" points="283,-511.84 272.67,-514.2 282.22,-518.79 283,-511.84"/>
</a>
</g>
<text text-anchor="middle" x="372.5" y="-535.5" font-family="Helvetica,sans-Serif" font-size="10.00" fill="grey"> elements</text>
</g>
<!-- Node10&#45;&gt;Node32 -->
<g id="edge36_Node000032_Node000010" class="edge">
<title>Node10&#45;&gt;Node32</title>
<g id="a_edge36_Node000032_Node000010"><a xlink:title=" ">
<path fill="none" stroke="#9a32cd" stroke-dasharray="5,2" d="M283.07,-506.59C420.33,-504.82 722.36,-500.92 850.33,-499.26"/>
<polygon fill="#9a32cd" stroke="#9a32cd" points="282.64,-503.1 272.68,-506.73 282.73,-510.1 282.64,-503.1"/>
</a>
</g>
<text text-anchor="middle" x="543.5" y="-506.5" font-family="Helvetica,sans-Serif" font-size="10.00" fill="grey"> component</text>
</g>
<!-- Node11 -->
<g id="Node000011" class="node">
<title>Node11</title>
<g id="a_Node000011"><a xlink:href="classDirektDSP_1_1DirektLookAndFeel.html" target="_top" xlink:title=" ">
<polygon fill="white" stroke="#666666" points="992.5,-114 828.5,-114 828.5,-95 992.5,-95 992.5,-114"/>
<text text-anchor="middle" x="910.5" y="-102" font-family="Helvetica,sans-Serif" font-size="10.00">DirektDSP::DirektLookAndFeel</text>
</a>
</g>
</g>
<!-- Node11&#45;&gt;Node1 -->
<g id="edge9_Node000001_Node000011" class="edge">
<title>Node11&#45;&gt;Node1</title>
<g id="a_edge9_Node000001_Node000011"><a xlink:title=" ">
<path fill="none" stroke="#9a32cd" stroke-dasharray="5,2" d="M1001.07,-115.24C1111.34,-128.58 1285.87,-150.13 1300,-154.5 1343.86,-168.08 1357.92,-170.73 1392,-201.5 1438.17,-243.18 1471.23,-312.32 1482.38,-337.74"/>
<polygon fill="#9a32cd" stroke="#9a32cd" points="1001.29,-111.74 990.94,-114.02 1000.45,-118.69 1001.29,-111.74"/>
</a>
</g>
<text text-anchor="middle" x="1215" y="-157.5" font-family="Helvetica,sans-Serif" font-size="10.00" fill="grey"> lookAndFeel</text>
</g>
<!-- Node33 -->
<g id="Node000033" class="node">
<title>Node33</title>
<g id="a_Node000033"><a xlink:href="structDirektDSP_1_1BuildContext.html" target="_top" xlink:title=" ">
<polygon fill="white" stroke="#666666" points="1282.5,-104 1147.5,-104 1147.5,-85 1282.5,-85 1282.5,-104"/>
<text text-anchor="middle" x="1215" y="-92" font-family="Helvetica,sans-Serif" font-size="10.00">DirektDSP::BuildContext</text>
</a>
</g>
</g>
<!-- Node11&#45;&gt;Node33 -->
<g id="edge40_Node000033_Node000011" class="edge">
<title>Node11&#45;&gt;Node33</title>
<g id="a_edge40_Node000033_Node000011"><a xlink:title=" ">
<path fill="none" stroke="#9a32cd" stroke-dasharray="5,2" d="M1002.63,-101.49C1049.08,-99.95 1104.56,-98.12 1147.02,-96.71"/>
<polygon fill="#9a32cd" stroke="#9a32cd" points="1002.44,-97.99 992.56,-101.82 1002.67,-104.99 1002.44,-97.99"/>
</a>
</g>
<text text-anchor="middle" x="1063.5" y="-104.5" font-family="Helvetica,sans-Serif" font-size="10.00" fill="grey"> lookAndFeel</text>
</g>
<!-- Node12 -->
<g id="Node000012" class="node">
<title>Node12</title>
<g id="a_Node000012"><a xlink:title=" ">
<polygon fill="white" stroke="#666666" points="605,-78 482,-78 482,-59 605,-59 605,-78"/>
<text text-anchor="middle" x="543.5" y="-66" font-family="Helvetica,sans-Serif" font-size="10.00">juce::LookAndFeel_V4</text>
</a>
</g>
</g>
<!-- Node12&#45;&gt;Node11 -->
<g id="edge10_Node000011_Node000012" class="edge">
<title>Node12&#45;&gt;Node11</title>
<g id="a_edge10_Node000011_Node000012"><a xlink:title=" ">
<path fill="none" stroke="#63b8ff" d="M615.49,-69.83C668.23,-71.49 741.84,-75.19 806,-83.5 827.09,-86.23 850.32,-90.8 869.42,-94.98"/>
<polygon fill="#63b8ff" stroke="#63b8ff" points="615.33,-66.33 605.23,-69.53 615.12,-73.32 615.33,-66.33"/>
</a>
</g>
</g>
<!-- Node13&#45;&gt;Node1 -->
<g id="edge11_Node000001_Node000013" class="edge">
<title>Node13&#45;&gt;Node1</title>
<g id="a_edge11_Node000001_Node000013"><a xlink:title=" ">
<path fill="none" stroke="#9a32cd" stroke-dasharray="5,2" d="M989.4,-459.75C1086.9,-467.08 1257.42,-469.97 1392,-419.5 1428.31,-405.88 1462.25,-373.44 1477.72,-357.16"/>
<polygon fill="#9a32cd" stroke="#9a32cd" points="989.58,-456.25 979.33,-458.95 989.03,-463.23 989.58,-456.25"/>
</a>
</g>
<text text-anchor="middle" x="1215" y="-465.5" font-family="Helvetica,sans-Serif" font-size="10.00" fill="grey"> header</text>
</g>
<!-- Node14 -->
<g id="Node000014" class="node">
<title>Node14</title>
<g id="a_Node000014"><a xlink:href="classService_1_1PresetManager.html" target="_top" xlink:title=" ">
<polygon fill="white" stroke="#666666" points="609.5,-415 477.5,-415 477.5,-396 609.5,-396 609.5,-415"/>
<text text-anchor="middle" x="543.5" y="-403" font-family="Helvetica,sans-Serif" font-size="10.00">Service::PresetManager</text>
</a>
</g>
</g>
<!-- Node14&#45;&gt;Node1 -->
<g id="edge20_Node000001_Node000014" class="edge">
<title>Node14&#45;&gt;Node1</title>
<g id="a_edge20_Node000001_Node000014"><a xlink:title=" ">
<path fill="none" stroke="#9a32cd" stroke-dasharray="5,2" d="M619.93,-410.93C768.96,-419.98 1111.05,-432.42 1392,-380.5 1417.97,-375.7 1446.42,-364.97 1465.24,-357.04"/>
<polygon fill="#9a32cd" stroke="#9a32cd" points="619.73,-407.41 609.53,-410.28 619.3,-414.4 619.73,-407.41"/>
</a>
</g>
<text text-anchor="middle" x="1063.5" y="-419.5" font-family="Helvetica,sans-Serif" font-size="10.00" fill="grey"> presetManager</text>
</g>
<!-- Node14&#45;&gt;Node13 -->
<g id="edge13_Node000013_Node000014" class="edge">
<title>Node14&#45;&gt;Node13</title>
<g id="a_edge13_Node000013_Node000014"><a xlink:title=" ">
<path fill="none" stroke="#9a32cd" stroke-dasharray="5,2" d="M619.98,-415.01C685.26,-423.24 778.79,-435.03 841.72,-442.96"/>
<polygon fill="#9a32cd" stroke="#9a32cd" points="620.11,-411.5 609.75,-413.72 619.24,-418.45 620.11,-411.5"/>
</a>
</g>
<text text-anchor="middle" x="727" y="-440.5" font-family="Helvetica,sans-Serif" font-size="10.00" fill="grey"> presetManager</text>
</g>
<!-- Node14&#45;&gt;Node20 -->
<g id="edge24_Node000020_Node000014" class="edge">
<title>Node14&#45;&gt;Node20</title>
<g id="a_edge24_Node000020_Node000014"><a xlink:title=" ">
<path fill="none" stroke="#9a32cd" stroke-dasharray="5,2" d="M594.29,-393.51C668.87,-375.5 801.39,-343.25 806,-340.5 852.12,-312.94 889.62,-258.38 903.61,-236.21"/>
<polygon fill="#9a32cd" stroke="#9a32cd" points="593.07,-390.2 584.17,-395.95 594.72,-397.01 593.07,-390.2"/>
</a>
</g>
<text text-anchor="middle" x="727" y="-382.5" font-family="Helvetica,sans-Serif" font-size="10.00" fill="grey"> presetManager</text>
</g>
<!-- Node15&#45;&gt;Node1 -->
<g id="edge14_Node000001_Node000015" class="edge">
<title>Node15&#45;&gt;Node1</title>
<g id="a_edge14_Node000001_Node000015"><a xlink:title=" ">
<path fill="none" stroke="#9a32cd" stroke-dasharray="5,2" d="M449.26,-362.67C504.38,-362.06 580.82,-361.23 648,-360.5 978.67,-356.92 1061.48,-363.02 1392,-352.5 1397.83,-352.31 1403.86,-352.08 1409.92,-351.83"/>
<polygon fill="#9a32cd" stroke="#9a32cd" points="449.19,-359.17 439.22,-362.78 449.26,-366.17 449.19,-359.17"/>
</a>
</g>
<text text-anchor="middle" x="910.5" y="-361.5" font-family="Helvetica,sans-Serif" font-size="10.00" fill="grey"> footer</text>
</g>
<!-- Node16&#45;&gt;Node1 -->
<g id="edge16_Node000001_Node000016" class="edge">
<title>Node16&#45;&gt;Node1</title>
<g id="a_edge16_Node000001_Node000016"><a xlink:title=" ">
<path fill="none" stroke="#9a32cd" stroke-dasharray="5,2" d="M816.41,-324.53C966.37,-329.67 1268.08,-340.01 1409.74,-344.87"/>
<polygon fill="#9a32cd" stroke="#9a32cd" points="816.43,-321.03 806.32,-324.18 816.19,-328.03 816.43,-321.03"/>
</a>
</g>
<text text-anchor="middle" x="1063.5" y="-337.5" font-family="Helvetica,sans-Serif" font-size="10.00" fill="grey"> popup</text>
</g>
<!-- Node17 -->
<g id="Node000017" class="node">
<title>Node17</title>
<g id="a_Node000017"><a xlink:title=" ">
<polygon fill="white" stroke="#666666" points="1275.5,-300.5 1154.5,-300.5 1154.5,-270.5 1275.5,-270.5 1275.5,-300.5"/>
<text text-anchor="start" x="1162.5" y="-288.5" font-family="Helvetica,sans-Serif" font-size="10.00">std::unique_ptr&lt; juce</text>
<text text-anchor="middle" x="1215" y="-277.5" font-family="Helvetica,sans-Serif" font-size="10.00">::TooltipWindow &gt;</text>
</a>
</g>
</g>
<!-- Node17&#45;&gt;Node1 -->
<g id="edge18_Node000001_Node000017" class="edge">
<title>Node17&#45;&gt;Node1</title>
<g id="a_edge18_Node000001_Node000017"><a xlink:title=" ">
<path fill="none" stroke="#9a32cd" stroke-dasharray="5,2" d="M1285.94,-287.3C1318.63,-289.49 1357.8,-294.08 1392,-303.5 1420.96,-311.48 1452.1,-327.61 1470.41,-337.97"/>
<polygon fill="#9a32cd" stroke="#9a32cd" points="1285.77,-283.78 1275.57,-286.67 1285.34,-290.77 1285.77,-283.78"/>
</a>
</g>
<text text-anchor="middle" x="1355" y="-306.5" font-family="Helvetica,sans-Serif" font-size="10.00" fill="grey"> tooltipWindow</text>
</g>
<!-- Node18 -->
<g id="Node000018" class="node">
<title>Node18</title>
<g id="a_Node000018"><a xlink:title=" ">
<polygon fill="white" stroke="#666666" points="1300,-252.5 1130,-252.5 1130,-222.5 1300,-222.5 1300,-252.5"/>
<text text-anchor="start" x="1138" y="-240.5" font-family="Helvetica,sans-Serif" font-size="10.00">std::unique_ptr&lt; juce</text>
<text text-anchor="middle" x="1215" y="-229.5" font-family="Helvetica,sans-Serif" font-size="10.00">::ResizableCornerComponent &gt;</text>
</a>
</g>
</g>
<!-- Node18&#45;&gt;Node1 -->
<g id="edge19_Node000001_Node000018" class="edge">
<title>Node18&#45;&gt;Node1</title>
<g id="a_edge19_Node000001_Node000018"><a xlink:title=" ">
<path fill="none" stroke="#9a32cd" stroke-dasharray="5,2" d="M1310.3,-249.23C1337.48,-254.74 1366.63,-262.79 1392,-274.5 1427.2,-290.75 1461.4,-322.21 1477.28,-337.99"/>
<polygon fill="#9a32cd" stroke="#9a32cd" points="1310.87,-245.78 1300.39,-247.31 1309.54,-252.65 1310.87,-245.78"/>
</a>
</g>
<text text-anchor="middle" x="1355" y="-277.5" font-family="Helvetica,sans-Serif" font-size="10.00" fill="grey"> resizer</text>
</g>
<!-- Node19 -->
<g id="Node000019" class="node">
<title>Node19</title>
<g id="a_Node000019"><a xlink:title=" ">
<polygon fill="white" stroke="#666666" points="1290,-204.5 1140,-204.5 1140,-174.5 1290,-174.5 1290,-204.5"/>
<text text-anchor="start" x="1148" y="-192.5" font-family="Helvetica,sans-Serif" font-size="10.00">std::unique_ptr&lt; DirektDSP</text>
<text text-anchor="middle" x="1215" y="-181.5" font-family="Helvetica,sans-Serif" font-size="10.00">::DirektPresetBrowser &gt;</text>
</a>
</g>
</g>
<!-- Node19&#45;&gt;Node1 -->
<g id="edge21_Node000001_Node000019" class="edge">
<title>Node19&#45;&gt;Node1</title>
<g id="a_edge21_Node000001_Node000019"><a xlink:title=" ">
<path fill="none" stroke="#9a32cd" stroke-dasharray="5,2" d="M1300.06,-201.19C1330.67,-208.13 1364.49,-219.13 1392,-236.5 1434.8,-263.53 1468.4,-316.07 1481.06,-337.77"/>
<polygon fill="#9a32cd" stroke="#9a32cd" points="1300.75,-197.76 1290.24,-199.07 1299.28,-204.6 1300.75,-197.76"/>
</a>
</g>
<text text-anchor="middle" x="1355" y="-239.5" font-family="Helvetica,sans-Serif" font-size="10.00" fill="grey"> presetBrowser</text>
</g>
<!-- Node20&#45;&gt;Node19 -->
<g id="edge22_Node000019_Node000020" class="edge">
<title>Node20&#45;&gt;Node19</title>
<g id="a_edge22_Node000019_Node000020"><a xlink:title=" ">
<path fill="none" stroke="#9a32cd" stroke-dasharray="5,2" d="M999.34,-215.76C1043.85,-210.31 1097.32,-203.77 1139.75,-198.58"/>
<polygon fill="#9a32cd" stroke="#9a32cd" points="998.9,-212.28 989.4,-216.97 999.75,-219.23 998.9,-212.28"/>
</a>
</g>
<text text-anchor="middle" x="1063.5" y="-215.5" font-family="Helvetica,sans-Serif" font-size="10.00" fill="grey"> ptr</text>
</g>
<!-- Node21 -->
<g id="Node000021" class="node">
<title>Node21</title>
<g id="a_Node000021"><a xlink:href="classDirektDSP_1_1DirektPresetBrowser_1_1CategoryListModel.html" target="_top" xlink:title=" ">
<polygon fill="white" stroke="#666666" points="630,-297.5 457,-297.5 457,-267.5 630,-267.5 630,-297.5"/>
<text text-anchor="start" x="465" y="-285.5" font-family="Helvetica,sans-Serif" font-size="10.00">DirektDSP::DirektPresetBrowser</text>
<text text-anchor="middle" x="543.5" y="-274.5" font-family="Helvetica,sans-Serif" font-size="10.00">::CategoryListModel</text>
</a>
</g>
</g>
<!-- Node21&#45;&gt;Node20 -->
<g id="edge25_Node000020_Node000021" class="edge">
<title>Node21&#45;&gt;Node20</title>
<g id="a_edge25_Node000020_Node000021"><a xlink:title=" ">
<path fill="none" stroke="#9a32cd" stroke-dasharray="5,2" d="M640.13,-270.6C689.72,-264.1 751.22,-255.56 806,-246.5 824.69,-243.41 845.18,-239.55 862.97,-236.05"/>
<polygon fill="#9a32cd" stroke="#9a32cd" points="639.53,-267.15 630.06,-271.91 640.43,-274.09 639.53,-267.15"/>
</a>
</g>
<text text-anchor="middle" x="727" y="-271.5" font-family="Helvetica,sans-Serif" font-size="10.00" fill="grey"> categoryModel</text>
</g>
<!-- Node22 -->
<g id="Node000022" class="node">
<title>Node22</title>
<g id="a_Node000022"><a xlink:title=" ">
<polygon fill="white" stroke="#666666" points="266.5,-293 157.5,-293 157.5,-274 266.5,-274 266.5,-293"/>
<text text-anchor="middle" x="212" y="-281" font-family="Helvetica,sans-Serif" font-size="10.00">juce::ListBoxModel</text>
</a>
</g>
</g>
<!-- Node22&#45;&gt;Node21 -->
<g id="edge26_Node000021_Node000022" class="edge">
<title>Node22&#45;&gt;Node21</title>
<g id="a_edge26_Node000021_Node000022"><a xlink:title=" ">
<path fill="none" stroke="#63b8ff" d="M276.96,-283.31C328.25,-283.15 400.71,-282.93 456.98,-282.76"/>
<polygon fill="#63b8ff" stroke="#63b8ff" points="276.66,-279.81 266.67,-283.34 276.68,-286.81 276.66,-279.81"/>
</a>
</g>
</g>
<!-- Node23 -->
<g id="Node000023" class="node">
<title>Node23</title>
<g id="a_Node000023"><a xlink:href="classDirektDSP_1_1DirektPresetBrowser_1_1PresetListModel.html" target="_top" xlink:title=" ">
<polygon fill="white" stroke="#666666" points="630,-249.5 457,-249.5 457,-219.5 630,-219.5 630,-249.5"/>
<text text-anchor="start" x="465" y="-237.5" font-family="Helvetica,sans-Serif" font-size="10.00">DirektDSP::DirektPresetBrowser</text>
<text text-anchor="middle" x="543.5" y="-226.5" font-family="Helvetica,sans-Serif" font-size="10.00">::PresetListModel</text>
</a>
</g>
</g>
<!-- Node22&#45;&gt;Node23 -->
<g id="edge28_Node000023_Node000022" class="edge">
<title>Node22&#45;&gt;Node23</title>
<g id="a_edge28_Node000023_Node000022"><a xlink:title=" ">
<path fill="none" stroke="#63b8ff" d="M276.64,-274.04C327.95,-266.41 400.59,-255.6 456.98,-247.22"/>
<polygon fill="#63b8ff" stroke="#63b8ff" points="276.05,-270.59 266.67,-275.52 277.08,-277.51 276.05,-270.59"/>
</a>
</g>
</g>
<!-- Node23&#45;&gt;Node20 -->
<g id="edge27_Node000020_Node000023" class="edge">
<title>Node23&#45;&gt;Node20</title>
<g id="a_edge27_Node000020_Node000023"><a xlink:title=" ">
<path fill="none" stroke="#9a32cd" stroke-dasharray="5,2" d="M640.17,-232.4C697.11,-231.16 768.75,-229.58 823.83,-228.38"/>
<polygon fill="#9a32cd" stroke="#9a32cd" points="640,-228.91 630.08,-232.62 640.15,-235.9 640,-228.91"/>
</a>
</g>
<text text-anchor="middle" x="727" y="-234.5" font-family="Helvetica,sans-Serif" font-size="10.00" fill="grey"> presetModel</text>
</g>
<!-- Node24 -->
<g id="Node000024" class="node">
<title>Node24</title>
<g id="a_Node000024"><a xlink:title=" ">
<polygon fill="#fff0f0" stroke="red" points="276.5,-254 147.5,-254 147.5,-213 276.5,-213 276.5,-254"/>
<text text-anchor="start" x="155.5" y="-242" font-family="Helvetica,sans-Serif" font-size="10.00">std::vector&lt; DirektDSP</text>
<text text-anchor="start" x="155.5" y="-231" font-family="Helvetica,sans-Serif" font-size="10.00">::DirektPresetBrowser</text>
<text text-anchor="middle" x="212" y="-220" font-family="Helvetica,sans-Serif" font-size="10.00">::PresetEntry &gt;</text>
</a>
</g>
</g>
<!-- Node24&#45;&gt;Node23 -->
<g id="edge29_Node000023_Node000024" class="edge">
<title>Node24&#45;&gt;Node23</title>
<g id="a_edge29_Node000023_Node000024"><a xlink:title=" ">
<path fill="none" stroke="#9a32cd" stroke-dasharray="5,2" d="M286.69,-233.72C337.06,-233.88 403.97,-234.08 456.73,-234.24"/>
<polygon fill="#9a32cd" stroke="#9a32cd" points="286.54,-230.22 276.53,-233.69 286.52,-237.22 286.54,-230.22"/>
</a>
</g>
<text text-anchor="middle" x="372.5" y="-236.5" font-family="Helvetica,sans-Serif" font-size="10.00" fill="grey"> presets</text>
</g>
<!-- Node26 -->
<g id="Node000026" class="node">
<title>Node26</title>
<g id="a_Node000026"><a xlink:title=" ">
<polygon fill="white" stroke="#666666" points="597,-201.5 490,-201.5 490,-171.5 597,-171.5 597,-201.5"/>
<text text-anchor="start" x="498" y="-189.5" font-family="Helvetica,sans-Serif" font-size="10.00">std::unordered_set</text>
<text text-anchor="middle" x="543.5" y="-178.5" font-family="Helvetica,sans-Serif" font-size="10.00">&lt; std::string &gt;</text>
</a>
</g>
</g>
<!-- Node26&#45;&gt;Node20 -->
<g id="edge30_Node000020_Node000026" class="edge">
<title>Node26&#45;&gt;Node20</title>
<g id="a_edge30_Node000020_Node000026"><a xlink:title=" ">
<path fill="none" stroke="#9a32cd" stroke-dasharray="5,2" d="M607.39,-192.6C660.38,-197.84 738.2,-205.74 806,-213.5 815.54,-214.59 825.56,-215.79 835.46,-217"/>
<polygon fill="#9a32cd" stroke="#9a32cd" points="607.42,-189.09 597.13,-191.59 606.74,-196.05 607.42,-189.09"/>
</a>
</g>
<text text-anchor="middle" x="727" y="-216.5" font-family="Helvetica,sans-Serif" font-size="10.00" fill="grey"> favoritePresetKeys</text>
</g>
<!-- Node27 -->
<g id="Node000027" class="node">
<title>Node27</title>
<g id="a_Node000027"><a xlink:title=" ">
<polygon fill="#fff0f0" stroke="red" points="244.5,-195 179.5,-195 179.5,-176 244.5,-176 244.5,-195"/>
<text text-anchor="middle" x="212" y="-183" font-family="Helvetica,sans-Serif" font-size="10.00">std::string</text>
</a>
</g>
</g>
<!-- Node27&#45;&gt;Node26 -->
<g id="edge31_Node000026_Node000027" class="edge">
<title>Node27&#45;&gt;Node26</title>
<g id="a_edge31_Node000026_Node000027"><a xlink:title=" ">
<path fill="none" stroke="#9a32cd" stroke-dasharray="5,2" d="M254.8,-185.63C314.56,-185.81 424.42,-186.14 489.72,-186.34"/>
<polygon fill="#9a32cd" stroke="#9a32cd" points="254.6,-182.13 244.59,-185.6 254.58,-189.13 254.6,-182.13"/>
</a>
</g>
<text text-anchor="middle" x="372.5" y="-188.5" font-family="Helvetica,sans-Serif" font-size="10.00" fill="grey"> keys</text>
</g>
<!-- Node29 -->
<g id="Node000029" class="node">
<title>Node29</title>
<g id="a_Node000029"><a xlink:href="classDirektDSP_1_1DirektParameterHistory.html" target="_top" xlink:title="Maintains undo/redo history for APVTS parameter edits.">
<polygon fill="white" stroke="#666666" points="986.5,-52.5 834.5,-52.5 834.5,-22.5 986.5,-22.5 986.5,-52.5"/>
<text text-anchor="start" x="842.5" y="-40.5" font-family="Helvetica,sans-Serif" font-size="10.00">DirektDSP::DirektParameter</text>
<text text-anchor="middle" x="910.5" y="-29.5" font-family="Helvetica,sans-Serif" font-size="10.00">History</text>
</a>
</g>
</g>
<!-- Node29&#45;&gt;Node1 -->
<g id="edge32_Node000001_Node000029" class="edge">
<title>Node29&#45;&gt;Node1</title>
<g id="a_edge32_Node000001_Node000029"><a xlink:title=" ">
<path fill="none" stroke="#9a32cd" stroke-dasharray="5,2" d="M986.58,-20.69C1091.07,-2.07 1280.1,13.54 1392,-85.5 1471.84,-156.17 1484.25,-299.47 1486.16,-337.86"/>
<polygon fill="#9a32cd" stroke="#9a32cd" points="985.94,-17.24 976.73,-22.49 987.2,-24.13 985.94,-17.24"/>
</a>
</g>
<text text-anchor="middle" x="1215" y="-33.5" font-family="Helvetica,sans-Serif" font-size="10.00" fill="grey"> parameterHistory</text>
</g>
<!-- Node29&#45;&gt;Node33 -->
<g id="edge41_Node000033_Node000029" class="edge">
<title>Node29&#45;&gt;Node33</title>
<g id="a_edge41_Node000033_Node000029"><a xlink:title=" ">
<path fill="none" stroke="#9a32cd" stroke-dasharray="5,2" d="M996.53,-53.52C1050.29,-63.65 1117.96,-76.4 1163.41,-84.97"/>
<polygon fill="#9a32cd" stroke="#9a32cd" points="997.14,-50.08 986.66,-51.66 995.84,-56.95 997.14,-50.08"/>
</a>
</g>
<text text-anchor="middle" x="1063.5" y="-77.5" font-family="Helvetica,sans-Serif" font-size="10.00" fill="grey"> parameterHistory</text>
</g>
<!-- Node30 -->
<g id="Node000030" class="node">
<title>Node30</title>
<g id="a_Node000030"><a xlink:title=" ">
<polygon fill="white" stroke="#666666" points="612.5,-41 474.5,-41 474.5,0 612.5,0 612.5,-41"/>
<text text-anchor="start" x="482.5" y="-29" font-family="Helvetica,sans-Serif" font-size="10.00">std::vector&lt; DirektDSP</text>
<text text-anchor="start" x="482.5" y="-18" font-family="Helvetica,sans-Serif" font-size="10.00">::DirektParameterHistory</text>
<text text-anchor="middle" x="543.5" y="-7" font-family="Helvetica,sans-Serif" font-size="10.00">::ParameterChange &gt;</text>
</a>
</g>
</g>
<!-- Node30&#45;&gt;Node29 -->
<g id="edge33_Node000029_Node000030" class="edge">
<title>Node30&#45;&gt;Node29</title>
<g id="a_edge33_Node000029_Node000030"><a xlink:title=" ">
<path fill="none" stroke="#9a32cd" stroke-dasharray="5,2" d="M622.94,-24.15C685.54,-27.07 772.67,-31.13 834.38,-34"/>
<polygon fill="#9a32cd" stroke="#9a32cd" points="622.88,-20.65 612.73,-23.68 622.55,-27.64 622.88,-20.65"/>
</a>
</g>
<text text-anchor="middle" x="727" y="-35.5" font-family="Helvetica,sans-Serif" font-size="10.00" fill="grey"> history</text>
</g>
<!-- Node31 -->
<g id="Node000031" class="node">
<title>Node31</title>
<g id="a_Node000031"><a xlink:href="structDirektDSP_1_1DirektParameterHistory_1_1ParameterChange.html" target="_top" xlink:title=" ">
<polygon fill="white" stroke="#666666" points="288,-35.5 136,-35.5 136,-5.5 288,-5.5 288,-35.5"/>
<text text-anchor="start" x="144" y="-23.5" font-family="Helvetica,sans-Serif" font-size="10.00">DirektDSP::DirektParameter</text>
<text text-anchor="middle" x="212" y="-12.5" font-family="Helvetica,sans-Serif" font-size="10.00">History::ParameterChange</text>
</a>
</g>
</g>
<!-- Node31&#45;&gt;Node30 -->
<g id="edge34_Node000030_Node000031" class="edge">
<title>Node31&#45;&gt;Node30</title>
<g id="a_edge34_Node000030_Node000031"><a xlink:title=" ">
<path fill="none" stroke="#9a32cd" stroke-dasharray="5,2" d="M298.23,-20.5C353.03,-20.5 423.28,-20.5 474.37,-20.5"/>
<polygon fill="#9a32cd" stroke="#9a32cd" points="298.18,-17 288.18,-20.5 298.18,-24 298.18,-17"/>
</a>
</g>
<text text-anchor="middle" x="372.5" y="-23.5" font-family="Helvetica,sans-Serif" font-size="10.00" fill="grey"> elements</text>
</g>
<!-- Node32&#45;&gt;Node1 -->
<g id="edge35_Node000001_Node000032" class="edge">
<title>Node32&#45;&gt;Node1</title>
<g id="a_edge35_Node000001_Node000032"><a xlink:title=" ">
<path fill="none" stroke="#9a32cd" stroke-dasharray="5,2" d="M980.73,-508.47C1080.08,-519.07 1265.09,-524.64 1392,-443.5 1430.42,-418.94 1465.14,-376.09 1479.51,-357.07"/>
<polygon fill="#9a32cd" stroke="#9a32cd" points="980.83,-504.96 970.51,-507.33 980.06,-511.91 980.83,-504.96"/>
</a>
</g>
<text text-anchor="middle" x="1215" y="-516.5" font-family="Helvetica,sans-Serif" font-size="10.00" fill="grey"> rootBuiltNode</text>
</g>
<!-- Node33&#45;&gt;Node1 -->
<g id="edge39_Node000001_Node000033" class="edge">
<title>Node33&#45;&gt;Node1</title>
<g id="a_edge39_Node000001_Node000033"><a xlink:title=" ">
<path fill="none" stroke="#9a32cd" stroke-dasharray="5,2" d="M1292.86,-87.09C1326.33,-87.77 1364.17,-94.28 1392,-115.5 1467.74,-173.25 1483.05,-301.98 1485.9,-337.98"/>
<polygon fill="#9a32cd" stroke="#9a32cd" points="1292.65,-83.59 1282.64,-87.05 1292.62,-90.59 1292.65,-83.59"/>
</a>
</g>
<text text-anchor="middle" x="1355" y="-118.5" font-family="Helvetica,sans-Serif" font-size="10.00" fill="grey"> buildContext</text>
</g>
<!-- Node34 -->
<g id="Node000034" class="node">
<title>Node34</title>
<g id="a_Node000034"><a xlink:title=" ">
<polygon fill="white" stroke="#666666" points="994,-175.5 827,-175.5 827,-145.5 994,-145.5 994,-175.5"/>
<text text-anchor="start" x="835" y="-163.5" font-family="Helvetica,sans-Serif" font-size="10.00">std::map&lt; juce::String,</text>
<text text-anchor="middle" x="910.5" y="-152.5" font-family="Helvetica,sans-Serif" font-size="10.00"> const std::atomic&lt; float &gt; * &gt;</text>
</a>
</g>
</g>
<!-- Node34&#45;&gt;Node33 -->
<g id="edge42_Node000033_Node000034" class="edge">
<title>Node34&#45;&gt;Node33</title>
<g id="a_edge42_Node000033_Node000034"><a xlink:title=" ">
<path fill="none" stroke="#9a32cd" stroke-dasharray="5,2" d="M990.63,-143.23C1047.9,-130.74 1123.19,-114.31 1170.08,-104.08"/>
<polygon fill="#9a32cd" stroke="#9a32cd" points="989.54,-139.89 980.52,-145.44 991.04,-146.73 989.54,-139.89"/>
</a>
</g>
<text text-anchor="middle" x="1063.5" y="-139.5" font-family="Helvetica,sans-Serif" font-size="10.00" fill="grey"> meterSources</text>
</g>
<!-- Node35 -->
<g id="Node000035" class="node">
<title>Node35</title>
<g id="a_Node000035"><a xlink:title=" ">
<polygon fill="white" stroke="#666666" points="601.5,-115 485.5,-115 485.5,-96 601.5,-96 601.5,-115"/>
<text text-anchor="middle" x="543.5" y="-103" font-family="Helvetica,sans-Serif" font-size="10.00">std::atomic&lt; float &gt;</text>
</a>
</g>
</g>
<!-- Node35&#45;&gt;Node34 -->
<g id="edge43_Node000034_Node000035" class="edge">
<title>Node35&#45;&gt;Node34</title>
<g id="a_edge43_Node000034_Node000035"><a xlink:title=" ">
<path fill="none" stroke="#9a32cd" stroke-dasharray="5,2" d="M611.61,-102.71C664.93,-101.95 741.06,-104.14 806,-118.5 819.77,-121.55 851.33,-134.7 876,-145.48"/>
<polygon fill="#9a32cd" stroke="#9a32cd" points="611.53,-99.21 601.59,-102.89 611.66,-106.21 611.53,-99.21"/>
</a>
</g>
<text text-anchor="middle" x="727" y="-121.5" font-family="Helvetica,sans-Serif" font-size="10.00" fill="grey"> elements</text>
</g>
</g>
</svg>
