<?xml version="1.0" encoding="UTF-8" standalone="no"?>
<!DOCTYPE svg PUBLIC "-//W3C//DTD SVG 1.1//EN"
 "http://www.w3.org/Graphics/SVG/1.1/DTD/svg11.dtd">
<!-- Generated by graphviz version 2.43.0 (0)
 -->
<!-- Title: display/DirektMeter.h Pages: 1 -->
<svg width="630pt" height="137pt"
 viewBox="0.00 0.00 630.00 137.00" xmlns="http://www.w3.org/2000/svg" xmlns:xlink="http://www.w3.org/1999/xlink">
<g id="graph0" class="graph" transform="scale(1 1) rotate(0) translate(4 133)">
<title>display/DirektMeter.h</title>
<!-- Node1 -->
<g id="Node000001" class="node">
<title>Node1</title>
<g id="a_Node000001"><a xlink:title=" ">
<polygon fill="#999999" stroke="#666666" points="330,-129 208,-129 208,-110 330,-110 330,-129"/>
<text text-anchor="middle" x="269" y="-117" font-family="Helvetica,sans-Serif" font-size="10.00">display/DirektMeter.h</text>
</a>
</g>
</g>
<!-- Node2 -->
<g id="Node000002" class="node">
<title>Node2</title>
<g id="a_Node000002"><a xlink:href="DirektDSP_8h.html" target="_top" xlink:title=" ">
<polygon fill="white" stroke="#666666" points="74,-19 0,-19 0,0 74,0 74,-19"/>
<text text-anchor="middle" x="37" y="-7" font-family="Helvetica,sans-Serif" font-size="10.00">DirektDSP.h</text>
</a>
</g>
</g>
<!-- Node1&#45;&gt;Node2 -->
<g id="edge1_Node000001_Node000002" class="edge">
<title>Node1&#45;&gt;Node2</title>
<g id="a_edge1_Node000001_Node000002"><a xlink:title=" ">
<path fill="none" stroke="#63b8ff" d="M240.17,-105.94C220.14,-97.15 192.86,-85.04 169,-74 127.69,-54.88 79.61,-31.45 54.43,-19.09"/>
<polygon fill="#63b8ff" stroke="#63b8ff" points="238.81,-109.17 249.38,-109.97 241.62,-102.76 238.81,-109.17"/>
</a>
</g>
</g>
<!-- Node3 -->
<g id="Node000003" class="node">
<title>Node3</title>
<g id="a_Node000003"><a xlink:href="DirektBaseEditor_8cpp.html" target="_top" xlink:title=" ">
<polygon fill="white" stroke="#666666" points="235.5,-19 92.5,-19 92.5,0 235.5,0 235.5,-19"/>
<text text-anchor="middle" x="164" y="-7" font-family="Helvetica,sans-Serif" font-size="10.00">core/DirektBaseEditor.cpp</text>
</a>
</g>
</g>
<!-- Node1&#45;&gt;Node3 -->
<g id="edge2_Node000001_Node000003" class="edge">
<title>Node1&#45;&gt;Node3</title>
<g id="a_edge2_Node000001_Node000003"><a xlink:title=" ">
<path fill="none" stroke="#63b8ff" d="M231.03,-106.15C214.54,-99.08 196.24,-88.63 184,-74 170.5,-57.87 166.09,-32.58 164.66,-19.31"/>
<polygon fill="#63b8ff" stroke="#63b8ff" points="229.88,-109.46 240.47,-109.94 232.49,-102.97 229.88,-109.46"/>
</a>
</g>
</g>
<!-- Node4 -->
<g id="Node000004" class="node">
<title>Node4</title>
<g id="a_Node000004"><a xlink:href="DirektComponentRegistry_8cpp.html" target="_top" xlink:title=" ">
<polygon fill="white" stroke="#666666" points="622,-19 436,-19 436,0 622,0 622,-19"/>
<text text-anchor="middle" x="529" y="-7" font-family="Helvetica,sans-Serif" font-size="10.00">core/DirektComponentRegistry.cpp</text>
</a>
</g>
</g>
<!-- Node1&#45;&gt;Node4 -->
<g id="edge3_Node000001_Node000004" class="edge">
<title>Node1&#45;&gt;Node4</title>
<g id="a_edge3_Node000001_Node000004"><a xlink:title=" ">
<path fill="none" stroke="#63b8ff" d="M294.77,-105.15C328.38,-87.77 384.08,-59.13 394,-55 429.2,-40.36 471.09,-27.18 498.76,-19.03"/>
<polygon fill="#63b8ff" stroke="#63b8ff" points="292.8,-102.22 285.53,-109.93 296.02,-108.44 292.8,-102.22"/>
</a>
</g>
</g>
<!-- Node5 -->
<g id="Node000005" class="node">
<title>Node5</title>
<g id="a_Node000005"><a xlink:href="DirektMeter_8cpp.html" target="_top" xlink:title=" ">
<polygon fill="white" stroke="#666666" points="535.5,-74 402.5,-74 402.5,-55 535.5,-55 535.5,-74"/>
<text text-anchor="middle" x="469" y="-62" font-family="Helvetica,sans-Serif" font-size="10.00">display/DirektMeter.cpp</text>
</a>
</g>
</g>
<!-- Node1&#45;&gt;Node5 -->
<g id="edge4_Node000001_Node000005" class="edge">
<title>Node1&#45;&gt;Node5</title>
<g id="a_edge4_Node000001_Node000005"><a xlink:title=" ">
<path fill="none" stroke="#63b8ff" d="M311.22,-107.31C348.65,-97.39 402.5,-83.12 436.61,-74.08"/>
<polygon fill="#63b8ff" stroke="#63b8ff" points="309.9,-104.04 301.13,-109.98 311.7,-110.81 309.9,-104.04"/>
</a>
</g>
</g>
<!-- Node6 -->
<g id="Node000006" class="node">
<title>Node6</title>
<g id="a_Node000006"><a xlink:href="DirektStereoMeter_8h.html" target="_top" xlink:title=" ">
<polygon fill="white" stroke="#666666" points="345.5,-74 192.5,-74 192.5,-55 345.5,-55 345.5,-74"/>
<text text-anchor="middle" x="269" y="-62" font-family="Helvetica,sans-Serif" font-size="10.00">display/DirektStereoMeter.h</text>
</a>
</g>
</g>
<!-- Node1&#45;&gt;Node6 -->
<g id="edge5_Node000001_Node000006" class="edge">
<title>Node1&#45;&gt;Node6</title>
<g id="a_edge5_Node000001_Node000006"><a xlink:title=" ">
<path fill="none" stroke="#63b8ff" d="M269,-99.66C269,-90.93 269,-80.99 269,-74.09"/>
<polygon fill="#63b8ff" stroke="#63b8ff" points="265.5,-99.75 269,-109.75 272.5,-99.75 265.5,-99.75"/>
</a>
</g>
</g>
<!-- Node6&#45;&gt;Node2 -->
<g id="edge6_Node000006_Node000002" class="edge">
<title>Node6&#45;&gt;Node2</title>
<g id="a_edge6_Node000006_Node000002"><a xlink:title=" ">
<path fill="none" stroke="#63b8ff" d="M221.93,-52.75C178.32,-42.78 114.31,-28.16 74.18,-18.99"/>
<polygon fill="#63b8ff" stroke="#63b8ff" points="221.2,-56.17 231.73,-54.98 222.76,-49.35 221.2,-56.17"/>
</a>
</g>
</g>
<!-- Node6&#45;&gt;Node3 -->
<g id="edge7_Node000006_Node000003" class="edge">
<title>Node6&#45;&gt;Node3</title>
<g id="a_edge7_Node000006_Node000003"><a xlink:title=" ">
<path fill="none" stroke="#63b8ff" d="M242.98,-50.37C223.7,-40.63 197.95,-27.64 181.18,-19.17"/>
<polygon fill="#63b8ff" stroke="#63b8ff" points="241.63,-53.6 252.13,-54.98 244.78,-47.35 241.63,-53.6"/>
</a>
</g>
</g>
<!-- Node6&#45;&gt;Node4 -->
<g id="edge8_Node000006_Node000004" class="edge">
<title>Node6&#45;&gt;Node4</title>
<g id="a_edge8_Node000006_Node000004"><a xlink:title=" ">
<path fill="none" stroke="#63b8ff" d="M320.8,-52.94C369.54,-43.01 441.61,-28.31 486.9,-19.08"/>
<polygon fill="#63b8ff" stroke="#63b8ff" points="319.87,-49.56 310.77,-54.98 321.27,-56.42 319.87,-49.56"/>
</a>
</g>
</g>
<!-- Node7 -->
<g id="Node000007" class="node">
<title>Node7</title>
<g id="a_Node000007"><a xlink:href="DirektStereoMeter_8cpp.html" target="_top" xlink:title=" ">
<polygon fill="white" stroke="#666666" points="418,-19 254,-19 254,0 418,0 418,-19"/>
<text text-anchor="middle" x="336" y="-7" font-family="Helvetica,sans-Serif" font-size="10.00">display/DirektStereoMeter.cpp</text>
</a>
</g>
</g>
<!-- Node6&#45;&gt;Node7 -->
<g id="edge9_Node000006_Node000007" class="edge">
<title>Node6&#45;&gt;Node7</title>
<g id="a_edge9_Node000006_Node000007"><a xlink:title=" ">
<path fill="none" stroke="#63b8ff" d="M287.83,-48.6C299.84,-39.11 314.97,-27.13 325.04,-19.17"/>
<polygon fill="#63b8ff" stroke="#63b8ff" points="285.44,-46.04 279.76,-54.98 289.78,-51.53 285.44,-46.04"/>
</a>
</g>
</g>
</g>
</svg>
