<?xml version="1.0" encoding="UTF-8" standalone="no"?>
<!DOCTYPE svg PUBLIC "-//W3C//DTD SVG 1.1//EN"
 "http://www.w3.org/Graphics/SVG/1.1/DTD/svg11.dtd">
<!-- Generated by graphviz version 2.43.0 (0)
 -->
<!-- Title: chrome/DirektPresetBrowser.h Pages: 1 -->
<svg width="268pt" height="148pt"
 viewBox="0.00 0.00 268.00 148.00" xmlns="http://www.w3.org/2000/svg" xmlns:xlink="http://www.w3.org/1999/xlink">
<g id="graph0" class="graph" transform="scale(1 1) rotate(0) translate(4 144)">
<title>chrome/DirektPresetBrowser.h</title>
<!-- Node1 -->
<g id="Node000001" class="node">
<title>Node1</title>
<g id="a_Node000001"><a xlink:title=" ">
<polygon fill="#999999" stroke="#666666" points="165,-140 0,-140 0,-121 165,-121 165,-140"/>
<text text-anchor="middle" x="82.5" y="-128" font-family="Helvetica,sans-Serif" font-size="10.00">chrome/DirektPresetBrowser.h</text>
</a>
</g>
</g>
<!-- Node2 -->
<g id="Node000002" class="node">
<title>Node2</title>
<g id="a_Node000002"><a xlink:title=" ">
<polygon fill="#e0e0e0" stroke="#999999" points="166.5,-30 50.5,-30 50.5,0 166.5,0 166.5,-30"/>
<text text-anchor="start" x="58.5" y="-18" font-family="Helvetica,sans-Serif" font-size="10.00">juce_gui_basics/juce</text>
<text text-anchor="middle" x="108.5" y="-7" font-family="Helvetica,sans-Serif" font-size="10.00">_gui_basics.h</text>
</a>
</g>
</g>
<!-- Node1&#45;&gt;Node2 -->
<g id="edge1_Node000001_Node000002" class="edge">
<title>Node1&#45;&gt;Node2</title>
<g id="a_edge1_Node000001_Node000002"><a xlink:title=" ">
<path fill="none" stroke="#63b8ff" d="M69.68,-120.85C53.79,-108.99 30,-86.76 40.5,-66 46.83,-53.5 57.91,-43.36 69.32,-35.56"/>
<polygon fill="#63b8ff" stroke="#63b8ff" points="71.45,-38.36 78.04,-30.06 67.71,-32.44 71.45,-38.36"/>
</a>
</g>
</g>
<!-- Node3 -->
<g id="Node000003" class="node">
<title>Node3</title>
<g id="a_Node000003"><a xlink:title=" ">
<polygon fill="#e0e0e0" stroke="#999999" points="115,-85 50,-85 50,-66 115,-66 115,-85"/>
<text text-anchor="middle" x="82.5" y="-73" font-family="Helvetica,sans-Serif" font-size="10.00">functional</text>
</a>
</g>
</g>
<!-- Node1&#45;&gt;Node3 -->
<g id="edge2_Node000001_Node000003" class="edge">
<title>Node1&#45;&gt;Node3</title>
<g id="a_edge2_Node000001_Node000003"><a xlink:title=" ">
<path fill="none" stroke="#63b8ff" d="M82.5,-120.75C82.5,-113.8 82.5,-103.85 82.5,-95.13"/>
<polygon fill="#63b8ff" stroke="#63b8ff" points="86,-95.09 82.5,-85.09 79,-95.09 86,-95.09"/>
</a>
</g>
</g>
<!-- Node4 -->
<g id="Node000004" class="node">
<title>Node4</title>
<g id="a_Node000004"><a xlink:href="DirektColours_8h.html" target="_top" xlink:title=" ">
<polygon fill="white" stroke="#666666" points="260,-85 133,-85 133,-66 260,-66 260,-85"/>
<text text-anchor="middle" x="196.5" y="-73" font-family="Helvetica,sans-Serif" font-size="10.00">theme/DirektColours.h</text>
</a>
</g>
</g>
<!-- Node1&#45;&gt;Node4 -->
<g id="edge3_Node000001_Node000004" class="edge">
<title>Node1&#45;&gt;Node4</title>
<g id="a_edge3_Node000001_Node000004"><a xlink:title=" ">
<path fill="none" stroke="#63b8ff" d="M100.82,-120.98C119.16,-112.46 147.61,-99.23 168.73,-89.41"/>
<polygon fill="#63b8ff" stroke="#63b8ff" points="170.26,-92.56 177.85,-85.17 167.31,-86.21 170.26,-92.56"/>
</a>
</g>
</g>
<!-- Node4&#45;&gt;Node2 -->
<g id="edge4_Node000004_Node000002" class="edge">
<title>Node4&#45;&gt;Node2</title>
<g id="a_edge4_Node000004_Node000002"><a xlink:title=" ">
<path fill="none" stroke="#63b8ff" d="M183.52,-65.87C171.69,-58 153.77,-46.09 138.41,-35.89"/>
<polygon fill="#63b8ff" stroke="#63b8ff" points="140,-32.74 129.73,-30.11 136.12,-38.57 140,-32.74"/>
</a>
</g>
</g>
</g>
</svg>
