<?xml version="1.0" encoding="UTF-8" standalone="no"?>
<!DOCTYPE svg PUBLIC "-//W3C//DTD SVG 1.1//EN"
 "http://www.w3.org/Graphics/SVG/1.1/DTD/svg11.dtd">
<!-- Generated by graphviz version 2.43.0 (0)
 -->
<!-- Title: core/DirektComponentRegistry.cpp Pages: 1 -->
<!--zoomable 214 -->

<svg id="main" version="1.1" xmlns="http://www.w3.org/2000/svg" xmlns:xlink="http://www.w3.org/1999/xlink" xml:space="preserve" onload="init(evt)">
<style type="text/css"><![CDATA[
.node, .edge {opacity: 0.7;}
.node.selected, .edge.selected {opacity: 1;}
.edge:hover path { stroke: red; }
.edge:hover polygon { stroke: red; fill: red; }
]]></style>

<defs>
  <circle id="rim" cx="0" cy="0" r="7"/>
  <circle id="rim2" cx="0" cy="0" r="3.5"/>
  <g id="zoomPlus">
    <use xlink:href="#rim" fill="#404040"><set attributeName="fill" to="#808080" begin="zoomplus.mouseover" end="zoomplus.mouseout"/></use>
    <path d="M-4,0h8M0,-4v8" fill="none" stroke="white" stroke-width="1.5" pointer-events="none"/>
  </g>
  <g id="zoomMin">
    <use xlink:href="#rim" fill="#404040"><set attributeName="fill" to="#808080" begin="zoomminus.mouseover" end="zoomminus.mouseout"/></use>
    <path d="M-4,0h8" fill="none" stroke="white" stroke-width="1.5" pointer-events="none"/>
  </g>
  <g id="arrowUp" transform="translate(30 24)">
    <use xlink:href="#rim"/>
    <path pointer-events="none" fill="none" stroke="white" stroke-width="1.5" d="M0,-3.0v7 M-2.5,-0.5L0,-3.0L2.5,-0.5"/>
  </g>
  <g id="arrowRight" transform="rotate(90) translate(36 -43)">
    <use xlink:href="#rim"/>
    <path pointer-events="none" fill="none" stroke="white" stroke-width="1.5" d="M0,-3.0v7 M-2.5,-0.5L0,-3.0L2.5,-0.5"/>
  </g>
  <g id="arrowDown" transform="rotate(180) translate(-30 -48)">
    <use xlink:href="#rim"/>
    <path pointer-events="none" fill="none" stroke="white" stroke-width="1.5" d="M0,-3.0v7 M-2.5,-0.5L0,-3.0L2.5,-0.5"/>
  </g>
  <g id="arrowLeft" transform="rotate(270) translate(-36 17)">
    <use xlink:href="#rim"/>
    <path pointer-events="none" fill="none" stroke="white" stroke-width="1.5" d="M0,-3.0v7 M-2.5,-0.5L0,-3.0L2.5,-0.5"/>
  </g>
  <g id="resetDef">
    <use xlink:href="#rim2" fill="#404040"><set attributeName="fill" to="#808080" begin="reset.mouseover" end="reset.mouseout"/></use>
  </g>
</defs>
<script type="application/ecmascript">
var viewWidth = 2063;
var viewHeight = 214;
var sectionId = 'dynsection-0';
</script>
<script type="application/ecmascript" xlink:href="svg.min.js"/>
<svg id="graph" class="graph">
<g id="viewport">
<title>core/DirektComponentRegistry.cpp</title>
<!-- Node1 -->
<g id="Node000001" class="node">
<title>Node1</title>
<g id="a_Node000001"><a xlink:title=" ">
<polygon fill="#999999" stroke="#666666" points="1303.83,-206 1117.83,-206 1117.83,-187 1303.83,-187 1303.83,-206"/>
<text text-anchor="middle" x="1210.83" y="-194" font-family="Helvetica,sans-Serif" font-size="10.00">core/DirektComponentRegistry.cpp</text>
</a>
</g>
</g>
<!-- Node2 -->
<g id="Node000002" class="node">
<title>Node2</title>
<g id="a_Node000002"><a xlink:href="DirektComponentRegistry_8h.html" target="_top" xlink:title=" ">
<polygon fill="white" stroke="#666666" points="573.33,-145.5 398.33,-145.5 398.33,-126.5 573.33,-126.5 573.33,-145.5"/>
<text text-anchor="middle" x="485.83" y="-133.5" font-family="Helvetica,sans-Serif" font-size="10.00">core/DirektComponentRegistry.h</text>
</a>
</g>
</g>
<!-- Node1&#45;&gt;Node2 -->
<g id="edge1_Node000001_Node000002" class="edge">
<title>Node1&#45;&gt;Node2</title>
<g id="a_edge1_Node000001_Node000002"><a xlink:title=" ">
<path fill="none" stroke="#63b8ff" d="M1117.56,-187.99C1007.8,-179.15 820.07,-164.02 658.83,-151 634.41,-149.03 608.06,-146.9 583.46,-144.91"/>
<polygon fill="#63b8ff" stroke="#63b8ff" points="583.65,-141.41 573.4,-144.09 583.08,-148.39 583.65,-141.41"/>
</a>
</g>
</g>
<!-- Node13 -->
<g id="Node000013" class="node">
<title>Node13</title>
<g id="a_Node000013"><a xlink:href="DirektComboBox_8h.html" target="_top" xlink:title=" ">
<polygon fill="white" stroke="#666666" points="903.33,-85 752.33,-85 752.33,-66 903.33,-66 903.33,-85"/>
<text text-anchor="middle" x="827.83" y="-73" font-family="Helvetica,sans-Serif" font-size="10.00">controls/DirektComboBox.h</text>
</a>
</g>
</g>
<!-- Node1&#45;&gt;Node13 -->
<g id="edge18_Node000001_Node000013" class="edge">
<title>Node1&#45;&gt;Node13</title>
<g id="a_edge18_Node000001_Node000013"><a xlink:title=" ">
<path fill="none" stroke="#63b8ff" d="M1117.73,-194.2C976.12,-191.24 719.98,-181.67 691.83,-151 663.22,-119.83 721,-98.85 769.88,-87.3"/>
<polygon fill="#63b8ff" stroke="#63b8ff" points="770.85,-90.67 779.83,-85.05 769.3,-83.84 770.85,-90.67"/>
</a>
</g>
</g>
<!-- Node14 -->
<g id="Node000014" class="node">
<title>Node14</title>
<g id="a_Node000014"><a xlink:href="DirektKnob_8h.html" target="_top" xlink:title=" ">
<polygon fill="white" stroke="#666666" points="419.83,-85 297.83,-85 297.83,-66 419.83,-66 419.83,-85"/>
<text text-anchor="middle" x="358.83" y="-73" font-family="Helvetica,sans-Serif" font-size="10.00">controls/DirektKnob.h</text>
</a>
</g>
</g>
<!-- Node1&#45;&gt;Node14 -->
<g id="edge21_Node000001_Node000014" class="edge">
<title>Node1&#45;&gt;Node14</title>
<g id="a_edge21_Node000001_Node000014"><a xlink:title=" ">
<path fill="none" stroke="#63b8ff" d="M1117.62,-196.01C914.79,-196.34 446.87,-192.53 388.83,-151 370.97,-138.22 363.73,-112.97 360.8,-95.43"/>
<polygon fill="#63b8ff" stroke="#63b8ff" points="364.23,-94.67 359.44,-85.22 357.3,-95.6 364.23,-94.67"/>
</a>
</g>
</g>
<!-- Node16 -->
<g id="Node000016" class="node">
<title>Node16</title>
<g id="a_Node000016"><a xlink:title=" ">
<polygon fill="#e0e0e0" stroke="#999999" points="852.83,-145.5 700.83,-145.5 700.83,-126.5 852.83,-126.5 852.83,-145.5"/>
<text text-anchor="middle" x="776.83" y="-133.5" font-family="Helvetica,sans-Serif" font-size="10.00">controls/DirektMacroKnob.h</text>
</a>
</g>
</g>
<!-- Node1&#45;&gt;Node16 -->
<g id="edge25_Node000001_Node000016" class="edge">
<title>Node1&#45;&gt;Node16</title>
<g id="a_edge25_Node000001_Node000016"><a xlink:title=" ">
<path fill="none" stroke="#63b8ff" d="M1140.92,-186.99C1071.37,-178.4 961.62,-164.5 866.83,-151 858.19,-149.77 849.08,-148.42 840.12,-147.05"/>
<polygon fill="#63b8ff" stroke="#63b8ff" points="840.51,-143.57 830.1,-145.52 839.45,-150.49 840.51,-143.57"/>
</a>
</g>
</g>
<!-- Node17 -->
<g id="Node000017" class="node">
<title>Node17</title>
<g id="a_Node000017"><a xlink:href="DirektMacroControl_8h.html" target="_top" xlink:title=" ">
<polygon fill="white" stroke="#666666" points="1346.33,-85 1183.33,-85 1183.33,-66 1346.33,-66 1346.33,-85"/>
<text text-anchor="middle" x="1264.83" y="-73" font-family="Helvetica,sans-Serif" font-size="10.00">controls/DirektMacroControl.h</text>
</a>
</g>
</g>
<!-- Node1&#45;&gt;Node17 -->
<g id="edge26_Node000001_Node000017" class="edge">
<title>Node1&#45;&gt;Node17</title>
<g id="a_edge26_Node000001_Node000017"><a xlink:title=" ">
<path fill="none" stroke="#63b8ff" d="M1219.58,-186.73C1227.54,-178.27 1239.05,-164.75 1245.83,-151 1254.67,-133.08 1259.66,-110.65 1262.29,-95.11"/>
<polygon fill="#63b8ff" stroke="#63b8ff" points="1265.76,-95.58 1263.81,-85.17 1258.84,-94.53 1265.76,-95.58"/>
</a>
</g>
</g>
<!-- Node18 -->
<g id="Node000018" class="node">
<title>Node18</title>
<g id="a_Node000018"><a xlink:href="DirektToggle_8h.html" target="_top" xlink:title=" ">
<polygon fill="white" stroke="#666666" points="1050.33,-85 921.33,-85 921.33,-66 1050.33,-66 1050.33,-85"/>
<text text-anchor="middle" x="985.83" y="-73" font-family="Helvetica,sans-Serif" font-size="10.00">controls/DirektToggle.h</text>
</a>
</g>
</g>
<!-- Node1&#45;&gt;Node18 -->
<g id="edge30_Node000001_Node000018" class="edge">
<title>Node1&#45;&gt;Node18</title>
<g id="a_edge30_Node000001_Node000018"><a xlink:title=" ">
<path fill="none" stroke="#63b8ff" d="M1117.52,-195.12C1036.39,-192.58 927.61,-183.04 899.83,-151 891.1,-140.93 892.9,-132.39 899.83,-121 909.02,-105.9 925.18,-95.69 941.02,-88.91"/>
<polygon fill="#63b8ff" stroke="#63b8ff" points="942.73,-92 950.78,-85.12 940.19,-85.48 942.73,-92"/>
</a>
</g>
</g>
<!-- Node19 -->
<g id="Node000019" class="node">
<title>Node19</title>
<g id="a_Node000019"><a xlink:href="DirektLabel_8h.html" target="_top" xlink:title=" ">
<polygon fill="white" stroke="#666666" points="1702.83,-145.5 1582.83,-145.5 1582.83,-126.5 1702.83,-126.5 1702.83,-145.5"/>
<text text-anchor="middle" x="1642.83" y="-133.5" font-family="Helvetica,sans-Serif" font-size="10.00">display/DirektLabel.h</text>
</a>
</g>
</g>
<!-- Node1&#45;&gt;Node19 -->
<g id="edge33_Node000001_Node000019" class="edge">
<title>Node1&#45;&gt;Node19</title>
<g id="a_edge33_Node000001_Node000019"><a xlink:title=" ">
<path fill="none" stroke="#63b8ff" d="M1295.81,-186.98C1369.55,-179.14 1479.04,-166.4 1573.83,-151 1580.17,-149.97 1586.8,-148.77 1593.35,-147.52"/>
<polygon fill="#63b8ff" stroke="#63b8ff" points="1594.38,-150.89 1603.52,-145.53 1593.03,-144.02 1594.38,-150.89"/>
</a>
</g>
</g>
<!-- Node20 -->
<g id="Node000020" class="node">
<title>Node20</title>
<g id="a_Node000020"><a xlink:href="DirektColours_8h.html" target="_top" xlink:title=" ">
<polygon fill="white" stroke="#666666" points="1758.33,-85 1631.33,-85 1631.33,-66 1758.33,-66 1758.33,-85"/>
<text text-anchor="middle" x="1694.83" y="-73" font-family="Helvetica,sans-Serif" font-size="10.00">theme/DirektColours.h</text>
</a>
</g>
</g>
<!-- Node1&#45;&gt;Node20 -->
<g id="edge59_Node000001_Node000020" class="edge">
<title>Node1&#45;&gt;Node20</title>
<g id="a_edge59_Node000001_Node000020"><a xlink:title=" ">
<path fill="none" stroke="#63b8ff" d="M1304.08,-193.88C1441.44,-190.51 1684.92,-180.41 1711.83,-151 1726.06,-135.46 1716.09,-110.52 1706.47,-93.83"/>
<polygon fill="#63b8ff" stroke="#63b8ff" points="1709.29,-91.74 1701.03,-85.09 1703.34,-95.43 1709.29,-91.74"/>
</a>
</g>
</g>
<!-- Node21 -->
<g id="Node000021" class="node">
<title>Node21</title>
<g id="a_Node000021"><a xlink:href="DirektMeter_8h.html" target="_top" xlink:title=" ">
<polygon fill="white" stroke="#666666" points="1414.83,-145.5 1292.83,-145.5 1292.83,-126.5 1414.83,-126.5 1414.83,-145.5"/>
<text text-anchor="middle" x="1353.83" y="-133.5" font-family="Helvetica,sans-Serif" font-size="10.00">display/DirektMeter.h</text>
</a>
</g>
</g>
<!-- Node1&#45;&gt;Node21 -->
<g id="edge37_Node000001_Node000021" class="edge">
<title>Node1&#45;&gt;Node21</title>
<g id="a_edge37_Node000001_Node000021"><a xlink:title=" ">
<path fill="none" stroke="#63b8ff" d="M1231.62,-186.99C1255.77,-177.12 1295.81,-160.73 1323.45,-149.43"/>
<polygon fill="#63b8ff" stroke="#63b8ff" points="1325.08,-152.54 1333.01,-145.52 1322.43,-146.06 1325.08,-152.54"/>
</a>
</g>
</g>
<!-- Node22 -->
<g id="Node000022" class="node">
<title>Node22</title>
<g id="a_Node000022"><a xlink:href="DirektFlexContainer_8h.html" target="_top" xlink:title=" ">
<polygon fill="white" stroke="#666666" points="1236.33,-145.5 1079.33,-145.5 1079.33,-126.5 1236.33,-126.5 1236.33,-145.5"/>
<text text-anchor="middle" x="1157.83" y="-133.5" font-family="Helvetica,sans-Serif" font-size="10.00">layout/DirektFlexContainer.h</text>
</a>
</g>
</g>
<!-- Node1&#45;&gt;Node22 -->
<g id="edge41_Node000001_Node000022" class="edge">
<title>Node1&#45;&gt;Node22</title>
<g id="a_edge41_Node000001_Node000022"><a xlink:title=" ">
<path fill="none" stroke="#63b8ff" d="M1203.01,-186.87C1195.03,-178.05 1182.44,-164.16 1172.57,-153.27"/>
<polygon fill="#63b8ff" stroke="#63b8ff" points="1174.99,-150.73 1165.68,-145.67 1169.8,-155.43 1174.99,-150.73"/>
</a>
</g>
</g>
<!-- Node23 -->
<g id="Node000023" class="node">
<title>Node23</title>
<g id="a_Node000023"><a xlink:href="DirektModuleBypassSoloStrip_8h.html" target="_top" xlink:title=" ">
<polygon fill="white" stroke="#666666" points="1060.83,-151 908.83,-151 908.83,-121 1060.83,-121 1060.83,-151"/>
<text text-anchor="start" x="916.83" y="-139" font-family="Helvetica,sans-Serif" font-size="10.00">layout/DirektModuleBypass</text>
<text text-anchor="middle" x="984.83" y="-128" font-family="Helvetica,sans-Serif" font-size="10.00">SoloStrip.h</text>
</a>
</g>
</g>
<!-- Node1&#45;&gt;Node23 -->
<g id="edge45_Node000001_Node000023" class="edge">
<title>Node1&#45;&gt;Node23</title>
<g id="a_edge45_Node000001_Node000023"><a xlink:title=" ">
<path fill="none" stroke="#63b8ff" d="M1177.97,-186.99C1144.31,-178.28 1091.1,-164.51 1049.05,-153.62"/>
<polygon fill="#63b8ff" stroke="#63b8ff" points="1049.72,-150.18 1039.16,-151.06 1047.97,-156.96 1049.72,-150.18"/>
</a>
</g>
</g>
<!-- Node24 -->
<g id="Node000024" class="node">
<title>Node24</title>
<g id="a_Node000024"><a xlink:href="DirektSection_8h.html" target="_top" xlink:title=" ">
<polygon fill="white" stroke="#666666" points="1884.33,-145.5 1759.33,-145.5 1759.33,-126.5 1884.33,-126.5 1884.33,-145.5"/>
<text text-anchor="middle" x="1821.83" y="-133.5" font-family="Helvetica,sans-Serif" font-size="10.00">layout/DirektSection.h</text>
</a>
</g>
</g>
<!-- Node1&#45;&gt;Node24 -->
<g id="edge51_Node000001_Node000024" class="edge">
<title>Node1&#45;&gt;Node24</title>
<g id="a_edge51_Node000001_Node000024"><a xlink:title=" ">
<path fill="none" stroke="#63b8ff" d="M1304.21,-190.46C1411.03,-184.06 1591.04,-171.34 1744.83,-151 1752.69,-149.96 1760.97,-148.67 1769.07,-147.29"/>
<polygon fill="#63b8ff" stroke="#63b8ff" points="1769.94,-150.69 1779.18,-145.51 1768.73,-143.8 1769.94,-150.69"/>
</a>
</g>
</g>
<!-- Node25 -->
<g id="Node000025" class="node">
<title>Node25</title>
<g id="a_Node000025"><a xlink:href="DirektTabPanel_8h.html" target="_top" xlink:title=" ">
<polygon fill="white" stroke="#666666" points="1564.83,-145.5 1432.83,-145.5 1432.83,-126.5 1564.83,-126.5 1564.83,-145.5"/>
<text text-anchor="middle" x="1498.83" y="-133.5" font-family="Helvetica,sans-Serif" font-size="10.00">layout/DirektTabPanel.h</text>
</a>
</g>
</g>
<!-- Node1&#45;&gt;Node25 -->
<g id="edge55_Node000001_Node000025" class="edge">
<title>Node1&#45;&gt;Node25</title>
<g id="a_edge55_Node000001_Node000025"><a xlink:title=" ">
<path fill="none" stroke="#63b8ff" d="M1252.71,-186.99C1304.11,-176.55 1391.29,-158.85 1446.9,-147.55"/>
<polygon fill="#63b8ff" stroke="#63b8ff" points="1447.8,-150.94 1456.9,-145.52 1446.41,-144.08 1447.8,-150.94"/>
</a>
</g>
</g>
<!-- Node26 -->
<g id="Node000026" class="node">
<title>Node26</title>
<g id="a_Node000026"><a xlink:href="DirektLookAndFeel_8h.html" target="_top" xlink:title=" ">
<polygon fill="white" stroke="#666666" points="2054.83,-145.5 1902.83,-145.5 1902.83,-126.5 2054.83,-126.5 2054.83,-145.5"/>
<text text-anchor="middle" x="1978.83" y="-133.5" font-family="Helvetica,sans-Serif" font-size="10.00">theme/DirektLookAndFeel.h</text>
</a>
</g>
</g>
<!-- Node1&#45;&gt;Node26 -->
<g id="edge60_Node000001_Node000026" class="edge">
<title>Node1&#45;&gt;Node26</title>
<g id="a_edge60_Node000001_Node000026"><a xlink:title=" ">
<path fill="none" stroke="#63b8ff" d="M1303.89,-192.33C1435.58,-187.2 1683.69,-175.09 1893.83,-151 1903,-149.95 1912.68,-148.59 1922.1,-147.14"/>
<polygon fill="#63b8ff" stroke="#63b8ff" points="1922.86,-150.56 1932.18,-145.53 1921.76,-143.65 1922.86,-150.56"/>
</a>
</g>
</g>
<!-- Node3 -->
<g id="Node000003" class="node">
<title>Node3</title>
<g id="a_Node000003"><a xlink:title=" ">
<polygon fill="#e0e0e0" stroke="#999999" points="586.33,-30 447.33,-30 447.33,0 586.33,0 586.33,-30"/>
<text text-anchor="start" x="455.33" y="-18" font-family="Helvetica,sans-Serif" font-size="10.00">juce_audio_processors</text>
<text text-anchor="middle" x="516.83" y="-7" font-family="Helvetica,sans-Serif" font-size="10.00">/juce_audio_processors.h</text>
</a>
</g>
</g>
<!-- Node2&#45;&gt;Node3 -->
<g id="edge2_Node000002_Node000003" class="edge">
<title>Node2&#45;&gt;Node3</title>
<g id="a_edge2_Node000002_Node000003"><a xlink:title=" ">
<path fill="none" stroke="#63b8ff" d="M481,-126.24C474.3,-112.88 463.86,-86.77 471.83,-66 475.91,-55.37 483.41,-45.58 491.13,-37.54"/>
<polygon fill="#63b8ff" stroke="#63b8ff" points="494.06,-39.58 498.81,-30.11 489.19,-34.55 494.06,-39.58"/>
</a>
</g>
</g>
<!-- Node4 -->
<g id="Node000004" class="node">
<title>Node4</title>
<g id="a_Node000004"><a xlink:title=" ">
<polygon fill="#e0e0e0" stroke="#999999" points="1527.83,-30 1411.83,-30 1411.83,0 1527.83,0 1527.83,-30"/>
<text text-anchor="start" x="1419.83" y="-18" font-family="Helvetica,sans-Serif" font-size="10.00">juce_gui_basics/juce</text>
<text text-anchor="middle" x="1469.83" y="-7" font-family="Helvetica,sans-Serif" font-size="10.00">_gui_basics.h</text>
</a>
</g>
</g>
<!-- Node2&#45;&gt;Node4 -->
<g id="edge3_Node000002_Node000004" class="edge">
<title>Node2&#45;&gt;Node4</title>
<g id="a_edge3_Node000002_Node000004"><a xlink:title=" ">
<path fill="none" stroke="#63b8ff" d="M573.52,-128.77C610.09,-126.25 653.01,-123.37 691.83,-121 839.33,-111.99 1214.62,-128.56 1355.83,-85 1360.39,-83.59 1406.42,-55.34 1438.58,-35.43"/>
<polygon fill="#63b8ff" stroke="#63b8ff" points="1440.58,-38.31 1447.23,-30.06 1436.89,-32.36 1440.58,-38.31"/>
</a>
</g>
</g>
<!-- Node5 -->
<g id="Node000005" class="node">
<title>Node5</title>
<g id="a_Node000005"><a xlink:title=" ">
<polygon fill="#e0e0e0" stroke="#999999" points="241.33,-85 176.33,-85 176.33,-66 241.33,-66 241.33,-85"/>
<text text-anchor="middle" x="208.83" y="-73" font-family="Helvetica,sans-Serif" font-size="10.00">functional</text>
</a>
</g>
</g>
<!-- Node2&#45;&gt;Node5 -->
<g id="edge4_Node000002_Node000005" class="edge">
<title>Node2&#45;&gt;Node5</title>
<g id="a_edge4_Node000002_Node000005"><a xlink:title=" ">
<path fill="none" stroke="#63b8ff" d="M445.55,-126.49C393.79,-115.56 304.3,-96.66 251.43,-85.5"/>
<polygon fill="#63b8ff" stroke="#63b8ff" points="251.88,-82.01 241.37,-83.37 250.43,-88.86 251.88,-82.01"/>
</a>
</g>
</g>
<!-- Node6 -->
<g id="Node000006" class="node">
<title>Node6</title>
<g id="a_Node000006"><a xlink:title=" ">
<polygon fill="#e0e0e0" stroke="#999999" points="105.83,-24.5 67.83,-24.5 67.83,-5.5 105.83,-5.5 105.83,-24.5"/>
<text text-anchor="middle" x="86.83" y="-12.5" font-family="Helvetica,sans-Serif" font-size="10.00">map</text>
</a>
</g>
</g>
<!-- Node2&#45;&gt;Node6 -->
<g id="edge5_Node000002_Node000006" class="edge">
<title>Node2&#45;&gt;Node6</title>
<g id="a_edge5_Node000002_Node000006"><a xlink:title=" ">
<path fill="none" stroke="#63b8ff" d="M398.07,-132.1C266.71,-126.84 31.55,-113.53 5.83,-85 -15.15,-61.72 27.24,-39 58.23,-26.31"/>
<polygon fill="#63b8ff" stroke="#63b8ff" points="59.77,-29.47 67.8,-22.56 57.21,-22.95 59.77,-29.47"/>
</a>
</g>
</g>
<!-- Node7 -->
<g id="Node000007" class="node">
<title>Node7</title>
<g id="a_Node000007"><a xlink:title=" ">
<polygon fill="#e0e0e0" stroke="#999999" points="919.83,-24.5 861.83,-24.5 861.83,-5.5 919.83,-5.5 919.83,-24.5"/>
<text text-anchor="middle" x="890.83" y="-12.5" font-family="Helvetica,sans-Serif" font-size="10.00">memory</text>
</a>
</g>
</g>
<!-- Node2&#45;&gt;Node7 -->
<g id="edge6_Node000002_Node000007" class="edge">
<title>Node2&#45;&gt;Node7</title>
<g id="a_edge6_Node000002_Node000007"><a xlink:title=" ">
<path fill="none" stroke="#63b8ff" d="M490.11,-126.49C498.16,-111.46 517.09,-80.45 542.83,-66 595.11,-36.66 772.05,-22.91 851.56,-18.1"/>
<polygon fill="#63b8ff" stroke="#63b8ff" points="851.89,-21.58 861.66,-17.5 851.48,-14.59 851.89,-21.58"/>
</a>
</g>
</g>
<!-- Node8 -->
<g id="Node000008" class="node">
<title>Node8</title>
<g id="a_Node000008"><a xlink:title=" ">
<polygon fill="#e0e0e0" stroke="#999999" points="1159.33,-24.5 1112.33,-24.5 1112.33,-5.5 1159.33,-5.5 1159.33,-24.5"/>
<text text-anchor="middle" x="1135.83" y="-12.5" font-family="Helvetica,sans-Serif" font-size="10.00">vector</text>
</a>
</g>
</g>
<!-- Node2&#45;&gt;Node8 -->
<g id="edge7_Node000002_Node000008" class="edge">
<title>Node2&#45;&gt;Node8</title>
<g id="a_edge7_Node000002_Node000008"><a xlink:title=" ">
<path fill="none" stroke="#63b8ff" d="M538.31,-126.44C583.07,-118.32 648.73,-104.46 703.83,-85 722.01,-78.58 724.35,-71.51 742.83,-66 810.08,-45.94 1019.82,-26.09 1102.16,-18.86"/>
<polygon fill="#63b8ff" stroke="#63b8ff" points="1102.57,-22.34 1112.23,-17.99 1101.97,-15.37 1102.57,-22.34"/>
</a>
</g>
</g>
<!-- Node9 -->
<g id="Node000009" class="node">
<title>Node9</title>
<g id="a_Node000009"><a xlink:href="DirektDescriptors_8h.html" target="_top" xlink:title=" ">
<polygon fill="white" stroke="#666666" points="695.33,-85 552.33,-85 552.33,-66 695.33,-66 695.33,-85"/>
<text text-anchor="middle" x="623.83" y="-73" font-family="Helvetica,sans-Serif" font-size="10.00">config/DirektDescriptors.h</text>
</a>
</g>
</g>
<!-- Node2&#45;&gt;Node9 -->
<g id="edge8_Node000002_Node000009" class="edge">
<title>Node2&#45;&gt;Node9</title>
<g id="a_edge8_Node000002_Node000009"><a xlink:title=" ">
<path fill="none" stroke="#63b8ff" d="M505.9,-126.49C529.2,-116.62 567.84,-100.23 594.51,-88.93"/>
<polygon fill="#63b8ff" stroke="#63b8ff" points="595.9,-92.14 603.74,-85.02 593.17,-85.7 595.9,-92.14"/>
</a>
</g>
</g>
<!-- Node11 -->
<g id="Node000011" class="node">
<title>Node11</title>
<g id="a_Node000011"><a xlink:href="DirektBuildContext_8h.html" target="_top" xlink:title=" ">
<polygon fill="white" stroke="#666666" points="158.33,-85 15.33,-85 15.33,-66 158.33,-66 158.33,-85"/>
<text text-anchor="middle" x="86.83" y="-73" font-family="Helvetica,sans-Serif" font-size="10.00">core/DirektBuildContext.h</text>
</a>
</g>
</g>
<!-- Node2&#45;&gt;Node11 -->
<g id="edge14_Node000002_Node000011" class="edge">
<title>Node2&#45;&gt;Node11</title>
<g id="a_edge14_Node000002_Node000011"><a xlink:title=" ">
<path fill="none" stroke="#63b8ff" d="M427.81,-126.49C355.42,-115.88 231.8,-97.76 154.98,-86.49"/>
<polygon fill="#63b8ff" stroke="#63b8ff" points="155.32,-83 144.92,-85.02 154.31,-89.93 155.32,-83"/>
</a>
</g>
</g>
<!-- Node9&#45;&gt;Node4 -->
<g id="edge9_Node000009_Node000004" class="edge">
<title>Node9&#45;&gt;Node4</title>
<g id="a_edge9_Node000009_Node000004"><a xlink:title=" ">
<path fill="none" stroke="#63b8ff" d="M695.57,-69.35C711.15,-68.23 727.54,-67.07 742.83,-66 984.9,-49.03 1272.34,-29.42 1401.28,-20.65"/>
<polygon fill="#63b8ff" stroke="#63b8ff" points="1401.66,-24.14 1411.4,-19.97 1401.19,-17.15 1401.66,-24.14"/>
</a>
</g>
</g>
<!-- Node9&#45;&gt;Node6 -->
<g id="edge10_Node000009_Node000006" class="edge">
<title>Node9&#45;&gt;Node6</title>
<g id="a_edge10_Node000009_Node000006"><a xlink:title=" ">
<path fill="none" stroke="#63b8ff" d="M552.31,-68.66C463.75,-61.14 308.4,-47 175.83,-30 155.79,-27.43 133.31,-23.89 115.96,-21.01"/>
<polygon fill="#63b8ff" stroke="#63b8ff" points="116.32,-17.52 105.88,-19.32 115.17,-24.43 116.32,-17.52"/>
</a>
</g>
</g>
<!-- Node9&#45;&gt;Node7 -->
<g id="edge11_Node000009_Node000007" class="edge">
<title>Node9&#45;&gt;Node7</title>
<g id="a_edge11_Node000009_Node000007"><a xlink:title=" ">
<path fill="none" stroke="#63b8ff" d="M662.66,-65.99C713.26,-54.91 801.26,-35.62 851.91,-24.53"/>
<polygon fill="#63b8ff" stroke="#63b8ff" points="852.81,-27.91 861.83,-22.35 851.31,-21.08 852.81,-27.91"/>
</a>
</g>
</g>
<!-- Node9&#45;&gt;Node8 -->
<g id="edge13_Node000009_Node000008" class="edge">
<title>Node9&#45;&gt;Node8</title>
<g id="a_edge13_Node000009_Node000008"><a xlink:title=" ">
<path fill="none" stroke="#63b8ff" d="M695.56,-66.3C807.62,-53.5 1019.87,-29.25 1102.1,-19.85"/>
<polygon fill="#63b8ff" stroke="#63b8ff" points="1102.61,-23.32 1112.15,-18.71 1101.81,-16.36 1102.61,-23.32"/>
</a>
</g>
</g>
<!-- Node10 -->
<g id="Node000010" class="node">
<title>Node10</title>
<g id="a_Node000010"><a xlink:title=" ">
<polygon fill="#e0e0e0" stroke="#999999" points="655.33,-24.5 604.33,-24.5 604.33,-5.5 655.33,-5.5 655.33,-24.5"/>
<text text-anchor="middle" x="629.83" y="-12.5" font-family="Helvetica,sans-Serif" font-size="10.00">variant</text>
</a>
</g>
</g>
<!-- Node9&#45;&gt;Node10 -->
<g id="edge12_Node000009_Node000010" class="edge">
<title>Node9&#45;&gt;Node10</title>
<g id="a_edge12_Node000009_Node000010"><a xlink:title=" ">
<path fill="none" stroke="#63b8ff" d="M624.72,-65.87C625.55,-57.75 626.83,-45.31 627.89,-34.89"/>
<polygon fill="#63b8ff" stroke="#63b8ff" points="631.4,-34.97 628.94,-24.67 624.44,-34.26 631.4,-34.97"/>
</a>
</g>
</g>
<!-- Node11&#45;&gt;Node3 -->
<g id="edge15_Node000011_Node000003" class="edge">
<title>Node11&#45;&gt;Node3</title>
<g id="a_edge15_Node000011_Node000003"><a xlink:title=" ">
<path fill="none" stroke="#63b8ff" d="M149.36,-65.99C225.38,-55.65 353.81,-38.18 436.94,-26.87"/>
<polygon fill="#63b8ff" stroke="#63b8ff" points="437.66,-30.3 447.09,-25.49 436.71,-23.37 437.66,-30.3"/>
</a>
</g>
</g>
<!-- Node11&#45;&gt;Node6 -->
<g id="edge17_Node000011_Node000006" class="edge">
<title>Node11&#45;&gt;Node6</title>
<g id="a_edge17_Node000011_Node000006"><a xlink:title=" ">
<path fill="none" stroke="#63b8ff" d="M86.83,-65.87C86.83,-57.75 86.83,-45.31 86.83,-34.89"/>
<polygon fill="#63b8ff" stroke="#63b8ff" points="90.33,-34.67 86.83,-24.67 83.33,-34.67 90.33,-34.67"/>
</a>
</g>
</g>
<!-- Node12 -->
<g id="Node000012" class="node">
<title>Node12</title>
<g id="a_Node000012"><a xlink:title=" ">
<polygon fill="#e0e0e0" stroke="#999999" points="234.83,-24.5 184.83,-24.5 184.83,-5.5 234.83,-5.5 234.83,-24.5"/>
<text text-anchor="middle" x="209.83" y="-12.5" font-family="Helvetica,sans-Serif" font-size="10.00">atomic</text>
</a>
</g>
</g>
<!-- Node11&#45;&gt;Node12 -->
<g id="edge16_Node000011_Node000012" class="edge">
<title>Node11&#45;&gt;Node12</title>
<g id="a_edge16_Node000011_Node000012"><a xlink:title=" ">
<path fill="none" stroke="#63b8ff" d="M104.72,-65.99C125.21,-56.25 159.02,-40.16 182.75,-28.88"/>
<polygon fill="#63b8ff" stroke="#63b8ff" points="184.4,-31.97 191.92,-24.52 181.39,-25.65 184.4,-31.97"/>
</a>
</g>
</g>
<!-- Node13&#45;&gt;Node3 -->
<g id="edge19_Node000013_Node000003" class="edge">
<title>Node13&#45;&gt;Node3</title>
<g id="a_edge19_Node000013_Node000003"><a xlink:title=" ">
<path fill="none" stroke="#63b8ff" d="M782.61,-65.99C733.96,-56.84 655.63,-42.11 596.59,-31"/>
<polygon fill="#63b8ff" stroke="#63b8ff" points="597.02,-27.52 586.54,-29.11 595.72,-34.4 597.02,-27.52"/>
</a>
</g>
</g>
<!-- Node13&#45;&gt;Node4 -->
<g id="edge20_Node000013_Node000004" class="edge">
<title>Node13&#45;&gt;Node4</title>
<g id="a_edge20_Node000013_Node000004"><a xlink:title=" ">
<path fill="none" stroke="#63b8ff" d="M903.37,-66.91C906.57,-66.6 909.73,-66.29 912.83,-66 1088.92,-49.29 1296.47,-31.04 1401.53,-21.91"/>
<polygon fill="#63b8ff" stroke="#63b8ff" points="1402.02,-25.38 1411.68,-21.02 1401.41,-18.4 1402.02,-25.38"/>
</a>
</g>
</g>
<!-- Node14&#45;&gt;Node3 -->
<g id="edge22_Node000014_Node000003" class="edge">
<title>Node14&#45;&gt;Node3</title>
<g id="a_edge22_Node000014_Node000003"><a xlink:title=" ">
<path fill="none" stroke="#63b8ff" d="M381.81,-65.99C404.64,-57.54 440.35,-44.32 469.31,-33.59"/>
<polygon fill="#63b8ff" stroke="#63b8ff" points="470.68,-36.82 478.85,-30.06 468.25,-30.25 470.68,-36.82"/>
</a>
</g>
</g>
<!-- Node14&#45;&gt;Node4 -->
<g id="edge23_Node000014_Node000004" class="edge">
<title>Node14&#45;&gt;Node4</title>
<g id="a_edge23_Node000014_Node000004"><a xlink:title=" ">
<path fill="none" stroke="#63b8ff" d="M420.15,-71.27C612.07,-61.17 1200.48,-30.18 1401.6,-19.59"/>
<polygon fill="#63b8ff" stroke="#63b8ff" points="1401.94,-23.08 1411.74,-19.06 1401.57,-16.09 1401.94,-23.08"/>
</a>
</g>
</g>
<!-- Node15 -->
<g id="Node000015" class="node">
<title>Node15</title>
<g id="a_Node000015"><a xlink:title=" ">
<polygon fill="#e0e0e0" stroke="#999999" points="386.83,-24.5 330.83,-24.5 330.83,-5.5 386.83,-5.5 386.83,-24.5"/>
<text text-anchor="middle" x="358.83" y="-12.5" font-family="Helvetica,sans-Serif" font-size="10.00">optional</text>
</a>
</g>
</g>
<!-- Node14&#45;&gt;Node15 -->
<g id="edge24_Node000014_Node000015" class="edge">
<title>Node14&#45;&gt;Node15</title>
<g id="a_edge24_Node000014_Node000015"><a xlink:title=" ">
<path fill="none" stroke="#63b8ff" d="M358.83,-65.87C358.83,-57.75 358.83,-45.31 358.83,-34.89"/>
<polygon fill="#63b8ff" stroke="#63b8ff" points="362.33,-34.67 358.83,-24.67 355.33,-34.67 362.33,-34.67"/>
</a>
</g>
</g>
<!-- Node17&#45;&gt;Node3 -->
<g id="edge27_Node000017_Node000003" class="edge">
<title>Node17&#45;&gt;Node3</title>
<g id="a_edge27_Node000017_Node000003"><a xlink:title=" ">
<path fill="none" stroke="#63b8ff" d="M1183.06,-70.21C1034.36,-62.23 724,-44.67 596.8,-30.12"/>
<polygon fill="#63b8ff" stroke="#63b8ff" points="596.86,-26.61 586.51,-28.9 596.03,-33.56 596.86,-26.61"/>
</a>
</g>
</g>
<!-- Node17&#45;&gt;Node4 -->
<g id="edge28_Node000017_Node000004" class="edge">
<title>Node17&#45;&gt;Node4</title>
<g id="a_edge28_Node000017_Node000004"><a xlink:title=" ">
<path fill="none" stroke="#63b8ff" d="M1294.64,-65.99C1324.92,-57.35 1372.62,-43.74 1410.61,-32.9"/>
<polygon fill="#63b8ff" stroke="#63b8ff" points="1411.89,-36.17 1420.55,-30.06 1409.97,-29.44 1411.89,-36.17"/>
</a>
</g>
</g>
<!-- Node17&#45;&gt;Node8 -->
<g id="edge29_Node000017_Node000008" class="edge">
<title>Node17&#45;&gt;Node8</title>
<g id="a_edge29_Node000017_Node000008"><a xlink:title=" ">
<path fill="none" stroke="#63b8ff" d="M1246.07,-65.99C1224.48,-56.2 1188.8,-40.02 1163.9,-28.73"/>
<polygon fill="#63b8ff" stroke="#63b8ff" points="1165.16,-25.46 1154.61,-24.52 1162.27,-31.83 1165.16,-25.46"/>
</a>
</g>
</g>
<!-- Node18&#45;&gt;Node3 -->
<g id="edge31_Node000018_Node000003" class="edge">
<title>Node18&#45;&gt;Node3</title>
<g id="a_edge31_Node000018_Node000003"><a xlink:title=" ">
<path fill="none" stroke="#63b8ff" d="M920.95,-66.93C918.21,-66.62 915.49,-66.31 912.83,-66 774.84,-50.15 737.31,-50.55 596.83,-30.24"/>
<polygon fill="#63b8ff" stroke="#63b8ff" points="596.94,-26.72 586.54,-28.74 595.93,-33.65 596.94,-26.72"/>
</a>
</g>
</g>
<!-- Node18&#45;&gt;Node4 -->
<g id="edge32_Node000018_Node000004" class="edge">
<title>Node18&#45;&gt;Node4</title>
<g id="a_edge32_Node000018_Node000004"><a xlink:title=" ">
<path fill="none" stroke="#63b8ff" d="M1050.35,-66.7C1141.77,-55.65 1308.22,-35.53 1401.61,-24.25"/>
<polygon fill="#63b8ff" stroke="#63b8ff" points="1402.29,-27.69 1411.8,-23.01 1401.45,-20.74 1402.29,-27.69"/>
</a>
</g>
</g>
<!-- Node19&#45;&gt;Node4 -->
<g id="edge34_Node000019_Node000004" class="edge">
<title>Node19&#45;&gt;Node4</title>
<g id="a_edge34_Node000019_Node000004"><a xlink:title=" ">
<path fill="none" stroke="#63b8ff" d="M1633.01,-126.44C1617.26,-112.89 1585.14,-85.99 1555.83,-66 1539.73,-55.02 1521.11,-44 1505.33,-35.12"/>
<polygon fill="#63b8ff" stroke="#63b8ff" points="1506.84,-31.95 1496.4,-30.15 1503.43,-38.07 1506.84,-31.95"/>
</a>
</g>
</g>
<!-- Node19&#45;&gt;Node20 -->
<g id="edge35_Node000019_Node000020" class="edge">
<title>Node19&#45;&gt;Node20</title>
<g id="a_edge35_Node000019_Node000020"><a xlink:title=" ">
<path fill="none" stroke="#63b8ff" d="M1650.5,-126.37C1658.34,-117.55 1670.69,-103.66 1680.37,-92.77"/>
<polygon fill="#63b8ff" stroke="#63b8ff" points="1683.1,-94.97 1687.13,-85.17 1677.87,-90.32 1683.1,-94.97"/>
</a>
</g>
</g>
<!-- Node20&#45;&gt;Node4 -->
<g id="edge36_Node000020_Node000004" class="edge">
<title>Node20&#45;&gt;Node4</title>
<g id="a_edge36_Node000020_Node000004"><a xlink:title=" ">
<path fill="none" stroke="#63b8ff" d="M1662.11,-65.99C1628.6,-57.28 1575.63,-43.51 1533.76,-32.62"/>
<polygon fill="#63b8ff" stroke="#63b8ff" points="1534.48,-29.19 1523.92,-30.06 1532.72,-35.97 1534.48,-29.19"/>
</a>
</g>
</g>
<!-- Node21&#45;&gt;Node4 -->
<g id="edge38_Node000021_Node000004" class="edge">
<title>Node21&#45;&gt;Node4</title>
<g id="a_edge38_Node000021_Node000004"><a xlink:title=" ">
<path fill="none" stroke="#63b8ff" d="M1396.34,-126.49C1435.75,-117.63 1490.17,-102.61 1502.83,-85 1513.33,-70.4 1503.49,-51.94 1491.89,-37.79"/>
<polygon fill="#63b8ff" stroke="#63b8ff" points="1494.25,-35.17 1484.99,-30.01 1489.01,-39.82 1494.25,-35.17"/>
</a>
</g>
</g>
<!-- Node21&#45;&gt;Node12 -->
<g id="edge39_Node000021_Node000012" class="edge">
<title>Node21&#45;&gt;Node12</title>
<g id="a_edge39_Node000021_Node000012"><a xlink:title=" ">
<path fill="none" stroke="#63b8ff" d="M1295.64,-126.47C1279.54,-124.38 1262.03,-122.35 1245.83,-121 1139.79,-112.15 387.74,-124.25 288.83,-85 261.45,-74.13 237.12,-49.44 222.93,-32.74"/>
<polygon fill="#63b8ff" stroke="#63b8ff" points="225.51,-30.37 216.46,-24.85 220.09,-34.8 225.51,-30.37"/>
</a>
</g>
</g>
<!-- Node21&#45;&gt;Node20 -->
<g id="edge40_Node000021_Node000020" class="edge">
<title>Node21&#45;&gt;Node20</title>
<g id="a_edge40_Node000021_Node000020"><a xlink:title=" ">
<path fill="none" stroke="#63b8ff" d="M1395.24,-126.47C1404.63,-124.61 1414.56,-122.69 1423.83,-121 1493.93,-108.24 1574.54,-95.21 1629.5,-86.58"/>
<polygon fill="#63b8ff" stroke="#63b8ff" points="1630.12,-90.02 1639.46,-85.02 1629.04,-83.11 1630.12,-90.02"/>
</a>
</g>
</g>
<!-- Node22&#45;&gt;Node4 -->
<g id="edge42_Node000022_Node000004" class="edge">
<title>Node22&#45;&gt;Node4</title>
<g id="a_edge42_Node000022_Node000004"><a xlink:title=" ">
<path fill="none" stroke="#63b8ff" d="M1222.97,-126.47C1310.65,-114.69 1456.7,-93.89 1464.83,-85 1475.66,-73.16 1476.55,-54.89 1474.92,-40.12"/>
<polygon fill="#63b8ff" stroke="#63b8ff" points="1478.37,-39.49 1473.4,-30.13 1471.45,-40.55 1478.37,-39.49"/>
</a>
</g>
</g>
<!-- Node22&#45;&gt;Node8 -->
<g id="edge43_Node000022_Node000008" class="edge">
<title>Node22&#45;&gt;Node8</title>
<g id="a_edge43_Node000022_Node000008"><a xlink:title=" ">
<path fill="none" stroke="#63b8ff" d="M1156.25,-126.44C1152.73,-107.41 1144.19,-61.19 1139.34,-34.97"/>
<polygon fill="#63b8ff" stroke="#63b8ff" points="1142.72,-34 1137.46,-24.8 1135.83,-35.27 1142.72,-34"/>
</a>
</g>
</g>
<!-- Node22&#45;&gt;Node9 -->
<g id="edge44_Node000022_Node000009" class="edge">
<title>Node22&#45;&gt;Node9</title>
<g id="a_edge44_Node000022_Node000009"><a xlink:title=" ">
<path fill="none" stroke="#63b8ff" d="M1107.64,-126.5C1095.3,-124.55 1082.1,-122.59 1069.83,-121 942.95,-104.59 795.08,-90.9 705.52,-83.21"/>
<polygon fill="#63b8ff" stroke="#63b8ff" points="705.69,-79.71 695.43,-82.35 705.09,-86.69 705.69,-79.71"/>
</a>
</g>
</g>
<!-- Node23&#45;&gt;Node3 -->
<g id="edge46_Node000023_Node000003" class="edge">
<title>Node23&#45;&gt;Node3</title>
<g id="a_edge46_Node000023_Node000003"><a xlink:title=" ">
<path fill="none" stroke="#63b8ff" d="M908.72,-126.33C893.21,-124.56 876.99,-122.72 861.83,-121 790.95,-112.97 599.13,-128.82 542.83,-85 529.04,-74.27 522.57,-55.36 519.52,-40.05"/>
<polygon fill="#63b8ff" stroke="#63b8ff" points="522.98,-39.48 517.92,-30.17 516.07,-40.6 522.98,-39.48"/>
</a>
</g>
</g>
<!-- Node23&#45;&gt;Node4 -->
<g id="edge47_Node000023_Node000004" class="edge">
<title>Node23&#45;&gt;Node4</title>
<g id="a_edge47_Node000023_Node000004"><a xlink:title=" ">
<path fill="none" stroke="#63b8ff" d="M1061.23,-122.36C1064.47,-121.89 1067.68,-121.43 1070.83,-121 1211.73,-101.57 1258.34,-141.59 1388.83,-85 1413.45,-74.33 1436.2,-53.56 1451.29,-37.58"/>
<polygon fill="#63b8ff" stroke="#63b8ff" points="1453.88,-39.93 1458.05,-30.19 1448.72,-35.2 1453.88,-39.93"/>
</a>
</g>
</g>
<!-- Node23&#45;&gt;Node7 -->
<g id="edge48_Node000023_Node000007" class="edge">
<title>Node23&#45;&gt;Node7</title>
<g id="a_edge48_Node000023_Node000007"><a xlink:title=" ">
<path fill="none" stroke="#63b8ff" d="M1019.61,-120.88C1046.27,-107.96 1075.98,-87.62 1059.83,-66 1044.29,-45.19 975.03,-29.99 930.14,-22.11"/>
<polygon fill="#63b8ff" stroke="#63b8ff" points="930.58,-18.64 920.13,-20.41 929.4,-25.54 930.58,-18.64"/>
</a>
</g>
</g>
<!-- Node23&#45;&gt;Node8 -->
<g id="edge49_Node000023_Node000008" class="edge">
<title>Node23&#45;&gt;Node8</title>
<g id="a_edge49_Node000023_Node000008"><a xlink:title=" ">
<path fill="none" stroke="#63b8ff" d="M1016.86,-120.86C1035.12,-111.99 1057.87,-99.49 1075.83,-85 1094.66,-69.81 1112.33,-48.26 1123.55,-33.3"/>
<polygon fill="#63b8ff" stroke="#63b8ff" points="1126.58,-35.09 1129.66,-24.95 1120.93,-30.96 1126.58,-35.09"/>
</a>
</g>
</g>
<!-- Node23&#45;&gt;Node18 -->
<g id="edge50_Node000023_Node000018" class="edge">
<title>Node23&#45;&gt;Node18</title>
<g id="a_edge50_Node000023_Node000018"><a xlink:title=" ">
<path fill="none" stroke="#63b8ff" d="M985.07,-120.84C985.2,-113.21 985.37,-103.7 985.51,-95.45"/>
<polygon fill="#63b8ff" stroke="#63b8ff" points="989.01,-95.32 985.68,-85.27 982.01,-95.2 989.01,-95.32"/>
</a>
</g>
</g>
<!-- Node24&#45;&gt;Node4 -->
<g id="edge52_Node000024_Node000004" class="edge">
<title>Node24&#45;&gt;Node4</title>
<g id="a_edge52_Node000024_Node000004"><a xlink:title=" ">
<path fill="none" stroke="#63b8ff" d="M1821.94,-126.24C1821.62,-111.39 1818.64,-81.39 1800.83,-66 1762.59,-32.95 1623.52,-21.73 1538.28,-17.93"/>
<polygon fill="#63b8ff" stroke="#63b8ff" points="1538.31,-14.43 1528.17,-17.51 1538.01,-21.42 1538.31,-14.43"/>
</a>
</g>
</g>
<!-- Node24&#45;&gt;Node7 -->
<g id="edge53_Node000024_Node000007" class="edge">
<title>Node24&#45;&gt;Node7</title>
<g id="a_edge53_Node000024_Node000007"><a xlink:title=" ">
<path fill="none" stroke="#63b8ff" d="M1818.02,-126.27C1810.79,-110.9 1793.46,-79.36 1767.83,-66 1702.31,-31.85 1177.58,-34.42 1103.83,-30 1043.17,-26.36 972.83,-21.64 930.1,-18.72"/>
<polygon fill="#63b8ff" stroke="#63b8ff" points="930.33,-15.22 920.11,-18.03 929.85,-22.21 930.33,-15.22"/>
</a>
</g>
</g>
<!-- Node24&#45;&gt;Node20 -->
<g id="edge54_Node000024_Node000020" class="edge">
<title>Node24&#45;&gt;Node20</title>
<g id="a_edge54_Node000024_Node000020"><a xlink:title=" ">
<path fill="none" stroke="#63b8ff" d="M1803.36,-126.49C1782.11,-116.7 1746.98,-100.52 1722.46,-89.23"/>
<polygon fill="#63b8ff" stroke="#63b8ff" points="1723.87,-86.02 1713.32,-85.02 1720.94,-92.38 1723.87,-86.02"/>
</a>
</g>
</g>
<!-- Node25&#45;&gt;Node4 -->
<g id="edge56_Node000025_Node000004" class="edge">
<title>Node25&#45;&gt;Node4</title>
<g id="a_edge56_Node000025_Node000004"><a xlink:title=" ">
<path fill="none" stroke="#63b8ff" d="M1510.81,-126.29C1526.97,-113.42 1552.46,-88.41 1540.83,-66 1534.24,-53.29 1522.77,-43.13 1510.95,-35.38"/>
<polygon fill="#63b8ff" stroke="#63b8ff" points="1512.7,-32.35 1502.34,-30.16 1509.07,-38.34 1512.7,-32.35"/>
</a>
</g>
</g>
<!-- Node25&#45;&gt;Node8 -->
<g id="edge57_Node000025_Node000008" class="edge">
<title>Node25&#45;&gt;Node8</title>
<g id="a_edge57_Node000025_Node000008"><a xlink:title=" ">
<path fill="none" stroke="#63b8ff" d="M1483.87,-126.37C1458.36,-111.99 1404.49,-83.02 1355.83,-66 1291.62,-43.54 1213.27,-28.54 1169.53,-21.22"/>
<polygon fill="#63b8ff" stroke="#63b8ff" points="1169.87,-17.73 1159.44,-19.56 1168.74,-24.64 1169.87,-17.73"/>
</a>
</g>
</g>
<!-- Node25&#45;&gt;Node20 -->
<g id="edge58_Node000025_Node000020" class="edge">
<title>Node25&#45;&gt;Node20</title>
<g id="a_edge58_Node000025_Node000020"><a xlink:title=" ">
<path fill="none" stroke="#63b8ff" d="M1527.33,-126.49C1561.44,-116.31 1618.7,-99.22 1656.62,-87.9"/>
<polygon fill="#63b8ff" stroke="#63b8ff" points="1657.72,-91.23 1666.3,-85.02 1655.71,-84.52 1657.72,-91.23"/>
</a>
</g>
</g>
<!-- Node26&#45;&gt;Node4 -->
<g id="edge61_Node000026_Node000004" class="edge">
<title>Node26&#45;&gt;Node4</title>
<g id="a_edge61_Node000026_Node000004"><a xlink:title=" ">
<path fill="none" stroke="#63b8ff" d="M1963.21,-126.47C1935.44,-111.7 1875.25,-81.45 1820.83,-66 1724.89,-38.76 1609.78,-25.97 1538.21,-20.25"/>
<polygon fill="#63b8ff" stroke="#63b8ff" points="1538.21,-16.74 1527.97,-19.46 1537.67,-23.72 1538.21,-16.74"/>
</a>
</g>
</g>
<!-- Node26&#45;&gt;Node20 -->
<g id="edge62_Node000026_Node000020" class="edge">
<title>Node26&#45;&gt;Node20</title>
<g id="a_edge62_Node000026_Node000020"><a xlink:title=" ">
<path fill="none" stroke="#63b8ff" d="M1937.53,-126.49C1886.85,-116.05 1800.88,-98.35 1746.04,-87.05"/>
<polygon fill="#63b8ff" stroke="#63b8ff" points="1746.68,-83.61 1736.18,-85.02 1745.27,-90.46 1746.68,-83.61"/>
</a>
</g>
</g>
</g>
</svg>

<g id="navigator" transform="translate(0 0)" fill="#404254">
  <rect fill="#f2f5e9" fill-opacity="0.5" stroke="#606060" stroke-width=".5" x="0" y="0" width="60" height="60"/>
  <use id="zoomplus" xlink:href="#zoomPlus" x="17" y="9" onmousedown="handleZoom(evt,'in')"/>
  <use id="zoomminus" xlink:href="#zoomMin" x="42" y="9" onmousedown="handleZoom(evt,'out')"/>
  <use id="reset" xlink:href="#resetDef" x="30" y="36" onmousedown="handleReset()"/>
   <use id="arrowup" xlink:href="#arrowUp" x="0" y="0" onmousedown="handlePan(0,-1)"/>
  <use id="arrowright" xlink:href="#arrowRight" x="0" y="0" onmousedown="handlePan(1,0)"/>
  <use id="arrowdown" xlink:href="#arrowDown" x="0" y="0" onmousedown="handlePan(0,1)"/>
  <use id="arrowleft" xlink:href="#arrowLeft" x="0" y="0" onmousedown="handlePan(-1,0)"/>
</g>
<svg viewBox="0 0 15 15" width="100%" height="30px" preserveAspectRatio="xMaxYMin meet">
 <g id="arrow_out" transform="scale(0.3 0.3)">
  <a xlink:href="DirektComponentRegistry_8cpp__incl_org.svg" target="_base">
   <rect id="button" ry="5" rx="5" y="6" x="6" height="38" width="38"
        fill="#f2f5e9" fill-opacity="0.5" stroke="#606060" stroke-width="1.0"/>
   <path id="arrow"
     d="M 11.500037,31.436501 C 11.940474,20.09759 22.043105,11.32322 32.158766,21.979434 L 37.068811,17.246167 C 37.068811,17.246167 37.088388,32 37.088388,32 L 22.160133,31.978069 C 22.160133,31.978069 26.997745,27.140456 26.997745,27.140456 C 18.528582,18.264221 13.291696,25.230495 11.500037,31.436501 z"
     style="fill:#404040;"/>
  </a>
 </g>
</svg>

<style type='text/css'>
<![CDATA[
[data-mouse-over-selected='false'] { opacity: 0.7; }
[data-mouse-over-selected='true']  { opacity: 1.0; }
]]>
</style>
<script type="application/ecmascript"><![CDATA[
document.addEventListener('DOMContentLoaded', (event) => {
  highlightEdges();
  highlightAdjacentNodes();
});
]]></script>
</svg>
