<?xml version="1.0" encoding="UTF-8" standalone="no"?>
<!DOCTYPE svg PUBLIC "-//W3C//DTD SVG 1.1//EN"
 "http://www.w3.org/Graphics/SVG/1.1/DTD/svg11.dtd">
<!-- Generated by graphviz version 2.43.0 (0)
 -->
<!-- Title: core/DirektBaseEditor.h Pages: 1 -->
<svg width="287pt" height="148pt"
 viewBox="0.00 0.00 287.00 148.00" xmlns="http://www.w3.org/2000/svg" xmlns:xlink="http://www.w3.org/1999/xlink">
<g id="graph0" class="graph" transform="scale(1 1) rotate(0) translate(4 144)">
<title>core/DirektBaseEditor.h</title>
<!-- Node1 -->
<g id="Node000001" class="node">
<title>Node1</title>
<g id="a_Node000001"><a xlink:title=" ">
<polygon fill="#999999" stroke="#666666" points="209,-140 78,-140 78,-121 209,-121 209,-140"/>
<text text-anchor="middle" x="143.5" y="-128" font-family="Helvetica,sans-Serif" font-size="10.00">core/DirektBaseEditor.h</text>
</a>
</g>
</g>
<!-- Node2 -->
<g id="Node000002" class="node">
<title>Node2</title>
<g id="a_Node000002"><a xlink:href="DirektDSP_8h.html" target="_top" xlink:title=" ">
<polygon fill="white" stroke="#666666" points="117.5,-85 43.5,-85 43.5,-66 117.5,-66 117.5,-85"/>
<text text-anchor="middle" x="80.5" y="-73" font-family="Helvetica,sans-Serif" font-size="10.00">DirektDSP.h</text>
</a>
</g>
</g>
<!-- Node1&#45;&gt;Node2 -->
<g id="edge1_Node000001_Node000002" class="edge">
<title>Node1&#45;&gt;Node2</title>
<g id="a_edge1_Node000001_Node000002"><a xlink:title=" ">
<path fill="none" stroke="#63b8ff" d="M125.46,-114.32C114.23,-104.87 100.18,-93.06 90.81,-85.17"/>
<polygon fill="#63b8ff" stroke="#63b8ff" points="123.47,-117.23 133.38,-120.98 127.98,-111.87 123.47,-117.23"/>
</a>
</g>
</g>
<!-- Node4 -->
<g id="Node000004" class="node">
<title>Node4</title>
<g id="a_Node000004"><a xlink:href="DirektBaseEditor_8cpp.html" target="_top" xlink:title=" ">
<polygon fill="white" stroke="#666666" points="279,-85 136,-85 136,-66 279,-66 279,-85"/>
<text text-anchor="middle" x="207.5" y="-73" font-family="Helvetica,sans-Serif" font-size="10.00">core/DirektBaseEditor.cpp</text>
</a>
</g>
</g>
<!-- Node1&#45;&gt;Node4 -->
<g id="edge3_Node000001_Node000004" class="edge">
<title>Node1&#45;&gt;Node4</title>
<g id="a_edge3_Node000001_Node000004"><a xlink:title=" ">
<path fill="none" stroke="#63b8ff" d="M161.49,-114.6C172.96,-105.11 187.41,-93.13 197.03,-85.17"/>
<polygon fill="#63b8ff" stroke="#63b8ff" points="159.25,-111.91 153.78,-120.98 163.72,-117.3 159.25,-111.91"/>
</a>
</g>
</g>
<!-- Node3 -->
<g id="Node000003" class="node">
<title>Node3</title>
<g id="a_Node000003"><a xlink:href="StandaloneTestProcessor_8cpp.html" target="_top" xlink:title=" ">
<polygon fill="white" stroke="#666666" points="161,-30 0,-30 0,0 161,0 161,-30"/>
<text text-anchor="start" x="8" y="-18" font-family="Helvetica,sans-Serif" font-size="10.00">examples/StandaloneTest</text>
<text text-anchor="middle" x="80.5" y="-7" font-family="Helvetica,sans-Serif" font-size="10.00">/StandaloneTestProcessor.cpp</text>
</a>
</g>
</g>
<!-- Node2&#45;&gt;Node3 -->
<g id="edge2_Node000002_Node000003" class="edge">
<title>Node2&#45;&gt;Node3</title>
<g id="a_edge2_Node000002_Node000003"><a xlink:title=" ">
<path fill="none" stroke="#63b8ff" d="M80.5,-55.65C80.5,-47.36 80.5,-37.78 80.5,-30.11"/>
<polygon fill="#63b8ff" stroke="#63b8ff" points="77,-55.87 80.5,-65.87 84,-55.87 77,-55.87"/>
</a>
</g>
</g>
</g>
</svg>
