<?xml version="1.0" encoding="UTF-8" standalone="no"?>
<!DOCTYPE svg PUBLIC "-//W3C//DTD SVG 1.1//EN"
 "http://www.w3.org/Graphics/SVG/1.1/DTD/svg11.dtd">
<!-- Generated by graphviz version 2.43.0 (0)
 -->
<!-- Title: controls/DirektToggle.h Pages: 1 -->
<svg width="523pt" height="192pt"
 viewBox="0.00 0.00 523.02 192.00" xmlns="http://www.w3.org/2000/svg" xmlns:xlink="http://www.w3.org/1999/xlink">
<g id="graph0" class="graph" transform="scale(1 1) rotate(0) translate(4 188)">
<title>controls/DirektToggle.h</title>
<!-- Node1 -->
<g id="Node000001" class="node">
<title>Node1</title>
<g id="a_Node000001"><a xlink:title=" ">
<polygon fill="#999999" stroke="#666666" points="229.52,-184 100.52,-184 100.52,-165 229.52,-165 229.52,-184"/>
<text text-anchor="middle" x="165.02" y="-172" font-family="Helvetica,sans-Serif" font-size="10.00">controls/DirektToggle.h</text>
</a>
</g>
</g>
<!-- Node2 -->
<g id="Node000002" class="node">
<title>Node2</title>
<g id="a_Node000002"><a xlink:href="DirektDSP_8h.html" target="_top" xlink:title=" ">
<polygon fill="white" stroke="#666666" points="121.02,-19 47.02,-19 47.02,0 121.02,0 121.02,-19"/>
<text text-anchor="middle" x="84.02" y="-7" font-family="Helvetica,sans-Serif" font-size="10.00">DirektDSP.h</text>
</a>
</g>
</g>
<!-- Node1&#45;&gt;Node2 -->
<g id="edge1_Node000001_Node000002" class="edge">
<title>Node1&#45;&gt;Node2</title>
<g id="a_edge1_Node000001_Node000002"><a xlink:title=" ">
<path fill="none" stroke="#63b8ff" d="M99.46,-163.06C61.67,-155.55 19.43,-144.09 8.02,-129 -21.61,-89.81 42.14,-39.11 70.9,-19.13"/>
<polygon fill="#63b8ff" stroke="#63b8ff" points="98.98,-166.53 109.46,-164.97 100.3,-159.65 98.98,-166.53"/>
</a>
</g>
</g>
<!-- Node3 -->
<g id="Node000003" class="node">
<title>Node3</title>
<g id="a_Node000003"><a xlink:href="DirektToggle_8cpp.html" target="_top" xlink:title=" ">
<polygon fill="white" stroke="#666666" points="157.02,-129 17.02,-129 17.02,-110 157.02,-110 157.02,-129"/>
<text text-anchor="middle" x="87.02" y="-117" font-family="Helvetica,sans-Serif" font-size="10.00">controls/DirektToggle.cpp</text>
</a>
</g>
</g>
<!-- Node1&#45;&gt;Node3 -->
<g id="edge2_Node000001_Node000003" class="edge">
<title>Node1&#45;&gt;Node3</title>
<g id="a_edge2_Node000001_Node000003"><a xlink:title=" ">
<path fill="none" stroke="#63b8ff" d="M143.9,-159.15C129.8,-149.57 111.73,-137.29 99.78,-129.17"/>
<polygon fill="#63b8ff" stroke="#63b8ff" points="142.25,-162.26 152.49,-164.98 146.18,-156.47 142.25,-162.26"/>
</a>
</g>
</g>
<!-- Node4 -->
<g id="Node000004" class="node">
<title>Node4</title>
<g id="a_Node000004"><a xlink:href="DirektAutoLayout_8h.html" target="_top" xlink:title=" ">
<polygon fill="white" stroke="#666666" points="310.52,-129 175.52,-129 175.52,-110 310.52,-110 310.52,-129"/>
<text text-anchor="middle" x="243.02" y="-117" font-family="Helvetica,sans-Serif" font-size="10.00">core/DirektAutoLayout.h</text>
</a>
</g>
</g>
<!-- Node1&#45;&gt;Node4 -->
<g id="edge3_Node000001_Node000004" class="edge">
<title>Node1&#45;&gt;Node4</title>
<g id="a_edge3_Node000001_Node000004"><a xlink:title=" ">
<path fill="none" stroke="#63b8ff" d="M186.14,-159.15C200.23,-149.57 218.31,-137.29 230.26,-129.17"/>
<polygon fill="#63b8ff" stroke="#63b8ff" points="183.86,-156.47 177.55,-164.98 187.79,-162.26 183.86,-156.47"/>
</a>
</g>
</g>
<!-- Node8 -->
<g id="Node000008" class="node">
<title>Node8</title>
<g id="a_Node000008"><a xlink:href="DirektComponentRegistry_8cpp.html" target="_top" xlink:title=" ">
<polygon fill="white" stroke="#666666" points="515.02,-129 329.02,-129 329.02,-110 515.02,-110 515.02,-129"/>
<text text-anchor="middle" x="422.02" y="-117" font-family="Helvetica,sans-Serif" font-size="10.00">core/DirektComponentRegistry.cpp</text>
</a>
</g>
</g>
<!-- Node1&#45;&gt;Node8 -->
<g id="edge9_Node000001_Node000008" class="edge">
<title>Node1&#45;&gt;Node8</title>
<g id="a_edge9_Node000001_Node000008"><a xlink:title=" ">
<path fill="none" stroke="#63b8ff" d="M216.22,-162.94C264.4,-153.01 335.63,-138.31 380.4,-129.08"/>
<polygon fill="#63b8ff" stroke="#63b8ff" points="215.4,-159.54 206.31,-164.98 216.81,-166.39 215.4,-159.54"/>
</a>
</g>
</g>
<!-- Node4&#45;&gt;Node2 -->
<g id="edge4_Node000004_Node000002" class="edge">
<title>Node4&#45;&gt;Node2</title>
<g id="a_edge4_Node000004_Node000002"><a xlink:title=" ">
<path fill="none" stroke="#63b8ff" d="M165.7,-108.05C142.98,-101.55 119.76,-91.03 103.02,-74 88.18,-58.9 84.85,-32.7 84.16,-19.16"/>
<polygon fill="#63b8ff" stroke="#63b8ff" points="164.83,-111.44 175.39,-110.6 166.61,-104.67 164.83,-111.44"/>
</a>
</g>
</g>
<!-- Node5 -->
<g id="Node000005" class="node">
<title>Node5</title>
<g id="a_Node000005"><a xlink:href="DirektAutoLayout_8cpp.html" target="_top" xlink:title=" ">
<polygon fill="white" stroke="#666666" points="258.02,-74 112.02,-74 112.02,-55 258.02,-55 258.02,-74"/>
<text text-anchor="middle" x="185.02" y="-62" font-family="Helvetica,sans-Serif" font-size="10.00">core/DirektAutoLayout.cpp</text>
</a>
</g>
</g>
<!-- Node4&#45;&gt;Node5 -->
<g id="edge5_Node000004_Node000005" class="edge">
<title>Node4&#45;&gt;Node5</title>
<g id="a_edge5_Node000004_Node000005"><a xlink:title=" ">
<path fill="none" stroke="#63b8ff" d="M226.11,-103.04C215.82,-93.64 203.05,-81.98 194.51,-74.17"/>
<polygon fill="#63b8ff" stroke="#63b8ff" points="223.96,-105.82 233.7,-109.98 228.68,-100.66 223.96,-105.82"/>
</a>
</g>
</g>
<!-- Node6 -->
<g id="Node000006" class="node">
<title>Node6</title>
<g id="a_Node000006"><a xlink:href="DirektBaseEditor_8h.html" target="_top" xlink:title=" ">
<polygon fill="white" stroke="#666666" points="407.52,-74 276.52,-74 276.52,-55 407.52,-55 407.52,-74"/>
<text text-anchor="middle" x="342.02" y="-62" font-family="Helvetica,sans-Serif" font-size="10.00">core/DirektBaseEditor.h</text>
</a>
</g>
</g>
<!-- Node4&#45;&gt;Node6 -->
<g id="edge6_Node000004_Node000006" class="edge">
<title>Node4&#45;&gt;Node6</title>
<g id="a_edge6_Node000004_Node000006"><a xlink:title=" ">
<path fill="none" stroke="#63b8ff" d="M267.8,-105.23C285.96,-95.51 310.08,-82.6 325.82,-74.17"/>
<polygon fill="#63b8ff" stroke="#63b8ff" points="266.09,-102.18 258.93,-109.98 269.39,-108.35 266.09,-102.18"/>
</a>
</g>
</g>
<!-- Node6&#45;&gt;Node2 -->
<g id="edge7_Node000006_Node000002" class="edge">
<title>Node6&#45;&gt;Node2</title>
<g id="a_edge7_Node000006_Node000002"><a xlink:title=" ">
<path fill="none" stroke="#63b8ff" d="M290.59,-52.94C240.54,-42.65 165.7,-27.28 121.18,-18.13"/>
<polygon fill="#63b8ff" stroke="#63b8ff" points="290.07,-56.4 300.57,-54.98 291.48,-49.54 290.07,-56.4"/>
</a>
</g>
</g>
<!-- Node7 -->
<g id="Node000007" class="node">
<title>Node7</title>
<g id="a_Node000007"><a xlink:href="DirektBaseEditor_8cpp.html" target="_top" xlink:title=" ">
<polygon fill="white" stroke="#666666" points="413.52,-19 270.52,-19 270.52,0 413.52,0 413.52,-19"/>
<text text-anchor="middle" x="342.02" y="-7" font-family="Helvetica,sans-Serif" font-size="10.00">core/DirektBaseEditor.cpp</text>
</a>
</g>
</g>
<!-- Node6&#45;&gt;Node7 -->
<g id="edge8_Node000006_Node000007" class="edge">
<title>Node6&#45;&gt;Node7</title>
<g id="a_edge8_Node000006_Node000007"><a xlink:title=" ">
<path fill="none" stroke="#63b8ff" d="M342.02,-44.66C342.02,-35.93 342.02,-25.99 342.02,-19.09"/>
<polygon fill="#63b8ff" stroke="#63b8ff" points="338.52,-44.75 342.02,-54.75 345.52,-44.75 338.52,-44.75"/>
</a>
</g>
</g>
</g>
</svg>
