<?xml version="1.0" encoding="UTF-8" standalone="no"?>
<!DOCTYPE svg PUBLIC "-//W3C//DTD SVG 1.1//EN"
 "http://www.w3.org/Graphics/SVG/1.1/DTD/svg11.dtd">
<!-- Generated by graphviz version 2.43.0 (0)
 -->
<!-- Title: layout/DirektModuleBypassSoloStrip.h Pages: 1 -->
<svg width="776pt" height="104pt"
 viewBox="0.00 0.00 775.50 104.00" xmlns="http://www.w3.org/2000/svg" xmlns:xlink="http://www.w3.org/1999/xlink">
<g id="graph0" class="graph" transform="scale(1 1) rotate(0) translate(4 100)">
<title>layout/DirektModuleBypassSoloStrip.h</title>
<!-- Node1 -->
<g id="Node000001" class="node">
<title>Node1</title>
<g id="a_Node000001"><a xlink:title=" ">
<polygon fill="#999999" stroke="#666666" points="425,-96 273,-96 273,-66 425,-66 425,-96"/>
<text text-anchor="start" x="281" y="-84" font-family="Helvetica,sans-Serif" font-size="10.00">layout/DirektModuleBypass</text>
<text text-anchor="middle" x="349" y="-73" font-family="Helvetica,sans-Serif" font-size="10.00">SoloStrip.h</text>
</a>
</g>
</g>
<!-- Node2 -->
<g id="Node000002" class="node">
<title>Node2</title>
<g id="a_Node000002"><a xlink:href="DirektDSP_8h.html" target="_top" xlink:title=" ">
<polygon fill="white" stroke="#666666" points="74,-24.5 0,-24.5 0,-5.5 74,-5.5 74,-24.5"/>
<text text-anchor="middle" x="37" y="-12.5" font-family="Helvetica,sans-Serif" font-size="10.00">DirektDSP.h</text>
</a>
</g>
</g>
<!-- Node1&#45;&gt;Node2 -->
<g id="edge1_Node000001_Node000002" class="edge">
<title>Node1&#45;&gt;Node2</title>
<g id="a_edge1_Node000001_Node000002"><a xlink:title=" ">
<path fill="none" stroke="#63b8ff" d="M262.94,-66.29C210.6,-57.34 142.59,-44.62 83,-30 76.68,-28.45 69.94,-26.54 63.62,-24.64"/>
<polygon fill="#63b8ff" stroke="#63b8ff" points="262.41,-69.75 272.85,-67.97 263.58,-62.84 262.41,-69.75"/>
</a>
</g>
</g>
<!-- Node3 -->
<g id="Node000003" class="node">
<title>Node3</title>
<g id="a_Node000003"><a xlink:href="DirektAutoLayout_8cpp.html" target="_top" xlink:title=" ">
<polygon fill="white" stroke="#666666" points="238,-24.5 92,-24.5 92,-5.5 238,-5.5 238,-24.5"/>
<text text-anchor="middle" x="165" y="-12.5" font-family="Helvetica,sans-Serif" font-size="10.00">core/DirektAutoLayout.cpp</text>
</a>
</g>
</g>
<!-- Node1&#45;&gt;Node3 -->
<g id="edge2_Node000001_Node000003" class="edge">
<title>Node1&#45;&gt;Node3</title>
<g id="a_edge2_Node000001_Node000003"><a xlink:title=" ">
<path fill="none" stroke="#63b8ff" d="M298.91,-62.58C263.4,-50.23 217.29,-34.19 189.49,-24.52"/>
<polygon fill="#63b8ff" stroke="#63b8ff" points="298.03,-65.98 308.62,-65.95 300.33,-59.36 298.03,-65.98"/>
</a>
</g>
</g>
<!-- Node4 -->
<g id="Node000004" class="node">
<title>Node4</title>
<g id="a_Node000004"><a xlink:href="DirektComponentRegistry_8cpp.html" target="_top" xlink:title=" ">
<polygon fill="white" stroke="#666666" points="442,-24.5 256,-24.5 256,-5.5 442,-5.5 442,-24.5"/>
<text text-anchor="middle" x="349" y="-12.5" font-family="Helvetica,sans-Serif" font-size="10.00">core/DirektComponentRegistry.cpp</text>
</a>
</g>
</g>
<!-- Node1&#45;&gt;Node4 -->
<g id="edge3_Node000001_Node000004" class="edge">
<title>Node1&#45;&gt;Node4</title>
<g id="a_edge3_Node000001_Node000004"><a xlink:title=" ">
<path fill="none" stroke="#63b8ff" d="M349,-55.6C349,-44.8 349,-32.78 349,-24.84"/>
<polygon fill="#63b8ff" stroke="#63b8ff" points="345.5,-55.8 349,-65.8 352.5,-55.8 345.5,-55.8"/>
</a>
</g>
</g>
<!-- Node5 -->
<g id="Node000005" class="node">
<title>Node5</title>
<g id="a_Node000005"><a xlink:href="DirektModuleBypassSoloStrip_8cpp.html" target="_top" xlink:title=" ">
<polygon fill="white" stroke="#666666" points="612,-30 460,-30 460,0 612,0 612,-30"/>
<text text-anchor="start" x="468" y="-18" font-family="Helvetica,sans-Serif" font-size="10.00">layout/DirektModuleBypass</text>
<text text-anchor="middle" x="536" y="-7" font-family="Helvetica,sans-Serif" font-size="10.00">SoloStrip.cpp</text>
</a>
</g>
</g>
<!-- Node1&#45;&gt;Node5 -->
<g id="edge4_Node000001_Node000005" class="edge">
<title>Node1&#45;&gt;Node5</title>
<g id="a_edge4_Node000001_Node000005"><a xlink:title=" ">
<path fill="none" stroke="#63b8ff" d="M399.87,-62.59C429.77,-52.36 467.07,-39.59 495.06,-30.01"/>
<polygon fill="#63b8ff" stroke="#63b8ff" points="398.37,-59.41 390.04,-65.95 400.63,-66.03 398.37,-59.41"/>
</a>
</g>
</g>
<!-- Node6 -->
<g id="Node000006" class="node">
<title>Node6</title>
<g id="a_Node000006"><a xlink:href="DirektSection_8cpp.html" target="_top" xlink:title=" ">
<polygon fill="white" stroke="#666666" points="767.5,-24.5 630.5,-24.5 630.5,-5.5 767.5,-5.5 767.5,-24.5"/>
<text text-anchor="middle" x="699" y="-12.5" font-family="Helvetica,sans-Serif" font-size="10.00">layout/DirektSection.cpp</text>
</a>
</g>
</g>
<!-- Node1&#45;&gt;Node6 -->
<g id="edge5_Node000001_Node000006" class="edge">
<title>Node1&#45;&gt;Node6</title>
<g id="a_edge5_Node000001_Node000006"><a xlink:title=" ">
<path fill="none" stroke="#63b8ff" d="M435.3,-64.22C503.83,-51.69 597.02,-34.65 652.3,-24.54"/>
<polygon fill="#63b8ff" stroke="#63b8ff" points="434.58,-60.79 425.38,-66.03 435.84,-67.68 434.58,-60.79"/>
</a>
</g>
</g>
</g>
</svg>
