<?xml version="1.0" encoding="UTF-8" standalone="no"?>
<!DOCTYPE svg PUBLIC "-//W3C//DTD SVG 1.1//EN"
 "http://www.w3.org/Graphics/SVG/1.1/DTD/svg11.dtd">
<!-- Generated by graphviz version 2.43.0 (0)
 -->
<!-- Title: core/DirektAutoLayout.h Pages: 1 -->
<svg width="952pt" height="214pt"
 viewBox="0.00 0.00 951.64 214.00" xmlns="http://www.w3.org/2000/svg" xmlns:xlink="http://www.w3.org/1999/xlink">
<g id="graph0" class="graph" transform="scale(1 1) rotate(0) translate(4 210)">
<title>core/DirektAutoLayout.h</title>
<!-- Node1 -->
<g id="Node000001" class="node">
<title>Node1</title>
<g id="a_Node000001"><a xlink:title=" ">
<polygon fill="#999999" stroke="#666666" points="479,-206 344,-206 344,-187 479,-187 479,-206"/>
<text text-anchor="middle" x="411.5" y="-194" font-family="Helvetica,sans-Serif" font-size="10.00">core/DirektAutoLayout.h</text>
</a>
</g>
</g>
<!-- Node2 -->
<g id="Node000002" class="node">
<title>Node2</title>
<g id="a_Node000002"><a xlink:title=" ">
<polygon fill="#e0e0e0" stroke="#999999" points="392,-96 253,-96 253,-66 392,-66 392,-96"/>
<text text-anchor="start" x="261" y="-84" font-family="Helvetica,sans-Serif" font-size="10.00">juce_audio_processors</text>
<text text-anchor="middle" x="322.5" y="-73" font-family="Helvetica,sans-Serif" font-size="10.00">/juce_audio_processors.h</text>
</a>
</g>
</g>
<!-- Node1&#45;&gt;Node2 -->
<g id="edge1_Node000001_Node000002" class="edge">
<title>Node1&#45;&gt;Node2</title>
<g id="a_edge1_Node000001_Node000002"><a xlink:title=" ">
<path fill="none" stroke="#63b8ff" d="M390.11,-186.98C374.44,-179.67 353.83,-167.67 341.5,-151 331.91,-138.02 327.16,-120.45 324.8,-106.29"/>
<polygon fill="#63b8ff" stroke="#63b8ff" points="328.26,-105.69 323.43,-96.25 321.32,-106.64 328.26,-105.69"/>
</a>
</g>
</g>
<!-- Node3 -->
<g id="Node000003" class="node">
<title>Node3</title>
<g id="a_Node000003"><a xlink:title=" ">
<polygon fill="#e0e0e0" stroke="#999999" points="478.5,-30 362.5,-30 362.5,0 478.5,0 478.5,-30"/>
<text text-anchor="start" x="370.5" y="-18" font-family="Helvetica,sans-Serif" font-size="10.00">juce_gui_basics/juce</text>
<text text-anchor="middle" x="420.5" y="-7" font-family="Helvetica,sans-Serif" font-size="10.00">_gui_basics.h</text>
</a>
</g>
</g>
<!-- Node1&#45;&gt;Node3 -->
<g id="edge2_Node000001_Node000003" class="edge">
<title>Node1&#45;&gt;Node3</title>
<g id="a_edge2_Node000001_Node000003"><a xlink:title=" ">
<path fill="none" stroke="#63b8ff" d="M479.06,-190.88C535.86,-185.43 610.72,-174 629.5,-151 676.46,-93.48 566.12,-52.34 488.56,-31.51"/>
<polygon fill="#63b8ff" stroke="#63b8ff" points="489.36,-28.11 478.8,-28.95 487.58,-34.88 489.36,-28.11"/>
</a>
</g>
</g>
<!-- Node4 -->
<g id="Node000004" class="node">
<title>Node4</title>
<g id="a_Node000004"><a xlink:href="DirektDescriptors_8h.html" target="_top" xlink:title=" ">
<polygon fill="white" stroke="#666666" points="866,-151 723,-151 723,-132 866,-132 866,-151"/>
<text text-anchor="middle" x="794.5" y="-139" font-family="Helvetica,sans-Serif" font-size="10.00">config/DirektDescriptors.h</text>
</a>
</g>
</g>
<!-- Node1&#45;&gt;Node4 -->
<g id="edge3_Node000001_Node000004" class="edge">
<title>Node1&#45;&gt;Node4</title>
<g id="a_edge3_Node000001_Node000004"><a xlink:title=" ">
<path fill="none" stroke="#63b8ff" d="M473.04,-186.98C541.06,-177.57 650.5,-162.43 722.46,-152.47"/>
<polygon fill="#63b8ff" stroke="#63b8ff" points="723.37,-155.88 732.8,-151.04 722.41,-148.94 723.37,-155.88"/>
</a>
</g>
</g>
<!-- Node9 -->
<g id="Node000009" class="node">
<title>Node9</title>
<g id="a_Node000009"><a xlink:href="DirektComboBox_8h.html" target="_top" xlink:title=" ">
<polygon fill="white" stroke="#666666" points="294,-151 143,-151 143,-132 294,-132 294,-151"/>
<text text-anchor="middle" x="218.5" y="-139" font-family="Helvetica,sans-Serif" font-size="10.00">controls/DirektComboBox.h</text>
</a>
</g>
</g>
<!-- Node1&#45;&gt;Node9 -->
<g id="edge9_Node000001_Node000009" class="edge">
<title>Node1&#45;&gt;Node9</title>
<g id="a_edge9_Node000001_Node000009"><a xlink:title=" ">
<path fill="none" stroke="#63b8ff" d="M380.49,-186.98C347.67,-177.97 295.7,-163.7 259.51,-153.76"/>
<polygon fill="#63b8ff" stroke="#63b8ff" points="260.32,-150.36 249.75,-151.08 258.47,-157.11 260.32,-150.36"/>
</a>
</g>
</g>
<!-- Node10 -->
<g id="Node000010" class="node">
<title>Node10</title>
<g id="a_Node000010"><a xlink:href="DirektKnob_8h.html" target="_top" xlink:title=" ">
<polygon fill="white" stroke="#666666" points="472.5,-151 350.5,-151 350.5,-132 472.5,-132 472.5,-151"/>
<text text-anchor="middle" x="411.5" y="-139" font-family="Helvetica,sans-Serif" font-size="10.00">controls/DirektKnob.h</text>
</a>
</g>
</g>
<!-- Node1&#45;&gt;Node10 -->
<g id="edge12_Node000001_Node000010" class="edge">
<title>Node1&#45;&gt;Node10</title>
<g id="a_edge12_Node000001_Node000010"><a xlink:title=" ">
<path fill="none" stroke="#63b8ff" d="M411.5,-186.75C411.5,-179.8 411.5,-169.85 411.5,-161.13"/>
<polygon fill="#63b8ff" stroke="#63b8ff" points="415,-161.09 411.5,-151.09 408,-161.09 415,-161.09"/>
</a>
</g>
</g>
<!-- Node11 -->
<g id="Node000011" class="node">
<title>Node11</title>
<g id="a_Node000011"><a xlink:href="DirektToggle_8h.html" target="_top" xlink:title=" ">
<polygon fill="white" stroke="#666666" points="620,-151 491,-151 491,-132 620,-132 620,-151"/>
<text text-anchor="middle" x="555.5" y="-139" font-family="Helvetica,sans-Serif" font-size="10.00">controls/DirektToggle.h</text>
</a>
</g>
</g>
<!-- Node1&#45;&gt;Node11 -->
<g id="edge15_Node000001_Node000011" class="edge">
<title>Node1&#45;&gt;Node11</title>
<g id="a_edge15_Node000001_Node000011"><a xlink:title=" ">
<path fill="none" stroke="#63b8ff" d="M434.64,-186.98C458.32,-178.27 495.37,-164.63 522.21,-154.75"/>
<polygon fill="#63b8ff" stroke="#63b8ff" points="523.77,-157.91 531.94,-151.17 521.35,-151.34 523.77,-157.91"/>
</a>
</g>
</g>
<!-- Node12 -->
<g id="Node000012" class="node">
<title>Node12</title>
<g id="a_Node000012"><a xlink:href="DirektSection_8h.html" target="_top" xlink:title=" ">
<polygon fill="white" stroke="#666666" points="125,-151 0,-151 0,-132 125,-132 125,-151"/>
<text text-anchor="middle" x="62.5" y="-139" font-family="Helvetica,sans-Serif" font-size="10.00">layout/DirektSection.h</text>
</a>
</g>
</g>
<!-- Node1&#45;&gt;Node12 -->
<g id="edge18_Node000001_Node000012" class="edge">
<title>Node1&#45;&gt;Node12</title>
<g id="a_edge18_Node000001_Node000012"><a xlink:title=" ">
<path fill="none" stroke="#63b8ff" d="M355.43,-186.98C293.7,-177.61 194.53,-162.55 128.95,-152.59"/>
<polygon fill="#63b8ff" stroke="#63b8ff" points="129.13,-149.08 118.72,-151.04 128.08,-156 129.13,-149.08"/>
</a>
</g>
</g>
<!-- Node4&#45;&gt;Node3 -->
<g id="edge4_Node000004_Node000003" class="edge">
<title>Node4&#45;&gt;Node3</title>
<g id="a_edge4_Node000004_Node000003"><a xlink:title=" ">
<path fill="none" stroke="#63b8ff" d="M845.98,-131.97C897.93,-121.25 966.39,-100.03 935.5,-66 906.04,-33.55 622.18,-21.52 488.93,-17.63"/>
<polygon fill="#63b8ff" stroke="#63b8ff" points="488.93,-14.13 478.83,-17.34 488.73,-21.13 488.93,-14.13"/>
</a>
</g>
</g>
<!-- Node5 -->
<g id="Node000005" class="node">
<title>Node5</title>
<g id="a_Node000005"><a xlink:title=" ">
<polygon fill="#e0e0e0" stroke="#999999" points="780.5,-90.5 742.5,-90.5 742.5,-71.5 780.5,-71.5 780.5,-90.5"/>
<text text-anchor="middle" x="761.5" y="-78.5" font-family="Helvetica,sans-Serif" font-size="10.00">map</text>
</a>
</g>
</g>
<!-- Node4&#45;&gt;Node5 -->
<g id="edge5_Node000004_Node000005" class="edge">
<title>Node4&#45;&gt;Node5</title>
<g id="a_edge5_Node000004_Node000005"><a xlink:title=" ">
<path fill="none" stroke="#63b8ff" d="M789.63,-131.87C784.85,-123.4 777.43,-110.24 771.41,-99.57"/>
<polygon fill="#63b8ff" stroke="#63b8ff" points="774.35,-97.66 766.39,-90.67 768.25,-101.1 774.35,-97.66"/>
</a>
</g>
</g>
<!-- Node6 -->
<g id="Node000006" class="node">
<title>Node6</title>
<g id="a_Node000006"><a xlink:title=" ">
<polygon fill="#e0e0e0" stroke="#999999" points="856.5,-90.5 798.5,-90.5 798.5,-71.5 856.5,-71.5 856.5,-90.5"/>
<text text-anchor="middle" x="827.5" y="-78.5" font-family="Helvetica,sans-Serif" font-size="10.00">memory</text>
</a>
</g>
</g>
<!-- Node4&#45;&gt;Node6 -->
<g id="edge6_Node000004_Node000006" class="edge">
<title>Node4&#45;&gt;Node6</title>
<g id="a_edge6_Node000004_Node000006"><a xlink:title=" ">
<path fill="none" stroke="#63b8ff" d="M799.37,-131.87C804.15,-123.4 811.57,-110.24 817.59,-99.57"/>
<polygon fill="#63b8ff" stroke="#63b8ff" points="820.75,-101.1 822.61,-90.67 814.65,-97.66 820.75,-101.1"/>
</a>
</g>
</g>
<!-- Node7 -->
<g id="Node000007" class="node">
<title>Node7</title>
<g id="a_Node000007"><a xlink:title=" ">
<polygon fill="#e0e0e0" stroke="#999999" points="926,-90.5 875,-90.5 875,-71.5 926,-71.5 926,-90.5"/>
<text text-anchor="middle" x="900.5" y="-78.5" font-family="Helvetica,sans-Serif" font-size="10.00">variant</text>
</a>
</g>
</g>
<!-- Node4&#45;&gt;Node7 -->
<g id="edge7_Node000004_Node000007" class="edge">
<title>Node4&#45;&gt;Node7</title>
<g id="a_edge7_Node000004_Node000007"><a xlink:title=" ">
<path fill="none" stroke="#63b8ff" d="M810.14,-131.87C827.44,-122.32 855.55,-106.81 875.83,-95.62"/>
<polygon fill="#63b8ff" stroke="#63b8ff" points="877.73,-98.56 884.8,-90.67 874.35,-92.43 877.73,-98.56"/>
</a>
</g>
</g>
<!-- Node8 -->
<g id="Node000008" class="node">
<title>Node8</title>
<g id="a_Node000008"><a xlink:title=" ">
<polygon fill="#e0e0e0" stroke="#999999" points="724,-90.5 677,-90.5 677,-71.5 724,-71.5 724,-90.5"/>
<text text-anchor="middle" x="700.5" y="-78.5" font-family="Helvetica,sans-Serif" font-size="10.00">vector</text>
</a>
</g>
</g>
<!-- Node4&#45;&gt;Node8 -->
<g id="edge8_Node000004_Node000008" class="edge">
<title>Node4&#45;&gt;Node8</title>
<g id="a_edge8_Node000004_Node000008"><a xlink:title=" ">
<path fill="none" stroke="#63b8ff" d="M780.63,-131.87C765.5,-122.45 741.04,-107.23 723.12,-96.08"/>
<polygon fill="#63b8ff" stroke="#63b8ff" points="724.77,-92.98 714.43,-90.67 721.07,-98.92 724.77,-92.98"/>
</a>
</g>
</g>
<!-- Node9&#45;&gt;Node2 -->
<g id="edge10_Node000009_Node000002" class="edge">
<title>Node9&#45;&gt;Node2</title>
<g id="a_edge10_Node000009_Node000002"><a xlink:title=" ">
<path fill="none" stroke="#63b8ff" d="M233.85,-131.87C248.22,-123.78 270.19,-111.42 288.67,-101.03"/>
<polygon fill="#63b8ff" stroke="#63b8ff" points="290.41,-104.07 297.41,-96.11 286.98,-97.97 290.41,-104.07"/>
</a>
</g>
</g>
<!-- Node9&#45;&gt;Node3 -->
<g id="edge11_Node000009_Node000003" class="edge">
<title>Node9&#45;&gt;Node3</title>
<g id="a_edge11_Node000009_Node000003"><a xlink:title=" ">
<path fill="none" stroke="#63b8ff" d="M218.89,-131.76C220.05,-116.26 224.73,-83.88 243.5,-66 272.56,-38.32 315.75,-25.76 352.19,-20.16"/>
<polygon fill="#63b8ff" stroke="#63b8ff" points="352.85,-23.6 362.27,-18.75 351.88,-16.67 352.85,-23.6"/>
</a>
</g>
</g>
<!-- Node10&#45;&gt;Node2 -->
<g id="edge13_Node000010_Node000002" class="edge">
<title>Node10&#45;&gt;Node2</title>
<g id="a_edge13_Node000010_Node000002"><a xlink:title=" ">
<path fill="none" stroke="#63b8ff" d="M398.37,-131.87C386.4,-124 368.28,-112.09 352.75,-101.89"/>
<polygon fill="#63b8ff" stroke="#63b8ff" points="354.25,-98.68 343.97,-96.11 350.41,-104.53 354.25,-98.68"/>
</a>
</g>
</g>
<!-- Node10&#45;&gt;Node3 -->
<g id="edge14_Node000010_Node000003" class="edge">
<title>Node10&#45;&gt;Node3</title>
<g id="a_edge14_Node000010_Node000003"><a xlink:title=" ">
<path fill="none" stroke="#63b8ff" d="M412.12,-131.94C413.46,-113.32 416.7,-68.53 418.74,-40.39"/>
<polygon fill="#63b8ff" stroke="#63b8ff" points="422.25,-40.39 419.48,-30.16 415.26,-39.88 422.25,-40.39"/>
</a>
</g>
</g>
<!-- Node11&#45;&gt;Node2 -->
<g id="edge16_Node000011_Node000002" class="edge">
<title>Node11&#45;&gt;Node2</title>
<g id="a_edge16_Node000011_Node000002"><a xlink:title=" ">
<path fill="none" stroke="#63b8ff" d="M521.62,-131.99C486.84,-123.26 431.83,-109.45 388.43,-98.55"/>
<polygon fill="#63b8ff" stroke="#63b8ff" points="389.07,-95.1 378.52,-96.06 387.36,-101.89 389.07,-95.1"/>
</a>
</g>
</g>
<!-- Node11&#45;&gt;Node3 -->
<g id="edge17_Node000011_Node000003" class="edge">
<title>Node11&#45;&gt;Node3</title>
<g id="a_edge17_Node000011_Node000003"><a xlink:title=" ">
<path fill="none" stroke="#63b8ff" d="M546.22,-131.94C525.22,-112.58 473.55,-64.92 443.39,-37.11"/>
<polygon fill="#63b8ff" stroke="#63b8ff" points="445.58,-34.37 435.85,-30.16 440.83,-39.51 445.58,-34.37"/>
</a>
</g>
</g>
<!-- Node12&#45;&gt;Node3 -->
<g id="edge19_Node000012_Node000003" class="edge">
<title>Node12&#45;&gt;Node3</title>
<g id="a_edge19_Node000012_Node000003"><a xlink:title=" ">
<path fill="none" stroke="#63b8ff" d="M78.43,-131.85C106.73,-116.76 167.93,-85.4 222.5,-66 264.82,-50.96 313.74,-38.56 352.37,-29.87"/>
<polygon fill="#63b8ff" stroke="#63b8ff" points="353.46,-33.21 362.46,-27.63 351.94,-26.38 353.46,-33.21"/>
</a>
</g>
</g>
<!-- Node13 -->
<g id="Node000013" class="node">
<title>Node13</title>
<g id="a_Node000013"><a xlink:href="DirektColours_8h.html" target="_top" xlink:title=" ">
<polygon fill="white" stroke="#666666" points="131,-90.5 4,-90.5 4,-71.5 131,-71.5 131,-90.5"/>
<text text-anchor="middle" x="67.5" y="-78.5" font-family="Helvetica,sans-Serif" font-size="10.00">theme/DirektColours.h</text>
</a>
</g>
</g>
<!-- Node12&#45;&gt;Node13 -->
<g id="edge20_Node000012_Node000013" class="edge">
<title>Node12&#45;&gt;Node13</title>
<g id="a_edge20_Node000012_Node000013"><a xlink:title=" ">
<path fill="none" stroke="#63b8ff" d="M63.24,-131.87C63.93,-123.75 65,-111.31 65.89,-100.89"/>
<polygon fill="#63b8ff" stroke="#63b8ff" points="69.39,-100.93 66.76,-90.67 62.42,-100.33 69.39,-100.93"/>
</a>
</g>
</g>
<!-- Node13&#45;&gt;Node3 -->
<g id="edge21_Node000013_Node000003" class="edge">
<title>Node13&#45;&gt;Node3</title>
<g id="a_edge21_Node000013_Node000003"><a xlink:title=" ">
<path fill="none" stroke="#63b8ff" d="M114.74,-71.44C175.8,-60.36 282.55,-41.01 352.38,-28.35"/>
<polygon fill="#63b8ff" stroke="#63b8ff" points="353.19,-31.76 362.4,-26.53 351.94,-24.87 353.19,-31.76"/>
</a>
</g>
</g>
</g>
</svg>
