<?xml version="1.0" encoding="UTF-8" standalone="no"?>
<!DOCTYPE svg PUBLIC "-//W3C//DTD SVG 1.1//EN"
 "http://www.w3.org/Graphics/SVG/1.1/DTD/svg11.dtd">
<!-- Generated by graphviz version 2.43.0 (0)
 -->
<!-- Title: display/DirektStereoMeter.h Pages: 1 -->
<svg width="277pt" height="203pt"
 viewBox="0.00 0.00 277.00 203.00" xmlns="http://www.w3.org/2000/svg" xmlns:xlink="http://www.w3.org/1999/xlink">
<g id="graph0" class="graph" transform="scale(1 1) rotate(0) translate(4 199)">
<title>display/DirektStereoMeter.h</title>
<!-- Node1 -->
<g id="Node000001" class="node">
<title>Node1</title>
<g id="a_Node000001"><a xlink:title=" ">
<polygon fill="#999999" stroke="#666666" points="153,-195 0,-195 0,-176 153,-176 153,-195"/>
<text text-anchor="middle" x="76.5" y="-183" font-family="Helvetica,sans-Serif" font-size="10.00">display/DirektStereoMeter.h</text>
</a>
</g>
</g>
<!-- Node2 -->
<g id="Node000002" class="node">
<title>Node2</title>
<g id="a_Node000002"><a xlink:title=" ">
<polygon fill="#e0e0e0" stroke="#999999" points="171.5,-30 55.5,-30 55.5,0 171.5,0 171.5,-30"/>
<text text-anchor="start" x="63.5" y="-18" font-family="Helvetica,sans-Serif" font-size="10.00">juce_gui_basics/juce</text>
<text text-anchor="middle" x="113.5" y="-7" font-family="Helvetica,sans-Serif" font-size="10.00">_gui_basics.h</text>
</a>
</g>
</g>
<!-- Node1&#45;&gt;Node2 -->
<g id="edge1_Node000001_Node000002" class="edge">
<title>Node1&#45;&gt;Node2</title>
<g id="a_edge1_Node000001_Node000002"><a xlink:title=" ">
<path fill="none" stroke="#63b8ff" d="M66.89,-175.86C45.85,-155.86 -0.64,-105.11 22.5,-66 30.63,-52.25 44.03,-42.03 58.08,-34.55"/>
<polygon fill="#63b8ff" stroke="#63b8ff" points="59.91,-37.55 67.36,-30.01 56.84,-31.26 59.91,-37.55"/>
</a>
</g>
</g>
<!-- Node3 -->
<g id="Node000003" class="node">
<title>Node3</title>
<g id="a_Node000003"><a xlink:title=" ">
<polygon fill="#e0e0e0" stroke="#999999" points="81.5,-85 31.5,-85 31.5,-66 81.5,-66 81.5,-85"/>
<text text-anchor="middle" x="56.5" y="-73" font-family="Helvetica,sans-Serif" font-size="10.00">atomic</text>
</a>
</g>
</g>
<!-- Node1&#45;&gt;Node3 -->
<g id="edge2_Node000001_Node000003" class="edge">
<title>Node1&#45;&gt;Node3</title>
<g id="a_edge2_Node000001_Node000003"><a xlink:title=" ">
<path fill="none" stroke="#63b8ff" d="M69.87,-175.88C63.74,-167.32 55.04,-153.54 51.5,-140 47.65,-125.27 49.38,-108.02 51.81,-95.22"/>
<polygon fill="#63b8ff" stroke="#63b8ff" points="55.27,-95.81 54,-85.29 48.43,-94.3 55.27,-95.81"/>
</a>
</g>
</g>
<!-- Node4 -->
<g id="Node000004" class="node">
<title>Node4</title>
<g id="a_Node000004"><a xlink:href="DirektMeter_8h.html" target="_top" xlink:title=" ">
<polygon fill="white" stroke="#666666" points="182.5,-140 60.5,-140 60.5,-121 182.5,-121 182.5,-140"/>
<text text-anchor="middle" x="121.5" y="-128" font-family="Helvetica,sans-Serif" font-size="10.00">display/DirektMeter.h</text>
</a>
</g>
</g>
<!-- Node1&#45;&gt;Node4 -->
<g id="edge3_Node000001_Node000004" class="edge">
<title>Node1&#45;&gt;Node4</title>
<g id="a_edge3_Node000001_Node000004"><a xlink:title=" ">
<path fill="none" stroke="#63b8ff" d="M83.93,-175.75C90.35,-168.18 99.81,-157.05 107.62,-147.84"/>
<polygon fill="#63b8ff" stroke="#63b8ff" points="110.4,-149.98 114.21,-140.09 105.07,-145.45 110.4,-149.98"/>
</a>
</g>
</g>
<!-- Node5 -->
<g id="Node000005" class="node">
<title>Node5</title>
<g id="a_Node000005"><a xlink:href="DirektColours_8h.html" target="_top" xlink:title=" ">
<polygon fill="white" stroke="#666666" points="269,-85 142,-85 142,-66 269,-66 269,-85"/>
<text text-anchor="middle" x="205.5" y="-73" font-family="Helvetica,sans-Serif" font-size="10.00">theme/DirektColours.h</text>
</a>
</g>
</g>
<!-- Node1&#45;&gt;Node5 -->
<g id="edge8_Node000001_Node000005" class="edge">
<title>Node1&#45;&gt;Node5</title>
<g id="a_edge8_Node000001_Node000005"><a xlink:title=" ">
<path fill="none" stroke="#63b8ff" d="M127.84,-175.96C150.41,-169.65 175.4,-158.76 191.5,-140 202.07,-127.69 205.18,-109.18 205.88,-95.32"/>
<polygon fill="#63b8ff" stroke="#63b8ff" points="209.39,-95.05 206.01,-85 202.39,-94.96 209.39,-95.05"/>
</a>
</g>
</g>
<!-- Node4&#45;&gt;Node2 -->
<g id="edge4_Node000004_Node000002" class="edge">
<title>Node4&#45;&gt;Node2</title>
<g id="a_edge4_Node000004_Node000002"><a xlink:title=" ">
<path fill="none" stroke="#63b8ff" d="M120.9,-120.97C119.71,-104.08 117.01,-65.85 115.23,-40.48"/>
<polygon fill="#63b8ff" stroke="#63b8ff" points="118.69,-39.91 114.5,-30.18 111.71,-40.4 118.69,-39.91"/>
</a>
</g>
</g>
<!-- Node4&#45;&gt;Node3 -->
<g id="edge5_Node000004_Node000003" class="edge">
<title>Node4&#45;&gt;Node3</title>
<g id="a_edge5_Node000004_Node000003"><a xlink:title=" ">
<path fill="none" stroke="#63b8ff" d="M111.06,-120.98C101.35,-113.07 86.68,-101.11 75,-91.58"/>
<polygon fill="#63b8ff" stroke="#63b8ff" points="77.1,-88.78 67.13,-85.17 72.67,-94.2 77.1,-88.78"/>
</a>
</g>
</g>
<!-- Node4&#45;&gt;Node5 -->
<g id="edge6_Node000004_Node000005" class="edge">
<title>Node4&#45;&gt;Node5</title>
<g id="a_edge6_Node000004_Node000005"><a xlink:title=" ">
<path fill="none" stroke="#63b8ff" d="M135,-120.98C147.9,-112.84 167.6,-100.41 182.9,-90.76"/>
<polygon fill="#63b8ff" stroke="#63b8ff" points="185.17,-93.47 191.76,-85.17 181.43,-87.55 185.17,-93.47"/>
</a>
</g>
</g>
<!-- Node5&#45;&gt;Node2 -->
<g id="edge7_Node000005_Node000002" class="edge">
<title>Node5&#45;&gt;Node2</title>
<g id="a_edge7_Node000005_Node000002"><a xlink:title=" ">
<path fill="none" stroke="#63b8ff" d="M191.93,-65.87C179.44,-57.93 160.48,-45.87 144.32,-35.6"/>
<polygon fill="#63b8ff" stroke="#63b8ff" points="146.01,-32.53 135.7,-30.11 142.26,-38.43 146.01,-32.53"/>
</a>
</g>
</g>
</g>
</svg>
