<?xml version="1.0" encoding="UTF-8" standalone="no"?>
<!DOCTYPE svg PUBLIC "-//W3C//DTD SVG 1.1//EN"
 "http://www.w3.org/Graphics/SVG/1.1/DTD/svg11.dtd">
<!-- Generated by graphviz version 2.43.0 (0)
 -->
<!-- Title: chrome/DirektPresetBrowser.cpp Pages: 1 -->
<svg width="445pt" height="214pt"
 viewBox="0.00 0.00 445.00 214.00" xmlns="http://www.w3.org/2000/svg" xmlns:xlink="http://www.w3.org/1999/xlink">
<g id="graph0" class="graph" transform="scale(1 1) rotate(0) translate(4 210)">
<title>chrome/DirektPresetBrowser.cpp</title>
<!-- Node1 -->
<g id="Node000001" class="node">
<title>Node1</title>
<g id="a_Node000001"><a xlink:title=" ">
<polygon fill="#999999" stroke="#666666" points="254.5,-206 78.5,-206 78.5,-187 254.5,-187 254.5,-206"/>
<text text-anchor="middle" x="166.5" y="-194" font-family="Helvetica,sans-Serif" font-size="10.00">chrome/DirektPresetBrowser.cpp</text>
</a>
</g>
</g>
<!-- Node2 -->
<g id="Node000002" class="node">
<title>Node2</title>
<g id="a_Node000002"><a xlink:href="DirektPresetBrowser_8h.html" target="_top" xlink:title=" ">
<polygon fill="white" stroke="#666666" points="165,-151 0,-151 0,-132 165,-132 165,-151"/>
<text text-anchor="middle" x="82.5" y="-139" font-family="Helvetica,sans-Serif" font-size="10.00">chrome/DirektPresetBrowser.h</text>
</a>
</g>
</g>
<!-- Node1&#45;&gt;Node2 -->
<g id="edge1_Node000001_Node000002" class="edge">
<title>Node1&#45;&gt;Node2</title>
<g id="a_edge1_Node000001_Node000002"><a xlink:title=" ">
<path fill="none" stroke="#63b8ff" d="M153,-186.98C140.1,-178.84 120.4,-166.41 105.1,-156.76"/>
<polygon fill="#63b8ff" stroke="#63b8ff" points="106.57,-153.55 96.24,-151.17 102.83,-159.47 106.57,-153.55"/>
</a>
</g>
</g>
<!-- Node6 -->
<g id="Node000006" class="node">
<title>Node6</title>
<g id="a_Node000006"><a xlink:href="PresetManager_8h.html" target="_top" xlink:title=" ">
<polygon fill="white" stroke="#666666" points="338,-151 201,-151 201,-132 338,-132 338,-151"/>
<text text-anchor="middle" x="269.5" y="-139" font-family="Helvetica,sans-Serif" font-size="10.00">Service/PresetManager.h</text>
</a>
</g>
</g>
<!-- Node1&#45;&gt;Node6 -->
<g id="edge6_Node000001_Node000006" class="edge">
<title>Node1&#45;&gt;Node6</title>
<g id="a_edge6_Node000001_Node000006"><a xlink:title=" ">
<path fill="none" stroke="#63b8ff" d="M183.05,-186.98C199.39,-178.57 224.63,-165.59 243.63,-155.81"/>
<polygon fill="#63b8ff" stroke="#63b8ff" points="245.36,-158.86 252.65,-151.17 242.16,-152.63 245.36,-158.86"/>
</a>
</g>
</g>
<!-- Node3 -->
<g id="Node000003" class="node">
<title>Node3</title>
<g id="a_Node000003"><a xlink:title=" ">
<polygon fill="#e0e0e0" stroke="#999999" points="235.5,-30 119.5,-30 119.5,0 235.5,0 235.5,-30"/>
<text text-anchor="start" x="127.5" y="-18" font-family="Helvetica,sans-Serif" font-size="10.00">juce_gui_basics/juce</text>
<text text-anchor="middle" x="177.5" y="-7" font-family="Helvetica,sans-Serif" font-size="10.00">_gui_basics.h</text>
</a>
</g>
</g>
<!-- Node2&#45;&gt;Node3 -->
<g id="edge2_Node000002_Node000003" class="edge">
<title>Node2&#45;&gt;Node3</title>
<g id="a_edge2_Node000002_Node000003"><a xlink:title=" ">
<path fill="none" stroke="#63b8ff" d="M62.3,-131.91C48.03,-124.64 29.99,-112.71 21.5,-96 15.46,-84.11 13.64,-76.77 21.5,-66 41.54,-38.53 76.89,-25.81 108.88,-20.06"/>
<polygon fill="#63b8ff" stroke="#63b8ff" points="109.79,-23.46 119.12,-18.43 108.69,-16.55 109.79,-23.46"/>
</a>
</g>
</g>
<!-- Node4 -->
<g id="Node000004" class="node">
<title>Node4</title>
<g id="a_Node000004"><a xlink:title=" ">
<polygon fill="#e0e0e0" stroke="#999999" points="96,-90.5 31,-90.5 31,-71.5 96,-71.5 96,-90.5"/>
<text text-anchor="middle" x="63.5" y="-78.5" font-family="Helvetica,sans-Serif" font-size="10.00">functional</text>
</a>
</g>
</g>
<!-- Node2&#45;&gt;Node4 -->
<g id="edge3_Node000002_Node000004" class="edge">
<title>Node2&#45;&gt;Node4</title>
<g id="a_edge3_Node000002_Node000004"><a xlink:title=" ">
<path fill="none" stroke="#63b8ff" d="M79.7,-131.87C77,-123.57 72.85,-110.78 69.42,-100.22"/>
<polygon fill="#63b8ff" stroke="#63b8ff" points="72.73,-99.1 66.32,-90.67 66.08,-101.26 72.73,-99.1"/>
</a>
</g>
</g>
<!-- Node5 -->
<g id="Node000005" class="node">
<title>Node5</title>
<g id="a_Node000005"><a xlink:href="DirektColours_8h.html" target="_top" xlink:title=" ">
<polygon fill="white" stroke="#666666" points="241,-90.5 114,-90.5 114,-71.5 241,-71.5 241,-90.5"/>
<text text-anchor="middle" x="177.5" y="-78.5" font-family="Helvetica,sans-Serif" font-size="10.00">theme/DirektColours.h</text>
</a>
</g>
</g>
<!-- Node2&#45;&gt;Node5 -->
<g id="edge4_Node000002_Node000005" class="edge">
<title>Node2&#45;&gt;Node5</title>
<g id="a_edge4_Node000002_Node000005"><a xlink:title=" ">
<path fill="none" stroke="#63b8ff" d="M96.52,-131.87C111.81,-122.45 136.53,-107.23 154.64,-96.08"/>
<polygon fill="#63b8ff" stroke="#63b8ff" points="156.75,-98.89 163.42,-90.67 153.07,-92.93 156.75,-98.89"/>
</a>
</g>
</g>
<!-- Node5&#45;&gt;Node3 -->
<g id="edge5_Node000005_Node000003" class="edge">
<title>Node5&#45;&gt;Node3</title>
<g id="a_edge5_Node000005_Node000003"><a xlink:title=" ">
<path fill="none" stroke="#63b8ff" d="M177.5,-71.37C177.5,-63.49 177.5,-51.45 177.5,-40.6"/>
<polygon fill="#63b8ff" stroke="#63b8ff" points="181,-40.36 177.5,-30.36 174,-40.36 181,-40.36"/>
</a>
</g>
</g>
<!-- Node6&#45;&gt;Node3 -->
<g id="edge8_Node000006_Node000003" class="edge">
<title>Node6&#45;&gt;Node3</title>
<g id="a_edge8_Node000006_Node000003"><a xlink:title=" ">
<path fill="none" stroke="#63b8ff" d="M269.08,-131.88C267.98,-117.12 263.99,-86.59 249.5,-66 240.83,-53.68 228.11,-43.41 215.75,-35.45"/>
<polygon fill="#63b8ff" stroke="#63b8ff" points="217.25,-32.27 206.89,-30.07 213.62,-38.25 217.25,-32.27"/>
</a>
</g>
</g>
<!-- Node7 -->
<g id="Node000007" class="node">
<title>Node7</title>
<g id="a_Node000007"><a xlink:title=" ">
<polygon fill="#e0e0e0" stroke="#999999" points="437,-96 298,-96 298,-66 437,-66 437,-96"/>
<text text-anchor="start" x="306" y="-84" font-family="Helvetica,sans-Serif" font-size="10.00">juce_audio_processors</text>
<text text-anchor="middle" x="367.5" y="-73" font-family="Helvetica,sans-Serif" font-size="10.00">/juce_audio_processors.h</text>
</a>
</g>
</g>
<!-- Node6&#45;&gt;Node7 -->
<g id="edge7_Node000006_Node000007" class="edge">
<title>Node6&#45;&gt;Node7</title>
<g id="a_edge7_Node000006_Node000007"><a xlink:title=" ">
<path fill="none" stroke="#63b8ff" d="M283.96,-131.87C297.38,-123.86 317.83,-111.65 335.14,-101.31"/>
<polygon fill="#63b8ff" stroke="#63b8ff" points="337.06,-104.25 343.86,-96.11 333.47,-98.23 337.06,-104.25"/>
</a>
</g>
</g>
</g>
</svg>
