<?xml version="1.0" encoding="UTF-8" standalone="no"?>
<!DOCTYPE svg PUBLIC "-//W3C//DTD SVG 1.1//EN"
 "http://www.w3.org/Graphics/SVG/1.1/DTD/svg11.dtd">
<!-- Generated by graphviz version 2.43.0 (0)
 -->
<!-- Title: controls/DirektToggle.h Pages: 1 -->
<!--zoomable 280 -->

<svg id="main" version="1.1" xmlns="http://www.w3.org/2000/svg" xmlns:xlink="http://www.w3.org/1999/xlink" xml:space="preserve" onload="init(evt)">
<style type="text/css"><![CDATA[
.node, .edge {opacity: 0.7;}
.node.selected, .edge.selected {opacity: 1;}
.edge:hover path { stroke: red; }
.edge:hover polygon { stroke: red; fill: red; }
]]></style>

<defs>
  <circle id="rim" cx="0" cy="0" r="7"/>
  <circle id="rim2" cx="0" cy="0" r="3.5"/>
  <g id="zoomPlus">
    <use xlink:href="#rim" fill="#404040"><set attributeName="fill" to="#808080" begin="zoomplus.mouseover" end="zoomplus.mouseout"/></use>
    <path d="M-4,0h8M0,-4v8" fill="none" stroke="white" stroke-width="1.5" pointer-events="none"/>
  </g>
  <g id="zoomMin">
    <use xlink:href="#rim" fill="#404040"><set attributeName="fill" to="#808080" begin="zoomminus.mouseover" end="zoomminus.mouseout"/></use>
    <path d="M-4,0h8" fill="none" stroke="white" stroke-width="1.5" pointer-events="none"/>
  </g>
  <g id="arrowUp" transform="translate(30 24)">
    <use xlink:href="#rim"/>
    <path pointer-events="none" fill="none" stroke="white" stroke-width="1.5" d="M0,-3.0v7 M-2.5,-0.5L0,-3.0L2.5,-0.5"/>
  </g>
  <g id="arrowRight" transform="rotate(90) translate(36 -43)">
    <use xlink:href="#rim"/>
    <path pointer-events="none" fill="none" stroke="white" stroke-width="1.5" d="M0,-3.0v7 M-2.5,-0.5L0,-3.0L2.5,-0.5"/>
  </g>
  <g id="arrowDown" transform="rotate(180) translate(-30 -48)">
    <use xlink:href="#rim"/>
    <path pointer-events="none" fill="none" stroke="white" stroke-width="1.5" d="M0,-3.0v7 M-2.5,-0.5L0,-3.0L2.5,-0.5"/>
  </g>
  <g id="arrowLeft" transform="rotate(270) translate(-36 17)">
    <use xlink:href="#rim"/>
    <path pointer-events="none" fill="none" stroke="white" stroke-width="1.5" d="M0,-3.0v7 M-2.5,-0.5L0,-3.0L2.5,-0.5"/>
  </g>
  <g id="resetDef">
    <use xlink:href="#rim2" fill="#404040"><set attributeName="fill" to="#808080" begin="reset.mouseover" end="reset.mouseout"/></use>
  </g>
</defs>
<script type="application/ecmascript">
var viewWidth = 981;
var viewHeight = 280;
var sectionId = 'dynsection-1';
</script>
<script type="application/ecmascript" xlink:href="svg.min.js"/>
<svg id="graph" class="graph">
<g id="viewport">
<title>controls/DirektToggle.h</title>
<!-- Node1 -->
<g id="Node000001" class="node">
<title>Node1</title>
<g id="a_Node000001"><a xlink:title=" ">
<polygon fill="#999999" stroke="#666666" points="545,-272 416,-272 416,-253 545,-253 545,-272"/>
<text text-anchor="middle" x="480.5" y="-260" font-family="Helvetica,sans-Serif" font-size="10.00">controls/DirektToggle.h</text>
</a>
</g>
</g>
<!-- Node2 -->
<g id="Node000002" class="node">
<title>Node2</title>
<g id="a_Node000002"><a xlink:href="DirektDSP_8h.html" target="_top" xlink:title=" ">
<polygon fill="white" stroke="#666666" points="117.5,-85 43.5,-85 43.5,-66 117.5,-66 117.5,-85"/>
<text text-anchor="middle" x="80.5" y="-73" font-family="Helvetica,sans-Serif" font-size="10.00">DirektDSP.h</text>
</a>
</g>
</g>
<!-- Node1&#45;&gt;Node2 -->
<g id="edge1_Node000001_Node000002" class="edge">
<title>Node1&#45;&gt;Node2</title>
<g id="a_edge1_Node000001_Node000002"><a xlink:title=" ">
<path fill="none" stroke="#63b8ff" d="M405.48,-257.42C346.68,-252.44 263.56,-241.4 194.5,-217 139.3,-197.5 109.74,-201.72 80.5,-151 68.35,-129.93 74.05,-99.63 77.93,-85.02"/>
<polygon fill="#63b8ff" stroke="#63b8ff" points="405.55,-260.94 415.8,-258.26 406.11,-253.96 405.55,-260.94"/>
</a>
</g>
</g>
<!-- Node4 -->
<g id="Node000004" class="node">
<title>Node4</title>
<g id="a_Node000004"><a xlink:href="DirektToggle_8cpp.html" target="_top" xlink:title=" ">
<polygon fill="white" stroke="#666666" points="752.5,-211.5 612.5,-211.5 612.5,-192.5 752.5,-192.5 752.5,-211.5"/>
<text text-anchor="middle" x="682.5" y="-199.5" font-family="Helvetica,sans-Serif" font-size="10.00">controls/DirektToggle.cpp</text>
</a>
</g>
</g>
<!-- Node1&#45;&gt;Node4 -->
<g id="edge3_Node000001_Node000004" class="edge">
<title>Node1&#45;&gt;Node4</title>
<g id="a_edge3_Node000001_Node000004"><a xlink:title=" ">
<path fill="none" stroke="#63b8ff" d="M519.84,-250.11C558.91,-238.79 617.92,-221.7 653.09,-211.52"/>
<polygon fill="#63b8ff" stroke="#63b8ff" points="518.5,-246.85 509.87,-252.99 520.45,-253.57 518.5,-246.85"/>
</a>
</g>
</g>
<!-- Node5 -->
<g id="Node000005" class="node">
<title>Node5</title>
<g id="a_Node000005"><a xlink:href="DirektAutoLayout_8h.html" target="_top" xlink:title=" ">
<polygon fill="white" stroke="#666666" points="338,-211.5 203,-211.5 203,-192.5 338,-192.5 338,-211.5"/>
<text text-anchor="middle" x="270.5" y="-199.5" font-family="Helvetica,sans-Serif" font-size="10.00">core/DirektAutoLayout.h</text>
</a>
</g>
</g>
<!-- Node1&#45;&gt;Node5 -->
<g id="edge4_Node000001_Node000005" class="edge">
<title>Node1&#45;&gt;Node5</title>
<g id="a_edge4_Node000001_Node000005"><a xlink:title=" ">
<path fill="none" stroke="#63b8ff" d="M440.12,-250.25C399.51,-238.94 337.79,-221.75 301.07,-211.52"/>
<polygon fill="#63b8ff" stroke="#63b8ff" points="439.39,-253.68 449.96,-252.99 441.27,-246.94 439.39,-253.68"/>
</a>
</g>
</g>
<!-- Node9 -->
<g id="Node000009" class="node">
<title>Node9</title>
<g id="a_Node000009"><a xlink:href="DirektComponentRegistry_8cpp.html" target="_top" xlink:title=" ">
<polygon fill="white" stroke="#666666" points="972.5,-145.5 786.5,-145.5 786.5,-126.5 972.5,-126.5 972.5,-145.5"/>
<text text-anchor="middle" x="879.5" y="-133.5" font-family="Helvetica,sans-Serif" font-size="10.00">core/DirektComponentRegistry.cpp</text>
</a>
</g>
</g>
<!-- Node1&#45;&gt;Node9 -->
<g id="edge10_Node000001_Node000009" class="edge">
<title>Node1&#45;&gt;Node9</title>
<g id="a_edge10_Node000001_Node000009"><a xlink:title=" ">
<path fill="none" stroke="#63b8ff" d="M508.64,-248.41C525.56,-240.14 547.27,-228.82 565.5,-217 583.55,-205.29 583.89,-195.85 603.5,-187 623.31,-178.06 749.68,-157.28 824.38,-145.52"/>
<polygon fill="#63b8ff" stroke="#63b8ff" points="506.79,-245.42 499.3,-252.91 509.83,-251.73 506.79,-245.42"/>
</a>
</g>
</g>
<!-- Node10 -->
<g id="Node000010" class="node">
<title>Node10</title>
<g id="a_Node000010"><a xlink:href="DirektModuleBypassSoloStrip_8h.html" target="_top" xlink:title=" ">
<polygon fill="white" stroke="#666666" points="556.5,-217 404.5,-217 404.5,-187 556.5,-187 556.5,-217"/>
<text text-anchor="start" x="412.5" y="-205" font-family="Helvetica,sans-Serif" font-size="10.00">layout/DirektModuleBypass</text>
<text text-anchor="middle" x="480.5" y="-194" font-family="Helvetica,sans-Serif" font-size="10.00">SoloStrip.h</text>
</a>
</g>
</g>
<!-- Node1&#45;&gt;Node10 -->
<g id="edge11_Node000001_Node000010" class="edge">
<title>Node1&#45;&gt;Node10</title>
<g id="a_edge11_Node000001_Node000010"><a xlink:title=" ">
<path fill="none" stroke="#63b8ff" d="M480.5,-242.65C480.5,-234.36 480.5,-224.78 480.5,-217.11"/>
<polygon fill="#63b8ff" stroke="#63b8ff" points="477,-242.87 480.5,-252.87 484,-242.87 477,-242.87"/>
</a>
</g>
</g>
<!-- Node3 -->
<g id="Node000003" class="node">
<title>Node3</title>
<g id="a_Node000003"><a xlink:href="StandaloneTestProcessor_8cpp.html" target="_top" xlink:title=" ">
<polygon fill="white" stroke="#666666" points="161,-30 0,-30 0,0 161,0 161,-30"/>
<text text-anchor="start" x="8" y="-18" font-family="Helvetica,sans-Serif" font-size="10.00">examples/StandaloneTest</text>
<text text-anchor="middle" x="80.5" y="-7" font-family="Helvetica,sans-Serif" font-size="10.00">/StandaloneTestProcessor.cpp</text>
</a>
</g>
</g>
<!-- Node2&#45;&gt;Node3 -->
<g id="edge2_Node000002_Node000003" class="edge">
<title>Node2&#45;&gt;Node3</title>
<g id="a_edge2_Node000002_Node000003"><a xlink:title=" ">
<path fill="none" stroke="#63b8ff" d="M80.5,-55.65C80.5,-47.36 80.5,-37.78 80.5,-30.11"/>
<polygon fill="#63b8ff" stroke="#63b8ff" points="77,-55.87 80.5,-65.87 84,-55.87 77,-55.87"/>
</a>
</g>
</g>
<!-- Node5&#45;&gt;Node2 -->
<g id="edge5_Node000005_Node000002" class="edge">
<title>Node5&#45;&gt;Node2</title>
<g id="a_edge5_Node000005_Node000002"><a xlink:title=" ">
<path fill="none" stroke="#63b8ff" d="M192.82,-194.8C160.36,-188.39 124.65,-175.73 100.5,-151 82.72,-132.8 80.32,-100.58 80.26,-85.17"/>
<polygon fill="#63b8ff" stroke="#63b8ff" points="192.31,-198.27 202.77,-196.6 193.56,-191.38 192.31,-198.27"/>
</a>
</g>
</g>
<!-- Node6 -->
<g id="Node000006" class="node">
<title>Node6</title>
<g id="a_Node000006"><a xlink:href="DirektAutoLayout_8cpp.html" target="_top" xlink:title=" ">
<polygon fill="white" stroke="#666666" points="404.5,-145.5 258.5,-145.5 258.5,-126.5 404.5,-126.5 404.5,-145.5"/>
<text text-anchor="middle" x="331.5" y="-133.5" font-family="Helvetica,sans-Serif" font-size="10.00">core/DirektAutoLayout.cpp</text>
</a>
</g>
</g>
<!-- Node5&#45;&gt;Node6 -->
<g id="edge6_Node000005_Node000006" class="edge">
<title>Node5&#45;&gt;Node6</title>
<g id="a_edge6_Node000005_Node000006"><a xlink:title=" ">
<path fill="none" stroke="#63b8ff" d="M285.77,-184.98C297.55,-172.62 313.4,-155.99 323.01,-145.91"/>
<polygon fill="#63b8ff" stroke="#63b8ff" points="283.09,-182.72 278.73,-192.37 288.16,-187.54 283.09,-182.72"/>
</a>
</g>
</g>
<!-- Node7 -->
<g id="Node000007" class="node">
<title>Node7</title>
<g id="a_Node000007"><a xlink:href="DirektBaseEditor_8h.html" target="_top" xlink:title=" ">
<polygon fill="white" stroke="#666666" points="240,-145.5 109,-145.5 109,-126.5 240,-126.5 240,-145.5"/>
<text text-anchor="middle" x="174.5" y="-133.5" font-family="Helvetica,sans-Serif" font-size="10.00">core/DirektBaseEditor.h</text>
</a>
</g>
</g>
<!-- Node5&#45;&gt;Node7 -->
<g id="edge7_Node000005_Node000007" class="edge">
<title>Node5&#45;&gt;Node7</title>
<g id="a_edge7_Node000005_Node000007"><a xlink:title=" ">
<path fill="none" stroke="#63b8ff" d="M249.02,-186.68C230.16,-174.11 203.34,-156.23 187.55,-145.7"/>
<polygon fill="#63b8ff" stroke="#63b8ff" points="247.29,-189.73 257.55,-192.37 251.17,-183.91 247.29,-189.73"/>
</a>
</g>
</g>
<!-- Node7&#45;&gt;Node2 -->
<g id="edge8_Node000007_Node000002" class="edge">
<title>Node7&#45;&gt;Node2</title>
<g id="a_edge8_Node000007_Node000002"><a xlink:title=" ">
<path fill="none" stroke="#63b8ff" d="M151.95,-120.97C134.05,-109.82 109.58,-94.6 94.43,-85.17"/>
<polygon fill="#63b8ff" stroke="#63b8ff" points="150.29,-124.06 160.63,-126.37 153.99,-118.11 150.29,-124.06"/>
</a>
</g>
</g>
<!-- Node8 -->
<g id="Node000008" class="node">
<title>Node8</title>
<g id="a_Node000008"><a xlink:href="DirektBaseEditor_8cpp.html" target="_top" xlink:title=" ">
<polygon fill="white" stroke="#666666" points="279,-85 136,-85 136,-66 279,-66 279,-85"/>
<text text-anchor="middle" x="207.5" y="-73" font-family="Helvetica,sans-Serif" font-size="10.00">core/DirektBaseEditor.cpp</text>
</a>
</g>
</g>
<!-- Node7&#45;&gt;Node8 -->
<g id="edge9_Node000007_Node000008" class="edge">
<title>Node7&#45;&gt;Node8</title>
<g id="a_edge9_Node000007_Node000008"><a xlink:title=" ">
<path fill="none" stroke="#63b8ff" d="M184.38,-117.48C190.4,-106.81 197.83,-93.65 202.61,-85.17"/>
<polygon fill="#63b8ff" stroke="#63b8ff" points="181.23,-115.94 179.37,-126.37 187.33,-119.38 181.23,-115.94"/>
</a>
</g>
</g>
<!-- Node10&#45;&gt;Node2 -->
<g id="edge12_Node000010_Node000002" class="edge">
<title>Node10&#45;&gt;Node2</title>
<g id="a_edge12_Node000010_Node000002"><a xlink:title=" ">
<path fill="none" stroke="#63b8ff" d="M467.95,-178.11C456.4,-159.43 437.45,-134.06 413.5,-121 301.03,-59.65 254.14,-104.41 127.5,-85 124.3,-84.51 120.99,-83.97 117.67,-83.41"/>
<polygon fill="#63b8ff" stroke="#63b8ff" points="465.06,-180.09 473.16,-186.92 471.08,-176.53 465.06,-180.09"/>
</a>
</g>
</g>
<!-- Node10&#45;&gt;Node6 -->
<g id="edge13_Node000010_Node000006" class="edge">
<title>Node10&#45;&gt;Node6</title>
<g id="a_edge13_Node000010_Node000006"><a xlink:title=" ">
<path fill="none" stroke="#63b8ff" d="M438.46,-182.94C409.91,-170.68 373.46,-155.02 351.33,-145.52"/>
<polygon fill="#63b8ff" stroke="#63b8ff" points="437.23,-186.22 447.8,-186.95 439.99,-179.79 437.23,-186.22"/>
</a>
</g>
</g>
<!-- Node10&#45;&gt;Node9 -->
<g id="edge14_Node000010_Node000009" class="edge">
<title>Node10&#45;&gt;Node9</title>
<g id="a_edge14_Node000010_Node000009"><a xlink:title=" ">
<path fill="none" stroke="#63b8ff" d="M566.88,-187.14C645.78,-174.49 759.94,-156.18 826.26,-145.54"/>
<polygon fill="#63b8ff" stroke="#63b8ff" points="566.28,-183.7 556.96,-188.74 567.39,-190.61 566.28,-183.7"/>
</a>
</g>
</g>
<!-- Node11 -->
<g id="Node000011" class="node">
<title>Node11</title>
<g id="a_Node000011"><a xlink:href="DirektModuleBypassSoloStrip_8cpp.html" target="_top" xlink:title=" ">
<polygon fill="white" stroke="#666666" points="768.5,-151 616.5,-151 616.5,-121 768.5,-121 768.5,-151"/>
<text text-anchor="start" x="624.5" y="-139" font-family="Helvetica,sans-Serif" font-size="10.00">layout/DirektModuleBypass</text>
<text text-anchor="middle" x="692.5" y="-128" font-family="Helvetica,sans-Serif" font-size="10.00">SoloStrip.cpp</text>
</a>
</g>
</g>
<!-- Node10&#45;&gt;Node11 -->
<g id="edge15_Node000010_Node000011" class="edge">
<title>Node10&#45;&gt;Node11</title>
<g id="a_edge15_Node000010_Node000011"><a xlink:title=" ">
<path fill="none" stroke="#63b8ff" d="M536.85,-183.99C570.96,-173.69 613.94,-160.72 646.08,-151.01"/>
<polygon fill="#63b8ff" stroke="#63b8ff" points="535.59,-180.71 527.02,-186.95 537.61,-187.42 535.59,-180.71"/>
</a>
</g>
</g>
<!-- Node12 -->
<g id="Node000012" class="node">
<title>Node12</title>
<g id="a_Node000012"><a xlink:href="DirektSection_8cpp.html" target="_top" xlink:title=" ">
<polygon fill="white" stroke="#666666" points="598,-145.5 461,-145.5 461,-126.5 598,-126.5 598,-145.5"/>
<text text-anchor="middle" x="529.5" y="-133.5" font-family="Helvetica,sans-Serif" font-size="10.00">layout/DirektSection.cpp</text>
</a>
</g>
</g>
<!-- Node10&#45;&gt;Node12 -->
<g id="edge16_Node000010_Node000012" class="edge">
<title>Node10&#45;&gt;Node12</title>
<g id="a_edge16_Node000010_Node000012"><a xlink:title=" ">
<path fill="none" stroke="#63b8ff" d="M497.64,-178.61C506.28,-167.32 516.27,-154.28 522.73,-145.84"/>
<polygon fill="#63b8ff" stroke="#63b8ff" points="494.67,-176.73 491.37,-186.8 500.23,-180.98 494.67,-176.73"/>
</a>
</g>
</g>
</g>
</svg>

<g id="navigator" transform="translate(0 0)" fill="#404254">
  <rect fill="#f2f5e9" fill-opacity="0.5" stroke="#606060" stroke-width=".5" x="0" y="0" width="60" height="60"/>
  <use id="zoomplus" xlink:href="#zoomPlus" x="17" y="9" onmousedown="handleZoom(evt,'in')"/>
  <use id="zoomminus" xlink:href="#zoomMin" x="42" y="9" onmousedown="handleZoom(evt,'out')"/>
  <use id="reset" xlink:href="#resetDef" x="30" y="36" onmousedown="handleReset()"/>
   <use id="arrowup" xlink:href="#arrowUp" x="0" y="0" onmousedown="handlePan(0,-1)"/>
  <use id="arrowright" xlink:href="#arrowRight" x="0" y="0" onmousedown="handlePan(1,0)"/>
  <use id="arrowdown" xlink:href="#arrowDown" x="0" y="0" onmousedown="handlePan(0,1)"/>
  <use id="arrowleft" xlink:href="#arrowLeft" x="0" y="0" onmousedown="handlePan(-1,0)"/>
</g>
<svg viewBox="0 0 15 15" width="100%" height="30px" preserveAspectRatio="xMaxYMin meet">
 <g id="arrow_out" transform="scale(0.3 0.3)">
  <a xlink:href="DirektToggle_8h__dep__incl_org.svg" target="_base">
   <rect id="button" ry="5" rx="5" y="6" x="6" height="38" width="38"
        fill="#f2f5e9" fill-opacity="0.5" stroke="#606060" stroke-width="1.0"/>
   <path id="arrow"
     d="M 11.500037,31.436501 C 11.940474,20.09759 22.043105,11.32322 32.158766,21.979434 L 37.068811,17.246167 C 37.068811,17.246167 37.088388,32 37.088388,32 L 22.160133,31.978069 C 22.160133,31.978069 26.997745,27.140456 26.997745,27.140456 C 18.528582,18.264221 13.291696,25.230495 11.500037,31.436501 z"
     style="fill:#404040;"/>
  </a>
 </g>
</svg>

<style type='text/css'>
<![CDATA[
[data-mouse-over-selected='false'] { opacity: 0.7; }
[data-mouse-over-selected='true']  { opacity: 1.0; }
]]>
</style>
<script type="application/ecmascript"><![CDATA[
document.addEventListener('DOMContentLoaded', (event) => {
  highlightEdges();
  highlightAdjacentNodes();
});
]]></script>
</svg>
