<?xml version="1.0" encoding="UTF-8" standalone="no"?>
<!DOCTYPE svg PUBLIC "-//W3C//DTD SVG 1.1//EN"
 "http://www.w3.org/Graphics/SVG/1.1/DTD/svg11.dtd">
<!-- Generated by graphviz version 2.43.0 (0)
 -->
<!-- Title: core/DirektParameterHistory.h Pages: 1 -->
<svg width="841pt" height="203pt"
 viewBox="0.00 0.00 841.42 203.00" xmlns="http://www.w3.org/2000/svg" xmlns:xlink="http://www.w3.org/1999/xlink">
<g id="graph0" class="graph" transform="scale(1 1) rotate(0) translate(4 199)">
<title>core/DirektParameterHistory.h</title>
<!-- Node1 -->
<g id="Node000001" class="node">
<title>Node1</title>
<g id="a_Node000001"><a xlink:title=" ">
<polygon fill="#999999" stroke="#666666" points="424.92,-195 260.92,-195 260.92,-176 424.92,-176 424.92,-195"/>
<text text-anchor="middle" x="342.92" y="-183" font-family="Helvetica,sans-Serif" font-size="10.00">core/DirektParameterHistory.h</text>
</a>
</g>
</g>
<!-- Node2 -->
<g id="Node000002" class="node">
<title>Node2</title>
<g id="a_Node000002"><a xlink:href="DirektDSP_8h.html" target="_top" xlink:title=" ">
<polygon fill="white" stroke="#666666" points="256.92,-85 182.92,-85 182.92,-66 256.92,-66 256.92,-85"/>
<text text-anchor="middle" x="219.92" y="-73" font-family="Helvetica,sans-Serif" font-size="10.00">DirektDSP.h</text>
</a>
</g>
</g>
<!-- Node1&#45;&gt;Node2 -->
<g id="edge1_Node000001_Node000002" class="edge">
<title>Node1&#45;&gt;Node2</title>
<g id="a_edge1_Node000001_Node000002"><a xlink:title=" ">
<path fill="none" stroke="#63b8ff" d="M250.54,-178.33C157.55,-171.16 25.65,-157.97 9.92,-140 -39.31,-83.75 110.35,-76.43 182.89,-76.07"/>
<polygon fill="#63b8ff" stroke="#63b8ff" points="250.3,-181.82 260.54,-179.09 250.83,-174.85 250.3,-181.82"/>
</a>
</g>
</g>
<!-- Node4 -->
<g id="Node000004" class="node">
<title>Node4</title>
<g id="a_Node000004"><a xlink:href="DirektComboBox_8cpp.html" target="_top" xlink:title=" ">
<polygon fill="white" stroke="#666666" points="180.92,-140 18.92,-140 18.92,-121 180.92,-121 180.92,-140"/>
<text text-anchor="middle" x="99.92" y="-128" font-family="Helvetica,sans-Serif" font-size="10.00">controls/DirektComboBox.cpp</text>
</a>
</g>
</g>
<!-- Node1&#45;&gt;Node4 -->
<g id="edge3_Node000001_Node000004" class="edge">
<title>Node1&#45;&gt;Node4</title>
<g id="a_edge3_Node000001_Node000004"><a xlink:title=" ">
<path fill="none" stroke="#63b8ff" d="M293.93,-173.82C248.39,-163.88 181.42,-149.28 139.26,-140.08"/>
<polygon fill="#63b8ff" stroke="#63b8ff" points="293.36,-177.27 303.87,-175.98 294.85,-170.43 293.36,-177.27"/>
</a>
</g>
</g>
<!-- Node5 -->
<g id="Node000005" class="node">
<title>Node5</title>
<g id="a_Node000005"><a xlink:href="DirektKnob_8cpp.html" target="_top" xlink:title=" ">
<polygon fill="white" stroke="#666666" points="332.92,-140 198.92,-140 198.92,-121 332.92,-121 332.92,-140"/>
<text text-anchor="middle" x="265.92" y="-128" font-family="Helvetica,sans-Serif" font-size="10.00">controls/DirektKnob.cpp</text>
</a>
</g>
</g>
<!-- Node1&#45;&gt;Node5 -->
<g id="edge4_Node000001_Node000005" class="edge">
<title>Node1&#45;&gt;Node5</title>
<g id="a_edge4_Node000001_Node000005"><a xlink:title=" ">
<path fill="none" stroke="#63b8ff" d="M322.07,-170.15C308.15,-160.57 290.31,-148.29 278.51,-140.17"/>
<polygon fill="#63b8ff" stroke="#63b8ff" points="320.32,-173.2 330.54,-175.98 324.29,-167.43 320.32,-173.2"/>
</a>
</g>
</g>
<!-- Node6 -->
<g id="Node000006" class="node">
<title>Node6</title>
<g id="a_Node000006"><a xlink:href="DirektToggle_8cpp.html" target="_top" xlink:title=" ">
<polygon fill="white" stroke="#666666" points="490.92,-140 350.92,-140 350.92,-121 490.92,-121 490.92,-140"/>
<text text-anchor="middle" x="420.92" y="-128" font-family="Helvetica,sans-Serif" font-size="10.00">controls/DirektToggle.cpp</text>
</a>
</g>
</g>
<!-- Node1&#45;&gt;Node6 -->
<g id="edge5_Node000001_Node000006" class="edge">
<title>Node1&#45;&gt;Node6</title>
<g id="a_edge5_Node000001_Node000006"><a xlink:title=" ">
<path fill="none" stroke="#63b8ff" d="M364.03,-170.15C378.13,-160.57 396.21,-148.29 408.16,-140.17"/>
<polygon fill="#63b8ff" stroke="#63b8ff" points="361.75,-167.47 355.45,-175.98 365.69,-173.26 361.75,-167.47"/>
</a>
</g>
</g>
<!-- Node7 -->
<g id="Node000007" class="node">
<title>Node7</title>
<g id="a_Node000007"><a xlink:href="DirektBaseEditor_8h.html" target="_top" xlink:title=" ">
<polygon fill="white" stroke="#666666" points="640.42,-140 509.42,-140 509.42,-121 640.42,-121 640.42,-140"/>
<text text-anchor="middle" x="574.92" y="-128" font-family="Helvetica,sans-Serif" font-size="10.00">core/DirektBaseEditor.h</text>
</a>
</g>
</g>
<!-- Node1&#45;&gt;Node7 -->
<g id="edge6_Node000001_Node000007" class="edge">
<title>Node1&#45;&gt;Node7</title>
<g id="a_edge6_Node000001_Node000007"><a xlink:title=" ">
<path fill="none" stroke="#63b8ff" d="M389.96,-173.75C433.43,-163.82 497.19,-149.26 537.35,-140.08"/>
<polygon fill="#63b8ff" stroke="#63b8ff" points="389.16,-170.35 380.19,-175.98 390.72,-177.17 389.16,-170.35"/>
</a>
</g>
</g>
<!-- Node9 -->
<g id="Node000009" class="node">
<title>Node9</title>
<g id="a_Node000009"><a xlink:href="DirektParameterHistory_8cpp.html" target="_top" xlink:title=" ">
<polygon fill="white" stroke="#666666" points="833.42,-140 658.42,-140 658.42,-121 833.42,-121 833.42,-140"/>
<text text-anchor="middle" x="745.92" y="-128" font-family="Helvetica,sans-Serif" font-size="10.00">core/DirektParameterHistory.cpp</text>
</a>
</g>
</g>
<!-- Node1&#45;&gt;Node9 -->
<g id="edge9_Node000001_Node000009" class="edge">
<title>Node1&#45;&gt;Node9</title>
<g id="a_edge9_Node000001_Node000009"><a xlink:title=" ">
<path fill="none" stroke="#63b8ff" d="M417.6,-174.68C493.25,-164.73 609.06,-149.5 680.99,-140.04"/>
<polygon fill="#63b8ff" stroke="#63b8ff" points="417.12,-171.21 407.67,-175.98 418.04,-178.15 417.12,-171.21"/>
</a>
</g>
</g>
<!-- Node3 -->
<g id="Node000003" class="node">
<title>Node3</title>
<g id="a_Node000003"><a xlink:href="StandaloneTestProcessor_8cpp.html" target="_top" xlink:title=" ">
<polygon fill="white" stroke="#666666" points="300.42,-30 139.42,-30 139.42,0 300.42,0 300.42,-30"/>
<text text-anchor="start" x="147.42" y="-18" font-family="Helvetica,sans-Serif" font-size="10.00">examples/StandaloneTest</text>
<text text-anchor="middle" x="219.92" y="-7" font-family="Helvetica,sans-Serif" font-size="10.00">/StandaloneTestProcessor.cpp</text>
</a>
</g>
</g>
<!-- Node2&#45;&gt;Node3 -->
<g id="edge2_Node000002_Node000003" class="edge">
<title>Node2&#45;&gt;Node3</title>
<g id="a_edge2_Node000002_Node000003"><a xlink:title=" ">
<path fill="none" stroke="#63b8ff" d="M219.92,-55.65C219.92,-47.36 219.92,-37.78 219.92,-30.11"/>
<polygon fill="#63b8ff" stroke="#63b8ff" points="216.42,-55.87 219.92,-65.87 223.42,-55.87 216.42,-55.87"/>
</a>
</g>
</g>
<!-- Node7&#45;&gt;Node2 -->
<g id="edge7_Node000007_Node000002" class="edge">
<title>Node7&#45;&gt;Node2</title>
<g id="a_edge7_Node000007_Node000002"><a xlink:title=" ">
<path fill="none" stroke="#63b8ff" d="M507.7,-119.46C433.46,-108.38 316.58,-90.93 257.21,-82.07"/>
<polygon fill="#63b8ff" stroke="#63b8ff" points="507.47,-122.97 517.88,-120.98 508.51,-116.05 507.47,-122.97"/>
</a>
</g>
</g>
<!-- Node8 -->
<g id="Node000008" class="node">
<title>Node8</title>
<g id="a_Node000008"><a xlink:href="DirektBaseEditor_8cpp.html" target="_top" xlink:title=" ">
<polygon fill="white" stroke="#666666" points="646.42,-85 503.42,-85 503.42,-66 646.42,-66 646.42,-85"/>
<text text-anchor="middle" x="574.92" y="-73" font-family="Helvetica,sans-Serif" font-size="10.00">core/DirektBaseEditor.cpp</text>
</a>
</g>
</g>
<!-- Node7&#45;&gt;Node8 -->
<g id="edge8_Node000007_Node000008" class="edge">
<title>Node7&#45;&gt;Node8</title>
<g id="a_edge8_Node000007_Node000008"><a xlink:title=" ">
<path fill="none" stroke="#63b8ff" d="M574.92,-110.66C574.92,-101.93 574.92,-91.99 574.92,-85.09"/>
<polygon fill="#63b8ff" stroke="#63b8ff" points="571.42,-110.75 574.92,-120.75 578.42,-110.75 571.42,-110.75"/>
</a>
</g>
</g>
</g>
</svg>
