<?xml version="1.0" encoding="UTF-8" standalone="no"?>
<!DOCTYPE svg PUBLIC "-//W3C//DTD SVG 1.1//EN"
 "http://www.w3.org/Graphics/SVG/1.1/DTD/svg11.dtd">
<!-- Generated by graphviz version 2.43.0 (0)
 -->
<!-- Title: core/DirektBaseEditor.h Pages: 1 -->
<!--zoomable 269 -->

<svg id="main" version="1.1" xmlns="http://www.w3.org/2000/svg" xmlns:xlink="http://www.w3.org/1999/xlink" xml:space="preserve" onload="init(evt)">
<style type="text/css"><![CDATA[
.node, .edge {opacity: 0.7;}
.node.selected, .edge.selected {opacity: 1;}
.edge:hover path { stroke: red; }
.edge:hover polygon { stroke: red; fill: red; }
]]></style>

<defs>
  <circle id="rim" cx="0" cy="0" r="7"/>
  <circle id="rim2" cx="0" cy="0" r="3.5"/>
  <g id="zoomPlus">
    <use xlink:href="#rim" fill="#404040"><set attributeName="fill" to="#808080" begin="zoomplus.mouseover" end="zoomplus.mouseout"/></use>
    <path d="M-4,0h8M0,-4v8" fill="none" stroke="white" stroke-width="1.5" pointer-events="none"/>
  </g>
  <g id="zoomMin">
    <use xlink:href="#rim" fill="#404040"><set attributeName="fill" to="#808080" begin="zoomminus.mouseover" end="zoomminus.mouseout"/></use>
    <path d="M-4,0h8" fill="none" stroke="white" stroke-width="1.5" pointer-events="none"/>
  </g>
  <g id="arrowUp" transform="translate(30 24)">
    <use xlink:href="#rim"/>
    <path pointer-events="none" fill="none" stroke="white" stroke-width="1.5" d="M0,-3.0v7 M-2.5,-0.5L0,-3.0L2.5,-0.5"/>
  </g>
  <g id="arrowRight" transform="rotate(90) translate(36 -43)">
    <use xlink:href="#rim"/>
    <path pointer-events="none" fill="none" stroke="white" stroke-width="1.5" d="M0,-3.0v7 M-2.5,-0.5L0,-3.0L2.5,-0.5"/>
  </g>
  <g id="arrowDown" transform="rotate(180) translate(-30 -48)">
    <use xlink:href="#rim"/>
    <path pointer-events="none" fill="none" stroke="white" stroke-width="1.5" d="M0,-3.0v7 M-2.5,-0.5L0,-3.0L2.5,-0.5"/>
  </g>
  <g id="arrowLeft" transform="rotate(270) translate(-36 17)">
    <use xlink:href="#rim"/>
    <path pointer-events="none" fill="none" stroke="white" stroke-width="1.5" d="M0,-3.0v7 M-2.5,-0.5L0,-3.0L2.5,-0.5"/>
  </g>
  <g id="resetDef">
    <use xlink:href="#rim2" fill="#404040"><set attributeName="fill" to="#808080" begin="reset.mouseover" end="reset.mouseout"/></use>
  </g>
</defs>
<script type="application/ecmascript">
var viewWidth = 2451;
var viewHeight = 269;
var sectionId = 'dynsection-0';
</script>
<script type="application/ecmascript" xlink:href="svg.min.js"/>
<svg id="graph" class="graph">
<g id="viewport">
<title>core/DirektBaseEditor.h</title>
<!-- Node1 -->
<g id="Node000001" class="node">
<title>Node1</title>
<g id="a_Node000001"><a xlink:title=" ">
<polygon fill="#999999" stroke="#666666" points="994.54,-261 863.54,-261 863.54,-242 994.54,-242 994.54,-261"/>
<text text-anchor="middle" x="929.04" y="-249" font-family="Helvetica,sans-Serif" font-size="10.00">core/DirektBaseEditor.h</text>
</a>
</g>
</g>
<!-- Node2 -->
<g id="Node000002" class="node">
<title>Node2</title>
<g id="a_Node000002"><a xlink:title=" ">
<polygon fill="#e0e0e0" stroke="#999999" points="1772.54,-96 1633.54,-96 1633.54,-66 1772.54,-66 1772.54,-96"/>
<text text-anchor="start" x="1641.54" y="-84" font-family="Helvetica,sans-Serif" font-size="10.00">juce_audio_processors</text>
<text text-anchor="middle" x="1703.04" y="-73" font-family="Helvetica,sans-Serif" font-size="10.00">/juce_audio_processors.h</text>
</a>
</g>
</g>
<!-- Node1&#45;&gt;Node2 -->
<g id="edge1_Node000001_Node000002" class="edge">
<title>Node1&#45;&gt;Node2</title>
<g id="a_edge1_Node000001_Node000002"><a xlink:title=" ">
<path fill="none" stroke="#63b8ff" d="M994.73,-247.76C1094.31,-242.96 1289.24,-231.08 1453.04,-206 1564.22,-188.98 1627.8,-237.19 1700.04,-151 1710.27,-138.8 1710.7,-120.69 1708.74,-106.09"/>
<polygon fill="#63b8ff" stroke="#63b8ff" points="1712.18,-105.45 1706.99,-96.21 1705.28,-106.67 1712.18,-105.45"/>
</a>
</g>
</g>
<!-- Node3 -->
<g id="Node000003" class="node">
<title>Node3</title>
<g id="a_Node000003"><a xlink:title=" ">
<polygon fill="#e0e0e0" stroke="#999999" points="947.04,-30 831.04,-30 831.04,0 947.04,0 947.04,-30"/>
<text text-anchor="start" x="839.04" y="-18" font-family="Helvetica,sans-Serif" font-size="10.00">juce_gui_basics/juce</text>
<text text-anchor="middle" x="889.04" y="-7" font-family="Helvetica,sans-Serif" font-size="10.00">_gui_basics.h</text>
</a>
</g>
</g>
<!-- Node1&#45;&gt;Node3 -->
<g id="edge2_Node000001_Node000003" class="edge">
<title>Node1&#45;&gt;Node3</title>
<g id="a_edge2_Node000001_Node000003"><a xlink:title=" ">
<path fill="none" stroke="#63b8ff" d="M863.31,-248.48C662.31,-241.62 66.17,-215.92 11.04,-151 -14.09,-121.4 6.66,-92.77 51.04,-66 116.18,-26.71 632.46,-18.25 820.69,-16.47"/>
<polygon fill="#63b8ff" stroke="#63b8ff" points="820.77,-19.96 830.74,-16.37 820.71,-12.97 820.77,-19.96"/>
</a>
</g>
</g>
<!-- Node4 -->
<g id="Node000004" class="node">
<title>Node4</title>
<g id="a_Node000004"><a xlink:href="DirektFooter_8h.html" target="_top" xlink:title=" ">
<polygon fill="white" stroke="#666666" points="499.54,-151 374.54,-151 374.54,-132 499.54,-132 499.54,-151"/>
<text text-anchor="middle" x="437.04" y="-139" font-family="Helvetica,sans-Serif" font-size="10.00">chrome/DirektFooter.h</text>
</a>
</g>
</g>
<!-- Node1&#45;&gt;Node4 -->
<g id="edge3_Node000001_Node000004" class="edge">
<title>Node1&#45;&gt;Node4</title>
<g id="a_edge3_Node000001_Node000004"><a xlink:title=" ">
<path fill="none" stroke="#63b8ff" d="M863.36,-242.8C805.68,-235.42 719.73,-222.9 646.04,-206 583.21,-191.59 511.67,-168.32 470.69,-154.31"/>
<polygon fill="#63b8ff" stroke="#63b8ff" points="471.8,-150.99 461.2,-151.04 469.52,-157.61 471.8,-150.99"/>
</a>
</g>
</g>
<!-- Node5 -->
<g id="Node000005" class="node">
<title>Node5</title>
<g id="a_Node000005"><a xlink:href="DirektColours_8h.html" target="_top" xlink:title=" ">
<polygon fill="white" stroke="#666666" points="761.54,-90.5 634.54,-90.5 634.54,-71.5 761.54,-71.5 761.54,-90.5"/>
<text text-anchor="middle" x="698.04" y="-78.5" font-family="Helvetica,sans-Serif" font-size="10.00">theme/DirektColours.h</text>
</a>
</g>
</g>
<!-- Node1&#45;&gt;Node5 -->
<g id="edge64_Node000001_Node000005" class="edge">
<title>Node1&#45;&gt;Node5</title>
<g id="a_edge64_Node000001_Node000005"><a xlink:title=" ">
<path fill="none" stroke="#63b8ff" d="M887.15,-241.93C839.07,-229.92 761.2,-203.38 717.04,-151 705.18,-136.92 700.68,-116.01 699,-100.91"/>
<polygon fill="#63b8ff" stroke="#63b8ff" points="702.47,-100.38 698.19,-90.69 695.49,-100.94 702.47,-100.38"/>
</a>
</g>
</g>
<!-- Node6 -->
<g id="Node000006" class="node">
<title>Node6</title>
<g id="a_Node000006"><a xlink:href="DirektHeader_8h.html" target="_top" xlink:title=" ">
<polygon fill="white" stroke="#666666" points="994.04,-151 864.04,-151 864.04,-132 994.04,-132 994.04,-151"/>
<text text-anchor="middle" x="929.04" y="-139" font-family="Helvetica,sans-Serif" font-size="10.00">chrome/DirektHeader.h</text>
</a>
</g>
</g>
<!-- Node1&#45;&gt;Node6 -->
<g id="edge7_Node000001_Node000006" class="edge">
<title>Node1&#45;&gt;Node6</title>
<g id="a_edge7_Node000001_Node000006"><a xlink:title=" ">
<path fill="none" stroke="#63b8ff" d="M929.04,-241.66C929.04,-224.17 929.04,-184.8 929.04,-161.27"/>
<polygon fill="#63b8ff" stroke="#63b8ff" points="932.54,-161.16 929.04,-151.16 925.54,-161.16 932.54,-161.16"/>
</a>
</g>
</g>
<!-- Node8 -->
<g id="Node000008" class="node">
<title>Node8</title>
<g id="a_Node000008"><a xlink:href="DirektPopupPanel_8h.html" target="_top" xlink:title=" ">
<polygon fill="white" stroke="#666666" points="670.04,-151 518.04,-151 518.04,-132 670.04,-132 670.04,-151"/>
<text text-anchor="middle" x="594.04" y="-139" font-family="Helvetica,sans-Serif" font-size="10.00">chrome/DirektPopupPanel.h</text>
</a>
</g>
</g>
<!-- Node1&#45;&gt;Node8 -->
<g id="edge12_Node000001_Node000008" class="edge">
<title>Node1&#45;&gt;Node8</title>
<g id="a_edge12_Node000001_Node000008"><a xlink:title=" ">
<path fill="none" stroke="#63b8ff" d="M863.41,-246.33C812.77,-241.3 741.85,-230.24 684.04,-206 656.11,-194.29 628.29,-172.76 611.14,-158.05"/>
<polygon fill="#63b8ff" stroke="#63b8ff" points="613.01,-155.04 603.19,-151.06 608.39,-160.29 613.01,-155.04"/>
</a>
</g>
</g>
<!-- Node9 -->
<g id="Node000009" class="node">
<title>Node9</title>
<g id="a_Node000009"><a xlink:href="DirektPresetBrowser_8h.html" target="_top" xlink:title=" ">
<polygon fill="white" stroke="#666666" points="185.54,-151 20.54,-151 20.54,-132 185.54,-132 185.54,-151"/>
<text text-anchor="middle" x="103.04" y="-139" font-family="Helvetica,sans-Serif" font-size="10.00">chrome/DirektPresetBrowser.h</text>
</a>
</g>
</g>
<!-- Node1&#45;&gt;Node9 -->
<g id="edge15_Node000001_Node000009" class="edge">
<title>Node1&#45;&gt;Node9</title>
<g id="a_edge15_Node000001_Node000009"><a xlink:title=" ">
<path fill="none" stroke="#63b8ff" d="M863.41,-245.63C774.49,-238.69 610.89,-224.68 472.04,-206 359.21,-190.82 228.06,-166.69 156.46,-152.96"/>
<polygon fill="#63b8ff" stroke="#63b8ff" points="156.82,-149.47 146.34,-151.01 155.5,-156.34 156.82,-149.47"/>
</a>
</g>
</g>
<!-- Node11 -->
<g id="Node000011" class="node">
<title>Node11</title>
<g id="a_Node000011"><a xlink:href="DirektConfig_8h.html" target="_top" xlink:title=" ">
<polygon fill="white" stroke="#666666" points="845.54,-151 726.54,-151 726.54,-132 845.54,-132 845.54,-151"/>
<text text-anchor="middle" x="786.04" y="-139" font-family="Helvetica,sans-Serif" font-size="10.00">config/DirektConfig.h</text>
</a>
</g>
</g>
<!-- Node1&#45;&gt;Node11 -->
<g id="edge20_Node000001_Node000011" class="edge">
<title>Node1&#45;&gt;Node11</title>
<g id="a_edge20_Node000001_Node000011"><a xlink:title=" ">
<path fill="none" stroke="#63b8ff" d="M917.34,-241.66C892.81,-223.14 835.8,-180.08 805.61,-157.28"/>
<polygon fill="#63b8ff" stroke="#63b8ff" points="807.6,-154.39 797.51,-151.16 803.38,-159.98 807.6,-154.39"/>
</a>
</g>
</g>
<!-- Node12 -->
<g id="Node000012" class="node">
<title>Node12</title>
<g id="a_Node000012"><a xlink:href="DirektDescriptors_8h.html" target="_top" xlink:title=" ">
<polygon fill="white" stroke="#666666" points="2242.54,-151 2099.54,-151 2099.54,-132 2242.54,-132 2242.54,-151"/>
<text text-anchor="middle" x="2171.04" y="-139" font-family="Helvetica,sans-Serif" font-size="10.00">config/DirektDescriptors.h</text>
</a>
</g>
</g>
<!-- Node1&#45;&gt;Node12 -->
<g id="edge23_Node000001_Node000012" class="edge">
<title>Node1&#45;&gt;Node12</title>
<g id="a_edge23_Node000001_Node000012"><a xlink:title=" ">
<path fill="none" stroke="#63b8ff" d="M994.78,-249.74C1238.69,-246.7 2080.45,-234.21 2130.04,-206 2147.28,-196.19 2158.46,-175.84 2164.72,-160.8"/>
<polygon fill="#63b8ff" stroke="#63b8ff" points="2167.99,-162.03 2168.28,-151.44 2161.45,-159.54 2167.99,-162.03"/>
</a>
</g>
</g>
<!-- Node17 -->
<g id="Node000017" class="node">
<title>Node17</title>
<g id="a_Node000017"><a xlink:href="DirektAutoLayout_8h.html" target="_top" xlink:title=" ">
<polygon fill="white" stroke="#666666" points="1443.54,-206 1308.54,-206 1308.54,-187 1443.54,-187 1443.54,-206"/>
<text text-anchor="middle" x="1376.04" y="-194" font-family="Helvetica,sans-Serif" font-size="10.00">core/DirektAutoLayout.h</text>
</a>
</g>
</g>
<!-- Node1&#45;&gt;Node17 -->
<g id="edge29_Node000001_Node000017" class="edge">
<title>Node1&#45;&gt;Node17</title>
<g id="a_edge29_Node000001_Node000017"><a xlink:title=" ">
<path fill="none" stroke="#63b8ff" d="M995,-242.68C1075.83,-233.1 1212.58,-216.88 1298.4,-206.71"/>
<polygon fill="#63b8ff" stroke="#63b8ff" points="1298.83,-210.18 1308.35,-205.53 1298.01,-203.23 1298.83,-210.18"/>
</a>
</g>
</g>
<!-- Node22 -->
<g id="Node000022" class="node">
<title>Node22</title>
<g id="a_Node000022"><a xlink:href="DirektSection_8h.html" target="_top" xlink:title=" ">
<polygon fill="white" stroke="#666666" points="1137.54,-151 1012.54,-151 1012.54,-132 1137.54,-132 1137.54,-151"/>
<text text-anchor="middle" x="1075.04" y="-139" font-family="Helvetica,sans-Serif" font-size="10.00">layout/DirektSection.h</text>
</a>
</g>
</g>
<!-- Node1&#45;&gt;Node22 -->
<g id="edge63_Node000001_Node000022" class="edge">
<title>Node1&#45;&gt;Node22</title>
<g id="a_edge63_Node000001_Node000022"><a xlink:title=" ">
<path fill="none" stroke="#63b8ff" d="M940.74,-241.84C965.63,-223.44 1024.04,-180.23 1054.98,-157.34"/>
<polygon fill="#63b8ff" stroke="#63b8ff" points="1057.33,-159.96 1063.29,-151.2 1053.17,-154.33 1057.33,-159.96"/>
</a>
</g>
</g>
<!-- Node23 -->
<g id="Node000023" class="node">
<title>Node23</title>
<g id="a_Node000023"><a xlink:href="DirektBuildContext_8h.html" target="_top" xlink:title=" ">
<polygon fill="white" stroke="#666666" points="2442.54,-151 2299.54,-151 2299.54,-132 2442.54,-132 2442.54,-151"/>
<text text-anchor="middle" x="2371.04" y="-139" font-family="Helvetica,sans-Serif" font-size="10.00">core/DirektBuildContext.h</text>
</a>
</g>
</g>
<!-- Node1&#45;&gt;Node23 -->
<g id="edge47_Node000001_Node000023" class="edge">
<title>Node1&#45;&gt;Node23</title>
<g id="a_edge47_Node000001_Node000023"><a xlink:title=" ">
<path fill="none" stroke="#63b8ff" d="M994.65,-250.25C1214.95,-249.07 1926.98,-242.46 2153.04,-206 2220.78,-195.08 2297.18,-169.65 2339.15,-154.5"/>
<polygon fill="#63b8ff" stroke="#63b8ff" points="2340.36,-157.78 2348.56,-151.06 2337.96,-151.2 2340.36,-157.78"/>
</a>
</g>
</g>
<!-- Node25 -->
<g id="Node000025" class="node">
<title>Node25</title>
<g id="a_Node000025"><a xlink:href="DirektComponentRegistry_8h.html" target="_top" xlink:title=" ">
<polygon fill="white" stroke="#666666" points="2120.54,-206 1945.54,-206 1945.54,-187 2120.54,-187 2120.54,-206"/>
<text text-anchor="middle" x="2033.04" y="-194" font-family="Helvetica,sans-Serif" font-size="10.00">core/DirektComponentRegistry.h</text>
</a>
</g>
</g>
<!-- Node1&#45;&gt;Node25 -->
<g id="edge51_Node000001_Node000025" class="edge">
<title>Node1&#45;&gt;Node25</title>
<g id="a_edge51_Node000001_Node000025"><a xlink:title=" ">
<path fill="none" stroke="#63b8ff" d="M994.8,-247.34C1181.23,-238.39 1714.03,-212.81 1935.09,-202.2"/>
<polygon fill="#63b8ff" stroke="#63b8ff" points="1935.56,-205.68 1945.38,-201.71 1935.22,-198.69 1935.56,-205.68"/>
</a>
</g>
</g>
<!-- Node26 -->
<g id="Node000026" class="node">
<title>Node26</title>
<g id="a_Node000026"><a xlink:href="DirektParameterHistory_8h.html" target="_top" xlink:title=" ">
<polygon fill="white" stroke="#666666" points="1967.04,-151 1803.04,-151 1803.04,-132 1967.04,-132 1967.04,-151"/>
<text text-anchor="middle" x="1885.04" y="-139" font-family="Helvetica,sans-Serif" font-size="10.00">core/DirektParameterHistory.h</text>
</a>
</g>
</g>
<!-- Node1&#45;&gt;Node26 -->
<g id="edge60_Node000001_Node000026" class="edge">
<title>Node1&#45;&gt;Node26</title>
<g id="a_edge60_Node000001_Node000026"><a xlink:title=" ">
<path fill="none" stroke="#63b8ff" d="M994.84,-250.21C1163.58,-248.94 1608.44,-242.16 1751.04,-206 1792.83,-195.41 1837.28,-171.51 1863.03,-156.24"/>
<polygon fill="#63b8ff" stroke="#63b8ff" points="1864.88,-159.21 1871.63,-151.04 1861.26,-153.22 1864.88,-159.21"/>
</a>
</g>
</g>
<!-- Node27 -->
<g id="Node000027" class="node">
<title>Node27</title>
<g id="a_Node000027"><a xlink:href="DirektLookAndFeel_8h.html" target="_top" xlink:title=" ">
<polygon fill="white" stroke="#666666" points="356.04,-151 204.04,-151 204.04,-132 356.04,-132 356.04,-151"/>
<text text-anchor="middle" x="280.04" y="-139" font-family="Helvetica,sans-Serif" font-size="10.00">theme/DirektLookAndFeel.h</text>
</a>
</g>
</g>
<!-- Node1&#45;&gt;Node27 -->
<g id="edge65_Node000001_Node000027" class="edge">
<title>Node1&#45;&gt;Node27</title>
<g id="a_edge65_Node000001_Node000027"><a xlink:title=" ">
<path fill="none" stroke="#63b8ff" d="M863.5,-244.08C791.88,-236.64 673.89,-223.2 573.04,-206 484.23,-190.86 381.55,-167.16 324.37,-153.4"/>
<polygon fill="#63b8ff" stroke="#63b8ff" points="325.12,-149.98 314.58,-151.03 323.48,-156.78 325.12,-149.98"/>
</a>
</g>
</g>
<!-- Node4&#45;&gt;Node3 -->
<g id="edge4_Node000004_Node000003" class="edge">
<title>Node4&#45;&gt;Node3</title>
<g id="a_edge4_Node000004_Node000003"><a xlink:title=" ">
<path fill="none" stroke="#63b8ff" d="M452.46,-131.94C481.06,-116.43 544.66,-83.64 602.04,-66 675.01,-43.56 761.71,-30.2 820.57,-23.02"/>
<polygon fill="#63b8ff" stroke="#63b8ff" points="821.35,-26.45 830.87,-21.79 820.52,-19.5 821.35,-26.45"/>
</a>
</g>
</g>
<!-- Node4&#45;&gt;Node5 -->
<g id="edge5_Node000004_Node000005" class="edge">
<title>Node4&#45;&gt;Node5</title>
<g id="a_edge5_Node000004_Node000005"><a xlink:title=" ">
<path fill="none" stroke="#63b8ff" d="M475,-131.99C521.29,-121.62 599.6,-104.07 650.04,-92.76"/>
<polygon fill="#63b8ff" stroke="#63b8ff" points="651.05,-96.12 660.05,-90.52 649.52,-89.29 651.05,-96.12"/>
</a>
</g>
</g>
<!-- Node5&#45;&gt;Node3 -->
<g id="edge6_Node000005_Node000003" class="edge">
<title>Node5&#45;&gt;Node3</title>
<g id="a_edge6_Node000005_Node000003"><a xlink:title=" ">
<path fill="none" stroke="#63b8ff" d="M723.8,-71.37C752.78,-61.66 800.59,-45.64 837.35,-33.32"/>
<polygon fill="#63b8ff" stroke="#63b8ff" points="838.55,-36.61 846.92,-30.12 836.32,-29.97 838.55,-36.61"/>
</a>
</g>
</g>
<!-- Node6&#45;&gt;Node2 -->
<g id="edge8_Node000006_Node000002" class="edge">
<title>Node6&#45;&gt;Node2</title>
<g id="a_edge8_Node000006_Node000002"><a xlink:title=" ">
<path fill="none" stroke="#63b8ff" d="M994.07,-132.93C997.44,-132.6 1000.78,-132.29 1004.04,-132 1262.22,-109.4 1327.94,-119.41 1586.04,-96 1598.18,-94.9 1611.01,-93.55 1623.54,-92.13"/>
<polygon fill="#63b8ff" stroke="#63b8ff" points="1623.98,-95.61 1633.51,-90.98 1623.18,-88.65 1623.98,-95.61"/>
</a>
</g>
</g>
<!-- Node6&#45;&gt;Node3 -->
<g id="edge9_Node000006_Node000003" class="edge">
<title>Node6&#45;&gt;Node3</title>
<g id="a_edge9_Node000006_Node000003"><a xlink:title=" ">
<path fill="none" stroke="#63b8ff" d="M924.59,-131.82C920.19,-122.99 913.48,-108.8 909.04,-96 902.68,-77.65 897.45,-56.27 893.93,-40.24"/>
<polygon fill="#63b8ff" stroke="#63b8ff" points="897.28,-39.15 891.78,-30.09 890.43,-40.6 897.28,-39.15"/>
</a>
</g>
</g>
<!-- Node6&#45;&gt;Node5 -->
<g id="edge11_Node000006_Node000005" class="edge">
<title>Node6&#45;&gt;Node5</title>
<g id="a_edge11_Node000006_Node000005"><a xlink:title=" ">
<path fill="none" stroke="#63b8ff" d="M895.45,-131.99C854.74,-121.68 786.04,-104.28 741.37,-92.97"/>
<polygon fill="#63b8ff" stroke="#63b8ff" points="742.23,-89.58 731.67,-90.52 740.51,-96.36 742.23,-89.58"/>
</a>
</g>
</g>
<!-- Node7 -->
<g id="Node000007" class="node">
<title>Node7</title>
<g id="a_Node000007"><a xlink:title=" ">
<polygon fill="#e0e0e0" stroke="#999999" points="982.54,-90.5 917.54,-90.5 917.54,-71.5 982.54,-71.5 982.54,-90.5"/>
<text text-anchor="middle" x="950.04" y="-78.5" font-family="Helvetica,sans-Serif" font-size="10.00">functional</text>
</a>
</g>
</g>
<!-- Node6&#45;&gt;Node7 -->
<g id="edge10_Node000006_Node000007" class="edge">
<title>Node6&#45;&gt;Node7</title>
<g id="a_edge10_Node000006_Node000007"><a xlink:title=" ">
<path fill="none" stroke="#63b8ff" d="M932.14,-131.87C935.12,-123.57 939.71,-110.78 943.5,-100.22"/>
<polygon fill="#63b8ff" stroke="#63b8ff" points="946.85,-101.26 946.93,-90.67 940.26,-98.9 946.85,-101.26"/>
</a>
</g>
</g>
<!-- Node8&#45;&gt;Node3 -->
<g id="edge13_Node000008_Node000003" class="edge">
<title>Node8&#45;&gt;Node3</title>
<g id="a_edge13_Node000008_Node000003"><a xlink:title=" ">
<path fill="none" stroke="#63b8ff" d="M595.01,-131.79C597.24,-116.03 604.27,-82.86 625.04,-66 654.46,-42.13 752.81,-28.42 820.79,-21.59"/>
<polygon fill="#63b8ff" stroke="#63b8ff" points="821.39,-25.05 831,-20.59 820.71,-18.08 821.39,-25.05"/>
</a>
</g>
</g>
<!-- Node8&#45;&gt;Node5 -->
<g id="edge14_Node000008_Node000005" class="edge">
<title>Node8&#45;&gt;Node5</title>
<g id="a_edge14_Node000008_Node000005"><a xlink:title=" ">
<path fill="none" stroke="#63b8ff" d="M609.39,-131.87C626.36,-122.32 653.94,-106.81 673.83,-95.62"/>
<polygon fill="#63b8ff" stroke="#63b8ff" points="675.64,-98.62 682.64,-90.67 672.2,-92.52 675.64,-98.62"/>
</a>
</g>
</g>
<!-- Node9&#45;&gt;Node3 -->
<g id="edge16_Node000009_Node000003" class="edge">
<title>Node9&#45;&gt;Node3</title>
<g id="a_edge16_Node000009_Node000003"><a xlink:title=" ">
<path fill="none" stroke="#63b8ff" d="M132.6,-131.99C187.29,-116.55 308.17,-83.89 412.04,-66 556.39,-41.15 727.58,-26.84 820.57,-20.32"/>
<polygon fill="#63b8ff" stroke="#63b8ff" points="820.96,-23.8 830.7,-19.62 820.48,-16.82 820.96,-23.8"/>
</a>
</g>
</g>
<!-- Node9&#45;&gt;Node5 -->
<g id="edge19_Node000009_Node000005" class="edge">
<title>Node9&#45;&gt;Node5</title>
<g id="a_edge19_Node000009_Node000005"><a xlink:title=" ">
<path fill="none" stroke="#63b8ff" d="M185.78,-132.37C302.2,-120.92 512.6,-100.23 624.08,-89.27"/>
<polygon fill="#63b8ff" stroke="#63b8ff" points="624.62,-92.74 634.23,-88.27 623.93,-85.77 624.62,-92.74"/>
</a>
</g>
</g>
<!-- Node9&#45;&gt;Node7 -->
<g id="edge17_Node000009_Node000007" class="edge">
<title>Node9&#45;&gt;Node7</title>
<g id="a_edge17_Node000009_Node000007"><a xlink:title=" ">
<path fill="none" stroke="#63b8ff" d="M185.79,-132.74C188.91,-132.48 192.01,-132.24 195.04,-132 450.33,-112.22 514.62,-113.93 770.04,-96 817,-92.7 870.81,-88.46 907.27,-85.51"/>
<polygon fill="#63b8ff" stroke="#63b8ff" points="907.85,-88.97 917.54,-84.68 907.29,-82 907.85,-88.97"/>
</a>
</g>
</g>
<!-- Node10 -->
<g id="Node000010" class="node">
<title>Node10</title>
<g id="a_Node000010"><a xlink:title=" ">
<polygon fill="#e0e0e0" stroke="#999999" points="146.04,-90.5 60.04,-90.5 60.04,-71.5 146.04,-71.5 146.04,-90.5"/>
<text text-anchor="middle" x="103.04" y="-78.5" font-family="Helvetica,sans-Serif" font-size="10.00">unordered_set</text>
</a>
</g>
</g>
<!-- Node9&#45;&gt;Node10 -->
<g id="edge18_Node000009_Node000010" class="edge">
<title>Node9&#45;&gt;Node10</title>
<g id="a_edge18_Node000009_Node000010"><a xlink:title=" ">
<path fill="none" stroke="#63b8ff" d="M103.04,-131.87C103.04,-123.75 103.04,-111.31 103.04,-100.89"/>
<polygon fill="#63b8ff" stroke="#63b8ff" points="106.54,-100.67 103.04,-90.67 99.54,-100.67 106.54,-100.67"/>
</a>
</g>
</g>
<!-- Node11&#45;&gt;Node3 -->
<g id="edge21_Node000011_Node000003" class="edge">
<title>Node11&#45;&gt;Node3</title>
<g id="a_edge21_Node000011_Node000003"><a xlink:title=" ">
<path fill="none" stroke="#63b8ff" d="M793.12,-131.94C808.94,-112.82 847.57,-66.13 870.69,-38.18"/>
<polygon fill="#63b8ff" stroke="#63b8ff" points="873.65,-40.1 877.33,-30.16 868.26,-35.63 873.65,-40.1"/>
</a>
</g>
</g>
<!-- Node11&#45;&gt;Node5 -->
<g id="edge22_Node000011_Node000005" class="edge">
<title>Node11&#45;&gt;Node5</title>
<g id="a_edge22_Node000011_Node000005"><a xlink:title=" ">
<path fill="none" stroke="#63b8ff" d="M773.06,-131.87C759.02,-122.54 736.41,-107.51 719.68,-96.38"/>
<polygon fill="#63b8ff" stroke="#63b8ff" points="721.35,-93.29 711.08,-90.67 717.47,-99.12 721.35,-93.29"/>
</a>
</g>
</g>
<!-- Node12&#45;&gt;Node3 -->
<g id="edge24_Node000012_Node000003" class="edge">
<title>Node12&#45;&gt;Node3</title>
<g id="a_edge24_Node000012_Node000003"><a xlink:title=" ">
<path fill="none" stroke="#63b8ff" d="M2169.98,-131.71C2167.5,-115.52 2159.71,-81.22 2137.04,-66 2087.83,-32.95 1211.74,-19.88 957.61,-16.77"/>
<polygon fill="#63b8ff" stroke="#63b8ff" points="957.44,-13.27 947.4,-16.65 957.36,-20.27 957.44,-13.27"/>
</a>
</g>
</g>
<!-- Node13 -->
<g id="Node000013" class="node">
<title>Node13</title>
<g id="a_Node000013"><a xlink:title=" ">
<polygon fill="#e0e0e0" stroke="#999999" points="2292.04,-90.5 2254.04,-90.5 2254.04,-71.5 2292.04,-71.5 2292.04,-90.5"/>
<text text-anchor="middle" x="2273.04" y="-78.5" font-family="Helvetica,sans-Serif" font-size="10.00">map</text>
</a>
</g>
</g>
<!-- Node12&#45;&gt;Node13 -->
<g id="edge25_Node000012_Node000013" class="edge">
<title>Node12&#45;&gt;Node13</title>
<g id="a_edge25_Node000012_Node000013"><a xlink:title=" ">
<path fill="none" stroke="#63b8ff" d="M2186.09,-131.87C2202.67,-122.36 2229.55,-106.95 2249.03,-95.77"/>
<polygon fill="#63b8ff" stroke="#63b8ff" points="2251,-98.68 2257.93,-90.67 2247.52,-92.61 2251,-98.68"/>
</a>
</g>
</g>
<!-- Node14 -->
<g id="Node000014" class="node">
<title>Node14</title>
<g id="a_Node000014"><a xlink:title=" ">
<polygon fill="#e0e0e0" stroke="#999999" points="2062.04,-90.5 2004.04,-90.5 2004.04,-71.5 2062.04,-71.5 2062.04,-90.5"/>
<text text-anchor="middle" x="2033.04" y="-78.5" font-family="Helvetica,sans-Serif" font-size="10.00">memory</text>
</a>
</g>
</g>
<!-- Node12&#45;&gt;Node14 -->
<g id="edge26_Node000012_Node000014" class="edge">
<title>Node12&#45;&gt;Node14</title>
<g id="a_edge26_Node000012_Node000014"><a xlink:title=" ">
<path fill="none" stroke="#63b8ff" d="M2150.98,-131.99C2127.68,-122.12 2089.03,-105.73 2062.37,-94.43"/>
<polygon fill="#63b8ff" stroke="#63b8ff" points="2063.71,-91.2 2053.13,-90.52 2060.98,-97.64 2063.71,-91.2"/>
</a>
</g>
</g>
<!-- Node15 -->
<g id="Node000015" class="node">
<title>Node15</title>
<g id="a_Node000015"><a xlink:title=" ">
<polygon fill="#e0e0e0" stroke="#999999" points="2235.54,-90.5 2184.54,-90.5 2184.54,-71.5 2235.54,-71.5 2235.54,-90.5"/>
<text text-anchor="middle" x="2210.04" y="-78.5" font-family="Helvetica,sans-Serif" font-size="10.00">variant</text>
</a>
</g>
</g>
<!-- Node12&#45;&gt;Node15 -->
<g id="edge27_Node000012_Node000015" class="edge">
<title>Node12&#45;&gt;Node15</title>
<g id="a_edge27_Node000012_Node000015"><a xlink:title=" ">
<path fill="none" stroke="#63b8ff" d="M2176.8,-131.87C2182.5,-123.31 2191.4,-109.97 2198.55,-99.24"/>
<polygon fill="#63b8ff" stroke="#63b8ff" points="2201.63,-100.93 2204.27,-90.67 2195.81,-97.05 2201.63,-100.93"/>
</a>
</g>
</g>
<!-- Node16 -->
<g id="Node000016" class="node">
<title>Node16</title>
<g id="a_Node000016"><a xlink:title=" ">
<polygon fill="#e0e0e0" stroke="#999999" points="2127.54,-90.5 2080.54,-90.5 2080.54,-71.5 2127.54,-71.5 2127.54,-90.5"/>
<text text-anchor="middle" x="2104.04" y="-78.5" font-family="Helvetica,sans-Serif" font-size="10.00">vector</text>
</a>
</g>
</g>
<!-- Node12&#45;&gt;Node16 -->
<g id="edge28_Node000012_Node000016" class="edge">
<title>Node12&#45;&gt;Node16</title>
<g id="a_edge28_Node000012_Node000016"><a xlink:title=" ">
<path fill="none" stroke="#63b8ff" d="M2161.16,-131.87C2150.77,-122.8 2134.21,-108.34 2121.59,-97.32"/>
<polygon fill="#63b8ff" stroke="#63b8ff" points="2123.81,-94.61 2113.97,-90.67 2119.2,-99.88 2123.81,-94.61"/>
</a>
</g>
</g>
<!-- Node17&#45;&gt;Node2 -->
<g id="edge30_Node000017_Node000002" class="edge">
<title>Node17&#45;&gt;Node2</title>
<g id="a_edge30_Node000017_Node000002"><a xlink:title=" ">
<path fill="none" stroke="#63b8ff" d="M1443.8,-193.68C1522.27,-190.21 1645.23,-180.15 1680.04,-151 1693.13,-140.04 1698.81,-121.41 1701.26,-106.27"/>
<polygon fill="#63b8ff" stroke="#63b8ff" points="1704.77,-106.38 1702.52,-96.03 1697.82,-105.52 1704.77,-106.38"/>
</a>
</g>
</g>
<!-- Node17&#45;&gt;Node3 -->
<g id="edge31_Node000017_Node000003" class="edge">
<title>Node17&#45;&gt;Node3</title>
<g id="a_edge31_Node000017_Node000003"><a xlink:title=" ">
<path fill="none" stroke="#63b8ff" d="M1342.77,-186.96C1311.74,-178.72 1264.31,-165.39 1224.04,-151 1133.1,-118.49 1113.8,-101.67 1024.04,-66 995.73,-54.75 963.76,-42.87 938.04,-33.52"/>
<polygon fill="#63b8ff" stroke="#63b8ff" points="939.11,-30.18 928.51,-30.06 936.72,-36.76 939.11,-30.18"/>
</a>
</g>
</g>
<!-- Node17&#45;&gt;Node12 -->
<g id="edge32_Node000017_Node000012" class="edge">
<title>Node17&#45;&gt;Node12</title>
<g id="a_edge32_Node000017_Node000012"><a xlink:title=" ">
<path fill="none" stroke="#63b8ff" d="M1443.83,-190.98C1589.51,-181.27 1931.99,-158.44 2089.35,-147.95"/>
<polygon fill="#63b8ff" stroke="#63b8ff" points="2089.7,-151.43 2099.45,-147.27 2089.24,-144.45 2089.7,-151.43"/>
</a>
</g>
</g>
<!-- Node18 -->
<g id="Node000018" class="node">
<title>Node18</title>
<g id="a_Node000018"><a xlink:href="DirektComboBox_8h.html" target="_top" xlink:title=" ">
<polygon fill="white" stroke="#666666" points="1530.54,-151 1379.54,-151 1379.54,-132 1530.54,-132 1530.54,-151"/>
<text text-anchor="middle" x="1455.04" y="-139" font-family="Helvetica,sans-Serif" font-size="10.00">controls/DirektComboBox.h</text>
</a>
</g>
</g>
<!-- Node17&#45;&gt;Node18 -->
<g id="edge33_Node000017_Node000018" class="edge">
<title>Node17&#45;&gt;Node18</title>
<g id="a_edge33_Node000017_Node000018"><a xlink:title=" ">
<path fill="none" stroke="#63b8ff" d="M1388.74,-186.98C1400.87,-178.84 1419.4,-166.41 1433.79,-156.76"/>
<polygon fill="#63b8ff" stroke="#63b8ff" points="1435.77,-159.65 1442.12,-151.17 1431.87,-153.84 1435.77,-159.65"/>
</a>
</g>
</g>
<!-- Node19 -->
<g id="Node000019" class="node">
<title>Node19</title>
<g id="a_Node000019"><a xlink:href="DirektKnob_8h.html" target="_top" xlink:title=" ">
<polygon fill="white" stroke="#666666" points="1671.04,-151 1549.04,-151 1549.04,-132 1671.04,-132 1671.04,-151"/>
<text text-anchor="middle" x="1610.04" y="-139" font-family="Helvetica,sans-Serif" font-size="10.00">controls/DirektKnob.h</text>
</a>
</g>
</g>
<!-- Node17&#45;&gt;Node19 -->
<g id="edge36_Node000017_Node000019" class="edge">
<title>Node17&#45;&gt;Node19</title>
<g id="a_edge36_Node000017_Node000019"><a xlink:title=" ">
<path fill="none" stroke="#63b8ff" d="M1413.64,-186.98C1454.03,-177.84 1518.33,-163.27 1562.28,-153.32"/>
<polygon fill="#63b8ff" stroke="#63b8ff" points="1563.17,-156.7 1572.15,-151.08 1561.63,-149.88 1563.17,-156.7"/>
</a>
</g>
</g>
<!-- Node21 -->
<g id="Node000021" class="node">
<title>Node21</title>
<g id="a_Node000021"><a xlink:href="DirektToggle_8h.html" target="_top" xlink:title=" ">
<polygon fill="white" stroke="#666666" points="1361.54,-151 1232.54,-151 1232.54,-132 1361.54,-132 1361.54,-151"/>
<text text-anchor="middle" x="1297.04" y="-139" font-family="Helvetica,sans-Serif" font-size="10.00">controls/DirektToggle.h</text>
</a>
</g>
</g>
<!-- Node17&#45;&gt;Node21 -->
<g id="edge40_Node000017_Node000021" class="edge">
<title>Node17&#45;&gt;Node21</title>
<g id="a_edge40_Node000017_Node000021"><a xlink:title=" ">
<path fill="none" stroke="#63b8ff" d="M1363.35,-186.98C1351.22,-178.84 1332.69,-166.41 1318.3,-156.76"/>
<polygon fill="#63b8ff" stroke="#63b8ff" points="1320.22,-153.84 1309.97,-151.17 1316.32,-159.65 1320.22,-153.84"/>
</a>
</g>
</g>
<!-- Node17&#45;&gt;Node22 -->
<g id="edge43_Node000017_Node000022" class="edge">
<title>Node17&#45;&gt;Node22</title>
<g id="a_edge43_Node000017_Node000022"><a xlink:title=" ">
<path fill="none" stroke="#63b8ff" d="M1327.68,-186.98C1274.85,-177.68 1190.22,-162.78 1133.66,-152.82"/>
<polygon fill="#63b8ff" stroke="#63b8ff" points="1134.24,-149.37 1123.78,-151.08 1133.03,-156.26 1134.24,-149.37"/>
</a>
</g>
</g>
<!-- Node18&#45;&gt;Node2 -->
<g id="edge34_Node000018_Node000002" class="edge">
<title>Node18&#45;&gt;Node2</title>
<g id="a_edge34_Node000018_Node000002"><a xlink:title=" ">
<path fill="none" stroke="#63b8ff" d="M1491.11,-131.99C1528.28,-123.23 1587.17,-109.33 1633.45,-98.42"/>
<polygon fill="#63b8ff" stroke="#63b8ff" points="1634.49,-101.77 1643.42,-96.06 1632.88,-94.95 1634.49,-101.77"/>
</a>
</g>
</g>
<!-- Node18&#45;&gt;Node3 -->
<g id="edge35_Node000018_Node000003" class="edge">
<title>Node18&#45;&gt;Node3</title>
<g id="a_edge35_Node000018_Node000003"><a xlink:title=" ">
<path fill="none" stroke="#63b8ff" d="M1435.88,-131.88C1400.38,-116.28 1321.62,-83.34 1252.04,-66 1151.09,-40.83 1030.96,-27.41 957.37,-21.01"/>
<polygon fill="#63b8ff" stroke="#63b8ff" points="957.56,-17.51 947.3,-20.15 956.97,-24.48 957.56,-17.51"/>
</a>
</g>
</g>
<!-- Node19&#45;&gt;Node2 -->
<g id="edge37_Node000019_Node000002" class="edge">
<title>Node19&#45;&gt;Node2</title>
<g id="a_edge37_Node000019_Node000002"><a xlink:title=" ">
<path fill="none" stroke="#63b8ff" d="M1623.77,-131.87C1636.39,-123.93 1655.56,-111.87 1671.89,-101.6"/>
<polygon fill="#63b8ff" stroke="#63b8ff" points="1674,-104.4 1680.61,-96.11 1670.28,-98.48 1674,-104.4"/>
</a>
</g>
</g>
<!-- Node19&#45;&gt;Node3 -->
<g id="edge38_Node000019_Node000003" class="edge">
<title>Node19&#45;&gt;Node3</title>
<g id="a_edge38_Node000019_Node000003"><a xlink:title=" ">
<path fill="none" stroke="#63b8ff" d="M1610.14,-131.88C1609.81,-115.96 1606.57,-82.11 1586.04,-66 1537.35,-27.78 1123.26,-18.72 957.36,-16.62"/>
<polygon fill="#63b8ff" stroke="#63b8ff" points="957.32,-13.12 947.27,-16.5 957.23,-20.12 957.32,-13.12"/>
</a>
</g>
</g>
<!-- Node20 -->
<g id="Node000020" class="node">
<title>Node20</title>
<g id="a_Node000020"><a xlink:title=" ">
<polygon fill="#e0e0e0" stroke="#999999" points="1577.04,-90.5 1521.04,-90.5 1521.04,-71.5 1577.04,-71.5 1577.04,-90.5"/>
<text text-anchor="middle" x="1549.04" y="-78.5" font-family="Helvetica,sans-Serif" font-size="10.00">optional</text>
</a>
</g>
</g>
<!-- Node19&#45;&gt;Node20 -->
<g id="edge39_Node000019_Node000020" class="edge">
<title>Node19&#45;&gt;Node20</title>
<g id="a_edge39_Node000019_Node000020"><a xlink:title=" ">
<path fill="none" stroke="#63b8ff" d="M1601.04,-131.87C1591.67,-122.88 1576.79,-108.61 1565.35,-97.64"/>
<polygon fill="#63b8ff" stroke="#63b8ff" points="1567.72,-95.06 1558.08,-90.67 1562.88,-100.12 1567.72,-95.06"/>
</a>
</g>
</g>
<!-- Node21&#45;&gt;Node2 -->
<g id="edge41_Node000021_Node000002" class="edge">
<title>Node21&#45;&gt;Node2</title>
<g id="a_edge41_Node000021_Node000002"><a xlink:title=" ">
<path fill="none" stroke="#63b8ff" d="M1356.08,-131.99C1426.48,-121.85 1544.49,-104.85 1623.05,-93.53"/>
<polygon fill="#63b8ff" stroke="#63b8ff" points="1623.98,-96.93 1633.38,-92.04 1622.98,-90 1623.98,-96.93"/>
</a>
</g>
</g>
<!-- Node21&#45;&gt;Node3 -->
<g id="edge42_Node000021_Node000003" class="edge">
<title>Node21&#45;&gt;Node3</title>
<g id="a_edge42_Node000021_Node000003"><a xlink:title=" ">
<path fill="none" stroke="#63b8ff" d="M1290.8,-131.83C1278.75,-115.83 1250.58,-81.86 1218.04,-66 1173.3,-44.19 1039.73,-29.09 957.19,-21.55"/>
<polygon fill="#63b8ff" stroke="#63b8ff" points="957.41,-18.05 947.14,-20.64 956.78,-25.02 957.41,-18.05"/>
</a>
</g>
</g>
<!-- Node22&#45;&gt;Node3 -->
<g id="edge44_Node000022_Node000003" class="edge">
<title>Node22&#45;&gt;Node3</title>
<g id="a_edge44_Node000022_Node000003"><a xlink:title=" ">
<path fill="none" stroke="#63b8ff" d="M1066.98,-131.82C1052.86,-116.97 1022.26,-86.3 992.04,-66 973.84,-53.76 952.19,-42.79 933.45,-34.26"/>
<polygon fill="#63b8ff" stroke="#63b8ff" points="934.79,-31.02 924.23,-30.15 931.94,-37.41 934.79,-31.02"/>
</a>
</g>
</g>
<!-- Node22&#45;&gt;Node5 -->
<g id="edge46_Node000022_Node000005" class="edge">
<title>Node22&#45;&gt;Node5</title>
<g id="a_edge46_Node000022_Node000005"><a xlink:title=" ">
<path fill="none" stroke="#63b8ff" d="M1020.22,-131.99C951.96,-121.4 835.5,-103.33 762.88,-92.06"/>
<polygon fill="#63b8ff" stroke="#63b8ff" points="763.35,-88.59 752.93,-90.52 762.27,-95.51 763.35,-88.59"/>
</a>
</g>
</g>
<!-- Node22&#45;&gt;Node14 -->
<g id="edge45_Node000022_Node000014" class="edge">
<title>Node22&#45;&gt;Node14</title>
<g id="a_edge45_Node000022_Node000014"><a xlink:title=" ">
<path fill="none" stroke="#63b8ff" d="M1137.9,-136.66C1320.22,-125.53 1845.67,-93.44 1993.77,-84.4"/>
<polygon fill="#63b8ff" stroke="#63b8ff" points="1994,-87.89 2003.77,-83.79 1993.57,-80.9 1994,-87.89"/>
</a>
</g>
</g>
<!-- Node23&#45;&gt;Node2 -->
<g id="edge48_Node000023_Node000002" class="edge">
<title>Node23&#45;&gt;Node2</title>
<g id="a_edge48_Node000023_Node000002"><a xlink:title=" ">
<path fill="none" stroke="#63b8ff" d="M2299.24,-134.21C2173.46,-123.2 1914.19,-100.49 1782.93,-89"/>
<polygon fill="#63b8ff" stroke="#63b8ff" points="1783.2,-85.51 1772.93,-88.12 1782.59,-92.48 1783.2,-85.51"/>
</a>
</g>
</g>
<!-- Node23&#45;&gt;Node13 -->
<g id="edge50_Node000023_Node000013" class="edge">
<title>Node23&#45;&gt;Node13</title>
<g id="a_edge50_Node000023_Node000013"><a xlink:title=" ">
<path fill="none" stroke="#63b8ff" d="M2356.58,-131.87C2340.73,-122.41 2315.07,-107.09 2296.37,-95.92"/>
<polygon fill="#63b8ff" stroke="#63b8ff" points="2297.94,-92.79 2287.56,-90.67 2294.36,-98.8 2297.94,-92.79"/>
</a>
</g>
</g>
<!-- Node24 -->
<g id="Node000024" class="node">
<title>Node24</title>
<g id="a_Node000024"><a xlink:title=" ">
<polygon fill="#e0e0e0" stroke="#999999" points="2396.04,-90.5 2346.04,-90.5 2346.04,-71.5 2396.04,-71.5 2396.04,-90.5"/>
<text text-anchor="middle" x="2371.04" y="-78.5" font-family="Helvetica,sans-Serif" font-size="10.00">atomic</text>
</a>
</g>
</g>
<!-- Node23&#45;&gt;Node24 -->
<g id="edge49_Node000023_Node000024" class="edge">
<title>Node23&#45;&gt;Node24</title>
<g id="a_edge49_Node000023_Node000024"><a xlink:title=" ">
<path fill="none" stroke="#63b8ff" d="M2371.04,-131.87C2371.04,-123.75 2371.04,-111.31 2371.04,-100.89"/>
<polygon fill="#63b8ff" stroke="#63b8ff" points="2374.54,-100.67 2371.04,-90.67 2367.54,-100.67 2374.54,-100.67"/>
</a>
</g>
</g>
<!-- Node25&#45;&gt;Node2 -->
<g id="edge52_Node000025_Node000002" class="edge">
<title>Node25&#45;&gt;Node2</title>
<g id="a_edge52_Node000025_Node000002"><a xlink:title=" ">
<path fill="none" stroke="#63b8ff" d="M1945.27,-188.99C1898.78,-183.14 1841.62,-172.04 1794.04,-151 1767.63,-139.32 1741.81,-118.58 1724.46,-102.89"/>
<polygon fill="#63b8ff" stroke="#63b8ff" points="1726.83,-100.31 1717.11,-96.08 1722.07,-105.44 1726.83,-100.31"/>
</a>
</g>
</g>
<!-- Node25&#45;&gt;Node3 -->
<g id="edge53_Node000025_Node000003" class="edge">
<title>Node25&#45;&gt;Node3</title>
<g id="a_edge53_Node000025_Node000003"><a xlink:title=" ">
<path fill="none" stroke="#63b8ff" d="M2027.45,-186.82C2018.29,-173.25 1998.79,-147.02 1976.04,-132 1900.04,-81.81 1871.45,-83.37 1782.04,-66 1624.3,-35.35 1137.87,-21.58 957.38,-17.43"/>
<polygon fill="#63b8ff" stroke="#63b8ff" points="957.29,-13.92 947.22,-17.2 957.13,-20.92 957.29,-13.92"/>
</a>
</g>
</g>
<!-- Node25&#45;&gt;Node7 -->
<g id="edge54_Node000025_Node000007" class="edge">
<title>Node25&#45;&gt;Node7</title>
<g id="a_edge54_Node000025_Node000007"><a xlink:title=" ">
<path fill="none" stroke="#63b8ff" d="M1945.39,-196.16C1796.32,-196.06 1484.27,-190.55 1224.04,-151 1218.24,-150.12 1067.94,-111.98 992.47,-92.79"/>
<polygon fill="#63b8ff" stroke="#63b8ff" points="993.33,-89.4 982.77,-90.33 991.6,-96.18 993.33,-89.4"/>
</a>
</g>
</g>
<!-- Node25&#45;&gt;Node12 -->
<g id="edge58_Node000025_Node000012" class="edge">
<title>Node25&#45;&gt;Node12</title>
<g id="a_edge58_Node000025_Node000012"><a xlink:title=" ">
<path fill="none" stroke="#63b8ff" d="M2055.22,-186.98C2077.82,-178.3 2113.11,-164.75 2138.8,-154.88"/>
<polygon fill="#63b8ff" stroke="#63b8ff" points="2140.39,-158.02 2148.47,-151.17 2137.88,-151.49 2140.39,-158.02"/>
</a>
</g>
</g>
<!-- Node25&#45;&gt;Node13 -->
<g id="edge55_Node000025_Node000013" class="edge">
<title>Node25&#45;&gt;Node13</title>
<g id="a_edge55_Node000025_Node000013"><a xlink:title=" ">
<path fill="none" stroke="#63b8ff" d="M2119.71,-187C2172.16,-180.16 2232.56,-168.72 2252.04,-151 2266.06,-138.26 2270.84,-116.48 2272.41,-100.79"/>
<polygon fill="#63b8ff" stroke="#63b8ff" points="2275.91,-100.87 2273.07,-90.67 2268.93,-100.42 2275.91,-100.87"/>
</a>
</g>
</g>
<!-- Node25&#45;&gt;Node14 -->
<g id="edge56_Node000025_Node000014" class="edge">
<title>Node25&#45;&gt;Node14</title>
<g id="a_edge56_Node000025_Node000014"><a xlink:title=" ">
<path fill="none" stroke="#63b8ff" d="M2033.04,-186.97C2033.04,-168.73 2033.04,-125.57 2033.04,-100.64"/>
<polygon fill="#63b8ff" stroke="#63b8ff" points="2036.54,-100.63 2033.04,-90.63 2029.54,-100.63 2036.54,-100.63"/>
</a>
</g>
</g>
<!-- Node25&#45;&gt;Node16 -->
<g id="edge57_Node000025_Node000016" class="edge">
<title>Node25&#45;&gt;Node16</title>
<g id="a_edge57_Node000025_Node000016"><a xlink:title=" ">
<path fill="none" stroke="#63b8ff" d="M2038.38,-186.97C2050,-168.4 2077.77,-124.01 2093.21,-99.32"/>
<polygon fill="#63b8ff" stroke="#63b8ff" points="2096.31,-100.96 2098.65,-90.63 2090.37,-97.25 2096.31,-100.96"/>
</a>
</g>
</g>
<!-- Node25&#45;&gt;Node23 -->
<g id="edge59_Node000025_Node000023" class="edge">
<title>Node25&#45;&gt;Node23</title>
<g id="a_edge59_Node000025_Node000023"><a xlink:title=" ">
<path fill="none" stroke="#63b8ff" d="M2087.35,-186.98C2147.13,-177.61 2243.17,-162.55 2306.69,-152.59"/>
<polygon fill="#63b8ff" stroke="#63b8ff" points="2307.26,-156.05 2316.59,-151.04 2306.17,-149.13 2307.26,-156.05"/>
</a>
</g>
</g>
<!-- Node26&#45;&gt;Node2 -->
<g id="edge61_Node000026_Node000002" class="edge">
<title>Node26&#45;&gt;Node2</title>
<g id="a_edge61_Node000026_Node000002"><a xlink:title=" ">
<path fill="none" stroke="#63b8ff" d="M1858.58,-131.99C1831.93,-123.43 1790.07,-109.97 1756.48,-99.18"/>
<polygon fill="#63b8ff" stroke="#63b8ff" points="1757.39,-95.79 1746.8,-96.06 1755.25,-102.46 1757.39,-95.79"/>
</a>
</g>
</g>
<!-- Node26&#45;&gt;Node16 -->
<g id="edge62_Node000026_Node000016" class="edge">
<title>Node26&#45;&gt;Node16</title>
<g id="a_edge62_Node000026_Node000016"><a xlink:title=" ">
<path fill="none" stroke="#63b8ff" d="M1929.97,-131.94C1968.01,-124.17 2023.74,-111.57 2071.04,-96 2072.67,-95.46 2074.33,-94.88 2075.99,-94.27"/>
<polygon fill="#63b8ff" stroke="#63b8ff" points="2077.39,-97.48 2085.4,-90.55 2074.82,-90.97 2077.39,-97.48"/>
</a>
</g>
</g>
<!-- Node27&#45;&gt;Node3 -->
<g id="edge66_Node000027_Node000003" class="edge">
<title>Node27&#45;&gt;Node3</title>
<g id="a_edge66_Node000027_Node000003"><a xlink:title=" ">
<path fill="none" stroke="#63b8ff" d="M303.61,-131.92C346.76,-116.52 441.63,-84.1 524.04,-66 626.37,-43.52 747.18,-29.34 820.93,-22.04"/>
<polygon fill="#63b8ff" stroke="#63b8ff" points="821.4,-25.51 831.01,-21.05 820.72,-18.54 821.4,-25.51"/>
</a>
</g>
</g>
<!-- Node27&#45;&gt;Node5 -->
<g id="edge67_Node000027_Node000005" class="edge">
<title>Node27&#45;&gt;Node5</title>
<g id="a_edge67_Node000027_Node000005"><a xlink:title=" ">
<path fill="none" stroke="#63b8ff" d="M340.82,-131.99C416.82,-121.36 546.7,-103.18 627.15,-91.92"/>
<polygon fill="#63b8ff" stroke="#63b8ff" points="627.77,-95.37 637.19,-90.52 626.8,-88.44 627.77,-95.37"/>
</a>
</g>
</g>
</g>
</svg>

<g id="navigator" transform="translate(0 0)" fill="#404254">
  <rect fill="#f2f5e9" fill-opacity="0.5" stroke="#606060" stroke-width=".5" x="0" y="0" width="60" height="60"/>
  <use id="zoomplus" xlink:href="#zoomPlus" x="17" y="9" onmousedown="handleZoom(evt,'in')"/>
  <use id="zoomminus" xlink:href="#zoomMin" x="42" y="9" onmousedown="handleZoom(evt,'out')"/>
  <use id="reset" xlink:href="#resetDef" x="30" y="36" onmousedown="handleReset()"/>
   <use id="arrowup" xlink:href="#arrowUp" x="0" y="0" onmousedown="handlePan(0,-1)"/>
  <use id="arrowright" xlink:href="#arrowRight" x="0" y="0" onmousedown="handlePan(1,0)"/>
  <use id="arrowdown" xlink:href="#arrowDown" x="0" y="0" onmousedown="handlePan(0,1)"/>
  <use id="arrowleft" xlink:href="#arrowLeft" x="0" y="0" onmousedown="handlePan(-1,0)"/>
</g>
<svg viewBox="0 0 15 15" width="100%" height="30px" preserveAspectRatio="xMaxYMin meet">
 <g id="arrow_out" transform="scale(0.3 0.3)">
  <a xlink:href="DirektBaseEditor_8h__incl_org.svg" target="_base">
   <rect id="button" ry="5" rx="5" y="6" x="6" height="38" width="38"
        fill="#f2f5e9" fill-opacity="0.5" stroke="#606060" stroke-width="1.0"/>
   <path id="arrow"
     d="M 11.500037,31.436501 C 11.940474,20.09759 22.043105,11.32322 32.158766,21.979434 L 37.068811,17.246167 C 37.068811,17.246167 37.088388,32 37.088388,32 L 22.160133,31.978069 C 22.160133,31.978069 26.997745,27.140456 26.997745,27.140456 C 18.528582,18.264221 13.291696,25.230495 11.500037,31.436501 z"
     style="fill:#404040;"/>
  </a>
 </g>
</svg>

<style type='text/css'>
<![CDATA[
[data-mouse-over-selected='false'] { opacity: 0.7; }
[data-mouse-over-selected='true']  { opacity: 1.0; }
]]>
</style>
<script type="application/ecmascript"><![CDATA[
document.addEventListener('DOMContentLoaded', (event) => {
  highlightEdges();
  highlightAdjacentNodes();
});
]]></script>
</svg>
