<?xml version="1.0" encoding="UTF-8" standalone="no"?>
<!DOCTYPE svg PUBLIC "-//W3C//DTD SVG 1.1//EN"
 "http://www.w3.org/Graphics/SVG/1.1/DTD/svg11.dtd">
<!-- Generated by graphviz version 2.43.0 (0)
 -->
<!-- Title: core/DirektBaseEditor.cpp Pages: 1 -->
<svg width="2590pt" height="324pt"
 viewBox="0.00 0.00 2589.83 324.00" xmlns="http://www.w3.org/2000/svg" xmlns:xlink="http://www.w3.org/1999/xlink">
<g id="graph0" class="graph" transform="scale(1 1) rotate(0) translate(4 320)">
<title>core/DirektBaseEditor.cpp</title>
<!-- Node1 -->
<g id="Node000001" class="node">
<title>Node1</title>
<g id="a_Node000001"><a xlink:title=" ">
<polygon fill="#999999" stroke="#666666" points="1816.33,-316 1673.33,-316 1673.33,-297 1816.33,-297 1816.33,-316"/>
<text text-anchor="middle" x="1744.83" y="-304" font-family="Helvetica,sans-Serif" font-size="10.00">core/DirektBaseEditor.cpp</text>
</a>
</g>
</g>
<!-- Node2 -->
<g id="Node000002" class="node">
<title>Node2</title>
<g id="a_Node000002"><a xlink:href="DirektBaseEditor_8h.html" target="_top" xlink:title=" ">
<polygon fill="white" stroke="#666666" points="1366.33,-261 1235.33,-261 1235.33,-242 1366.33,-242 1366.33,-261"/>
<text text-anchor="middle" x="1300.83" y="-249" font-family="Helvetica,sans-Serif" font-size="10.00">core/DirektBaseEditor.h</text>
</a>
</g>
</g>
<!-- Node1&#45;&gt;Node2 -->
<g id="edge1_Node000001_Node000002" class="edge">
<title>Node1&#45;&gt;Node2</title>
<g id="a_edge1_Node000001_Node000002"><a xlink:title=" ">
<path fill="none" stroke="#63b8ff" d="M1673.49,-296.98C1592.19,-287.28 1459.84,-271.48 1376.7,-261.56"/>
<polygon fill="#63b8ff" stroke="#63b8ff" points="1376.9,-258.06 1366.56,-260.35 1376.07,-265.01 1376.9,-258.06"/>
</a>
</g>
</g>
<!-- Node29 -->
<g id="Node000029" class="node">
<title>Node29</title>
<g id="a_Node000029"><a xlink:href="DirektMeter_8h.html" target="_top" xlink:title=" ">
<polygon fill="white" stroke="#666666" points="2581.83,-151 2459.83,-151 2459.83,-132 2581.83,-132 2581.83,-151"/>
<text text-anchor="middle" x="2520.83" y="-139" font-family="Helvetica,sans-Serif" font-size="10.00">display/DirektMeter.h</text>
</a>
</g>
</g>
<!-- Node1&#45;&gt;Node29 -->
<g id="edge68_Node000001_Node000029" class="edge">
<title>Node1&#45;&gt;Node29</title>
<g id="a_edge68_Node000001_Node000029"><a xlink:title=" ">
<path fill="none" stroke="#63b8ff" d="M1785.46,-296.97C1916.26,-269.49 2326.26,-183.37 2470.24,-153.13"/>
<polygon fill="#63b8ff" stroke="#63b8ff" points="2471.07,-156.53 2480.14,-151.05 2469.63,-149.68 2471.07,-156.53"/>
</a>
</g>
</g>
<!-- Node3 -->
<g id="Node000003" class="node">
<title>Node3</title>
<g id="a_Node000003"><a xlink:title=" ">
<polygon fill="#e0e0e0" stroke="#999999" points="1427.33,-96 1288.33,-96 1288.33,-66 1427.33,-66 1427.33,-96"/>
<text text-anchor="start" x="1296.33" y="-84" font-family="Helvetica,sans-Serif" font-size="10.00">juce_audio_processors</text>
<text text-anchor="middle" x="1357.83" y="-73" font-family="Helvetica,sans-Serif" font-size="10.00">/juce_audio_processors.h</text>
</a>
</g>
</g>
<!-- Node2&#45;&gt;Node3 -->
<g id="edge2_Node000002_Node000003" class="edge">
<title>Node2&#45;&gt;Node3</title>
<g id="a_edge2_Node000002_Node000003"><a xlink:title=" ">
<path fill="none" stroke="#63b8ff" d="M1303.74,-241.91C1312.16,-217.02 1336.79,-144.2 1349.71,-106.01"/>
<polygon fill="#63b8ff" stroke="#63b8ff" points="1353.13,-106.82 1353.02,-96.22 1346.5,-104.57 1353.13,-106.82"/>
</a>
</g>
</g>
<!-- Node4 -->
<g id="Node000004" class="node">
<title>Node4</title>
<g id="a_Node000004"><a xlink:title=" ">
<polygon fill="#e0e0e0" stroke="#999999" points="1089.83,-30 973.83,-30 973.83,0 1089.83,0 1089.83,-30"/>
<text text-anchor="start" x="981.83" y="-18" font-family="Helvetica,sans-Serif" font-size="10.00">juce_gui_basics/juce</text>
<text text-anchor="middle" x="1031.83" y="-7" font-family="Helvetica,sans-Serif" font-size="10.00">_gui_basics.h</text>
</a>
</g>
</g>
<!-- Node2&#45;&gt;Node4 -->
<g id="edge3_Node000002_Node000004" class="edge">
<title>Node2&#45;&gt;Node4</title>
<g id="a_edge3_Node000002_Node000004"><a xlink:title=" ">
<path fill="none" stroke="#63b8ff" d="M1235.33,-250.77C983.81,-251.1 90.1,-245.57 10.83,-151 -14.12,-121.23 7.18,-92.07 50.83,-66 128.62,-19.54 753.42,-15.76 963.33,-15.82"/>
<polygon fill="#63b8ff" stroke="#63b8ff" points="963.6,-19.32 973.6,-15.82 963.6,-12.32 963.6,-19.32"/>
</a>
</g>
</g>
<!-- Node5 -->
<g id="Node000005" class="node">
<title>Node5</title>
<g id="a_Node000005"><a xlink:href="DirektFooter_8h.html" target="_top" xlink:title=" ">
<polygon fill="white" stroke="#666666" points="636.33,-151 511.33,-151 511.33,-132 636.33,-132 636.33,-151"/>
<text text-anchor="middle" x="573.83" y="-139" font-family="Helvetica,sans-Serif" font-size="10.00">chrome/DirektFooter.h</text>
</a>
</g>
</g>
<!-- Node2&#45;&gt;Node5 -->
<g id="edge4_Node000002_Node000005" class="edge">
<title>Node2&#45;&gt;Node5</title>
<g id="a_edge4_Node000002_Node000005"><a xlink:title=" ">
<path fill="none" stroke="#63b8ff" d="M1235.1,-249.27C1098.79,-246.15 789.62,-235.92 688.83,-206 652.9,-195.33 615.7,-172.19 593.68,-156.99"/>
<polygon fill="#63b8ff" stroke="#63b8ff" points="595.67,-154.11 585.48,-151.21 591.64,-159.83 595.67,-154.11"/>
</a>
</g>
</g>
<!-- Node6 -->
<g id="Node000006" class="node">
<title>Node6</title>
<g id="a_Node000006"><a xlink:href="DirektColours_8h.html" target="_top" xlink:title=" ">
<polygon fill="white" stroke="#666666" points="851.33,-90.5 724.33,-90.5 724.33,-71.5 851.33,-71.5 851.33,-90.5"/>
<text text-anchor="middle" x="787.83" y="-78.5" font-family="Helvetica,sans-Serif" font-size="10.00">theme/DirektColours.h</text>
</a>
</g>
</g>
<!-- Node2&#45;&gt;Node6 -->
<g id="edge64_Node000002_Node000006" class="edge">
<title>Node2&#45;&gt;Node6</title>
<g id="a_edge64_Node000002_Node000006"><a xlink:title=" ">
<path fill="none" stroke="#63b8ff" d="M1235.32,-249.47C1097.79,-245.76 786.33,-228.78 721.83,-151 704.94,-130.63 734.77,-108.84 759.62,-95.32"/>
<polygon fill="#63b8ff" stroke="#63b8ff" points="761.53,-98.27 768.8,-90.56 758.31,-92.06 761.53,-98.27"/>
</a>
</g>
</g>
<!-- Node7 -->
<g id="Node000007" class="node">
<title>Node7</title>
<g id="a_Node000007"><a xlink:href="DirektHeader_8h.html" target="_top" xlink:title=" ">
<polygon fill="white" stroke="#666666" points="860.83,-151 730.83,-151 730.83,-132 860.83,-132 860.83,-151"/>
<text text-anchor="middle" x="795.83" y="-139" font-family="Helvetica,sans-Serif" font-size="10.00">chrome/DirektHeader.h</text>
</a>
</g>
</g>
<!-- Node2&#45;&gt;Node7 -->
<g id="edge8_Node000002_Node000007" class="edge">
<title>Node2&#45;&gt;Node7</title>
<g id="a_edge8_Node000002_Node000007"><a xlink:title=" ">
<path fill="none" stroke="#63b8ff" d="M1260.78,-241.94C1169.44,-222.4 945.88,-174.59 845.75,-153.18"/>
<polygon fill="#63b8ff" stroke="#63b8ff" points="846.39,-149.73 835.88,-151.07 844.93,-156.58 846.39,-149.73"/>
</a>
</g>
</g>
<!-- Node9 -->
<g id="Node000009" class="node">
<title>Node9</title>
<g id="a_Node000009"><a xlink:href="DirektPopupPanel_8h.html" target="_top" xlink:title=" ">
<polygon fill="white" stroke="#666666" points="1745.83,-151 1593.83,-151 1593.83,-132 1745.83,-132 1745.83,-151"/>
<text text-anchor="middle" x="1669.83" y="-139" font-family="Helvetica,sans-Serif" font-size="10.00">chrome/DirektPopupPanel.h</text>
</a>
</g>
</g>
<!-- Node2&#45;&gt;Node9 -->
<g id="edge13_Node000002_Node000009" class="edge">
<title>Node2&#45;&gt;Node9</title>
<g id="a_edge13_Node000002_Node000009"><a xlink:title=" ">
<path fill="none" stroke="#63b8ff" d="M1344.29,-241.94C1383.45,-233.87 1442.44,-220.82 1492.83,-206 1544.85,-190.7 1603.88,-168.52 1638.93,-154.83"/>
<polygon fill="#63b8ff" stroke="#63b8ff" points="1640.55,-157.95 1648.57,-151.04 1637.99,-151.44 1640.55,-157.95"/>
</a>
</g>
</g>
<!-- Node10 -->
<g id="Node000010" class="node">
<title>Node10</title>
<g id="a_Node000010"><a xlink:href="DirektPresetBrowser_8h.html" target="_top" xlink:title=" ">
<polygon fill="white" stroke="#666666" points="185.33,-151 20.33,-151 20.33,-132 185.33,-132 185.33,-151"/>
<text text-anchor="middle" x="102.83" y="-139" font-family="Helvetica,sans-Serif" font-size="10.00">chrome/DirektPresetBrowser.h</text>
</a>
</g>
</g>
<!-- Node2&#45;&gt;Node10 -->
<g id="edge16_Node000002_Node000010" class="edge">
<title>Node2&#45;&gt;Node10</title>
<g id="a_edge16_Node000002_Node000010"><a xlink:title=" ">
<path fill="none" stroke="#63b8ff" d="M1235.31,-249.98C1092.01,-248.2 740.18,-240.38 447.83,-206 340.61,-193.39 216.46,-167.8 150.23,-153.25"/>
<polygon fill="#63b8ff" stroke="#63b8ff" points="150.63,-149.75 140.11,-151.01 149.12,-156.59 150.63,-149.75"/>
</a>
</g>
</g>
<!-- Node12 -->
<g id="Node000012" class="node">
<title>Node12</title>
<g id="a_Node000012"><a xlink:href="DirektConfig_8h.html" target="_top" xlink:title=" ">
<polygon fill="white" stroke="#666666" points="322.33,-151 203.33,-151 203.33,-132 322.33,-132 322.33,-151"/>
<text text-anchor="middle" x="262.83" y="-139" font-family="Helvetica,sans-Serif" font-size="10.00">config/DirektConfig.h</text>
</a>
</g>
</g>
<!-- Node2&#45;&gt;Node12 -->
<g id="edge21_Node000002_Node000012" class="edge">
<title>Node2&#45;&gt;Node12</title>
<g id="a_edge21_Node000002_Node000012"><a xlink:title=" ">
<path fill="none" stroke="#63b8ff" d="M1235.32,-249.94C1105.33,-248.09 805.86,-240.14 556.83,-206 466,-193.55 361.47,-168.31 304.76,-153.68"/>
<polygon fill="#63b8ff" stroke="#63b8ff" points="305.3,-150.2 294.74,-151.07 303.54,-156.98 305.3,-150.2"/>
</a>
</g>
</g>
<!-- Node13 -->
<g id="Node000013" class="node">
<title>Node13</title>
<g id="a_Node000013"><a xlink:href="DirektDescriptors_8h.html" target="_top" xlink:title=" ">
<polygon fill="white" stroke="#666666" points="2203.33,-151 2060.33,-151 2060.33,-132 2203.33,-132 2203.33,-151"/>
<text text-anchor="middle" x="2131.83" y="-139" font-family="Helvetica,sans-Serif" font-size="10.00">config/DirektDescriptors.h</text>
</a>
</g>
</g>
<!-- Node2&#45;&gt;Node13 -->
<g id="edge24_Node000002_Node000013" class="edge">
<title>Node2&#45;&gt;Node13</title>
<g id="a_edge24_Node000002_Node000013"><a xlink:title=" ">
<path fill="none" stroke="#63b8ff" d="M1366.38,-251.16C1549.13,-252.43 2054.82,-251.71 2112.83,-206 2126.23,-195.44 2130.48,-175.82 2131.69,-161.18"/>
<polygon fill="#63b8ff" stroke="#63b8ff" points="2135.18,-161.32 2132.12,-151.18 2128.19,-161.02 2135.18,-161.32"/>
</a>
</g>
</g>
<!-- Node18 -->
<g id="Node000018" class="node">
<title>Node18</title>
<g id="a_Node000018"><a xlink:href="DirektAutoLayout_8h.html" target="_top" xlink:title=" ">
<polygon fill="white" stroke="#666666" points="1483.33,-206 1348.33,-206 1348.33,-187 1483.33,-187 1483.33,-206"/>
<text text-anchor="middle" x="1415.83" y="-194" font-family="Helvetica,sans-Serif" font-size="10.00">core/DirektAutoLayout.h</text>
</a>
</g>
</g>
<!-- Node2&#45;&gt;Node18 -->
<g id="edge30_Node000002_Node000018" class="edge">
<title>Node2&#45;&gt;Node18</title>
<g id="a_edge30_Node000002_Node000018"><a xlink:title=" ">
<path fill="none" stroke="#63b8ff" d="M1319.31,-241.98C1337.81,-233.46 1366.51,-220.23 1387.81,-210.41"/>
<polygon fill="#63b8ff" stroke="#63b8ff" points="1389.4,-213.53 1397.02,-206.17 1386.47,-207.18 1389.4,-213.53"/>
</a>
</g>
</g>
<!-- Node23 -->
<g id="Node000023" class="node">
<title>Node23</title>
<g id="a_Node000023"><a xlink:href="DirektSection_8h.html" target="_top" xlink:title=" ">
<polygon fill="white" stroke="#666666" points="1004.33,-151 879.33,-151 879.33,-132 1004.33,-132 1004.33,-151"/>
<text text-anchor="middle" x="941.83" y="-139" font-family="Helvetica,sans-Serif" font-size="10.00">layout/DirektSection.h</text>
</a>
</g>
</g>
<!-- Node2&#45;&gt;Node23 -->
<g id="edge63_Node000002_Node000023" class="edge">
<title>Node2&#45;&gt;Node23</title>
<g id="a_edge63_Node000002_Node000023"><a xlink:title=" ">
<path fill="none" stroke="#63b8ff" d="M1272.36,-241.94C1208.21,-222.64 1052.34,-175.74 979.95,-153.97"/>
<polygon fill="#63b8ff" stroke="#63b8ff" points="980.89,-150.6 970.3,-151.07 978.87,-157.3 980.89,-150.6"/>
</a>
</g>
</g>
<!-- Node24 -->
<g id="Node000024" class="node">
<title>Node24</title>
<g id="a_Node000024"><a xlink:href="DirektBuildContext_8h.html" target="_top" xlink:title=" ">
<polygon fill="white" stroke="#666666" points="2441.33,-151 2298.33,-151 2298.33,-132 2441.33,-132 2441.33,-151"/>
<text text-anchor="middle" x="2369.83" y="-139" font-family="Helvetica,sans-Serif" font-size="10.00">core/DirektBuildContext.h</text>
</a>
</g>
</g>
<!-- Node2&#45;&gt;Node24 -->
<g id="edge47_Node000002_Node000024" class="edge">
<title>Node2&#45;&gt;Node24</title>
<g id="a_edge47_Node000002_Node000024"><a xlink:title=" ">
<path fill="none" stroke="#63b8ff" d="M1366.5,-248.76C1536.07,-243.97 1985.6,-229.4 2132.83,-206 2206.16,-194.35 2289.52,-169.12 2335.24,-154.21"/>
<polygon fill="#63b8ff" stroke="#63b8ff" points="2336.54,-157.47 2344.95,-151.01 2334.36,-150.82 2336.54,-157.47"/>
</a>
</g>
</g>
<!-- Node26 -->
<g id="Node000026" class="node">
<title>Node26</title>
<g id="a_Node000026"><a xlink:href="DirektComponentRegistry_8h.html" target="_top" xlink:title=" ">
<polygon fill="white" stroke="#666666" points="2103.33,-206 1928.33,-206 1928.33,-187 2103.33,-187 2103.33,-206"/>
<text text-anchor="middle" x="2015.83" y="-194" font-family="Helvetica,sans-Serif" font-size="10.00">core/DirektComponentRegistry.h</text>
</a>
</g>
</g>
<!-- Node2&#45;&gt;Node26 -->
<g id="edge51_Node000002_Node000026" class="edge">
<title>Node2&#45;&gt;Node26</title>
<g id="a_edge51_Node000002_Node000026"><a xlink:title=" ">
<path fill="none" stroke="#63b8ff" d="M1366.5,-245.63C1492.8,-236.27 1770.13,-215.71 1918.18,-204.74"/>
<polygon fill="#63b8ff" stroke="#63b8ff" points="1918.46,-208.23 1928.17,-204 1917.94,-201.25 1918.46,-208.23"/>
</a>
</g>
</g>
<!-- Node27 -->
<g id="Node000027" class="node">
<title>Node27</title>
<g id="a_Node000027"><a xlink:href="DirektParameterHistory_8h.html" target="_top" xlink:title=" ">
<polygon fill="white" stroke="#666666" points="1965.83,-151 1801.83,-151 1801.83,-132 1965.83,-132 1965.83,-151"/>
<text text-anchor="middle" x="1883.83" y="-139" font-family="Helvetica,sans-Serif" font-size="10.00">core/DirektParameterHistory.h</text>
</a>
</g>
</g>
<!-- Node2&#45;&gt;Node27 -->
<g id="edge60_Node000002_Node000027" class="edge">
<title>Node2&#45;&gt;Node27</title>
<g id="a_edge60_Node000002_Node000027"><a xlink:title=" ">
<path fill="none" stroke="#63b8ff" d="M1347.07,-241.94C1452.94,-222.32 1712.69,-174.2 1827.59,-152.92"/>
<polygon fill="#63b8ff" stroke="#63b8ff" points="1828.4,-156.33 1837.59,-151.07 1827.12,-149.45 1828.4,-156.33"/>
</a>
</g>
</g>
<!-- Node28 -->
<g id="Node000028" class="node">
<title>Node28</title>
<g id="a_Node000028"><a xlink:href="DirektLookAndFeel_8h.html" target="_top" xlink:title=" ">
<polygon fill="white" stroke="#666666" points="492.83,-151 340.83,-151 340.83,-132 492.83,-132 492.83,-151"/>
<text text-anchor="middle" x="416.83" y="-139" font-family="Helvetica,sans-Serif" font-size="10.00">theme/DirektLookAndFeel.h</text>
</a>
</g>
</g>
<!-- Node2&#45;&gt;Node28 -->
<g id="edge65_Node000002_Node000028" class="edge">
<title>Node2&#45;&gt;Node28</title>
<g id="a_edge65_Node000002_Node000028"><a xlink:title=" ">
<path fill="none" stroke="#63b8ff" d="M1235.29,-250.56C1116.22,-249.67 856.8,-243.18 641.83,-206 572.45,-194 493.77,-169.1 450.26,-154.3"/>
<polygon fill="#63b8ff" stroke="#63b8ff" points="451.35,-150.97 440.76,-151.03 449.08,-157.59 451.35,-150.97"/>
</a>
</g>
</g>
<!-- Node5&#45;&gt;Node4 -->
<g id="edge5_Node000005_Node000004" class="edge">
<title>Node5&#45;&gt;Node4</title>
<g id="a_edge5_Node000005_Node000004"><a xlink:title=" ">
<path fill="none" stroke="#63b8ff" d="M576.75,-131.8C582.64,-115.74 597.57,-81.67 622.83,-66 678.22,-31.63 862.02,-20.86 963.33,-17.5"/>
<polygon fill="#63b8ff" stroke="#63b8ff" points="963.59,-21 973.47,-17.18 963.36,-14 963.59,-21"/>
</a>
</g>
</g>
<!-- Node5&#45;&gt;Node6 -->
<g id="edge6_Node000005_Node000006" class="edge">
<title>Node5&#45;&gt;Node6</title>
<g id="a_edge6_Node000005_Node000006"><a xlink:title=" ">
<path fill="none" stroke="#63b8ff" d="M604.95,-131.99C642.43,-121.75 705.51,-104.5 746.91,-93.19"/>
<polygon fill="#63b8ff" stroke="#63b8ff" points="747.95,-96.53 756.68,-90.52 746.11,-89.78 747.95,-96.53"/>
</a>
</g>
</g>
<!-- Node6&#45;&gt;Node4 -->
<g id="edge7_Node000006_Node000004" class="edge">
<title>Node6&#45;&gt;Node4</title>
<g id="a_edge7_Node000006_Node000004"><a xlink:title=" ">
<path fill="none" stroke="#63b8ff" d="M820.48,-71.44C858.19,-61.55 921.1,-45.05 968.5,-32.61"/>
<polygon fill="#63b8ff" stroke="#63b8ff" points="969.58,-35.95 978.36,-30.02 967.8,-29.18 969.58,-35.95"/>
</a>
</g>
</g>
<!-- Node7&#45;&gt;Node3 -->
<g id="edge9_Node000007_Node000003" class="edge">
<title>Node7&#45;&gt;Node3</title>
<g id="a_edge9_Node000007_Node000003"><a xlink:title=" ">
<path fill="none" stroke="#63b8ff" d="M860.86,-133.04C864.23,-132.68 867.57,-132.33 870.83,-132 1047.09,-114.02 1091.99,-117.63 1267.83,-96 1271.23,-95.58 1274.7,-95.13 1278.2,-94.67"/>
<polygon fill="#63b8ff" stroke="#63b8ff" points="1278.7,-98.13 1288.12,-93.29 1277.74,-91.2 1278.7,-98.13"/>
</a>
</g>
</g>
<!-- Node7&#45;&gt;Node4 -->
<g id="edge10_Node000007_Node000004" class="edge">
<title>Node7&#45;&gt;Node4</title>
<g id="a_edge10_Node000007_Node000004"><a xlink:title=" ">
<path fill="none" stroke="#63b8ff" d="M812.05,-131.94C849.78,-112.04 944.14,-62.26 996.11,-34.85"/>
<polygon fill="#63b8ff" stroke="#63b8ff" points="997.78,-37.92 1004.99,-30.16 994.51,-31.73 997.78,-37.92"/>
</a>
</g>
</g>
<!-- Node7&#45;&gt;Node6 -->
<g id="edge12_Node000007_Node000006" class="edge">
<title>Node7&#45;&gt;Node6</title>
<g id="a_edge12_Node000007_Node000006"><a xlink:title=" ">
<path fill="none" stroke="#63b8ff" d="M794.65,-131.87C793.54,-123.75 791.84,-111.31 790.41,-100.89"/>
<polygon fill="#63b8ff" stroke="#63b8ff" points="793.84,-100.1 789.02,-90.67 786.9,-101.05 793.84,-100.1"/>
</a>
</g>
</g>
<!-- Node8 -->
<g id="Node000008" class="node">
<title>Node8</title>
<g id="a_Node000008"><a xlink:title=" ">
<polygon fill="#e0e0e0" stroke="#999999" points="697.33,-90.5 632.33,-90.5 632.33,-71.5 697.33,-71.5 697.33,-90.5"/>
<text text-anchor="middle" x="664.83" y="-78.5" font-family="Helvetica,sans-Serif" font-size="10.00">functional</text>
</a>
</g>
</g>
<!-- Node7&#45;&gt;Node8 -->
<g id="edge11_Node000007_Node000008" class="edge">
<title>Node7&#45;&gt;Node8</title>
<g id="a_edge11_Node000007_Node000008"><a xlink:title=" ">
<path fill="none" stroke="#63b8ff" d="M776.78,-131.99C754.86,-122.2 718.62,-106.02 693.34,-94.73"/>
<polygon fill="#63b8ff" stroke="#63b8ff" points="694.46,-91.4 683.9,-90.52 691.61,-97.79 694.46,-91.4"/>
</a>
</g>
</g>
<!-- Node9&#45;&gt;Node4 -->
<g id="edge14_Node000009_Node000004" class="edge">
<title>Node9&#45;&gt;Node4</title>
<g id="a_edge14_Node000009_Node000004"><a xlink:title=" ">
<path fill="none" stroke="#63b8ff" d="M1662.52,-131.64C1648.46,-115.33 1615.83,-80.85 1579.83,-66 1494.7,-30.89 1227.03,-20.3 1100.01,-17.22"/>
<polygon fill="#63b8ff" stroke="#63b8ff" points="1100.09,-13.72 1090.01,-16.98 1099.92,-20.72 1100.09,-13.72"/>
</a>
</g>
</g>
<!-- Node9&#45;&gt;Node6 -->
<g id="edge15_Node000009_Node000006" class="edge">
<title>Node9&#45;&gt;Node6</title>
<g id="a_edge15_Node000009_Node000006"><a xlink:title=" ">
<path fill="none" stroke="#63b8ff" d="M1593.72,-135.2C1578.21,-134.13 1561.99,-133.02 1546.83,-132 1295.63,-115.05 997.61,-95.61 861.84,-86.8"/>
<polygon fill="#63b8ff" stroke="#63b8ff" points="861.76,-83.28 851.56,-86.13 861.31,-90.27 861.76,-83.28"/>
</a>
</g>
</g>
<!-- Node10&#45;&gt;Node4 -->
<g id="edge17_Node000010_Node000004" class="edge">
<title>Node10&#45;&gt;Node4</title>
<g id="a_edge17_Node000010_Node000004"><a xlink:title=" ">
<path fill="none" stroke="#63b8ff" d="M129.21,-131.91C179.1,-116.05 291,-82.28 387.83,-66 595.55,-31.07 845.15,-20.48 963.34,-17.32"/>
<polygon fill="#63b8ff" stroke="#63b8ff" points="963.78,-20.81 973.68,-17.05 963.6,-13.81 963.78,-20.81"/>
</a>
</g>
</g>
<!-- Node10&#45;&gt;Node6 -->
<g id="edge20_Node000010_Node000006" class="edge">
<title>Node10&#45;&gt;Node6</title>
<g id="a_edge20_Node000010_Node000006"><a xlink:title=" ">
<path fill="none" stroke="#63b8ff" d="M185.65,-132.68C188.41,-132.45 191.14,-132.22 193.83,-132 421.19,-113.39 479.34,-123.23 705.83,-96 714.58,-94.95 723.82,-93.6 732.82,-92.16"/>
<polygon fill="#63b8ff" stroke="#63b8ff" points="733.54,-95.59 742.83,-90.51 732.4,-88.68 733.54,-95.59"/>
</a>
</g>
</g>
<!-- Node10&#45;&gt;Node8 -->
<g id="edge18_Node000010_Node000008" class="edge">
<title>Node10&#45;&gt;Node8</title>
<g id="a_edge18_Node000010_Node000008"><a xlink:title=" ">
<path fill="none" stroke="#63b8ff" d="M184.55,-131.99C305.76,-119.38 528.9,-96.15 622.13,-86.44"/>
<polygon fill="#63b8ff" stroke="#63b8ff" points="622.74,-89.9 632.32,-85.38 622.01,-82.94 622.74,-89.9"/>
</a>
</g>
</g>
<!-- Node11 -->
<g id="Node000011" class="node">
<title>Node11</title>
<g id="a_Node000011"><a xlink:title=" ">
<polygon fill="#e0e0e0" stroke="#999999" points="145.83,-90.5 59.83,-90.5 59.83,-71.5 145.83,-71.5 145.83,-90.5"/>
<text text-anchor="middle" x="102.83" y="-78.5" font-family="Helvetica,sans-Serif" font-size="10.00">unordered_set</text>
</a>
</g>
</g>
<!-- Node10&#45;&gt;Node11 -->
<g id="edge19_Node000010_Node000011" class="edge">
<title>Node10&#45;&gt;Node11</title>
<g id="a_edge19_Node000010_Node000011"><a xlink:title=" ">
<path fill="none" stroke="#63b8ff" d="M102.83,-131.87C102.83,-123.75 102.83,-111.31 102.83,-100.89"/>
<polygon fill="#63b8ff" stroke="#63b8ff" points="106.33,-100.67 102.83,-90.67 99.33,-100.67 106.33,-100.67"/>
</a>
</g>
</g>
<!-- Node12&#45;&gt;Node4 -->
<g id="edge22_Node000012_Node000004" class="edge">
<title>Node12&#45;&gt;Node4</title>
<g id="a_edge22_Node000012_Node000004"><a xlink:title=" ">
<path fill="none" stroke="#63b8ff" d="M285.12,-131.95C327.32,-116.15 422.05,-82.49 504.83,-66 667.35,-33.63 862.37,-22.05 963.48,-18.04"/>
<polygon fill="#63b8ff" stroke="#63b8ff" points="963.71,-21.53 973.56,-17.65 963.44,-14.54 963.71,-21.53"/>
</a>
</g>
</g>
<!-- Node12&#45;&gt;Node6 -->
<g id="edge23_Node000012_Node000006" class="edge">
<title>Node12&#45;&gt;Node6</title>
<g id="a_edge23_Node000012_Node000006"><a xlink:title=" ">
<path fill="none" stroke="#63b8ff" d="M322.66,-133.03C325.76,-132.67 328.83,-132.33 331.83,-132 497.83,-113.79 540.3,-118.07 705.83,-96 714.17,-94.89 722.95,-93.56 731.55,-92.17"/>
<polygon fill="#63b8ff" stroke="#63b8ff" points="732.23,-95.6 741.52,-90.52 731.08,-88.7 732.23,-95.6"/>
</a>
</g>
</g>
<!-- Node13&#45;&gt;Node4 -->
<g id="edge25_Node000013_Node000004" class="edge">
<title>Node13&#45;&gt;Node4</title>
<g id="a_edge25_Node000013_Node000004"><a xlink:title=" ">
<path fill="none" stroke="#63b8ff" d="M2127.79,-131.57C2119.79,-115.13 2100.25,-80.45 2071.83,-66 1985.68,-22.2 1317.71,-16.68 1100.1,-16.06"/>
<polygon fill="#63b8ff" stroke="#63b8ff" points="1100.1,-12.56 1090.09,-16.03 1100.08,-19.56 1100.1,-12.56"/>
</a>
</g>
</g>
<!-- Node14 -->
<g id="Node000014" class="node">
<title>Node14</title>
<g id="a_Node000014"><a xlink:title=" ">
<polygon fill="#e0e0e0" stroke="#999999" points="2302.83,-90.5 2264.83,-90.5 2264.83,-71.5 2302.83,-71.5 2302.83,-90.5"/>
<text text-anchor="middle" x="2283.83" y="-78.5" font-family="Helvetica,sans-Serif" font-size="10.00">map</text>
</a>
</g>
</g>
<!-- Node13&#45;&gt;Node14 -->
<g id="edge26_Node000013_Node000014" class="edge">
<title>Node13&#45;&gt;Node14</title>
<g id="a_edge26_Node000013_Node000014"><a xlink:title=" ">
<path fill="none" stroke="#63b8ff" d="M2158.79,-131.86C2184.16,-123.48 2223.02,-110.03 2255.83,-96 2256.66,-95.64 2257.5,-95.28 2258.35,-94.9"/>
<polygon fill="#63b8ff" stroke="#63b8ff" points="2259.86,-98.06 2267.4,-90.62 2256.87,-91.73 2259.86,-98.06"/>
</a>
</g>
</g>
<!-- Node15 -->
<g id="Node000015" class="node">
<title>Node15</title>
<g id="a_Node000015"><a xlink:title=" ">
<polygon fill="#e0e0e0" stroke="#999999" points="2246.83,-90.5 2188.83,-90.5 2188.83,-71.5 2246.83,-71.5 2246.83,-90.5"/>
<text text-anchor="middle" x="2217.83" y="-78.5" font-family="Helvetica,sans-Serif" font-size="10.00">memory</text>
</a>
</g>
</g>
<!-- Node13&#45;&gt;Node15 -->
<g id="edge27_Node000013_Node000015" class="edge">
<title>Node13&#45;&gt;Node15</title>
<g id="a_edge27_Node000013_Node000015"><a xlink:title=" ">
<path fill="none" stroke="#63b8ff" d="M2144.52,-131.87C2158.24,-122.54 2180.33,-107.51 2196.69,-96.38"/>
<polygon fill="#63b8ff" stroke="#63b8ff" points="2198.79,-99.19 2205.09,-90.67 2194.85,-93.4 2198.79,-99.19"/>
</a>
</g>
</g>
<!-- Node16 -->
<g id="Node000016" class="node">
<title>Node16</title>
<g id="a_Node000016"><a xlink:title=" ">
<polygon fill="#e0e0e0" stroke="#999999" points="2170.33,-90.5 2119.33,-90.5 2119.33,-71.5 2170.33,-71.5 2170.33,-90.5"/>
<text text-anchor="middle" x="2144.83" y="-78.5" font-family="Helvetica,sans-Serif" font-size="10.00">variant</text>
</a>
</g>
</g>
<!-- Node13&#45;&gt;Node16 -->
<g id="edge28_Node000013_Node000016" class="edge">
<title>Node13&#45;&gt;Node16</title>
<g id="a_edge28_Node000013_Node000016"><a xlink:title=" ">
<path fill="none" stroke="#63b8ff" d="M2133.75,-131.87C2135.57,-123.66 2138.38,-111.04 2140.71,-100.55"/>
<polygon fill="#63b8ff" stroke="#63b8ff" points="2144.15,-101.19 2142.91,-90.67 2137.32,-99.67 2144.15,-101.19"/>
</a>
</g>
</g>
<!-- Node17 -->
<g id="Node000017" class="node">
<title>Node17</title>
<g id="a_Node000017"><a xlink:title=" ">
<polygon fill="#e0e0e0" stroke="#999999" points="2062.33,-90.5 2015.33,-90.5 2015.33,-71.5 2062.33,-71.5 2062.33,-90.5"/>
<text text-anchor="middle" x="2038.83" y="-78.5" font-family="Helvetica,sans-Serif" font-size="10.00">vector</text>
</a>
</g>
</g>
<!-- Node13&#45;&gt;Node17 -->
<g id="edge29_Node000013_Node000017" class="edge">
<title>Node13&#45;&gt;Node17</title>
<g id="a_edge29_Node000013_Node000017"><a xlink:title=" ">
<path fill="none" stroke="#63b8ff" d="M2118.11,-131.87C2103.14,-122.45 2078.94,-107.23 2061.21,-96.08"/>
<polygon fill="#63b8ff" stroke="#63b8ff" points="2062.94,-93.03 2052.61,-90.67 2059.21,-98.95 2062.94,-93.03"/>
</a>
</g>
</g>
<!-- Node18&#45;&gt;Node3 -->
<g id="edge31_Node000018_Node000003" class="edge">
<title>Node18&#45;&gt;Node3</title>
<g id="a_edge31_Node000018_Node000003"><a xlink:title=" ">
<path fill="none" stroke="#63b8ff" d="M1406.41,-186.82C1397.82,-178.42 1385.35,-164.95 1377.83,-151 1370.31,-137.05 1365.33,-119.96 1362.22,-106.27"/>
<polygon fill="#63b8ff" stroke="#63b8ff" points="1365.58,-105.23 1360.11,-96.15 1358.72,-106.66 1365.58,-105.23"/>
</a>
</g>
</g>
<!-- Node18&#45;&gt;Node4 -->
<g id="edge32_Node000018_Node000004" class="edge">
<title>Node18&#45;&gt;Node4</title>
<g id="a_edge32_Node000018_Node000004"><a xlink:title=" ">
<path fill="none" stroke="#63b8ff" d="M1483.56,-187.37C1523.06,-179.25 1562.34,-163.24 1546.83,-132 1525.25,-88.53 1504.86,-84.12 1459.83,-66 1396.19,-40.39 1204.08,-25.81 1100.23,-19.6"/>
<polygon fill="#63b8ff" stroke="#63b8ff" points="1100.35,-16.1 1090.16,-19.01 1099.93,-23.09 1100.35,-16.1"/>
</a>
</g>
</g>
<!-- Node18&#45;&gt;Node13 -->
<g id="edge33_Node000018_Node000013" class="edge">
<title>Node18&#45;&gt;Node13</title>
<g id="a_edge33_Node000018_Node000013"><a xlink:title=" ">
<path fill="none" stroke="#63b8ff" d="M1483.51,-190.49C1615.68,-180.71 1907.63,-159.1 2050.23,-148.54"/>
<polygon fill="#63b8ff" stroke="#63b8ff" points="2050.52,-152.03 2060.24,-147.8 2050.01,-145.05 2050.52,-152.03"/>
</a>
</g>
</g>
<!-- Node19 -->
<g id="Node000019" class="node">
<title>Node19</title>
<g id="a_Node000019"><a xlink:href="DirektComboBox_8h.html" target="_top" xlink:title=" ">
<polygon fill="white" stroke="#666666" points="1537.33,-151 1386.33,-151 1386.33,-132 1537.33,-132 1537.33,-151"/>
<text text-anchor="middle" x="1461.83" y="-139" font-family="Helvetica,sans-Serif" font-size="10.00">controls/DirektComboBox.h</text>
</a>
</g>
</g>
<!-- Node18&#45;&gt;Node19 -->
<g id="edge34_Node000018_Node000019" class="edge">
<title>Node18&#45;&gt;Node19</title>
<g id="a_edge34_Node000018_Node000019"><a xlink:title=" ">
<path fill="none" stroke="#63b8ff" d="M1423.43,-186.75C1429.99,-179.18 1439.65,-168.05 1447.65,-158.84"/>
<polygon fill="#63b8ff" stroke="#63b8ff" points="1450.46,-160.94 1454.38,-151.09 1445.18,-156.35 1450.46,-160.94"/>
</a>
</g>
</g>
<!-- Node20 -->
<g id="Node000020" class="node">
<title>Node20</title>
<g id="a_Node000020"><a xlink:href="DirektKnob_8h.html" target="_top" xlink:title=" ">
<polygon fill="white" stroke="#666666" points="1291.83,-151 1169.83,-151 1169.83,-132 1291.83,-132 1291.83,-151"/>
<text text-anchor="middle" x="1230.83" y="-139" font-family="Helvetica,sans-Serif" font-size="10.00">controls/DirektKnob.h</text>
</a>
</g>
</g>
<!-- Node18&#45;&gt;Node20 -->
<g id="edge37_Node000018_Node000020" class="edge">
<title>Node18&#45;&gt;Node20</title>
<g id="a_edge37_Node000018_Node000020"><a xlink:title=" ">
<path fill="none" stroke="#63b8ff" d="M1386.11,-186.98C1354.78,-178.01 1305.26,-163.82 1270.59,-153.89"/>
<polygon fill="#63b8ff" stroke="#63b8ff" points="1271.36,-150.47 1260.79,-151.08 1269.44,-157.2 1271.36,-150.47"/>
</a>
</g>
</g>
<!-- Node22 -->
<g id="Node000022" class="node">
<title>Node22</title>
<g id="a_Node000022"><a xlink:href="DirektToggle_8h.html" target="_top" xlink:title=" ">
<polygon fill="white" stroke="#666666" points="1151.33,-151 1022.33,-151 1022.33,-132 1151.33,-132 1151.33,-151"/>
<text text-anchor="middle" x="1086.83" y="-139" font-family="Helvetica,sans-Serif" font-size="10.00">controls/DirektToggle.h</text>
</a>
</g>
</g>
<!-- Node18&#45;&gt;Node22 -->
<g id="edge41_Node000018_Node000022" class="edge">
<title>Node18&#45;&gt;Node22</title>
<g id="a_edge41_Node000018_Node000022"><a xlink:title=" ">
<path fill="none" stroke="#63b8ff" d="M1362.97,-186.98C1304.9,-177.63 1211.68,-162.61 1149.85,-152.65"/>
<polygon fill="#63b8ff" stroke="#63b8ff" points="1150.26,-149.17 1139.83,-151.04 1149.15,-156.08 1150.26,-149.17"/>
</a>
</g>
</g>
<!-- Node18&#45;&gt;Node23 -->
<g id="edge44_Node000018_Node000023" class="edge">
<title>Node18&#45;&gt;Node23</title>
<g id="a_edge44_Node000018_Node000023"><a xlink:title=" ">
<path fill="none" stroke="#63b8ff" d="M1348.24,-188.17C1270.45,-179.7 1138.57,-165.23 1014.7,-151.09"/>
<polygon fill="#63b8ff" stroke="#63b8ff" points="1014.99,-147.6 1004.66,-149.94 1014.19,-154.56 1014.99,-147.6"/>
</a>
</g>
</g>
<!-- Node19&#45;&gt;Node3 -->
<g id="edge35_Node000019_Node000003" class="edge">
<title>Node19&#45;&gt;Node3</title>
<g id="a_edge35_Node000019_Node000003"><a xlink:title=" ">
<path fill="none" stroke="#63b8ff" d="M1446.49,-131.87C1432.11,-123.78 1410.14,-111.42 1391.66,-101.03"/>
<polygon fill="#63b8ff" stroke="#63b8ff" points="1393.36,-97.97 1382.92,-96.11 1389.92,-104.07 1393.36,-97.97"/>
</a>
</g>
</g>
<!-- Node19&#45;&gt;Node4 -->
<g id="edge36_Node000019_Node000004" class="edge">
<title>Node19&#45;&gt;Node4</title>
<g id="a_edge36_Node000019_Node000004"><a xlink:title=" ">
<path fill="none" stroke="#63b8ff" d="M1461.73,-131.97C1461.04,-116.19 1457.12,-82.57 1436.83,-66 1386.7,-25.05 1201.8,-17.09 1100.06,-15.88"/>
<polygon fill="#63b8ff" stroke="#63b8ff" points="1099.91,-12.38 1089.88,-15.78 1099.84,-19.38 1099.91,-12.38"/>
</a>
</g>
</g>
<!-- Node20&#45;&gt;Node3 -->
<g id="edge38_Node000020_Node000003" class="edge">
<title>Node20&#45;&gt;Node3</title>
<g id="a_edge38_Node000020_Node000003"><a xlink:title=" ">
<path fill="none" stroke="#63b8ff" d="M1249.3,-131.99C1267.2,-123.75 1294.93,-110.98 1317.88,-100.4"/>
<polygon fill="#63b8ff" stroke="#63b8ff" points="1319.43,-103.54 1327.05,-96.18 1316.51,-97.18 1319.43,-103.54"/>
</a>
</g>
</g>
<!-- Node20&#45;&gt;Node4 -->
<g id="edge39_Node000020_Node000004" class="edge">
<title>Node20&#45;&gt;Node4</title>
<g id="a_edge39_Node000020_Node000004"><a xlink:title=" ">
<path fill="none" stroke="#63b8ff" d="M1217.15,-131.94C1185.61,-112.21 1107.09,-63.08 1063.05,-35.53"/>
<polygon fill="#63b8ff" stroke="#63b8ff" points="1064.8,-32.5 1054.47,-30.16 1061.09,-38.43 1064.8,-32.5"/>
</a>
</g>
</g>
<!-- Node21 -->
<g id="Node000021" class="node">
<title>Node21</title>
<g id="a_Node000021"><a xlink:title=" ">
<polygon fill="#e0e0e0" stroke="#999999" points="1258.83,-90.5 1202.83,-90.5 1202.83,-71.5 1258.83,-71.5 1258.83,-90.5"/>
<text text-anchor="middle" x="1230.83" y="-78.5" font-family="Helvetica,sans-Serif" font-size="10.00">optional</text>
</a>
</g>
</g>
<!-- Node20&#45;&gt;Node21 -->
<g id="edge40_Node000020_Node000021" class="edge">
<title>Node20&#45;&gt;Node21</title>
<g id="a_edge40_Node000020_Node000021"><a xlink:title=" ">
<path fill="none" stroke="#63b8ff" d="M1230.83,-131.87C1230.83,-123.75 1230.83,-111.31 1230.83,-100.89"/>
<polygon fill="#63b8ff" stroke="#63b8ff" points="1234.33,-100.67 1230.83,-90.67 1227.33,-100.67 1234.33,-100.67"/>
</a>
</g>
</g>
<!-- Node22&#45;&gt;Node3 -->
<g id="edge42_Node000022_Node000003" class="edge">
<title>Node22&#45;&gt;Node3</title>
<g id="a_edge42_Node000022_Node000003"><a xlink:title=" ">
<path fill="none" stroke="#63b8ff" d="M1126.24,-131.99C1167.18,-123.16 1232.24,-109.11 1282.99,-98.16"/>
<polygon fill="#63b8ff" stroke="#63b8ff" points="1283.9,-101.54 1292.94,-96.01 1282.43,-94.7 1283.9,-101.54"/>
</a>
</g>
</g>
<!-- Node22&#45;&gt;Node4 -->
<g id="edge43_Node000022_Node000004" class="edge">
<title>Node22&#45;&gt;Node4</title>
<g id="a_edge43_Node000022_Node000004"><a xlink:title=" ">
<path fill="none" stroke="#63b8ff" d="M1083.05,-131.94C1074.75,-113.15 1054.69,-67.73 1042.28,-39.64"/>
<polygon fill="#63b8ff" stroke="#63b8ff" points="1045.33,-37.89 1038.09,-30.16 1038.93,-40.72 1045.33,-37.89"/>
</a>
</g>
</g>
<!-- Node23&#45;&gt;Node4 -->
<g id="edge45_Node000023_Node000004" class="edge">
<title>Node23&#45;&gt;Node4</title>
<g id="a_edge45_Node000023_Node000004"><a xlink:title=" ">
<path fill="none" stroke="#63b8ff" d="M948.02,-131.94C961.78,-112.91 995.3,-66.53 1015.53,-38.54"/>
<polygon fill="#63b8ff" stroke="#63b8ff" points="1018.57,-40.32 1021.59,-30.16 1012.9,-36.21 1018.57,-40.32"/>
</a>
</g>
</g>
<!-- Node23&#45;&gt;Node6 -->
<g id="edge46_Node000023_Node000006" class="edge">
<title>Node23&#45;&gt;Node6</title>
<g id="a_edge46_Node000023_Node000006"><a xlink:title=" ">
<path fill="none" stroke="#63b8ff" d="M919.44,-131.99C893.21,-122.03 849.55,-105.45 819.77,-94.13"/>
<polygon fill="#63b8ff" stroke="#63b8ff" points="820.84,-90.8 810.25,-90.52 818.36,-97.34 820.84,-90.8"/>
</a>
</g>
</g>
<!-- Node24&#45;&gt;Node3 -->
<g id="edge48_Node000024_Node000003" class="edge">
<title>Node24&#45;&gt;Node3</title>
<g id="a_edge48_Node000024_Node000003"><a xlink:title=" ">
<path fill="none" stroke="#63b8ff" d="M2298.27,-136.36C2114.94,-125.77 1629.42,-97.7 1437.51,-86.61"/>
<polygon fill="#63b8ff" stroke="#63b8ff" points="1437.68,-83.11 1427.49,-86.03 1437.28,-90.1 1437.68,-83.11"/>
</a>
</g>
</g>
<!-- Node24&#45;&gt;Node14 -->
<g id="edge50_Node000024_Node000014" class="edge">
<title>Node24&#45;&gt;Node14</title>
<g id="a_edge50_Node000024_Node000014"><a xlink:title=" ">
<path fill="none" stroke="#63b8ff" d="M2357.14,-131.87C2343.42,-122.54 2321.33,-107.51 2304.98,-96.38"/>
<polygon fill="#63b8ff" stroke="#63b8ff" points="2306.81,-93.4 2296.57,-90.67 2302.87,-99.19 2306.81,-93.4"/>
</a>
</g>
</g>
<!-- Node25 -->
<g id="Node000025" class="node">
<title>Node25</title>
<g id="a_Node000025"><a xlink:title=" ">
<polygon fill="#e0e0e0" stroke="#999999" points="2418.83,-90.5 2368.83,-90.5 2368.83,-71.5 2418.83,-71.5 2418.83,-90.5"/>
<text text-anchor="middle" x="2393.83" y="-78.5" font-family="Helvetica,sans-Serif" font-size="10.00">atomic</text>
</a>
</g>
</g>
<!-- Node24&#45;&gt;Node25 -->
<g id="edge49_Node000024_Node000025" class="edge">
<title>Node24&#45;&gt;Node25</title>
<g id="a_edge49_Node000024_Node000025"><a xlink:title=" ">
<path fill="none" stroke="#63b8ff" d="M2373.37,-131.87C2376.78,-123.57 2382.03,-110.78 2386.36,-100.22"/>
<polygon fill="#63b8ff" stroke="#63b8ff" points="2389.72,-101.25 2390.28,-90.67 2383.24,-98.59 2389.72,-101.25"/>
</a>
</g>
</g>
<!-- Node26&#45;&gt;Node3 -->
<g id="edge52_Node000026_Node000003" class="edge">
<title>Node26&#45;&gt;Node3</title>
<g id="a_edge52_Node000026_Node000003"><a xlink:title=" ">
<path fill="none" stroke="#63b8ff" d="M1949.24,-186.96C1904.26,-180.05 1843.99,-168.54 1792.83,-151 1774.97,-144.88 1772.9,-137.48 1754.83,-132 1648.05,-99.61 1518.97,-88.18 1437.61,-84.16"/>
<polygon fill="#63b8ff" stroke="#63b8ff" points="1437.59,-80.66 1427.44,-83.69 1437.27,-87.65 1437.59,-80.66"/>
</a>
</g>
</g>
<!-- Node26&#45;&gt;Node4 -->
<g id="edge53_Node000026_Node000004" class="edge">
<title>Node26&#45;&gt;Node4</title>
<g id="a_edge53_Node000026_Node000004"><a xlink:title=" ">
<path fill="none" stroke="#63b8ff" d="M2012.86,-186.9C2007.57,-172.94 1995.12,-145.57 1974.83,-132 1831.38,-36.02 1292.28,-19.45 1100.27,-16.59"/>
<polygon fill="#63b8ff" stroke="#63b8ff" points="1100.08,-13.09 1090.03,-16.45 1099.98,-20.09 1100.08,-13.09"/>
</a>
</g>
</g>
<!-- Node26&#45;&gt;Node8 -->
<g id="edge54_Node000026_Node000008" class="edge">
<title>Node26&#45;&gt;Node8</title>
<g id="a_edge54_Node000026_Node000008"><a xlink:title=" ">
<path fill="none" stroke="#63b8ff" d="M1928.23,-193.45C1641.66,-186.62 748.91,-164.33 721.83,-151 699.9,-140.2 683.39,-116.61 673.93,-100.03"/>
<polygon fill="#63b8ff" stroke="#63b8ff" points="676.78,-97.94 668.96,-90.79 670.61,-101.26 676.78,-97.94"/>
</a>
</g>
</g>
<!-- Node26&#45;&gt;Node13 -->
<g id="edge58_Node000026_Node000013" class="edge">
<title>Node26&#45;&gt;Node13</title>
<g id="a_edge58_Node000026_Node000013"><a xlink:title=" ">
<path fill="none" stroke="#63b8ff" d="M2034.47,-186.98C2053.13,-178.46 2082.08,-165.23 2103.57,-155.41"/>
<polygon fill="#63b8ff" stroke="#63b8ff" points="2105.21,-158.51 2112.85,-151.17 2102.3,-152.14 2105.21,-158.51"/>
</a>
</g>
</g>
<!-- Node26&#45;&gt;Node14 -->
<g id="edge55_Node000026_Node000014" class="edge">
<title>Node26&#45;&gt;Node14</title>
<g id="a_edge55_Node000026_Node000014"><a xlink:title=" ">
<path fill="none" stroke="#63b8ff" d="M2103.47,-191.37C2144.68,-186.07 2192.96,-174.74 2230.83,-151 2250.76,-138.51 2266.05,-115.69 2274.97,-99.73"/>
<polygon fill="#63b8ff" stroke="#63b8ff" points="2278.1,-101.3 2279.69,-90.83 2271.92,-98.02 2278.1,-101.3"/>
</a>
</g>
</g>
<!-- Node26&#45;&gt;Node15 -->
<g id="edge56_Node000026_Node000015" class="edge">
<title>Node26&#45;&gt;Node15</title>
<g id="a_edge56_Node000026_Node000015"><a xlink:title=" ">
<path fill="none" stroke="#63b8ff" d="M2096.71,-186.98C2144.05,-180.21 2197.48,-168.84 2212.83,-151 2224.56,-137.37 2224.28,-116.09 2222.03,-100.77"/>
<polygon fill="#63b8ff" stroke="#63b8ff" points="2225.45,-100.05 2220.18,-90.86 2218.57,-101.33 2225.45,-100.05"/>
</a>
</g>
</g>
<!-- Node26&#45;&gt;Node17 -->
<g id="edge57_Node000026_Node000017" class="edge">
<title>Node26&#45;&gt;Node17</title>
<g id="a_edge57_Node000026_Node000017"><a xlink:title=" ">
<path fill="none" stroke="#63b8ff" d="M2017.56,-186.97C2021.26,-168.73 2030,-125.57 2035.05,-100.64"/>
<polygon fill="#63b8ff" stroke="#63b8ff" points="2038.53,-101.13 2037.08,-90.63 2031.67,-99.74 2038.53,-101.13"/>
</a>
</g>
</g>
<!-- Node26&#45;&gt;Node24 -->
<g id="edge59_Node000026_Node000024" class="edge">
<title>Node26&#45;&gt;Node24</title>
<g id="a_edge59_Node000026_Node000024"><a xlink:title=" ">
<path fill="none" stroke="#63b8ff" d="M2072.71,-186.98C2135.45,-177.59 2236.32,-162.49 2302.84,-152.53"/>
<polygon fill="#63b8ff" stroke="#63b8ff" points="2303.43,-155.98 2312.8,-151.04 2302.39,-149.06 2303.43,-155.98"/>
</a>
</g>
</g>
<!-- Node27&#45;&gt;Node3 -->
<g id="edge61_Node000027_Node000003" class="edge">
<title>Node27&#45;&gt;Node3</title>
<g id="a_edge61_Node000027_Node000003"><a xlink:title=" ">
<path fill="none" stroke="#63b8ff" d="M1807.35,-131.99C1708.73,-121.03 1538.02,-102.04 1437.76,-90.89"/>
<polygon fill="#63b8ff" stroke="#63b8ff" points="1438.01,-87.4 1427.68,-89.77 1437.24,-94.35 1438.01,-87.4"/>
</a>
</g>
</g>
<!-- Node27&#45;&gt;Node17 -->
<g id="edge62_Node000027_Node000017" class="edge">
<title>Node27&#45;&gt;Node17</title>
<g id="a_edge62_Node000027_Node000017"><a xlink:title=" ">
<path fill="none" stroke="#63b8ff" d="M1906.37,-131.99C1932.77,-122.03 1976.71,-105.45 2006.68,-94.13"/>
<polygon fill="#63b8ff" stroke="#63b8ff" points="2008.15,-97.32 2016.27,-90.52 2005.67,-90.77 2008.15,-97.32"/>
</a>
</g>
</g>
<!-- Node28&#45;&gt;Node4 -->
<g id="edge66_Node000028_Node000004" class="edge">
<title>Node28&#45;&gt;Node4</title>
<g id="a_edge66_Node000028_Node000004"><a xlink:title=" ">
<path fill="none" stroke="#63b8ff" d="M432.58,-131.89C462.46,-115.98 529.84,-82.14 590.83,-66 719.8,-31.87 876.05,-21.03 963.68,-17.6"/>
<polygon fill="#63b8ff" stroke="#63b8ff" points="963.89,-21.09 973.76,-17.22 963.63,-14.1 963.89,-21.09"/>
</a>
</g>
</g>
<!-- Node28&#45;&gt;Node6 -->
<g id="edge67_Node000028_Node000006" class="edge">
<title>Node28&#45;&gt;Node6</title>
<g id="a_edge67_Node000028_Node000006"><a xlink:title=" ">
<path fill="none" stroke="#63b8ff" d="M473.9,-131.99C532.23,-123.23 625.41,-109.06 705.83,-96 713.17,-94.81 720.86,-93.53 728.49,-92.25"/>
<polygon fill="#63b8ff" stroke="#63b8ff" points="729.14,-95.69 738.42,-90.57 727.98,-88.79 729.14,-95.69"/>
</a>
</g>
</g>
<!-- Node29&#45;&gt;Node4 -->
<g id="edge69_Node000029_Node000004" class="edge">
<title>Node29&#45;&gt;Node4</title>
<g id="a_edge69_Node000029_Node000004"><a xlink:title=" ">
<path fill="none" stroke="#63b8ff" d="M2513.73,-131.97C2499.46,-115.55 2465.45,-79.97 2427.83,-66 2302.9,-19.6 1363.28,-16.02 1100.14,-15.93"/>
<polygon fill="#63b8ff" stroke="#63b8ff" points="1099.96,-12.43 1089.96,-15.93 1099.96,-19.43 1099.96,-12.43"/>
</a>
</g>
</g>
<!-- Node29&#45;&gt;Node6 -->
<g id="edge71_Node000029_Node000006" class="edge">
<title>Node29&#45;&gt;Node6</title>
<g id="a_edge71_Node000029_Node000006"><a xlink:title=" ">
<path fill="none" stroke="#63b8ff" d="M2459.78,-132.75C2456.76,-132.47 2453.76,-132.22 2450.83,-132 1893.5,-90.27 1752.45,-113.63 1193.83,-96 1077.73,-92.34 942.96,-87.59 861.61,-84.67"/>
<polygon fill="#63b8ff" stroke="#63b8ff" points="861.59,-81.17 851.47,-84.31 861.34,-88.17 861.59,-81.17"/>
</a>
</g>
</g>
<!-- Node29&#45;&gt;Node25 -->
<g id="edge70_Node000029_Node000025" class="edge">
<title>Node29&#45;&gt;Node25</title>
<g id="a_edge70_Node000029_Node000025"><a xlink:title=" ">
<path fill="none" stroke="#63b8ff" d="M2502.36,-131.99C2481.11,-122.2 2445.98,-106.02 2421.46,-94.73"/>
<polygon fill="#63b8ff" stroke="#63b8ff" points="2422.87,-91.52 2412.32,-90.52 2419.94,-97.88 2422.87,-91.52"/>
</a>
</g>
</g>
</g>
</svg>
