<?xml version="1.0" encoding="UTF-8" standalone="no"?>
<!DOCTYPE svg PUBLIC "-//W3C//DTD SVG 1.1//EN"
 "http://www.w3.org/Graphics/SVG/1.1/DTD/svg11.dtd">
<!-- Generated by graphviz version 2.43.0 (0)
 -->
<!-- Title: core/DirektBaseEditor.h Pages: 1 -->
<svg width="2308pt" height="269pt"
 viewBox="0.00 0.00 2307.50 269.00" xmlns="http://www.w3.org/2000/svg" xmlns:xlink="http://www.w3.org/1999/xlink">
<g id="graph0" class="graph" transform="scale(1 1) rotate(0) translate(4 265)">
<title>core/DirektBaseEditor.h</title>
<!-- Node1 -->
<g id="Node000001" class="node">
<title>Node1</title>
<g id="a_Node000001"><a xlink:title=" ">
<polygon fill="#999999" stroke="#666666" points="1042.5,-261 911.5,-261 911.5,-242 1042.5,-242 1042.5,-261"/>
<text text-anchor="middle" x="977" y="-249" font-family="Helvetica,sans-Serif" font-size="10.00">core/DirektBaseEditor.h</text>
</a>
</g>
</g>
<!-- Node2 -->
<g id="Node000002" class="node">
<title>Node2</title>
<g id="a_Node000002"><a xlink:title=" ">
<polygon fill="#e0e0e0" stroke="#999999" points="1495.5,-96 1356.5,-96 1356.5,-66 1495.5,-66 1495.5,-96"/>
<text text-anchor="start" x="1364.5" y="-84" font-family="Helvetica,sans-Serif" font-size="10.00">juce_audio_processors</text>
<text text-anchor="middle" x="1426" y="-73" font-family="Helvetica,sans-Serif" font-size="10.00">/juce_audio_processors.h</text>
</a>
</g>
</g>
<!-- Node1&#45;&gt;Node2 -->
<g id="edge1_Node000001_Node000002" class="edge">
<title>Node1&#45;&gt;Node2</title>
<g id="a_edge1_Node000001_Node000002"><a xlink:title=" ">
<path fill="none" stroke="#63b8ff" d="M993.61,-241.93C1034.69,-220.98 1144.72,-166.38 1241,-132 1277.79,-118.86 1319.75,-107.26 1354.39,-98.55"/>
<polygon fill="#63b8ff" stroke="#63b8ff" points="1355.57,-101.86 1364.43,-96.05 1353.88,-95.07 1355.57,-101.86"/>
</a>
</g>
</g>
<!-- Node3 -->
<g id="Node000003" class="node">
<title>Node3</title>
<g id="a_Node000003"><a xlink:title=" ">
<polygon fill="#e0e0e0" stroke="#999999" points="1059,-30 943,-30 943,0 1059,0 1059,-30"/>
<text text-anchor="start" x="951" y="-18" font-family="Helvetica,sans-Serif" font-size="10.00">juce_gui_basics/juce</text>
<text text-anchor="middle" x="1001" y="-7" font-family="Helvetica,sans-Serif" font-size="10.00">_gui_basics.h</text>
</a>
</g>
</g>
<!-- Node1&#45;&gt;Node3 -->
<g id="edge2_Node000001_Node000003" class="edge">
<title>Node1&#45;&gt;Node3</title>
<g id="a_edge2_Node000001_Node000003"><a xlink:title=" ">
<path fill="none" stroke="#63b8ff" d="M977.88,-241.88C981.23,-209.16 993.23,-91.96 998.49,-40.51"/>
<polygon fill="#63b8ff" stroke="#63b8ff" points="1002,-40.61 999.54,-30.31 995.04,-39.9 1002,-40.61"/>
</a>
</g>
</g>
<!-- Node4 -->
<g id="Node000004" class="node">
<title>Node4</title>
<g id="a_Node000004"><a xlink:href="DirektFooter_8h.html" target="_top" xlink:title=" ">
<polygon fill="white" stroke="#666666" points="641.5,-151 516.5,-151 516.5,-132 641.5,-132 641.5,-151"/>
<text text-anchor="middle" x="579" y="-139" font-family="Helvetica,sans-Serif" font-size="10.00">chrome/DirektFooter.h</text>
</a>
</g>
</g>
<!-- Node1&#45;&gt;Node4 -->
<g id="edge3_Node000001_Node000004" class="edge">
<title>Node1&#45;&gt;Node4</title>
<g id="a_edge3_Node000001_Node000004"><a xlink:title=" ">
<path fill="none" stroke="#63b8ff" d="M945.44,-241.94C874.03,-222.56 700.1,-175.36 620.28,-153.7"/>
<polygon fill="#63b8ff" stroke="#63b8ff" points="621.13,-150.31 610.57,-151.07 619.3,-157.06 621.13,-150.31"/>
</a>
</g>
</g>
<!-- Node5 -->
<g id="Node000005" class="node">
<title>Node5</title>
<g id="a_Node000005"><a xlink:href="DirektColours_8h.html" target="_top" xlink:title=" ">
<polygon fill="white" stroke="#666666" points="642.5,-90.5 515.5,-90.5 515.5,-71.5 642.5,-71.5 642.5,-90.5"/>
<text text-anchor="middle" x="579" y="-78.5" font-family="Helvetica,sans-Serif" font-size="10.00">theme/DirektColours.h</text>
</a>
</g>
</g>
<!-- Node1&#45;&gt;Node5 -->
<g id="edge58_Node000001_Node000005" class="edge">
<title>Node1&#45;&gt;Node5</title>
<g id="a_edge58_Node000001_Node000005"><a xlink:title=" ">
<path fill="none" stroke="#63b8ff" d="M911.11,-246.54C793.89,-237.98 556.75,-213.21 507,-151 489.78,-129.47 521.84,-108.03 548.53,-94.9"/>
<polygon fill="#63b8ff" stroke="#63b8ff" points="550.1,-98.03 557.66,-90.61 547.12,-91.69 550.1,-98.03"/>
</a>
</g>
</g>
<!-- Node6 -->
<g id="Node000006" class="node">
<title>Node6</title>
<g id="a_Node000006"><a xlink:href="DirektHeader_8h.html" target="_top" xlink:title=" ">
<polygon fill="white" stroke="#666666" points="973,-151 843,-151 843,-132 973,-132 973,-151"/>
<text text-anchor="middle" x="908" y="-139" font-family="Helvetica,sans-Serif" font-size="10.00">chrome/DirektHeader.h</text>
</a>
</g>
</g>
<!-- Node1&#45;&gt;Node6 -->
<g id="edge7_Node000001_Node000006" class="edge">
<title>Node1&#45;&gt;Node6</title>
<g id="a_edge7_Node000001_Node000006"><a xlink:title=" ">
<path fill="none" stroke="#63b8ff" d="M971.35,-241.66C959.92,-223.77 933.88,-183 918.98,-159.69"/>
<polygon fill="#63b8ff" stroke="#63b8ff" points="921.87,-157.7 913.53,-151.16 915.97,-161.47 921.87,-157.7"/>
</a>
</g>
</g>
<!-- Node8 -->
<g id="Node000008" class="node">
<title>Node8</title>
<g id="a_Node000008"><a xlink:href="DirektPopupPanel_8h.html" target="_top" xlink:title=" ">
<polygon fill="white" stroke="#666666" points="152,-151 0,-151 0,-132 152,-132 152,-151"/>
<text text-anchor="middle" x="76" y="-139" font-family="Helvetica,sans-Serif" font-size="10.00">chrome/DirektPopupPanel.h</text>
</a>
</g>
</g>
<!-- Node1&#45;&gt;Node8 -->
<g id="edge12_Node000001_Node000008" class="edge">
<title>Node1&#45;&gt;Node8</title>
<g id="a_edge12_Node000001_Node000008"><a xlink:title=" ">
<path fill="none" stroke="#63b8ff" d="M911.14,-249C797.65,-245.69 558.12,-235.55 358,-206 271.25,-193.19 171.54,-168.28 116.98,-153.76"/>
<polygon fill="#63b8ff" stroke="#63b8ff" points="117.58,-150.3 107.01,-151.09 115.76,-157.06 117.58,-150.3"/>
</a>
</g>
</g>
<!-- Node9 -->
<g id="Node000009" class="node">
<title>Node9</title>
<g id="a_Node000009"><a xlink:href="DirektPresetBrowser_8h.html" target="_top" xlink:title=" ">
<polygon fill="white" stroke="#666666" points="824.5,-151 659.5,-151 659.5,-132 824.5,-132 824.5,-151"/>
<text text-anchor="middle" x="742" y="-139" font-family="Helvetica,sans-Serif" font-size="10.00">chrome/DirektPresetBrowser.h</text>
</a>
</g>
</g>
<!-- Node1&#45;&gt;Node9 -->
<g id="edge15_Node000001_Node000009" class="edge">
<title>Node1&#45;&gt;Node9</title>
<g id="a_edge15_Node000001_Node000009"><a xlink:title=" ">
<path fill="none" stroke="#63b8ff" d="M958.17,-241.84C916.9,-222.88 818.33,-177.58 769.86,-155.31"/>
<polygon fill="#63b8ff" stroke="#63b8ff" points="771.15,-152.04 760.6,-151.05 768.22,-158.4 771.15,-152.04"/>
</a>
</g>
</g>
<!-- Node10 -->
<g id="Node000010" class="node">
<title>Node10</title>
<g id="a_Node000010"><a xlink:href="DirektConfig_8h.html" target="_top" xlink:title=" ">
<polygon fill="white" stroke="#666666" points="289.5,-151 170.5,-151 170.5,-132 289.5,-132 289.5,-151"/>
<text text-anchor="middle" x="230" y="-139" font-family="Helvetica,sans-Serif" font-size="10.00">config/DirektConfig.h</text>
</a>
</g>
</g>
<!-- Node1&#45;&gt;Node10 -->
<g id="edge19_Node000001_Node000010" class="edge">
<title>Node1&#45;&gt;Node10</title>
<g id="a_edge19_Node000001_Node000010"><a xlink:title=" ">
<path fill="none" stroke="#63b8ff" d="M911.42,-249.68C809.03,-247.37 605.34,-238.66 436,-206 372.82,-193.81 301.59,-169.35 261.62,-154.6"/>
<polygon fill="#63b8ff" stroke="#63b8ff" points="262.74,-151.29 252.15,-151.08 260.3,-157.85 262.74,-151.29"/>
</a>
</g>
</g>
<!-- Node11 -->
<g id="Node000011" class="node">
<title>Node11</title>
<g id="a_Node000011"><a xlink:href="DirektDescriptors_8h.html" target="_top" xlink:title=" ">
<polygon fill="white" stroke="#666666" points="2202.5,-151 2059.5,-151 2059.5,-132 2202.5,-132 2202.5,-151"/>
<text text-anchor="middle" x="2131" y="-139" font-family="Helvetica,sans-Serif" font-size="10.00">config/DirektDescriptors.h</text>
</a>
</g>
</g>
<!-- Node1&#45;&gt;Node11 -->
<g id="edge22_Node000001_Node000011" class="edge">
<title>Node1&#45;&gt;Node11</title>
<g id="a_edge22_Node000001_Node000011"><a xlink:title=" ">
<path fill="none" stroke="#63b8ff" d="M1042.65,-249.54C1274.64,-245.93 2044.39,-232.04 2090,-206 2107.22,-196.17 2118.4,-175.82 2124.67,-160.79"/>
<polygon fill="#63b8ff" stroke="#63b8ff" points="2127.94,-162.02 2128.23,-151.43 2121.4,-159.53 2127.94,-162.02"/>
</a>
</g>
</g>
<!-- Node16 -->
<g id="Node000016" class="node">
<title>Node16</title>
<g id="a_Node000016"><a xlink:href="DirektAutoLayout_8h.html" target="_top" xlink:title=" ">
<polygon fill="white" stroke="#666666" points="1541.5,-206 1406.5,-206 1406.5,-187 1541.5,-187 1541.5,-206"/>
<text text-anchor="middle" x="1474" y="-194" font-family="Helvetica,sans-Serif" font-size="10.00">core/DirektAutoLayout.h</text>
</a>
</g>
</g>
<!-- Node1&#45;&gt;Node16 -->
<g id="edge28_Node000001_Node000016" class="edge">
<title>Node1&#45;&gt;Node16</title>
<g id="a_edge28_Node000001_Node000016"><a xlink:title=" ">
<path fill="none" stroke="#63b8ff" d="M1042.74,-243.49C1134.09,-233.75 1299.11,-216.15 1396.39,-205.78"/>
<polygon fill="#63b8ff" stroke="#63b8ff" points="1396.88,-209.24 1406.46,-204.7 1396.14,-202.28 1396.88,-209.24"/>
</a>
</g>
</g>
<!-- Node20 -->
<g id="Node000020" class="node">
<title>Node20</title>
<g id="a_Node000020"><a xlink:href="DirektSection_8h.html" target="_top" xlink:title=" ">
<polygon fill="white" stroke="#666666" points="1154.5,-151 1029.5,-151 1029.5,-132 1154.5,-132 1154.5,-151"/>
<text text-anchor="middle" x="1092" y="-139" font-family="Helvetica,sans-Serif" font-size="10.00">layout/DirektSection.h</text>
</a>
</g>
</g>
<!-- Node1&#45;&gt;Node20 -->
<g id="edge57_Node000001_Node000020" class="edge">
<title>Node1&#45;&gt;Node20</title>
<g id="a_edge57_Node000001_Node000020"><a xlink:title=" ">
<path fill="none" stroke="#63b8ff" d="M986.41,-241.66C1005.88,-223.38 1050.81,-181.18 1075.32,-158.17"/>
<polygon fill="#63b8ff" stroke="#63b8ff" points="1077.89,-160.56 1082.78,-151.16 1073.09,-155.45 1077.89,-160.56"/>
</a>
</g>
</g>
<!-- Node21 -->
<g id="Node000021" class="node">
<title>Node21</title>
<g id="a_Node000021"><a xlink:href="DirektBuildContext_8h.html" target="_top" xlink:title=" ">
<polygon fill="white" stroke="#666666" points="1964.5,-151 1821.5,-151 1821.5,-132 1964.5,-132 1964.5,-151"/>
<text text-anchor="middle" x="1893" y="-139" font-family="Helvetica,sans-Serif" font-size="10.00">core/DirektBuildContext.h</text>
</a>
</g>
</g>
<!-- Node1&#45;&gt;Node21 -->
<g id="edge44_Node000001_Node000021" class="edge">
<title>Node1&#45;&gt;Node21</title>
<g id="a_edge44_Node000001_Node000021"><a xlink:title=" ">
<path fill="none" stroke="#63b8ff" d="M1042.66,-247.68C1149.54,-242.58 1367.66,-230.06 1551,-206 1656.29,-192.18 1778.29,-167.39 1844.38,-153.21"/>
<polygon fill="#63b8ff" stroke="#63b8ff" points="1845.45,-156.56 1854.49,-151.03 1843.98,-149.72 1845.45,-156.56"/>
</a>
</g>
</g>
<!-- Node23 -->
<g id="Node000023" class="node">
<title>Node23</title>
<g id="a_Node000023"><a xlink:href="DirektComponentRegistry_8h.html" target="_top" xlink:title=" ">
<polygon fill="white" stroke="#666666" points="2080.5,-206 1905.5,-206 1905.5,-187 2080.5,-187 2080.5,-206"/>
<text text-anchor="middle" x="1993" y="-194" font-family="Helvetica,sans-Serif" font-size="10.00">core/DirektComponentRegistry.h</text>
</a>
</g>
</g>
<!-- Node1&#45;&gt;Node23 -->
<g id="edge48_Node000001_Node000023" class="edge">
<title>Node1&#45;&gt;Node23</title>
<g id="a_edge48_Node000001_Node000023"><a xlink:title=" ">
<path fill="none" stroke="#63b8ff" d="M1042.88,-247.06C1216.82,-237.99 1689.13,-213.35 1894.94,-202.62"/>
<polygon fill="#63b8ff" stroke="#63b8ff" points="1895.32,-206.1 1905.13,-202.08 1894.96,-199.11 1895.32,-206.1"/>
</a>
</g>
</g>
<!-- Node24 -->
<g id="Node000024" class="node">
<title>Node24</title>
<g id="a_Node000024"><a xlink:href="DirektLookAndFeel_8h.html" target="_top" xlink:title=" ">
<polygon fill="white" stroke="#666666" points="460,-151 308,-151 308,-132 460,-132 460,-151"/>
<text text-anchor="middle" x="384" y="-139" font-family="Helvetica,sans-Serif" font-size="10.00">theme/DirektLookAndFeel.h</text>
</a>
</g>
</g>
<!-- Node1&#45;&gt;Node24 -->
<g id="edge59_Node000001_Node000024" class="edge">
<title>Node1&#45;&gt;Node24</title>
<g id="a_edge59_Node000001_Node000024"><a xlink:title=" ">
<path fill="none" stroke="#63b8ff" d="M911.39,-248.92C793.92,-245.4 552.61,-234.81 474,-206 445.3,-195.48 417.35,-173.34 400.41,-158.19"/>
<polygon fill="#63b8ff" stroke="#63b8ff" points="402.75,-155.59 393.02,-151.4 398.01,-160.75 402.75,-155.59"/>
</a>
</g>
</g>
<!-- Node4&#45;&gt;Node3 -->
<g id="edge4_Node000004_Node000003" class="edge">
<title>Node4&#45;&gt;Node3</title>
<g id="a_edge4_Node000004_Node000003"><a xlink:title=" ">
<path fill="none" stroke="#63b8ff" d="M606.5,-131.94C651.77,-117.9 744.86,-89.21 824,-66 862.63,-54.67 906.13,-42.38 940.34,-32.81"/>
<polygon fill="#63b8ff" stroke="#63b8ff" points="941.5,-36.13 950.19,-30.07 939.61,-29.38 941.5,-36.13"/>
</a>
</g>
</g>
<!-- Node4&#45;&gt;Node5 -->
<g id="edge5_Node000004_Node000005" class="edge">
<title>Node4&#45;&gt;Node5</title>
<g id="a_edge5_Node000004_Node000005"><a xlink:title=" ">
<path fill="none" stroke="#63b8ff" d="M579,-131.87C579,-123.75 579,-111.31 579,-100.89"/>
<polygon fill="#63b8ff" stroke="#63b8ff" points="582.5,-100.67 579,-90.67 575.5,-100.67 582.5,-100.67"/>
</a>
</g>
</g>
<!-- Node5&#45;&gt;Node3 -->
<g id="edge6_Node000005_Node000003" class="edge">
<title>Node5&#45;&gt;Node3</title>
<g id="a_edge6_Node000005_Node000003"><a xlink:title=" ">
<path fill="none" stroke="#63b8ff" d="M635.47,-71.44C712.44,-59.76 850.14,-38.88 932.78,-26.35"/>
<polygon fill="#63b8ff" stroke="#63b8ff" points="933.47,-29.78 942.83,-24.82 932.42,-22.86 933.47,-29.78"/>
</a>
</g>
</g>
<!-- Node6&#45;&gt;Node2 -->
<g id="edge8_Node000006_Node000002" class="edge">
<title>Node6&#45;&gt;Node2</title>
<g id="a_edge8_Node000006_Node000002"><a xlink:title=" ">
<path fill="none" stroke="#63b8ff" d="M973.08,-133.15C1067.88,-122.44 1243.79,-102.58 1346.25,-91.01"/>
<polygon fill="#63b8ff" stroke="#63b8ff" points="1346.69,-94.48 1356.23,-89.88 1345.9,-87.52 1346.69,-94.48"/>
</a>
</g>
</g>
<!-- Node6&#45;&gt;Node3 -->
<g id="edge9_Node000006_Node000003" class="edge">
<title>Node6&#45;&gt;Node3</title>
<g id="a_edge9_Node000006_Node000003"><a xlink:title=" ">
<path fill="none" stroke="#63b8ff" d="M903.69,-131.92C896.97,-117.22 886.04,-86.78 899,-66 907.77,-51.93 921.78,-41.71 936.64,-34.33"/>
<polygon fill="#63b8ff" stroke="#63b8ff" points="938.31,-37.42 945.96,-30.09 935.41,-31.04 938.31,-37.42"/>
</a>
</g>
</g>
<!-- Node6&#45;&gt;Node5 -->
<g id="edge11_Node000006_Node000005" class="edge">
<title>Node6&#45;&gt;Node5</title>
<g id="a_edge11_Node000006_Node000005"><a xlink:title=" ">
<path fill="none" stroke="#63b8ff" d="M860.16,-131.99C800.95,-121.47 700.2,-103.55 636.75,-92.27"/>
<polygon fill="#63b8ff" stroke="#63b8ff" points="637.36,-88.82 626.9,-90.52 636.13,-95.71 637.36,-88.82"/>
</a>
</g>
</g>
<!-- Node7 -->
<g id="Node000007" class="node">
<title>Node7</title>
<g id="a_Node000007"><a xlink:title=" ">
<polygon fill="#e0e0e0" stroke="#999999" points="972.5,-90.5 907.5,-90.5 907.5,-71.5 972.5,-71.5 972.5,-90.5"/>
<text text-anchor="middle" x="940" y="-78.5" font-family="Helvetica,sans-Serif" font-size="10.00">functional</text>
</a>
</g>
</g>
<!-- Node6&#45;&gt;Node7 -->
<g id="edge10_Node000006_Node000007" class="edge">
<title>Node6&#45;&gt;Node7</title>
<g id="a_edge10_Node000006_Node000007"><a xlink:title=" ">
<path fill="none" stroke="#63b8ff" d="M912.72,-131.87C917.35,-123.4 924.55,-110.24 930.39,-99.57"/>
<polygon fill="#63b8ff" stroke="#63b8ff" points="933.53,-101.12 935.26,-90.67 927.39,-97.76 933.53,-101.12"/>
</a>
</g>
</g>
<!-- Node8&#45;&gt;Node3 -->
<g id="edge13_Node000008_Node000003" class="edge">
<title>Node8&#45;&gt;Node3</title>
<g id="a_edge13_Node000008_Node000003"><a xlink:title=" ">
<path fill="none" stroke="#63b8ff" d="M99.91,-131.97C145.67,-116.05 249.05,-81.97 339,-66 553.47,-27.92 812.08,-18.82 932.76,-16.66"/>
<polygon fill="#63b8ff" stroke="#63b8ff" points="933.02,-20.15 942.96,-16.49 932.9,-13.15 933.02,-20.15"/>
</a>
</g>
</g>
<!-- Node8&#45;&gt;Node5 -->
<g id="edge14_Node000008_Node000005" class="edge">
<title>Node8&#45;&gt;Node5</title>
<g id="a_edge14_Node000008_Node000005"><a xlink:title=" ">
<path fill="none" stroke="#63b8ff" d="M149.14,-131.99C244.31,-120.93 409.67,-101.69 505.18,-90.59"/>
<polygon fill="#63b8ff" stroke="#63b8ff" points="505.8,-94.04 515.33,-89.4 504.99,-87.08 505.8,-94.04"/>
</a>
</g>
</g>
<!-- Node9&#45;&gt;Node3 -->
<g id="edge16_Node000009_Node000003" class="edge">
<title>Node9&#45;&gt;Node3</title>
<g id="a_edge16_Node000009_Node000003"><a xlink:title=" ">
<path fill="none" stroke="#63b8ff" d="M758.06,-131.94C784.79,-117.77 840.21,-88.75 888,-66 911.01,-55.05 937,-43.49 958.25,-34.25"/>
<polygon fill="#63b8ff" stroke="#63b8ff" points="959.87,-37.37 967.65,-30.18 957.08,-30.94 959.87,-37.37"/>
</a>
</g>
</g>
<!-- Node9&#45;&gt;Node5 -->
<g id="edge18_Node000009_Node000005" class="edge">
<title>Node9&#45;&gt;Node5</title>
<g id="a_edge18_Node000009_Node000005"><a xlink:title=" ">
<path fill="none" stroke="#63b8ff" d="M718.3,-131.99C690.41,-121.99 643.93,-105.3 612.4,-93.99"/>
<polygon fill="#63b8ff" stroke="#63b8ff" points="613.32,-90.6 602.73,-90.52 610.96,-97.19 613.32,-90.6"/>
</a>
</g>
</g>
<!-- Node9&#45;&gt;Node7 -->
<g id="edge17_Node000009_Node000007" class="edge">
<title>Node9&#45;&gt;Node7</title>
<g id="a_edge17_Node000009_Node000007"><a xlink:title=" ">
<path fill="none" stroke="#63b8ff" d="M770.79,-131.99C805.25,-121.81 863.09,-104.72 901.4,-93.4"/>
<polygon fill="#63b8ff" stroke="#63b8ff" points="902.58,-96.71 911.17,-90.52 900.59,-89.99 902.58,-96.71"/>
</a>
</g>
</g>
<!-- Node10&#45;&gt;Node3 -->
<g id="edge20_Node000010_Node000003" class="edge">
<title>Node10&#45;&gt;Node3</title>
<g id="a_edge20_Node000010_Node000003"><a xlink:title=" ">
<path fill="none" stroke="#63b8ff" d="M249.21,-131.96C286,-116.03 369.29,-81.94 443,-66 616.66,-28.46 826.59,-19.03 932.62,-16.72"/>
<polygon fill="#63b8ff" stroke="#63b8ff" points="932.93,-20.21 942.86,-16.51 932.79,-13.21 932.93,-20.21"/>
</a>
</g>
</g>
<!-- Node10&#45;&gt;Node5 -->
<g id="edge21_Node000010_Node000005" class="edge">
<title>Node10&#45;&gt;Node5</title>
<g id="a_edge21_Node000010_Node000005"><a xlink:title=" ">
<path fill="none" stroke="#63b8ff" d="M280.75,-131.99C343.68,-121.44 450.87,-103.48 518.16,-92.2"/>
<polygon fill="#63b8ff" stroke="#63b8ff" points="518.91,-95.62 528.19,-90.52 517.75,-88.72 518.91,-95.62"/>
</a>
</g>
</g>
<!-- Node11&#45;&gt;Node3 -->
<g id="edge23_Node000011_Node000003" class="edge">
<title>Node11&#45;&gt;Node3</title>
<g id="a_edge23_Node000011_Node000003"><a xlink:title=" ">
<path fill="none" stroke="#63b8ff" d="M2124.09,-131.89C2109.42,-113.89 2075.22,-73.34 2059,-66 1969.27,-25.41 1288.84,-17.74 1069.16,-16.32"/>
<polygon fill="#63b8ff" stroke="#63b8ff" points="1069.07,-12.82 1059.05,-16.25 1069.03,-19.82 1069.07,-12.82"/>
</a>
</g>
</g>
<!-- Node12 -->
<g id="Node000012" class="node">
<title>Node12</title>
<g id="a_Node000012"><a xlink:title=" ">
<polygon fill="#e0e0e0" stroke="#999999" points="2050,-90.5 2012,-90.5 2012,-71.5 2050,-71.5 2050,-90.5"/>
<text text-anchor="middle" x="2031" y="-78.5" font-family="Helvetica,sans-Serif" font-size="10.00">map</text>
</a>
</g>
</g>
<!-- Node11&#45;&gt;Node12 -->
<g id="edge24_Node000011_Node000012" class="edge">
<title>Node11&#45;&gt;Node12</title>
<g id="a_edge24_Node000011_Node000012"><a xlink:title=" ">
<path fill="none" stroke="#63b8ff" d="M2116.24,-131.87C2100,-122.36 2073.65,-106.95 2054.54,-95.77"/>
<polygon fill="#63b8ff" stroke="#63b8ff" points="2056.21,-92.7 2045.82,-90.67 2052.68,-98.74 2056.21,-92.7"/>
</a>
</g>
</g>
<!-- Node13 -->
<g id="Node000013" class="node">
<title>Node13</title>
<g id="a_Node000013"><a xlink:title=" ">
<polygon fill="#e0e0e0" stroke="#999999" points="2234,-90.5 2176,-90.5 2176,-71.5 2234,-71.5 2234,-90.5"/>
<text text-anchor="middle" x="2205" y="-78.5" font-family="Helvetica,sans-Serif" font-size="10.00">memory</text>
</a>
</g>
</g>
<!-- Node11&#45;&gt;Node13 -->
<g id="edge25_Node000011_Node000013" class="edge">
<title>Node11&#45;&gt;Node13</title>
<g id="a_edge25_Node000011_Node000013"><a xlink:title=" ">
<path fill="none" stroke="#63b8ff" d="M2141.92,-131.87C2153.51,-122.71 2172.03,-108.06 2186.02,-97.01"/>
<polygon fill="#63b8ff" stroke="#63b8ff" points="2188.36,-99.61 2194.04,-90.67 2184.02,-94.12 2188.36,-99.61"/>
</a>
</g>
</g>
<!-- Node14 -->
<g id="Node000014" class="node">
<title>Node14</title>
<g id="a_Node000014"><a xlink:title=" ">
<polygon fill="#e0e0e0" stroke="#999999" points="2157.5,-90.5 2106.5,-90.5 2106.5,-71.5 2157.5,-71.5 2157.5,-90.5"/>
<text text-anchor="middle" x="2132" y="-78.5" font-family="Helvetica,sans-Serif" font-size="10.00">variant</text>
</a>
</g>
</g>
<!-- Node11&#45;&gt;Node14 -->
<g id="edge26_Node000011_Node000014" class="edge">
<title>Node11&#45;&gt;Node14</title>
<g id="a_edge26_Node000011_Node000014"><a xlink:title=" ">
<path fill="none" stroke="#63b8ff" d="M2131.15,-131.87C2131.29,-123.75 2131.5,-111.31 2131.68,-100.89"/>
<polygon fill="#63b8ff" stroke="#63b8ff" points="2135.18,-100.73 2131.85,-90.67 2128.18,-100.61 2135.18,-100.73"/>
</a>
</g>
</g>
<!-- Node15 -->
<g id="Node000015" class="node">
<title>Node15</title>
<g id="a_Node000015"><a xlink:title=" ">
<polygon fill="#e0e0e0" stroke="#999999" points="2299.5,-90.5 2252.5,-90.5 2252.5,-71.5 2299.5,-71.5 2299.5,-90.5"/>
<text text-anchor="middle" x="2276" y="-78.5" font-family="Helvetica,sans-Serif" font-size="10.00">vector</text>
</a>
</g>
</g>
<!-- Node11&#45;&gt;Node15 -->
<g id="edge27_Node000011_Node000015" class="edge">
<title>Node11&#45;&gt;Node15</title>
<g id="a_edge27_Node000011_Node000015"><a xlink:title=" ">
<path fill="none" stroke="#63b8ff" d="M2152.95,-131.95C2175.57,-123.1 2211.84,-108.8 2243,-96 2244.2,-95.51 2245.42,-95 2246.65,-94.49"/>
<polygon fill="#63b8ff" stroke="#63b8ff" points="2248.27,-97.61 2256.14,-90.51 2245.56,-91.15 2248.27,-97.61"/>
</a>
</g>
</g>
<!-- Node16&#45;&gt;Node2 -->
<g id="edge29_Node000016_Node000002" class="edge">
<title>Node16&#45;&gt;Node2</title>
<g id="a_edge29_Node000016_Node000002"><a xlink:title=" ">
<path fill="none" stroke="#63b8ff" d="M1468.23,-186.94C1462.52,-178.19 1453.82,-164.08 1448,-151 1441.55,-136.5 1436.11,-119.52 1432.25,-106.03"/>
<polygon fill="#63b8ff" stroke="#63b8ff" points="1435.54,-104.79 1429.51,-96.08 1428.79,-106.65 1435.54,-104.79"/>
</a>
</g>
</g>
<!-- Node16&#45;&gt;Node3 -->
<g id="edge30_Node000016_Node000003" class="edge">
<title>Node16&#45;&gt;Node3</title>
<g id="a_edge30_Node000016_Node000003"><a xlink:title=" ">
<path fill="none" stroke="#63b8ff" d="M1538.78,-186.96C1625.82,-175.33 1770.16,-155.45 1774,-151 1779.52,-144.61 1778.91,-138.87 1774,-132 1721.28,-58.25 1669.71,-84.7 1581,-66 1398.97,-27.63 1178.87,-18.59 1069.54,-16.54"/>
<polygon fill="#63b8ff" stroke="#63b8ff" points="1069.37,-13.03 1059.31,-16.36 1069.25,-20.03 1069.37,-13.03"/>
</a>
</g>
</g>
<!-- Node16&#45;&gt;Node11 -->
<g id="edge31_Node000016_Node000011" class="edge">
<title>Node16&#45;&gt;Node11</title>
<g id="a_edge31_Node000016_Node000011"><a xlink:title=" ">
<path fill="none" stroke="#63b8ff" d="M1541.53,-190.05C1663.12,-180.24 1918.4,-159.65 2049.49,-149.08"/>
<polygon fill="#63b8ff" stroke="#63b8ff" points="2049.79,-152.56 2059.48,-148.27 2049.23,-145.58 2049.79,-152.56"/>
</a>
</g>
</g>
<!-- Node17 -->
<g id="Node000017" class="node">
<title>Node17</title>
<g id="a_Node000017"><a xlink:href="DirektComboBox_8h.html" target="_top" xlink:title=" ">
<polygon fill="white" stroke="#666666" points="1400.5,-151 1249.5,-151 1249.5,-132 1400.5,-132 1400.5,-151"/>
<text text-anchor="middle" x="1325" y="-139" font-family="Helvetica,sans-Serif" font-size="10.00">controls/DirektComboBox.h</text>
</a>
</g>
</g>
<!-- Node16&#45;&gt;Node17 -->
<g id="edge32_Node000016_Node000017" class="edge">
<title>Node16&#45;&gt;Node17</title>
<g id="a_edge32_Node000016_Node000017"><a xlink:title=" ">
<path fill="none" stroke="#63b8ff" d="M1450.06,-186.98C1425.44,-178.23 1386.88,-164.51 1359.08,-154.62"/>
<polygon fill="#63b8ff" stroke="#63b8ff" points="1359.97,-151.22 1349.38,-151.17 1357.62,-157.82 1359.97,-151.22"/>
</a>
</g>
</g>
<!-- Node18 -->
<g id="Node000018" class="node">
<title>Node18</title>
<g id="a_Node000018"><a xlink:href="DirektKnob_8h.html" target="_top" xlink:title=" ">
<polygon fill="white" stroke="#666666" points="1579,-151 1457,-151 1457,-132 1579,-132 1579,-151"/>
<text text-anchor="middle" x="1518" y="-139" font-family="Helvetica,sans-Serif" font-size="10.00">controls/DirektKnob.h</text>
</a>
</g>
</g>
<!-- Node16&#45;&gt;Node18 -->
<g id="edge35_Node000016_Node000018" class="edge">
<title>Node16&#45;&gt;Node18</title>
<g id="a_edge35_Node000016_Node000018"><a xlink:title=" ">
<path fill="none" stroke="#63b8ff" d="M1481.27,-186.75C1487.54,-179.18 1496.79,-168.05 1504.43,-158.84"/>
<polygon fill="#63b8ff" stroke="#63b8ff" points="1507.17,-161.02 1510.87,-151.09 1501.79,-156.55 1507.17,-161.02"/>
</a>
</g>
</g>
<!-- Node19 -->
<g id="Node000019" class="node">
<title>Node19</title>
<g id="a_Node000019"><a xlink:href="DirektToggle_8h.html" target="_top" xlink:title=" ">
<polygon fill="white" stroke="#666666" points="1764.5,-151 1635.5,-151 1635.5,-132 1764.5,-132 1764.5,-151"/>
<text text-anchor="middle" x="1700" y="-139" font-family="Helvetica,sans-Serif" font-size="10.00">controls/DirektToggle.h</text>
</a>
</g>
</g>
<!-- Node16&#45;&gt;Node19 -->
<g id="edge38_Node000016_Node000019" class="edge">
<title>Node16&#45;&gt;Node19</title>
<g id="a_edge38_Node000016_Node000019"><a xlink:title=" ">
<path fill="none" stroke="#63b8ff" d="M1510.31,-186.98C1549.24,-177.86 1611.16,-163.33 1653.6,-153.38"/>
<polygon fill="#63b8ff" stroke="#63b8ff" points="1654.47,-156.77 1663.4,-151.08 1652.87,-149.96 1654.47,-156.77"/>
</a>
</g>
</g>
<!-- Node16&#45;&gt;Node20 -->
<g id="edge41_Node000016_Node000020" class="edge">
<title>Node16&#45;&gt;Node20</title>
<g id="a_edge41_Node000016_Node000020"><a xlink:title=" ">
<path fill="none" stroke="#63b8ff" d="M1412.63,-186.98C1344.78,-177.57 1235.63,-162.43 1163.85,-152.47"/>
<polygon fill="#63b8ff" stroke="#63b8ff" points="1163.93,-148.95 1153.54,-151.04 1162.96,-155.88 1163.93,-148.95"/>
</a>
</g>
</g>
<!-- Node17&#45;&gt;Node2 -->
<g id="edge33_Node000017_Node000002" class="edge">
<title>Node17&#45;&gt;Node2</title>
<g id="a_edge33_Node000017_Node000002"><a xlink:title=" ">
<path fill="none" stroke="#63b8ff" d="M1339.9,-131.87C1353.73,-123.86 1374.81,-111.65 1392.65,-101.31"/>
<polygon fill="#63b8ff" stroke="#63b8ff" points="1394.73,-104.16 1401.63,-96.11 1391.22,-98.1 1394.73,-104.16"/>
</a>
</g>
</g>
<!-- Node17&#45;&gt;Node3 -->
<g id="edge34_Node000017_Node000003" class="edge">
<title>Node17&#45;&gt;Node3</title>
<g id="a_edge34_Node000017_Node000003"><a xlink:title=" ">
<path fill="none" stroke="#63b8ff" d="M1302.73,-131.94C1250.23,-111.77 1117.82,-60.89 1047.14,-33.73"/>
<polygon fill="#63b8ff" stroke="#63b8ff" points="1048.18,-30.38 1037.59,-30.06 1045.67,-36.91 1048.18,-30.38"/>
</a>
</g>
</g>
<!-- Node18&#45;&gt;Node2 -->
<g id="edge36_Node000018_Node000002" class="edge">
<title>Node18&#45;&gt;Node2</title>
<g id="a_edge36_Node000018_Node000002"><a xlink:title=" ">
<path fill="none" stroke="#63b8ff" d="M1504.43,-131.87C1491.94,-123.93 1472.98,-111.87 1456.82,-101.6"/>
<polygon fill="#63b8ff" stroke="#63b8ff" points="1458.51,-98.53 1448.2,-96.11 1454.76,-104.43 1458.51,-98.53"/>
</a>
</g>
</g>
<!-- Node18&#45;&gt;Node3 -->
<g id="edge37_Node000018_Node000003" class="edge">
<title>Node18&#45;&gt;Node3</title>
<g id="a_edge37_Node000018_Node000003"><a xlink:title=" ">
<path fill="none" stroke="#63b8ff" d="M1519.47,-131.83C1521.57,-116.14 1523.38,-83.07 1505,-66 1473.71,-36.94 1199.75,-23.2 1069.38,-18.25"/>
<polygon fill="#63b8ff" stroke="#63b8ff" points="1069.24,-14.74 1059.12,-17.87 1068.98,-21.74 1069.24,-14.74"/>
</a>
</g>
</g>
<!-- Node19&#45;&gt;Node2 -->
<g id="edge39_Node000019_Node000002" class="edge">
<title>Node19&#45;&gt;Node2</title>
<g id="a_edge39_Node000019_Node000002"><a xlink:title=" ">
<path fill="none" stroke="#63b8ff" d="M1660.16,-131.99C1618.76,-123.16 1552.98,-109.11 1501.67,-98.16"/>
<polygon fill="#63b8ff" stroke="#63b8ff" points="1502.12,-94.67 1491.61,-96.01 1500.66,-101.52 1502.12,-94.67"/>
</a>
</g>
</g>
<!-- Node19&#45;&gt;Node3 -->
<g id="edge40_Node000019_Node000003" class="edge">
<title>Node19&#45;&gt;Node3</title>
<g id="a_edge40_Node000019_Node000003"><a xlink:title=" ">
<path fill="none" stroke="#63b8ff" d="M1684.28,-131.78C1654.44,-115.7 1587.14,-81.59 1526,-66 1365.82,-25.14 1170.44,-17.05 1069.19,-15.82"/>
<polygon fill="#63b8ff" stroke="#63b8ff" points="1069.13,-12.32 1059.1,-15.72 1069.06,-19.32 1069.13,-12.32"/>
</a>
</g>
</g>
<!-- Node20&#45;&gt;Node3 -->
<g id="edge42_Node000020_Node000003" class="edge">
<title>Node20&#45;&gt;Node3</title>
<g id="a_edge42_Node000020_Node000003"><a xlink:title=" ">
<path fill="none" stroke="#63b8ff" d="M1085.75,-131.94C1071.83,-112.91 1037.94,-66.53 1017.48,-38.54"/>
<polygon fill="#63b8ff" stroke="#63b8ff" points="1020.08,-36.17 1011.35,-30.16 1014.43,-40.3 1020.08,-36.17"/>
</a>
</g>
</g>
<!-- Node20&#45;&gt;Node5 -->
<g id="edge43_Node000020_Node000005" class="edge">
<title>Node20&#45;&gt;Node5</title>
<g id="a_edge43_Node000020_Node000005"><a xlink:title=" ">
<path fill="none" stroke="#63b8ff" d="M1029.35,-133.36C934.39,-122.53 754.35,-102 653.05,-90.44"/>
<polygon fill="#63b8ff" stroke="#63b8ff" points="653.23,-86.94 642.89,-89.29 652.43,-93.9 653.23,-86.94"/>
</a>
</g>
</g>
<!-- Node21&#45;&gt;Node2 -->
<g id="edge45_Node000021_Node000002" class="edge">
<title>Node21&#45;&gt;Node2</title>
<g id="a_edge45_Node000021_Node000002"><a xlink:title=" ">
<path fill="none" stroke="#63b8ff" d="M1825.09,-131.99C1740.33,-121.38 1595.57,-103.24 1505.66,-91.98"/>
<polygon fill="#63b8ff" stroke="#63b8ff" points="1505.87,-88.48 1495.51,-90.71 1505,-95.42 1505.87,-88.48"/>
</a>
</g>
</g>
<!-- Node21&#45;&gt;Node12 -->
<g id="edge47_Node000021_Node000012" class="edge">
<title>Node21&#45;&gt;Node12</title>
<g id="a_edge47_Node000021_Node000012"><a xlink:title=" ">
<path fill="none" stroke="#63b8ff" d="M1913.07,-131.99C1936.63,-122 1975.9,-105.36 2002.59,-94.04"/>
<polygon fill="#63b8ff" stroke="#63b8ff" points="2003.96,-97.26 2011.8,-90.14 2001.23,-90.82 2003.96,-97.26"/>
</a>
</g>
</g>
<!-- Node22 -->
<g id="Node000022" class="node">
<title>Node22</title>
<g id="a_Node000022"><a xlink:title=" ">
<polygon fill="#e0e0e0" stroke="#999999" points="1918,-90.5 1868,-90.5 1868,-71.5 1918,-71.5 1918,-90.5"/>
<text text-anchor="middle" x="1893" y="-78.5" font-family="Helvetica,sans-Serif" font-size="10.00">atomic</text>
</a>
</g>
</g>
<!-- Node21&#45;&gt;Node22 -->
<g id="edge46_Node000021_Node000022" class="edge">
<title>Node21&#45;&gt;Node22</title>
<g id="a_edge46_Node000021_Node000022"><a xlink:title=" ">
<path fill="none" stroke="#63b8ff" d="M1893,-131.87C1893,-123.75 1893,-111.31 1893,-100.89"/>
<polygon fill="#63b8ff" stroke="#63b8ff" points="1896.5,-100.67 1893,-90.67 1889.5,-100.67 1896.5,-100.67"/>
</a>
</g>
</g>
<!-- Node23&#45;&gt;Node2 -->
<g id="edge49_Node000023_Node000002" class="edge">
<title>Node23&#45;&gt;Node2</title>
<g id="a_edge49_Node000023_Node000002"><a xlink:title=" ">
<path fill="none" stroke="#63b8ff" d="M1905.2,-192.98C1830.01,-188.9 1719.54,-178.33 1627,-151 1608.51,-145.54 1605.93,-139.09 1588,-132 1555.77,-119.26 1518.91,-107.66 1488.5,-98.85"/>
<polygon fill="#63b8ff" stroke="#63b8ff" points="1489.45,-95.48 1478.87,-96.09 1487.52,-102.21 1489.45,-95.48"/>
</a>
</g>
</g>
<!-- Node23&#45;&gt;Node3 -->
<g id="edge50_Node000023_Node000003" class="edge">
<title>Node23&#45;&gt;Node3</title>
<g id="a_edge50_Node000023_Node000003"><a xlink:title=" ">
<path fill="none" stroke="#63b8ff" d="M1991.87,-186.93C1988.1,-162.32 1973.43,-91.54 1927,-66 1852.52,-25.02 1270.66,-17.63 1069.3,-16.29"/>
<polygon fill="#63b8ff" stroke="#63b8ff" points="1069.17,-12.79 1059.15,-16.23 1069.12,-19.79 1069.17,-12.79"/>
</a>
</g>
</g>
<!-- Node23&#45;&gt;Node7 -->
<g id="edge51_Node000023_Node000007" class="edge">
<title>Node23&#45;&gt;Node7</title>
<g id="a_edge51_Node000023_Node000007"><a xlink:title=" ">
<path fill="none" stroke="#63b8ff" d="M1905.33,-195.49C1764.47,-194.31 1479.41,-187.16 1241,-151 1206.15,-145.71 1198.31,-140.06 1164,-132 1101.02,-117.2 1027.83,-101.06 982.71,-91.24"/>
<polygon fill="#63b8ff" stroke="#63b8ff" points="983.21,-87.76 972.7,-89.06 981.73,-94.6 983.21,-87.76"/>
</a>
</g>
</g>
<!-- Node23&#45;&gt;Node11 -->
<g id="edge55_Node000023_Node000011" class="edge">
<title>Node23&#45;&gt;Node11</title>
<g id="a_edge55_Node000023_Node000011"><a xlink:title=" ">
<path fill="none" stroke="#63b8ff" d="M2015.17,-186.98C2037.77,-178.3 2073.06,-164.75 2098.75,-154.88"/>
<polygon fill="#63b8ff" stroke="#63b8ff" points="2100.34,-158.02 2108.42,-151.17 2097.83,-151.49 2100.34,-158.02"/>
</a>
</g>
</g>
<!-- Node23&#45;&gt;Node12 -->
<g id="edge52_Node000023_Node000012" class="edge">
<title>Node23&#45;&gt;Node12</title>
<g id="a_edge52_Node000023_Node000012"><a xlink:title=" ">
<path fill="none" stroke="#63b8ff" d="M1995.86,-186.97C2001.99,-168.65 2016.54,-125.18 2024.87,-100.31"/>
<polygon fill="#63b8ff" stroke="#63b8ff" points="2028.25,-101.22 2028.11,-90.63 2021.62,-99 2028.25,-101.22"/>
</a>
</g>
</g>
<!-- Node23&#45;&gt;Node13 -->
<g id="edge53_Node000023_Node000013" class="edge">
<title>Node23&#45;&gt;Node13</title>
<g id="a_edge53_Node000023_Node000013"><a xlink:title=" ">
<path fill="none" stroke="#63b8ff" d="M2080.66,-188.87C2134.09,-182.79 2195.24,-171.5 2212,-151 2223.51,-136.91 2218.99,-115.41 2213.36,-100.16"/>
<polygon fill="#63b8ff" stroke="#63b8ff" points="2216.53,-98.66 2209.46,-90.77 2210.06,-101.34 2216.53,-98.66"/>
</a>
</g>
</g>
<!-- Node23&#45;&gt;Node15 -->
<g id="edge54_Node000023_Node000015" class="edge">
<title>Node23&#45;&gt;Node15</title>
<g id="a_edge54_Node000023_Node000015"><a xlink:title=" ">
<path fill="none" stroke="#63b8ff" d="M2073.37,-186.99C2131.35,-179.63 2203.71,-167.56 2229,-151 2247.7,-138.76 2260.93,-116.22 2268.49,-100.24"/>
<polygon fill="#63b8ff" stroke="#63b8ff" points="2271.79,-101.42 2272.64,-90.86 2265.39,-98.59 2271.79,-101.42"/>
</a>
</g>
</g>
<!-- Node23&#45;&gt;Node21 -->
<g id="edge56_Node000023_Node000021" class="edge">
<title>Node23&#45;&gt;Node21</title>
<g id="a_edge56_Node000023_Node000021"><a xlink:title=" ">
<path fill="none" stroke="#63b8ff" d="M1976.93,-186.98C1961.14,-178.61 1936.78,-165.7 1918.37,-155.95"/>
<polygon fill="#63b8ff" stroke="#63b8ff" points="1919.83,-152.76 1909.36,-151.17 1916.56,-158.95 1919.83,-152.76"/>
</a>
</g>
</g>
<!-- Node24&#45;&gt;Node3 -->
<g id="edge60_Node000024_Node000003" class="edge">
<title>Node24&#45;&gt;Node3</title>
<g id="a_edge60_Node000024_Node000003"><a xlink:title=" ">
<path fill="none" stroke="#63b8ff" d="M394.28,-131.96C414.31,-115.86 460.6,-81.27 506,-66 583.28,-40.01 815.81,-25.16 932.56,-19.15"/>
<polygon fill="#63b8ff" stroke="#63b8ff" points="933,-22.64 942.81,-18.63 932.64,-15.65 933,-22.64"/>
</a>
</g>
</g>
<!-- Node24&#45;&gt;Node5 -->
<g id="edge61_Node000024_Node000005" class="edge">
<title>Node24&#45;&gt;Node5</title>
<g id="a_edge61_Node000024_Node000005"><a xlink:title=" ">
<path fill="none" stroke="#63b8ff" d="M412.35,-131.99C446.29,-121.81 503.26,-104.72 540.99,-93.4"/>
<polygon fill="#63b8ff" stroke="#63b8ff" points="542.04,-96.74 550.61,-90.52 540.03,-90.04 542.04,-96.74"/>
</a>
</g>
</g>
</g>
</svg>
