<?xml version="1.0" encoding="UTF-8" standalone="no"?>
<!DOCTYPE svg PUBLIC "-//W3C//DTD SVG 1.1//EN"
 "http://www.w3.org/Graphics/SVG/1.1/DTD/svg11.dtd">
<!-- Generated by graphviz version 2.43.0 (0)
 -->
<!-- Title: theme/DirektColours.h Pages: 1 -->
<svg width="3139pt" height="324pt"
 viewBox="0.00 0.00 3138.82 324.00" xmlns="http://www.w3.org/2000/svg" xmlns:xlink="http://www.w3.org/1999/xlink">
<g id="graph0" class="graph" transform="scale(1 1) rotate(0) translate(4 320)">
<title>theme/DirektColours.h</title>
<!-- Node1 -->
<g id="Node000001" class="node">
<title>Node1</title>
<g id="a_Node000001"><a xlink:title=" ">
<polygon fill="#999999" stroke="#666666" points="1553.32,-316 1426.32,-316 1426.32,-297 1553.32,-297 1553.32,-316"/>
<text text-anchor="middle" x="1489.82" y="-304" font-family="Helvetica,sans-Serif" font-size="10.00">theme/DirektColours.h</text>
</a>
</g>
</g>
<!-- Node2 -->
<g id="Node000002" class="node">
<title>Node2</title>
<g id="a_Node000002"><a xlink:href="DirektDSP_8h.html" target="_top" xlink:title=" ">
<polygon fill="white" stroke="#666666" points="1064.82,-85 990.82,-85 990.82,-66 1064.82,-66 1064.82,-85"/>
<text text-anchor="middle" x="1027.82" y="-73" font-family="Helvetica,sans-Serif" font-size="10.00">DirektDSP.h</text>
</a>
</g>
</g>
<!-- Node1&#45;&gt;Node2 -->
<g id="edge1_Node000001_Node000002" class="edge">
<title>Node1&#45;&gt;Node2</title>
<g id="a_edge1_Node000001_Node000002"><a xlink:title=" ">
<path fill="none" stroke="#63b8ff" d="M1415.9,-304.73C1194.51,-302.09 539.1,-291.81 327.82,-261 175.72,-238.82 69.53,-278.96 3.82,-140 0.21,-132.37 -2.02,-127.1 3.82,-121 38.61,-84.67 810.89,-77.8 990.66,-76.69"/>
<polygon fill="#63b8ff" stroke="#63b8ff" points="1416.07,-308.23 1426.11,-304.85 1416.15,-301.23 1416.07,-308.23"/>
</a>
</g>
</g>
<!-- Node4 -->
<g id="Node000004" class="node">
<title>Node4</title>
<g id="a_Node000004"><a xlink:href="DirektFooter_8h.html" target="_top" xlink:title=" ">
<polygon fill="white" stroke="#666666" points="205.32,-195 80.32,-195 80.32,-176 205.32,-176 205.32,-195"/>
<text text-anchor="middle" x="142.82" y="-183" font-family="Helvetica,sans-Serif" font-size="10.00">chrome/DirektFooter.h</text>
</a>
</g>
</g>
<!-- Node1&#45;&gt;Node4 -->
<g id="edge3_Node000001_Node000004" class="edge">
<title>Node1&#45;&gt;Node4</title>
<g id="a_edge3_Node000001_Node000004"><a xlink:title=" ">
<path fill="none" stroke="#63b8ff" d="M1416.08,-306.22C1251.16,-306.96 840.28,-303.89 499.82,-261 378.58,-245.73 237.24,-211.14 175.02,-195.04"/>
<polygon fill="#63b8ff" stroke="#63b8ff" points="1416.13,-309.72 1426.11,-306.17 1416.09,-302.72 1416.13,-309.72"/>
</a>
</g>
</g>
<!-- Node6 -->
<g id="Node000006" class="node">
<title>Node6</title>
<g id="a_Node000006"><a xlink:href="DirektBaseEditor_8h.html" target="_top" xlink:title=" ">
<polygon fill="white" stroke="#666666" points="961.32,-140 830.32,-140 830.32,-121 961.32,-121 961.32,-140"/>
<text text-anchor="middle" x="895.82" y="-128" font-family="Helvetica,sans-Serif" font-size="10.00">core/DirektBaseEditor.h</text>
</a>
</g>
</g>
<!-- Node1&#45;&gt;Node6 -->
<g id="edge27_Node000001_Node000006" class="edge">
<title>Node1&#45;&gt;Node6</title>
<g id="a_edge27_Node000001_Node000006"><a xlink:title=" ">
<path fill="none" stroke="#63b8ff" d="M1416.12,-300.82C1278.52,-290.58 990,-261.57 918.82,-195 903.07,-180.26 898.08,-153.91 896.52,-140.25"/>
<polygon fill="#63b8ff" stroke="#63b8ff" points="1415.94,-304.31 1426.16,-301.55 1416.45,-297.33 1415.94,-304.31"/>
</a>
</g>
</g>
<!-- Node8 -->
<g id="Node000008" class="node">
<title>Node8</title>
<g id="a_Node000008"><a xlink:href="DirektHeader_8h.html" target="_top" xlink:title=" ">
<polygon fill="white" stroke="#666666" points="378.82,-195 248.82,-195 248.82,-176 378.82,-176 378.82,-195"/>
<text text-anchor="middle" x="313.82" y="-183" font-family="Helvetica,sans-Serif" font-size="10.00">chrome/DirektHeader.h</text>
</a>
</g>
</g>
<!-- Node1&#45;&gt;Node8 -->
<g id="edge9_Node000001_Node000008" class="edge">
<title>Node1&#45;&gt;Node8</title>
<g id="a_edge9_Node000001_Node000008"><a xlink:title=" ">
<path fill="none" stroke="#63b8ff" d="M1416.21,-305.19C1272.62,-303.76 945.36,-296.5 672.82,-261 551.31,-245.17 409.55,-211.02 346.7,-195.06"/>
<polygon fill="#63b8ff" stroke="#63b8ff" points="1416.19,-308.69 1426.22,-305.28 1416.26,-301.69 1416.19,-308.69"/>
</a>
</g>
</g>
<!-- Node10 -->
<g id="Node000010" class="node">
<title>Node10</title>
<g id="a_Node000010"><a xlink:href="DirektPopupPanel_8h.html" target="_top" xlink:title=" ">
<polygon fill="white" stroke="#666666" points="597.82,-195 445.82,-195 445.82,-176 597.82,-176 597.82,-195"/>
<text text-anchor="middle" x="521.82" y="-183" font-family="Helvetica,sans-Serif" font-size="10.00">chrome/DirektPopupPanel.h</text>
</a>
</g>
</g>
<!-- Node1&#45;&gt;Node10 -->
<g id="edge13_Node000001_Node000010" class="edge">
<title>Node1&#45;&gt;Node10</title>
<g id="a_edge13_Node000001_Node000010"><a xlink:title=" ">
<path fill="none" stroke="#63b8ff" d="M1416.03,-305.01C1291.52,-303.21 1032.13,-295.25 815.82,-261 715.71,-245.15 599.92,-211.01 548.64,-195.05"/>
<polygon fill="#63b8ff" stroke="#63b8ff" points="1416.16,-308.51 1426.21,-305.15 1416.26,-301.51 1416.16,-308.51"/>
</a>
</g>
</g>
<!-- Node12 -->
<g id="Node000012" class="node">
<title>Node12</title>
<g id="a_Node000012"><a xlink:href="DirektPresetBrowser_8h.html" target="_top" xlink:title=" ">
<polygon fill="white" stroke="#666666" points="837.32,-195 672.32,-195 672.32,-176 837.32,-176 837.32,-195"/>
<text text-anchor="middle" x="754.82" y="-183" font-family="Helvetica,sans-Serif" font-size="10.00">chrome/DirektPresetBrowser.h</text>
</a>
</g>
</g>
<!-- Node1&#45;&gt;Node12 -->
<g id="edge17_Node000001_Node000012" class="edge">
<title>Node1&#45;&gt;Node12</title>
<g id="a_edge17_Node000001_Node000012"><a xlink:title=" ">
<path fill="none" stroke="#63b8ff" d="M1415.95,-304.23C1276.65,-301.16 980.38,-291.19 882.82,-261 835.42,-246.33 786.74,-211.43 765.65,-195.15"/>
<polygon fill="#63b8ff" stroke="#63b8ff" points="1416.04,-307.74 1426.11,-304.45 1416.19,-300.74 1416.04,-307.74"/>
</a>
</g>
</g>
<!-- Node14 -->
<g id="Node000014" class="node">
<title>Node14</title>
<g id="a_Node000014"><a xlink:href="DirektConfig_8h.html" target="_top" xlink:title=" ">
<polygon fill="white" stroke="#666666" points="1046.32,-195 927.32,-195 927.32,-176 1046.32,-176 1046.32,-195"/>
<text text-anchor="middle" x="986.82" y="-183" font-family="Helvetica,sans-Serif" font-size="10.00">config/DirektConfig.h</text>
</a>
</g>
</g>
<!-- Node1&#45;&gt;Node14 -->
<g id="edge21_Node000001_Node000014" class="edge">
<title>Node1&#45;&gt;Node14</title>
<g id="a_edge21_Node000001_Node000014"><a xlink:title=" ">
<path fill="none" stroke="#63b8ff" d="M1432.99,-295.02C1388.23,-286.54 1324.35,-273.91 1268.82,-261 1176.34,-239.49 1068.06,-209.53 1016.73,-195.03"/>
<polygon fill="#63b8ff" stroke="#63b8ff" points="1432.61,-298.51 1443.08,-296.93 1433.91,-291.63 1432.61,-298.51"/>
</a>
</g>
</g>
<!-- Node15 -->
<g id="Node000015" class="node">
<title>Node15</title>
<g id="a_Node000015"><a xlink:href="DirektComboBox_8cpp.html" target="_top" xlink:title=" ">
<polygon fill="white" stroke="#666666" points="2626.82,-255.5 2464.82,-255.5 2464.82,-236.5 2626.82,-236.5 2626.82,-255.5"/>
<text text-anchor="middle" x="2545.82" y="-243.5" font-family="Helvetica,sans-Serif" font-size="10.00">controls/DirektComboBox.cpp</text>
</a>
</g>
</g>
<!-- Node1&#45;&gt;Node15 -->
<g id="edge24_Node000001_Node000015" class="edge">
<title>Node1&#45;&gt;Node15</title>
<g id="a_edge24_Node000001_Node000015"><a xlink:title=" ">
<path fill="none" stroke="#63b8ff" d="M1563.8,-304.59C1725.22,-302.06 2121,-292.86 2450.82,-261 2464.93,-259.64 2480.14,-257.64 2494.17,-255.57"/>
<polygon fill="#63b8ff" stroke="#63b8ff" points="1563.46,-301.1 1553.51,-304.75 1563.57,-308.1 1563.46,-301.1"/>
</a>
</g>
</g>
<!-- Node16 -->
<g id="Node000016" class="node">
<title>Node16</title>
<g id="a_Node000016"><a xlink:href="DirektKnob_8cpp.html" target="_top" xlink:title=" ">
<polygon fill="white" stroke="#666666" points="2778.82,-255.5 2644.82,-255.5 2644.82,-236.5 2778.82,-236.5 2778.82,-255.5"/>
<text text-anchor="middle" x="2711.82" y="-243.5" font-family="Helvetica,sans-Serif" font-size="10.00">controls/DirektKnob.cpp</text>
</a>
</g>
</g>
<!-- Node1&#45;&gt;Node16 -->
<g id="edge25_Node000001_Node000016" class="edge">
<title>Node1&#45;&gt;Node16</title>
<g id="a_edge25_Node000001_Node000016"><a xlink:title=" ">
<path fill="none" stroke="#63b8ff" d="M1563.79,-304.02C1783,-299.39 2426.9,-284.18 2635.82,-261 2647.42,-259.71 2659.92,-257.68 2671.36,-255.57"/>
<polygon fill="#63b8ff" stroke="#63b8ff" points="1563.6,-300.52 1553.67,-304.23 1563.75,-307.52 1563.6,-300.52"/>
</a>
</g>
</g>
<!-- Node17 -->
<g id="Node000017" class="node">
<title>Node17</title>
<g id="a_Node000017"><a xlink:href="DirektMacroControl_8cpp.html" target="_top" xlink:title=" ">
<polygon fill="white" stroke="#666666" points="2970.82,-255.5 2796.82,-255.5 2796.82,-236.5 2970.82,-236.5 2970.82,-255.5"/>
<text text-anchor="middle" x="2883.82" y="-243.5" font-family="Helvetica,sans-Serif" font-size="10.00">controls/DirektMacroControl.cpp</text>
</a>
</g>
</g>
<!-- Node1&#45;&gt;Node17 -->
<g id="edge26_Node000001_Node000017" class="edge">
<title>Node1&#45;&gt;Node17</title>
<g id="a_edge26_Node000001_Node000017"><a xlink:title=" ">
<path fill="none" stroke="#63b8ff" d="M1563.47,-305.82C1761.73,-306.07 2323.17,-302.72 2787.82,-261 2802.42,-259.69 2818.18,-257.65 2832.63,-255.54"/>
<polygon fill="#63b8ff" stroke="#63b8ff" points="1563.46,-302.32 1553.46,-305.8 1563.45,-309.32 1563.46,-302.32"/>
</a>
</g>
</g>
<!-- Node18 -->
<g id="Node000018" class="node">
<title>Node18</title>
<g id="a_Node000018"><a xlink:href="DirektComponentRegistry_8cpp.html" target="_top" xlink:title=" ">
<polygon fill="white" stroke="#666666" points="2129.82,-140 1943.82,-140 1943.82,-121 2129.82,-121 2129.82,-140"/>
<text text-anchor="middle" x="2036.82" y="-128" font-family="Helvetica,sans-Serif" font-size="10.00">core/DirektComponentRegistry.cpp</text>
</a>
</g>
</g>
<!-- Node1&#45;&gt;Node18 -->
<g id="edge28_Node000001_Node000018" class="edge">
<title>Node1&#45;&gt;Node18</title>
<g id="a_edge28_Node000001_Node000018"><a xlink:title=" ">
<path fill="none" stroke="#63b8ff" d="M1563.74,-304.65C1763.74,-301.97 2305.49,-291.89 2379.82,-261 2398.13,-253.39 2395.27,-240.21 2412.82,-231 2475.45,-198.15 2523.83,-250.38 2567.82,-195 2573.07,-188.39 2573.54,-182.22 2567.82,-176 2538.86,-144.51 2274.45,-135.29 2130.02,-132.6"/>
<polygon fill="#63b8ff" stroke="#63b8ff" points="1563.58,-301.16 1553.62,-304.79 1563.67,-308.16 1563.58,-301.16"/>
</a>
</g>
</g>
<!-- Node19 -->
<g id="Node000019" class="node">
<title>Node19</title>
<g id="a_Node000019"><a xlink:href="DirektClipIndicator_8h.html" target="_top" xlink:title=" ">
<polygon fill="white" stroke="#666666" points="1411.32,-195 1256.32,-195 1256.32,-176 1411.32,-176 1411.32,-195"/>
<text text-anchor="middle" x="1333.82" y="-183" font-family="Helvetica,sans-Serif" font-size="10.00">display/DirektClipIndicator.h</text>
</a>
</g>
</g>
<!-- Node1&#45;&gt;Node19 -->
<g id="edge29_Node000001_Node000019" class="edge">
<title>Node1&#45;&gt;Node19</title>
<g id="a_edge29_Node000001_Node000019"><a xlink:title=" ">
<path fill="none" stroke="#63b8ff" d="M1470.24,-290.56C1437.31,-265.44 1371.86,-215.51 1345.36,-195.3"/>
<polygon fill="#63b8ff" stroke="#63b8ff" points="1468.53,-293.66 1478.6,-296.94 1472.78,-288.09 1468.53,-293.66"/>
</a>
</g>
</g>
<!-- Node21 -->
<g id="Node000021" class="node">
<title>Node21</title>
<g id="a_Node000021"><a xlink:href="DirektLabel_8h.html" target="_top" xlink:title=" ">
<polygon fill="white" stroke="#666666" points="1549.82,-195 1429.82,-195 1429.82,-176 1549.82,-176 1549.82,-195"/>
<text text-anchor="middle" x="1489.82" y="-183" font-family="Helvetica,sans-Serif" font-size="10.00">display/DirektLabel.h</text>
</a>
</g>
</g>
<!-- Node1&#45;&gt;Node21 -->
<g id="edge34_Node000001_Node000021" class="edge">
<title>Node1&#45;&gt;Node21</title>
<g id="a_edge34_Node000001_Node000021"><a xlink:title=" ">
<path fill="none" stroke="#63b8ff" d="M1489.82,-286.86C1489.82,-260.81 1489.82,-214.56 1489.82,-195.3"/>
<polygon fill="#63b8ff" stroke="#63b8ff" points="1486.32,-286.94 1489.82,-296.94 1493.32,-286.94 1486.32,-286.94"/>
</a>
</g>
</g>
<!-- Node23 -->
<g id="Node000023" class="node">
<title>Node23</title>
<g id="a_Node000023"><a xlink:href="DirektMeter_8h.html" target="_top" xlink:title=" ">
<polygon fill="white" stroke="#666666" points="1913.82,-255.5 1791.82,-255.5 1791.82,-236.5 1913.82,-236.5 1913.82,-255.5"/>
<text text-anchor="middle" x="1852.82" y="-243.5" font-family="Helvetica,sans-Serif" font-size="10.00">display/DirektMeter.h</text>
</a>
</g>
</g>
<!-- Node1&#45;&gt;Node23 -->
<g id="edge38_Node000001_Node000023" class="edge">
<title>Node1&#45;&gt;Node23</title>
<g id="a_edge38_Node000001_Node000023"><a xlink:title=" ">
<path fill="none" stroke="#63b8ff" d="M1552.61,-295.38C1622.54,-284.11 1734.35,-266.09 1799.98,-255.52"/>
<polygon fill="#63b8ff" stroke="#63b8ff" points="1551.92,-291.95 1542.61,-296.99 1553.04,-298.86 1551.92,-291.95"/>
</a>
</g>
</g>
<!-- Node25 -->
<g id="Node000025" class="node">
<title>Node25</title>
<g id="a_Node000025"><a xlink:href="DirektStereoMeter_8h.html" target="_top" xlink:title=" ">
<polygon fill="white" stroke="#666666" points="1721.32,-195 1568.32,-195 1568.32,-176 1721.32,-176 1721.32,-195"/>
<text text-anchor="middle" x="1644.82" y="-183" font-family="Helvetica,sans-Serif" font-size="10.00">display/DirektStereoMeter.h</text>
</a>
</g>
</g>
<!-- Node1&#45;&gt;Node25 -->
<g id="edge48_Node000001_Node000025" class="edge">
<title>Node1&#45;&gt;Node25</title>
<g id="a_edge48_Node000001_Node000025"><a xlink:title=" ">
<path fill="none" stroke="#63b8ff" d="M1509.28,-290.56C1542,-265.44 1607.03,-215.51 1633.36,-195.3"/>
<polygon fill="#63b8ff" stroke="#63b8ff" points="1506.77,-288.08 1500.97,-296.94 1511.03,-293.63 1506.77,-288.08"/>
</a>
</g>
</g>
<!-- Node27 -->
<g id="Node000027" class="node">
<title>Node27</title>
<g id="a_Node000027"><a xlink:href="Main_8cpp.html" target="_top" xlink:title=" ">
<polygon fill="white" stroke="#666666" points="3130.82,-261 2988.82,-261 2988.82,-231 3130.82,-231 3130.82,-261"/>
<text text-anchor="start" x="2996.82" y="-249" font-family="Helvetica,sans-Serif" font-size="10.00">examples/StandaloneTest</text>
<text text-anchor="middle" x="3059.82" y="-238" font-family="Helvetica,sans-Serif" font-size="10.00">/Main.cpp</text>
</a>
</g>
</g>
<!-- Node1&#45;&gt;Node27 -->
<g id="edge49_Node000001_Node000027" class="edge">
<title>Node1&#45;&gt;Node27</title>
<g id="a_edge49_Node000001_Node000027"><a xlink:title=" ">
<path fill="none" stroke="#63b8ff" d="M1563.66,-304.7C1824.3,-301.64 2700.51,-289.46 2979.82,-261 2982.77,-260.7 2985.77,-260.35 2988.8,-259.97"/>
<polygon fill="#63b8ff" stroke="#63b8ff" points="1563.51,-301.2 1553.55,-304.81 1563.59,-308.2 1563.51,-301.2"/>
</a>
</g>
</g>
<!-- Node28 -->
<g id="Node000028" class="node">
<title>Node28</title>
<g id="a_Node000028"><a xlink:href="DirektSection_8h.html" target="_top" xlink:title=" ">
<polygon fill="white" stroke="#666666" points="2370.32,-255.5 2245.32,-255.5 2245.32,-236.5 2370.32,-236.5 2370.32,-255.5"/>
<text text-anchor="middle" x="2307.82" y="-243.5" font-family="Helvetica,sans-Serif" font-size="10.00">layout/DirektSection.h</text>
</a>
</g>
</g>
<!-- Node1&#45;&gt;Node28 -->
<g id="edge50_Node000001_Node000028" class="edge">
<title>Node1&#45;&gt;Node28</title>
<g id="a_edge50_Node000001_Node000028"><a xlink:title=" ">
<path fill="none" stroke="#63b8ff" d="M1563.5,-300.23C1722.72,-288.84 2096.5,-262.11 2245.2,-251.48"/>
<polygon fill="#63b8ff" stroke="#63b8ff" points="1563.05,-296.75 1553.33,-300.96 1563.55,-303.74 1563.05,-296.75"/>
</a>
</g>
</g>
<!-- Node33 -->
<g id="Node000033" class="node">
<title>Node33</title>
<g id="a_Node000033"><a xlink:href="DirektTabPanel_8h.html" target="_top" xlink:title=" ">
<polygon fill="white" stroke="#666666" points="2784.82,-195 2652.82,-195 2652.82,-176 2784.82,-176 2784.82,-195"/>
<text text-anchor="middle" x="2718.82" y="-183" font-family="Helvetica,sans-Serif" font-size="10.00">layout/DirektTabPanel.h</text>
</a>
</g>
</g>
<!-- Node1&#45;&gt;Node33 -->
<g id="edge60_Node000001_Node000033" class="edge">
<title>Node1&#45;&gt;Node33</title>
<g id="a_edge60_Node000001_Node000033"><a xlink:title=" ">
<path fill="none" stroke="#63b8ff" d="M1563.43,-304.29C1767.98,-300.61 2333.45,-288.07 2412.82,-261 2434.88,-253.48 2434.26,-239.82 2455.82,-231 2490.54,-216.8 2586.64,-202.75 2652.53,-194.35"/>
<polygon fill="#63b8ff" stroke="#63b8ff" points="1563.32,-300.79 1553.38,-304.47 1563.44,-307.79 1563.32,-300.79"/>
</a>
</g>
</g>
<!-- Node35 -->
<g id="Node000035" class="node">
<title>Node35</title>
<g id="a_Node000035"><a xlink:href="DirektLookAndFeel_8h.html" target="_top" xlink:title=" ">
<polygon fill="white" stroke="#666666" points="1216.82,-195 1064.82,-195 1064.82,-176 1216.82,-176 1216.82,-195"/>
<text text-anchor="middle" x="1140.82" y="-183" font-family="Helvetica,sans-Serif" font-size="10.00">theme/DirektLookAndFeel.h</text>
</a>
</g>
</g>
<!-- Node1&#45;&gt;Node35 -->
<g id="edge64_Node000001_Node000035" class="edge">
<title>Node1&#45;&gt;Node35</title>
<g id="a_edge64_Node000001_Node000035"><a xlink:title=" ">
<path fill="none" stroke="#63b8ff" d="M1455.02,-293.63C1384.8,-269.69 1227.64,-216.1 1166.16,-195.14"/>
<polygon fill="#63b8ff" stroke="#63b8ff" points="1454.13,-297.03 1464.72,-296.94 1456.39,-290.4 1454.13,-297.03"/>
</a>
</g>
</g>
<!-- Node3 -->
<g id="Node000003" class="node">
<title>Node3</title>
<g id="a_Node000003"><a xlink:href="StandaloneTestProcessor_8cpp.html" target="_top" xlink:title=" ">
<polygon fill="white" stroke="#666666" points="1108.32,-30 947.32,-30 947.32,0 1108.32,0 1108.32,-30"/>
<text text-anchor="start" x="955.32" y="-18" font-family="Helvetica,sans-Serif" font-size="10.00">examples/StandaloneTest</text>
<text text-anchor="middle" x="1027.82" y="-7" font-family="Helvetica,sans-Serif" font-size="10.00">/StandaloneTestProcessor.cpp</text>
</a>
</g>
</g>
<!-- Node2&#45;&gt;Node3 -->
<g id="edge2_Node000002_Node000003" class="edge">
<title>Node2&#45;&gt;Node3</title>
<g id="a_edge2_Node000002_Node000003"><a xlink:title=" ">
<path fill="none" stroke="#63b8ff" d="M1027.82,-55.65C1027.82,-47.36 1027.82,-37.78 1027.82,-30.11"/>
<polygon fill="#63b8ff" stroke="#63b8ff" points="1024.32,-55.87 1027.82,-65.87 1031.32,-55.87 1024.32,-55.87"/>
</a>
</g>
</g>
<!-- Node4&#45;&gt;Node2 -->
<g id="edge4_Node000004_Node000002" class="edge">
<title>Node4&#45;&gt;Node2</title>
<g id="a_edge4_Node000004_Node000002"><a xlink:title=" ">
<path fill="none" stroke="#63b8ff" d="M78.33,-173.89C34.91,-164.13 -10.21,-147.16 14.82,-121 49.21,-85.07 812.37,-77.9 990.77,-76.71"/>
<polygon fill="#63b8ff" stroke="#63b8ff" points="77.61,-177.31 88.12,-175.98 79.07,-170.47 77.61,-177.31"/>
</a>
</g>
</g>
<!-- Node5 -->
<g id="Node000005" class="node">
<title>Node5</title>
<g id="a_Node000005"><a xlink:href="DirektFooter_8cpp.html" target="_top" xlink:title=" ">
<polygon fill="white" stroke="#666666" points="161.32,-140 24.32,-140 24.32,-121 161.32,-121 161.32,-140"/>
<text text-anchor="middle" x="92.82" y="-128" font-family="Helvetica,sans-Serif" font-size="10.00">chrome/DirektFooter.cpp</text>
</a>
</g>
</g>
<!-- Node4&#45;&gt;Node5 -->
<g id="edge5_Node000004_Node000005" class="edge">
<title>Node4&#45;&gt;Node5</title>
<g id="a_edge5_Node000004_Node000005"><a xlink:title=" ">
<path fill="none" stroke="#63b8ff" d="M127.48,-168.24C118.72,-158.95 108.08,-147.68 100.93,-140.09"/>
<polygon fill="#63b8ff" stroke="#63b8ff" points="125.16,-170.88 134.57,-175.75 130.25,-166.07 125.16,-170.88"/>
</a>
</g>
</g>
<!-- Node4&#45;&gt;Node6 -->
<g id="edge6_Node000004_Node000006" class="edge">
<title>Node4&#45;&gt;Node6</title>
<g id="a_edge6_Node000004_Node000006"><a xlink:title=" ">
<path fill="none" stroke="#63b8ff" d="M215.41,-177.94C223.64,-177.25 231.91,-176.59 239.82,-176 497.82,-156.71 563.09,-162.57 820.82,-140 823.82,-139.74 826.89,-139.45 829.99,-139.15"/>
<polygon fill="#63b8ff" stroke="#63b8ff" points="215.09,-174.45 205.42,-178.78 215.68,-181.43 215.09,-174.45"/>
</a>
</g>
</g>
<!-- Node6&#45;&gt;Node2 -->
<g id="edge7_Node000006_Node000002" class="edge">
<title>Node6&#45;&gt;Node2</title>
<g id="a_edge7_Node000006_Node000002"><a xlink:title=" ">
<path fill="none" stroke="#63b8ff" d="M926.56,-117.16C950.99,-107.35 984.56,-93.87 1006.23,-85.17"/>
<polygon fill="#63b8ff" stroke="#63b8ff" points="925.01,-114.01 917.03,-120.98 927.61,-120.51 925.01,-114.01"/>
</a>
</g>
</g>
<!-- Node7 -->
<g id="Node000007" class="node">
<title>Node7</title>
<g id="a_Node000007"><a xlink:href="DirektBaseEditor_8cpp.html" target="_top" xlink:title=" ">
<polygon fill="white" stroke="#666666" points="1672.32,-85 1529.32,-85 1529.32,-66 1672.32,-66 1672.32,-85"/>
<text text-anchor="middle" x="1600.82" y="-73" font-family="Helvetica,sans-Serif" font-size="10.00">core/DirektBaseEditor.cpp</text>
</a>
</g>
</g>
<!-- Node6&#45;&gt;Node7 -->
<g id="edge8_Node000006_Node000007" class="edge">
<title>Node6&#45;&gt;Node7</title>
<g id="a_edge8_Node000006_Node000007"><a xlink:title=" ">
<path fill="none" stroke="#63b8ff" d="M971.51,-123.81C1108.44,-113.52 1395.48,-91.94 1529.3,-81.88"/>
<polygon fill="#63b8ff" stroke="#63b8ff" points="971.22,-120.32 961.51,-124.56 971.75,-127.3 971.22,-120.32"/>
</a>
</g>
</g>
<!-- Node8&#45;&gt;Node2 -->
<g id="edge10_Node000008_Node000002" class="edge">
<title>Node8&#45;&gt;Node2</title>
<g id="a_edge10_Node000008_Node000002"><a xlink:title=" ">
<path fill="none" stroke="#63b8ff" d="M265.17,-173.3C227.95,-162.58 186.5,-144.57 208.82,-121 236.06,-92.25 834.63,-79.86 990.82,-77.11"/>
<polygon fill="#63b8ff" stroke="#63b8ff" points="264.43,-176.72 275,-175.99 266.28,-169.97 264.43,-176.72"/>
</a>
</g>
</g>
<!-- Node8&#45;&gt;Node6 -->
<g id="edge12_Node000008_Node000006" class="edge">
<title>Node8&#45;&gt;Node6</title>
<g id="a_edge12_Node000008_Node000006"><a xlink:title=" ">
<path fill="none" stroke="#63b8ff" d="M389.32,-178.47C488.42,-170.43 667.77,-155.39 820.82,-140 823.82,-139.7 826.89,-139.38 829.98,-139.06"/>
<polygon fill="#63b8ff" stroke="#63b8ff" points="388.78,-175.01 379.1,-179.3 389.35,-181.98 388.78,-175.01"/>
</a>
</g>
</g>
<!-- Node9 -->
<g id="Node000009" class="node">
<title>Node9</title>
<g id="a_Node000009"><a xlink:href="DirektHeader_8cpp.html" target="_top" xlink:title=" ">
<polygon fill="white" stroke="#666666" points="359.32,-140 218.32,-140 218.32,-121 359.32,-121 359.32,-140"/>
<text text-anchor="middle" x="288.82" y="-128" font-family="Helvetica,sans-Serif" font-size="10.00">chrome/DirektHeader.cpp</text>
</a>
</g>
</g>
<!-- Node8&#45;&gt;Node9 -->
<g id="edge11_Node000008_Node000009" class="edge">
<title>Node8&#45;&gt;Node9</title>
<g id="a_edge11_Node000008_Node000009"><a xlink:title=" ">
<path fill="none" stroke="#63b8ff" d="M305.35,-166.53C301.13,-157.6 296.24,-147.22 292.87,-140.09"/>
<polygon fill="#63b8ff" stroke="#63b8ff" points="302.26,-168.2 309.69,-175.75 308.59,-165.21 302.26,-168.2"/>
</a>
</g>
</g>
<!-- Node10&#45;&gt;Node2 -->
<g id="edge14_Node000010_Node000002" class="edge">
<title>Node10&#45;&gt;Node2</title>
<g id="a_edge14_Node000010_Node000002"><a xlink:title=" ">
<path fill="none" stroke="#63b8ff" d="M466.94,-173.51C427.41,-163.25 384.77,-145.77 407.82,-121 447.57,-78.29 862.58,-75.98 990.5,-76.3"/>
<polygon fill="#63b8ff" stroke="#63b8ff" points="466.34,-176.97 476.89,-175.97 468.02,-170.17 466.34,-176.97"/>
</a>
</g>
</g>
<!-- Node10&#45;&gt;Node6 -->
<g id="edge16_Node000010_Node000006" class="edge">
<title>Node10&#45;&gt;Node6</title>
<g id="a_edge16_Node000010_Node000006"><a xlink:title=" ">
<path fill="none" stroke="#63b8ff" d="M592,-174.56C662.21,-164.61 769.08,-149.46 835.57,-140.04"/>
<polygon fill="#63b8ff" stroke="#63b8ff" points="591.32,-171.12 581.91,-175.98 592.3,-178.05 591.32,-171.12"/>
</a>
</g>
</g>
<!-- Node11 -->
<g id="Node000011" class="node">
<title>Node11</title>
<g id="a_Node000011"><a xlink:href="DirektPopupPanel_8cpp.html" target="_top" xlink:title=" ">
<polygon fill="white" stroke="#666666" points="579.32,-140 416.32,-140 416.32,-121 579.32,-121 579.32,-140"/>
<text text-anchor="middle" x="497.82" y="-128" font-family="Helvetica,sans-Serif" font-size="10.00">chrome/DirektPopupPanel.cpp</text>
</a>
</g>
</g>
<!-- Node10&#45;&gt;Node11 -->
<g id="edge15_Node000010_Node000011" class="edge">
<title>Node10&#45;&gt;Node11</title>
<g id="a_edge15_Node000010_Node000011"><a xlink:title=" ">
<path fill="none" stroke="#63b8ff" d="M513.68,-166.53C509.64,-157.6 504.94,-147.22 501.71,-140.09"/>
<polygon fill="#63b8ff" stroke="#63b8ff" points="510.55,-168.08 517.86,-175.75 516.92,-165.19 510.55,-168.08"/>
</a>
</g>
</g>
<!-- Node12&#45;&gt;Node2 -->
<g id="edge18_Node000012_Node000002" class="edge">
<title>Node12&#45;&gt;Node2</title>
<g id="a_edge18_Node000012_Node000002"><a xlink:title=" ">
<path fill="none" stroke="#63b8ff" d="M688.49,-173.82C646.08,-164.23 603.11,-147.49 626.82,-121 650.88,-94.12 895.88,-81.69 990.66,-77.85"/>
<polygon fill="#63b8ff" stroke="#63b8ff" points="687.85,-177.26 698.36,-175.94 689.31,-170.42 687.85,-177.26"/>
</a>
</g>
</g>
<!-- Node12&#45;&gt;Node6 -->
<g id="edge20_Node000012_Node000006" class="edge">
<title>Node12&#45;&gt;Node6</title>
<g id="a_edge20_Node000012_Node000006"><a xlink:title=" ">
<path fill="none" stroke="#63b8ff" d="M786.96,-172.42C813.12,-162.59 849.41,-148.95 872.76,-140.17"/>
<polygon fill="#63b8ff" stroke="#63b8ff" points="785.61,-169.19 777.48,-175.98 788.07,-175.74 785.61,-169.19"/>
</a>
</g>
</g>
<!-- Node13 -->
<g id="Node000013" class="node">
<title>Node13</title>
<g id="a_Node000013"><a xlink:href="DirektPresetBrowser_8cpp.html" target="_top" xlink:title=" ">
<polygon fill="white" stroke="#666666" points="811.82,-140 635.82,-140 635.82,-121 811.82,-121 811.82,-140"/>
<text text-anchor="middle" x="723.82" y="-128" font-family="Helvetica,sans-Serif" font-size="10.00">chrome/DirektPresetBrowser.cpp</text>
</a>
</g>
</g>
<!-- Node12&#45;&gt;Node13 -->
<g id="edge19_Node000012_Node000013" class="edge">
<title>Node12&#45;&gt;Node13</title>
<g id="a_edge19_Node000012_Node000013"><a xlink:title=" ">
<path fill="none" stroke="#63b8ff" d="M744.65,-167.1C739.35,-158.04 733.11,-147.37 728.85,-140.09"/>
<polygon fill="#63b8ff" stroke="#63b8ff" points="741.63,-168.88 749.7,-175.75 747.68,-165.35 741.63,-168.88"/>
</a>
</g>
</g>
<!-- Node14&#45;&gt;Node2 -->
<g id="edge22_Node000014_Node000002" class="edge">
<title>Node14&#45;&gt;Node2</title>
<g id="a_edge22_Node000014_Node000002"><a xlink:title=" ">
<path fill="none" stroke="#63b8ff" d="M993.8,-166.12C1002.74,-142.56 1017.89,-102.66 1024.54,-85.16"/>
<polygon fill="#63b8ff" stroke="#63b8ff" points="990.45,-165.07 990.18,-175.66 997,-167.56 990.45,-165.07"/>
</a>
</g>
</g>
<!-- Node14&#45;&gt;Node6 -->
<g id="edge23_Node000014_Node000006" class="edge">
<title>Node14&#45;&gt;Node6</title>
<g id="a_edge23_Node000014_Node000006"><a xlink:title=" ">
<path fill="none" stroke="#63b8ff" d="M963.12,-170.7C946.54,-161.04 924.91,-148.44 910.71,-140.17"/>
<polygon fill="#63b8ff" stroke="#63b8ff" points="961.8,-173.98 972.2,-175.98 965.32,-167.93 961.8,-173.98"/>
</a>
</g>
</g>
<!-- Node19&#45;&gt;Node2 -->
<g id="edge30_Node000019_Node000002" class="edge">
<title>Node19&#45;&gt;Node2</title>
<g id="a_edge30_Node000019_Node000002"><a xlink:title=" ">
<path fill="none" stroke="#63b8ff" d="M1314.39,-170.06C1294.05,-155.62 1260.69,-133.76 1228.82,-121 1173.91,-99.01 1105.99,-86.85 1064.83,-81.01"/>
<polygon fill="#63b8ff" stroke="#63b8ff" points="1312.36,-172.92 1322.52,-175.94 1316.46,-167.24 1312.36,-172.92"/>
</a>
</g>
</g>
<!-- Node19&#45;&gt;Node7 -->
<g id="edge31_Node000019_Node000007" class="edge">
<title>Node19&#45;&gt;Node7</title>
<g id="a_edge31_Node000019_Node000007"><a xlink:title=" ">
<path fill="none" stroke="#63b8ff" d="M1317.44,-168.53C1305.3,-154.77 1292.79,-134.97 1304.82,-121 1333.18,-88.07 1450.82,-79.17 1528.99,-76.96"/>
<polygon fill="#63b8ff" stroke="#63b8ff" points="1314.93,-170.97 1324.35,-175.84 1320.02,-166.17 1314.93,-170.97"/>
</a>
</g>
</g>
<!-- Node19&#45;&gt;Node18 -->
<g id="edge32_Node000019_Node000018" class="edge">
<title>Node19&#45;&gt;Node18</title>
<g id="a_edge32_Node000019_Node000018"><a xlink:title=" ">
<path fill="none" stroke="#63b8ff" d="M1421.59,-175.96C1613.44,-159.76 1824.99,-145.3 1943.62,-137.5"/>
<polygon fill="#63b8ff" stroke="#63b8ff" points="1421.27,-172.47 1411.6,-176.8 1421.86,-179.45 1421.27,-172.47"/>
</a>
</g>
</g>
<!-- Node20 -->
<g id="Node000020" class="node">
<title>Node20</title>
<g id="a_Node000020"><a xlink:href="DirektClipIndicator_8cpp.html" target="_top" xlink:title=" ">
<polygon fill="white" stroke="#666666" points="1479.82,-140 1313.82,-140 1313.82,-121 1479.82,-121 1479.82,-140"/>
<text text-anchor="middle" x="1396.82" y="-128" font-family="Helvetica,sans-Serif" font-size="10.00">display/DirektClipIndicator.cpp</text>
</a>
</g>
</g>
<!-- Node19&#45;&gt;Node20 -->
<g id="edge33_Node000019_Node000020" class="edge">
<title>Node19&#45;&gt;Node20</title>
<g id="a_edge33_Node000019_Node000020"><a xlink:title=" ">
<path fill="none" stroke="#63b8ff" d="M1351.86,-169.32C1363.1,-159.87 1377.14,-148.06 1386.52,-140.17"/>
<polygon fill="#63b8ff" stroke="#63b8ff" points="1349.34,-166.87 1343.94,-175.98 1353.85,-172.23 1349.34,-166.87"/>
</a>
</g>
</g>
<!-- Node21&#45;&gt;Node2 -->
<g id="edge35_Node000021_Node000002" class="edge">
<title>Node21&#45;&gt;Node2</title>
<g id="a_edge35_Node000021_Node000002"><a xlink:title=" ">
<path fill="none" stroke="#63b8ff" d="M1495.52,-165.72C1498.54,-151.61 1499.68,-132.77 1488.82,-121 1460.27,-90.05 1169.71,-79.95 1065.1,-77.31"/>
<polygon fill="#63b8ff" stroke="#63b8ff" points="1492.03,-165.24 1492.89,-175.79 1498.81,-167 1492.03,-165.24"/>
</a>
</g>
</g>
<!-- Node21&#45;&gt;Node18 -->
<g id="edge36_Node000021_Node000018" class="edge">
<title>Node21&#45;&gt;Node18</title>
<g id="a_edge36_Node000021_Node000018"><a xlink:title=" ">
<path fill="none" stroke="#63b8ff" d="M1560.2,-175.99C1700.17,-161.06 1849.56,-147.6 1943.52,-139.43"/>
<polygon fill="#63b8ff" stroke="#63b8ff" points="1559.71,-172.52 1550.14,-177.07 1560.46,-179.48 1559.71,-172.52"/>
</a>
</g>
</g>
<!-- Node22 -->
<g id="Node000022" class="node">
<title>Node22</title>
<g id="a_Node000022"><a xlink:href="DirektLabel_8cpp.html" target="_top" xlink:title=" ">
<polygon fill="white" stroke="#666666" points="1667.32,-140 1536.32,-140 1536.32,-121 1667.32,-121 1667.32,-140"/>
<text text-anchor="middle" x="1601.82" y="-128" font-family="Helvetica,sans-Serif" font-size="10.00">display/DirektLabel.cpp</text>
</a>
</g>
</g>
<!-- Node21&#45;&gt;Node22 -->
<g id="edge37_Node000021_Node000022" class="edge">
<title>Node21&#45;&gt;Node22</title>
<g id="a_edge37_Node000021_Node000022"><a xlink:title=" ">
<path fill="none" stroke="#63b8ff" d="M1517.01,-171.63C1537.64,-161.87 1565.45,-148.71 1583.5,-140.17"/>
<polygon fill="#63b8ff" stroke="#63b8ff" points="1515.36,-168.54 1507.82,-175.98 1518.35,-174.87 1515.36,-168.54"/>
</a>
</g>
</g>
<!-- Node23&#45;&gt;Node2 -->
<g id="edge39_Node000023_Node000002" class="edge">
<title>Node23&#45;&gt;Node2</title>
<g id="a_edge39_Node000023_Node000002"><a xlink:title=" ">
<path fill="none" stroke="#63b8ff" d="M1873.57,-230.6C1902.55,-210.52 1951.73,-176.46 1952.82,-176 2032.3,-142.62 2198.55,-183.16 2138.82,-121 2119.8,-101.2 1256.24,-81.43 1065.04,-77.29"/>
<polygon fill="#63b8ff" stroke="#63b8ff" points="1871.53,-227.76 1865.31,-236.34 1875.52,-233.51 1871.53,-227.76"/>
</a>
</g>
</g>
<!-- Node23&#45;&gt;Node7 -->
<g id="edge40_Node000023_Node000007" class="edge">
<title>Node23&#45;&gt;Node7</title>
<g id="a_edge40_Node000023_Node000007"><a xlink:title=" ">
<path fill="none" stroke="#63b8ff" d="M1879.03,-231.92C1916.96,-213.05 1983.97,-180 1995.82,-176 2073.47,-149.78 2227.48,-181.16 2171.82,-121 2138.57,-85.05 1818.36,-78.08 1672.53,-76.77"/>
<polygon fill="#63b8ff" stroke="#63b8ff" points="1877.45,-228.8 1870.06,-236.39 1880.57,-235.06 1877.45,-228.8"/>
</a>
</g>
</g>
<!-- Node23&#45;&gt;Node18 -->
<g id="edge41_Node000023_Node000018" class="edge">
<title>Node23&#45;&gt;Node18</title>
<g id="a_edge41_Node000023_Node000018"><a xlink:title=" ">
<path fill="none" stroke="#63b8ff" d="M1866.55,-228.6C1880.07,-213.3 1901.96,-190.69 1924.82,-176 1950.35,-159.6 1982.89,-147.5 2006.31,-140.09"/>
<polygon fill="#63b8ff" stroke="#63b8ff" points="1863.84,-226.39 1859.95,-236.25 1869.13,-230.97 1863.84,-226.39"/>
</a>
</g>
</g>
<!-- Node24 -->
<g id="Node000024" class="node">
<title>Node24</title>
<g id="a_Node000024"><a xlink:href="DirektMeter_8cpp.html" target="_top" xlink:title=" ">
<polygon fill="white" stroke="#666666" points="1872.32,-195 1739.32,-195 1739.32,-176 1872.32,-176 1872.32,-195"/>
<text text-anchor="middle" x="1805.82" y="-183" font-family="Helvetica,sans-Serif" font-size="10.00">display/DirektMeter.cpp</text>
</a>
</g>
</g>
<!-- Node23&#45;&gt;Node24 -->
<g id="edge42_Node000023_Node000024" class="edge">
<title>Node23&#45;&gt;Node24</title>
<g id="a_edge42_Node000023_Node000024"><a xlink:title=" ">
<path fill="none" stroke="#63b8ff" d="M1839.53,-228.45C1830.83,-217.62 1819.81,-203.91 1812.79,-195.17"/>
<polygon fill="#63b8ff" stroke="#63b8ff" points="1836.9,-230.76 1845.89,-236.37 1842.35,-226.38 1836.9,-230.76"/>
</a>
</g>
</g>
<!-- Node23&#45;&gt;Node25 -->
<g id="edge43_Node000023_Node000025" class="edge">
<title>Node23&#45;&gt;Node25</title>
<g id="a_edge43_Node000023_Node000025"><a xlink:title=" ">
<path fill="none" stroke="#63b8ff" d="M1812.83,-233.75C1772.6,-222.44 1711.48,-205.25 1675.1,-195.02"/>
<polygon fill="#63b8ff" stroke="#63b8ff" points="1812,-237.16 1822.58,-236.49 1813.9,-230.42 1812,-237.16"/>
</a>
</g>
</g>
<!-- Node25&#45;&gt;Node2 -->
<g id="edge44_Node000025_Node000002" class="edge">
<title>Node25&#45;&gt;Node2</title>
<g id="a_edge44_Node000025_Node000002"><a xlink:title=" ">
<path fill="none" stroke="#63b8ff" d="M1714.64,-174.43C1773.49,-165.24 1849.57,-151.37 1858.82,-140 1864.15,-133.45 1864.63,-127.13 1858.82,-121 1831.15,-91.8 1222.48,-79.72 1064.84,-77.08"/>
<polygon fill="#63b8ff" stroke="#63b8ff" points="1713.96,-171 1704.62,-175.98 1715.03,-177.91 1713.96,-171"/>
</a>
</g>
</g>
<!-- Node25&#45;&gt;Node7 -->
<g id="edge45_Node000025_Node000007" class="edge">
<title>Node25&#45;&gt;Node7</title>
<g id="a_edge45_Node000025_Node000007"><a xlink:title=" ">
<path fill="none" stroke="#63b8ff" d="M1729.12,-174.67C1796.44,-165.96 1881.22,-152.68 1891.82,-140 1897.24,-133.52 1897.32,-127.41 1891.82,-121 1864.1,-88.72 1749.35,-79.61 1672.49,-77.18"/>
<polygon fill="#63b8ff" stroke="#63b8ff" points="1728.38,-171.24 1718.9,-175.98 1729.27,-178.18 1728.38,-171.24"/>
</a>
</g>
</g>
<!-- Node25&#45;&gt;Node18 -->
<g id="edge46_Node000025_Node000018" class="edge">
<title>Node25&#45;&gt;Node18</title>
<g id="a_edge46_Node000025_Node000018"><a xlink:title=" ">
<path fill="none" stroke="#63b8ff" d="M1717.92,-174.62C1791.51,-164.67 1903.84,-149.48 1973.67,-140.04"/>
<polygon fill="#63b8ff" stroke="#63b8ff" points="1717.24,-171.18 1707.8,-175.98 1718.18,-178.11 1717.24,-171.18"/>
</a>
</g>
</g>
<!-- Node26 -->
<g id="Node000026" class="node">
<title>Node26</title>
<g id="a_Node000026"><a xlink:href="DirektStereoMeter_8cpp.html" target="_top" xlink:title=" ">
<polygon fill="white" stroke="#666666" points="1849.82,-140 1685.82,-140 1685.82,-121 1849.82,-121 1849.82,-140"/>
<text text-anchor="middle" x="1767.82" y="-128" font-family="Helvetica,sans-Serif" font-size="10.00">display/DirektStereoMeter.cpp</text>
</a>
</g>
</g>
<!-- Node25&#45;&gt;Node26 -->
<g id="edge47_Node000025_Node000026" class="edge">
<title>Node25&#45;&gt;Node26</title>
<g id="a_edge47_Node000025_Node000026"><a xlink:title=" ">
<path fill="none" stroke="#63b8ff" d="M1674.07,-171.9C1696.79,-162.11 1727.69,-148.79 1747.7,-140.17"/>
<polygon fill="#63b8ff" stroke="#63b8ff" points="1672.38,-168.81 1664.58,-175.98 1675.15,-175.24 1672.38,-168.81"/>
</a>
</g>
</g>
<!-- Node28&#45;&gt;Node2 -->
<g id="edge51_Node000028_Node000002" class="edge">
<title>Node28&#45;&gt;Node2</title>
<g id="a_edge51_Node000028_Node000002"><a xlink:title=" ">
<path fill="none" stroke="#63b8ff" d="M2371.82,-234.77C2446.76,-222.5 2561.54,-202.61 2567.82,-195 2588.77,-169.64 2590.74,-144.59 2567.82,-121 2554.3,-107.08 1299.15,-81.82 1065.15,-77.23"/>
<polygon fill="#63b8ff" stroke="#63b8ff" points="2370.84,-231.39 2361.53,-236.45 2371.96,-238.3 2370.84,-231.39"/>
</a>
</g>
</g>
<!-- Node28&#45;&gt;Node6 -->
<g id="edge56_Node000028_Node000006" class="edge">
<title>Node28&#45;&gt;Node6</title>
<g id="a_edge56_Node000028_Node000006"><a xlink:title=" ">
<path fill="none" stroke="#63b8ff" d="M2324.24,-228.6C2337.61,-213.3 2352.11,-190.7 2337.82,-176 2312.81,-150.28 1082.67,-141.51 1046.82,-140 1018.88,-138.82 988.06,-137.16 961.58,-135.61"/>
<polygon fill="#63b8ff" stroke="#63b8ff" points="2321.37,-226.55 2317.12,-236.25 2326.5,-231.31 2321.37,-226.55"/>
</a>
</g>
</g>
<!-- Node28&#45;&gt;Node18 -->
<g id="edge57_Node000028_Node000018" class="edge">
<title>Node28&#45;&gt;Node18</title>
<g id="a_edge57_Node000028_Node000018"><a xlink:title=" ">
<path fill="none" stroke="#63b8ff" d="M2334.75,-231.53C2358.86,-217.73 2387.97,-195.59 2370.82,-176 2355.07,-158.01 2223.2,-144.85 2129.96,-137.68"/>
<polygon fill="#63b8ff" stroke="#63b8ff" points="2332.95,-228.52 2325.86,-236.39 2336.31,-234.67 2332.95,-228.52"/>
</a>
</g>
</g>
<!-- Node29 -->
<g id="Node000029" class="node">
<title>Node29</title>
<g id="a_Node000029"><a xlink:href="DirektAutoLayout_8h.html" target="_top" xlink:title=" ">
<polygon fill="white" stroke="#666666" points="2558.32,-195 2423.32,-195 2423.32,-176 2558.32,-176 2558.32,-195"/>
<text text-anchor="middle" x="2490.82" y="-183" font-family="Helvetica,sans-Serif" font-size="10.00">core/DirektAutoLayout.h</text>
</a>
</g>
</g>
<!-- Node28&#45;&gt;Node29 -->
<g id="edge52_Node000028_Node000029" class="edge">
<title>Node28&#45;&gt;Node29</title>
<g id="a_edge52_Node000028_Node000029"><a xlink:title=" ">
<path fill="none" stroke="#63b8ff" d="M2344.37,-233.32C2379.76,-222 2432.59,-205.12 2464.18,-195.02"/>
<polygon fill="#63b8ff" stroke="#63b8ff" points="2342.89,-230.11 2334.43,-236.49 2345.02,-236.78 2342.89,-230.11"/>
</a>
</g>
</g>
<!-- Node31 -->
<g id="Node000031" class="node">
<title>Node31</title>
<g id="a_Node000031"><a xlink:href="DirektFlexContainer_8cpp.html" target="_top" xlink:title=" ">
<polygon fill="white" stroke="#666666" points="2172.82,-195 2004.82,-195 2004.82,-176 2172.82,-176 2172.82,-195"/>
<text text-anchor="middle" x="2088.82" y="-183" font-family="Helvetica,sans-Serif" font-size="10.00">layout/DirektFlexContainer.cpp</text>
</a>
</g>
</g>
<!-- Node28&#45;&gt;Node31 -->
<g id="edge58_Node000028_Node000031" class="edge">
<title>Node28&#45;&gt;Node31</title>
<g id="a_edge58_Node000028_Node000031"><a xlink:title=" ">
<path fill="none" stroke="#63b8ff" d="M2266.25,-233.9C2223.91,-222.58 2159.16,-205.29 2120.71,-195.02"/>
<polygon fill="#63b8ff" stroke="#63b8ff" points="2265.41,-237.29 2275.98,-236.49 2267.22,-230.53 2265.41,-237.29"/>
</a>
</g>
</g>
<!-- Node32 -->
<g id="Node000032" class="node">
<title>Node32</title>
<g id="a_Node000032"><a xlink:href="DirektSection_8cpp.html" target="_top" xlink:title=" ">
<polygon fill="white" stroke="#666666" points="2328.32,-195 2191.32,-195 2191.32,-176 2328.32,-176 2328.32,-195"/>
<text text-anchor="middle" x="2259.82" y="-183" font-family="Helvetica,sans-Serif" font-size="10.00">layout/DirektSection.cpp</text>
</a>
</g>
</g>
<!-- Node28&#45;&gt;Node32 -->
<g id="edge59_Node000028_Node000032" class="edge">
<title>Node28&#45;&gt;Node32</title>
<g id="a_edge59_Node000028_Node000032"><a xlink:title=" ">
<path fill="none" stroke="#63b8ff" d="M2294.24,-228.45C2285.36,-217.62 2274.11,-203.91 2266.93,-195.17"/>
<polygon fill="#63b8ff" stroke="#63b8ff" points="2291.69,-230.86 2300.74,-236.37 2297.1,-226.42 2291.69,-230.86"/>
</a>
</g>
</g>
<!-- Node29&#45;&gt;Node2 -->
<g id="edge53_Node000029_Node000002" class="edge">
<title>Node29&#45;&gt;Node2</title>
<g id="a_edge53_Node000029_Node000002"><a xlink:title=" ">
<path fill="none" stroke="#63b8ff" d="M2447.05,-173.51C2385.9,-158.67 2271.22,-132.75 2171.82,-121 1950.01,-94.77 1235.92,-80.3 1064.89,-77.16"/>
<polygon fill="#63b8ff" stroke="#63b8ff" points="2446.57,-176.99 2457.11,-175.96 2448.23,-170.19 2446.57,-176.99"/>
</a>
</g>
</g>
<!-- Node29&#45;&gt;Node6 -->
<g id="edge55_Node000029_Node000006" class="edge">
<title>Node29&#45;&gt;Node6</title>
<g id="a_edge55_Node000029_Node000006"><a xlink:title=" ">
<path fill="none" stroke="#63b8ff" d="M2413.12,-178.5C2399.05,-177.55 2384.5,-176.67 2370.82,-176 1782.87,-147.2 1634.97,-164.54 1046.82,-140 1018.88,-138.83 988.06,-137.17 961.58,-135.62"/>
<polygon fill="#63b8ff" stroke="#63b8ff" points="2413.05,-182 2423.26,-179.2 2413.53,-175.02 2413.05,-182"/>
</a>
</g>
</g>
<!-- Node30 -->
<g id="Node000030" class="node">
<title>Node30</title>
<g id="a_Node000030"><a xlink:href="DirektAutoLayout_8cpp.html" target="_top" xlink:title=" ">
<polygon fill="white" stroke="#666666" points="2558.82,-140 2412.82,-140 2412.82,-121 2558.82,-121 2558.82,-140"/>
<text text-anchor="middle" x="2485.82" y="-128" font-family="Helvetica,sans-Serif" font-size="10.00">core/DirektAutoLayout.cpp</text>
</a>
</g>
</g>
<!-- Node29&#45;&gt;Node30 -->
<g id="edge54_Node000029_Node000030" class="edge">
<title>Node29&#45;&gt;Node30</title>
<g id="a_edge54_Node000029_Node000030"><a xlink:title=" ">
<path fill="none" stroke="#63b8ff" d="M2489.05,-165.66C2488.22,-156.93 2487.28,-146.99 2486.63,-140.09"/>
<polygon fill="#63b8ff" stroke="#63b8ff" points="2485.57,-166.12 2490,-175.75 2492.54,-165.46 2485.57,-166.12"/>
</a>
</g>
</g>
<!-- Node33&#45;&gt;Node2 -->
<g id="edge61_Node000033_Node000002" class="edge">
<title>Node33&#45;&gt;Node2</title>
<g id="a_edge61_Node000033_Node000002"><a xlink:title=" ">
<path fill="none" stroke="#63b8ff" d="M2695.98,-170.56C2667.53,-153.49 2620.31,-126.2 2600.82,-121 2562.51,-110.77 1299.04,-82.48 1064.94,-77.31"/>
<polygon fill="#63b8ff" stroke="#63b8ff" points="2694.47,-173.74 2704.84,-175.91 2698.09,-167.74 2694.47,-173.74"/>
</a>
</g>
</g>
<!-- Node33&#45;&gt;Node18 -->
<g id="edge62_Node000033_Node000018" class="edge">
<title>Node33&#45;&gt;Node18</title>
<g id="a_edge62_Node000033_Node000018"><a xlink:title=" ">
<path fill="none" stroke="#63b8ff" d="M2642.19,-176.31C2641.06,-176.2 2639.94,-176.1 2638.82,-176 2458.9,-159.8 2248.34,-145.24 2129.97,-137.46"/>
<polygon fill="#63b8ff" stroke="#63b8ff" points="2642.2,-179.82 2652.48,-177.29 2642.86,-172.85 2642.2,-179.82"/>
</a>
</g>
</g>
<!-- Node34 -->
<g id="Node000034" class="node">
<title>Node34</title>
<g id="a_Node000034"><a xlink:href="DirektTabPanel_8cpp.html" target="_top" xlink:title=" ">
<polygon fill="white" stroke="#666666" points="2796.32,-140 2653.32,-140 2653.32,-121 2796.32,-121 2796.32,-140"/>
<text text-anchor="middle" x="2724.82" y="-128" font-family="Helvetica,sans-Serif" font-size="10.00">layout/DirektTabPanel.cpp</text>
</a>
</g>
</g>
<!-- Node33&#45;&gt;Node34 -->
<g id="edge63_Node000033_Node000034" class="edge">
<title>Node33&#45;&gt;Node34</title>
<g id="a_edge63_Node000033_Node000034"><a xlink:title=" ">
<path fill="none" stroke="#63b8ff" d="M2720.96,-165.66C2721.94,-156.93 2723.07,-146.99 2723.85,-140.09"/>
<polygon fill="#63b8ff" stroke="#63b8ff" points="2717.46,-165.42 2719.81,-175.75 2724.42,-166.21 2717.46,-165.42"/>
</a>
</g>
</g>
<!-- Node35&#45;&gt;Node2 -->
<g id="edge65_Node000035_Node000002" class="edge">
<title>Node35&#45;&gt;Node2</title>
<g id="a_edge65_Node000035_Node000002"><a xlink:title=" ">
<path fill="none" stroke="#63b8ff" d="M1096.86,-172.39C1079.12,-165.5 1059.83,-155.14 1046.82,-140 1033.18,-124.11 1029.33,-98.72 1028.25,-85.37"/>
<polygon fill="#63b8ff" stroke="#63b8ff" points="1095.9,-175.76 1106.5,-175.87 1098.28,-169.18 1095.9,-175.76"/>
</a>
</g>
</g>
<!-- Node35&#45;&gt;Node6 -->
<g id="edge66_Node000035_Node000006" class="edge">
<title>Node35&#45;&gt;Node6</title>
<g id="a_edge66_Node000035_Node000006"><a xlink:title=" ">
<path fill="none" stroke="#63b8ff" d="M1091.43,-173.82C1045.52,-163.88 978,-149.28 935.49,-140.08"/>
<polygon fill="#63b8ff" stroke="#63b8ff" points="1090.95,-177.29 1101.46,-175.98 1092.43,-170.45 1090.95,-177.29"/>
</a>
</g>
</g>
<!-- Node35&#45;&gt;Node18 -->
<g id="edge67_Node000035_Node000018" class="edge">
<title>Node35&#45;&gt;Node18</title>
<g id="a_edge67_Node000035_Node000018"><a xlink:title=" ">
<path fill="none" stroke="#63b8ff" d="M1227.27,-177.46C1234.22,-176.95 1241.14,-176.45 1247.82,-176 1499.17,-158.93 1795.88,-143.45 1943.56,-136.07"/>
<polygon fill="#63b8ff" stroke="#63b8ff" points="1226.79,-173.99 1217.09,-178.23 1227.32,-180.97 1226.79,-173.99"/>
</a>
</g>
</g>
<!-- Node36 -->
<g id="Node000036" class="node">
<title>Node36</title>
<g id="a_Node000036"><a xlink:href="DirektLookAndFeel_8cpp.html" target="_top" xlink:title=" ">
<polygon fill="white" stroke="#666666" points="1219.82,-140 1055.82,-140 1055.82,-121 1219.82,-121 1219.82,-140"/>
<text text-anchor="middle" x="1137.82" y="-128" font-family="Helvetica,sans-Serif" font-size="10.00">theme/DirektLookAndFeel.cpp</text>
</a>
</g>
</g>
<!-- Node35&#45;&gt;Node36 -->
<g id="edge68_Node000035_Node000036" class="edge">
<title>Node35&#45;&gt;Node36</title>
<g id="a_edge68_Node000035_Node000036"><a xlink:title=" ">
<path fill="none" stroke="#63b8ff" d="M1139.76,-165.66C1139.26,-156.93 1138.7,-146.99 1138.31,-140.09"/>
<polygon fill="#63b8ff" stroke="#63b8ff" points="1136.27,-165.96 1140.33,-175.75 1143.26,-165.57 1136.27,-165.96"/>
</a>
</g>
</g>
</g>
</svg>
