<?xml version="1.0" encoding="UTF-8" standalone="no"?>
<!DOCTYPE svg PUBLIC "-//W3C//DTD SVG 1.1//EN"
 "http://www.w3.org/Graphics/SVG/1.1/DTD/svg11.dtd">
<!-- Generated by graphviz version 2.43.0 (0)
 -->
<!-- Title: core/DirektComponentRegistry.cpp Pages: 1 -->
<!--zoomable 280 -->

<svg id="main" version="1.1" xmlns="http://www.w3.org/2000/svg" xmlns:xlink="http://www.w3.org/1999/xlink" xml:space="preserve" onload="init(evt)">
<style type="text/css"><![CDATA[
.node, .edge {opacity: 0.7;}
.node.selected, .edge.selected {opacity: 1;}
.edge:hover path { stroke: red; }
.edge:hover polygon { stroke: red; fill: red; }
]]></style>

<defs>
  <circle id="rim" cx="0" cy="0" r="7"/>
  <circle id="rim2" cx="0" cy="0" r="3.5"/>
  <g id="zoomPlus">
    <use xlink:href="#rim" fill="#404040"><set attributeName="fill" to="#808080" begin="zoomplus.mouseover" end="zoomplus.mouseout"/></use>
    <path d="M-4,0h8M0,-4v8" fill="none" stroke="white" stroke-width="1.5" pointer-events="none"/>
  </g>
  <g id="zoomMin">
    <use xlink:href="#rim" fill="#404040"><set attributeName="fill" to="#808080" begin="zoomminus.mouseover" end="zoomminus.mouseout"/></use>
    <path d="M-4,0h8" fill="none" stroke="white" stroke-width="1.5" pointer-events="none"/>
  </g>
  <g id="arrowUp" transform="translate(30 24)">
    <use xlink:href="#rim"/>
    <path pointer-events="none" fill="none" stroke="white" stroke-width="1.5" d="M0,-3.0v7 M-2.5,-0.5L0,-3.0L2.5,-0.5"/>
  </g>
  <g id="arrowRight" transform="rotate(90) translate(36 -43)">
    <use xlink:href="#rim"/>
    <path pointer-events="none" fill="none" stroke="white" stroke-width="1.5" d="M0,-3.0v7 M-2.5,-0.5L0,-3.0L2.5,-0.5"/>
  </g>
  <g id="arrowDown" transform="rotate(180) translate(-30 -48)">
    <use xlink:href="#rim"/>
    <path pointer-events="none" fill="none" stroke="white" stroke-width="1.5" d="M0,-3.0v7 M-2.5,-0.5L0,-3.0L2.5,-0.5"/>
  </g>
  <g id="arrowLeft" transform="rotate(270) translate(-36 17)">
    <use xlink:href="#rim"/>
    <path pointer-events="none" fill="none" stroke="white" stroke-width="1.5" d="M0,-3.0v7 M-2.5,-0.5L0,-3.0L2.5,-0.5"/>
  </g>
  <g id="resetDef">
    <use xlink:href="#rim2" fill="#404040"><set attributeName="fill" to="#808080" begin="reset.mouseover" end="reset.mouseout"/></use>
  </g>
</defs>
<script type="application/ecmascript">
var viewWidth = 2478;
var viewHeight = 280;
var sectionId = 'dynsection-0';
</script>
<script type="application/ecmascript" xlink:href="svg.min.js"/>
<svg id="graph" class="graph">
<g id="viewport">
<title>core/DirektComponentRegistry.cpp</title>
<!-- Node1 -->
<g id="Node000001" class="node">
<title>Node1</title>
<g id="a_Node000001"><a xlink:title=" ">
<polygon fill="#999999" stroke="#666666" points="1575.5,-272 1389.5,-272 1389.5,-253 1575.5,-253 1575.5,-272"/>
<text text-anchor="middle" x="1482.5" y="-260" font-family="Helvetica,sans-Serif" font-size="10.00">core/DirektComponentRegistry.cpp</text>
</a>
</g>
</g>
<!-- Node2 -->
<g id="Node000002" class="node">
<title>Node2</title>
<g id="a_Node000002"><a xlink:href="DirektComponentRegistry_8h.html" target="_top" xlink:title=" ">
<polygon fill="white" stroke="#666666" points="945,-211.5 770,-211.5 770,-192.5 945,-192.5 945,-211.5"/>
<text text-anchor="middle" x="857.5" y="-199.5" font-family="Helvetica,sans-Serif" font-size="10.00">core/DirektComponentRegistry.h</text>
</a>
</g>
</g>
<!-- Node1&#45;&gt;Node2 -->
<g id="edge1_Node000001_Node000002" class="edge">
<title>Node1&#45;&gt;Node2</title>
<g id="a_edge1_Node000001_Node000002"><a xlink:title=" ">
<path fill="none" stroke="#63b8ff" d="M1391.62,-252.99C1275.41,-242.12 1074.96,-223.35 955.45,-212.17"/>
<polygon fill="#63b8ff" stroke="#63b8ff" points="955.49,-208.66 945.21,-211.21 954.84,-215.63 955.49,-208.66"/>
</a>
</g>
</g>
<!-- Node13 -->
<g id="Node000013" class="node">
<title>Node13</title>
<g id="a_Node000013"><a xlink:href="DirektComboBox_8h.html" target="_top" xlink:title=" ">
<polygon fill="white" stroke="#666666" points="151,-151 0,-151 0,-132 151,-132 151,-151"/>
<text text-anchor="middle" x="75.5" y="-139" font-family="Helvetica,sans-Serif" font-size="10.00">controls/DirektComboBox.h</text>
</a>
</g>
</g>
<!-- Node1&#45;&gt;Node13 -->
<g id="edge18_Node000001_Node000013" class="edge">
<title>Node1&#45;&gt;Node13</title>
<g id="a_edge18_Node000001_Node000013"><a xlink:title=" ">
<path fill="none" stroke="#63b8ff" d="M1389.15,-260.89C1152.03,-258.87 530.96,-250.46 327.5,-217 246.35,-203.66 154.53,-172.16 107.3,-154.7"/>
<polygon fill="#63b8ff" stroke="#63b8ff" points="108.24,-151.31 97.65,-151.09 105.79,-157.87 108.24,-151.31"/>
</a>
</g>
</g>
<!-- Node14 -->
<g id="Node000014" class="node">
<title>Node14</title>
<g id="a_Node000014"><a xlink:href="DirektKnob_8h.html" target="_top" xlink:title=" ">
<polygon fill="white" stroke="#666666" points="291.5,-151 169.5,-151 169.5,-132 291.5,-132 291.5,-151"/>
<text text-anchor="middle" x="230.5" y="-139" font-family="Helvetica,sans-Serif" font-size="10.00">controls/DirektKnob.h</text>
</a>
</g>
</g>
<!-- Node1&#45;&gt;Node14 -->
<g id="edge21_Node000001_Node000014" class="edge">
<title>Node1&#45;&gt;Node14</title>
<g id="a_edge21_Node000001_Node000014"><a xlink:title=" ">
<path fill="none" stroke="#63b8ff" d="M1389.37,-261.49C1166.18,-260.83 605.72,-255.3 422.5,-217 360.6,-204.06 292.58,-173.44 256.45,-155.74"/>
<polygon fill="#63b8ff" stroke="#63b8ff" points="257.65,-152.43 247.13,-151.12 254.54,-158.7 257.65,-152.43"/>
</a>
</g>
</g>
<!-- Node16 -->
<g id="Node000016" class="node">
<title>Node16</title>
<g id="a_Node000016"><a xlink:href="DirektMacroControl_8h.html" target="_top" xlink:title=" ">
<polygon fill="white" stroke="#666666" points="1287,-151 1124,-151 1124,-132 1287,-132 1287,-151"/>
<text text-anchor="middle" x="1205.5" y="-139" font-family="Helvetica,sans-Serif" font-size="10.00">controls/DirektMacroControl.h</text>
</a>
</g>
</g>
<!-- Node1&#45;&gt;Node16 -->
<g id="edge25_Node000001_Node000016" class="edge">
<title>Node1&#45;&gt;Node16</title>
<g id="a_edge25_Node000001_Node000016"><a xlink:title=" ">
<path fill="none" stroke="#63b8ff" d="M1408.11,-253C1352.16,-245.48 1281.09,-233.2 1256.5,-217 1235.69,-203.29 1221.05,-177.87 1212.95,-160.58"/>
<polygon fill="#63b8ff" stroke="#63b8ff" points="1215.99,-158.78 1208.76,-151.04 1209.58,-161.6 1215.99,-158.78"/>
</a>
</g>
</g>
<!-- Node17 -->
<g id="Node000017" class="node">
<title>Node17</title>
<g id="a_Node000017"><a xlink:href="DirektToggle_8h.html" target="_top" xlink:title=" ">
<polygon fill="white" stroke="#666666" points="439,-151 310,-151 310,-132 439,-132 439,-151"/>
<text text-anchor="middle" x="374.5" y="-139" font-family="Helvetica,sans-Serif" font-size="10.00">controls/DirektToggle.h</text>
</a>
</g>
</g>
<!-- Node1&#45;&gt;Node17 -->
<g id="edge29_Node000001_Node000017" class="edge">
<title>Node1&#45;&gt;Node17</title>
<g id="a_edge29_Node000001_Node000017"><a xlink:title=" ">
<path fill="none" stroke="#63b8ff" d="M1389.12,-260.44C1156.01,-257.37 561.09,-246.69 476.5,-217 441.53,-204.73 408.28,-176.19 389.72,-158.22"/>
<polygon fill="#63b8ff" stroke="#63b8ff" points="392.04,-155.59 382.49,-151.01 387.1,-160.55 392.04,-155.59"/>
</a>
</g>
</g>
<!-- Node18 -->
<g id="Node000018" class="node">
<title>Node18</title>
<g id="a_Node000018"><a xlink:href="DirektClipIndicator_8h.html" target="_top" xlink:title=" ">
<polygon fill="white" stroke="#666666" points="2181,-151 2026,-151 2026,-132 2181,-132 2181,-151"/>
<text text-anchor="middle" x="2103.5" y="-139" font-family="Helvetica,sans-Serif" font-size="10.00">display/DirektClipIndicator.h</text>
</a>
</g>
</g>
<!-- Node1&#45;&gt;Node18 -->
<g id="edge32_Node000001_Node000018" class="edge">
<title>Node1&#45;&gt;Node18</title>
<g id="a_edge32_Node000001_Node000018"><a xlink:title=" ">
<path fill="none" stroke="#63b8ff" d="M1575.7,-260.21C1705.87,-257.31 1934.81,-247.84 2011.5,-217 2042.96,-204.35 2072.09,-177.06 2088.82,-159.25"/>
<polygon fill="#63b8ff" stroke="#63b8ff" points="2091.84,-161.13 2095.99,-151.38 2086.67,-156.41 2091.84,-161.13"/>
</a>
</g>
</g>
<!-- Node19 -->
<g id="Node000019" class="node">
<title>Node19</title>
<g id="a_Node000019"><a xlink:href="DirektColours_8h.html" target="_top" xlink:title=" ">
<polygon fill="white" stroke="#666666" points="2023,-90.5 1896,-90.5 1896,-71.5 2023,-71.5 2023,-90.5"/>
<text text-anchor="middle" x="1959.5" y="-78.5" font-family="Helvetica,sans-Serif" font-size="10.00">theme/DirektColours.h</text>
</a>
</g>
</g>
<!-- Node1&#45;&gt;Node19 -->
<g id="edge68_Node000001_Node000019" class="edge">
<title>Node1&#45;&gt;Node19</title>
<g id="a_edge68_Node000001_Node000019"><a xlink:title=" ">
<path fill="none" stroke="#63b8ff" d="M1575.72,-258.05C1646.4,-253.4 1745.26,-242.5 1828.5,-217 1890.83,-197.9 1925.31,-206.51 1959.5,-151 1968.71,-136.04 1967.37,-115.59 1964.54,-100.83"/>
<polygon fill="#63b8ff" stroke="#63b8ff" points="1967.9,-99.81 1962.24,-90.85 1961.08,-101.38 1967.9,-99.81"/>
</a>
</g>
</g>
<!-- Node20 -->
<g id="Node000020" class="node">
<title>Node20</title>
<g id="a_Node000020"><a xlink:href="DirektLabel_8h.html" target="_top" xlink:title=" ">
<polygon fill="white" stroke="#666666" points="2469.5,-151 2349.5,-151 2349.5,-132 2469.5,-132 2469.5,-151"/>
<text text-anchor="middle" x="2409.5" y="-139" font-family="Helvetica,sans-Serif" font-size="10.00">display/DirektLabel.h</text>
</a>
</g>
</g>
<!-- Node1&#45;&gt;Node20 -->
<g id="edge37_Node000001_Node000020" class="edge">
<title>Node1&#45;&gt;Node20</title>
<g id="a_edge37_Node000001_Node000020"><a xlink:title=" ">
<path fill="none" stroke="#63b8ff" d="M1575.57,-260.05C1699.18,-256.96 1923.99,-247.29 2113.5,-217 2208.33,-201.84 2317.23,-170.81 2372.76,-153.98"/>
<polygon fill="#63b8ff" stroke="#63b8ff" points="2373.95,-157.27 2382.49,-151.01 2371.91,-150.58 2373.95,-157.27"/>
</a>
</g>
</g>
<!-- Node21 -->
<g id="Node000021" class="node">
<title>Node21</title>
<g id="a_Node000021"><a xlink:href="DirektMeter_8h.html" target="_top" xlink:title=" ">
<polygon fill="white" stroke="#666666" points="1685.5,-151 1563.5,-151 1563.5,-132 1685.5,-132 1685.5,-151"/>
<text text-anchor="middle" x="1624.5" y="-139" font-family="Helvetica,sans-Serif" font-size="10.00">display/DirektMeter.h</text>
</a>
</g>
</g>
<!-- Node1&#45;&gt;Node21 -->
<g id="edge40_Node000001_Node000021" class="edge">
<title>Node1&#45;&gt;Node21</title>
<g id="a_edge40_Node000001_Node000021"><a xlink:title=" ">
<path fill="none" stroke="#63b8ff" d="M1492.71,-252.94C1516.54,-232.97 1576.1,-183.06 1606.31,-157.75"/>
<polygon fill="#63b8ff" stroke="#63b8ff" points="1608.58,-160.41 1614,-151.3 1604.08,-155.04 1608.58,-160.41"/>
</a>
</g>
</g>
<!-- Node22 -->
<g id="Node000022" class="node">
<title>Node22</title>
<g id="a_Node000022"><a xlink:href="DirektStereoMeter_8h.html" target="_top" xlink:title=" ">
<polygon fill="white" stroke="#666666" points="1790,-211.5 1637,-211.5 1637,-192.5 1790,-192.5 1790,-211.5"/>
<text text-anchor="middle" x="1713.5" y="-199.5" font-family="Helvetica,sans-Serif" font-size="10.00">display/DirektStereoMeter.h</text>
</a>
</g>
</g>
<!-- Node1&#45;&gt;Node22 -->
<g id="edge44_Node000001_Node000022" class="edge">
<title>Node1&#45;&gt;Node22</title>
<g id="a_edge44_Node000001_Node000022"><a xlink:title=" ">
<path fill="none" stroke="#63b8ff" d="M1516.09,-252.99C1556.81,-242.68 1625.5,-225.28 1670.17,-213.97"/>
<polygon fill="#63b8ff" stroke="#63b8ff" points="1671.04,-217.36 1679.87,-211.52 1669.32,-210.58 1671.04,-217.36"/>
</a>
</g>
</g>
<!-- Node23 -->
<g id="Node000023" class="node">
<title>Node23</title>
<g id="a_Node000023"><a xlink:href="DirektFlexContainer_8h.html" target="_top" xlink:title=" ">
<polygon fill="white" stroke="#666666" points="1422,-211.5 1265,-211.5 1265,-192.5 1422,-192.5 1422,-211.5"/>
<text text-anchor="middle" x="1343.5" y="-199.5" font-family="Helvetica,sans-Serif" font-size="10.00">layout/DirektFlexContainer.h</text>
</a>
</g>
</g>
<!-- Node1&#45;&gt;Node23 -->
<g id="edge49_Node000001_Node000023" class="edge">
<title>Node1&#45;&gt;Node23</title>
<g id="a_edge49_Node000001_Node000023"><a xlink:title=" ">
<path fill="none" stroke="#63b8ff" d="M1462.29,-252.99C1438.82,-243.12 1399.89,-226.73 1373.04,-215.43"/>
<polygon fill="#63b8ff" stroke="#63b8ff" points="1374.31,-212.17 1363.74,-211.52 1371.6,-218.62 1374.31,-212.17"/>
</a>
</g>
</g>
<!-- Node24 -->
<g id="Node000024" class="node">
<title>Node24</title>
<g id="a_Node000024"><a xlink:href="DirektModuleBypassSoloStrip_8h.html" target="_top" xlink:title=" ">
<polygon fill="white" stroke="#666666" points="637.5,-217 485.5,-217 485.5,-187 637.5,-187 637.5,-217"/>
<text text-anchor="start" x="493.5" y="-205" font-family="Helvetica,sans-Serif" font-size="10.00">layout/DirektModuleBypass</text>
<text text-anchor="middle" x="561.5" y="-194" font-family="Helvetica,sans-Serif" font-size="10.00">SoloStrip.h</text>
</a>
</g>
</g>
<!-- Node1&#45;&gt;Node24 -->
<g id="edge53_Node000001_Node000024" class="edge">
<title>Node1&#45;&gt;Node24</title>
<g id="a_edge53_Node000001_Node000024"><a xlink:title=" ">
<path fill="none" stroke="#63b8ff" d="M1389.31,-256.02C1251.74,-247.86 986.22,-231.9 760.5,-217 723.54,-214.56 682.73,-211.72 647.74,-209.23"/>
<polygon fill="#63b8ff" stroke="#63b8ff" points="647.78,-205.73 637.56,-208.51 647.29,-212.71 647.78,-205.73"/>
</a>
</g>
</g>
<!-- Node25 -->
<g id="Node000025" class="node">
<title>Node25</title>
<g id="a_Node000025"><a xlink:href="DirektSection_8h.html" target="_top" xlink:title=" ">
<polygon fill="white" stroke="#666666" points="1545,-151 1420,-151 1420,-132 1545,-132 1545,-151"/>
<text text-anchor="middle" x="1482.5" y="-139" font-family="Helvetica,sans-Serif" font-size="10.00">layout/DirektSection.h</text>
</a>
</g>
</g>
<!-- Node1&#45;&gt;Node25 -->
<g id="edge59_Node000001_Node000025" class="edge">
<title>Node1&#45;&gt;Node25</title>
<g id="a_edge59_Node000001_Node000025"><a xlink:title=" ">
<path fill="none" stroke="#63b8ff" d="M1482.5,-252.94C1482.5,-233.91 1482.5,-187.69 1482.5,-161.47"/>
<polygon fill="#63b8ff" stroke="#63b8ff" points="1486,-161.3 1482.5,-151.3 1479,-161.3 1486,-161.3"/>
</a>
</g>
</g>
<!-- Node26 -->
<g id="Node000026" class="node">
<title>Node26</title>
<g id="a_Node000026"><a xlink:href="DirektTabPanel_8h.html" target="_top" xlink:title=" ">
<polygon fill="white" stroke="#666666" points="2331.5,-151 2199.5,-151 2199.5,-132 2331.5,-132 2331.5,-151"/>
<text text-anchor="middle" x="2265.5" y="-139" font-family="Helvetica,sans-Serif" font-size="10.00">layout/DirektTabPanel.h</text>
</a>
</g>
</g>
<!-- Node1&#45;&gt;Node26 -->
<g id="edge64_Node000001_Node000026" class="edge">
<title>Node1&#45;&gt;Node26</title>
<g id="a_edge64_Node000001_Node000026"><a xlink:title=" ">
<path fill="none" stroke="#63b8ff" d="M1575.66,-261.33C1688.67,-259.5 1884.43,-251.04 2048.5,-217 2117.86,-202.61 2195.57,-172.26 2236.56,-155.07"/>
<polygon fill="#63b8ff" stroke="#63b8ff" points="2238.08,-158.23 2245.93,-151.1 2235.35,-151.78 2238.08,-158.23"/>
</a>
</g>
</g>
<!-- Node27 -->
<g id="Node000027" class="node">
<title>Node27</title>
<g id="a_Node000027"><a xlink:href="DirektLookAndFeel_8h.html" target="_top" xlink:title=" ">
<polygon fill="white" stroke="#666666" points="1931.5,-151 1779.5,-151 1779.5,-132 1931.5,-132 1931.5,-151"/>
<text text-anchor="middle" x="1855.5" y="-139" font-family="Helvetica,sans-Serif" font-size="10.00">theme/DirektLookAndFeel.h</text>
</a>
</g>
</g>
<!-- Node1&#45;&gt;Node27 -->
<g id="edge69_Node000001_Node000027" class="edge">
<title>Node1&#45;&gt;Node27</title>
<g id="a_edge69_Node000001_Node000027"><a xlink:title=" ">
<path fill="none" stroke="#63b8ff" d="M1575.82,-256.29C1655.41,-250.43 1762.64,-238.74 1799.5,-217 1821.87,-203.81 1838.2,-177.87 1847.27,-160.36"/>
<polygon fill="#63b8ff" stroke="#63b8ff" points="1850.51,-161.7 1851.77,-151.18 1844.23,-158.62 1850.51,-161.7"/>
</a>
</g>
</g>
<!-- Node3 -->
<g id="Node000003" class="node">
<title>Node3</title>
<g id="a_Node000003"><a xlink:title=" ">
<polygon fill="#e0e0e0" stroke="#999999" points="526,-96 387,-96 387,-66 526,-66 526,-96"/>
<text text-anchor="start" x="395" y="-84" font-family="Helvetica,sans-Serif" font-size="10.00">juce_audio_processors</text>
<text text-anchor="middle" x="456.5" y="-73" font-family="Helvetica,sans-Serif" font-size="10.00">/juce_audio_processors.h</text>
</a>
</g>
</g>
<!-- Node2&#45;&gt;Node3 -->
<g id="edge2_Node000002_Node000003" class="edge">
<title>Node2&#45;&gt;Node3</title>
<g id="a_edge2_Node000002_Node000003"><a xlink:title=" ">
<path fill="none" stroke="#63b8ff" d="M792.73,-192.49C741.18,-184.68 667.63,-171.23 605.5,-151 564.78,-137.74 520.53,-116.28 490.93,-100.81"/>
<polygon fill="#63b8ff" stroke="#63b8ff" points="492.33,-97.59 481.85,-96.02 489.06,-103.78 492.33,-97.59"/>
</a>
</g>
</g>
<!-- Node4 -->
<g id="Node000004" class="node">
<title>Node4</title>
<g id="a_Node000004"><a xlink:title=" ">
<polygon fill="#e0e0e0" stroke="#999999" points="1474.5,-30 1358.5,-30 1358.5,0 1474.5,0 1474.5,-30"/>
<text text-anchor="start" x="1366.5" y="-18" font-family="Helvetica,sans-Serif" font-size="10.00">juce_gui_basics/juce</text>
<text text-anchor="middle" x="1416.5" y="-7" font-family="Helvetica,sans-Serif" font-size="10.00">_gui_basics.h</text>
</a>
</g>
</g>
<!-- Node2&#45;&gt;Node4 -->
<g id="edge3_Node000002_Node000004" class="edge">
<title>Node2&#45;&gt;Node4</title>
<g id="a_edge3_Node000002_Node000004"><a xlink:title=" ">
<path fill="none" stroke="#63b8ff" d="M772.67,-192.49C718.51,-185.11 655.4,-172.19 638.5,-151 633.24,-144.4 633.86,-139.06 638.5,-132 679.19,-70.13 719.63,-83.86 791.5,-66 895.34,-40.2 1208.24,-24.54 1347.9,-18.66"/>
<polygon fill="#63b8ff" stroke="#63b8ff" points="1348.21,-22.15 1358.05,-18.24 1347.92,-15.16 1348.21,-22.15"/>
</a>
</g>
</g>
<!-- Node5 -->
<g id="Node000005" class="node">
<title>Node5</title>
<g id="a_Node000005"><a xlink:title=" ">
<polygon fill="#e0e0e0" stroke="#999999" points="1449,-90.5 1384,-90.5 1384,-71.5 1449,-71.5 1449,-90.5"/>
<text text-anchor="middle" x="1416.5" y="-78.5" font-family="Helvetica,sans-Serif" font-size="10.00">functional</text>
</a>
</g>
</g>
<!-- Node2&#45;&gt;Node5 -->
<g id="edge4_Node000002_Node000005" class="edge">
<title>Node2&#45;&gt;Node5</title>
<g id="a_edge4_Node000002_Node000005"><a xlink:title=" ">
<path fill="none" stroke="#63b8ff" d="M945.11,-201.4C1035.34,-199.43 1179,-189.63 1296.5,-151 1334.79,-138.41 1374.42,-112.7 1397.2,-96.46"/>
<polygon fill="#63b8ff" stroke="#63b8ff" points="1399.3,-99.26 1405.33,-90.55 1395.19,-93.6 1399.3,-99.26"/>
</a>
</g>
</g>
<!-- Node6 -->
<g id="Node000006" class="node">
<title>Node6</title>
<g id="a_Node000006"><a xlink:title=" ">
<polygon fill="#e0e0e0" stroke="#999999" points="838.5,-90.5 800.5,-90.5 800.5,-71.5 838.5,-71.5 838.5,-90.5"/>
<text text-anchor="middle" x="819.5" y="-78.5" font-family="Helvetica,sans-Serif" font-size="10.00">map</text>
</a>
</g>
</g>
<!-- Node2&#45;&gt;Node6 -->
<g id="edge5_Node000002_Node000006" class="edge">
<title>Node2&#45;&gt;Node6</title>
<g id="a_edge5_Node000002_Node000006"><a xlink:title=" ">
<path fill="none" stroke="#63b8ff" d="M854.77,-192.44C848.66,-173.32 833.8,-126.77 825.45,-100.62"/>
<polygon fill="#63b8ff" stroke="#63b8ff" points="828.69,-99.26 822.31,-90.8 822.02,-101.39 828.69,-99.26"/>
</a>
</g>
</g>
<!-- Node7 -->
<g id="Node000007" class="node">
<title>Node7</title>
<g id="a_Node000007"><a xlink:title=" ">
<polygon fill="#e0e0e0" stroke="#999999" points="922.5,-90.5 864.5,-90.5 864.5,-71.5 922.5,-71.5 922.5,-90.5"/>
<text text-anchor="middle" x="893.5" y="-78.5" font-family="Helvetica,sans-Serif" font-size="10.00">memory</text>
</a>
</g>
</g>
<!-- Node2&#45;&gt;Node7 -->
<g id="edge6_Node000002_Node000007" class="edge">
<title>Node2&#45;&gt;Node7</title>
<g id="a_edge6_Node000002_Node000007"><a xlink:title=" ">
<path fill="none" stroke="#63b8ff" d="M859.89,-192.48C863.56,-179.43 870.88,-153.71 877.5,-132 880.71,-121.49 884.44,-109.78 887.5,-100.34"/>
<polygon fill="#63b8ff" stroke="#63b8ff" points="890.83,-101.42 890.59,-90.83 884.17,-99.25 890.83,-101.42"/>
</a>
</g>
</g>
<!-- Node8 -->
<g id="Node000008" class="node">
<title>Node8</title>
<g id="a_Node000008"><a xlink:title=" ">
<polygon fill="#e0e0e0" stroke="#999999" points="1174,-90.5 1127,-90.5 1127,-71.5 1174,-71.5 1174,-90.5"/>
<text text-anchor="middle" x="1150.5" y="-78.5" font-family="Helvetica,sans-Serif" font-size="10.00">vector</text>
</a>
</g>
</g>
<!-- Node2&#45;&gt;Node8 -->
<g id="edge7_Node000002_Node000008" class="edge">
<title>Node2&#45;&gt;Node8</title>
<g id="a_edge7_Node000002_Node000008"><a xlink:title=" ">
<path fill="none" stroke="#63b8ff" d="M933.41,-192.46C975.79,-185.49 1028.55,-173.02 1071.5,-151 1097.44,-137.7 1121.83,-114.05 1136.47,-98.2"/>
<polygon fill="#63b8ff" stroke="#63b8ff" points="1139.11,-100.49 1143.19,-90.71 1133.9,-95.82 1139.11,-100.49"/>
</a>
</g>
</g>
<!-- Node9 -->
<g id="Node000009" class="node">
<title>Node9</title>
<g id="a_Node000009"><a xlink:href="DirektDescriptors_8h.html" target="_top" xlink:title=" ">
<polygon fill="white" stroke="#666666" points="1029,-151 886,-151 886,-132 1029,-132 1029,-151"/>
<text text-anchor="middle" x="957.5" y="-139" font-family="Helvetica,sans-Serif" font-size="10.00">config/DirektDescriptors.h</text>
</a>
</g>
</g>
<!-- Node2&#45;&gt;Node9 -->
<g id="edge8_Node000002_Node000009" class="edge">
<title>Node2&#45;&gt;Node9</title>
<g id="a_edge8_Node000002_Node000009"><a xlink:title=" ">
<path fill="none" stroke="#63b8ff" d="M872.26,-192.37C888.5,-182.86 914.85,-167.45 933.96,-156.27"/>
<polygon fill="#63b8ff" stroke="#63b8ff" points="935.82,-159.24 942.68,-151.17 932.29,-153.2 935.82,-159.24"/>
</a>
</g>
</g>
<!-- Node11 -->
<g id="Node000011" class="node">
<title>Node11</title>
<g id="a_Node000011"><a xlink:href="DirektBuildContext_8h.html" target="_top" xlink:title=" ">
<polygon fill="white" stroke="#666666" points="791,-151 648,-151 648,-132 791,-132 791,-151"/>
<text text-anchor="middle" x="719.5" y="-139" font-family="Helvetica,sans-Serif" font-size="10.00">core/DirektBuildContext.h</text>
</a>
</g>
</g>
<!-- Node2&#45;&gt;Node11 -->
<g id="edge14_Node000002_Node000011" class="edge">
<title>Node2&#45;&gt;Node11</title>
<g id="a_edge14_Node000002_Node000011"><a xlink:title=" ">
<path fill="none" stroke="#63b8ff" d="M837.43,-192.49C814.13,-182.62 775.49,-166.23 748.82,-154.93"/>
<polygon fill="#63b8ff" stroke="#63b8ff" points="750.16,-151.7 739.59,-151.02 747.43,-158.14 750.16,-151.7"/>
</a>
</g>
</g>
<!-- Node9&#45;&gt;Node4 -->
<g id="edge9_Node000009_Node000004" class="edge">
<title>Node9&#45;&gt;Node4</title>
<g id="a_edge9_Node000009_Node000004"><a xlink:title=" ">
<path fill="none" stroke="#63b8ff" d="M956.96,-131.76C956.52,-115.95 958.12,-82.69 977.5,-66 1005.01,-42.31 1231.84,-26.32 1348.2,-19.59"/>
<polygon fill="#63b8ff" stroke="#63b8ff" points="1348.64,-23.07 1358.43,-19.01 1348.25,-16.08 1348.64,-23.07"/>
</a>
</g>
</g>
<!-- Node9&#45;&gt;Node6 -->
<g id="edge10_Node000009_Node000006" class="edge">
<title>Node9&#45;&gt;Node6</title>
<g id="a_edge10_Node000009_Node000006"><a xlink:title=" ">
<path fill="none" stroke="#63b8ff" d="M937.43,-131.99C913.87,-122 874.6,-105.36 847.91,-94.04"/>
<polygon fill="#63b8ff" stroke="#63b8ff" points="849.27,-90.82 838.7,-90.14 846.54,-97.26 849.27,-90.82"/>
</a>
</g>
</g>
<!-- Node9&#45;&gt;Node7 -->
<g id="edge11_Node000009_Node000007" class="edge">
<title>Node9&#45;&gt;Node7</title>
<g id="a_edge11_Node000009_Node000007"><a xlink:title=" ">
<path fill="none" stroke="#63b8ff" d="M948.06,-131.87C938.23,-122.88 922.61,-108.61 910.61,-97.64"/>
<polygon fill="#63b8ff" stroke="#63b8ff" points="912.72,-94.83 902.98,-90.67 908,-100 912.72,-94.83"/>
</a>
</g>
</g>
<!-- Node9&#45;&gt;Node8 -->
<g id="edge13_Node000009_Node000008" class="edge">
<title>Node9&#45;&gt;Node8</title>
<g id="a_edge13_Node000009_Node000008"><a xlink:title=" ">
<path fill="none" stroke="#63b8ff" d="M985.56,-131.99C1020.44,-121.42 1079.9,-103.4 1117.09,-92.13"/>
<polygon fill="#63b8ff" stroke="#63b8ff" points="1118.4,-95.39 1126.96,-89.14 1116.37,-88.69 1118.4,-95.39"/>
</a>
</g>
</g>
<!-- Node10 -->
<g id="Node000010" class="node">
<title>Node10</title>
<g id="a_Node000010"><a xlink:title=" ">
<polygon fill="#e0e0e0" stroke="#999999" points="1037,-90.5 986,-90.5 986,-71.5 1037,-71.5 1037,-90.5"/>
<text text-anchor="middle" x="1011.5" y="-78.5" font-family="Helvetica,sans-Serif" font-size="10.00">variant</text>
</a>
</g>
</g>
<!-- Node9&#45;&gt;Node10 -->
<g id="edge12_Node000009_Node000010" class="edge">
<title>Node9&#45;&gt;Node10</title>
<g id="a_edge12_Node000009_Node000010"><a xlink:title=" ">
<path fill="none" stroke="#63b8ff" d="M965.47,-131.87C973.6,-123.05 986.43,-109.16 996.48,-98.27"/>
<polygon fill="#63b8ff" stroke="#63b8ff" points="999.29,-100.39 1003.5,-90.67 994.14,-95.64 999.29,-100.39"/>
</a>
</g>
</g>
<!-- Node11&#45;&gt;Node3 -->
<g id="edge15_Node000011_Node000003" class="edge">
<title>Node11&#45;&gt;Node3</title>
<g id="a_edge15_Node000011_Node000003"><a xlink:title=" ">
<path fill="none" stroke="#63b8ff" d="M681.26,-131.99C641.61,-123.17 578.65,-109.17 529.44,-98.22"/>
<polygon fill="#63b8ff" stroke="#63b8ff" points="530,-94.76 519.47,-96.01 528.48,-101.6 530,-94.76"/>
</a>
</g>
</g>
<!-- Node11&#45;&gt;Node6 -->
<g id="edge17_Node000011_Node000006" class="edge">
<title>Node11&#45;&gt;Node6</title>
<g id="a_edge17_Node000011_Node000006"><a xlink:title=" ">
<path fill="none" stroke="#63b8ff" d="M734.26,-131.87C750.5,-122.36 776.85,-106.95 795.96,-95.77"/>
<polygon fill="#63b8ff" stroke="#63b8ff" points="797.82,-98.74 804.68,-90.67 794.29,-92.7 797.82,-98.74"/>
</a>
</g>
</g>
<!-- Node12 -->
<g id="Node000012" class="node">
<title>Node12</title>
<g id="a_Node000012"><a xlink:title=" ">
<polygon fill="#e0e0e0" stroke="#999999" points="1686.5,-90.5 1636.5,-90.5 1636.5,-71.5 1686.5,-71.5 1686.5,-90.5"/>
<text text-anchor="middle" x="1661.5" y="-78.5" font-family="Helvetica,sans-Serif" font-size="10.00">atomic</text>
</a>
</g>
</g>
<!-- Node11&#45;&gt;Node12 -->
<g id="edge16_Node000011_Node000012" class="edge">
<title>Node11&#45;&gt;Node12</title>
<g id="a_edge16_Node000011_Node000012"><a xlink:title=" ">
<path fill="none" stroke="#63b8ff" d="M791.11,-136.4C923.11,-128.78 1213.68,-111.81 1458.5,-96 1517.24,-92.21 1585.5,-87.42 1626.02,-84.54"/>
<polygon fill="#63b8ff" stroke="#63b8ff" points="1626.46,-88.02 1636.19,-83.82 1625.96,-81.04 1626.46,-88.02"/>
</a>
</g>
</g>
<!-- Node13&#45;&gt;Node3 -->
<g id="edge19_Node000013_Node000003" class="edge">
<title>Node13&#45;&gt;Node3</title>
<g id="a_edge19_Node000013_Node000003"><a xlink:title=" ">
<path fill="none" stroke="#63b8ff" d="M130.9,-131.99C195.55,-122.07 302.98,-105.57 376.64,-94.26"/>
<polygon fill="#63b8ff" stroke="#63b8ff" points="377.45,-97.68 386.8,-92.7 376.38,-90.76 377.45,-97.68"/>
</a>
</g>
</g>
<!-- Node13&#45;&gt;Node4 -->
<g id="edge20_Node000013_Node000004" class="edge">
<title>Node13&#45;&gt;Node4</title>
<g id="a_edge20_Node000013_Node000004"><a xlink:title=" ">
<path fill="none" stroke="#63b8ff" d="M85.02,-131.97C104,-115.56 148.63,-79.98 193.5,-66 303.63,-31.69 1106.76,-19.61 1348.1,-16.74"/>
<polygon fill="#63b8ff" stroke="#63b8ff" points="1348.19,-20.23 1358.15,-16.62 1348.1,-13.23 1348.19,-20.23"/>
</a>
</g>
</g>
<!-- Node14&#45;&gt;Node3 -->
<g id="edge22_Node000014_Node000003" class="edge">
<title>Node14&#45;&gt;Node3</title>
<g id="a_edge22_Node000014_Node000003"><a xlink:title=" ">
<path fill="none" stroke="#63b8ff" d="M263.36,-131.99C297.02,-123.28 350.23,-109.51 392.28,-98.62"/>
<polygon fill="#63b8ff" stroke="#63b8ff" points="393.36,-101.96 402.17,-96.06 391.61,-95.18 393.36,-101.96"/>
</a>
</g>
</g>
<!-- Node14&#45;&gt;Node4 -->
<g id="edge23_Node000014_Node000004" class="edge">
<title>Node14&#45;&gt;Node4</title>
<g id="a_edge23_Node000014_Node000004"><a xlink:title=" ">
<path fill="none" stroke="#63b8ff" d="M241.35,-132C262.93,-115.63 313.45,-80.14 362.5,-66 456.66,-38.86 1129.79,-22.16 1348.24,-17.41"/>
<polygon fill="#63b8ff" stroke="#63b8ff" points="1348.37,-20.9 1358.29,-17.19 1348.22,-13.91 1348.37,-20.9"/>
</a>
</g>
</g>
<!-- Node15 -->
<g id="Node000015" class="node">
<title>Node15</title>
<g id="a_Node000015"><a xlink:title=" ">
<polygon fill="#e0e0e0" stroke="#999999" points="258.5,-90.5 202.5,-90.5 202.5,-71.5 258.5,-71.5 258.5,-90.5"/>
<text text-anchor="middle" x="230.5" y="-78.5" font-family="Helvetica,sans-Serif" font-size="10.00">optional</text>
</a>
</g>
</g>
<!-- Node14&#45;&gt;Node15 -->
<g id="edge24_Node000014_Node000015" class="edge">
<title>Node14&#45;&gt;Node15</title>
<g id="a_edge24_Node000014_Node000015"><a xlink:title=" ">
<path fill="none" stroke="#63b8ff" d="M230.5,-131.87C230.5,-123.75 230.5,-111.31 230.5,-100.89"/>
<polygon fill="#63b8ff" stroke="#63b8ff" points="234,-100.67 230.5,-90.67 227,-100.67 234,-100.67"/>
</a>
</g>
</g>
<!-- Node16&#45;&gt;Node3 -->
<g id="edge26_Node000016_Node000003" class="edge">
<title>Node16&#45;&gt;Node3</title>
<g id="a_edge26_Node000016_Node000003"><a xlink:title=" ">
<path fill="none" stroke="#63b8ff" d="M1123.92,-134.13C979.24,-122.83 679.49,-99.42 536.18,-88.22"/>
<polygon fill="#63b8ff" stroke="#63b8ff" points="536.38,-84.73 526.14,-87.44 535.83,-91.71 536.38,-84.73"/>
</a>
</g>
</g>
<!-- Node16&#45;&gt;Node4 -->
<g id="edge27_Node000016_Node000004" class="edge">
<title>Node16&#45;&gt;Node4</title>
<g id="a_edge27_Node000016_Node000004"><a xlink:title=" ">
<path fill="none" stroke="#63b8ff" d="M1220,-131.94C1253.52,-112.17 1337.05,-62.88 1383.69,-35.36"/>
<polygon fill="#63b8ff" stroke="#63b8ff" points="1385.67,-38.26 1392.5,-30.16 1382.11,-32.23 1385.67,-38.26"/>
</a>
</g>
</g>
<!-- Node16&#45;&gt;Node8 -->
<g id="edge28_Node000016_Node000008" class="edge">
<title>Node16&#45;&gt;Node8</title>
<g id="a_edge28_Node000016_Node000008"><a xlink:title=" ">
<path fill="none" stroke="#63b8ff" d="M1197.38,-131.87C1189.1,-123.05 1176.03,-109.16 1165.8,-98.27"/>
<polygon fill="#63b8ff" stroke="#63b8ff" points="1168.05,-95.56 1158.65,-90.67 1162.95,-100.35 1168.05,-95.56"/>
</a>
</g>
</g>
<!-- Node17&#45;&gt;Node3 -->
<g id="edge30_Node000017_Node000003" class="edge">
<title>Node17&#45;&gt;Node3</title>
<g id="a_edge30_Node000017_Node000003"><a xlink:title=" ">
<path fill="none" stroke="#63b8ff" d="M386.6,-131.87C397.52,-124.08 414.01,-112.32 428.22,-102.17"/>
<polygon fill="#63b8ff" stroke="#63b8ff" points="430.61,-104.77 436.72,-96.11 426.54,-99.07 430.61,-104.77"/>
</a>
</g>
</g>
<!-- Node17&#45;&gt;Node4 -->
<g id="edge31_Node000017_Node000004" class="edge">
<title>Node17&#45;&gt;Node4</title>
<g id="a_edge31_Node000017_Node000004"><a xlink:title=" ">
<path fill="none" stroke="#63b8ff" d="M371.54,-131.68C366.92,-116.04 360.18,-83.46 377.5,-66 411.71,-31.52 1122.57,-19.68 1348.32,-16.78"/>
<polygon fill="#63b8ff" stroke="#63b8ff" points="1348.43,-20.28 1358.38,-16.65 1348.34,-13.28 1348.43,-20.28"/>
</a>
</g>
</g>
<!-- Node18&#45;&gt;Node4 -->
<g id="edge33_Node000018_Node000004" class="edge">
<title>Node18&#45;&gt;Node4</title>
<g id="a_edge33_Node000018_Node000004"><a xlink:title=" ">
<path fill="none" stroke="#63b8ff" d="M2098.21,-131.63C2087.92,-115.29 2063.46,-80.77 2032.5,-66 1937.2,-20.53 1624.31,-15.42 1484.75,-15.49"/>
<polygon fill="#63b8ff" stroke="#63b8ff" points="1484.6,-11.99 1474.6,-15.5 1484.61,-18.99 1484.6,-11.99"/>
</a>
</g>
</g>
<!-- Node18&#45;&gt;Node12 -->
<g id="edge34_Node000018_Node000012" class="edge">
<title>Node18&#45;&gt;Node12</title>
<g id="a_edge34_Node000018_Node000012"><a xlink:title=" ">
<path fill="none" stroke="#63b8ff" d="M2039.23,-131.99C1944.75,-119.49 1771.54,-96.56 1697.07,-86.71"/>
<polygon fill="#63b8ff" stroke="#63b8ff" points="1697.2,-83.19 1686.82,-85.35 1696.28,-90.13 1697.2,-83.19"/>
</a>
</g>
</g>
<!-- Node18&#45;&gt;Node19 -->
<g id="edge35_Node000018_Node000019" class="edge">
<title>Node18&#45;&gt;Node19</title>
<g id="a_edge35_Node000018_Node000019"><a xlink:title=" ">
<path fill="none" stroke="#63b8ff" d="M2082.56,-131.99C2058.14,-122.07 2017.57,-105.59 1989.73,-94.28"/>
<polygon fill="#63b8ff" stroke="#63b8ff" points="1991.05,-91.04 1980.46,-90.52 1988.41,-97.52 1991.05,-91.04"/>
</a>
</g>
</g>
<!-- Node19&#45;&gt;Node4 -->
<g id="edge36_Node000019_Node000004" class="edge">
<title>Node19&#45;&gt;Node4</title>
<g id="a_edge36_Node000019_Node000004"><a xlink:title=" ">
<path fill="none" stroke="#63b8ff" d="M1895.88,-72.5C1792.92,-60.37 1590.66,-36.53 1484.78,-24.05"/>
<polygon fill="#63b8ff" stroke="#63b8ff" points="1485.19,-20.57 1474.84,-22.88 1484.37,-27.52 1485.19,-20.57"/>
</a>
</g>
</g>
<!-- Node20&#45;&gt;Node4 -->
<g id="edge38_Node000020_Node000004" class="edge">
<title>Node20&#45;&gt;Node4</title>
<g id="a_edge38_Node000020_Node000004"><a xlink:title=" ">
<path fill="none" stroke="#63b8ff" d="M2383.62,-131.97C2334.11,-116.05 2222.32,-81.97 2125.5,-66 1892.8,-27.62 1612.37,-18.68 1485.18,-16.61"/>
<polygon fill="#63b8ff" stroke="#63b8ff" points="1484.88,-13.11 1474.83,-16.45 1484.77,-20.1 1484.88,-13.11"/>
</a>
</g>
</g>
<!-- Node20&#45;&gt;Node19 -->
<g id="edge39_Node000020_Node000019" class="edge">
<title>Node20&#45;&gt;Node19</title>
<g id="a_edge39_Node000020_Node000019"><a xlink:title=" ">
<path fill="none" stroke="#63b8ff" d="M2349.28,-132.67C2267.53,-122.04 2121.54,-103.06 2033.3,-91.59"/>
<polygon fill="#63b8ff" stroke="#63b8ff" points="2033.73,-88.12 2023.36,-90.3 2032.82,-95.06 2033.73,-88.12"/>
</a>
</g>
</g>
<!-- Node21&#45;&gt;Node4 -->
<g id="edge41_Node000021_Node000004" class="edge">
<title>Node21&#45;&gt;Node4</title>
<g id="a_edge41_Node000021_Node000004"><a xlink:title=" ">
<path fill="none" stroke="#63b8ff" d="M1610.2,-131.94C1577.16,-112.17 1494.82,-62.88 1448.84,-35.36"/>
<polygon fill="#63b8ff" stroke="#63b8ff" points="1450.54,-32.29 1440.16,-30.16 1446.94,-38.3 1450.54,-32.29"/>
</a>
</g>
</g>
<!-- Node21&#45;&gt;Node12 -->
<g id="edge42_Node000021_Node000012" class="edge">
<title>Node21&#45;&gt;Node12</title>
<g id="a_edge42_Node000021_Node000012"><a xlink:title=" ">
<path fill="none" stroke="#63b8ff" d="M1629.96,-131.87C1635.37,-123.31 1643.81,-109.97 1650.6,-99.24"/>
<polygon fill="#63b8ff" stroke="#63b8ff" points="1653.63,-100.99 1656.02,-90.67 1647.71,-97.25 1653.63,-100.99"/>
</a>
</g>
</g>
<!-- Node21&#45;&gt;Node19 -->
<g id="edge43_Node000021_Node000019" class="edge">
<title>Node21&#45;&gt;Node19</title>
<g id="a_edge43_Node000021_Node000019"><a xlink:title=" ">
<path fill="none" stroke="#63b8ff" d="M1673.21,-131.99C1733.5,-121.47 1836.09,-103.55 1900.7,-92.27"/>
<polygon fill="#63b8ff" stroke="#63b8ff" points="1901.48,-95.68 1910.73,-90.52 1900.28,-88.79 1901.48,-95.68"/>
</a>
</g>
</g>
<!-- Node22&#45;&gt;Node4 -->
<g id="edge45_Node000022_Node000004" class="edge">
<title>Node22&#45;&gt;Node4</title>
<g id="a_edge45_Node000022_Node000004"><a xlink:title=" ">
<path fill="none" stroke="#63b8ff" d="M1715.54,-192.44C1720.71,-168.42 1731.48,-99.87 1695.5,-66 1665.77,-38.02 1557.35,-25.3 1484.75,-19.82"/>
<polygon fill="#63b8ff" stroke="#63b8ff" points="1484.98,-16.33 1474.75,-19.09 1484.47,-23.31 1484.98,-16.33"/>
</a>
</g>
</g>
<!-- Node22&#45;&gt;Node12 -->
<g id="edge46_Node000022_Node000012" class="edge">
<title>Node22&#45;&gt;Node12</title>
<g id="a_edge46_Node000022_Node000012"><a xlink:title=" ">
<path fill="none" stroke="#63b8ff" d="M1712,-192.2C1709.51,-178.78 1703.85,-152.59 1694.5,-132 1689.16,-120.23 1681.23,-108.1 1674.48,-98.74"/>
<polygon fill="#63b8ff" stroke="#63b8ff" points="1677.27,-96.64 1668.49,-90.71 1671.66,-100.82 1677.27,-96.64"/>
</a>
</g>
</g>
<!-- Node22&#45;&gt;Node19 -->
<g id="edge48_Node000022_Node000019" class="edge">
<title>Node22&#45;&gt;Node19</title>
<g id="a_edge48_Node000022_Node000019"><a xlink:title=" ">
<path fill="none" stroke="#63b8ff" d="M1790.22,-192.63C1847.33,-184.88 1918.99,-171.42 1940.5,-151 1954.13,-138.06 1958.29,-116.32 1959.41,-100.69"/>
<polygon fill="#63b8ff" stroke="#63b8ff" points="1962.91,-100.74 1959.78,-90.61 1955.91,-100.48 1962.91,-100.74"/>
</a>
</g>
</g>
<!-- Node22&#45;&gt;Node21 -->
<g id="edge47_Node000022_Node000021" class="edge">
<title>Node22&#45;&gt;Node21</title>
<g id="a_edge47_Node000022_Node000021"><a xlink:title=" ">
<path fill="none" stroke="#63b8ff" d="M1700.37,-192.37C1686.17,-183.04 1663.3,-168.01 1646.38,-156.88"/>
<polygon fill="#63b8ff" stroke="#63b8ff" points="1647.97,-153.74 1637.69,-151.17 1644.12,-159.58 1647.97,-153.74"/>
</a>
</g>
</g>
<!-- Node23&#45;&gt;Node4 -->
<g id="edge50_Node000023_Node000004" class="edge">
<title>Node23&#45;&gt;Node4</title>
<g id="a_edge50_Node000023_Node000004"><a xlink:title=" ">
<path fill="none" stroke="#63b8ff" d="M1344.2,-192.33C1346.25,-170.2 1353.59,-110.25 1375.5,-66 1380.56,-55.78 1388.06,-45.81 1395.26,-37.48"/>
<polygon fill="#63b8ff" stroke="#63b8ff" points="1397.87,-39.82 1401.99,-30.06 1392.68,-35.12 1397.87,-39.82"/>
</a>
</g>
</g>
<!-- Node23&#45;&gt;Node8 -->
<g id="edge51_Node000023_Node000008" class="edge">
<title>Node23&#45;&gt;Node8</title>
<g id="a_edge51_Node000023_Node000008"><a xlink:title=" ">
<path fill="none" stroke="#63b8ff" d="M1339.9,-192.48C1333.36,-177.99 1318.17,-148.52 1296.5,-132 1263.1,-106.53 1215.85,-93.51 1184.24,-87.23"/>
<polygon fill="#63b8ff" stroke="#63b8ff" points="1184.64,-83.75 1174.17,-85.36 1183.36,-90.63 1184.64,-83.75"/>
</a>
</g>
</g>
<!-- Node23&#45;&gt;Node9 -->
<g id="edge52_Node000023_Node000009" class="edge">
<title>Node23&#45;&gt;Node9</title>
<g id="a_edge52_Node000023_Node000009"><a xlink:title=" ">
<path fill="none" stroke="#63b8ff" d="M1287.37,-192.49C1217.48,-181.9 1098.24,-163.83 1023.88,-152.56"/>
<polygon fill="#63b8ff" stroke="#63b8ff" points="1024.11,-149.05 1013.7,-151.02 1023.06,-155.98 1024.11,-149.05"/>
</a>
</g>
</g>
<!-- Node24&#45;&gt;Node3 -->
<g id="edge54_Node000024_Node000003" class="edge">
<title>Node24&#45;&gt;Node3</title>
<g id="a_edge54_Node000024_Node000003"><a xlink:title=" ">
<path fill="none" stroke="#63b8ff" d="M535.85,-186.87C521.46,-178 503.96,-165.5 491.5,-151 480.02,-137.64 471.11,-119.86 465.16,-105.69"/>
<polygon fill="#63b8ff" stroke="#63b8ff" points="468.3,-104.12 461.35,-96.13 461.8,-106.71 468.3,-104.12"/>
</a>
</g>
</g>
<!-- Node24&#45;&gt;Node4 -->
<g id="edge55_Node000024_Node000004" class="edge">
<title>Node24&#45;&gt;Node4</title>
<g id="a_edge55_Node000024_Node000004"><a xlink:title=" ">
<path fill="none" stroke="#63b8ff" d="M567.62,-186.77C581.13,-157.44 616.65,-90.95 670.5,-66 731.02,-37.96 1175.3,-22.71 1348.06,-17.79"/>
<polygon fill="#63b8ff" stroke="#63b8ff" points="1348.4,-21.28 1358.3,-17.5 1348.2,-14.29 1348.4,-21.28"/>
</a>
</g>
</g>
<!-- Node24&#45;&gt;Node7 -->
<g id="edge56_Node000024_Node000007" class="edge">
<title>Node24&#45;&gt;Node7</title>
<g id="a_edge56_Node000024_Node000007"><a xlink:title=" ">
<path fill="none" stroke="#63b8ff" d="M572.92,-186.8C586.68,-170.75 611.35,-145.13 638.5,-132 723.35,-90.95 755.79,-117.76 847.5,-96 850.85,-95.2 854.32,-94.3 857.77,-93.35"/>
<polygon fill="#63b8ff" stroke="#63b8ff" points="858.75,-96.71 867.38,-90.57 856.8,-89.98 858.75,-96.71"/>
</a>
</g>
</g>
<!-- Node24&#45;&gt;Node8 -->
<g id="edge57_Node000024_Node000008" class="edge">
<title>Node24&#45;&gt;Node8</title>
<g id="a_edge57_Node000024_Node000008"><a xlink:title=" ">
<path fill="none" stroke="#63b8ff" d="M637.74,-194.88C762.85,-184.56 1001.55,-163.58 1038.5,-151 1043.37,-149.34 1096.88,-115.83 1128.14,-96.13"/>
<polygon fill="#63b8ff" stroke="#63b8ff" points="1130.09,-99.04 1136.68,-90.74 1126.36,-93.11 1130.09,-99.04"/>
</a>
</g>
</g>
<!-- Node24&#45;&gt;Node17 -->
<g id="edge58_Node000024_Node000017" class="edge">
<title>Node24&#45;&gt;Node17</title>
<g id="a_edge58_Node000024_Node000017"><a xlink:title=" ">
<path fill="none" stroke="#63b8ff" d="M516.71,-186.99C484.58,-176.94 441.8,-163.55 411.58,-154.1"/>
<polygon fill="#63b8ff" stroke="#63b8ff" points="412.43,-150.7 401.84,-151.05 410.34,-157.38 412.43,-150.7"/>
</a>
</g>
</g>
<!-- Node25&#45;&gt;Node4 -->
<g id="edge60_Node000025_Node000004" class="edge">
<title>Node25&#45;&gt;Node4</title>
<g id="a_edge60_Node000025_Node000004"><a xlink:title=" ">
<path fill="none" stroke="#63b8ff" d="M1480.84,-131.8C1477.86,-117.42 1470.73,-88.12 1458.5,-66 1452.93,-55.93 1445.17,-45.98 1437.83,-37.64"/>
<polygon fill="#63b8ff" stroke="#63b8ff" points="1440.35,-35.2 1431.02,-30.19 1435.18,-39.93 1440.35,-35.2"/>
</a>
</g>
</g>
<!-- Node25&#45;&gt;Node5 -->
<g id="edge61_Node000025_Node000005" class="edge">
<title>Node25&#45;&gt;Node5</title>
<g id="a_edge61_Node000025_Node000005"><a xlink:title=" ">
<path fill="none" stroke="#63b8ff" d="M1472.76,-131.87C1462.53,-122.8 1446.21,-108.34 1433.78,-97.32"/>
<polygon fill="#63b8ff" stroke="#63b8ff" points="1436.08,-94.68 1426.28,-90.67 1431.44,-99.92 1436.08,-94.68"/>
</a>
</g>
</g>
<!-- Node25&#45;&gt;Node7 -->
<g id="edge62_Node000025_Node000007" class="edge">
<title>Node25&#45;&gt;Node7</title>
<g id="a_edge62_Node000025_Node000007"><a xlink:title=" ">
<path fill="none" stroke="#63b8ff" d="M1419.74,-136.54C1324.09,-130.14 1136.19,-116.18 977.5,-96 962.75,-94.12 946.62,-91.56 932.48,-89.14"/>
<polygon fill="#63b8ff" stroke="#63b8ff" points="933.03,-85.68 922.57,-87.41 931.83,-92.58 933.03,-85.68"/>
</a>
</g>
</g>
<!-- Node25&#45;&gt;Node19 -->
<g id="edge63_Node000025_Node000019" class="edge">
<title>Node25&#45;&gt;Node19</title>
<g id="a_edge63_Node000025_Node000019"><a xlink:title=" ">
<path fill="none" stroke="#63b8ff" d="M1545.35,-132.79C1633.22,-122.02 1792.47,-102.48 1885.82,-91.04"/>
<polygon fill="#63b8ff" stroke="#63b8ff" points="1886.25,-94.51 1895.75,-89.82 1885.4,-87.56 1886.25,-94.51"/>
</a>
</g>
</g>
<!-- Node26&#45;&gt;Node4 -->
<g id="edge65_Node000026_Node000004" class="edge">
<title>Node26&#45;&gt;Node4</title>
<g id="a_edge65_Node000026_Node000004"><a xlink:title=" ">
<path fill="none" stroke="#63b8ff" d="M2247.72,-131.98C2213.27,-115.92 2134.66,-81.39 2064.5,-66 1857.01,-20.48 1604.25,-14.87 1485.01,-15.09"/>
<polygon fill="#63b8ff" stroke="#63b8ff" points="1484.92,-11.59 1474.93,-15.12 1484.95,-18.59 1484.92,-11.59"/>
</a>
</g>
</g>
<!-- Node26&#45;&gt;Node8 -->
<g id="edge66_Node000026_Node000008" class="edge">
<title>Node26&#45;&gt;Node8</title>
<g id="a_edge66_Node000026_Node000008"><a xlink:title=" ">
<path fill="none" stroke="#63b8ff" d="M2199.27,-132.74C2196.31,-132.48 2193.37,-132.23 2190.5,-132 1829.04,-103.57 1737.56,-115.26 1375.5,-96 1307.62,-92.39 1228.28,-87.23 1184.28,-84.29"/>
<polygon fill="#63b8ff" stroke="#63b8ff" points="1184.35,-80.79 1174.14,-83.61 1183.88,-87.77 1184.35,-80.79"/>
</a>
</g>
</g>
<!-- Node26&#45;&gt;Node19 -->
<g id="edge67_Node000026_Node000019" class="edge">
<title>Node26&#45;&gt;Node19</title>
<g id="a_edge67_Node000026_Node000019"><a xlink:title=" ">
<path fill="none" stroke="#63b8ff" d="M2221,-131.99C2166.16,-121.51 2073,-103.7 2013.94,-92.41"/>
<polygon fill="#63b8ff" stroke="#63b8ff" points="2014.53,-88.96 2004.05,-90.52 2013.21,-95.83 2014.53,-88.96"/>
</a>
</g>
</g>
<!-- Node27&#45;&gt;Node4 -->
<g id="edge70_Node000027_Node000004" class="edge">
<title>Node27&#45;&gt;Node4</title>
<g id="a_edge70_Node000027_Node000004"><a xlink:title=" ">
<path fill="none" stroke="#63b8ff" d="M1848.11,-131.82C1833.93,-115.79 1801.11,-81.77 1765.5,-66 1716.58,-44.34 1571.71,-28.94 1484.76,-21.36"/>
<polygon fill="#63b8ff" stroke="#63b8ff" points="1484.97,-17.86 1474.71,-20.49 1484.37,-24.84 1484.97,-17.86"/>
</a>
</g>
</g>
<!-- Node27&#45;&gt;Node19 -->
<g id="edge71_Node000027_Node000019" class="edge">
<title>Node27&#45;&gt;Node19</title>
<g id="a_edge71_Node000027_Node000019"><a xlink:title=" ">
<path fill="none" stroke="#63b8ff" d="M1870.85,-131.87C1887.82,-122.32 1915.4,-106.81 1935.29,-95.62"/>
<polygon fill="#63b8ff" stroke="#63b8ff" points="1937.09,-98.62 1944.09,-90.67 1933.66,-92.52 1937.09,-98.62"/>
</a>
</g>
</g>
</g>
</svg>

<g id="navigator" transform="translate(0 0)" fill="#404254">
  <rect fill="#f2f5e9" fill-opacity="0.5" stroke="#606060" stroke-width=".5" x="0" y="0" width="60" height="60"/>
  <use id="zoomplus" xlink:href="#zoomPlus" x="17" y="9" onmousedown="handleZoom(evt,'in')"/>
  <use id="zoomminus" xlink:href="#zoomMin" x="42" y="9" onmousedown="handleZoom(evt,'out')"/>
  <use id="reset" xlink:href="#resetDef" x="30" y="36" onmousedown="handleReset()"/>
   <use id="arrowup" xlink:href="#arrowUp" x="0" y="0" onmousedown="handlePan(0,-1)"/>
  <use id="arrowright" xlink:href="#arrowRight" x="0" y="0" onmousedown="handlePan(1,0)"/>
  <use id="arrowdown" xlink:href="#arrowDown" x="0" y="0" onmousedown="handlePan(0,1)"/>
  <use id="arrowleft" xlink:href="#arrowLeft" x="0" y="0" onmousedown="handlePan(-1,0)"/>
</g>
<svg viewBox="0 0 15 15" width="100%" height="30px" preserveAspectRatio="xMaxYMin meet">
 <g id="arrow_out" transform="scale(0.3 0.3)">
  <a xlink:href="DirektComponentRegistry_8cpp__incl_org.svg" target="_base">
   <rect id="button" ry="5" rx="5" y="6" x="6" height="38" width="38"
        fill="#f2f5e9" fill-opacity="0.5" stroke="#606060" stroke-width="1.0"/>
   <path id="arrow"
     d="M 11.500037,31.436501 C 11.940474,20.09759 22.043105,11.32322 32.158766,21.979434 L 37.068811,17.246167 C 37.068811,17.246167 37.088388,32 37.088388,32 L 22.160133,31.978069 C 22.160133,31.978069 26.997745,27.140456 26.997745,27.140456 C 18.528582,18.264221 13.291696,25.230495 11.500037,31.436501 z"
     style="fill:#404040;"/>
  </a>
 </g>
</svg>

<style type='text/css'>
<![CDATA[
[data-mouse-over-selected='false'] { opacity: 0.7; }
[data-mouse-over-selected='true']  { opacity: 1.0; }
]]>
</style>
<script type="application/ecmascript"><![CDATA[
document.addEventListener('DOMContentLoaded', (event) => {
  highlightEdges();
  highlightAdjacentNodes();
});
]]></script>
</svg>
