<?xml version="1.0" encoding="UTF-8" standalone="no"?>
<!DOCTYPE svg PUBLIC "-//W3C//DTD SVG 1.1//EN"
 "http://www.w3.org/Graphics/SVG/1.1/DTD/svg11.dtd">
<!-- Generated by graphviz version 2.43.0 (0)
 -->
<!-- Title: core/DirektBaseEditor.cpp Pages: 1 -->
<svg width="2422pt" height="324pt"
 viewBox="0.00 0.00 2421.65 324.00" xmlns="http://www.w3.org/2000/svg" xmlns:xlink="http://www.w3.org/1999/xlink">
<g id="graph0" class="graph" transform="scale(1 1) rotate(0) translate(4 320)">
<title>core/DirektBaseEditor.cpp</title>
<!-- Node1 -->
<g id="Node000001" class="node">
<title>Node1</title>
<g id="a_Node000001"><a xlink:title=" ">
<polygon fill="#999999" stroke="#666666" points="1343.5,-316 1200.5,-316 1200.5,-297 1343.5,-297 1343.5,-316"/>
<text text-anchor="middle" x="1272" y="-304" font-family="Helvetica,sans-Serif" font-size="10.00">core/DirektBaseEditor.cpp</text>
</a>
</g>
</g>
<!-- Node2 -->
<g id="Node000002" class="node">
<title>Node2</title>
<g id="a_Node000002"><a xlink:href="DirektBaseEditor_8h.html" target="_top" xlink:title=" ">
<polygon fill="white" stroke="#666666" points="1116.5,-261 985.5,-261 985.5,-242 1116.5,-242 1116.5,-261"/>
<text text-anchor="middle" x="1051" y="-249" font-family="Helvetica,sans-Serif" font-size="10.00">core/DirektBaseEditor.h</text>
</a>
</g>
</g>
<!-- Node1&#45;&gt;Node2 -->
<g id="edge1_Node000001_Node000002" class="edge">
<title>Node1&#45;&gt;Node2</title>
<g id="a_edge1_Node000001_Node000002"><a xlink:title=" ">
<path fill="none" stroke="#63b8ff" d="M1236.49,-296.98C1198.51,-287.87 1138.13,-273.4 1096.64,-263.45"/>
<polygon fill="#63b8ff" stroke="#63b8ff" points="1097.33,-260.01 1086.79,-261.08 1095.69,-266.82 1097.33,-260.01"/>
</a>
</g>
</g>
<!-- Node26 -->
<g id="Node000026" class="node">
<title>Node26</title>
<g id="a_Node000026"><a xlink:href="DirektMeter_8h.html" target="_top" xlink:title=" ">
<polygon fill="white" stroke="#666666" points="1865,-151 1743,-151 1743,-132 1865,-132 1865,-151"/>
<text text-anchor="middle" x="1804" y="-139" font-family="Helvetica,sans-Serif" font-size="10.00">display/DirektMeter.h</text>
</a>
</g>
</g>
<!-- Node1&#45;&gt;Node26 -->
<g id="edge63_Node000001_Node000026" class="edge">
<title>Node1&#45;&gt;Node26</title>
<g id="a_edge63_Node000001_Node000026"><a xlink:title=" ">
<path fill="none" stroke="#63b8ff" d="M1299.85,-296.97C1388.63,-269.77 1665.01,-185.09 1766.3,-154.05"/>
<polygon fill="#63b8ff" stroke="#63b8ff" points="1767.57,-157.32 1776.1,-151.05 1765.52,-150.63 1767.57,-157.32"/>
</a>
</g>
</g>
<!-- Node3 -->
<g id="Node000003" class="node">
<title>Node3</title>
<g id="a_Node000003"><a xlink:title=" ">
<polygon fill="#e0e0e0" stroke="#999999" points="1427.5,-96 1288.5,-96 1288.5,-66 1427.5,-66 1427.5,-96"/>
<text text-anchor="start" x="1296.5" y="-84" font-family="Helvetica,sans-Serif" font-size="10.00">juce_audio_processors</text>
<text text-anchor="middle" x="1358" y="-73" font-family="Helvetica,sans-Serif" font-size="10.00">/juce_audio_processors.h</text>
</a>
</g>
</g>
<!-- Node2&#45;&gt;Node3 -->
<g id="edge2_Node000002_Node000003" class="edge">
<title>Node2&#45;&gt;Node3</title>
<g id="a_edge2_Node000002_Node000003"><a xlink:title=" ">
<path fill="none" stroke="#63b8ff" d="M1059.65,-241.75C1081.46,-220.16 1141.21,-163.77 1201,-132 1227.78,-117.77 1259.3,-106.75 1287.04,-98.73"/>
<polygon fill="#63b8ff" stroke="#63b8ff" points="1288.01,-102.09 1296.68,-96.01 1286.11,-95.35 1288.01,-102.09"/>
</a>
</g>
</g>
<!-- Node4 -->
<g id="Node000004" class="node">
<title>Node4</title>
<g id="a_Node000004"><a xlink:title=" ">
<polygon fill="#e0e0e0" stroke="#999999" points="1282,-30 1166,-30 1166,0 1282,0 1282,-30"/>
<text text-anchor="start" x="1174" y="-18" font-family="Helvetica,sans-Serif" font-size="10.00">juce_gui_basics/juce</text>
<text text-anchor="middle" x="1224" y="-7" font-family="Helvetica,sans-Serif" font-size="10.00">_gui_basics.h</text>
</a>
</g>
</g>
<!-- Node2&#45;&gt;Node4 -->
<g id="edge3_Node000002_Node000004" class="edge">
<title>Node2&#45;&gt;Node4</title>
<g id="a_edge3_Node000002_Node000004"><a xlink:title=" ">
<path fill="none" stroke="#63b8ff" d="M1116.75,-250.89C1330.08,-251.7 2001.37,-250.56 2213,-206 2310.37,-185.5 2369.51,-187.76 2408,-96 2413.16,-83.7 2417.23,-75.62 2408,-66 2369.23,-25.55 1538.88,-17.74 1292.39,-16.31"/>
<polygon fill="#63b8ff" stroke="#63b8ff" points="1292.16,-12.8 1282.14,-16.25 1292.12,-19.8 1292.16,-12.8"/>
</a>
</g>
</g>
<!-- Node5 -->
<g id="Node000005" class="node">
<title>Node5</title>
<g id="a_Node000005"><a xlink:href="DirektFooter_8h.html" target="_top" xlink:title=" ">
<polygon fill="white" stroke="#666666" points="784.5,-151 659.5,-151 659.5,-132 784.5,-132 784.5,-151"/>
<text text-anchor="middle" x="722" y="-139" font-family="Helvetica,sans-Serif" font-size="10.00">chrome/DirektFooter.h</text>
</a>
</g>
</g>
<!-- Node2&#45;&gt;Node5 -->
<g id="edge4_Node000002_Node000005" class="edge">
<title>Node2&#45;&gt;Node5</title>
<g id="a_edge4_Node000002_Node000005"><a xlink:title=" ">
<path fill="none" stroke="#63b8ff" d="M1024.91,-241.94C966.36,-222.72 824.44,-176.13 757.75,-154.24"/>
<polygon fill="#63b8ff" stroke="#63b8ff" points="758.69,-150.86 748.09,-151.07 756.5,-157.51 758.69,-150.86"/>
</a>
</g>
</g>
<!-- Node6 -->
<g id="Node000006" class="node">
<title>Node6</title>
<g id="a_Node000006"><a xlink:href="DirektColours_8h.html" target="_top" xlink:title=" ">
<polygon fill="white" stroke="#666666" points="759.5,-90.5 632.5,-90.5 632.5,-71.5 759.5,-71.5 759.5,-90.5"/>
<text text-anchor="middle" x="696" y="-78.5" font-family="Helvetica,sans-Serif" font-size="10.00">theme/DirektColours.h</text>
</a>
</g>
</g>
<!-- Node2&#45;&gt;Node6 -->
<g id="edge59_Node000002_Node000006" class="edge">
<title>Node2&#45;&gt;Node6</title>
<g id="a_edge59_Node000002_Node000006"><a xlink:title=" ">
<path fill="none" stroke="#63b8ff" d="M985.37,-243.94C882.47,-232.14 690.69,-203.53 650,-151 636.13,-133.1 656.66,-111.15 674.56,-96.89"/>
<polygon fill="#63b8ff" stroke="#63b8ff" points="677.09,-99.36 682.98,-90.55 672.88,-93.77 677.09,-99.36"/>
</a>
</g>
</g>
<!-- Node7 -->
<g id="Node000007" class="node">
<title>Node7</title>
<g id="a_Node000007"><a xlink:href="DirektHeader_8h.html" target="_top" xlink:title=" ">
<polygon fill="white" stroke="#666666" points="1116,-151 986,-151 986,-132 1116,-132 1116,-151"/>
<text text-anchor="middle" x="1051" y="-139" font-family="Helvetica,sans-Serif" font-size="10.00">chrome/DirektHeader.h</text>
</a>
</g>
</g>
<!-- Node2&#45;&gt;Node7 -->
<g id="edge8_Node000002_Node000007" class="edge">
<title>Node2&#45;&gt;Node7</title>
<g id="a_edge8_Node000002_Node000007"><a xlink:title=" ">
<path fill="none" stroke="#63b8ff" d="M1051,-241.66C1051,-224.17 1051,-184.8 1051,-161.27"/>
<polygon fill="#63b8ff" stroke="#63b8ff" points="1054.5,-161.16 1051,-151.16 1047.5,-161.16 1054.5,-161.16"/>
</a>
</g>
</g>
<!-- Node9 -->
<g id="Node000009" class="node">
<title>Node9</title>
<g id="a_Node000009"><a xlink:href="DirektPopupPanel_8h.html" target="_top" xlink:title=" ">
<polygon fill="white" stroke="#666666" points="152,-151 0,-151 0,-132 152,-132 152,-151"/>
<text text-anchor="middle" x="76" y="-139" font-family="Helvetica,sans-Serif" font-size="10.00">chrome/DirektPopupPanel.h</text>
</a>
</g>
</g>
<!-- Node2&#45;&gt;Node9 -->
<g id="edge13_Node000002_Node000009" class="edge">
<title>Node2&#45;&gt;Node9</title>
<g id="a_edge13_Node000002_Node000009"><a xlink:title=" ">
<path fill="none" stroke="#63b8ff" d="M985.23,-248.7C867.58,-244.89 613.52,-233.93 401,-206 300.57,-192.8 184.43,-167.69 121.78,-153.32"/>
<polygon fill="#63b8ff" stroke="#63b8ff" points="122.36,-149.86 111.83,-151.02 120.79,-156.68 122.36,-149.86"/>
</a>
</g>
</g>
<!-- Node10 -->
<g id="Node000010" class="node">
<title>Node10</title>
<g id="a_Node000010"><a xlink:href="DirektPresetBrowser_8h.html" target="_top" xlink:title=" ">
<polygon fill="white" stroke="#666666" points="967.5,-151 802.5,-151 802.5,-132 967.5,-132 967.5,-151"/>
<text text-anchor="middle" x="885" y="-139" font-family="Helvetica,sans-Serif" font-size="10.00">chrome/DirektPresetBrowser.h</text>
</a>
</g>
</g>
<!-- Node2&#45;&gt;Node10 -->
<g id="edge16_Node000002_Node000010" class="edge">
<title>Node2&#45;&gt;Node10</title>
<g id="a_edge16_Node000002_Node000010"><a xlink:title=" ">
<path fill="none" stroke="#63b8ff" d="M1037.7,-241.84C1009.16,-223.28 941.85,-179.49 906.91,-156.75"/>
<polygon fill="#63b8ff" stroke="#63b8ff" points="908.66,-153.72 898.37,-151.2 904.84,-159.58 908.66,-153.72"/>
</a>
</g>
</g>
<!-- Node11 -->
<g id="Node000011" class="node">
<title>Node11</title>
<g id="a_Node000011"><a xlink:href="DirektConfig_8h.html" target="_top" xlink:title=" ">
<polygon fill="white" stroke="#666666" points="432.5,-151 313.5,-151 313.5,-132 432.5,-132 432.5,-151"/>
<text text-anchor="middle" x="373" y="-139" font-family="Helvetica,sans-Serif" font-size="10.00">config/DirektConfig.h</text>
</a>
</g>
</g>
<!-- Node2&#45;&gt;Node11 -->
<g id="edge20_Node000002_Node000011" class="edge">
<title>Node2&#45;&gt;Node11</title>
<g id="a_edge20_Node000002_Node000011"><a xlink:title=" ">
<path fill="none" stroke="#63b8ff" d="M985.49,-248.56C893.79,-244.89 722.28,-234.52 579,-206 516.06,-193.47 445.02,-169.24 404.96,-154.6"/>
<polygon fill="#63b8ff" stroke="#63b8ff" points="406.06,-151.28 395.47,-151.1 403.64,-157.84 406.06,-151.28"/>
</a>
</g>
</g>
<!-- Node12 -->
<g id="Node000012" class="node">
<title>Node12</title>
<g id="a_Node000012"><a xlink:href="DirektDescriptors_8h.html" target="_top" xlink:title=" ">
<polygon fill="white" stroke="#666666" points="2302.5,-151 2159.5,-151 2159.5,-132 2302.5,-132 2302.5,-151"/>
<text text-anchor="middle" x="2231" y="-139" font-family="Helvetica,sans-Serif" font-size="10.00">config/DirektDescriptors.h</text>
</a>
</g>
</g>
<!-- Node2&#45;&gt;Node12 -->
<g id="edge23_Node000002_Node000012" class="edge">
<title>Node2&#45;&gt;Node12</title>
<g id="a_edge23_Node000002_Node000012"><a xlink:title=" ">
<path fill="none" stroke="#63b8ff" d="M1116.55,-249.6C1351.96,-246.17 2143.21,-232.68 2190,-206 2207.23,-196.18 2218.4,-175.82 2224.67,-160.79"/>
<polygon fill="#63b8ff" stroke="#63b8ff" points="2227.94,-162.03 2228.24,-151.43 2221.4,-159.53 2227.94,-162.03"/>
</a>
</g>
</g>
<!-- Node17 -->
<g id="Node000017" class="node">
<title>Node17</title>
<g id="a_Node000017"><a xlink:href="DirektAutoLayout_8h.html" target="_top" xlink:title=" ">
<polygon fill="white" stroke="#666666" points="1466.5,-206 1331.5,-206 1331.5,-187 1466.5,-187 1466.5,-206"/>
<text text-anchor="middle" x="1399" y="-194" font-family="Helvetica,sans-Serif" font-size="10.00">core/DirektAutoLayout.h</text>
</a>
</g>
</g>
<!-- Node2&#45;&gt;Node17 -->
<g id="edge29_Node000002_Node000017" class="edge">
<title>Node2&#45;&gt;Node17</title>
<g id="a_edge29_Node000002_Node000017"><a xlink:title=" ">
<path fill="none" stroke="#63b8ff" d="M1106.91,-241.98C1168.46,-232.61 1267.34,-217.55 1332.74,-207.59"/>
<polygon fill="#63b8ff" stroke="#63b8ff" points="1333.58,-211 1342.94,-206.04 1332.53,-204.08 1333.58,-211"/>
</a>
</g>
</g>
<!-- Node21 -->
<g id="Node000021" class="node">
<title>Node21</title>
<g id="a_Node000021"><a xlink:href="DirektSection_8h.html" target="_top" xlink:title=" ">
<polygon fill="white" stroke="#666666" points="295.5,-151 170.5,-151 170.5,-132 295.5,-132 295.5,-151"/>
<text text-anchor="middle" x="233" y="-139" font-family="Helvetica,sans-Serif" font-size="10.00">layout/DirektSection.h</text>
</a>
</g>
</g>
<!-- Node2&#45;&gt;Node21 -->
<g id="edge58_Node000002_Node000021" class="edge">
<title>Node2&#45;&gt;Node21</title>
<g id="a_edge58_Node000002_Node000021"><a xlink:title=" ">
<path fill="none" stroke="#63b8ff" d="M985.43,-248.41C881.94,-244.4 674.64,-233.43 501,-206 418.64,-192.99 324.14,-168.24 272.24,-153.78"/>
<polygon fill="#63b8ff" stroke="#63b8ff" points="273.02,-150.37 262.45,-151.03 271.13,-157.11 273.02,-150.37"/>
</a>
</g>
</g>
<!-- Node22 -->
<g id="Node000022" class="node">
<title>Node22</title>
<g id="a_Node000022"><a xlink:href="DirektBuildContext_8h.html" target="_top" xlink:title=" ">
<polygon fill="white" stroke="#666666" points="2064.5,-151 1921.5,-151 1921.5,-132 2064.5,-132 2064.5,-151"/>
<text text-anchor="middle" x="1993" y="-139" font-family="Helvetica,sans-Serif" font-size="10.00">core/DirektBuildContext.h</text>
</a>
</g>
</g>
<!-- Node2&#45;&gt;Node22 -->
<g id="edge45_Node000002_Node000022" class="edge">
<title>Node2&#45;&gt;Node22</title>
<g id="a_edge45_Node000002_Node000022"><a xlink:title=" ">
<path fill="none" stroke="#63b8ff" d="M1116.57,-244C1200.08,-235.64 1348.85,-220.46 1476,-206 1632.58,-188.19 1815.55,-165.2 1916.43,-152.34"/>
<polygon fill="#63b8ff" stroke="#63b8ff" points="1917.05,-155.79 1926.53,-151.05 1916.17,-148.84 1917.05,-155.79"/>
</a>
</g>
</g>
<!-- Node24 -->
<g id="Node000024" class="node">
<title>Node24</title>
<g id="a_Node000024"><a xlink:href="DirektComponentRegistry_8h.html" target="_top" xlink:title=" ">
<polygon fill="white" stroke="#666666" points="2180.5,-206 2005.5,-206 2005.5,-187 2180.5,-187 2180.5,-206"/>
<text text-anchor="middle" x="2093" y="-194" font-family="Helvetica,sans-Serif" font-size="10.00">core/DirektComponentRegistry.h</text>
</a>
</g>
</g>
<!-- Node2&#45;&gt;Node24 -->
<g id="edge49_Node000002_Node000024" class="edge">
<title>Node2&#45;&gt;Node24</title>
<g id="a_edge49_Node000002_Node000024"><a xlink:title=" ">
<path fill="none" stroke="#63b8ff" d="M1116.58,-247.16C1294.15,-238.13 1785.07,-213.16 1995.34,-202.47"/>
<polygon fill="#63b8ff" stroke="#63b8ff" points="1995.64,-205.96 2005.45,-201.95 1995.28,-198.97 1995.64,-205.96"/>
</a>
</g>
</g>
<!-- Node25 -->
<g id="Node000025" class="node">
<title>Node25</title>
<g id="a_Node000025"><a xlink:href="DirektLookAndFeel_8h.html" target="_top" xlink:title=" ">
<polygon fill="white" stroke="#666666" points="603,-151 451,-151 451,-132 603,-132 603,-151"/>
<text text-anchor="middle" x="527" y="-139" font-family="Helvetica,sans-Serif" font-size="10.00">theme/DirektLookAndFeel.h</text>
</a>
</g>
</g>
<!-- Node2&#45;&gt;Node25 -->
<g id="edge60_Node000002_Node000025" class="edge">
<title>Node2&#45;&gt;Node25</title>
<g id="a_edge60_Node000002_Node000025"><a xlink:title=" ">
<path fill="none" stroke="#63b8ff" d="M985.35,-247.84C881.11,-242.93 682.79,-230.64 617,-206 588.37,-195.28 560.41,-173.19 543.44,-158.11"/>
<polygon fill="#63b8ff" stroke="#63b8ff" points="545.78,-155.51 536.04,-151.35 541.06,-160.68 545.78,-155.51"/>
</a>
</g>
</g>
<!-- Node5&#45;&gt;Node4 -->
<g id="edge5_Node000005_Node000004" class="edge">
<title>Node5&#45;&gt;Node4</title>
<g id="a_edge5_Node000005_Node000004"><a xlink:title=" ">
<path fill="none" stroke="#63b8ff" d="M744.68,-131.95C785.33,-116.89 873.5,-85.38 950,-66 1019.28,-48.45 1099.89,-34.49 1155.66,-25.84"/>
<polygon fill="#63b8ff" stroke="#63b8ff" points="1156.43,-29.26 1165.78,-24.28 1155.36,-22.34 1156.43,-29.26"/>
</a>
</g>
</g>
<!-- Node5&#45;&gt;Node6 -->
<g id="edge6_Node000005_Node000006" class="edge">
<title>Node5&#45;&gt;Node6</title>
<g id="a_edge6_Node000005_Node000006"><a xlink:title=" ">
<path fill="none" stroke="#63b8ff" d="M718.16,-131.87C714.44,-123.49 708.67,-110.51 703.95,-99.89"/>
<polygon fill="#63b8ff" stroke="#63b8ff" points="707.11,-98.38 699.85,-90.67 700.72,-101.23 707.11,-98.38"/>
</a>
</g>
</g>
<!-- Node6&#45;&gt;Node4 -->
<g id="edge7_Node000006_Node000004" class="edge">
<title>Node6&#45;&gt;Node4</title>
<g id="a_edge7_Node000006_Node000004"><a xlink:title=" ">
<path fill="none" stroke="#63b8ff" d="M759.69,-72.28C859.76,-60.15 1052.99,-36.73 1155.79,-24.27"/>
<polygon fill="#63b8ff" stroke="#63b8ff" points="1156.24,-27.74 1165.75,-23.06 1155.4,-20.79 1156.24,-27.74"/>
</a>
</g>
</g>
<!-- Node7&#45;&gt;Node3 -->
<g id="edge9_Node000007_Node000003" class="edge">
<title>Node7&#45;&gt;Node3</title>
<g id="a_edge9_Node000007_Node000003"><a xlink:title=" ">
<path fill="none" stroke="#63b8ff" d="M1095.64,-131.99C1143.43,-122.89 1220.23,-108.25 1278.41,-97.17"/>
<polygon fill="#63b8ff" stroke="#63b8ff" points="1279.14,-100.59 1288.31,-95.28 1277.83,-93.71 1279.14,-100.59"/>
</a>
</g>
</g>
<!-- Node7&#45;&gt;Node4 -->
<g id="edge10_Node000007_Node000004" class="edge">
<title>Node7&#45;&gt;Node4</title>
<g id="a_edge10_Node000007_Node000004"><a xlink:title=" ">
<path fill="none" stroke="#63b8ff" d="M1062.89,-131.94C1090.14,-112.33 1157.72,-63.7 1196.14,-36.05"/>
<polygon fill="#63b8ff" stroke="#63b8ff" points="1198.25,-38.84 1204.32,-30.16 1194.16,-33.16 1198.25,-38.84"/>
</a>
</g>
</g>
<!-- Node7&#45;&gt;Node6 -->
<g id="edge12_Node000007_Node000006" class="edge">
<title>Node7&#45;&gt;Node6</title>
<g id="a_edge12_Node000007_Node000006"><a xlink:title=" ">
<path fill="none" stroke="#63b8ff" d="M999.38,-131.99C935.36,-121.44 826.33,-103.48 757.89,-92.2"/>
<polygon fill="#63b8ff" stroke="#63b8ff" points="758.12,-88.69 747.68,-90.52 756.98,-95.6 758.12,-88.69"/>
</a>
</g>
</g>
<!-- Node8 -->
<g id="Node000008" class="node">
<title>Node8</title>
<g id="a_Node000008"><a xlink:title=" ">
<polygon fill="#e0e0e0" stroke="#999999" points="1083.5,-90.5 1018.5,-90.5 1018.5,-71.5 1083.5,-71.5 1083.5,-90.5"/>
<text text-anchor="middle" x="1051" y="-78.5" font-family="Helvetica,sans-Serif" font-size="10.00">functional</text>
</a>
</g>
</g>
<!-- Node7&#45;&gt;Node8 -->
<g id="edge11_Node000007_Node000008" class="edge">
<title>Node7&#45;&gt;Node8</title>
<g id="a_edge11_Node000007_Node000008"><a xlink:title=" ">
<path fill="none" stroke="#63b8ff" d="M1051,-131.87C1051,-123.75 1051,-111.31 1051,-100.89"/>
<polygon fill="#63b8ff" stroke="#63b8ff" points="1054.5,-100.67 1051,-90.67 1047.5,-100.67 1054.5,-100.67"/>
</a>
</g>
</g>
<!-- Node9&#45;&gt;Node4 -->
<g id="edge14_Node000009_Node000004" class="edge">
<title>Node9&#45;&gt;Node4</title>
<g id="a_edge14_Node000009_Node000004"><a xlink:title=" ">
<path fill="none" stroke="#63b8ff" d="M101.2,-131.98C149.94,-115.91 260.81,-81.36 357,-66 651.61,-18.95 1008.77,-14.76 1155.77,-15.29"/>
<polygon fill="#63b8ff" stroke="#63b8ff" points="1155.98,-18.79 1165.99,-15.33 1156.01,-11.79 1155.98,-18.79"/>
</a>
</g>
</g>
<!-- Node9&#45;&gt;Node6 -->
<g id="edge15_Node000009_Node000006" class="edge">
<title>Node9&#45;&gt;Node6</title>
<g id="a_edge15_Node000009_Node000006"><a xlink:title=" ">
<path fill="none" stroke="#63b8ff" d="M152.45,-132.83C155.34,-132.55 158.2,-132.27 161,-132 325.67,-116.07 518.94,-98.22 622.16,-88.75"/>
<polygon fill="#63b8ff" stroke="#63b8ff" points="622.52,-92.23 632.16,-87.83 621.89,-85.26 622.52,-92.23"/>
</a>
</g>
</g>
<!-- Node10&#45;&gt;Node4 -->
<g id="edge17_Node000010_Node000004" class="edge">
<title>Node10&#45;&gt;Node4</title>
<g id="a_edge17_Node000010_Node000004"><a xlink:title=" ">
<path fill="none" stroke="#63b8ff" d="M896.77,-131.78C918.19,-116.3 965.49,-83.96 1010,-66 1057,-47.03 1112.85,-34.29 1155.71,-26.41"/>
<polygon fill="#63b8ff" stroke="#63b8ff" points="1156.53,-29.82 1165.76,-24.61 1155.3,-22.93 1156.53,-29.82"/>
</a>
</g>
</g>
<!-- Node10&#45;&gt;Node6 -->
<g id="edge19_Node000010_Node000006" class="edge">
<title>Node10&#45;&gt;Node6</title>
<g id="a_edge19_Node000010_Node000006"><a xlink:title=" ">
<path fill="none" stroke="#63b8ff" d="M857.52,-131.99C824.76,-121.86 769.88,-104.87 733.31,-93.55"/>
<polygon fill="#63b8ff" stroke="#63b8ff" points="734.1,-90.13 723.52,-90.52 732.03,-96.82 734.1,-90.13"/>
</a>
</g>
</g>
<!-- Node10&#45;&gt;Node8 -->
<g id="edge18_Node000010_Node000008" class="edge">
<title>Node10&#45;&gt;Node8</title>
<g id="a_edge18_Node000010_Node000008"><a xlink:title=" ">
<path fill="none" stroke="#63b8ff" d="M909.14,-131.99C937.54,-121.99 984.88,-105.3 1016.99,-93.99"/>
<polygon fill="#63b8ff" stroke="#63b8ff" points="1018.56,-97.14 1026.83,-90.52 1016.24,-90.54 1018.56,-97.14"/>
</a>
</g>
</g>
<!-- Node11&#45;&gt;Node4 -->
<g id="edge21_Node000011_Node000004" class="edge">
<title>Node11&#45;&gt;Node4</title>
<g id="a_edge21_Node000011_Node000004"><a xlink:title=" ">
<path fill="none" stroke="#63b8ff" d="M390.5,-131.97C424.4,-115.89 501.8,-81.34 571,-66 680.96,-41.62 1011.83,-25.03 1155.82,-18.77"/>
<polygon fill="#63b8ff" stroke="#63b8ff" points="1156.02,-22.27 1165.86,-18.34 1155.71,-15.28 1156.02,-22.27"/>
</a>
</g>
</g>
<!-- Node11&#45;&gt;Node6 -->
<g id="edge22_Node000011_Node000006" class="edge">
<title>Node11&#45;&gt;Node6</title>
<g id="a_edge22_Node000011_Node000006"><a xlink:title=" ">
<path fill="none" stroke="#63b8ff" d="M419.97,-131.99C477.98,-121.49 576.6,-103.62 638.92,-92.34"/>
<polygon fill="#63b8ff" stroke="#63b8ff" points="639.76,-95.74 648.98,-90.52 638.51,-88.85 639.76,-95.74"/>
</a>
</g>
</g>
<!-- Node12&#45;&gt;Node4 -->
<g id="edge24_Node000012_Node000004" class="edge">
<title>Node12&#45;&gt;Node4</title>
<g id="a_edge24_Node000012_Node000004"><a xlink:title=" ">
<path fill="none" stroke="#63b8ff" d="M2223.97,-131.9C2209.07,-113.91 2174.34,-73.38 2158,-66 2079.82,-30.66 1494.25,-19.6 1292.26,-16.81"/>
<polygon fill="#63b8ff" stroke="#63b8ff" points="1292.12,-13.31 1282.08,-16.67 1292.03,-20.31 1292.12,-13.31"/>
</a>
</g>
</g>
<!-- Node13 -->
<g id="Node000013" class="node">
<title>Node13</title>
<g id="a_Node000013"><a xlink:title=" ">
<polygon fill="#e0e0e0" stroke="#999999" points="2149,-90.5 2111,-90.5 2111,-71.5 2149,-71.5 2149,-90.5"/>
<text text-anchor="middle" x="2130" y="-78.5" font-family="Helvetica,sans-Serif" font-size="10.00">map</text>
</a>
</g>
</g>
<!-- Node12&#45;&gt;Node13 -->
<g id="edge25_Node000012_Node000013" class="edge">
<title>Node12&#45;&gt;Node13</title>
<g id="a_edge25_Node000012_Node000013"><a xlink:title=" ">
<path fill="none" stroke="#63b8ff" d="M2216.1,-131.87C2199.69,-122.36 2173.07,-106.95 2153.77,-95.77"/>
<polygon fill="#63b8ff" stroke="#63b8ff" points="2155.37,-92.65 2144.96,-90.67 2151.86,-98.71 2155.37,-92.65"/>
</a>
</g>
</g>
<!-- Node14 -->
<g id="Node000014" class="node">
<title>Node14</title>
<g id="a_Node000014"><a xlink:title=" ">
<polygon fill="#e0e0e0" stroke="#999999" points="2333,-90.5 2275,-90.5 2275,-71.5 2333,-71.5 2333,-90.5"/>
<text text-anchor="middle" x="2304" y="-78.5" font-family="Helvetica,sans-Serif" font-size="10.00">memory</text>
</a>
</g>
</g>
<!-- Node12&#45;&gt;Node14 -->
<g id="edge26_Node000012_Node000014" class="edge">
<title>Node12&#45;&gt;Node14</title>
<g id="a_edge26_Node000012_Node000014"><a xlink:title=" ">
<path fill="none" stroke="#63b8ff" d="M2241.77,-131.87C2253.2,-122.71 2271.48,-108.06 2285.28,-97.01"/>
<polygon fill="#63b8ff" stroke="#63b8ff" points="2287.57,-99.65 2293.18,-90.67 2283.19,-94.19 2287.57,-99.65"/>
</a>
</g>
</g>
<!-- Node15 -->
<g id="Node000015" class="node">
<title>Node15</title>
<g id="a_Node000015"><a xlink:title=" ">
<polygon fill="#e0e0e0" stroke="#999999" points="2256.5,-90.5 2205.5,-90.5 2205.5,-71.5 2256.5,-71.5 2256.5,-90.5"/>
<text text-anchor="middle" x="2231" y="-78.5" font-family="Helvetica,sans-Serif" font-size="10.00">variant</text>
</a>
</g>
</g>
<!-- Node12&#45;&gt;Node15 -->
<g id="edge27_Node000012_Node000015" class="edge">
<title>Node12&#45;&gt;Node15</title>
<g id="a_edge27_Node000012_Node000015"><a xlink:title=" ">
<path fill="none" stroke="#63b8ff" d="M2231,-131.87C2231,-123.75 2231,-111.31 2231,-100.89"/>
<polygon fill="#63b8ff" stroke="#63b8ff" points="2234.5,-100.67 2231,-90.67 2227.5,-100.67 2234.5,-100.67"/>
</a>
</g>
</g>
<!-- Node16 -->
<g id="Node000016" class="node">
<title>Node16</title>
<g id="a_Node000016"><a xlink:title=" ">
<polygon fill="#e0e0e0" stroke="#999999" points="2398.5,-90.5 2351.5,-90.5 2351.5,-71.5 2398.5,-71.5 2398.5,-90.5"/>
<text text-anchor="middle" x="2375" y="-78.5" font-family="Helvetica,sans-Serif" font-size="10.00">vector</text>
</a>
</g>
</g>
<!-- Node12&#45;&gt;Node16 -->
<g id="edge28_Node000012_Node000016" class="edge">
<title>Node12&#45;&gt;Node16</title>
<g id="a_edge28_Node000012_Node000016"><a xlink:title=" ">
<path fill="none" stroke="#63b8ff" d="M2252.75,-131.93C2275.16,-123.06 2311.1,-108.75 2342,-96 2343.2,-95.51 2344.42,-95 2345.65,-94.49"/>
<polygon fill="#63b8ff" stroke="#63b8ff" points="2347.27,-97.6 2355.13,-90.5 2344.56,-91.15 2347.27,-97.6"/>
</a>
</g>
</g>
<!-- Node17&#45;&gt;Node3 -->
<g id="edge30_Node000017_Node000003" class="edge">
<title>Node17&#45;&gt;Node3</title>
<g id="a_edge30_Node000017_Node000003"><a xlink:title=" ">
<path fill="none" stroke="#63b8ff" d="M1394.97,-186.73C1390.94,-177.83 1384.69,-163.6 1380,-151 1374.5,-136.21 1369.11,-119.35 1365.04,-105.99"/>
<polygon fill="#63b8ff" stroke="#63b8ff" points="1368.31,-104.71 1362.08,-96.14 1361.6,-106.73 1368.31,-104.71"/>
</a>
</g>
</g>
<!-- Node17&#45;&gt;Node4 -->
<g id="edge31_Node000017_Node000004" class="edge">
<title>Node17&#45;&gt;Node4</title>
<g id="a_edge31_Node000017_Node000004"><a xlink:title=" ">
<path fill="none" stroke="#63b8ff" d="M1466.78,-187.59C1552.11,-177.31 1688.55,-159.65 1696,-151 1701.51,-144.6 1700.89,-138.88 1696,-132 1649.49,-66.6 1411.53,-34.35 1292.29,-22.09"/>
<polygon fill="#63b8ff" stroke="#63b8ff" points="1292.47,-18.59 1282.17,-21.07 1291.77,-25.55 1292.47,-18.59"/>
</a>
</g>
</g>
<!-- Node17&#45;&gt;Node12 -->
<g id="edge32_Node000017_Node000012" class="edge">
<title>Node17&#45;&gt;Node12</title>
<g id="a_edge32_Node000017_Node000012"><a xlink:title=" ">
<path fill="none" stroke="#63b8ff" d="M1466.73,-191.19C1618.45,-181.52 1985.09,-158.16 2149.2,-147.71"/>
<polygon fill="#63b8ff" stroke="#63b8ff" points="2149.48,-151.2 2159.24,-147.07 2149.04,-144.21 2149.48,-151.2"/>
</a>
</g>
</g>
<!-- Node18 -->
<g id="Node000018" class="node">
<title>Node18</title>
<g id="a_Node000018"><a xlink:href="DirektComboBox_8h.html" target="_top" xlink:title=" ">
<polygon fill="white" stroke="#666666" points="1686.5,-151 1535.5,-151 1535.5,-132 1686.5,-132 1686.5,-151"/>
<text text-anchor="middle" x="1611" y="-139" font-family="Helvetica,sans-Serif" font-size="10.00">controls/DirektComboBox.h</text>
</a>
</g>
</g>
<!-- Node17&#45;&gt;Node18 -->
<g id="edge33_Node000017_Node000018" class="edge">
<title>Node17&#45;&gt;Node18</title>
<g id="a_edge33_Node000017_Node000018"><a xlink:title=" ">
<path fill="none" stroke="#63b8ff" d="M1433.06,-186.98C1469.42,-177.89 1527.17,-163.46 1566.97,-153.51"/>
<polygon fill="#63b8ff" stroke="#63b8ff" points="1567.82,-156.9 1576.67,-151.08 1566.12,-150.11 1567.82,-156.9"/>
</a>
</g>
</g>
<!-- Node19 -->
<g id="Node000019" class="node">
<title>Node19</title>
<g id="a_Node000019"><a xlink:href="DirektKnob_8h.html" target="_top" xlink:title=" ">
<polygon fill="white" stroke="#666666" points="1332,-151 1210,-151 1210,-132 1332,-132 1332,-151"/>
<text text-anchor="middle" x="1271" y="-139" font-family="Helvetica,sans-Serif" font-size="10.00">controls/DirektKnob.h</text>
</a>
</g>
</g>
<!-- Node17&#45;&gt;Node19 -->
<g id="edge36_Node000017_Node000019" class="edge">
<title>Node17&#45;&gt;Node19</title>
<g id="a_edge36_Node000017_Node000019"><a xlink:title=" ">
<path fill="none" stroke="#63b8ff" d="M1378.43,-186.98C1357.57,-178.34 1325.03,-164.87 1301.23,-155.02"/>
<polygon fill="#63b8ff" stroke="#63b8ff" points="1302.52,-151.76 1291.94,-151.17 1299.84,-158.23 1302.52,-151.76"/>
</a>
</g>
</g>
<!-- Node20 -->
<g id="Node000020" class="node">
<title>Node20</title>
<g id="a_Node000020"><a xlink:href="DirektToggle_8h.html" target="_top" xlink:title=" ">
<polygon fill="white" stroke="#666666" points="1517.5,-151 1388.5,-151 1388.5,-132 1517.5,-132 1517.5,-151"/>
<text text-anchor="middle" x="1453" y="-139" font-family="Helvetica,sans-Serif" font-size="10.00">controls/DirektToggle.h</text>
</a>
</g>
</g>
<!-- Node17&#45;&gt;Node20 -->
<g id="edge39_Node000017_Node000020" class="edge">
<title>Node17&#45;&gt;Node20</title>
<g id="a_edge39_Node000017_Node000020"><a xlink:title=" ">
<path fill="none" stroke="#63b8ff" d="M1407.92,-186.75C1415.78,-179.03 1427.43,-167.6 1436.92,-158.28"/>
<polygon fill="#63b8ff" stroke="#63b8ff" points="1439.56,-160.59 1444.25,-151.09 1434.66,-155.6 1439.56,-160.59"/>
</a>
</g>
</g>
<!-- Node17&#45;&gt;Node21 -->
<g id="edge42_Node000017_Node000021" class="edge">
<title>Node17&#45;&gt;Node21</title>
<g id="a_edge42_Node000017_Node000021"><a xlink:title=" ">
<path fill="none" stroke="#63b8ff" d="M1331.29,-194.6C1160.83,-191.92 700.04,-182.24 305.87,-151.09"/>
<polygon fill="#63b8ff" stroke="#63b8ff" points="305.94,-147.58 295.69,-150.28 305.38,-154.56 305.94,-147.58"/>
</a>
</g>
</g>
<!-- Node18&#45;&gt;Node3 -->
<g id="edge34_Node000018_Node000003" class="edge">
<title>Node18&#45;&gt;Node3</title>
<g id="a_edge34_Node000018_Node000003"><a xlink:title=" ">
<path fill="none" stroke="#63b8ff" d="M1574.21,-131.99C1536.21,-123.21 1475.96,-109.27 1428.7,-98.35"/>
<polygon fill="#63b8ff" stroke="#63b8ff" points="1429.36,-94.91 1418.82,-96.06 1427.78,-101.73 1429.36,-94.91"/>
</a>
</g>
</g>
<!-- Node18&#45;&gt;Node4 -->
<g id="edge35_Node000018_Node000004" class="edge">
<title>Node18&#45;&gt;Node4</title>
<g id="a_edge35_Node000018_Node000004"><a xlink:title=" ">
<path fill="none" stroke="#63b8ff" d="M1596.32,-131.84C1569.64,-116.47 1511.07,-84.29 1458,-66 1403.66,-47.28 1339.71,-34.19 1292.41,-26.11"/>
<polygon fill="#63b8ff" stroke="#63b8ff" points="1292.72,-22.61 1282.28,-24.41 1291.56,-29.52 1292.72,-22.61"/>
</a>
</g>
</g>
<!-- Node19&#45;&gt;Node3 -->
<g id="edge37_Node000019_Node000003" class="edge">
<title>Node19&#45;&gt;Node3</title>
<g id="a_edge37_Node000019_Node000003"><a xlink:title=" ">
<path fill="none" stroke="#63b8ff" d="M1283.84,-131.87C1295.53,-124 1313.25,-112.09 1328.43,-101.89"/>
<polygon fill="#63b8ff" stroke="#63b8ff" points="1330.66,-104.6 1337.01,-96.11 1326.76,-98.79 1330.66,-104.6"/>
</a>
</g>
</g>
<!-- Node19&#45;&gt;Node4 -->
<g id="edge38_Node000019_Node000004" class="edge">
<title>Node19&#45;&gt;Node4</title>
<g id="a_edge38_Node000019_Node000004"><a xlink:title=" ">
<path fill="none" stroke="#63b8ff" d="M1267.77,-131.94C1260.68,-113.15 1243.53,-67.73 1232.93,-39.64"/>
<polygon fill="#63b8ff" stroke="#63b8ff" points="1236.15,-38.28 1229.35,-30.16 1229.6,-40.75 1236.15,-38.28"/>
</a>
</g>
</g>
<!-- Node20&#45;&gt;Node3 -->
<g id="edge40_Node000020_Node000003" class="edge">
<title>Node20&#45;&gt;Node3</title>
<g id="a_edge40_Node000020_Node000003"><a xlink:title=" ">
<path fill="none" stroke="#63b8ff" d="M1438.98,-131.87C1426.09,-123.93 1406.51,-111.87 1389.83,-101.6"/>
<polygon fill="#63b8ff" stroke="#63b8ff" points="1391.27,-98.38 1380.92,-96.11 1387.6,-104.34 1391.27,-98.38"/>
</a>
</g>
</g>
<!-- Node20&#45;&gt;Node4 -->
<g id="edge41_Node000020_Node000004" class="edge">
<title>Node20&#45;&gt;Node4</title>
<g id="a_edge41_Node000020_Node000004"><a xlink:title=" ">
<path fill="none" stroke="#63b8ff" d="M1453.87,-131.78C1454.89,-116.29 1454.6,-83.94 1437,-66 1416.93,-45.55 1346.55,-31.84 1292.12,-24.02"/>
<polygon fill="#63b8ff" stroke="#63b8ff" points="1292.54,-20.55 1282.16,-22.63 1291.58,-27.48 1292.54,-20.55"/>
</a>
</g>
</g>
<!-- Node21&#45;&gt;Node4 -->
<g id="edge43_Node000021_Node000004" class="edge">
<title>Node21&#45;&gt;Node4</title>
<g id="a_edge43_Node000021_Node000004"><a xlink:title=" ">
<path fill="none" stroke="#63b8ff" d="M254.5,-131.98C296.12,-115.92 390.89,-81.4 474,-66 721.92,-20.07 1022.84,-14.99 1155.53,-15.26"/>
<polygon fill="#63b8ff" stroke="#63b8ff" points="1155.54,-18.76 1165.56,-15.29 1155.57,-11.76 1155.54,-18.76"/>
</a>
</g>
</g>
<!-- Node21&#45;&gt;Node6 -->
<g id="edge44_Node000021_Node000006" class="edge">
<title>Node21&#45;&gt;Node6</title>
<g id="a_edge44_Node000021_Node000006"><a xlink:title=" ">
<path fill="none" stroke="#63b8ff" d="M295.92,-132.55C380.92,-121.81 532.12,-102.71 622.32,-91.31"/>
<polygon fill="#63b8ff" stroke="#63b8ff" points="622.99,-94.75 632.47,-90.03 622.11,-87.81 622.99,-94.75"/>
</a>
</g>
</g>
<!-- Node22&#45;&gt;Node3 -->
<g id="edge46_Node000022_Node000003" class="edge">
<title>Node22&#45;&gt;Node3</title>
<g id="a_edge46_Node000022_Node000003"><a xlink:title=" ">
<path fill="none" stroke="#63b8ff" d="M1921.21,-133.36C1916.4,-132.9 1911.63,-132.44 1907,-132 1740.17,-116.16 1544.71,-98.6 1437.84,-89.08"/>
<polygon fill="#63b8ff" stroke="#63b8ff" points="1438.05,-85.58 1427.78,-88.18 1437.43,-92.55 1438.05,-85.58"/>
</a>
</g>
</g>
<!-- Node22&#45;&gt;Node13 -->
<g id="edge48_Node000022_Node000013" class="edge">
<title>Node22&#45;&gt;Node13</title>
<g id="a_edge48_Node000022_Node000013"><a xlink:title=" ">
<path fill="none" stroke="#63b8ff" d="M2012.92,-131.99C2036.22,-122.05 2074.95,-105.51 2101.44,-94.19"/>
<polygon fill="#63b8ff" stroke="#63b8ff" points="2103.12,-97.29 2110.94,-90.14 2100.37,-90.85 2103.12,-97.29"/>
</a>
</g>
</g>
<!-- Node23 -->
<g id="Node000023" class="node">
<title>Node23</title>
<g id="a_Node000023"><a xlink:title=" ">
<polygon fill="#e0e0e0" stroke="#999999" points="1937,-90.5 1887,-90.5 1887,-71.5 1937,-71.5 1937,-90.5"/>
<text text-anchor="middle" x="1912" y="-78.5" font-family="Helvetica,sans-Serif" font-size="10.00">atomic</text>
</a>
</g>
</g>
<!-- Node22&#45;&gt;Node23 -->
<g id="edge47_Node000022_Node000023" class="edge">
<title>Node22&#45;&gt;Node23</title>
<g id="a_edge47_Node000022_Node000023"><a xlink:title=" ">
<path fill="none" stroke="#63b8ff" d="M1981.05,-131.87C1968.25,-122.62 1947.7,-107.78 1932.35,-96.69"/>
<polygon fill="#63b8ff" stroke="#63b8ff" points="1934.16,-93.68 1924,-90.67 1930.06,-99.36 1934.16,-93.68"/>
</a>
</g>
</g>
<!-- Node24&#45;&gt;Node3 -->
<g id="edge50_Node000024_Node000003" class="edge">
<title>Node24&#45;&gt;Node3</title>
<g id="a_edge50_Node000024_Node000003"><a xlink:title=" ">
<path fill="none" stroke="#63b8ff" d="M2047.09,-186.94C2010.23,-179.41 1957.49,-167.13 1913,-151 1894.87,-144.43 1892.56,-137.24 1874,-132 1794.17,-109.48 1561.8,-93.47 1437.94,-86.27"/>
<polygon fill="#63b8ff" stroke="#63b8ff" points="1437.94,-82.76 1427.75,-85.68 1437.53,-89.75 1437.94,-82.76"/>
</a>
</g>
</g>
<!-- Node24&#45;&gt;Node4 -->
<g id="edge51_Node000024_Node000004" class="edge">
<title>Node24&#45;&gt;Node4</title>
<g id="a_edge51_Node000024_Node000004"><a xlink:title=" ">
<path fill="none" stroke="#63b8ff" d="M2092.51,-186.69C2091.34,-173.41 2087.38,-148.12 2074,-132 2033.12,-82.75 2007.64,-83.23 1946,-66 1824.31,-31.98 1448.17,-20.55 1292.52,-17.22"/>
<polygon fill="#63b8ff" stroke="#63b8ff" points="1292.22,-13.71 1282.14,-17 1292.07,-20.71 1292.22,-13.71"/>
</a>
</g>
</g>
<!-- Node24&#45;&gt;Node8 -->
<g id="edge52_Node000024_Node000008" class="edge">
<title>Node24&#45;&gt;Node8</title>
<g id="a_edge52_Node000024_Node000008"><a xlink:title=" ">
<path fill="none" stroke="#63b8ff" d="M2005.24,-195.35C1811.32,-194.32 1351.59,-187.93 1201,-151 1153.23,-139.28 1102.1,-112.27 1073.58,-95.73"/>
<polygon fill="#63b8ff" stroke="#63b8ff" points="1075.21,-92.63 1064.82,-90.56 1071.65,-98.66 1075.21,-92.63"/>
</a>
</g>
</g>
<!-- Node24&#45;&gt;Node12 -->
<g id="edge56_Node000024_Node000012" class="edge">
<title>Node24&#45;&gt;Node12</title>
<g id="a_edge56_Node000024_Node000012"><a xlink:title=" ">
<path fill="none" stroke="#63b8ff" d="M2115.17,-186.98C2137.77,-178.3 2173.06,-164.75 2198.75,-154.88"/>
<polygon fill="#63b8ff" stroke="#63b8ff" points="2200.34,-158.02 2208.42,-151.17 2197.83,-151.49 2200.34,-158.02"/>
</a>
</g>
</g>
<!-- Node24&#45;&gt;Node13 -->
<g id="edge53_Node000024_Node000013" class="edge">
<title>Node24&#45;&gt;Node13</title>
<g id="a_edge53_Node000024_Node000013"><a xlink:title=" ">
<path fill="none" stroke="#63b8ff" d="M2095.78,-186.97C2101.75,-168.65 2115.92,-125.18 2124.03,-100.31"/>
<polygon fill="#63b8ff" stroke="#63b8ff" points="2127.41,-101.22 2127.19,-90.63 2120.76,-99.05 2127.41,-101.22"/>
</a>
</g>
</g>
<!-- Node24&#45;&gt;Node14 -->
<g id="edge54_Node000024_Node000014" class="edge">
<title>Node24&#45;&gt;Node14</title>
<g id="a_edge54_Node000024_Node000014"><a xlink:title=" ">
<path fill="none" stroke="#63b8ff" d="M2180.66,-188.87C2234.09,-182.79 2295.24,-171.5 2312,-151 2323.53,-136.89 2318.66,-115.39 2312.73,-100.15"/>
<polygon fill="#63b8ff" stroke="#63b8ff" points="2315.85,-98.53 2308.65,-90.76 2309.43,-101.33 2315.85,-98.53"/>
</a>
</g>
</g>
<!-- Node24&#45;&gt;Node16 -->
<g id="edge55_Node000024_Node000016" class="edge">
<title>Node24&#45;&gt;Node16</title>
<g id="a_edge55_Node000024_Node000016"><a xlink:title=" ">
<path fill="none" stroke="#63b8ff" d="M2174.01,-186.99C2231.93,-179.66 2303.88,-167.62 2329,-151 2347.52,-138.75 2360.42,-116.22 2367.75,-100.24"/>
<polygon fill="#63b8ff" stroke="#63b8ff" points="2371.05,-101.43 2371.77,-90.86 2364.61,-98.67 2371.05,-101.43"/>
</a>
</g>
</g>
<!-- Node24&#45;&gt;Node22 -->
<g id="edge57_Node000024_Node000022" class="edge">
<title>Node24&#45;&gt;Node22</title>
<g id="a_edge57_Node000024_Node000022"><a xlink:title=" ">
<path fill="none" stroke="#63b8ff" d="M2076.93,-186.98C2061.14,-178.61 2036.78,-165.7 2018.37,-155.95"/>
<polygon fill="#63b8ff" stroke="#63b8ff" points="2019.83,-152.76 2009.36,-151.17 2016.56,-158.95 2019.83,-152.76"/>
</a>
</g>
</g>
<!-- Node25&#45;&gt;Node4 -->
<g id="edge61_Node000025_Node000004" class="edge">
<title>Node25&#45;&gt;Node4</title>
<g id="a_edge61_Node000025_Node000004"><a xlink:title=" ">
<path fill="none" stroke="#63b8ff" d="M534.92,-131.62C550.13,-115.26 585.26,-80.7 623,-66 718.44,-28.82 1019.04,-19.27 1155.46,-16.83"/>
<polygon fill="#63b8ff" stroke="#63b8ff" points="1155.85,-20.32 1165.79,-16.65 1155.73,-13.32 1155.85,-20.32"/>
</a>
</g>
</g>
<!-- Node25&#45;&gt;Node6 -->
<g id="edge62_Node000025_Node000006" class="edge">
<title>Node25&#45;&gt;Node6</title>
<g id="a_edge62_Node000025_Node000006"><a xlink:title=" ">
<path fill="none" stroke="#63b8ff" d="M551.57,-131.99C580.61,-121.94 629.1,-105.16 661.8,-93.84"/>
<polygon fill="#63b8ff" stroke="#63b8ff" points="663.09,-97.1 671.4,-90.52 660.8,-90.48 663.09,-97.1"/>
</a>
</g>
</g>
<!-- Node26&#45;&gt;Node4 -->
<g id="edge64_Node000026_Node000004" class="edge">
<title>Node26&#45;&gt;Node4</title>
<g id="a_edge64_Node000026_Node000004"><a xlink:title=" ">
<path fill="none" stroke="#63b8ff" d="M1798.26,-131.68C1787.13,-115.42 1760.88,-81.02 1729,-66 1653.3,-30.33 1411.88,-20.07 1292.36,-17.14"/>
<polygon fill="#63b8ff" stroke="#63b8ff" points="1292.31,-13.64 1282.23,-16.91 1292.15,-20.64 1292.31,-13.64"/>
</a>
</g>
</g>
<!-- Node26&#45;&gt;Node6 -->
<g id="edge66_Node000026_Node000006" class="edge">
<title>Node26&#45;&gt;Node6</title>
<g id="a_edge66_Node000026_Node000006"><a xlink:title=" ">
<path fill="none" stroke="#63b8ff" d="M1742.91,-135.39C1727.6,-134.19 1711.2,-132.98 1696,-132 1515.69,-120.4 968.79,-94.67 769.59,-85.41"/>
<polygon fill="#63b8ff" stroke="#63b8ff" points="769.67,-81.91 759.51,-84.94 769.34,-88.9 769.67,-81.91"/>
</a>
</g>
</g>
<!-- Node26&#45;&gt;Node23 -->
<g id="edge65_Node000026_Node000023" class="edge">
<title>Node26&#45;&gt;Node23</title>
<g id="a_edge65_Node000026_Node000023"><a xlink:title=" ">
<path fill="none" stroke="#63b8ff" d="M1819.94,-131.87C1837.64,-122.28 1866.46,-106.67 1887.14,-95.47"/>
<polygon fill="#63b8ff" stroke="#63b8ff" points="1888.87,-98.51 1896,-90.67 1885.54,-92.35 1888.87,-98.51"/>
</a>
</g>
</g>
</g>
</svg>
