<?xml version="1.0" encoding="UTF-8" standalone="no"?>
<!DOCTYPE svg PUBLIC "-//W3C//DTD SVG 1.1//EN"
 "http://www.w3.org/Graphics/SVG/1.1/DTD/svg11.dtd">
<!-- Generated by graphviz version 2.43.0 (0)
 -->
<!-- Title: controls/DirektKnob.h Pages: 1 -->
<svg width="517pt" height="258pt"
 viewBox="0.00 0.00 516.96 258.00" xmlns="http://www.w3.org/2000/svg" xmlns:xlink="http://www.w3.org/1999/xlink">
<g id="graph0" class="graph" transform="scale(1 1) rotate(0) translate(4 254)">
<title>controls/DirektKnob.h</title>
<!-- Node1 -->
<g id="Node000001" class="node">
<title>Node1</title>
<g id="a_Node000001"><a xlink:title=" ">
<polygon fill="#999999" stroke="#666666" points="220.96,-250 98.96,-250 98.96,-231 220.96,-231 220.96,-250"/>
<text text-anchor="middle" x="159.96" y="-238" font-family="Helvetica,sans-Serif" font-size="10.00">controls/DirektKnob.h</text>
</a>
</g>
</g>
<!-- Node2 -->
<g id="Node000002" class="node">
<title>Node2</title>
<g id="a_Node000002"><a xlink:href="DirektDSP_8h.html" target="_top" xlink:title=" ">
<polygon fill="white" stroke="#666666" points="117.96,-85 43.96,-85 43.96,-66 117.96,-66 117.96,-85"/>
<text text-anchor="middle" x="80.96" y="-73" font-family="Helvetica,sans-Serif" font-size="10.00">DirektDSP.h</text>
</a>
</g>
</g>
<!-- Node1&#45;&gt;Node2 -->
<g id="edge1_Node000001_Node000002" class="edge">
<title>Node1&#45;&gt;Node2</title>
<g id="a_edge1_Node000001_Node000002"><a xlink:title=" ">
<path fill="none" stroke="#63b8ff" d="M97.13,-228.92C60.36,-221.31 19.04,-209.78 7.96,-195 -21.16,-156.13 40.45,-105.25 68.27,-85.18"/>
<polygon fill="#63b8ff" stroke="#63b8ff" points="96.85,-232.44 107.35,-230.96 98.23,-225.57 96.85,-232.44"/>
</a>
</g>
</g>
<!-- Node4 -->
<g id="Node000004" class="node">
<title>Node4</title>
<g id="a_Node000004"><a xlink:href="DirektKnob_8cpp.html" target="_top" xlink:title=" ">
<polygon fill="white" stroke="#666666" points="150.96,-195 16.96,-195 16.96,-176 150.96,-176 150.96,-195"/>
<text text-anchor="middle" x="83.96" y="-183" font-family="Helvetica,sans-Serif" font-size="10.00">controls/DirektKnob.cpp</text>
</a>
</g>
</g>
<!-- Node1&#45;&gt;Node4 -->
<g id="edge3_Node000001_Node000004" class="edge">
<title>Node1&#45;&gt;Node4</title>
<g id="a_edge3_Node000001_Node000004"><a xlink:title=" ">
<path fill="none" stroke="#63b8ff" d="M139.38,-225.15C125.65,-215.57 108.03,-203.29 96.39,-195.17"/>
<polygon fill="#63b8ff" stroke="#63b8ff" points="137.54,-228.14 147.75,-230.98 141.55,-222.39 137.54,-228.14"/>
</a>
</g>
</g>
<!-- Node5 -->
<g id="Node000005" class="node">
<title>Node5</title>
<g id="a_Node000005"><a xlink:href="DirektAutoLayout_8h.html" target="_top" xlink:title=" ">
<polygon fill="white" stroke="#666666" points="304.46,-195 169.46,-195 169.46,-176 304.46,-176 304.46,-195"/>
<text text-anchor="middle" x="236.96" y="-183" font-family="Helvetica,sans-Serif" font-size="10.00">core/DirektAutoLayout.h</text>
</a>
</g>
</g>
<!-- Node1&#45;&gt;Node5 -->
<g id="edge4_Node000001_Node000005" class="edge">
<title>Node1&#45;&gt;Node5</title>
<g id="a_edge4_Node000001_Node000005"><a xlink:title=" ">
<path fill="none" stroke="#63b8ff" d="M180.81,-225.15C194.72,-215.57 212.57,-203.29 224.36,-195.17"/>
<polygon fill="#63b8ff" stroke="#63b8ff" points="178.58,-222.43 172.33,-230.98 182.55,-228.2 178.58,-222.43"/>
</a>
</g>
</g>
<!-- Node9 -->
<g id="Node000009" class="node">
<title>Node9</title>
<g id="a_Node000009"><a xlink:href="DirektComponentRegistry_8cpp.html" target="_top" xlink:title=" ">
<polygon fill="white" stroke="#666666" points="508.96,-195 322.96,-195 322.96,-176 508.96,-176 508.96,-195"/>
<text text-anchor="middle" x="415.96" y="-183" font-family="Helvetica,sans-Serif" font-size="10.00">core/DirektComponentRegistry.cpp</text>
</a>
</g>
</g>
<!-- Node1&#45;&gt;Node9 -->
<g id="edge10_Node000001_Node000009" class="edge">
<title>Node1&#45;&gt;Node9</title>
<g id="a_edge10_Node000001_Node000009"><a xlink:title=" ">
<path fill="none" stroke="#63b8ff" d="M210.96,-228.94C258.95,-219.01 329.91,-204.31 374.51,-195.08"/>
<polygon fill="#63b8ff" stroke="#63b8ff" points="210.17,-225.53 201.09,-230.98 211.59,-232.38 210.17,-225.53"/>
</a>
</g>
</g>
<!-- Node3 -->
<g id="Node000003" class="node">
<title>Node3</title>
<g id="a_Node000003"><a xlink:href="StandaloneTestProcessor_8cpp.html" target="_top" xlink:title=" ">
<polygon fill="white" stroke="#666666" points="161.46,-30 0.46,-30 0.46,0 161.46,0 161.46,-30"/>
<text text-anchor="start" x="8.46" y="-18" font-family="Helvetica,sans-Serif" font-size="10.00">examples/StandaloneTest</text>
<text text-anchor="middle" x="80.96" y="-7" font-family="Helvetica,sans-Serif" font-size="10.00">/StandaloneTestProcessor.cpp</text>
</a>
</g>
</g>
<!-- Node2&#45;&gt;Node3 -->
<g id="edge2_Node000002_Node000003" class="edge">
<title>Node2&#45;&gt;Node3</title>
<g id="a_edge2_Node000002_Node000003"><a xlink:title=" ">
<path fill="none" stroke="#63b8ff" d="M80.96,-55.65C80.96,-47.36 80.96,-37.78 80.96,-30.11"/>
<polygon fill="#63b8ff" stroke="#63b8ff" points="77.46,-55.87 80.96,-65.87 84.46,-55.87 77.46,-55.87"/>
</a>
</g>
</g>
<!-- Node5&#45;&gt;Node2 -->
<g id="edge5_Node000005_Node000002" class="edge">
<title>Node5&#45;&gt;Node2</title>
<g id="a_edge5_Node000005_Node000002"><a xlink:title=" ">
<path fill="none" stroke="#63b8ff" d="M159.44,-173.17C137.8,-166.62 115.87,-156.29 99.96,-140 85.16,-124.85 81.82,-98.68 81.11,-85.15"/>
<polygon fill="#63b8ff" stroke="#63b8ff" points="158.77,-176.62 169.35,-175.92 160.65,-169.87 158.77,-176.62"/>
</a>
</g>
</g>
<!-- Node6 -->
<g id="Node000006" class="node">
<title>Node6</title>
<g id="a_Node000006"><a xlink:href="DirektAutoLayout_8cpp.html" target="_top" xlink:title=" ">
<polygon fill="white" stroke="#666666" points="254.96,-140 108.96,-140 108.96,-121 254.96,-121 254.96,-140"/>
<text text-anchor="middle" x="181.96" y="-128" font-family="Helvetica,sans-Serif" font-size="10.00">core/DirektAutoLayout.cpp</text>
</a>
</g>
</g>
<!-- Node5&#45;&gt;Node6 -->
<g id="edge6_Node000005_Node000006" class="edge">
<title>Node5&#45;&gt;Node6</title>
<g id="a_edge6_Node000005_Node000006"><a xlink:title=" ">
<path fill="none" stroke="#63b8ff" d="M220.66,-168.8C210.92,-159.41 198.91,-147.83 190.87,-140.09"/>
<polygon fill="#63b8ff" stroke="#63b8ff" points="218.25,-171.33 227.88,-175.75 223.1,-166.29 218.25,-171.33"/>
</a>
</g>
</g>
<!-- Node7 -->
<g id="Node000007" class="node">
<title>Node7</title>
<g id="a_Node000007"><a xlink:href="DirektBaseEditor_8h.html" target="_top" xlink:title=" ">
<polygon fill="white" stroke="#666666" points="404.46,-140 273.46,-140 273.46,-121 404.46,-121 404.46,-140"/>
<text text-anchor="middle" x="338.96" y="-128" font-family="Helvetica,sans-Serif" font-size="10.00">core/DirektBaseEditor.h</text>
</a>
</g>
</g>
<!-- Node5&#45;&gt;Node7 -->
<g id="edge7_Node000005_Node000007" class="edge">
<title>Node5&#45;&gt;Node7</title>
<g id="a_edge7_Node000005_Node000007"><a xlink:title=" ">
<path fill="none" stroke="#63b8ff" d="M262.23,-171.37C280.97,-161.63 305.98,-148.64 322.27,-140.17"/>
<polygon fill="#63b8ff" stroke="#63b8ff" points="260.61,-168.27 253.35,-175.98 263.83,-174.48 260.61,-168.27"/>
</a>
</g>
</g>
<!-- Node7&#45;&gt;Node2 -->
<g id="edge8_Node000007_Node000002" class="edge">
<title>Node7&#45;&gt;Node2</title>
<g id="a_edge8_Node000007_Node000002"><a xlink:title=" ">
<path fill="none" stroke="#63b8ff" d="M287.53,-118.94C237.48,-108.65 162.64,-93.28 118.12,-84.13"/>
<polygon fill="#63b8ff" stroke="#63b8ff" points="287.01,-122.4 297.51,-120.98 288.42,-115.54 287.01,-122.4"/>
</a>
</g>
</g>
<!-- Node8 -->
<g id="Node000008" class="node">
<title>Node8</title>
<g id="a_Node000008"><a xlink:href="DirektBaseEditor_8cpp.html" target="_top" xlink:title=" ">
<polygon fill="white" stroke="#666666" points="410.46,-85 267.46,-85 267.46,-66 410.46,-66 410.46,-85"/>
<text text-anchor="middle" x="338.96" y="-73" font-family="Helvetica,sans-Serif" font-size="10.00">core/DirektBaseEditor.cpp</text>
</a>
</g>
</g>
<!-- Node7&#45;&gt;Node8 -->
<g id="edge9_Node000007_Node000008" class="edge">
<title>Node7&#45;&gt;Node8</title>
<g id="a_edge9_Node000007_Node000008"><a xlink:title=" ">
<path fill="none" stroke="#63b8ff" d="M338.96,-110.66C338.96,-101.93 338.96,-91.99 338.96,-85.09"/>
<polygon fill="#63b8ff" stroke="#63b8ff" points="335.46,-110.75 338.96,-120.75 342.46,-110.75 335.46,-110.75"/>
</a>
</g>
</g>
</g>
</svg>
