<?xml version="1.0" encoding="UTF-8" standalone="no"?>
<!DOCTYPE svg PUBLIC "-//W3C//DTD SVG 1.1//EN"
 "http://www.w3.org/Graphics/SVG/1.1/DTD/svg11.dtd">
<!-- Generated by graphviz version 2.43.0 (0)
 -->
<!-- Title: core/DirektComponentRegistry.h Pages: 1 -->
<svg width="660pt" height="148pt"
 viewBox="0.00 0.00 660.00 148.00" xmlns="http://www.w3.org/2000/svg" xmlns:xlink="http://www.w3.org/1999/xlink">
<g id="graph0" class="graph" transform="scale(1 1) rotate(0) translate(4 144)">
<title>core/DirektComponentRegistry.h</title>
<!-- Node1 -->
<g id="Node000001" class="node">
<title>Node1</title>
<g id="a_Node000001"><a xlink:title=" ">
<polygon fill="#999999" stroke="#666666" points="458,-140 283,-140 283,-121 458,-121 458,-140"/>
<text text-anchor="middle" x="370.5" y="-128" font-family="Helvetica,sans-Serif" font-size="10.00">core/DirektComponentRegistry.h</text>
</a>
</g>
</g>
<!-- Node2 -->
<g id="Node000002" class="node">
<title>Node2</title>
<g id="a_Node000002"><a xlink:title=" ">
<polygon fill="#e0e0e0" stroke="#999999" points="139,-30 0,-30 0,0 139,0 139,-30"/>
<text text-anchor="start" x="8" y="-18" font-family="Helvetica,sans-Serif" font-size="10.00">juce_audio_processors</text>
<text text-anchor="middle" x="69.5" y="-7" font-family="Helvetica,sans-Serif" font-size="10.00">/juce_audio_processors.h</text>
</a>
</g>
</g>
<!-- Node1&#45;&gt;Node2 -->
<g id="edge1_Node000001_Node000002" class="edge">
<title>Node1&#45;&gt;Node2</title>
<g id="a_edge1_Node000001_Node000002"><a xlink:title=" ">
<path fill="none" stroke="#63b8ff" d="M282.83,-123.81C215.51,-117.84 129.47,-106.28 101.5,-85 87.15,-74.09 79.01,-55.2 74.53,-39.94"/>
<polygon fill="#63b8ff" stroke="#63b8ff" points="77.88,-38.9 71.98,-30.09 71.1,-40.65 77.88,-38.9"/>
</a>
</g>
</g>
<!-- Node3 -->
<g id="Node000003" class="node">
<title>Node3</title>
<g id="a_Node000003"><a xlink:title=" ">
<polygon fill="#e0e0e0" stroke="#999999" points="397.5,-30 281.5,-30 281.5,0 397.5,0 397.5,-30"/>
<text text-anchor="start" x="289.5" y="-18" font-family="Helvetica,sans-Serif" font-size="10.00">juce_gui_basics/juce</text>
<text text-anchor="middle" x="339.5" y="-7" font-family="Helvetica,sans-Serif" font-size="10.00">_gui_basics.h</text>
</a>
</g>
</g>
<!-- Node1&#45;&gt;Node3 -->
<g id="edge2_Node000001_Node000003" class="edge">
<title>Node1&#45;&gt;Node3</title>
<g id="a_edge2_Node000001_Node000003"><a xlink:title=" ">
<path fill="none" stroke="#63b8ff" d="M362.02,-120.85C354.45,-112.47 343.9,-99.01 339.5,-85 334.97,-70.57 334.91,-53.59 336.01,-40.09"/>
<polygon fill="#63b8ff" stroke="#63b8ff" points="339.49,-40.43 337.08,-30.12 332.53,-39.69 339.49,-40.43"/>
</a>
</g>
</g>
<!-- Node4 -->
<g id="Node000004" class="node">
<title>Node4</title>
<g id="a_Node000004"><a xlink:title=" ">
<polygon fill="#e0e0e0" stroke="#999999" points="652,-85 587,-85 587,-66 652,-66 652,-85"/>
<text text-anchor="middle" x="619.5" y="-73" font-family="Helvetica,sans-Serif" font-size="10.00">functional</text>
</a>
</g>
</g>
<!-- Node1&#45;&gt;Node4 -->
<g id="edge3_Node000001_Node000004" class="edge">
<title>Node1&#45;&gt;Node4</title>
<g id="a_edge3_Node000001_Node000004"><a xlink:title=" ">
<path fill="none" stroke="#63b8ff" d="M410.51,-120.98C456.1,-111.28 530.32,-95.48 576.95,-85.56"/>
<polygon fill="#63b8ff" stroke="#63b8ff" points="577.7,-88.98 586.75,-83.47 576.24,-82.13 577.7,-88.98"/>
</a>
</g>
</g>
<!-- Node5 -->
<g id="Node000005" class="node">
<title>Node5</title>
<g id="a_Node000005"><a xlink:title=" ">
<polygon fill="#e0e0e0" stroke="#999999" points="263.5,-24.5 225.5,-24.5 225.5,-5.5 263.5,-5.5 263.5,-24.5"/>
<text text-anchor="middle" x="244.5" y="-12.5" font-family="Helvetica,sans-Serif" font-size="10.00">map</text>
</a>
</g>
</g>
<!-- Node1&#45;&gt;Node5 -->
<g id="edge4_Node000001_Node000005" class="edge">
<title>Node1&#45;&gt;Node5</title>
<g id="a_edge4_Node000001_Node000005"><a xlink:title=" ">
<path fill="none" stroke="#63b8ff" d="M361.03,-120.97C339.87,-101.91 288.5,-55.63 261.59,-31.39"/>
<polygon fill="#63b8ff" stroke="#63b8ff" points="263.85,-28.72 254.08,-24.63 259.17,-33.92 263.85,-28.72"/>
</a>
</g>
</g>
<!-- Node6 -->
<g id="Node000006" class="node">
<title>Node6</title>
<g id="a_Node000006"><a xlink:title=" ">
<polygon fill="#e0e0e0" stroke="#999999" points="543.5,-24.5 485.5,-24.5 485.5,-5.5 543.5,-5.5 543.5,-24.5"/>
<text text-anchor="middle" x="514.5" y="-12.5" font-family="Helvetica,sans-Serif" font-size="10.00">memory</text>
</a>
</g>
</g>
<!-- Node1&#45;&gt;Node6 -->
<g id="edge5_Node000001_Node000006" class="edge">
<title>Node1&#45;&gt;Node6</title>
<g id="a_edge5_Node000001_Node000006"><a xlink:title=" ">
<path fill="none" stroke="#63b8ff" d="M435.58,-120.96C459.13,-114.69 483.97,-103.82 500.5,-85 512.45,-71.39 515.26,-50.41 515.5,-35.15"/>
<polygon fill="#63b8ff" stroke="#63b8ff" points="518.99,-34.75 515.3,-24.82 512,-34.89 518.99,-34.75"/>
</a>
</g>
</g>
<!-- Node7 -->
<g id="Node000007" class="node">
<title>Node7</title>
<g id="a_Node000007"><a xlink:title=" ">
<polygon fill="#e0e0e0" stroke="#999999" points="609,-24.5 562,-24.5 562,-5.5 609,-5.5 609,-24.5"/>
<text text-anchor="middle" x="585.5" y="-12.5" font-family="Helvetica,sans-Serif" font-size="10.00">vector</text>
</a>
</g>
</g>
<!-- Node1&#45;&gt;Node7 -->
<g id="edge6_Node000001_Node000007" class="edge">
<title>Node1&#45;&gt;Node7</title>
<g id="a_edge6_Node000001_Node000007"><a xlink:title=" ">
<path fill="none" stroke="#63b8ff" d="M422.94,-121C453.1,-114.44 490.78,-103.3 520.5,-85 542.52,-71.44 562,-48.53 573.76,-32.85"/>
<polygon fill="#63b8ff" stroke="#63b8ff" points="576.72,-34.74 579.75,-24.59 571.05,-30.63 576.72,-34.74"/>
</a>
</g>
</g>
<!-- Node8 -->
<g id="Node000008" class="node">
<title>Node8</title>
<g id="a_Node000008"><a xlink:href="DirektDescriptors_8h.html" target="_top" xlink:title=" ">
<polygon fill="white" stroke="#666666" points="492,-85 349,-85 349,-66 492,-66 492,-85"/>
<text text-anchor="middle" x="420.5" y="-73" font-family="Helvetica,sans-Serif" font-size="10.00">config/DirektDescriptors.h</text>
</a>
</g>
</g>
<!-- Node1&#45;&gt;Node8 -->
<g id="edge7_Node000001_Node000008" class="edge">
<title>Node1&#45;&gt;Node8</title>
<g id="a_edge7_Node000001_Node000008"><a xlink:title=" ">
<path fill="none" stroke="#63b8ff" d="M378.76,-120.75C385.96,-113.11 396.61,-101.82 405.35,-92.56"/>
<polygon fill="#63b8ff" stroke="#63b8ff" points="408.08,-94.76 412.4,-85.09 402.99,-89.96 408.08,-94.76"/>
</a>
</g>
</g>
<!-- Node10 -->
<g id="Node000010" class="node">
<title>Node10</title>
<g id="a_Node000010"><a xlink:href="DirektBuildContext_8h.html" target="_top" xlink:title=" ">
<polygon fill="white" stroke="#666666" points="254,-85 111,-85 111,-66 254,-66 254,-85"/>
<text text-anchor="middle" x="182.5" y="-73" font-family="Helvetica,sans-Serif" font-size="10.00">core/DirektBuildContext.h</text>
</a>
</g>
</g>
<!-- Node1&#45;&gt;Node10 -->
<g id="edge13_Node000001_Node000010" class="edge">
<title>Node1&#45;&gt;Node10</title>
<g id="a_edge13_Node000001_Node000010"><a xlink:title=" ">
<path fill="none" stroke="#63b8ff" d="M340.29,-120.98C308.46,-112.01 258.14,-97.82 222.9,-87.89"/>
<polygon fill="#63b8ff" stroke="#63b8ff" points="223.52,-84.43 212.94,-85.08 221.62,-91.16 223.52,-84.43"/>
</a>
</g>
</g>
<!-- Node8&#45;&gt;Node3 -->
<g id="edge8_Node000008_Node000003" class="edge">
<title>Node8&#45;&gt;Node3</title>
<g id="a_edge8_Node000008_Node000003"><a xlink:title=" ">
<path fill="none" stroke="#63b8ff" d="M408.55,-65.87C397.76,-58.08 381.48,-46.32 367.43,-36.17"/>
<polygon fill="#63b8ff" stroke="#63b8ff" points="369.2,-33.13 359.04,-30.11 365.1,-38.81 369.2,-33.13"/>
</a>
</g>
</g>
<!-- Node8&#45;&gt;Node5 -->
<g id="edge9_Node000008_Node000005" class="edge">
<title>Node8&#45;&gt;Node5</title>
<g id="a_edge9_Node000008_Node000005"><a xlink:title=" ">
<path fill="none" stroke="#63b8ff" d="M386.14,-65.96C355.77,-58 310.53,-45.1 272.5,-30 271.64,-29.66 270.77,-29.3 269.89,-28.93"/>
<polygon fill="#63b8ff" stroke="#63b8ff" points="271.12,-25.64 260.57,-24.62 268.18,-31.99 271.12,-25.64"/>
</a>
</g>
</g>
<!-- Node8&#45;&gt;Node6 -->
<g id="edge10_Node000008_Node000006" class="edge">
<title>Node8&#45;&gt;Node6</title>
<g id="a_edge10_Node000008_Node000006"><a xlink:title=" ">
<path fill="none" stroke="#63b8ff" d="M434.37,-65.87C449.5,-56.45 473.96,-41.23 491.88,-30.08"/>
<polygon fill="#63b8ff" stroke="#63b8ff" points="493.93,-32.92 500.57,-24.67 490.23,-26.98 493.93,-32.92"/>
</a>
</g>
</g>
<!-- Node8&#45;&gt;Node7 -->
<g id="edge12_Node000008_Node000007" class="edge">
<title>Node8&#45;&gt;Node7</title>
<g id="a_edge12_Node000008_Node000007"><a xlink:title=" ">
<path fill="none" stroke="#63b8ff" d="M447.76,-65.98C474.61,-57.43 516.67,-43.62 552.5,-30 553.88,-29.47 555.29,-28.93 556.71,-28.36"/>
<polygon fill="#63b8ff" stroke="#63b8ff" points="558.13,-31.57 566.06,-24.54 555.48,-25.09 558.13,-31.57"/>
</a>
</g>
</g>
<!-- Node9 -->
<g id="Node000009" class="node">
<title>Node9</title>
<g id="a_Node000009"><a xlink:title=" ">
<polygon fill="#e0e0e0" stroke="#999999" points="467,-24.5 416,-24.5 416,-5.5 467,-5.5 467,-24.5"/>
<text text-anchor="middle" x="441.5" y="-12.5" font-family="Helvetica,sans-Serif" font-size="10.00">variant</text>
</a>
</g>
</g>
<!-- Node8&#45;&gt;Node9 -->
<g id="edge11_Node000008_Node000009" class="edge">
<title>Node8&#45;&gt;Node9</title>
<g id="a_edge11_Node000008_Node000009"><a xlink:title=" ">
<path fill="none" stroke="#63b8ff" d="M423.6,-65.87C426.58,-57.57 431.17,-44.78 434.96,-34.22"/>
<polygon fill="#63b8ff" stroke="#63b8ff" points="438.3,-35.26 438.39,-24.67 431.72,-32.9 438.3,-35.26"/>
</a>
</g>
</g>
<!-- Node10&#45;&gt;Node2 -->
<g id="edge14_Node000010_Node000002" class="edge">
<title>Node10&#45;&gt;Node2</title>
<g id="a_edge14_Node000010_Node000002"><a xlink:title=" ">
<path fill="none" stroke="#63b8ff" d="M165.83,-65.87C150.07,-57.71 125.9,-45.2 105.71,-34.75"/>
<polygon fill="#63b8ff" stroke="#63b8ff" points="107.25,-31.6 96.76,-30.11 104.04,-37.82 107.25,-31.6"/>
</a>
</g>
</g>
<!-- Node10&#45;&gt;Node5 -->
<g id="edge16_Node000010_Node000005" class="edge">
<title>Node10&#45;&gt;Node5</title>
<g id="a_edge16_Node000010_Node000005"><a xlink:title=" ">
<path fill="none" stroke="#63b8ff" d="M191.65,-65.87C201.17,-56.88 216.3,-42.61 227.93,-31.64"/>
<polygon fill="#63b8ff" stroke="#63b8ff" points="230.44,-34.08 235.31,-24.67 225.64,-28.98 230.44,-34.08"/>
</a>
</g>
</g>
<!-- Node11 -->
<g id="Node000011" class="node">
<title>Node11</title>
<g id="a_Node000011"><a xlink:title=" ">
<polygon fill="#e0e0e0" stroke="#999999" points="207.5,-24.5 157.5,-24.5 157.5,-5.5 207.5,-5.5 207.5,-24.5"/>
<text text-anchor="middle" x="182.5" y="-12.5" font-family="Helvetica,sans-Serif" font-size="10.00">atomic</text>
</a>
</g>
</g>
<!-- Node10&#45;&gt;Node11 -->
<g id="edge15_Node000010_Node000011" class="edge">
<title>Node10&#45;&gt;Node11</title>
<g id="a_edge15_Node000010_Node000011"><a xlink:title=" ">
<path fill="none" stroke="#63b8ff" d="M182.5,-65.87C182.5,-57.75 182.5,-45.31 182.5,-34.89"/>
<polygon fill="#63b8ff" stroke="#63b8ff" points="186,-34.67 182.5,-24.67 179,-34.67 186,-34.67"/>
</a>
</g>
</g>
</g>
</svg>
