<?xml version="1.0" encoding="UTF-8" standalone="no"?>
<!DOCTYPE svg PUBLIC "-//W3C//DTD SVG 1.1//EN"
 "http://www.w3.org/Graphics/SVG/1.1/DTD/svg11.dtd">
<!-- Generated by graphviz version 2.43.0 (0)
 -->
<!-- Title: core/DirektParameterHistory.h Pages: 1 -->
<svg width="841pt" height="137pt"
 viewBox="0.00 0.00 841.42 137.00" xmlns="http://www.w3.org/2000/svg" xmlns:xlink="http://www.w3.org/1999/xlink">
<g id="graph0" class="graph" transform="scale(1 1) rotate(0) translate(4 133)">
<title>core/DirektParameterHistory.h</title>
<!-- Node1 -->
<g id="Node000001" class="node">
<title>Node1</title>
<g id="a_Node000001"><a xlink:title=" ">
<polygon fill="#999999" stroke="#666666" points="424.92,-129 260.92,-129 260.92,-110 424.92,-110 424.92,-129"/>
<text text-anchor="middle" x="342.92" y="-117" font-family="Helvetica,sans-Serif" font-size="10.00">core/DirektParameterHistory.h</text>
</a>
</g>
</g>
<!-- Node2 -->
<g id="Node000002" class="node">
<title>Node2</title>
<g id="a_Node000002"><a xlink:href="DirektDSP_8h.html" target="_top" xlink:title=" ">
<polygon fill="white" stroke="#666666" points="256.92,-19 182.92,-19 182.92,0 256.92,0 256.92,-19"/>
<text text-anchor="middle" x="219.92" y="-7" font-family="Helvetica,sans-Serif" font-size="10.00">DirektDSP.h</text>
</a>
</g>
</g>
<!-- Node1&#45;&gt;Node2 -->
<g id="edge1_Node000001_Node000002" class="edge">
<title>Node1&#45;&gt;Node2</title>
<g id="a_edge1_Node000001_Node000002"><a xlink:title=" ">
<path fill="none" stroke="#63b8ff" d="M250.54,-112.33C157.55,-105.16 25.65,-91.97 9.92,-74 -39.31,-17.75 110.35,-10.43 182.89,-10.07"/>
<polygon fill="#63b8ff" stroke="#63b8ff" points="250.3,-115.82 260.54,-113.09 250.83,-108.85 250.3,-115.82"/>
</a>
</g>
</g>
<!-- Node3 -->
<g id="Node000003" class="node">
<title>Node3</title>
<g id="a_Node000003"><a xlink:href="DirektComboBox_8cpp.html" target="_top" xlink:title=" ">
<polygon fill="white" stroke="#666666" points="180.92,-74 18.92,-74 18.92,-55 180.92,-55 180.92,-74"/>
<text text-anchor="middle" x="99.92" y="-62" font-family="Helvetica,sans-Serif" font-size="10.00">controls/DirektComboBox.cpp</text>
</a>
</g>
</g>
<!-- Node1&#45;&gt;Node3 -->
<g id="edge2_Node000001_Node000003" class="edge">
<title>Node1&#45;&gt;Node3</title>
<g id="a_edge2_Node000001_Node000003"><a xlink:title=" ">
<path fill="none" stroke="#63b8ff" d="M293.93,-107.82C248.39,-97.88 181.42,-83.28 139.26,-74.08"/>
<polygon fill="#63b8ff" stroke="#63b8ff" points="293.36,-111.27 303.87,-109.98 294.85,-104.43 293.36,-111.27"/>
</a>
</g>
</g>
<!-- Node4 -->
<g id="Node000004" class="node">
<title>Node4</title>
<g id="a_Node000004"><a xlink:href="DirektKnob_8cpp.html" target="_top" xlink:title=" ">
<polygon fill="white" stroke="#666666" points="332.92,-74 198.92,-74 198.92,-55 332.92,-55 332.92,-74"/>
<text text-anchor="middle" x="265.92" y="-62" font-family="Helvetica,sans-Serif" font-size="10.00">controls/DirektKnob.cpp</text>
</a>
</g>
</g>
<!-- Node1&#45;&gt;Node4 -->
<g id="edge3_Node000001_Node000004" class="edge">
<title>Node1&#45;&gt;Node4</title>
<g id="a_edge3_Node000001_Node000004"><a xlink:title=" ">
<path fill="none" stroke="#63b8ff" d="M322.07,-104.15C308.15,-94.57 290.31,-82.29 278.51,-74.17"/>
<polygon fill="#63b8ff" stroke="#63b8ff" points="320.32,-107.2 330.54,-109.98 324.29,-101.43 320.32,-107.2"/>
</a>
</g>
</g>
<!-- Node5 -->
<g id="Node000005" class="node">
<title>Node5</title>
<g id="a_Node000005"><a xlink:href="DirektToggle_8cpp.html" target="_top" xlink:title=" ">
<polygon fill="white" stroke="#666666" points="490.92,-74 350.92,-74 350.92,-55 490.92,-55 490.92,-74"/>
<text text-anchor="middle" x="420.92" y="-62" font-family="Helvetica,sans-Serif" font-size="10.00">controls/DirektToggle.cpp</text>
</a>
</g>
</g>
<!-- Node1&#45;&gt;Node5 -->
<g id="edge4_Node000001_Node000005" class="edge">
<title>Node1&#45;&gt;Node5</title>
<g id="a_edge4_Node000001_Node000005"><a xlink:title=" ">
<path fill="none" stroke="#63b8ff" d="M364.03,-104.15C378.13,-94.57 396.21,-82.29 408.16,-74.17"/>
<polygon fill="#63b8ff" stroke="#63b8ff" points="361.75,-101.47 355.45,-109.98 365.69,-107.26 361.75,-101.47"/>
</a>
</g>
</g>
<!-- Node6 -->
<g id="Node000006" class="node">
<title>Node6</title>
<g id="a_Node000006"><a xlink:href="DirektBaseEditor_8h.html" target="_top" xlink:title=" ">
<polygon fill="white" stroke="#666666" points="640.42,-74 509.42,-74 509.42,-55 640.42,-55 640.42,-74"/>
<text text-anchor="middle" x="574.92" y="-62" font-family="Helvetica,sans-Serif" font-size="10.00">core/DirektBaseEditor.h</text>
</a>
</g>
</g>
<!-- Node1&#45;&gt;Node6 -->
<g id="edge5_Node000001_Node000006" class="edge">
<title>Node1&#45;&gt;Node6</title>
<g id="a_edge5_Node000001_Node000006"><a xlink:title=" ">
<path fill="none" stroke="#63b8ff" d="M389.96,-107.75C433.43,-97.82 497.19,-83.26 537.35,-74.08"/>
<polygon fill="#63b8ff" stroke="#63b8ff" points="389.16,-104.35 380.19,-109.98 390.72,-111.17 389.16,-104.35"/>
</a>
</g>
</g>
<!-- Node8 -->
<g id="Node000008" class="node">
<title>Node8</title>
<g id="a_Node000008"><a xlink:href="DirektParameterHistory_8cpp.html" target="_top" xlink:title=" ">
<polygon fill="white" stroke="#666666" points="833.42,-74 658.42,-74 658.42,-55 833.42,-55 833.42,-74"/>
<text text-anchor="middle" x="745.92" y="-62" font-family="Helvetica,sans-Serif" font-size="10.00">core/DirektParameterHistory.cpp</text>
</a>
</g>
</g>
<!-- Node1&#45;&gt;Node8 -->
<g id="edge8_Node000001_Node000008" class="edge">
<title>Node1&#45;&gt;Node8</title>
<g id="a_edge8_Node000001_Node000008"><a xlink:title=" ">
<path fill="none" stroke="#63b8ff" d="M417.6,-108.68C493.25,-98.73 609.06,-83.5 680.99,-74.04"/>
<polygon fill="#63b8ff" stroke="#63b8ff" points="417.12,-105.21 407.67,-109.98 418.04,-112.15 417.12,-105.21"/>
</a>
</g>
</g>
<!-- Node6&#45;&gt;Node2 -->
<g id="edge6_Node000006_Node000002" class="edge">
<title>Node6&#45;&gt;Node2</title>
<g id="a_edge6_Node000006_Node000002"><a xlink:title=" ">
<path fill="none" stroke="#63b8ff" d="M507.7,-53.46C433.46,-42.38 316.58,-24.93 257.21,-16.07"/>
<polygon fill="#63b8ff" stroke="#63b8ff" points="507.47,-56.97 517.88,-54.98 508.51,-50.05 507.47,-56.97"/>
</a>
</g>
</g>
<!-- Node7 -->
<g id="Node000007" class="node">
<title>Node7</title>
<g id="a_Node000007"><a xlink:href="DirektBaseEditor_8cpp.html" target="_top" xlink:title=" ">
<polygon fill="white" stroke="#666666" points="646.42,-19 503.42,-19 503.42,0 646.42,0 646.42,-19"/>
<text text-anchor="middle" x="574.92" y="-7" font-family="Helvetica,sans-Serif" font-size="10.00">core/DirektBaseEditor.cpp</text>
</a>
</g>
</g>
<!-- Node6&#45;&gt;Node7 -->
<g id="edge7_Node000006_Node000007" class="edge">
<title>Node6&#45;&gt;Node7</title>
<g id="a_edge7_Node000006_Node000007"><a xlink:title=" ">
<path fill="none" stroke="#63b8ff" d="M574.92,-44.66C574.92,-35.93 574.92,-25.99 574.92,-19.09"/>
<polygon fill="#63b8ff" stroke="#63b8ff" points="571.42,-44.75 574.92,-54.75 578.42,-44.75 571.42,-44.75"/>
</a>
</g>
</g>
</g>
</svg>
