<?xml version="1.0" encoding="UTF-8" standalone="no"?>
<!DOCTYPE svg PUBLIC "-//W3C//DTD SVG 1.1//EN"
 "http://www.w3.org/Graphics/SVG/1.1/DTD/svg11.dtd">
<!-- Generated by graphviz version 2.43.0 (0)
 -->
<!-- Title: controls/DirektComboBox.h Pages: 1 -->
<svg width="545pt" height="192pt"
 viewBox="0.00 0.00 545.22 192.00" xmlns="http://www.w3.org/2000/svg" xmlns:xlink="http://www.w3.org/1999/xlink">
<g id="graph0" class="graph" transform="scale(1 1) rotate(0) translate(4 188)">
<title>controls/DirektComboBox.h</title>
<!-- Node1 -->
<g id="Node000001" class="node">
<title>Node1</title>
<g id="a_Node000001"><a xlink:title=" ">
<polygon fill="#999999" stroke="#666666" points="256.72,-184 105.72,-184 105.72,-165 256.72,-165 256.72,-184"/>
<text text-anchor="middle" x="181.22" y="-172" font-family="Helvetica,sans-Serif" font-size="10.00">controls/DirektComboBox.h</text>
</a>
</g>
</g>
<!-- Node2 -->
<g id="Node000002" class="node">
<title>Node2</title>
<g id="a_Node000002"><a xlink:href="DirektDSP_8h.html" target="_top" xlink:title=" ">
<polygon fill="white" stroke="#666666" points="132.22,-19 58.22,-19 58.22,0 132.22,0 132.22,-19"/>
<text text-anchor="middle" x="95.22" y="-7" font-family="Helvetica,sans-Serif" font-size="10.00">DirektDSP.h</text>
</a>
</g>
</g>
<!-- Node1&#45;&gt;Node2 -->
<g id="edge1_Node000001_Node000002" class="edge">
<title>Node1&#45;&gt;Node2</title>
<g id="a_edge1_Node000001_Node000002"><a xlink:title=" ">
<path fill="none" stroke="#63b8ff" d="M105.1,-163.24C64.54,-156.04 20.51,-144.85 8.22,-129 -23.06,-88.66 47.64,-39.02 80.06,-19.24"/>
<polygon fill="#63b8ff" stroke="#63b8ff" points="104.59,-166.7 115.04,-164.94 105.77,-159.8 104.59,-166.7"/>
</a>
</g>
</g>
<!-- Node3 -->
<g id="Node000003" class="node">
<title>Node3</title>
<g id="a_Node000003"><a xlink:href="DirektComboBox_8cpp.html" target="_top" xlink:title=" ">
<polygon fill="white" stroke="#666666" points="179.22,-129 17.22,-129 17.22,-110 179.22,-110 179.22,-129"/>
<text text-anchor="middle" x="98.22" y="-117" font-family="Helvetica,sans-Serif" font-size="10.00">controls/DirektComboBox.cpp</text>
</a>
</g>
</g>
<!-- Node1&#45;&gt;Node3 -->
<g id="edge2_Node000001_Node000003" class="edge">
<title>Node1&#45;&gt;Node3</title>
<g id="a_edge2_Node000001_Node000003"><a xlink:title=" ">
<path fill="none" stroke="#63b8ff" d="M159.18,-159.42C144.11,-149.81 124.63,-137.37 111.8,-129.17"/>
<polygon fill="#63b8ff" stroke="#63b8ff" points="157.57,-162.55 167.88,-164.98 161.34,-156.65 157.57,-162.55"/>
</a>
</g>
</g>
<!-- Node4 -->
<g id="Node000004" class="node">
<title>Node4</title>
<g id="a_Node000004"><a xlink:href="DirektAutoLayout_8h.html" target="_top" xlink:title=" ">
<polygon fill="white" stroke="#666666" points="332.72,-129 197.72,-129 197.72,-110 332.72,-110 332.72,-129"/>
<text text-anchor="middle" x="265.22" y="-117" font-family="Helvetica,sans-Serif" font-size="10.00">core/DirektAutoLayout.h</text>
</a>
</g>
</g>
<!-- Node1&#45;&gt;Node4 -->
<g id="edge3_Node000001_Node000004" class="edge">
<title>Node1&#45;&gt;Node4</title>
<g id="a_edge3_Node000001_Node000004"><a xlink:title=" ">
<path fill="none" stroke="#63b8ff" d="M203.53,-159.42C218.77,-149.81 238.49,-137.37 251.48,-129.17"/>
<polygon fill="#63b8ff" stroke="#63b8ff" points="201.31,-156.69 194.72,-164.98 205.04,-162.61 201.31,-156.69"/>
</a>
</g>
</g>
<!-- Node8 -->
<g id="Node000008" class="node">
<title>Node8</title>
<g id="a_Node000008"><a xlink:href="DirektComponentRegistry_8cpp.html" target="_top" xlink:title=" ">
<polygon fill="white" stroke="#666666" points="537.22,-129 351.22,-129 351.22,-110 537.22,-110 537.22,-129"/>
<text text-anchor="middle" x="444.22" y="-117" font-family="Helvetica,sans-Serif" font-size="10.00">core/DirektComponentRegistry.cpp</text>
</a>
</g>
</g>
<!-- Node1&#45;&gt;Node8 -->
<g id="edge9_Node000001_Node000008" class="edge">
<title>Node1&#45;&gt;Node8</title>
<g id="a_edge9_Node000001_Node000008"><a xlink:title=" ">
<path fill="none" stroke="#63b8ff" d="M233.31,-163C282.61,-153.07 355.72,-138.33 401.63,-129.08"/>
<polygon fill="#63b8ff" stroke="#63b8ff" points="232.59,-159.58 223.48,-164.98 233.97,-166.44 232.59,-159.58"/>
</a>
</g>
</g>
<!-- Node4&#45;&gt;Node2 -->
<g id="edge4_Node000004_Node000002" class="edge">
<title>Node4&#45;&gt;Node2</title>
<g id="a_edge4_Node000004_Node000002"><a xlink:title=" ">
<path fill="none" stroke="#63b8ff" d="M208.9,-107.74C171.86,-99.6 127.81,-87.53 114.22,-74 99.22,-59.06 95.97,-32.79 95.32,-19.2"/>
<polygon fill="#63b8ff" stroke="#63b8ff" points="208.62,-111.26 219.13,-109.93 210.09,-104.41 208.62,-111.26"/>
</a>
</g>
</g>
<!-- Node5 -->
<g id="Node000005" class="node">
<title>Node5</title>
<g id="a_Node000005"><a xlink:href="DirektAutoLayout_8cpp.html" target="_top" xlink:title=" ">
<polygon fill="white" stroke="#666666" points="269.22,-74 123.22,-74 123.22,-55 269.22,-55 269.22,-74"/>
<text text-anchor="middle" x="196.22" y="-62" font-family="Helvetica,sans-Serif" font-size="10.00">core/DirektAutoLayout.cpp</text>
</a>
</g>
</g>
<!-- Node4&#45;&gt;Node5 -->
<g id="edge5_Node000004_Node000005" class="edge">
<title>Node4&#45;&gt;Node5</title>
<g id="a_edge5_Node000004_Node000005"><a xlink:title=" ">
<path fill="none" stroke="#63b8ff" d="M246.18,-103.88C233.76,-94.34 217.98,-82.21 207.51,-74.17"/>
<polygon fill="#63b8ff" stroke="#63b8ff" points="244.07,-106.67 254.13,-109.98 248.34,-101.12 244.07,-106.67"/>
</a>
</g>
</g>
<!-- Node6 -->
<g id="Node000006" class="node">
<title>Node6</title>
<g id="a_Node000006"><a xlink:href="DirektBaseEditor_8h.html" target="_top" xlink:title=" ">
<polygon fill="white" stroke="#666666" points="418.72,-74 287.72,-74 287.72,-55 418.72,-55 418.72,-74"/>
<text text-anchor="middle" x="353.22" y="-62" font-family="Helvetica,sans-Serif" font-size="10.00">core/DirektBaseEditor.h</text>
</a>
</g>
</g>
<!-- Node4&#45;&gt;Node6 -->
<g id="edge6_Node000004_Node000006" class="edge">
<title>Node4&#45;&gt;Node6</title>
<g id="a_edge6_Node000004_Node000006"><a xlink:title=" ">
<path fill="none" stroke="#63b8ff" d="M288.14,-104.7C304.17,-95.04 325.09,-82.44 338.82,-74.17"/>
<polygon fill="#63b8ff" stroke="#63b8ff" points="286.12,-101.83 279.36,-109.98 289.73,-107.82 286.12,-101.83"/>
</a>
</g>
</g>
<!-- Node6&#45;&gt;Node2 -->
<g id="edge7_Node000006_Node000002" class="edge">
<title>Node6&#45;&gt;Node2</title>
<g id="a_edge7_Node000006_Node000002"><a xlink:title=" ">
<path fill="none" stroke="#63b8ff" d="M301.79,-52.94C251.74,-42.65 176.9,-27.28 132.38,-18.13"/>
<polygon fill="#63b8ff" stroke="#63b8ff" points="301.27,-56.4 311.77,-54.98 302.68,-49.54 301.27,-56.4"/>
</a>
</g>
</g>
<!-- Node7 -->
<g id="Node000007" class="node">
<title>Node7</title>
<g id="a_Node000007"><a xlink:href="DirektBaseEditor_8cpp.html" target="_top" xlink:title=" ">
<polygon fill="white" stroke="#666666" points="424.72,-19 281.72,-19 281.72,0 424.72,0 424.72,-19"/>
<text text-anchor="middle" x="353.22" y="-7" font-family="Helvetica,sans-Serif" font-size="10.00">core/DirektBaseEditor.cpp</text>
</a>
</g>
</g>
<!-- Node6&#45;&gt;Node7 -->
<g id="edge8_Node000006_Node000007" class="edge">
<title>Node6&#45;&gt;Node7</title>
<g id="a_edge8_Node000006_Node000007"><a xlink:title=" ">
<path fill="none" stroke="#63b8ff" d="M353.22,-44.66C353.22,-35.93 353.22,-25.99 353.22,-19.09"/>
<polygon fill="#63b8ff" stroke="#63b8ff" points="349.72,-44.75 353.22,-54.75 356.72,-44.75 349.72,-44.75"/>
</a>
</g>
</g>
</g>
</svg>
