<?xml version="1.0" encoding="UTF-8" standalone="no"?>
<!DOCTYPE svg PUBLIC "-//W3C//DTD SVG 1.1//EN"
 "http://www.w3.org/Graphics/SVG/1.1/DTD/svg11.dtd">
<!-- Generated by graphviz version 2.43.0 (0)
 -->
<!-- Title: theme/DirektColours.h Pages: 1 -->
<!--zoomable 247 -->

<svg id="main" version="1.1" xmlns="http://www.w3.org/2000/svg" xmlns:xlink="http://www.w3.org/1999/xlink" xml:space="preserve" onload="init(evt)">
<style type="text/css"><![CDATA[
.node, .edge {opacity: 0.7;}
.node.selected, .edge.selected {opacity: 1;}
.edge:hover path { stroke: red; }
.edge:hover polygon { stroke: red; fill: red; }
]]></style>

<defs>
  <circle id="rim" cx="0" cy="0" r="7"/>
  <circle id="rim2" cx="0" cy="0" r="3.5"/>
  <g id="zoomPlus">
    <use xlink:href="#rim" fill="#404040"><set attributeName="fill" to="#808080" begin="zoomplus.mouseover" end="zoomplus.mouseout"/></use>
    <path d="M-4,0h8M0,-4v8" fill="none" stroke="white" stroke-width="1.5" pointer-events="none"/>
  </g>
  <g id="zoomMin">
    <use xlink:href="#rim" fill="#404040"><set attributeName="fill" to="#808080" begin="zoomminus.mouseover" end="zoomminus.mouseout"/></use>
    <path d="M-4,0h8" fill="none" stroke="white" stroke-width="1.5" pointer-events="none"/>
  </g>
  <g id="arrowUp" transform="translate(30 24)">
    <use xlink:href="#rim"/>
    <path pointer-events="none" fill="none" stroke="white" stroke-width="1.5" d="M0,-3.0v7 M-2.5,-0.5L0,-3.0L2.5,-0.5"/>
  </g>
  <g id="arrowRight" transform="rotate(90) translate(36 -43)">
    <use xlink:href="#rim"/>
    <path pointer-events="none" fill="none" stroke="white" stroke-width="1.5" d="M0,-3.0v7 M-2.5,-0.5L0,-3.0L2.5,-0.5"/>
  </g>
  <g id="arrowDown" transform="rotate(180) translate(-30 -48)">
    <use xlink:href="#rim"/>
    <path pointer-events="none" fill="none" stroke="white" stroke-width="1.5" d="M0,-3.0v7 M-2.5,-0.5L0,-3.0L2.5,-0.5"/>
  </g>
  <g id="arrowLeft" transform="rotate(270) translate(-36 17)">
    <use xlink:href="#rim"/>
    <path pointer-events="none" fill="none" stroke="white" stroke-width="1.5" d="M0,-3.0v7 M-2.5,-0.5L0,-3.0L2.5,-0.5"/>
  </g>
  <g id="resetDef">
    <use xlink:href="#rim2" fill="#404040"><set attributeName="fill" to="#808080" begin="reset.mouseover" end="reset.mouseout"/></use>
  </g>
</defs>
<script type="application/ecmascript">
var viewWidth = 3116;
var viewHeight = 247;
var sectionId = 'dynsection-1';
</script>
<script type="application/ecmascript" xlink:href="svg.min.js"/>
<svg id="graph" class="graph">
<g id="viewport">
<title>theme/DirektColours.h</title>
<!-- Node1 -->
<g id="Node000001" class="node">
<title>Node1</title>
<g id="a_Node000001"><a xlink:title=" ">
<polygon fill="#999999" stroke="#666666" points="1494.32,-239 1367.32,-239 1367.32,-220 1494.32,-220 1494.32,-239"/>
<text text-anchor="middle" x="1430.82" y="-227" font-family="Helvetica,sans-Serif" font-size="10.00">theme/DirektColours.h</text>
</a>
</g>
</g>
<!-- Node2 -->
<g id="Node000002" class="node">
<title>Node2</title>
<g id="a_Node000002"><a xlink:href="DirektDSP_8h.html" target="_top" xlink:title=" ">
<polygon fill="white" stroke="#666666" points="1064.82,-19 990.82,-19 990.82,0 1064.82,0 1064.82,-19"/>
<text text-anchor="middle" x="1027.82" y="-7" font-family="Helvetica,sans-Serif" font-size="10.00">DirektDSP.h</text>
</a>
</g>
</g>
<!-- Node1&#45;&gt;Node2 -->
<g id="edge1_Node000001_Node000002" class="edge">
<title>Node1&#45;&gt;Node2</title>
<g id="a_edge1_Node000001_Node000002"><a xlink:title=" ">
<path fill="none" stroke="#63b8ff" d="M1357.05,-228.12C1189.62,-226.63 768.23,-219.35 417.82,-184 228.4,-164.89 85.21,-246.11 3.82,-74 0.21,-66.37 -2.02,-61.1 3.82,-55 38.61,-18.67 810.89,-11.8 990.66,-10.69"/>
<polygon fill="#63b8ff" stroke="#63b8ff" points="1357.2,-231.62 1367.23,-228.2 1357.26,-224.62 1357.2,-231.62"/>
</a>
</g>
</g>
<!-- Node3 -->
<g id="Node000003" class="node">
<title>Node3</title>
<g id="a_Node000003"><a xlink:href="DirektFooter_8h.html" target="_top" xlink:title=" ">
<polygon fill="white" stroke="#666666" points="205.32,-129 80.32,-129 80.32,-110 205.32,-110 205.32,-129"/>
<text text-anchor="middle" x="142.82" y="-117" font-family="Helvetica,sans-Serif" font-size="10.00">chrome/DirektFooter.h</text>
</a>
</g>
</g>
<!-- Node1&#45;&gt;Node3 -->
<g id="edge2_Node000001_Node000003" class="edge">
<title>Node1&#45;&gt;Node3</title>
<g id="a_edge2_Node000001_Node000003"><a xlink:title=" ">
<path fill="none" stroke="#63b8ff" d="M1356.95,-226.95C1208.83,-223.34 865.15,-212.4 577.82,-184 436.55,-170.03 270.93,-142.84 190.92,-129.01"/>
<polygon fill="#63b8ff" stroke="#63b8ff" points="1357.19,-230.46 1367.27,-227.2 1357.36,-223.46 1357.19,-230.46"/>
</a>
</g>
</g>
<!-- Node5 -->
<g id="Node000005" class="node">
<title>Node5</title>
<g id="a_Node000005"><a xlink:href="DirektBaseEditor_8h.html" target="_top" xlink:title=" ">
<polygon fill="white" stroke="#666666" points="961.32,-74 830.32,-74 830.32,-55 961.32,-55 961.32,-74"/>
<text text-anchor="middle" x="895.82" y="-62" font-family="Helvetica,sans-Serif" font-size="10.00">core/DirektBaseEditor.h</text>
</a>
</g>
</g>
<!-- Node1&#45;&gt;Node5 -->
<g id="edge26_Node000001_Node000005" class="edge">
<title>Node1&#45;&gt;Node5</title>
<g id="a_edge26_Node000001_Node000005"><a xlink:title=" ">
<path fill="none" stroke="#63b8ff" d="M1356.62,-223.12C1230.88,-212.55 983.26,-185.09 918.82,-129 902.55,-114.83 897.79,-88.23 896.4,-74.38"/>
<polygon fill="#63b8ff" stroke="#63b8ff" points="1356.68,-226.63 1366.93,-223.97 1357.25,-219.66 1356.68,-226.63"/>
</a>
</g>
</g>
<!-- Node7 -->
<g id="Node000007" class="node">
<title>Node7</title>
<g id="a_Node000007"><a xlink:href="DirektHeader_8h.html" target="_top" xlink:title=" ">
<polygon fill="white" stroke="#666666" points="378.82,-129 248.82,-129 248.82,-110 378.82,-110 378.82,-129"/>
<text text-anchor="middle" x="313.82" y="-117" font-family="Helvetica,sans-Serif" font-size="10.00">chrome/DirektHeader.h</text>
</a>
</g>
</g>
<!-- Node1&#45;&gt;Node7 -->
<g id="edge8_Node000001_Node000007" class="edge">
<title>Node1&#45;&gt;Node7</title>
<g id="a_edge8_Node000001_Node000007"><a xlink:title=" ">
<path fill="none" stroke="#63b8ff" d="M1356.7,-226.21C1226.5,-221.68 948.36,-209.69 714.82,-184 584.86,-169.7 432.69,-142.78 358.74,-129.04"/>
<polygon fill="#63b8ff" stroke="#63b8ff" points="1356.84,-229.72 1366.95,-226.57 1357.08,-222.73 1356.84,-229.72"/>
</a>
</g>
</g>
<!-- Node9 -->
<g id="Node000009" class="node">
<title>Node9</title>
<g id="a_Node000009"><a xlink:href="DirektPopupPanel_8h.html" target="_top" xlink:title=" ">
<polygon fill="white" stroke="#666666" points="597.82,-129 445.82,-129 445.82,-110 597.82,-110 597.82,-129"/>
<text text-anchor="middle" x="521.82" y="-117" font-family="Helvetica,sans-Serif" font-size="10.00">chrome/DirektPopupPanel.h</text>
</a>
</g>
</g>
<!-- Node1&#45;&gt;Node9 -->
<g id="edge12_Node000001_Node000009" class="edge">
<title>Node1&#45;&gt;Node9</title>
<g id="a_edge12_Node000001_Node000009"><a xlink:title=" ">
<path fill="none" stroke="#63b8ff" d="M1356.73,-226.07C1243.1,-221.66 1019.18,-210.23 830.82,-184 730.2,-169.99 613.16,-142.94 556.33,-129.11"/>
<polygon fill="#63b8ff" stroke="#63b8ff" points="1356.91,-229.58 1367.04,-226.46 1357.18,-222.59 1356.91,-229.58"/>
</a>
</g>
</g>
<!-- Node11 -->
<g id="Node000011" class="node">
<title>Node11</title>
<g id="a_Node000011"><a xlink:href="DirektPresetBrowser_8h.html" target="_top" xlink:title=" ">
<polygon fill="white" stroke="#666666" points="837.32,-129 672.32,-129 672.32,-110 837.32,-110 837.32,-129"/>
<text text-anchor="middle" x="754.82" y="-117" font-family="Helvetica,sans-Serif" font-size="10.00">chrome/DirektPresetBrowser.h</text>
</a>
</g>
</g>
<!-- Node1&#45;&gt;Node11 -->
<g id="edge16_Node000001_Node000011" class="edge">
<title>Node1&#45;&gt;Node11</title>
<g id="a_edge16_Node000001_Node000011"><a xlink:title=" ">
<path fill="none" stroke="#63b8ff" d="M1356.97,-225.96C1228.69,-220.97 970.02,-208.21 882.82,-184 838.12,-171.59 790.43,-143.43 767.96,-129.15"/>
<polygon fill="#63b8ff" stroke="#63b8ff" points="1356.98,-229.46 1367.1,-226.35 1357.25,-222.47 1356.98,-229.46"/>
</a>
</g>
</g>
<!-- Node13 -->
<g id="Node000013" class="node">
<title>Node13</title>
<g id="a_Node000013"><a xlink:href="DirektConfig_8h.html" target="_top" xlink:title=" ">
<polygon fill="white" stroke="#666666" points="1046.32,-129 927.32,-129 927.32,-110 1046.32,-110 1046.32,-129"/>
<text text-anchor="middle" x="986.82" y="-117" font-family="Helvetica,sans-Serif" font-size="10.00">config/DirektConfig.h</text>
</a>
</g>
</g>
<!-- Node1&#45;&gt;Node13 -->
<g id="edge20_Node000001_Node000013" class="edge">
<title>Node1&#45;&gt;Node13</title>
<g id="a_edge20_Node000001_Node000013"><a xlink:title=" ">
<path fill="none" stroke="#63b8ff" d="M1385.86,-217.56C1297.32,-196.03 1102.03,-148.52 1022.04,-129.07"/>
<polygon fill="#63b8ff" stroke="#63b8ff" points="1385.07,-220.97 1395.61,-219.94 1386.72,-214.17 1385.07,-220.97"/>
</a>
</g>
</g>
<!-- Node14 -->
<g id="Node000014" class="node">
<title>Node14</title>
<g id="a_Node000014"><a xlink:href="DirektComboBox_8cpp.html" target="_top" xlink:title=" ">
<polygon fill="white" stroke="#666666" points="2763.82,-184 2601.82,-184 2601.82,-165 2763.82,-165 2763.82,-184"/>
<text text-anchor="middle" x="2682.82" y="-172" font-family="Helvetica,sans-Serif" font-size="10.00">controls/DirektComboBox.cpp</text>
</a>
</g>
</g>
<!-- Node1&#45;&gt;Node14 -->
<g id="edge23_Node000001_Node000014" class="edge">
<title>Node1&#45;&gt;Node14</title>
<g id="a_edge23_Node000001_Node000014"><a xlink:title=" ">
<path fill="none" stroke="#63b8ff" d="M1504.6,-226.96C1687.96,-222.86 2179.04,-210.13 2587.82,-184 2592.37,-183.71 2597.03,-183.38 2601.74,-183.03"/>
<polygon fill="#63b8ff" stroke="#63b8ff" points="1504.45,-223.46 1494.53,-227.19 1504.61,-230.46 1504.45,-223.46"/>
</a>
</g>
</g>
<!-- Node15 -->
<g id="Node000015" class="node">
<title>Node15</title>
<g id="a_Node000015"><a xlink:href="DirektKnob_8cpp.html" target="_top" xlink:title=" ">
<polygon fill="white" stroke="#666666" points="2915.82,-184 2781.82,-184 2781.82,-165 2915.82,-165 2915.82,-184"/>
<text text-anchor="middle" x="2848.82" y="-172" font-family="Helvetica,sans-Serif" font-size="10.00">controls/DirektKnob.cpp</text>
</a>
</g>
</g>
<!-- Node1&#45;&gt;Node15 -->
<g id="edge24_Node000001_Node000015" class="edge">
<title>Node1&#45;&gt;Node15</title>
<g id="a_edge24_Node000001_Node000015"><a xlink:title=" ">
<path fill="none" stroke="#63b8ff" d="M1504.72,-228.08C1707.56,-226.48 2290.05,-218.95 2772.82,-184 2775.74,-183.79 2778.71,-183.55 2781.71,-183.29"/>
<polygon fill="#63b8ff" stroke="#63b8ff" points="1504.45,-224.58 1494.48,-228.16 1504.51,-231.58 1504.45,-224.58"/>
</a>
</g>
</g>
<!-- Node16 -->
<g id="Node000016" class="node">
<title>Node16</title>
<g id="a_Node000016"><a xlink:href="DirektMacroControl_8cpp.html" target="_top" xlink:title=" ">
<polygon fill="white" stroke="#666666" points="3107.82,-184 2933.82,-184 2933.82,-165 3107.82,-165 3107.82,-184"/>
<text text-anchor="middle" x="3020.82" y="-172" font-family="Helvetica,sans-Serif" font-size="10.00">controls/DirektMacroControl.cpp</text>
</a>
</g>
</g>
<!-- Node1&#45;&gt;Node16 -->
<g id="edge25_Node000001_Node000016" class="edge">
<title>Node1&#45;&gt;Node16</title>
<g id="a_edge25_Node000001_Node000016"><a xlink:title=" ">
<path fill="none" stroke="#63b8ff" d="M1504.62,-227.83C1722.2,-225.53 2380.1,-216.2 2924.82,-184 2927.75,-183.83 2930.72,-183.64 2933.72,-183.44"/>
<polygon fill="#63b8ff" stroke="#63b8ff" points="1504.55,-224.33 1494.59,-227.93 1504.62,-231.33 1504.55,-224.33"/>
</a>
</g>
</g>
<!-- Node17 -->
<g id="Node000017" class="node">
<title>Node17</title>
<g id="a_Node000017"><a xlink:href="DirektComponentRegistry_8cpp.html" target="_top" xlink:title=" ">
<polygon fill="white" stroke="#666666" points="2129.82,-74 1943.82,-74 1943.82,-55 2129.82,-55 2129.82,-74"/>
<text text-anchor="middle" x="2036.82" y="-62" font-family="Helvetica,sans-Serif" font-size="10.00">core/DirektComponentRegistry.cpp</text>
</a>
</g>
</g>
<!-- Node1&#45;&gt;Node17 -->
<g id="edge27_Node000001_Node000017" class="edge">
<title>Node1&#45;&gt;Node17</title>
<g id="a_edge27_Node000001_Node000017"><a xlink:title=" ">
<path fill="none" stroke="#63b8ff" d="M1504.65,-228.37C1704.45,-227.52 2252.53,-221.7 2428.82,-184 2493.79,-170.11 2530.47,-183.95 2567.82,-129 2572.57,-122.02 2573.54,-116.22 2567.82,-110 2538.86,-78.51 2274.45,-69.29 2130.02,-66.6"/>
<polygon fill="#63b8ff" stroke="#63b8ff" points="1504.53,-224.87 1494.55,-228.41 1504.56,-231.87 1504.53,-224.87"/>
</a>
</g>
</g>
<!-- Node18 -->
<g id="Node000018" class="node">
<title>Node18</title>
<g id="a_Node000018"><a xlink:href="DirektClipIndicator_8h.html" target="_top" xlink:title=" ">
<polygon fill="white" stroke="#666666" points="1411.32,-129 1256.32,-129 1256.32,-110 1411.32,-110 1411.32,-129"/>
<text text-anchor="middle" x="1333.82" y="-117" font-family="Helvetica,sans-Serif" font-size="10.00">display/DirektClipIndicator.h</text>
</a>
</g>
</g>
<!-- Node1&#45;&gt;Node18 -->
<g id="edge28_Node000001_Node000018" class="edge">
<title>Node1&#45;&gt;Node18</title>
<g id="a_edge28_Node000001_Node000018"><a xlink:title=" ">
<path fill="none" stroke="#63b8ff" d="M1416,-212C1395.11,-188.73 1357.74,-147.13 1341.6,-129.16"/>
<polygon fill="#63b8ff" stroke="#63b8ff" points="1413.6,-214.56 1422.88,-219.66 1418.81,-209.88 1413.6,-214.56"/>
</a>
</g>
</g>
<!-- Node20 -->
<g id="Node000020" class="node">
<title>Node20</title>
<g id="a_Node000020"><a xlink:href="DirektLabel_8h.html" target="_top" xlink:title=" ">
<polygon fill="white" stroke="#666666" points="1549.82,-129 1429.82,-129 1429.82,-110 1549.82,-110 1549.82,-129"/>
<text text-anchor="middle" x="1489.82" y="-117" font-family="Helvetica,sans-Serif" font-size="10.00">display/DirektLabel.h</text>
</a>
</g>
</g>
<!-- Node1&#45;&gt;Node20 -->
<g id="edge33_Node000001_Node000020" class="edge">
<title>Node1&#45;&gt;Node20</title>
<g id="a_edge33_Node000001_Node000020"><a xlink:title=" ">
<path fill="none" stroke="#63b8ff" d="M1440.52,-210.76C1453.34,-187.28 1475.45,-146.81 1485.09,-129.16"/>
<polygon fill="#63b8ff" stroke="#63b8ff" points="1437.37,-209.21 1435.65,-219.66 1443.52,-212.56 1437.37,-209.21"/>
</a>
</g>
</g>
<!-- Node22 -->
<g id="Node000022" class="node">
<title>Node22</title>
<g id="a_Node000022"><a xlink:href="DirektMeter_8h.html" target="_top" xlink:title=" ">
<polygon fill="white" stroke="#666666" points="1913.82,-184 1791.82,-184 1791.82,-165 1913.82,-165 1913.82,-184"/>
<text text-anchor="middle" x="1852.82" y="-172" font-family="Helvetica,sans-Serif" font-size="10.00">display/DirektMeter.h</text>
</a>
</g>
</g>
<!-- Node1&#45;&gt;Node22 -->
<g id="edge37_Node000001_Node000022" class="edge">
<title>Node1&#45;&gt;Node22</title>
<g id="a_edge37_Node000001_Node000022"><a xlink:title=" ">
<path fill="none" stroke="#63b8ff" d="M1504.64,-219.23C1586.12,-209 1715.77,-192.71 1791.76,-183.17"/>
<polygon fill="#63b8ff" stroke="#63b8ff" points="1503.94,-215.79 1494.46,-220.51 1504.82,-222.73 1503.94,-215.79"/>
</a>
</g>
</g>
<!-- Node24 -->
<g id="Node000024" class="node">
<title>Node24</title>
<g id="a_Node000024"><a xlink:href="DirektStereoMeter_8h.html" target="_top" xlink:title=" ">
<polygon fill="white" stroke="#666666" points="1721.32,-129 1568.32,-129 1568.32,-110 1721.32,-110 1721.32,-129"/>
<text text-anchor="middle" x="1644.82" y="-117" font-family="Helvetica,sans-Serif" font-size="10.00">display/DirektStereoMeter.h</text>
</a>
</g>
</g>
<!-- Node1&#45;&gt;Node24 -->
<g id="edge47_Node000001_Node000024" class="edge">
<title>Node1&#45;&gt;Node24</title>
<g id="a_edge47_Node000001_Node000024"><a xlink:title=" ">
<path fill="none" stroke="#63b8ff" d="M1457.01,-215.28C1501.51,-192.83 1590.66,-147.83 1627.89,-129.05"/>
<polygon fill="#63b8ff" stroke="#63b8ff" points="1455.32,-212.21 1447.97,-219.84 1458.48,-218.46 1455.32,-212.21"/>
</a>
</g>
</g>
<!-- Node26 -->
<g id="Node000026" class="node">
<title>Node26</title>
<g id="a_Node000026"><a xlink:href="DirektSection_8h.html" target="_top" xlink:title=" ">
<polygon fill="white" stroke="#666666" points="2419.32,-184 2294.32,-184 2294.32,-165 2419.32,-165 2419.32,-184"/>
<text text-anchor="middle" x="2356.82" y="-172" font-family="Helvetica,sans-Serif" font-size="10.00">layout/DirektSection.h</text>
</a>
</g>
</g>
<!-- Node1&#45;&gt;Node26 -->
<g id="edge48_Node000001_Node000026" class="edge">
<title>Node1&#45;&gt;Node26</title>
<g id="a_edge48_Node000001_Node000026"><a xlink:title=" ">
<path fill="none" stroke="#63b8ff" d="M1504.48,-224.28C1681.62,-214.15 2129.04,-188.54 2294.26,-179.08"/>
<polygon fill="#63b8ff" stroke="#63b8ff" points="1504.25,-220.79 1494.47,-224.86 1504.65,-227.78 1504.25,-220.79"/>
</a>
</g>
</g>
<!-- Node31 -->
<g id="Node000031" class="node">
<title>Node31</title>
<g id="a_Node000031"><a xlink:href="DirektTabPanel_8h.html" target="_top" xlink:title=" ">
<polygon fill="white" stroke="#666666" points="2784.82,-129 2652.82,-129 2652.82,-110 2784.82,-110 2784.82,-129"/>
<text text-anchor="middle" x="2718.82" y="-117" font-family="Helvetica,sans-Serif" font-size="10.00">layout/DirektTabPanel.h</text>
</a>
</g>
</g>
<!-- Node1&#45;&gt;Node31 -->
<g id="edge58_Node000001_Node000031" class="edge">
<title>Node1&#45;&gt;Node31</title>
<g id="a_edge58_Node000001_Node000031"><a xlink:title=" ">
<path fill="none" stroke="#63b8ff" d="M1504.5,-227.17C1737.46,-222.75 2448.7,-207.45 2549.82,-184 2570.18,-179.28 2573.4,-172.71 2592.82,-165 2626.89,-151.48 2666.9,-137.7 2692.54,-129.13"/>
<polygon fill="#63b8ff" stroke="#63b8ff" points="1504.36,-223.67 1494.43,-227.36 1504.5,-230.67 1504.36,-223.67"/>
</a>
</g>
</g>
<!-- Node33 -->
<g id="Node000033" class="node">
<title>Node33</title>
<g id="a_Node000033"><a xlink:href="DirektLookAndFeel_8h.html" target="_top" xlink:title=" ">
<polygon fill="white" stroke="#666666" points="1216.82,-129 1064.82,-129 1064.82,-110 1216.82,-110 1216.82,-129"/>
<text text-anchor="middle" x="1140.82" y="-117" font-family="Helvetica,sans-Serif" font-size="10.00">theme/DirektLookAndFeel.h</text>
</a>
</g>
</g>
<!-- Node1&#45;&gt;Node33 -->
<g id="edge62_Node000001_Node000033" class="edge">
<title>Node1&#45;&gt;Node33</title>
<g id="a_edge62_Node000001_Node000033"><a xlink:title=" ">
<path fill="none" stroke="#63b8ff" d="M1397.95,-216.26C1338.6,-194.15 1214.96,-148.11 1163.77,-129.05"/>
<polygon fill="#63b8ff" stroke="#63b8ff" points="1396.99,-219.63 1407.58,-219.84 1399.43,-213.07 1396.99,-219.63"/>
</a>
</g>
</g>
<!-- Node3&#45;&gt;Node2 -->
<g id="edge3_Node000003_Node000002" class="edge">
<title>Node3&#45;&gt;Node2</title>
<g id="a_edge3_Node000003_Node000002"><a xlink:title=" ">
<path fill="none" stroke="#63b8ff" d="M78.33,-107.89C34.91,-98.13 -10.21,-81.16 14.82,-55 49.21,-19.07 812.37,-11.9 990.77,-10.71"/>
<polygon fill="#63b8ff" stroke="#63b8ff" points="77.61,-111.31 88.12,-109.98 79.07,-104.47 77.61,-111.31"/>
</a>
</g>
</g>
<!-- Node4 -->
<g id="Node000004" class="node">
<title>Node4</title>
<g id="a_Node000004"><a xlink:href="DirektFooter_8cpp.html" target="_top" xlink:title=" ">
<polygon fill="white" stroke="#666666" points="161.32,-74 24.32,-74 24.32,-55 161.32,-55 161.32,-74"/>
<text text-anchor="middle" x="92.82" y="-62" font-family="Helvetica,sans-Serif" font-size="10.00">chrome/DirektFooter.cpp</text>
</a>
</g>
</g>
<!-- Node3&#45;&gt;Node4 -->
<g id="edge4_Node000003_Node000004" class="edge">
<title>Node3&#45;&gt;Node4</title>
<g id="a_edge4_Node000003_Node000004"><a xlink:title=" ">
<path fill="none" stroke="#63b8ff" d="M127.48,-102.24C118.72,-92.95 108.08,-81.68 100.93,-74.09"/>
<polygon fill="#63b8ff" stroke="#63b8ff" points="125.16,-104.88 134.57,-109.75 130.25,-100.07 125.16,-104.88"/>
</a>
</g>
</g>
<!-- Node3&#45;&gt;Node5 -->
<g id="edge5_Node000003_Node000005" class="edge">
<title>Node3&#45;&gt;Node5</title>
<g id="a_edge5_Node000003_Node000005"><a xlink:title=" ">
<path fill="none" stroke="#63b8ff" d="M215.41,-111.94C223.64,-111.25 231.91,-110.59 239.82,-110 497.82,-90.71 563.09,-96.57 820.82,-74 823.82,-73.74 826.89,-73.45 829.99,-73.15"/>
<polygon fill="#63b8ff" stroke="#63b8ff" points="215.09,-108.45 205.42,-112.78 215.68,-115.43 215.09,-108.45"/>
</a>
</g>
</g>
<!-- Node5&#45;&gt;Node2 -->
<g id="edge6_Node000005_Node000002" class="edge">
<title>Node5&#45;&gt;Node2</title>
<g id="a_edge6_Node000005_Node000002"><a xlink:title=" ">
<path fill="none" stroke="#63b8ff" d="M926.56,-51.16C950.99,-41.35 984.56,-27.87 1006.23,-19.17"/>
<polygon fill="#63b8ff" stroke="#63b8ff" points="925.01,-48.01 917.03,-54.98 927.61,-54.51 925.01,-48.01"/>
</a>
</g>
</g>
<!-- Node6 -->
<g id="Node000006" class="node">
<title>Node6</title>
<g id="a_Node000006"><a xlink:href="DirektBaseEditor_8cpp.html" target="_top" xlink:title=" ">
<polygon fill="white" stroke="#666666" points="1672.32,-19 1529.32,-19 1529.32,0 1672.32,0 1672.32,-19"/>
<text text-anchor="middle" x="1600.82" y="-7" font-family="Helvetica,sans-Serif" font-size="10.00">core/DirektBaseEditor.cpp</text>
</a>
</g>
</g>
<!-- Node5&#45;&gt;Node6 -->
<g id="edge7_Node000005_Node000006" class="edge">
<title>Node5&#45;&gt;Node6</title>
<g id="a_edge7_Node000005_Node000006"><a xlink:title=" ">
<path fill="none" stroke="#63b8ff" d="M971.51,-57.81C1108.44,-47.52 1395.48,-25.94 1529.3,-15.88"/>
<polygon fill="#63b8ff" stroke="#63b8ff" points="971.22,-54.32 961.51,-58.56 971.75,-61.3 971.22,-54.32"/>
</a>
</g>
</g>
<!-- Node7&#45;&gt;Node2 -->
<g id="edge9_Node000007_Node000002" class="edge">
<title>Node7&#45;&gt;Node2</title>
<g id="a_edge9_Node000007_Node000002"><a xlink:title=" ">
<path fill="none" stroke="#63b8ff" d="M265.17,-107.3C227.95,-96.58 186.5,-78.57 208.82,-55 236.06,-26.25 834.63,-13.86 990.82,-11.11"/>
<polygon fill="#63b8ff" stroke="#63b8ff" points="264.43,-110.72 275,-109.99 266.28,-103.97 264.43,-110.72"/>
</a>
</g>
</g>
<!-- Node7&#45;&gt;Node5 -->
<g id="edge11_Node000007_Node000005" class="edge">
<title>Node7&#45;&gt;Node5</title>
<g id="a_edge11_Node000007_Node000005"><a xlink:title=" ">
<path fill="none" stroke="#63b8ff" d="M389.32,-112.47C488.42,-104.43 667.77,-89.39 820.82,-74 823.82,-73.7 826.89,-73.38 829.98,-73.06"/>
<polygon fill="#63b8ff" stroke="#63b8ff" points="388.78,-109.01 379.1,-113.3 389.35,-115.98 388.78,-109.01"/>
</a>
</g>
</g>
<!-- Node8 -->
<g id="Node000008" class="node">
<title>Node8</title>
<g id="a_Node000008"><a xlink:href="DirektHeader_8cpp.html" target="_top" xlink:title=" ">
<polygon fill="white" stroke="#666666" points="359.32,-74 218.32,-74 218.32,-55 359.32,-55 359.32,-74"/>
<text text-anchor="middle" x="288.82" y="-62" font-family="Helvetica,sans-Serif" font-size="10.00">chrome/DirektHeader.cpp</text>
</a>
</g>
</g>
<!-- Node7&#45;&gt;Node8 -->
<g id="edge10_Node000007_Node000008" class="edge">
<title>Node7&#45;&gt;Node8</title>
<g id="a_edge10_Node000007_Node000008"><a xlink:title=" ">
<path fill="none" stroke="#63b8ff" d="M305.35,-100.53C301.13,-91.6 296.24,-81.22 292.87,-74.09"/>
<polygon fill="#63b8ff" stroke="#63b8ff" points="302.26,-102.2 309.69,-109.75 308.59,-99.21 302.26,-102.2"/>
</a>
</g>
</g>
<!-- Node9&#45;&gt;Node2 -->
<g id="edge13_Node000009_Node000002" class="edge">
<title>Node9&#45;&gt;Node2</title>
<g id="a_edge13_Node000009_Node000002"><a xlink:title=" ">
<path fill="none" stroke="#63b8ff" d="M466.94,-107.51C427.41,-97.25 384.77,-79.77 407.82,-55 447.57,-12.29 862.58,-9.98 990.5,-10.3"/>
<polygon fill="#63b8ff" stroke="#63b8ff" points="466.34,-110.97 476.89,-109.97 468.02,-104.17 466.34,-110.97"/>
</a>
</g>
</g>
<!-- Node9&#45;&gt;Node5 -->
<g id="edge15_Node000009_Node000005" class="edge">
<title>Node9&#45;&gt;Node5</title>
<g id="a_edge15_Node000009_Node000005"><a xlink:title=" ">
<path fill="none" stroke="#63b8ff" d="M592,-108.56C662.21,-98.61 769.08,-83.46 835.57,-74.04"/>
<polygon fill="#63b8ff" stroke="#63b8ff" points="591.32,-105.12 581.91,-109.98 592.3,-112.05 591.32,-105.12"/>
</a>
</g>
</g>
<!-- Node10 -->
<g id="Node000010" class="node">
<title>Node10</title>
<g id="a_Node000010"><a xlink:href="DirektPopupPanel_8cpp.html" target="_top" xlink:title=" ">
<polygon fill="white" stroke="#666666" points="579.32,-74 416.32,-74 416.32,-55 579.32,-55 579.32,-74"/>
<text text-anchor="middle" x="497.82" y="-62" font-family="Helvetica,sans-Serif" font-size="10.00">chrome/DirektPopupPanel.cpp</text>
</a>
</g>
</g>
<!-- Node9&#45;&gt;Node10 -->
<g id="edge14_Node000009_Node000010" class="edge">
<title>Node9&#45;&gt;Node10</title>
<g id="a_edge14_Node000009_Node000010"><a xlink:title=" ">
<path fill="none" stroke="#63b8ff" d="M513.68,-100.53C509.64,-91.6 504.94,-81.22 501.71,-74.09"/>
<polygon fill="#63b8ff" stroke="#63b8ff" points="510.55,-102.08 517.86,-109.75 516.92,-99.19 510.55,-102.08"/>
</a>
</g>
</g>
<!-- Node11&#45;&gt;Node2 -->
<g id="edge17_Node000011_Node000002" class="edge">
<title>Node11&#45;&gt;Node2</title>
<g id="a_edge17_Node000011_Node000002"><a xlink:title=" ">
<path fill="none" stroke="#63b8ff" d="M688.49,-107.82C646.08,-98.23 603.11,-81.49 626.82,-55 650.88,-28.12 895.88,-15.69 990.66,-11.85"/>
<polygon fill="#63b8ff" stroke="#63b8ff" points="687.85,-111.26 698.36,-109.94 689.31,-104.42 687.85,-111.26"/>
</a>
</g>
</g>
<!-- Node11&#45;&gt;Node5 -->
<g id="edge19_Node000011_Node000005" class="edge">
<title>Node11&#45;&gt;Node5</title>
<g id="a_edge19_Node000011_Node000005"><a xlink:title=" ">
<path fill="none" stroke="#63b8ff" d="M786.96,-106.42C813.12,-96.59 849.41,-82.95 872.76,-74.17"/>
<polygon fill="#63b8ff" stroke="#63b8ff" points="785.61,-103.19 777.48,-109.98 788.07,-109.74 785.61,-103.19"/>
</a>
</g>
</g>
<!-- Node12 -->
<g id="Node000012" class="node">
<title>Node12</title>
<g id="a_Node000012"><a xlink:href="DirektPresetBrowser_8cpp.html" target="_top" xlink:title=" ">
<polygon fill="white" stroke="#666666" points="811.82,-74 635.82,-74 635.82,-55 811.82,-55 811.82,-74"/>
<text text-anchor="middle" x="723.82" y="-62" font-family="Helvetica,sans-Serif" font-size="10.00">chrome/DirektPresetBrowser.cpp</text>
</a>
</g>
</g>
<!-- Node11&#45;&gt;Node12 -->
<g id="edge18_Node000011_Node000012" class="edge">
<title>Node11&#45;&gt;Node12</title>
<g id="a_edge18_Node000011_Node000012"><a xlink:title=" ">
<path fill="none" stroke="#63b8ff" d="M744.65,-101.1C739.35,-92.04 733.11,-81.37 728.85,-74.09"/>
<polygon fill="#63b8ff" stroke="#63b8ff" points="741.63,-102.88 749.7,-109.75 747.68,-99.35 741.63,-102.88"/>
</a>
</g>
</g>
<!-- Node13&#45;&gt;Node2 -->
<g id="edge21_Node000013_Node000002" class="edge">
<title>Node13&#45;&gt;Node2</title>
<g id="a_edge21_Node000013_Node000002"><a xlink:title=" ">
<path fill="none" stroke="#63b8ff" d="M993.8,-100.12C1002.74,-76.56 1017.89,-36.66 1024.54,-19.16"/>
<polygon fill="#63b8ff" stroke="#63b8ff" points="990.45,-99.07 990.18,-109.66 997,-101.56 990.45,-99.07"/>
</a>
</g>
</g>
<!-- Node13&#45;&gt;Node5 -->
<g id="edge22_Node000013_Node000005" class="edge">
<title>Node13&#45;&gt;Node5</title>
<g id="a_edge22_Node000013_Node000005"><a xlink:title=" ">
<path fill="none" stroke="#63b8ff" d="M963.12,-104.7C946.54,-95.04 924.91,-82.44 910.71,-74.17"/>
<polygon fill="#63b8ff" stroke="#63b8ff" points="961.8,-107.98 972.2,-109.98 965.32,-101.93 961.8,-107.98"/>
</a>
</g>
</g>
<!-- Node18&#45;&gt;Node2 -->
<g id="edge29_Node000018_Node000002" class="edge">
<title>Node18&#45;&gt;Node2</title>
<g id="a_edge29_Node000018_Node000002"><a xlink:title=" ">
<path fill="none" stroke="#63b8ff" d="M1314.39,-104.06C1294.05,-89.62 1260.69,-67.76 1228.82,-55 1173.91,-33.01 1105.99,-20.85 1064.83,-15.01"/>
<polygon fill="#63b8ff" stroke="#63b8ff" points="1312.36,-106.92 1322.52,-109.94 1316.46,-101.24 1312.36,-106.92"/>
</a>
</g>
</g>
<!-- Node18&#45;&gt;Node6 -->
<g id="edge30_Node000018_Node000006" class="edge">
<title>Node18&#45;&gt;Node6</title>
<g id="a_edge30_Node000018_Node000006"><a xlink:title=" ">
<path fill="none" stroke="#63b8ff" d="M1317.44,-102.53C1305.3,-88.77 1292.79,-68.97 1304.82,-55 1333.18,-22.07 1450.82,-13.17 1528.99,-10.96"/>
<polygon fill="#63b8ff" stroke="#63b8ff" points="1314.93,-104.97 1324.35,-109.84 1320.02,-100.17 1314.93,-104.97"/>
</a>
</g>
</g>
<!-- Node18&#45;&gt;Node17 -->
<g id="edge31_Node000018_Node000017" class="edge">
<title>Node18&#45;&gt;Node17</title>
<g id="a_edge31_Node000018_Node000017"><a xlink:title=" ">
<path fill="none" stroke="#63b8ff" d="M1421.59,-109.96C1613.44,-93.76 1824.99,-79.3 1943.62,-71.5"/>
<polygon fill="#63b8ff" stroke="#63b8ff" points="1421.27,-106.47 1411.6,-110.8 1421.86,-113.45 1421.27,-106.47"/>
</a>
</g>
</g>
<!-- Node19 -->
<g id="Node000019" class="node">
<title>Node19</title>
<g id="a_Node000019"><a xlink:href="DirektClipIndicator_8cpp.html" target="_top" xlink:title=" ">
<polygon fill="white" stroke="#666666" points="1479.82,-74 1313.82,-74 1313.82,-55 1479.82,-55 1479.82,-74"/>
<text text-anchor="middle" x="1396.82" y="-62" font-family="Helvetica,sans-Serif" font-size="10.00">display/DirektClipIndicator.cpp</text>
</a>
</g>
</g>
<!-- Node18&#45;&gt;Node19 -->
<g id="edge32_Node000018_Node000019" class="edge">
<title>Node18&#45;&gt;Node19</title>
<g id="a_edge32_Node000018_Node000019"><a xlink:title=" ">
<path fill="none" stroke="#63b8ff" d="M1351.86,-103.32C1363.1,-93.87 1377.14,-82.06 1386.52,-74.17"/>
<polygon fill="#63b8ff" stroke="#63b8ff" points="1349.34,-100.87 1343.94,-109.98 1353.85,-106.23 1349.34,-100.87"/>
</a>
</g>
</g>
<!-- Node20&#45;&gt;Node2 -->
<g id="edge34_Node000020_Node000002" class="edge">
<title>Node20&#45;&gt;Node2</title>
<g id="a_edge34_Node000020_Node000002"><a xlink:title=" ">
<path fill="none" stroke="#63b8ff" d="M1495.52,-99.72C1498.54,-85.61 1499.68,-66.77 1488.82,-55 1460.27,-24.05 1169.71,-13.95 1065.1,-11.31"/>
<polygon fill="#63b8ff" stroke="#63b8ff" points="1492.03,-99.24 1492.89,-109.79 1498.81,-101 1492.03,-99.24"/>
</a>
</g>
</g>
<!-- Node20&#45;&gt;Node17 -->
<g id="edge35_Node000020_Node000017" class="edge">
<title>Node20&#45;&gt;Node17</title>
<g id="a_edge35_Node000020_Node000017"><a xlink:title=" ">
<path fill="none" stroke="#63b8ff" d="M1560.2,-109.99C1700.17,-95.06 1849.56,-81.6 1943.52,-73.43"/>
<polygon fill="#63b8ff" stroke="#63b8ff" points="1559.71,-106.52 1550.14,-111.07 1560.46,-113.48 1559.71,-106.52"/>
</a>
</g>
</g>
<!-- Node21 -->
<g id="Node000021" class="node">
<title>Node21</title>
<g id="a_Node000021"><a xlink:href="DirektLabel_8cpp.html" target="_top" xlink:title=" ">
<polygon fill="white" stroke="#666666" points="1667.32,-74 1536.32,-74 1536.32,-55 1667.32,-55 1667.32,-74"/>
<text text-anchor="middle" x="1601.82" y="-62" font-family="Helvetica,sans-Serif" font-size="10.00">display/DirektLabel.cpp</text>
</a>
</g>
</g>
<!-- Node20&#45;&gt;Node21 -->
<g id="edge36_Node000020_Node000021" class="edge">
<title>Node20&#45;&gt;Node21</title>
<g id="a_edge36_Node000020_Node000021"><a xlink:title=" ">
<path fill="none" stroke="#63b8ff" d="M1517.01,-105.63C1537.64,-95.87 1565.45,-82.71 1583.5,-74.17"/>
<polygon fill="#63b8ff" stroke="#63b8ff" points="1515.36,-102.54 1507.82,-109.98 1518.35,-108.87 1515.36,-102.54"/>
</a>
</g>
</g>
<!-- Node22&#45;&gt;Node2 -->
<g id="edge38_Node000022_Node000002" class="edge">
<title>Node22&#45;&gt;Node2</title>
<g id="a_edge38_Node000022_Node000002"><a xlink:title=" ">
<path fill="none" stroke="#63b8ff" d="M1875.65,-159.73C1889.89,-151.06 1908.53,-139.55 1924.82,-129 1937.44,-120.82 1938.93,-115.77 1952.82,-110 2032.43,-76.93 2198.55,-117.16 2138.82,-55 2119.8,-35.2 1256.24,-15.43 1065.04,-11.29"/>
<polygon fill="#63b8ff" stroke="#63b8ff" points="1873.74,-156.8 1867.01,-164.98 1877.37,-162.78 1873.74,-156.8"/>
</a>
</g>
</g>
<!-- Node22&#45;&gt;Node6 -->
<g id="edge39_Node000022_Node000006" class="edge">
<title>Node22&#45;&gt;Node6</title>
<g id="a_edge39_Node000022_Node000006"><a xlink:title=" ">
<path fill="none" stroke="#63b8ff" d="M1881.32,-160.82C1922.82,-142.36 1995.09,-110.24 1995.82,-110 2073.87,-85.01 2227.48,-115.16 2171.82,-55 2138.57,-19.05 1818.36,-12.08 1672.53,-10.77"/>
<polygon fill="#63b8ff" stroke="#63b8ff" points="1879.7,-157.71 1871.98,-164.98 1882.54,-164.11 1879.7,-157.71"/>
</a>
</g>
</g>
<!-- Node22&#45;&gt;Node17 -->
<g id="edge40_Node000022_Node000017" class="edge">
<title>Node22&#45;&gt;Node17</title>
<g id="a_edge40_Node000022_Node000017"><a xlink:title=" ">
<path fill="none" stroke="#63b8ff" d="M1868.09,-157.18C1881.86,-143.19 1903.21,-123.26 1924.82,-110 1951.04,-93.91 1984.07,-81.63 2007.46,-74.08"/>
<polygon fill="#63b8ff" stroke="#63b8ff" points="1865.33,-155 1860.91,-164.63 1870.37,-159.85 1865.33,-155"/>
</a>
</g>
</g>
<!-- Node23 -->
<g id="Node000023" class="node">
<title>Node23</title>
<g id="a_Node000023"><a xlink:href="DirektMeter_8cpp.html" target="_top" xlink:title=" ">
<polygon fill="white" stroke="#666666" points="1872.32,-129 1739.32,-129 1739.32,-110 1872.32,-110 1872.32,-129"/>
<text text-anchor="middle" x="1805.82" y="-117" font-family="Helvetica,sans-Serif" font-size="10.00">display/DirektMeter.cpp</text>
</a>
</g>
</g>
<!-- Node22&#45;&gt;Node23 -->
<g id="edge41_Node000022_Node000023" class="edge">
<title>Node22&#45;&gt;Node23</title>
<g id="a_edge41_Node000022_Node000023"><a xlink:title=" ">
<path fill="none" stroke="#63b8ff" d="M1838.4,-157.24C1830.16,-147.95 1820.17,-136.68 1813.44,-129.09"/>
<polygon fill="#63b8ff" stroke="#63b8ff" points="1835.81,-159.59 1845.06,-164.75 1841.05,-154.94 1835.81,-159.59"/>
</a>
</g>
</g>
<!-- Node22&#45;&gt;Node24 -->
<g id="edge42_Node000022_Node000024" class="edge">
<title>Node22&#45;&gt;Node24</title>
<g id="a_edge42_Node000022_Node000024"><a xlink:title=" ">
<path fill="none" stroke="#63b8ff" d="M1809.41,-162.44C1770.47,-152.52 1714.13,-138.16 1678.5,-129.08"/>
<polygon fill="#63b8ff" stroke="#63b8ff" points="1808.85,-165.91 1819.4,-164.98 1810.58,-159.12 1808.85,-165.91"/>
</a>
</g>
</g>
<!-- Node24&#45;&gt;Node2 -->
<g id="edge43_Node000024_Node000002" class="edge">
<title>Node24&#45;&gt;Node2</title>
<g id="a_edge43_Node000024_Node000002"><a xlink:title=" ">
<path fill="none" stroke="#63b8ff" d="M1714.64,-108.43C1773.49,-99.24 1849.57,-85.37 1858.82,-74 1864.15,-67.45 1864.63,-61.13 1858.82,-55 1831.15,-25.8 1222.48,-13.72 1064.84,-11.08"/>
<polygon fill="#63b8ff" stroke="#63b8ff" points="1713.96,-105 1704.62,-109.98 1715.03,-111.91 1713.96,-105"/>
</a>
</g>
</g>
<!-- Node24&#45;&gt;Node6 -->
<g id="edge44_Node000024_Node000006" class="edge">
<title>Node24&#45;&gt;Node6</title>
<g id="a_edge44_Node000024_Node000006"><a xlink:title=" ">
<path fill="none" stroke="#63b8ff" d="M1729.12,-108.67C1796.44,-99.96 1881.22,-86.68 1891.82,-74 1897.24,-67.52 1897.32,-61.41 1891.82,-55 1864.1,-22.72 1749.35,-13.61 1672.49,-11.18"/>
<polygon fill="#63b8ff" stroke="#63b8ff" points="1728.38,-105.24 1718.9,-109.98 1729.27,-112.18 1728.38,-105.24"/>
</a>
</g>
</g>
<!-- Node24&#45;&gt;Node17 -->
<g id="edge45_Node000024_Node000017" class="edge">
<title>Node24&#45;&gt;Node17</title>
<g id="a_edge45_Node000024_Node000017"><a xlink:title=" ">
<path fill="none" stroke="#63b8ff" d="M1717.92,-108.62C1791.51,-98.67 1903.84,-83.48 1973.67,-74.04"/>
<polygon fill="#63b8ff" stroke="#63b8ff" points="1717.24,-105.18 1707.8,-109.98 1718.18,-112.11 1717.24,-105.18"/>
</a>
</g>
</g>
<!-- Node25 -->
<g id="Node000025" class="node">
<title>Node25</title>
<g id="a_Node000025"><a xlink:href="DirektStereoMeter_8cpp.html" target="_top" xlink:title=" ">
<polygon fill="white" stroke="#666666" points="1849.82,-74 1685.82,-74 1685.82,-55 1849.82,-55 1849.82,-74"/>
<text text-anchor="middle" x="1767.82" y="-62" font-family="Helvetica,sans-Serif" font-size="10.00">display/DirektStereoMeter.cpp</text>
</a>
</g>
</g>
<!-- Node24&#45;&gt;Node25 -->
<g id="edge46_Node000024_Node000025" class="edge">
<title>Node24&#45;&gt;Node25</title>
<g id="a_edge46_Node000024_Node000025"><a xlink:title=" ">
<path fill="none" stroke="#63b8ff" d="M1674.07,-105.9C1696.79,-96.11 1727.69,-82.79 1747.7,-74.17"/>
<polygon fill="#63b8ff" stroke="#63b8ff" points="1672.38,-102.81 1664.58,-109.98 1675.15,-109.24 1672.38,-102.81"/>
</a>
</g>
</g>
<!-- Node26&#45;&gt;Node2 -->
<g id="edge49_Node000026_Node000002" class="edge">
<title>Node26&#45;&gt;Node2</title>
<g id="a_edge49_Node000026_Node000002"><a xlink:title=" ">
<path fill="none" stroke="#63b8ff" d="M2429.81,-167.77C2483.68,-161.84 2550.51,-150.34 2567.82,-129 2588.54,-103.46 2590.74,-78.59 2567.82,-55 2554.3,-41.08 1299.15,-15.82 1065.15,-11.23"/>
<polygon fill="#63b8ff" stroke="#63b8ff" points="2429.15,-164.32 2419.57,-168.84 2429.88,-171.28 2429.15,-164.32"/>
</a>
</g>
</g>
<!-- Node26&#45;&gt;Node5 -->
<g id="edge54_Node000026_Node000005" class="edge">
<title>Node26&#45;&gt;Node5</title>
<g id="a_edge54_Node000026_Node000005"><a xlink:title=" ">
<path fill="none" stroke="#63b8ff" d="M2356.75,-154.73C2355.59,-140.02 2351.36,-120.38 2337.82,-110 2280.88,-66.35 1118.51,-77.02 1046.82,-74 1018.88,-72.82 988.06,-71.16 961.58,-69.61"/>
<polygon fill="#63b8ff" stroke="#63b8ff" points="2353.26,-154.92 2357.15,-164.77 2360.25,-154.64 2353.26,-154.92"/>
</a>
</g>
</g>
<!-- Node26&#45;&gt;Node17 -->
<g id="edge55_Node000026_Node000017" class="edge">
<title>Node26&#45;&gt;Node17</title>
<g id="a_edge55_Node000026_Node000017"><a xlink:title=" ">
<path fill="none" stroke="#63b8ff" d="M2367.85,-156.27C2375.3,-142.22 2381.94,-122.7 2370.82,-110 2355.07,-92.01 2223.2,-78.85 2129.96,-71.68"/>
<polygon fill="#63b8ff" stroke="#63b8ff" points="2364.79,-154.56 2362.77,-164.97 2370.83,-158.09 2364.79,-154.56"/>
</a>
</g>
</g>
<!-- Node27 -->
<g id="Node000027" class="node">
<title>Node27</title>
<g id="a_Node000027"><a xlink:href="DirektAutoLayout_8h.html" target="_top" xlink:title=" ">
<polygon fill="white" stroke="#666666" points="2558.32,-129 2423.32,-129 2423.32,-110 2558.32,-110 2558.32,-129"/>
<text text-anchor="middle" x="2490.82" y="-117" font-family="Helvetica,sans-Serif" font-size="10.00">core/DirektAutoLayout.h</text>
</a>
</g>
</g>
<!-- Node26&#45;&gt;Node27 -->
<g id="edge50_Node000026_Node000027" class="edge">
<title>Node26&#45;&gt;Node27</title>
<g id="a_edge50_Node000026_Node000027"><a xlink:title=" ">
<path fill="none" stroke="#63b8ff" d="M2387.69,-161.29C2412.53,-151.47 2446.81,-137.91 2468.9,-129.17"/>
<polygon fill="#63b8ff" stroke="#63b8ff" points="2386.36,-158.05 2378.35,-164.98 2388.94,-164.56 2386.36,-158.05"/>
</a>
</g>
</g>
<!-- Node29 -->
<g id="Node000029" class="node">
<title>Node29</title>
<g id="a_Node000029"><a xlink:href="DirektFlexContainer_8cpp.html" target="_top" xlink:title=" ">
<polygon fill="white" stroke="#666666" points="2172.82,-129 2004.82,-129 2004.82,-110 2172.82,-110 2172.82,-129"/>
<text text-anchor="middle" x="2088.82" y="-117" font-family="Helvetica,sans-Serif" font-size="10.00">layout/DirektFlexContainer.cpp</text>
</a>
</g>
</g>
<!-- Node26&#45;&gt;Node29 -->
<g id="edge56_Node000026_Node000029" class="edge">
<title>Node26&#45;&gt;Node29</title>
<g id="a_edge56_Node000026_Node000029"><a xlink:title=" ">
<path fill="none" stroke="#63b8ff" d="M2303.74,-163C2253.5,-153.07 2179,-138.33 2132.22,-129.08"/>
<polygon fill="#63b8ff" stroke="#63b8ff" points="2303.27,-166.48 2313.76,-164.98 2304.63,-159.61 2303.27,-166.48"/>
</a>
</g>
</g>
<!-- Node30 -->
<g id="Node000030" class="node">
<title>Node30</title>
<g id="a_Node000030"><a xlink:href="DirektSection_8cpp.html" target="_top" xlink:title=" ">
<polygon fill="white" stroke="#666666" points="2328.32,-129 2191.32,-129 2191.32,-110 2328.32,-110 2328.32,-129"/>
<text text-anchor="middle" x="2259.82" y="-117" font-family="Helvetica,sans-Serif" font-size="10.00">layout/DirektSection.cpp</text>
</a>
</g>
</g>
<!-- Node26&#45;&gt;Node30 -->
<g id="edge57_Node000026_Node000030" class="edge">
<title>Node26&#45;&gt;Node30</title>
<g id="a_edge57_Node000026_Node000030"><a xlink:title=" ">
<path fill="none" stroke="#63b8ff" d="M2332.05,-159.97C2314.32,-150.28 2290.97,-137.52 2275.69,-129.17"/>
<polygon fill="#63b8ff" stroke="#63b8ff" points="2330.78,-163.26 2341.24,-164.98 2334.14,-157.12 2330.78,-163.26"/>
</a>
</g>
</g>
<!-- Node27&#45;&gt;Node2 -->
<g id="edge51_Node000027_Node000002" class="edge">
<title>Node27&#45;&gt;Node2</title>
<g id="a_edge51_Node000027_Node000002"><a xlink:title=" ">
<path fill="none" stroke="#63b8ff" d="M2447.05,-107.51C2385.9,-92.67 2271.22,-66.75 2171.82,-55 1950.01,-28.77 1235.92,-14.3 1064.89,-11.16"/>
<polygon fill="#63b8ff" stroke="#63b8ff" points="2446.57,-110.99 2457.11,-109.96 2448.23,-104.19 2446.57,-110.99"/>
</a>
</g>
</g>
<!-- Node27&#45;&gt;Node5 -->
<g id="edge53_Node000027_Node000005" class="edge">
<title>Node27&#45;&gt;Node5</title>
<g id="a_edge53_Node000027_Node000005"><a xlink:title=" ">
<path fill="none" stroke="#63b8ff" d="M2413.12,-112.5C2399.05,-111.55 2384.5,-110.67 2370.82,-110 1782.87,-81.2 1634.97,-98.54 1046.82,-74 1018.88,-72.83 988.06,-71.17 961.58,-69.62"/>
<polygon fill="#63b8ff" stroke="#63b8ff" points="2413.05,-116 2423.26,-113.2 2413.53,-109.02 2413.05,-116"/>
</a>
</g>
</g>
<!-- Node28 -->
<g id="Node000028" class="node">
<title>Node28</title>
<g id="a_Node000028"><a xlink:href="DirektAutoLayout_8cpp.html" target="_top" xlink:title=" ">
<polygon fill="white" stroke="#666666" points="2558.82,-74 2412.82,-74 2412.82,-55 2558.82,-55 2558.82,-74"/>
<text text-anchor="middle" x="2485.82" y="-62" font-family="Helvetica,sans-Serif" font-size="10.00">core/DirektAutoLayout.cpp</text>
</a>
</g>
</g>
<!-- Node27&#45;&gt;Node28 -->
<g id="edge52_Node000027_Node000028" class="edge">
<title>Node27&#45;&gt;Node28</title>
<g id="a_edge52_Node000027_Node000028"><a xlink:title=" ">
<path fill="none" stroke="#63b8ff" d="M2489.05,-99.66C2488.22,-90.93 2487.28,-80.99 2486.63,-74.09"/>
<polygon fill="#63b8ff" stroke="#63b8ff" points="2485.57,-100.12 2490,-109.75 2492.54,-99.46 2485.57,-100.12"/>
</a>
</g>
</g>
<!-- Node31&#45;&gt;Node2 -->
<g id="edge59_Node000031_Node000002" class="edge">
<title>Node31&#45;&gt;Node2</title>
<g id="a_edge59_Node000031_Node000002"><a xlink:title=" ">
<path fill="none" stroke="#63b8ff" d="M2695.98,-104.56C2667.53,-87.49 2620.31,-60.2 2600.82,-55 2562.51,-44.77 1299.04,-16.48 1064.94,-11.31"/>
<polygon fill="#63b8ff" stroke="#63b8ff" points="2694.47,-107.74 2704.84,-109.91 2698.09,-101.74 2694.47,-107.74"/>
</a>
</g>
</g>
<!-- Node31&#45;&gt;Node17 -->
<g id="edge60_Node000031_Node000017" class="edge">
<title>Node31&#45;&gt;Node17</title>
<g id="a_edge60_Node000031_Node000017"><a xlink:title=" ">
<path fill="none" stroke="#63b8ff" d="M2642.19,-110.31C2641.06,-110.2 2639.94,-110.1 2638.82,-110 2458.9,-93.8 2248.34,-79.24 2129.97,-71.46"/>
<polygon fill="#63b8ff" stroke="#63b8ff" points="2642.2,-113.82 2652.48,-111.29 2642.86,-106.85 2642.2,-113.82"/>
</a>
</g>
</g>
<!-- Node32 -->
<g id="Node000032" class="node">
<title>Node32</title>
<g id="a_Node000032"><a xlink:href="DirektTabPanel_8cpp.html" target="_top" xlink:title=" ">
<polygon fill="white" stroke="#666666" points="2796.32,-74 2653.32,-74 2653.32,-55 2796.32,-55 2796.32,-74"/>
<text text-anchor="middle" x="2724.82" y="-62" font-family="Helvetica,sans-Serif" font-size="10.00">layout/DirektTabPanel.cpp</text>
</a>
</g>
</g>
<!-- Node31&#45;&gt;Node32 -->
<g id="edge61_Node000031_Node000032" class="edge">
<title>Node31&#45;&gt;Node32</title>
<g id="a_edge61_Node000031_Node000032"><a xlink:title=" ">
<path fill="none" stroke="#63b8ff" d="M2720.96,-99.66C2721.94,-90.93 2723.07,-80.99 2723.85,-74.09"/>
<polygon fill="#63b8ff" stroke="#63b8ff" points="2717.46,-99.42 2719.81,-109.75 2724.42,-100.21 2717.46,-99.42"/>
</a>
</g>
</g>
<!-- Node33&#45;&gt;Node2 -->
<g id="edge63_Node000033_Node000002" class="edge">
<title>Node33&#45;&gt;Node2</title>
<g id="a_edge63_Node000033_Node000002"><a xlink:title=" ">
<path fill="none" stroke="#63b8ff" d="M1096.86,-106.39C1079.12,-99.5 1059.83,-89.14 1046.82,-74 1033.18,-58.11 1029.33,-32.72 1028.25,-19.37"/>
<polygon fill="#63b8ff" stroke="#63b8ff" points="1095.9,-109.76 1106.5,-109.87 1098.28,-103.18 1095.9,-109.76"/>
</a>
</g>
</g>
<!-- Node33&#45;&gt;Node5 -->
<g id="edge64_Node000033_Node000005" class="edge">
<title>Node33&#45;&gt;Node5</title>
<g id="a_edge64_Node000033_Node000005"><a xlink:title=" ">
<path fill="none" stroke="#63b8ff" d="M1091.43,-107.82C1045.52,-97.88 978,-83.28 935.49,-74.08"/>
<polygon fill="#63b8ff" stroke="#63b8ff" points="1090.95,-111.29 1101.46,-109.98 1092.43,-104.45 1090.95,-111.29"/>
</a>
</g>
</g>
<!-- Node33&#45;&gt;Node17 -->
<g id="edge65_Node000033_Node000017" class="edge">
<title>Node33&#45;&gt;Node17</title>
<g id="a_edge65_Node000033_Node000017"><a xlink:title=" ">
<path fill="none" stroke="#63b8ff" d="M1227.27,-111.46C1234.22,-110.95 1241.14,-110.45 1247.82,-110 1499.17,-92.93 1795.88,-77.45 1943.56,-70.07"/>
<polygon fill="#63b8ff" stroke="#63b8ff" points="1226.79,-107.99 1217.09,-112.23 1227.32,-114.97 1226.79,-107.99"/>
</a>
</g>
</g>
<!-- Node34 -->
<g id="Node000034" class="node">
<title>Node34</title>
<g id="a_Node000034"><a xlink:href="DirektLookAndFeel_8cpp.html" target="_top" xlink:title=" ">
<polygon fill="white" stroke="#666666" points="1219.82,-74 1055.82,-74 1055.82,-55 1219.82,-55 1219.82,-74"/>
<text text-anchor="middle" x="1137.82" y="-62" font-family="Helvetica,sans-Serif" font-size="10.00">theme/DirektLookAndFeel.cpp</text>
</a>
</g>
</g>
<!-- Node33&#45;&gt;Node34 -->
<g id="edge66_Node000033_Node000034" class="edge">
<title>Node33&#45;&gt;Node34</title>
<g id="a_edge66_Node000033_Node000034"><a xlink:title=" ">
<path fill="none" stroke="#63b8ff" d="M1139.76,-99.66C1139.26,-90.93 1138.7,-80.99 1138.31,-74.09"/>
<polygon fill="#63b8ff" stroke="#63b8ff" points="1136.27,-99.96 1140.33,-109.75 1143.26,-99.57 1136.27,-99.96"/>
</a>
</g>
</g>
</g>
</svg>

<g id="navigator" transform="translate(0 0)" fill="#404254">
  <rect fill="#f2f5e9" fill-opacity="0.5" stroke="#606060" stroke-width=".5" x="0" y="0" width="60" height="60"/>
  <use id="zoomplus" xlink:href="#zoomPlus" x="17" y="9" onmousedown="handleZoom(evt,'in')"/>
  <use id="zoomminus" xlink:href="#zoomMin" x="42" y="9" onmousedown="handleZoom(evt,'out')"/>
  <use id="reset" xlink:href="#resetDef" x="30" y="36" onmousedown="handleReset()"/>
   <use id="arrowup" xlink:href="#arrowUp" x="0" y="0" onmousedown="handlePan(0,-1)"/>
  <use id="arrowright" xlink:href="#arrowRight" x="0" y="0" onmousedown="handlePan(1,0)"/>
  <use id="arrowdown" xlink:href="#arrowDown" x="0" y="0" onmousedown="handlePan(0,1)"/>
  <use id="arrowleft" xlink:href="#arrowLeft" x="0" y="0" onmousedown="handlePan(-1,0)"/>
</g>
<svg viewBox="0 0 15 15" width="100%" height="30px" preserveAspectRatio="xMaxYMin meet">
 <g id="arrow_out" transform="scale(0.3 0.3)">
  <a xlink:href="DirektColours_8h__dep__incl_org.svg" target="_base">
   <rect id="button" ry="5" rx="5" y="6" x="6" height="38" width="38"
        fill="#f2f5e9" fill-opacity="0.5" stroke="#606060" stroke-width="1.0"/>
   <path id="arrow"
     d="M 11.500037,31.436501 C 11.940474,20.09759 22.043105,11.32322 32.158766,21.979434 L 37.068811,17.246167 C 37.068811,17.246167 37.088388,32 37.088388,32 L 22.160133,31.978069 C 22.160133,31.978069 26.997745,27.140456 26.997745,27.140456 C 18.528582,18.264221 13.291696,25.230495 11.500037,31.436501 z"
     style="fill:#404040;"/>
  </a>
 </g>
</svg>

<style type='text/css'>
<![CDATA[
[data-mouse-over-selected='false'] { opacity: 0.7; }
[data-mouse-over-selected='true']  { opacity: 1.0; }
]]>
</style>
<script type="application/ecmascript"><![CDATA[
document.addEventListener('DOMContentLoaded', (event) => {
  highlightEdges();
  highlightAdjacentNodes();
});
]]></script>
</svg>
