<?xml version="1.0" encoding="UTF-8" standalone="no"?>
<!DOCTYPE svg PUBLIC "-//W3C//DTD SVG 1.1//EN"
 "http://www.w3.org/Graphics/SVG/1.1/DTD/svg11.dtd">
<!-- Generated by graphviz version 2.43.0 (0)
 -->
<!-- Title: core/DirektAutoLayout.h Pages: 1 -->
<svg width="986pt" height="214pt"
 viewBox="0.00 0.00 986.00 214.00" xmlns="http://www.w3.org/2000/svg" xmlns:xlink="http://www.w3.org/1999/xlink">
<g id="graph0" class="graph" transform="scale(1 1) rotate(0) translate(4 210)">
<title>core/DirektAutoLayout.h</title>
<!-- Node1 -->
<g id="Node000001" class="node">
<title>Node1</title>
<g id="a_Node000001"><a xlink:title=" ">
<polygon fill="#999999" stroke="#666666" points="484,-206 349,-206 349,-187 484,-187 484,-206"/>
<text text-anchor="middle" x="416.5" y="-194" font-family="Helvetica,sans-Serif" font-size="10.00">core/DirektAutoLayout.h</text>
</a>
</g>
</g>
<!-- Node2 -->
<g id="Node000002" class="node">
<title>Node2</title>
<g id="a_Node000002"><a xlink:title=" ">
<polygon fill="#e0e0e0" stroke="#999999" points="256,-96 117,-96 117,-66 256,-66 256,-96"/>
<text text-anchor="start" x="125" y="-84" font-family="Helvetica,sans-Serif" font-size="10.00">juce_audio_processors</text>
<text text-anchor="middle" x="186.5" y="-73" font-family="Helvetica,sans-Serif" font-size="10.00">/juce_audio_processors.h</text>
</a>
</g>
</g>
<!-- Node1&#45;&gt;Node2 -->
<g id="edge1_Node000001_Node000002" class="edge">
<title>Node1&#45;&gt;Node2</title>
<g id="a_edge1_Node000001_Node000002"><a xlink:title=" ">
<path fill="none" stroke="#63b8ff" d="M348.86,-189.81C293.14,-183.69 220.07,-171.9 199.5,-151 188.08,-139.39 185.04,-121.11 184.74,-106.28"/>
<polygon fill="#63b8ff" stroke="#63b8ff" points="188.24,-106.3 184.93,-96.24 181.24,-106.17 188.24,-106.3"/>
</a>
</g>
</g>
<!-- Node3 -->
<g id="Node000003" class="node">
<title>Node3</title>
<g id="a_Node000003"><a xlink:title=" ">
<polygon fill="#e0e0e0" stroke="#999999" points="537.5,-30 421.5,-30 421.5,0 537.5,0 537.5,-30"/>
<text text-anchor="start" x="429.5" y="-18" font-family="Helvetica,sans-Serif" font-size="10.00">juce_gui_basics/juce</text>
<text text-anchor="middle" x="479.5" y="-7" font-family="Helvetica,sans-Serif" font-size="10.00">_gui_basics.h</text>
</a>
</g>
</g>
<!-- Node1&#45;&gt;Node3 -->
<g id="edge2_Node000001_Node000003" class="edge">
<title>Node1&#45;&gt;Node3</title>
<g id="a_edge2_Node000001_Node000003"><a xlink:title=" ">
<path fill="none" stroke="#63b8ff" d="M441.31,-186.95C457.34,-179.99 476.93,-168.42 486.5,-151 505.64,-116.16 496.39,-68.33 487.94,-39.95"/>
<polygon fill="#63b8ff" stroke="#63b8ff" points="491.17,-38.56 484.8,-30.09 484.5,-40.68 491.17,-38.56"/>
</a>
</g>
</g>
<!-- Node4 -->
<g id="Node000004" class="node">
<title>Node4</title>
<g id="a_Node000004"><a xlink:href="DirektDescriptors_8h.html" target="_top" xlink:title=" ">
<polygon fill="white" stroke="#666666" points="869,-151 726,-151 726,-132 869,-132 869,-151"/>
<text text-anchor="middle" x="797.5" y="-139" font-family="Helvetica,sans-Serif" font-size="10.00">config/DirektDescriptors.h</text>
</a>
</g>
</g>
<!-- Node1&#45;&gt;Node4 -->
<g id="edge3_Node000001_Node000004" class="edge">
<title>Node1&#45;&gt;Node4</title>
<g id="a_edge3_Node000001_Node000004"><a xlink:title=" ">
<path fill="none" stroke="#63b8ff" d="M477.71,-186.98C545.38,-177.57 654.25,-162.43 725.84,-152.47"/>
<polygon fill="#63b8ff" stroke="#63b8ff" points="726.7,-155.88 736.12,-151.04 725.74,-148.95 726.7,-155.88"/>
</a>
</g>
</g>
<!-- Node9 -->
<g id="Node000009" class="node">
<title>Node9</title>
<g id="a_Node000009"><a xlink:href="DirektComboBox_8h.html" target="_top" xlink:title=" ">
<polygon fill="white" stroke="#666666" points="151,-151 0,-151 0,-132 151,-132 151,-151"/>
<text text-anchor="middle" x="75.5" y="-139" font-family="Helvetica,sans-Serif" font-size="10.00">controls/DirektComboBox.h</text>
</a>
</g>
</g>
<!-- Node1&#45;&gt;Node9 -->
<g id="edge9_Node000001_Node000009" class="edge">
<title>Node1&#45;&gt;Node9</title>
<g id="a_edge9_Node000001_Node000009"><a xlink:title=" ">
<path fill="none" stroke="#63b8ff" d="M361.71,-186.98C301.4,-177.61 204.51,-162.55 140.43,-152.59"/>
<polygon fill="#63b8ff" stroke="#63b8ff" points="140.85,-149.12 130.43,-151.04 139.78,-156.03 140.85,-149.12"/>
</a>
</g>
</g>
<!-- Node10 -->
<g id="Node000010" class="node">
<title>Node10</title>
<g id="a_Node000010"><a xlink:href="DirektKnob_8h.html" target="_top" xlink:title=" ">
<polygon fill="white" stroke="#666666" points="477.5,-151 355.5,-151 355.5,-132 477.5,-132 477.5,-151"/>
<text text-anchor="middle" x="416.5" y="-139" font-family="Helvetica,sans-Serif" font-size="10.00">controls/DirektKnob.h</text>
</a>
</g>
</g>
<!-- Node1&#45;&gt;Node10 -->
<g id="edge12_Node000001_Node000010" class="edge">
<title>Node1&#45;&gt;Node10</title>
<g id="a_edge12_Node000001_Node000010"><a xlink:title=" ">
<path fill="none" stroke="#63b8ff" d="M416.5,-186.75C416.5,-179.8 416.5,-169.85 416.5,-161.13"/>
<polygon fill="#63b8ff" stroke="#63b8ff" points="420,-161.09 416.5,-151.09 413,-161.09 420,-161.09"/>
</a>
</g>
</g>
<!-- Node12 -->
<g id="Node000012" class="node">
<title>Node12</title>
<g id="a_Node000012"><a xlink:href="DirektToggle_8h.html" target="_top" xlink:title=" ">
<polygon fill="white" stroke="#666666" points="337,-151 208,-151 208,-132 337,-132 337,-151"/>
<text text-anchor="middle" x="272.5" y="-139" font-family="Helvetica,sans-Serif" font-size="10.00">controls/DirektToggle.h</text>
</a>
</g>
</g>
<!-- Node1&#45;&gt;Node12 -->
<g id="edge16_Node000001_Node000012" class="edge">
<title>Node1&#45;&gt;Node12</title>
<g id="a_edge16_Node000001_Node000012"><a xlink:title=" ">
<path fill="none" stroke="#63b8ff" d="M393.36,-186.98C369.68,-178.27 332.63,-164.63 305.79,-154.75"/>
<polygon fill="#63b8ff" stroke="#63b8ff" points="306.65,-151.34 296.06,-151.17 304.23,-157.91 306.65,-151.34"/>
</a>
</g>
</g>
<!-- Node13 -->
<g id="Node000013" class="node">
<title>Node13</title>
<g id="a_Node000013"><a xlink:href="DirektSection_8h.html" target="_top" xlink:title=" ">
<polygon fill="white" stroke="#666666" points="706,-151 581,-151 581,-132 706,-132 706,-151"/>
<text text-anchor="middle" x="643.5" y="-139" font-family="Helvetica,sans-Serif" font-size="10.00">layout/DirektSection.h</text>
</a>
</g>
</g>
<!-- Node1&#45;&gt;Node13 -->
<g id="edge19_Node000001_Node000013" class="edge">
<title>Node1&#45;&gt;Node13</title>
<g id="a_edge19_Node000001_Node000013"><a xlink:title=" ">
<path fill="none" stroke="#63b8ff" d="M452.97,-186.98C492.07,-177.86 554.27,-163.33 596.89,-153.38"/>
<polygon fill="#63b8ff" stroke="#63b8ff" points="597.8,-156.76 606.74,-151.08 596.21,-149.95 597.8,-156.76"/>
</a>
</g>
</g>
<!-- Node4&#45;&gt;Node3 -->
<g id="edge4_Node000004_Node000003" class="edge">
<title>Node4&#45;&gt;Node3</title>
<g id="a_edge4_Node000004_Node000003"><a xlink:title=" ">
<path fill="none" stroke="#63b8ff" d="M795.64,-131.97C791.74,-116.2 781.1,-82.58 758.5,-66 725.79,-42 619.47,-28.17 547.93,-21.37"/>
<polygon fill="#63b8ff" stroke="#63b8ff" points="547.92,-17.86 537.64,-20.42 547.28,-24.83 547.92,-17.86"/>
</a>
</g>
</g>
<!-- Node5 -->
<g id="Node000005" class="node">
<title>Node5</title>
<g id="a_Node000005"><a xlink:title=" ">
<polygon fill="#e0e0e0" stroke="#999999" points="843.5,-90.5 805.5,-90.5 805.5,-71.5 843.5,-71.5 843.5,-90.5"/>
<text text-anchor="middle" x="824.5" y="-78.5" font-family="Helvetica,sans-Serif" font-size="10.00">map</text>
</a>
</g>
</g>
<!-- Node4&#45;&gt;Node5 -->
<g id="edge5_Node000004_Node000005" class="edge">
<title>Node4&#45;&gt;Node5</title>
<g id="a_edge5_Node000004_Node000005"><a xlink:title=" ">
<path fill="none" stroke="#63b8ff" d="M801.48,-131.87C805.35,-123.49 811.34,-110.51 816.24,-99.89"/>
<polygon fill="#63b8ff" stroke="#63b8ff" points="819.49,-101.21 820.5,-90.67 813.13,-98.28 819.49,-101.21"/>
</a>
</g>
</g>
<!-- Node6 -->
<g id="Node000006" class="node">
<title>Node6</title>
<g id="a_Node000006"><a xlink:title=" ">
<polygon fill="#e0e0e0" stroke="#999999" points="749.5,-90.5 691.5,-90.5 691.5,-71.5 749.5,-71.5 749.5,-90.5"/>
<text text-anchor="middle" x="720.5" y="-78.5" font-family="Helvetica,sans-Serif" font-size="10.00">memory</text>
</a>
</g>
</g>
<!-- Node4&#45;&gt;Node6 -->
<g id="edge6_Node000004_Node000006" class="edge">
<title>Node4&#45;&gt;Node6</title>
<g id="a_edge6_Node000004_Node000006"><a xlink:title=" ">
<path fill="none" stroke="#63b8ff" d="M786.14,-131.87C774.08,-122.71 754.8,-108.06 740.25,-97.01"/>
<polygon fill="#63b8ff" stroke="#63b8ff" points="741.99,-93.93 731.91,-90.67 737.75,-99.5 741.99,-93.93"/>
</a>
</g>
</g>
<!-- Node7 -->
<g id="Node000007" class="node">
<title>Node7</title>
<g id="a_Node000007"><a xlink:title=" ">
<polygon fill="#e0e0e0" stroke="#999999" points="913,-90.5 862,-90.5 862,-71.5 913,-71.5 913,-90.5"/>
<text text-anchor="middle" x="887.5" y="-78.5" font-family="Helvetica,sans-Serif" font-size="10.00">variant</text>
</a>
</g>
</g>
<!-- Node4&#45;&gt;Node7 -->
<g id="edge7_Node000004_Node000007" class="edge">
<title>Node4&#45;&gt;Node7</title>
<g id="a_edge7_Node000004_Node000007"><a xlink:title=" ">
<path fill="none" stroke="#63b8ff" d="M810.78,-131.87C825.14,-122.54 848.26,-107.51 865.37,-96.38"/>
<polygon fill="#63b8ff" stroke="#63b8ff" points="867.69,-99.05 874.17,-90.67 863.87,-93.18 867.69,-99.05"/>
</a>
</g>
</g>
<!-- Node8 -->
<g id="Node000008" class="node">
<title>Node8</title>
<g id="a_Node000008"><a xlink:title=" ">
<polygon fill="#e0e0e0" stroke="#999999" points="978,-90.5 931,-90.5 931,-71.5 978,-71.5 978,-90.5"/>
<text text-anchor="middle" x="954.5" y="-78.5" font-family="Helvetica,sans-Serif" font-size="10.00">vector</text>
</a>
</g>
</g>
<!-- Node4&#45;&gt;Node8 -->
<g id="edge8_Node000004_Node000008" class="edge">
<title>Node4&#45;&gt;Node8</title>
<g id="a_edge8_Node000004_Node000008"><a xlink:title=" ">
<path fill="none" stroke="#63b8ff" d="M823.07,-131.99C848.48,-123.39 888.45,-109.49 922.5,-96 923.71,-95.52 924.93,-95.03 926.17,-94.52"/>
<polygon fill="#63b8ff" stroke="#63b8ff" points="927.79,-97.63 935.64,-90.51 925.07,-91.19 927.79,-97.63"/>
</a>
</g>
</g>
<!-- Node9&#45;&gt;Node2 -->
<g id="edge10_Node000009_Node000002" class="edge">
<title>Node9&#45;&gt;Node2</title>
<g id="a_edge10_Node000009_Node000002"><a xlink:title=" ">
<path fill="none" stroke="#63b8ff" d="M91.88,-131.87C107.29,-123.75 130.89,-111.31 150.66,-100.89"/>
<polygon fill="#63b8ff" stroke="#63b8ff" points="152.5,-103.87 159.72,-96.11 149.24,-97.68 152.5,-103.87"/>
</a>
</g>
</g>
<!-- Node9&#45;&gt;Node3 -->
<g id="edge11_Node000009_Node000003" class="edge">
<title>Node9&#45;&gt;Node3</title>
<g id="a_edge11_Node000009_Node000003"><a xlink:title=" ">
<path fill="none" stroke="#63b8ff" d="M76.46,-131.92C78.74,-116.08 85.97,-82.34 107.5,-66 153.95,-30.74 317.28,-20.34 411.36,-17.28"/>
<polygon fill="#63b8ff" stroke="#63b8ff" points="411.47,-20.78 421.35,-16.97 411.25,-13.78 411.47,-20.78"/>
</a>
</g>
</g>
<!-- Node10&#45;&gt;Node2 -->
<g id="edge13_Node000010_Node000002" class="edge">
<title>Node10&#45;&gt;Node2</title>
<g id="a_edge13_Node000010_Node000002"><a xlink:title=" ">
<path fill="none" stroke="#63b8ff" d="M383.06,-131.99C348.73,-123.26 294.42,-109.45 251.58,-98.55"/>
<polygon fill="#63b8ff" stroke="#63b8ff" points="252.35,-95.14 241.8,-96.06 250.62,-101.92 252.35,-95.14"/>
</a>
</g>
</g>
<!-- Node10&#45;&gt;Node3 -->
<g id="edge14_Node000010_Node000003" class="edge">
<title>Node10&#45;&gt;Node3</title>
<g id="a_edge14_Node000010_Node000003"><a xlink:title=" ">
<path fill="none" stroke="#63b8ff" d="M420.83,-131.94C430.38,-113.07 453.52,-67.34 467.72,-39.28"/>
<polygon fill="#63b8ff" stroke="#63b8ff" points="470.94,-40.66 472.33,-30.16 464.7,-37.5 470.94,-40.66"/>
</a>
</g>
</g>
<!-- Node11 -->
<g id="Node000011" class="node">
<title>Node11</title>
<g id="a_Node000011"><a xlink:title=" ">
<polygon fill="#e0e0e0" stroke="#999999" points="413.5,-90.5 357.5,-90.5 357.5,-71.5 413.5,-71.5 413.5,-90.5"/>
<text text-anchor="middle" x="385.5" y="-78.5" font-family="Helvetica,sans-Serif" font-size="10.00">optional</text>
</a>
</g>
</g>
<!-- Node10&#45;&gt;Node11 -->
<g id="edge15_Node000010_Node000011" class="edge">
<title>Node10&#45;&gt;Node11</title>
<g id="a_edge15_Node000010_Node000011"><a xlink:title=" ">
<path fill="none" stroke="#63b8ff" d="M411.93,-131.87C407.44,-123.4 400.47,-110.24 394.81,-99.57"/>
<polygon fill="#63b8ff" stroke="#63b8ff" points="397.87,-97.86 390.09,-90.67 391.68,-101.14 397.87,-97.86"/>
</a>
</g>
</g>
<!-- Node12&#45;&gt;Node2 -->
<g id="edge17_Node000012_Node000002" class="edge">
<title>Node12&#45;&gt;Node2</title>
<g id="a_edge17_Node000012_Node000002"><a xlink:title=" ">
<path fill="none" stroke="#63b8ff" d="M259.81,-131.87C248.25,-124 230.74,-112.09 215.73,-101.89"/>
<polygon fill="#63b8ff" stroke="#63b8ff" points="217.49,-98.85 207.25,-96.11 213.55,-104.63 217.49,-98.85"/>
</a>
</g>
</g>
<!-- Node12&#45;&gt;Node3 -->
<g id="edge18_Node000012_Node000003" class="edge">
<title>Node12&#45;&gt;Node3</title>
<g id="a_edge18_Node000012_Node000003"><a xlink:title=" ">
<path fill="none" stroke="#63b8ff" d="M279.16,-131.98C291.4,-116.81 318.95,-84.94 348.5,-66 369.93,-52.26 395.71,-41.41 418.71,-33.37"/>
<polygon fill="#63b8ff" stroke="#63b8ff" points="420.02,-36.62 428.37,-30.1 417.78,-29.99 420.02,-36.62"/>
</a>
</g>
</g>
<!-- Node13&#45;&gt;Node3 -->
<g id="edge20_Node000013_Node000003" class="edge">
<title>Node13&#45;&gt;Node3</title>
<g id="a_edge20_Node000013_Node000003"><a xlink:title=" ">
<path fill="none" stroke="#63b8ff" d="M646.74,-131.66C651.66,-116.55 658.99,-85.53 644.5,-66 622.34,-36.13 582.83,-23.48 548.03,-18.37"/>
<polygon fill="#63b8ff" stroke="#63b8ff" points="548.25,-14.87 537.88,-17.06 547.35,-21.81 548.25,-14.87"/>
</a>
</g>
</g>
<!-- Node13&#45;&gt;Node6 -->
<g id="edge21_Node000013_Node000006" class="edge">
<title>Node13&#45;&gt;Node6</title>
<g id="a_edge21_Node000013_Node000006"><a xlink:title=" ">
<path fill="none" stroke="#63b8ff" d="M654.86,-131.87C666.92,-122.71 686.2,-108.06 700.75,-97.01"/>
<polygon fill="#63b8ff" stroke="#63b8ff" points="703.25,-99.5 709.09,-90.67 699.01,-93.93 703.25,-99.5"/>
</a>
</g>
</g>
<!-- Node14 -->
<g id="Node000014" class="node">
<title>Node14</title>
<g id="a_Node000014"><a xlink:href="DirektColours_8h.html" target="_top" xlink:title=" ">
<polygon fill="white" stroke="#666666" points="635,-90.5 508,-90.5 508,-71.5 635,-71.5 635,-90.5"/>
<text text-anchor="middle" x="571.5" y="-78.5" font-family="Helvetica,sans-Serif" font-size="10.00">theme/DirektColours.h</text>
</a>
</g>
</g>
<!-- Node13&#45;&gt;Node14 -->
<g id="edge22_Node000013_Node000014" class="edge">
<title>Node13&#45;&gt;Node14</title>
<g id="a_edge22_Node000013_Node000014"><a xlink:title=" ">
<path fill="none" stroke="#63b8ff" d="M632.88,-131.87C621.6,-122.71 603.58,-108.06 589.97,-97.01"/>
<polygon fill="#63b8ff" stroke="#63b8ff" points="592.14,-94.26 582.17,-90.67 587.72,-99.69 592.14,-94.26"/>
</a>
</g>
</g>
<!-- Node14&#45;&gt;Node3 -->
<g id="edge23_Node000014_Node000003" class="edge">
<title>Node14&#45;&gt;Node3</title>
<g id="a_edge23_Node000014_Node000003"><a xlink:title=" ">
<path fill="none" stroke="#63b8ff" d="M559.09,-71.37C546.14,-62.36 525.39,-47.92 508.32,-36.05"/>
<polygon fill="#63b8ff" stroke="#63b8ff" points="510,-32.95 499.79,-30.12 506,-38.7 510,-32.95"/>
</a>
</g>
</g>
</g>
</svg>
