<?xml version="1.0" encoding="UTF-8" standalone="no"?>
<!DOCTYPE svg PUBLIC "-//W3C//DTD SVG 1.1//EN"
 "http://www.w3.org/Graphics/SVG/1.1/DTD/svg11.dtd">
<!-- Generated by graphviz version 2.43.0 (0)
 -->
<!-- Title: core/DirektAutoLayout.cpp Pages: 1 -->
<svg width="976pt" height="269pt"
 viewBox="0.00 0.00 976.00 269.00" xmlns="http://www.w3.org/2000/svg" xmlns:xlink="http://www.w3.org/1999/xlink">
<g id="graph0" class="graph" transform="scale(1 1) rotate(0) translate(4 265)">
<title>core/DirektAutoLayout.cpp</title>
<!-- Node1 -->
<g id="Node000001" class="node">
<title>Node1</title>
<g id="a_Node000001"><a xlink:title=" ">
<polygon fill="#999999" stroke="#666666" points="618.5,-261 472.5,-261 472.5,-242 618.5,-242 618.5,-261"/>
<text text-anchor="middle" x="545.5" y="-249" font-family="Helvetica,sans-Serif" font-size="10.00">core/DirektAutoLayout.cpp</text>
</a>
</g>
</g>
<!-- Node2 -->
<g id="Node000002" class="node">
<title>Node2</title>
<g id="a_Node000002"><a xlink:href="DirektAutoLayout_8h.html" target="_top" xlink:title=" ">
<polygon fill="white" stroke="#666666" points="526,-206 391,-206 391,-187 526,-187 526,-206"/>
<text text-anchor="middle" x="458.5" y="-194" font-family="Helvetica,sans-Serif" font-size="10.00">core/DirektAutoLayout.h</text>
</a>
</g>
</g>
<!-- Node1&#45;&gt;Node2 -->
<g id="edge1_Node000001_Node000002" class="edge">
<title>Node1&#45;&gt;Node2</title>
<g id="a_edge1_Node000001_Node000002"><a xlink:title=" ">
<path fill="none" stroke="#63b8ff" d="M531.52,-241.98C518.03,-233.77 497.37,-221.18 481.46,-211.49"/>
<polygon fill="#63b8ff" stroke="#63b8ff" points="483.09,-208.38 472.73,-206.17 479.45,-214.36 483.09,-208.38"/>
</a>
</g>
</g>
<!-- Node15 -->
<g id="Node000015" class="node">
<title>Node15</title>
<g id="a_Node000015"><a xlink:href="DirektDescriptorHelpers_8h.html" target="_top" xlink:title=" ">
<polygon fill="white" stroke="#666666" points="778.5,-206 602.5,-206 602.5,-187 778.5,-187 778.5,-206"/>
<text text-anchor="middle" x="690.5" y="-194" font-family="Helvetica,sans-Serif" font-size="10.00">config/DirektDescriptorHelpers.h</text>
</a>
</g>
</g>
<!-- Node1&#45;&gt;Node15 -->
<g id="edge23_Node000001_Node000015" class="edge">
<title>Node1&#45;&gt;Node15</title>
<g id="a_edge23_Node000001_Node000015"><a xlink:title=" ">
<path fill="none" stroke="#63b8ff" d="M568.8,-241.98C592.75,-233.23 630.28,-219.51 657.33,-209.62"/>
<polygon fill="#63b8ff" stroke="#63b8ff" points="658.59,-212.89 666.78,-206.17 656.19,-206.32 658.59,-212.89"/>
</a>
</g>
</g>
<!-- Node3 -->
<g id="Node000003" class="node">
<title>Node3</title>
<g id="a_Node000003"><a xlink:title=" ">
<polygon fill="#e0e0e0" stroke="#999999" points="314,-96 175,-96 175,-66 314,-66 314,-96"/>
<text text-anchor="start" x="183" y="-84" font-family="Helvetica,sans-Serif" font-size="10.00">juce_audio_processors</text>
<text text-anchor="middle" x="244.5" y="-73" font-family="Helvetica,sans-Serif" font-size="10.00">/juce_audio_processors.h</text>
</a>
</g>
</g>
<!-- Node2&#45;&gt;Node3 -->
<g id="edge2_Node000002_Node000003" class="edge">
<title>Node2&#45;&gt;Node3</title>
<g id="a_edge2_Node000002_Node000003"><a xlink:title=" ">
<path fill="none" stroke="#63b8ff" d="M390.96,-193.49C322.3,-189.86 222.67,-179.66 198.5,-151 185.66,-135.77 200.13,-116.85 216.15,-102.67"/>
<polygon fill="#63b8ff" stroke="#63b8ff" points="218.57,-105.22 224.02,-96.13 214.1,-99.83 218.57,-105.22"/>
</a>
</g>
</g>
<!-- Node4 -->
<g id="Node000004" class="node">
<title>Node4</title>
<g id="a_Node000004"><a xlink:title=" ">
<polygon fill="#e0e0e0" stroke="#999999" points="526.5,-30 410.5,-30 410.5,0 526.5,0 526.5,-30"/>
<text text-anchor="start" x="418.5" y="-18" font-family="Helvetica,sans-Serif" font-size="10.00">juce_gui_basics/juce</text>
<text text-anchor="middle" x="468.5" y="-7" font-family="Helvetica,sans-Serif" font-size="10.00">_gui_basics.h</text>
</a>
</g>
</g>
<!-- Node2&#45;&gt;Node4 -->
<g id="edge3_Node000002_Node000004" class="edge">
<title>Node2&#45;&gt;Node4</title>
<g id="a_edge3_Node000002_Node000004"><a xlink:title=" ">
<path fill="none" stroke="#63b8ff" d="M465.65,-186.97C472.27,-178.48 481.65,-164.75 485.5,-151 491.16,-130.77 480.74,-73.47 473.86,-40.38"/>
<polygon fill="#63b8ff" stroke="#63b8ff" points="477.2,-39.23 471.69,-30.18 470.35,-40.69 477.2,-39.23"/>
</a>
</g>
</g>
<!-- Node5 -->
<g id="Node000005" class="node">
<title>Node5</title>
<g id="a_Node000005"><a xlink:href="DirektDescriptors_8h.html" target="_top" xlink:title=" ">
<polygon fill="white" stroke="#666666" points="820,-151 677,-151 677,-132 820,-132 820,-151"/>
<text text-anchor="middle" x="748.5" y="-139" font-family="Helvetica,sans-Serif" font-size="10.00">config/DirektDescriptors.h</text>
</a>
</g>
</g>
<!-- Node2&#45;&gt;Node5 -->
<g id="edge4_Node000002_Node000005" class="edge">
<title>Node2&#45;&gt;Node5</title>
<g id="a_edge4_Node000002_Node000005"><a xlink:title=" ">
<path fill="none" stroke="#63b8ff" d="M505.09,-186.98C555.89,-177.7 637.19,-162.84 691.69,-152.88"/>
<polygon fill="#63b8ff" stroke="#63b8ff" points="692.33,-156.32 701.54,-151.08 691.07,-149.44 692.33,-156.32"/>
</a>
</g>
</g>
<!-- Node10 -->
<g id="Node000010" class="node">
<title>Node10</title>
<g id="a_Node000010"><a xlink:href="DirektComboBox_8h.html" target="_top" xlink:title=" ">
<polygon fill="white" stroke="#666666" points="151,-151 0,-151 0,-132 151,-132 151,-151"/>
<text text-anchor="middle" x="75.5" y="-139" font-family="Helvetica,sans-Serif" font-size="10.00">controls/DirektComboBox.h</text>
</a>
</g>
</g>
<!-- Node2&#45;&gt;Node10 -->
<g id="edge10_Node000002_Node000010" class="edge">
<title>Node2&#45;&gt;Node10</title>
<g id="a_edge10_Node000002_Node000010"><a xlink:title=" ">
<path fill="none" stroke="#63b8ff" d="M396.96,-186.98C328.94,-177.57 219.5,-162.43 147.54,-152.47"/>
<polygon fill="#63b8ff" stroke="#63b8ff" points="147.59,-148.94 137.2,-151.04 146.63,-155.88 147.59,-148.94"/>
</a>
</g>
</g>
<!-- Node11 -->
<g id="Node000011" class="node">
<title>Node11</title>
<g id="a_Node000011"><a xlink:href="DirektKnob_8h.html" target="_top" xlink:title=" ">
<polygon fill="white" stroke="#666666" points="329.5,-151 207.5,-151 207.5,-132 329.5,-132 329.5,-151"/>
<text text-anchor="middle" x="268.5" y="-139" font-family="Helvetica,sans-Serif" font-size="10.00">controls/DirektKnob.h</text>
</a>
</g>
</g>
<!-- Node2&#45;&gt;Node11 -->
<g id="edge13_Node000002_Node000011" class="edge">
<title>Node2&#45;&gt;Node11</title>
<g id="a_edge13_Node000002_Node000011"><a xlink:title=" ">
<path fill="none" stroke="#63b8ff" d="M427.97,-186.98C395.8,-178.01 344.94,-163.82 309.33,-153.89"/>
<polygon fill="#63b8ff" stroke="#63b8ff" points="309.84,-150.4 299.27,-151.08 307.96,-157.14 309.84,-150.4"/>
</a>
</g>
</g>
<!-- Node12 -->
<g id="Node000012" class="node">
<title>Node12</title>
<g id="a_Node000012"><a xlink:href="DirektToggle_8h.html" target="_top" xlink:title=" ">
<polygon fill="white" stroke="#666666" points="477,-151 348,-151 348,-132 477,-132 477,-151"/>
<text text-anchor="middle" x="412.5" y="-139" font-family="Helvetica,sans-Serif" font-size="10.00">controls/DirektToggle.h</text>
</a>
</g>
</g>
<!-- Node2&#45;&gt;Node12 -->
<g id="edge16_Node000002_Node000012" class="edge">
<title>Node2&#45;&gt;Node12</title>
<g id="a_edge16_Node000002_Node000012"><a xlink:title=" ">
<path fill="none" stroke="#63b8ff" d="M450.9,-186.75C444.34,-179.18 434.68,-168.05 426.69,-158.84"/>
<polygon fill="#63b8ff" stroke="#63b8ff" points="429.15,-156.35 419.95,-151.09 423.87,-160.94 429.15,-156.35"/>
</a>
</g>
</g>
<!-- Node13 -->
<g id="Node000013" class="node">
<title>Node13</title>
<g id="a_Node000013"><a xlink:href="DirektSection_8h.html" target="_top" xlink:title=" ">
<polygon fill="white" stroke="#666666" points="659,-151 534,-151 534,-132 659,-132 659,-151"/>
<text text-anchor="middle" x="596.5" y="-139" font-family="Helvetica,sans-Serif" font-size="10.00">layout/DirektSection.h</text>
</a>
</g>
</g>
<!-- Node2&#45;&gt;Node13 -->
<g id="edge19_Node000002_Node000013" class="edge">
<title>Node2&#45;&gt;Node13</title>
<g id="a_edge19_Node000002_Node000013"><a xlink:title=" ">
<path fill="none" stroke="#63b8ff" d="M480.67,-186.98C503.27,-178.3 538.56,-164.75 564.25,-154.88"/>
<polygon fill="#63b8ff" stroke="#63b8ff" points="565.84,-158.02 573.92,-151.17 563.33,-151.49 565.84,-158.02"/>
</a>
</g>
</g>
<!-- Node5&#45;&gt;Node4 -->
<g id="edge5_Node000005_Node000004" class="edge">
<title>Node5&#45;&gt;Node4</title>
<g id="a_edge5_Node000005_Node000004"><a xlink:title=" ">
<path fill="none" stroke="#63b8ff" d="M739.46,-131.8C722.94,-116.34 686.17,-84.05 649.5,-66 614.09,-48.58 571.7,-36.45 536.84,-28.51"/>
<polygon fill="#63b8ff" stroke="#63b8ff" points="537.28,-25.02 526.76,-26.28 535.77,-31.85 537.28,-25.02"/>
</a>
</g>
</g>
<!-- Node6 -->
<g id="Node000006" class="node">
<title>Node6</title>
<g id="a_Node000006"><a xlink:title=" ">
<polygon fill="#e0e0e0" stroke="#999999" points="822.5,-90.5 784.5,-90.5 784.5,-71.5 822.5,-71.5 822.5,-90.5"/>
<text text-anchor="middle" x="803.5" y="-78.5" font-family="Helvetica,sans-Serif" font-size="10.00">map</text>
</a>
</g>
</g>
<!-- Node5&#45;&gt;Node6 -->
<g id="edge6_Node000005_Node000006" class="edge">
<title>Node5&#45;&gt;Node6</title>
<g id="a_edge6_Node000005_Node000006"><a xlink:title=" ">
<path fill="none" stroke="#63b8ff" d="M756.62,-131.87C764.9,-123.05 777.97,-109.16 788.2,-98.27"/>
<polygon fill="#63b8ff" stroke="#63b8ff" points="791.05,-100.35 795.35,-90.67 785.95,-95.56 791.05,-100.35"/>
</a>
</g>
</g>
<!-- Node7 -->
<g id="Node000007" class="node">
<title>Node7</title>
<g id="a_Node000007"><a xlink:title=" ">
<polygon fill="#e0e0e0" stroke="#999999" points="898.5,-90.5 840.5,-90.5 840.5,-71.5 898.5,-71.5 898.5,-90.5"/>
<text text-anchor="middle" x="869.5" y="-78.5" font-family="Helvetica,sans-Serif" font-size="10.00">memory</text>
</a>
</g>
</g>
<!-- Node5&#45;&gt;Node7 -->
<g id="edge7_Node000005_Node000007" class="edge">
<title>Node5&#45;&gt;Node7</title>
<g id="a_edge7_Node000005_Node000007"><a xlink:title=" ">
<path fill="none" stroke="#63b8ff" d="M766.09,-131.99C786.26,-122.25 819.52,-106.16 842.86,-94.88"/>
<polygon fill="#63b8ff" stroke="#63b8ff" points="844.4,-98.02 851.88,-90.52 841.36,-91.72 844.4,-98.02"/>
</a>
</g>
</g>
<!-- Node8 -->
<g id="Node000008" class="node">
<title>Node8</title>
<g id="a_Node000008"><a xlink:title=" ">
<polygon fill="#e0e0e0" stroke="#999999" points="968,-90.5 917,-90.5 917,-71.5 968,-71.5 968,-90.5"/>
<text text-anchor="middle" x="942.5" y="-78.5" font-family="Helvetica,sans-Serif" font-size="10.00">variant</text>
</a>
</g>
</g>
<!-- Node5&#45;&gt;Node8 -->
<g id="edge8_Node000005_Node000008" class="edge">
<title>Node5&#45;&gt;Node8</title>
<g id="a_edge8_Node000005_Node000008"><a xlink:title=" ">
<path fill="none" stroke="#63b8ff" d="M783.26,-131.92C815.69,-123.65 865.28,-110.3 907.5,-96 909.16,-95.44 910.86,-94.84 912.57,-94.22"/>
<polygon fill="#63b8ff" stroke="#63b8ff" points="914.18,-97.35 922.28,-90.52 911.69,-90.81 914.18,-97.35"/>
</a>
</g>
</g>
<!-- Node9 -->
<g id="Node000009" class="node">
<title>Node9</title>
<g id="a_Node000009"><a xlink:title=" ">
<polygon fill="#e0e0e0" stroke="#999999" points="766,-90.5 719,-90.5 719,-71.5 766,-71.5 766,-90.5"/>
<text text-anchor="middle" x="742.5" y="-78.5" font-family="Helvetica,sans-Serif" font-size="10.00">vector</text>
</a>
</g>
</g>
<!-- Node5&#45;&gt;Node9 -->
<g id="edge9_Node000005_Node000009" class="edge">
<title>Node5&#45;&gt;Node9</title>
<g id="a_edge9_Node000005_Node000009"><a xlink:title=" ">
<path fill="none" stroke="#63b8ff" d="M747.61,-131.87C746.78,-123.75 745.51,-111.31 744.44,-100.89"/>
<polygon fill="#63b8ff" stroke="#63b8ff" points="747.89,-100.26 743.39,-90.67 740.93,-100.97 747.89,-100.26"/>
</a>
</g>
</g>
<!-- Node10&#45;&gt;Node3 -->
<g id="edge11_Node000010_Node000003" class="edge">
<title>Node10&#45;&gt;Node3</title>
<g id="a_edge11_Node000010_Node000003"><a xlink:title=" ">
<path fill="none" stroke="#63b8ff" d="M100.07,-131.99C124.61,-123.5 163.03,-110.2 194.08,-99.45"/>
<polygon fill="#63b8ff" stroke="#63b8ff" points="195.56,-102.64 203.87,-96.06 193.28,-96.03 195.56,-102.64"/>
</a>
</g>
</g>
<!-- Node10&#45;&gt;Node4 -->
<g id="edge12_Node000010_Node000004" class="edge">
<title>Node10&#45;&gt;Node4</title>
<g id="a_edge12_Node000010_Node000004"><a xlink:title=" ">
<path fill="none" stroke="#63b8ff" d="M82.92,-131.89C97.16,-115.98 130.06,-82.15 165.5,-66 240.99,-31.61 336.64,-20.55 400.06,-17.17"/>
<polygon fill="#63b8ff" stroke="#63b8ff" points="400.53,-20.65 410.35,-16.67 400.19,-13.66 400.53,-20.65"/>
</a>
</g>
</g>
<!-- Node11&#45;&gt;Node3 -->
<g id="edge14_Node000011_Node000003" class="edge">
<title>Node11&#45;&gt;Node3</title>
<g id="a_edge14_Node000011_Node000003"><a xlink:title=" ">
<path fill="none" stroke="#63b8ff" d="M264.96,-131.87C262.09,-124.89 257.92,-114.71 254.09,-105.38"/>
<polygon fill="#63b8ff" stroke="#63b8ff" points="257.32,-104.04 250.29,-96.11 250.85,-106.69 257.32,-104.04"/>
</a>
</g>
</g>
<!-- Node11&#45;&gt;Node4 -->
<g id="edge15_Node000011_Node000004" class="edge">
<title>Node11&#45;&gt;Node4</title>
<g id="a_edge15_Node000011_Node000004"><a xlink:title=" ">
<path fill="none" stroke="#63b8ff" d="M282.25,-131.94C313.95,-112.21 392.86,-63.08 437.12,-35.53"/>
<polygon fill="#63b8ff" stroke="#63b8ff" points="439.11,-38.42 445.75,-30.16 435.41,-32.47 439.11,-38.42"/>
</a>
</g>
</g>
<!-- Node12&#45;&gt;Node3 -->
<g id="edge17_Node000012_Node000003" class="edge">
<title>Node12&#45;&gt;Node3</title>
<g id="a_edge17_Node000012_Node000003"><a xlink:title=" ">
<path fill="none" stroke="#63b8ff" d="M388.07,-131.99C363.68,-123.5 325.49,-110.2 294.63,-99.45"/>
<polygon fill="#63b8ff" stroke="#63b8ff" points="295.48,-96.05 284.89,-96.06 293.18,-102.66 295.48,-96.05"/>
</a>
</g>
</g>
<!-- Node12&#45;&gt;Node4 -->
<g id="edge18_Node000012_Node000004" class="edge">
<title>Node12&#45;&gt;Node4</title>
<g id="a_edge18_Node000012_Node000004"><a xlink:title=" ">
<path fill="none" stroke="#63b8ff" d="M416.35,-131.94C424.8,-113.15 445.23,-67.73 457.86,-39.64"/>
<polygon fill="#63b8ff" stroke="#63b8ff" points="461.22,-40.72 462.13,-30.16 454.84,-37.84 461.22,-40.72"/>
</a>
</g>
</g>
<!-- Node13&#45;&gt;Node4 -->
<g id="edge20_Node000013_Node000004" class="edge">
<title>Node13&#45;&gt;Node4</title>
<g id="a_edge20_Node000013_Node000004"><a xlink:title=" ">
<path fill="none" stroke="#63b8ff" d="M606.67,-131.65C622.19,-117.07 648.4,-87.47 632.5,-66 610.49,-36.28 571.22,-23.63 536.62,-18.48"/>
<polygon fill="#63b8ff" stroke="#63b8ff" points="536.91,-14.99 526.54,-17.17 536,-21.93 536.91,-14.99"/>
</a>
</g>
</g>
<!-- Node14 -->
<g id="Node000014" class="node">
<title>Node14</title>
<g id="a_Node000014"><a xlink:href="DirektColours_8h.html" target="_top" xlink:title=" ">
<polygon fill="white" stroke="#666666" points="624,-90.5 497,-90.5 497,-71.5 624,-71.5 624,-90.5"/>
<text text-anchor="middle" x="560.5" y="-78.5" font-family="Helvetica,sans-Serif" font-size="10.00">theme/DirektColours.h</text>
</a>
</g>
</g>
<!-- Node13&#45;&gt;Node14 -->
<g id="edge21_Node000013_Node000014" class="edge">
<title>Node13&#45;&gt;Node14</title>
<g id="a_edge21_Node000013_Node000014"><a xlink:title=" ">
<path fill="none" stroke="#63b8ff" d="M591.19,-131.87C585.92,-123.31 577.71,-109.97 571.11,-99.24"/>
<polygon fill="#63b8ff" stroke="#63b8ff" points="574.06,-97.35 565.83,-90.67 568.09,-101.02 574.06,-97.35"/>
</a>
</g>
</g>
<!-- Node14&#45;&gt;Node4 -->
<g id="edge22_Node000014_Node000004" class="edge">
<title>Node14&#45;&gt;Node4</title>
<g id="a_edge22_Node000014_Node000004"><a xlink:title=" ">
<path fill="none" stroke="#63b8ff" d="M548.09,-71.37C535.14,-62.36 514.39,-47.92 497.32,-36.05"/>
<polygon fill="#63b8ff" stroke="#63b8ff" points="499,-32.95 488.79,-30.12 495,-38.7 499,-32.95"/>
</a>
</g>
</g>
<!-- Node15&#45;&gt;Node5 -->
<g id="edge24_Node000015_Node000005" class="edge">
<title>Node15&#45;&gt;Node5</title>
<g id="a_edge24_Node000015_Node000005"><a xlink:title=" ">
<path fill="none" stroke="#63b8ff" d="M699.82,-186.98C708.31,-179.23 721.06,-167.58 731.38,-158.14"/>
<polygon fill="#63b8ff" stroke="#63b8ff" points="733.99,-160.5 739.01,-151.17 729.27,-155.33 733.99,-160.5"/>
</a>
</g>
</g>
</g>
</svg>
