<?xml version="1.0" encoding="UTF-8" standalone="no"?>
<!DOCTYPE svg PUBLIC "-//W3C//DTD SVG 1.1//EN"
 "http://www.w3.org/Graphics/SVG/1.1/DTD/svg11.dtd">
<!-- Generated by graphviz version 2.43.0 (0)
 -->
<!-- Title: core/DirektBaseEditor.h Pages: 1 -->
<svg width="2471pt" height="269pt"
 viewBox="0.00 0.00 2470.77 269.00" xmlns="http://www.w3.org/2000/svg" xmlns:xlink="http://www.w3.org/1999/xlink">
<g id="graph0" class="graph" transform="scale(1 1) rotate(0) translate(4 265)">
<title>core/DirektBaseEditor.h</title>
<!-- Node1 -->
<g id="Node000001" class="node">
<title>Node1</title>
<g id="a_Node000001"><a xlink:title=" ">
<polygon fill="#999999" stroke="#666666" points="1023.77,-261 892.77,-261 892.77,-242 1023.77,-242 1023.77,-261"/>
<text text-anchor="middle" x="958.27" y="-249" font-family="Helvetica,sans-Serif" font-size="10.00">core/DirektBaseEditor.h</text>
</a>
</g>
</g>
<!-- Node2 -->
<g id="Node000002" class="node">
<title>Node2</title>
<g id="a_Node000002"><a xlink:title=" ">
<polygon fill="#e0e0e0" stroke="#999999" points="1801.77,-96 1662.77,-96 1662.77,-66 1801.77,-66 1801.77,-96"/>
<text text-anchor="start" x="1670.77" y="-84" font-family="Helvetica,sans-Serif" font-size="10.00">juce_audio_processors</text>
<text text-anchor="middle" x="1732.27" y="-73" font-family="Helvetica,sans-Serif" font-size="10.00">/juce_audio_processors.h</text>
</a>
</g>
</g>
<!-- Node1&#45;&gt;Node2 -->
<g id="edge1_Node000001_Node000002" class="edge">
<title>Node1&#45;&gt;Node2</title>
<g id="a_edge1_Node000001_Node000002"><a xlink:title=" ">
<path fill="none" stroke="#63b8ff" d="M1023.82,-247.98C1123.7,-243.46 1319.73,-231.91 1484.27,-206 1591.09,-189.18 1647.53,-230.09 1721.27,-151 1732.21,-139.26 1734.78,-121.23 1734.71,-106.55"/>
<polygon fill="#63b8ff" stroke="#63b8ff" points="1738.19,-105.96 1734.24,-96.13 1731.2,-106.28 1738.19,-105.96"/>
</a>
</g>
</g>
<!-- Node3 -->
<g id="Node000003" class="node">
<title>Node3</title>
<g id="a_Node000003"><a xlink:title=" ">
<polygon fill="#e0e0e0" stroke="#999999" points="1016.27,-30 900.27,-30 900.27,0 1016.27,0 1016.27,-30"/>
<text text-anchor="start" x="908.27" y="-18" font-family="Helvetica,sans-Serif" font-size="10.00">juce_gui_basics/juce</text>
<text text-anchor="middle" x="958.27" y="-7" font-family="Helvetica,sans-Serif" font-size="10.00">_gui_basics.h</text>
</a>
</g>
</g>
<!-- Node1&#45;&gt;Node3 -->
<g id="edge2_Node000001_Node000003" class="edge">
<title>Node1&#45;&gt;Node3</title>
<g id="a_edge2_Node000001_Node000003"><a xlink:title=" ">
<path fill="none" stroke="#63b8ff" d="M892.65,-248.62C690.55,-242.15 87.8,-217.38 33.27,-151 -6.21,-102.95 -64.56,-124.63 225.27,-66 351.27,-40.51 733.31,-24.16 890.05,-18.36"/>
<polygon fill="#63b8ff" stroke="#63b8ff" points="890.18,-21.86 900.04,-18 889.92,-14.86 890.18,-21.86"/>
</a>
</g>
</g>
<!-- Node4 -->
<g id="Node000004" class="node">
<title>Node4</title>
<g id="a_Node000004"><a xlink:href="DirektFooter_8h.html" target="_top" xlink:title=" ">
<polygon fill="white" stroke="#666666" points="337.77,-151 212.77,-151 212.77,-132 337.77,-132 337.77,-151"/>
<text text-anchor="middle" x="275.27" y="-139" font-family="Helvetica,sans-Serif" font-size="10.00">chrome/DirektFooter.h</text>
</a>
</g>
</g>
<!-- Node1&#45;&gt;Node4 -->
<g id="edge3_Node000001_Node000004" class="edge">
<title>Node1&#45;&gt;Node4</title>
<g id="a_edge3_Node000001_Node000004"><a xlink:title=" ">
<path fill="none" stroke="#63b8ff" d="M892.55,-248.01C802.31,-243.73 635.28,-232.69 495.27,-206 428.03,-193.18 351.71,-168.88 308.94,-154.34"/>
<polygon fill="#63b8ff" stroke="#63b8ff" points="309.92,-150.97 299.33,-151.04 307.65,-157.59 309.92,-150.97"/>
</a>
</g>
</g>
<!-- Node5 -->
<g id="Node000005" class="node">
<title>Node5</title>
<g id="a_Node000005"><a xlink:href="DirektColours_8h.html" target="_top" xlink:title=" ">
<polygon fill="white" stroke="#666666" points="716.77,-90.5 589.77,-90.5 589.77,-71.5 716.77,-71.5 716.77,-90.5"/>
<text text-anchor="middle" x="653.27" y="-78.5" font-family="Helvetica,sans-Serif" font-size="10.00">theme/DirektColours.h</text>
</a>
</g>
</g>
<!-- Node1&#45;&gt;Node5 -->
<g id="edge63_Node000001_Node000005" class="edge">
<title>Node1&#45;&gt;Node5</title>
<g id="a_edge63_Node000001_Node000005"><a xlink:title=" ">
<path fill="none" stroke="#63b8ff" d="M892.43,-243.37C791.92,-230.97 607.69,-201.78 568.27,-151 549.92,-127.36 586.3,-106.7 617.02,-94.29"/>
<polygon fill="#63b8ff" stroke="#63b8ff" points="618.65,-97.42 626.73,-90.56 616.14,-90.88 618.65,-97.42"/>
</a>
</g>
</g>
<!-- Node6 -->
<g id="Node000006" class="node">
<title>Node6</title>
<g id="a_Node000006"><a xlink:href="DirektHeader_8h.html" target="_top" xlink:title=" ">
<polygon fill="white" stroke="#666666" points="877.27,-151 747.27,-151 747.27,-132 877.27,-132 877.27,-151"/>
<text text-anchor="middle" x="812.27" y="-139" font-family="Helvetica,sans-Serif" font-size="10.00">chrome/DirektHeader.h</text>
</a>
</g>
</g>
<!-- Node1&#45;&gt;Node6 -->
<g id="edge7_Node000001_Node000006" class="edge">
<title>Node1&#45;&gt;Node6</title>
<g id="a_edge7_Node000001_Node000006"><a xlink:title=" ">
<path fill="none" stroke="#63b8ff" d="M946.57,-241.84C921.69,-223.44 863.28,-180.23 832.33,-157.34"/>
<polygon fill="#63b8ff" stroke="#63b8ff" points="834.15,-154.33 824.03,-151.2 829.98,-159.96 834.15,-154.33"/>
</a>
</g>
</g>
<!-- Node8 -->
<g id="Node000008" class="node">
<title>Node8</title>
<g id="a_Node000008"><a xlink:href="DirektPopupPanel_8h.html" target="_top" xlink:title=" ">
<polygon fill="white" stroke="#666666" points="729.27,-151 577.27,-151 577.27,-132 729.27,-132 729.27,-151"/>
<text text-anchor="middle" x="653.27" y="-139" font-family="Helvetica,sans-Serif" font-size="10.00">chrome/DirektPopupPanel.h</text>
</a>
</g>
</g>
<!-- Node1&#45;&gt;Node8 -->
<g id="edge12_Node000001_Node000008" class="edge">
<title>Node1&#45;&gt;Node8</title>
<g id="a_edge12_Node000001_Node000008"><a xlink:title=" ">
<path fill="none" stroke="#63b8ff" d="M934.08,-241.94C880.03,-222.79 749.32,-176.51 687.18,-154.51"/>
<polygon fill="#63b8ff" stroke="#63b8ff" points="688.05,-151.1 677.46,-151.07 685.72,-157.7 688.05,-151.1"/>
</a>
</g>
</g>
<!-- Node9 -->
<g id="Node000009" class="node">
<title>Node9</title>
<g id="a_Node000009"><a xlink:href="DirektPresetBrowser_8h.html" target="_top" xlink:title=" ">
<polygon fill="white" stroke="#666666" points="520.77,-151 355.77,-151 355.77,-132 520.77,-132 520.77,-151"/>
<text text-anchor="middle" x="438.27" y="-139" font-family="Helvetica,sans-Serif" font-size="10.00">chrome/DirektPresetBrowser.h</text>
</a>
</g>
</g>
<!-- Node1&#45;&gt;Node9 -->
<g id="edge15_Node000001_Node000009" class="edge">
<title>Node1&#45;&gt;Node9</title>
<g id="a_edge15_Node000001_Node000009"><a xlink:title=" ">
<path fill="none" stroke="#63b8ff" d="M892.73,-247.37C790.83,-241.88 599.44,-228.86 535.27,-206 504.8,-195.15 474.36,-172.9 455.92,-157.83"/>
<polygon fill="#63b8ff" stroke="#63b8ff" points="457.8,-154.84 447.88,-151.1 453.3,-160.21 457.8,-154.84"/>
</a>
</g>
</g>
<!-- Node11 -->
<g id="Node000011" class="node">
<title>Node11</title>
<g id="a_Node000011"><a xlink:href="DirektConfig_8h.html" target="_top" xlink:title=" ">
<polygon fill="white" stroke="#666666" points="1157.77,-151 1038.77,-151 1038.77,-132 1157.77,-132 1157.77,-151"/>
<text text-anchor="middle" x="1098.27" y="-139" font-family="Helvetica,sans-Serif" font-size="10.00">config/DirektConfig.h</text>
</a>
</g>
</g>
<!-- Node1&#45;&gt;Node11 -->
<g id="edge20_Node000001_Node000011" class="edge">
<title>Node1&#45;&gt;Node11</title>
<g id="a_edge20_Node000001_Node000011"><a xlink:title=" ">
<path fill="none" stroke="#63b8ff" d="M969.73,-241.66C993.74,-223.14 1049.56,-180.08 1079.12,-157.28"/>
<polygon fill="#63b8ff" stroke="#63b8ff" points="1081.27,-160.04 1087.05,-151.16 1076.99,-154.5 1081.27,-160.04"/>
</a>
</g>
</g>
<!-- Node12 -->
<g id="Node000012" class="node">
<title>Node12</title>
<g id="a_Node000012"><a xlink:href="DirektDescriptors_8h.html" target="_top" xlink:title=" ">
<polygon fill="white" stroke="#666666" points="2224.77,-151 2081.77,-151 2081.77,-132 2224.77,-132 2224.77,-151"/>
<text text-anchor="middle" x="2153.27" y="-139" font-family="Helvetica,sans-Serif" font-size="10.00">config/DirektDescriptors.h</text>
</a>
</g>
</g>
<!-- Node1&#45;&gt;Node12 -->
<g id="edge23_Node000001_Node000012" class="edge">
<title>Node1&#45;&gt;Node12</title>
<g id="a_edge23_Node000001_Node000012"><a xlink:title=" ">
<path fill="none" stroke="#63b8ff" d="M1024.15,-250.11C1265.59,-248.42 2090.17,-240.15 2134.27,-206 2147.75,-195.56 2151.99,-175.92 2153.17,-161.24"/>
<polygon fill="#63b8ff" stroke="#63b8ff" points="2156.67,-161.34 2153.58,-151.21 2149.68,-161.06 2156.67,-161.34"/>
</a>
</g>
</g>
<!-- Node17 -->
<g id="Node000017" class="node">
<title>Node17</title>
<g id="a_Node000017"><a xlink:href="DirektAutoLayout_8h.html" target="_top" xlink:title=" ">
<polygon fill="white" stroke="#666666" points="1474.77,-206 1339.77,-206 1339.77,-187 1474.77,-187 1474.77,-206"/>
<text text-anchor="middle" x="1407.27" y="-194" font-family="Helvetica,sans-Serif" font-size="10.00">core/DirektAutoLayout.h</text>
</a>
</g>
</g>
<!-- Node1&#45;&gt;Node17 -->
<g id="edge29_Node000001_Node000017" class="edge">
<title>Node1&#45;&gt;Node17</title>
<g id="a_edge29_Node000001_Node000017"><a xlink:title=" ">
<path fill="none" stroke="#63b8ff" d="M1024.04,-242.74C1105.23,-233.15 1243.12,-216.88 1329.48,-206.68"/>
<polygon fill="#63b8ff" stroke="#63b8ff" points="1329.97,-210.15 1339.49,-205.5 1329.14,-203.2 1329.97,-210.15"/>
</a>
</g>
</g>
<!-- Node22 -->
<g id="Node000022" class="node">
<title>Node22</title>
<g id="a_Node000022"><a xlink:href="DirektSection_8h.html" target="_top" xlink:title=" ">
<polygon fill="white" stroke="#666666" points="1020.77,-151 895.77,-151 895.77,-132 1020.77,-132 1020.77,-151"/>
<text text-anchor="middle" x="958.27" y="-139" font-family="Helvetica,sans-Serif" font-size="10.00">layout/DirektSection.h</text>
</a>
</g>
</g>
<!-- Node1&#45;&gt;Node22 -->
<g id="edge62_Node000001_Node000022" class="edge">
<title>Node1&#45;&gt;Node22</title>
<g id="a_edge62_Node000001_Node000022"><a xlink:title=" ">
<path fill="none" stroke="#63b8ff" d="M958.27,-241.66C958.27,-224.17 958.27,-184.8 958.27,-161.27"/>
<polygon fill="#63b8ff" stroke="#63b8ff" points="961.77,-161.16 958.27,-151.16 954.77,-161.16 961.77,-161.16"/>
</a>
</g>
</g>
<!-- Node23 -->
<g id="Node000023" class="node">
<title>Node23</title>
<g id="a_Node000023"><a xlink:href="DirektBuildContext_8h.html" target="_top" xlink:title=" ">
<polygon fill="white" stroke="#666666" points="2462.77,-151 2319.77,-151 2319.77,-132 2462.77,-132 2462.77,-151"/>
<text text-anchor="middle" x="2391.27" y="-139" font-family="Helvetica,sans-Serif" font-size="10.00">core/DirektBuildContext.h</text>
</a>
</g>
</g>
<!-- Node1&#45;&gt;Node23 -->
<g id="edge46_Node000001_Node000023" class="edge">
<title>Node1&#45;&gt;Node23</title>
<g id="a_edge46_Node000001_Node000023"><a xlink:title=" ">
<path fill="none" stroke="#63b8ff" d="M1023.86,-250C1240.74,-248.03 1933.52,-239.25 2154.27,-206 2227.89,-194.91 2311.46,-169.36 2357.07,-154.27"/>
<polygon fill="#63b8ff" stroke="#63b8ff" points="2358.37,-157.53 2366.75,-151.04 2356.16,-150.89 2358.37,-157.53"/>
</a>
</g>
</g>
<!-- Node25 -->
<g id="Node000025" class="node">
<title>Node25</title>
<g id="a_Node000025"><a xlink:href="DirektComponentRegistry_8h.html" target="_top" xlink:title=" ">
<polygon fill="white" stroke="#666666" points="2124.77,-206 1949.77,-206 1949.77,-187 2124.77,-187 2124.77,-206"/>
<text text-anchor="middle" x="2037.27" y="-194" font-family="Helvetica,sans-Serif" font-size="10.00">core/DirektComponentRegistry.h</text>
</a>
</g>
</g>
<!-- Node1&#45;&gt;Node25 -->
<g id="edge50_Node000001_Node000025" class="edge">
<title>Node1&#45;&gt;Node25</title>
<g id="a_edge50_Node000001_Node000025"><a xlink:title=" ">
<path fill="none" stroke="#63b8ff" d="M1024.14,-247.26C1207.23,-238.27 1722.96,-212.94 1939.56,-202.3"/>
<polygon fill="#63b8ff" stroke="#63b8ff" points="1939.82,-205.79 1949.64,-201.8 1939.48,-198.8 1939.82,-205.79"/>
</a>
</g>
</g>
<!-- Node26 -->
<g id="Node000026" class="node">
<title>Node26</title>
<g id="a_Node000026"><a xlink:href="DirektParameterHistory_8h.html" target="_top" xlink:title=" ">
<polygon fill="white" stroke="#666666" points="1949.27,-151 1785.27,-151 1785.27,-132 1949.27,-132 1949.27,-151"/>
<text text-anchor="middle" x="1867.27" y="-139" font-family="Helvetica,sans-Serif" font-size="10.00">core/DirektParameterHistory.h</text>
</a>
</g>
</g>
<!-- Node1&#45;&gt;Node26 -->
<g id="edge59_Node000001_Node000026" class="edge">
<title>Node1&#45;&gt;Node26</title>
<g id="a_edge59_Node000001_Node000026"><a xlink:title=" ">
<path fill="none" stroke="#63b8ff" d="M1023.98,-248.88C1204.83,-244.14 1701.23,-229.17 1771.27,-206 1801.92,-195.86 1832.12,-173.23 1850.23,-157.91"/>
<polygon fill="#63b8ff" stroke="#63b8ff" points="1852.85,-160.27 1858.1,-151.06 1848.26,-154.99 1852.85,-160.27"/>
</a>
</g>
</g>
<!-- Node27 -->
<g id="Node000027" class="node">
<title>Node27</title>
<g id="a_Node000027"><a xlink:href="DirektLookAndFeel_8h.html" target="_top" xlink:title=" ">
<polygon fill="white" stroke="#666666" points="194.27,-151 42.27,-151 42.27,-132 194.27,-132 194.27,-151"/>
<text text-anchor="middle" x="118.27" y="-139" font-family="Helvetica,sans-Serif" font-size="10.00">theme/DirektLookAndFeel.h</text>
</a>
</g>
</g>
<!-- Node1&#45;&gt;Node27 -->
<g id="edge64_Node000001_Node000027" class="edge">
<title>Node1&#45;&gt;Node27</title>
<g id="a_edge64_Node000001_Node000027"><a xlink:title=" ">
<path fill="none" stroke="#63b8ff" d="M892.4,-247.93C789.47,-243.28 584.44,-231.5 412.27,-206 321.88,-192.61 217.69,-167.86 160.8,-153.53"/>
<polygon fill="#63b8ff" stroke="#63b8ff" points="161.63,-150.13 151.08,-151.07 159.91,-156.92 161.63,-150.13"/>
</a>
</g>
</g>
<!-- Node4&#45;&gt;Node3 -->
<g id="edge4_Node000004_Node000003" class="edge">
<title>Node4&#45;&gt;Node3</title>
<g id="a_edge4_Node000004_Node000003"><a xlink:title=" ">
<path fill="none" stroke="#63b8ff" d="M284.45,-131.89C302.39,-115.68 344.03,-80.9 386.27,-66 477.45,-33.83 758.92,-21.7 889.91,-17.72"/>
<polygon fill="#63b8ff" stroke="#63b8ff" points="890.32,-21.21 900.21,-17.41 890.11,-14.21 890.32,-21.21"/>
</a>
</g>
</g>
<!-- Node4&#45;&gt;Node5 -->
<g id="edge5_Node000004_Node000005" class="edge">
<title>Node4&#45;&gt;Node5</title>
<g id="a_edge5_Node000004_Node000005"><a xlink:title=" ">
<path fill="none" stroke="#63b8ff" d="M330.23,-131.99C398.68,-121.4 515.45,-103.33 588.27,-92.06"/>
<polygon fill="#63b8ff" stroke="#63b8ff" points="588.89,-95.5 598.24,-90.52 587.82,-88.59 588.89,-95.5"/>
</a>
</g>
</g>
<!-- Node5&#45;&gt;Node3 -->
<g id="edge6_Node000005_Node000003" class="edge">
<title>Node5&#45;&gt;Node3</title>
<g id="a_edge6_Node000005_Node000003"><a xlink:title=" ">
<path fill="none" stroke="#63b8ff" d="M694.09,-71.44C744.29,-60.9 830.24,-42.87 890.43,-30.23"/>
<polygon fill="#63b8ff" stroke="#63b8ff" points="891.17,-33.66 900.23,-28.18 889.73,-26.81 891.17,-33.66"/>
</a>
</g>
</g>
<!-- Node6&#45;&gt;Node2 -->
<g id="edge8_Node000006_Node000002" class="edge">
<title>Node6&#45;&gt;Node2</title>
<g id="a_edge8_Node000006_Node000002"><a xlink:title=" ">
<path fill="none" stroke="#63b8ff" d="M877.29,-132.87C880.66,-132.55 884,-132.26 887.27,-132 1223.68,-105.06 1312.82,-133.25 1652.43,-95.98"/>
<polygon fill="#63b8ff" stroke="#63b8ff" points="1653,-99.44 1662.55,-94.86 1652.23,-92.48 1653,-99.44"/>
</a>
</g>
</g>
<!-- Node6&#45;&gt;Node3 -->
<g id="edge9_Node000006_Node000003" class="edge">
<title>Node6&#45;&gt;Node3</title>
<g id="a_edge9_Node000006_Node000003"><a xlink:title=" ">
<path fill="none" stroke="#63b8ff" d="M822.3,-131.94C845.11,-112.49 901.38,-64.51 933.93,-36.75"/>
<polygon fill="#63b8ff" stroke="#63b8ff" points="936.33,-39.31 941.66,-30.16 931.78,-33.99 936.33,-39.31"/>
</a>
</g>
</g>
<!-- Node6&#45;&gt;Node5 -->
<g id="edge11_Node000006_Node000005" class="edge">
<title>Node6&#45;&gt;Node5</title>
<g id="a_edge11_Node000006_Node000005"><a xlink:title=" ">
<path fill="none" stroke="#63b8ff" d="M789.15,-131.99C761.95,-121.99 716.6,-105.3 685.85,-93.99"/>
<polygon fill="#63b8ff" stroke="#63b8ff" points="687.01,-90.68 676.42,-90.52 684.59,-97.25 687.01,-90.68"/>
</a>
</g>
</g>
<!-- Node7 -->
<g id="Node000007" class="node">
<title>Node7</title>
<g id="a_Node000007"><a xlink:title=" ">
<polygon fill="#e0e0e0" stroke="#999999" points="844.77,-90.5 779.77,-90.5 779.77,-71.5 844.77,-71.5 844.77,-90.5"/>
<text text-anchor="middle" x="812.27" y="-78.5" font-family="Helvetica,sans-Serif" font-size="10.00">functional</text>
</a>
</g>
</g>
<!-- Node6&#45;&gt;Node7 -->
<g id="edge10_Node000006_Node000007" class="edge">
<title>Node6&#45;&gt;Node7</title>
<g id="a_edge10_Node000006_Node000007"><a xlink:title=" ">
<path fill="none" stroke="#63b8ff" d="M812.27,-131.87C812.27,-123.75 812.27,-111.31 812.27,-100.89"/>
<polygon fill="#63b8ff" stroke="#63b8ff" points="815.77,-100.67 812.27,-90.67 808.77,-100.67 815.77,-100.67"/>
</a>
</g>
</g>
<!-- Node8&#45;&gt;Node3 -->
<g id="edge13_Node000008_Node000003" class="edge">
<title>Node8&#45;&gt;Node3</title>
<g id="a_edge13_Node000008_Node000003"><a xlink:title=" ">
<path fill="none" stroke="#63b8ff" d="M667.64,-131.97C682.44,-123.14 706.12,-108.85 726.27,-96 746.54,-83.08 749.37,-75.9 771.27,-66 809.06,-48.92 853.86,-36.68 890.14,-28.6"/>
<polygon fill="#63b8ff" stroke="#63b8ff" points="891.11,-31.97 900.14,-26.42 889.62,-25.13 891.11,-31.97"/>
</a>
</g>
</g>
<!-- Node8&#45;&gt;Node5 -->
<g id="edge14_Node000008_Node000005" class="edge">
<title>Node8&#45;&gt;Node5</title>
<g id="a_edge14_Node000008_Node000005"><a xlink:title=" ">
<path fill="none" stroke="#63b8ff" d="M653.27,-131.87C653.27,-123.75 653.27,-111.31 653.27,-100.89"/>
<polygon fill="#63b8ff" stroke="#63b8ff" points="656.77,-100.67 653.27,-90.67 649.77,-100.67 656.77,-100.67"/>
</a>
</g>
</g>
<!-- Node9&#45;&gt;Node3 -->
<g id="edge16_Node000009_Node000003" class="edge">
<title>Node9&#45;&gt;Node3</title>
<g id="a_edge16_Node000009_Node000003"><a xlink:title=" ">
<path fill="none" stroke="#63b8ff" d="M450.9,-131.89C474.92,-115.99 529.32,-82.17 580.27,-66 685.19,-32.7 813.29,-21.56 890.19,-17.85"/>
<polygon fill="#63b8ff" stroke="#63b8ff" points="890.4,-21.34 900.23,-17.39 890.08,-14.35 890.4,-21.34"/>
</a>
</g>
</g>
<!-- Node9&#45;&gt;Node5 -->
<g id="edge19_Node000009_Node000005" class="edge">
<title>Node9&#45;&gt;Node5</title>
<g id="a_edge19_Node000009_Node000005"><a xlink:title=" ">
<path fill="none" stroke="#63b8ff" d="M469.53,-131.99C507.19,-121.75 570.56,-104.5 612.15,-93.19"/>
<polygon fill="#63b8ff" stroke="#63b8ff" points="613.24,-96.52 621.97,-90.52 611.4,-89.77 613.24,-96.52"/>
</a>
</g>
</g>
<!-- Node9&#45;&gt;Node7 -->
<g id="edge17_Node000009_Node000007" class="edge">
<title>Node9&#45;&gt;Node7</title>
<g id="a_edge17_Node000009_Node000007"><a xlink:title=" ">
<path fill="none" stroke="#63b8ff" d="M494.31,-131.98C552.36,-123.12 645.7,-108.78 726.27,-96 740.32,-93.77 755.65,-91.29 769.43,-89.04"/>
<polygon fill="#63b8ff" stroke="#63b8ff" points="770.3,-92.45 779.61,-87.38 769.18,-85.54 770.3,-92.45"/>
</a>
</g>
</g>
<!-- Node10 -->
<g id="Node000010" class="node">
<title>Node10</title>
<g id="a_Node000010"><a xlink:title=" ">
<polygon fill="#e0e0e0" stroke="#999999" points="481.27,-90.5 395.27,-90.5 395.27,-71.5 481.27,-71.5 481.27,-90.5"/>
<text text-anchor="middle" x="438.27" y="-78.5" font-family="Helvetica,sans-Serif" font-size="10.00">unordered_set</text>
</a>
</g>
</g>
<!-- Node9&#45;&gt;Node10 -->
<g id="edge18_Node000009_Node000010" class="edge">
<title>Node9&#45;&gt;Node10</title>
<g id="a_edge18_Node000009_Node000010"><a xlink:title=" ">
<path fill="none" stroke="#63b8ff" d="M438.27,-131.87C438.27,-123.75 438.27,-111.31 438.27,-100.89"/>
<polygon fill="#63b8ff" stroke="#63b8ff" points="441.77,-100.67 438.27,-90.67 434.77,-100.67 441.77,-100.67"/>
</a>
</g>
</g>
<!-- Node11&#45;&gt;Node3 -->
<g id="edge21_Node000011_Node000003" class="edge">
<title>Node11&#45;&gt;Node3</title>
<g id="a_edge21_Node000011_Node000003"><a xlink:title=" ">
<path fill="none" stroke="#63b8ff" d="M1088.65,-131.94C1066.87,-112.58 1013.28,-64.92 982,-37.11"/>
<polygon fill="#63b8ff" stroke="#63b8ff" points="983.99,-34.19 974.19,-30.16 979.34,-39.42 983.99,-34.19"/>
</a>
</g>
</g>
<!-- Node11&#45;&gt;Node5 -->
<g id="edge22_Node000011_Node000005" class="edge">
<title>Node11&#45;&gt;Node5</title>
<g id="a_edge22_Node000011_Node000005"><a xlink:title=" ">
<path fill="none" stroke="#63b8ff" d="M1038.72,-132.67C958.07,-122.07 814.2,-103.16 726.88,-91.68"/>
<polygon fill="#63b8ff" stroke="#63b8ff" points="727.15,-88.18 716.78,-90.35 726.24,-95.12 727.15,-88.18"/>
</a>
</g>
</g>
<!-- Node12&#45;&gt;Node3 -->
<g id="edge24_Node000012_Node000003" class="edge">
<title>Node12&#45;&gt;Node3</title>
<g id="a_edge24_Node000012_Node000003"><a xlink:title=" ">
<path fill="none" stroke="#63b8ff" d="M2149.23,-131.56C2141.25,-115.1 2121.72,-80.4 2093.27,-66 1998.37,-17.98 1257.71,-15.39 1026.79,-15.76"/>
<polygon fill="#63b8ff" stroke="#63b8ff" points="1026.5,-12.26 1016.51,-15.78 1026.51,-19.26 1026.5,-12.26"/>
</a>
</g>
</g>
<!-- Node13 -->
<g id="Node000013" class="node">
<title>Node13</title>
<g id="a_Node000013"><a xlink:title=" ">
<polygon fill="#e0e0e0" stroke="#999999" points="2324.27,-90.5 2286.27,-90.5 2286.27,-71.5 2324.27,-71.5 2324.27,-90.5"/>
<text text-anchor="middle" x="2305.27" y="-78.5" font-family="Helvetica,sans-Serif" font-size="10.00">map</text>
</a>
</g>
</g>
<!-- Node12&#45;&gt;Node13 -->
<g id="edge25_Node000012_Node000013" class="edge">
<title>Node12&#45;&gt;Node13</title>
<g id="a_edge25_Node000012_Node000013"><a xlink:title=" ">
<path fill="none" stroke="#63b8ff" d="M2180.23,-131.86C2205.59,-123.48 2244.46,-110.03 2277.27,-96 2278.1,-95.64 2278.94,-95.28 2279.79,-94.9"/>
<polygon fill="#63b8ff" stroke="#63b8ff" points="2281.29,-98.06 2288.84,-90.62 2278.3,-91.73 2281.29,-98.06"/>
</a>
</g>
</g>
<!-- Node14 -->
<g id="Node000014" class="node">
<title>Node14</title>
<g id="a_Node000014"><a xlink:title=" ">
<polygon fill="#e0e0e0" stroke="#999999" points="2268.27,-90.5 2210.27,-90.5 2210.27,-71.5 2268.27,-71.5 2268.27,-90.5"/>
<text text-anchor="middle" x="2239.27" y="-78.5" font-family="Helvetica,sans-Serif" font-size="10.00">memory</text>
</a>
</g>
</g>
<!-- Node12&#45;&gt;Node14 -->
<g id="edge26_Node000012_Node000014" class="edge">
<title>Node12&#45;&gt;Node14</title>
<g id="a_edge26_Node000012_Node000014"><a xlink:title=" ">
<path fill="none" stroke="#63b8ff" d="M2165.96,-131.87C2179.68,-122.54 2201.77,-107.51 2218.12,-96.38"/>
<polygon fill="#63b8ff" stroke="#63b8ff" points="2220.23,-99.19 2226.53,-90.67 2216.29,-93.4 2220.23,-99.19"/>
</a>
</g>
</g>
<!-- Node15 -->
<g id="Node000015" class="node">
<title>Node15</title>
<g id="a_Node000015"><a xlink:title=" ">
<polygon fill="#e0e0e0" stroke="#999999" points="2191.77,-90.5 2140.77,-90.5 2140.77,-71.5 2191.77,-71.5 2191.77,-90.5"/>
<text text-anchor="middle" x="2166.27" y="-78.5" font-family="Helvetica,sans-Serif" font-size="10.00">variant</text>
</a>
</g>
</g>
<!-- Node12&#45;&gt;Node15 -->
<g id="edge27_Node000012_Node000015" class="edge">
<title>Node12&#45;&gt;Node15</title>
<g id="a_edge27_Node000012_Node000015"><a xlink:title=" ">
<path fill="none" stroke="#63b8ff" d="M2155.19,-131.87C2157.01,-123.66 2159.82,-111.04 2162.15,-100.55"/>
<polygon fill="#63b8ff" stroke="#63b8ff" points="2165.59,-101.19 2164.34,-90.67 2158.76,-99.67 2165.59,-101.19"/>
</a>
</g>
</g>
<!-- Node16 -->
<g id="Node000016" class="node">
<title>Node16</title>
<g id="a_Node000016"><a xlink:title=" ">
<polygon fill="#e0e0e0" stroke="#999999" points="2083.77,-90.5 2036.77,-90.5 2036.77,-71.5 2083.77,-71.5 2083.77,-90.5"/>
<text text-anchor="middle" x="2060.27" y="-78.5" font-family="Helvetica,sans-Serif" font-size="10.00">vector</text>
</a>
</g>
</g>
<!-- Node12&#45;&gt;Node16 -->
<g id="edge28_Node000012_Node000016" class="edge">
<title>Node12&#45;&gt;Node16</title>
<g id="a_edge28_Node000012_Node000016"><a xlink:title=" ">
<path fill="none" stroke="#63b8ff" d="M2139.55,-131.87C2124.57,-122.45 2100.38,-107.23 2082.65,-96.08"/>
<polygon fill="#63b8ff" stroke="#63b8ff" points="2084.38,-93.03 2074.05,-90.67 2080.65,-98.95 2084.38,-93.03"/>
</a>
</g>
</g>
<!-- Node17&#45;&gt;Node2 -->
<g id="edge30_Node000017_Node000002" class="edge">
<title>Node17&#45;&gt;Node2</title>
<g id="a_edge30_Node000017_Node000002"><a xlink:title=" ">
<path fill="none" stroke="#63b8ff" d="M1475.08,-192.53C1550.32,-188 1665.7,-176.94 1700.27,-151 1714.69,-140.18 1722.83,-121.28 1727.29,-106"/>
<polygon fill="#63b8ff" stroke="#63b8ff" points="1730.72,-106.69 1729.82,-96.14 1723.94,-104.95 1730.72,-106.69"/>
</a>
</g>
</g>
<!-- Node17&#45;&gt;Node3 -->
<g id="edge31_Node000017_Node000003" class="edge">
<title>Node17&#45;&gt;Node3</title>
<g id="a_edge31_Node000017_Node000003"><a xlink:title=" ">
<path fill="none" stroke="#63b8ff" d="M1368.47,-186.93C1335.07,-179.07 1285.82,-166.35 1244.27,-151 1150.74,-116.46 1045.99,-62.99 993,-34.83"/>
<polygon fill="#63b8ff" stroke="#63b8ff" points="994.5,-31.66 984.03,-30.04 991.2,-37.84 994.5,-31.66"/>
</a>
</g>
</g>
<!-- Node17&#45;&gt;Node12 -->
<g id="edge32_Node000017_Node000012" class="edge">
<title>Node17&#45;&gt;Node12</title>
<g id="a_edge32_Node000017_Node000012"><a xlink:title=" ">
<path fill="none" stroke="#63b8ff" d="M1474.79,-190.7C1611.91,-180.96 1922.57,-158.89 2071.14,-148.34"/>
<polygon fill="#63b8ff" stroke="#63b8ff" points="2071.82,-151.8 2081.55,-147.6 2071.33,-144.81 2071.82,-151.8"/>
</a>
</g>
</g>
<!-- Node18 -->
<g id="Node000018" class="node">
<title>Node18</title>
<g id="a_Node000018"><a xlink:href="DirektComboBox_8h.html" target="_top" xlink:title=" ">
<polygon fill="white" stroke="#666666" points="1403.77,-151 1252.77,-151 1252.77,-132 1403.77,-132 1403.77,-151"/>
<text text-anchor="middle" x="1328.27" y="-139" font-family="Helvetica,sans-Serif" font-size="10.00">controls/DirektComboBox.h</text>
</a>
</g>
</g>
<!-- Node17&#45;&gt;Node18 -->
<g id="edge33_Node000017_Node000018" class="edge">
<title>Node17&#45;&gt;Node18</title>
<g id="a_edge33_Node000017_Node000018"><a xlink:title=" ">
<path fill="none" stroke="#63b8ff" d="M1394.58,-186.98C1382.44,-178.84 1363.91,-166.41 1349.52,-156.76"/>
<polygon fill="#63b8ff" stroke="#63b8ff" points="1351.45,-153.84 1341.19,-151.17 1347.55,-159.65 1351.45,-153.84"/>
</a>
</g>
</g>
<!-- Node19 -->
<g id="Node000019" class="node">
<title>Node19</title>
<g id="a_Node000019"><a xlink:href="DirektKnob_8h.html" target="_top" xlink:title=" ">
<polygon fill="white" stroke="#666666" points="1691.27,-151 1569.27,-151 1569.27,-132 1691.27,-132 1691.27,-151"/>
<text text-anchor="middle" x="1630.27" y="-139" font-family="Helvetica,sans-Serif" font-size="10.00">controls/DirektKnob.h</text>
</a>
</g>
</g>
<!-- Node17&#45;&gt;Node19 -->
<g id="edge36_Node000017_Node000019" class="edge">
<title>Node17&#45;&gt;Node19</title>
<g id="a_edge36_Node000017_Node000019"><a xlink:title=" ">
<path fill="none" stroke="#63b8ff" d="M1443.1,-186.98C1481.43,-177.87 1542.35,-163.4 1584.22,-153.45"/>
<polygon fill="#63b8ff" stroke="#63b8ff" points="1585.24,-156.8 1594.16,-151.08 1583.62,-149.99 1585.24,-156.8"/>
</a>
</g>
</g>
<!-- Node21 -->
<g id="Node000021" class="node">
<title>Node21</title>
<g id="a_Node000021"><a xlink:href="DirektToggle_8h.html" target="_top" xlink:title=" ">
<polygon fill="white" stroke="#666666" points="1550.77,-151 1421.77,-151 1421.77,-132 1550.77,-132 1550.77,-151"/>
<text text-anchor="middle" x="1486.27" y="-139" font-family="Helvetica,sans-Serif" font-size="10.00">controls/DirektToggle.h</text>
</a>
</g>
</g>
<!-- Node17&#45;&gt;Node21 -->
<g id="edge40_Node000017_Node000021" class="edge">
<title>Node17&#45;&gt;Node21</title>
<g id="a_edge40_Node000017_Node000021"><a xlink:title=" ">
<path fill="none" stroke="#63b8ff" d="M1419.96,-186.98C1432.1,-178.84 1450.63,-166.41 1465.02,-156.76"/>
<polygon fill="#63b8ff" stroke="#63b8ff" points="1466.99,-159.65 1473.35,-151.17 1463.09,-153.84 1466.99,-159.65"/>
</a>
</g>
</g>
<!-- Node17&#45;&gt;Node22 -->
<g id="edge43_Node000017_Node000022" class="edge">
<title>Node17&#45;&gt;Node22</title>
<g id="a_edge43_Node000017_Node000022"><a xlink:title=" ">
<path fill="none" stroke="#63b8ff" d="M1339.56,-187.51C1256.58,-177.71 1116.51,-161.18 1031.21,-151.11"/>
<polygon fill="#63b8ff" stroke="#63b8ff" points="1031.42,-147.61 1021.08,-149.91 1030.6,-154.56 1031.42,-147.61"/>
</a>
</g>
</g>
<!-- Node18&#45;&gt;Node2 -->
<g id="edge34_Node000018_Node000002" class="edge">
<title>Node18&#45;&gt;Node2</title>
<g id="a_edge34_Node000018_Node000002"><a xlink:title=" ">
<path fill="none" stroke="#63b8ff" d="M1396.23,-131.98C1459.81,-123.84 1557.69,-110.84 1652.46,-96.09"/>
<polygon fill="#63b8ff" stroke="#63b8ff" points="1653.17,-99.52 1662.51,-94.52 1652.09,-92.6 1653.17,-99.52"/>
</a>
</g>
</g>
<!-- Node18&#45;&gt;Node3 -->
<g id="edge35_Node000018_Node000003" class="edge">
<title>Node18&#45;&gt;Node3</title>
<g id="a_edge35_Node000018_Node000003"><a xlink:title=" ">
<path fill="none" stroke="#63b8ff" d="M1316.58,-131.92C1294.81,-116.38 1246.14,-83.55 1200.27,-66 1143.67,-44.34 1075.84,-31.36 1026.42,-24.08"/>
<polygon fill="#63b8ff" stroke="#63b8ff" points="1026.87,-20.61 1016.47,-22.65 1025.87,-27.54 1026.87,-20.61"/>
</a>
</g>
</g>
<!-- Node19&#45;&gt;Node2 -->
<g id="edge37_Node000019_Node000002" class="edge">
<title>Node19&#45;&gt;Node2</title>
<g id="a_edge37_Node000019_Node000002"><a xlink:title=" ">
<path fill="none" stroke="#63b8ff" d="M1645.32,-131.87C1659.29,-123.86 1680.58,-111.65 1698.59,-101.31"/>
<polygon fill="#63b8ff" stroke="#63b8ff" points="1700.73,-104.13 1707.66,-96.11 1697.24,-98.05 1700.73,-104.13"/>
</a>
</g>
</g>
<!-- Node19&#45;&gt;Node3 -->
<g id="edge38_Node000019_Node000003" class="edge">
<title>Node19&#45;&gt;Node3</title>
<g id="a_edge38_Node000019_Node000003"><a xlink:title=" ">
<path fill="none" stroke="#63b8ff" d="M1597.76,-131.94C1540.16,-116.98 1416.24,-85.82 1310.27,-66 1212.25,-47.66 1097.76,-32.56 1026.63,-23.91"/>
<polygon fill="#63b8ff" stroke="#63b8ff" points="1026.8,-20.4 1016.45,-22.68 1025.96,-27.35 1026.8,-20.4"/>
</a>
</g>
</g>
<!-- Node20 -->
<g id="Node000020" class="node">
<title>Node20</title>
<g id="a_Node000020"><a xlink:title=" ">
<polygon fill="#e0e0e0" stroke="#999999" points="1644.27,-90.5 1588.27,-90.5 1588.27,-71.5 1644.27,-71.5 1644.27,-90.5"/>
<text text-anchor="middle" x="1616.27" y="-78.5" font-family="Helvetica,sans-Serif" font-size="10.00">optional</text>
</a>
</g>
</g>
<!-- Node19&#45;&gt;Node20 -->
<g id="edge39_Node000019_Node000020" class="edge">
<title>Node19&#45;&gt;Node20</title>
<g id="a_edge39_Node000019_Node000020"><a xlink:title=" ">
<path fill="none" stroke="#63b8ff" d="M1628.2,-131.87C1626.24,-123.66 1623.22,-111.04 1620.71,-100.55"/>
<polygon fill="#63b8ff" stroke="#63b8ff" points="1624.08,-99.58 1618.34,-90.67 1617.27,-101.21 1624.08,-99.58"/>
</a>
</g>
</g>
<!-- Node21&#45;&gt;Node2 -->
<g id="edge41_Node000021_Node000002" class="edge">
<title>Node21&#45;&gt;Node2</title>
<g id="a_edge41_Node000021_Node000002"><a xlink:title=" ">
<path fill="none" stroke="#63b8ff" d="M1522.04,-131.99C1558.91,-123.23 1617.33,-109.33 1663.24,-98.42"/>
<polygon fill="#63b8ff" stroke="#63b8ff" points="1664.21,-101.78 1673.13,-96.06 1662.59,-94.97 1664.21,-101.78"/>
</a>
</g>
</g>
<!-- Node21&#45;&gt;Node3 -->
<g id="edge42_Node000021_Node000003" class="edge">
<title>Node21&#45;&gt;Node3</title>
<g id="a_edge42_Node000021_Node000003"><a xlink:title=" ">
<path fill="none" stroke="#63b8ff" d="M1462.06,-131.98C1418.66,-116.96 1324.58,-85.52 1243.27,-66 1169.89,-48.39 1084.48,-34.23 1026.44,-25.53"/>
<polygon fill="#63b8ff" stroke="#63b8ff" points="1026.69,-22.03 1016.29,-24.03 1025.67,-28.96 1026.69,-22.03"/>
</a>
</g>
</g>
<!-- Node22&#45;&gt;Node3 -->
<g id="edge44_Node000022_Node000003" class="edge">
<title>Node22&#45;&gt;Node3</title>
<g id="a_edge44_Node000022_Node000003"><a xlink:title=" ">
<path fill="none" stroke="#63b8ff" d="M958.27,-131.94C958.27,-113.32 958.27,-68.53 958.27,-40.39"/>
<polygon fill="#63b8ff" stroke="#63b8ff" points="961.77,-40.16 958.27,-30.16 954.77,-40.16 961.77,-40.16"/>
</a>
</g>
</g>
<!-- Node22&#45;&gt;Node5 -->
<g id="edge45_Node000022_Node000005" class="edge">
<title>Node22&#45;&gt;Node5</title>
<g id="a_edge45_Node000022_Node000005"><a xlink:title=" ">
<path fill="none" stroke="#63b8ff" d="M913.92,-131.99C859.26,-121.51 766.4,-103.7 707.53,-92.41"/>
<polygon fill="#63b8ff" stroke="#63b8ff" points="708.15,-88.96 697.67,-90.52 706.83,-95.84 708.15,-88.96"/>
</a>
</g>
</g>
<!-- Node23&#45;&gt;Node2 -->
<g id="edge47_Node000023_Node000002" class="edge">
<title>Node23&#45;&gt;Node2</title>
<g id="a_edge47_Node000023_Node000002"><a xlink:title=" ">
<path fill="none" stroke="#63b8ff" d="M2319.49,-134.13C2195.42,-123.11 1941.73,-100.59 1812.22,-89.1"/>
<polygon fill="#63b8ff" stroke="#63b8ff" points="1812.24,-85.59 1801.97,-88.19 1811.62,-92.56 1812.24,-85.59"/>
</a>
</g>
</g>
<!-- Node23&#45;&gt;Node13 -->
<g id="edge49_Node000023_Node000013" class="edge">
<title>Node23&#45;&gt;Node13</title>
<g id="a_edge49_Node000023_Node000013"><a xlink:title=" ">
<path fill="none" stroke="#63b8ff" d="M2378.58,-131.87C2364.86,-122.54 2342.77,-107.51 2326.42,-96.38"/>
<polygon fill="#63b8ff" stroke="#63b8ff" points="2328.25,-93.4 2318.01,-90.67 2324.31,-99.19 2328.25,-93.4"/>
</a>
</g>
</g>
<!-- Node24 -->
<g id="Node000024" class="node">
<title>Node24</title>
<g id="a_Node000024"><a xlink:title=" ">
<polygon fill="#e0e0e0" stroke="#999999" points="2416.27,-90.5 2366.27,-90.5 2366.27,-71.5 2416.27,-71.5 2416.27,-90.5"/>
<text text-anchor="middle" x="2391.27" y="-78.5" font-family="Helvetica,sans-Serif" font-size="10.00">atomic</text>
</a>
</g>
</g>
<!-- Node23&#45;&gt;Node24 -->
<g id="edge48_Node000023_Node000024" class="edge">
<title>Node23&#45;&gt;Node24</title>
<g id="a_edge48_Node000023_Node000024"><a xlink:title=" ">
<path fill="none" stroke="#63b8ff" d="M2391.27,-131.87C2391.27,-123.75 2391.27,-111.31 2391.27,-100.89"/>
<polygon fill="#63b8ff" stroke="#63b8ff" points="2394.77,-100.67 2391.27,-90.67 2387.77,-100.67 2394.77,-100.67"/>
</a>
</g>
</g>
<!-- Node25&#45;&gt;Node2 -->
<g id="edge51_Node000025_Node000002" class="edge">
<title>Node25&#45;&gt;Node2</title>
<g id="a_edge51_Node000025_Node000002"><a xlink:title=" ">
<path fill="none" stroke="#63b8ff" d="M2028.96,-186.58C2015.5,-172.68 1987.46,-146.01 1958.27,-132 1912.38,-109.98 1856.57,-97.51 1811.89,-90.53"/>
<polygon fill="#63b8ff" stroke="#63b8ff" points="1812.37,-87.06 1801.96,-89.04 1811.33,-93.98 1812.37,-87.06"/>
</a>
</g>
</g>
<!-- Node25&#45;&gt;Node3 -->
<g id="edge52_Node000025_Node000003" class="edge">
<title>Node25&#45;&gt;Node3</title>
<g id="a_edge52_Node000025_Node000003"><a xlink:title=" ">
<path fill="none" stroke="#63b8ff" d="M2032.58,-186.87C2024.82,-173.38 2008.11,-147.24 1987.27,-132 1919.83,-82.7 1893,-83.31 1811.27,-66 1661.95,-34.38 1201.55,-21.29 1026.64,-17.37"/>
<polygon fill="#63b8ff" stroke="#63b8ff" points="1026.61,-13.87 1016.53,-17.14 1026.45,-20.86 1026.61,-13.87"/>
</a>
</g>
</g>
<!-- Node25&#45;&gt;Node7 -->
<g id="edge53_Node000025_Node000007" class="edge">
<title>Node25&#45;&gt;Node7</title>
<g id="a_edge53_Node000025_Node000007"><a xlink:title=" ">
<path fill="none" stroke="#63b8ff" d="M1949.6,-195.88C1802.82,-195.34 1498.42,-189.15 1244.27,-151 1209.41,-145.77 1201.88,-138.69 1167.27,-132 1055.61,-110.42 922.49,-94.17 855.43,-86.64"/>
<polygon fill="#63b8ff" stroke="#63b8ff" points="855.57,-83.13 845.25,-85.51 854.8,-90.09 855.57,-83.13"/>
</a>
</g>
</g>
<!-- Node25&#45;&gt;Node12 -->
<g id="edge57_Node000025_Node000012" class="edge">
<title>Node25&#45;&gt;Node12</title>
<g id="a_edge57_Node000025_Node000012"><a xlink:title=" ">
<path fill="none" stroke="#63b8ff" d="M2055.91,-186.98C2074.57,-178.46 2103.52,-165.23 2125.01,-155.41"/>
<polygon fill="#63b8ff" stroke="#63b8ff" points="2126.65,-158.51 2134.29,-151.17 2123.74,-152.14 2126.65,-158.51"/>
</a>
</g>
</g>
<!-- Node25&#45;&gt;Node13 -->
<g id="edge54_Node000025_Node000013" class="edge">
<title>Node25&#45;&gt;Node13</title>
<g id="a_edge54_Node000025_Node000013"><a xlink:title=" ">
<path fill="none" stroke="#63b8ff" d="M2124.91,-191.37C2166.12,-186.07 2214.4,-174.74 2252.27,-151 2272.2,-138.51 2287.49,-115.69 2296.41,-99.73"/>
<polygon fill="#63b8ff" stroke="#63b8ff" points="2299.54,-101.3 2301.13,-90.83 2293.35,-98.02 2299.54,-101.3"/>
</a>
</g>
</g>
<!-- Node25&#45;&gt;Node14 -->
<g id="edge55_Node000025_Node000014" class="edge">
<title>Node25&#45;&gt;Node14</title>
<g id="a_edge55_Node000025_Node000014"><a xlink:title=" ">
<path fill="none" stroke="#63b8ff" d="M2118.15,-186.98C2165.49,-180.21 2218.92,-168.84 2234.27,-151 2245.99,-137.37 2245.72,-116.09 2243.47,-100.77"/>
<polygon fill="#63b8ff" stroke="#63b8ff" points="2246.89,-100.05 2241.62,-90.86 2240.01,-101.33 2246.89,-100.05"/>
</a>
</g>
</g>
<!-- Node25&#45;&gt;Node16 -->
<g id="edge56_Node000025_Node000016" class="edge">
<title>Node25&#45;&gt;Node16</title>
<g id="a_edge56_Node000025_Node000016"><a xlink:title=" ">
<path fill="none" stroke="#63b8ff" d="M2039,-186.97C2042.69,-168.73 2051.44,-125.57 2056.49,-100.64"/>
<polygon fill="#63b8ff" stroke="#63b8ff" points="2059.97,-101.13 2058.52,-90.63 2053.1,-99.74 2059.97,-101.13"/>
</a>
</g>
</g>
<!-- Node25&#45;&gt;Node23 -->
<g id="edge58_Node000025_Node000023" class="edge">
<title>Node25&#45;&gt;Node23</title>
<g id="a_edge58_Node000025_Node000023"><a xlink:title=" ">
<path fill="none" stroke="#63b8ff" d="M2094.15,-186.98C2156.89,-177.59 2257.76,-162.49 2324.28,-152.53"/>
<polygon fill="#63b8ff" stroke="#63b8ff" points="2324.87,-155.98 2334.24,-151.04 2323.83,-149.06 2324.87,-155.98"/>
</a>
</g>
</g>
<!-- Node26&#45;&gt;Node2 -->
<g id="edge60_Node000026_Node000002" class="edge">
<title>Node26&#45;&gt;Node2</title>
<g id="a_edge60_Node000026_Node000002"><a xlink:title=" ">
<path fill="none" stroke="#63b8ff" d="M1847.64,-131.99C1828.47,-123.68 1798.67,-110.78 1774.17,-100.16"/>
<polygon fill="#63b8ff" stroke="#63b8ff" points="1775.29,-96.83 1764.73,-96.06 1772.51,-103.25 1775.29,-96.83"/>
</a>
</g>
</g>
<!-- Node26&#45;&gt;Node16 -->
<g id="edge61_Node000026_Node000016" class="edge">
<title>Node26&#45;&gt;Node16</title>
<g id="a_edge61_Node000026_Node000016"><a xlink:title=" ">
<path fill="none" stroke="#63b8ff" d="M1895.33,-131.99C1930.21,-121.42 1989.67,-103.4 2026.86,-92.13"/>
<polygon fill="#63b8ff" stroke="#63b8ff" points="2028.17,-95.39 2036.73,-89.14 2026.14,-88.69 2028.17,-95.39"/>
</a>
</g>
</g>
<!-- Node27&#45;&gt;Node3 -->
<g id="edge65_Node000027_Node000003" class="edge">
<title>Node27&#45;&gt;Node3</title>
<g id="a_edge65_Node000027_Node000003"><a xlink:title=" ">
<path fill="none" stroke="#63b8ff" d="M137.18,-131.89C173.4,-115.83 255.44,-81.53 328.27,-66 529.31,-23.14 773.5,-16.23 890.02,-15.61"/>
<polygon fill="#63b8ff" stroke="#63b8ff" points="890.23,-19.11 900.21,-15.57 890.2,-12.11 890.23,-19.11"/>
</a>
</g>
</g>
<!-- Node27&#45;&gt;Node5 -->
<g id="edge66_Node000027_Node000005" class="edge">
<title>Node27&#45;&gt;Node5</title>
<g id="a_edge66_Node000027_Node000005"><a xlink:title=" ">
<path fill="none" stroke="#63b8ff" d="M194.35,-132.18C296.85,-120.97 478.09,-101.16 579.42,-90.07"/>
<polygon fill="#63b8ff" stroke="#63b8ff" points="580.02,-93.53 589.58,-88.96 579.25,-86.57 580.02,-93.53"/>
</a>
</g>
</g>
</g>
</svg>
