<?xml version="1.0" encoding="UTF-8" standalone="no"?>
<!DOCTYPE svg PUBLIC "-//W3C//DTD SVG 1.1//EN"
 "http://www.w3.org/Graphics/SVG/1.1/DTD/svg11.dtd">
<!-- Generated by graphviz version 2.43.0 (0)
 -->
<!-- Title: core/DirektComponentRegistry.cpp Pages: 1 -->
<svg width="1894pt" height="203pt"
 viewBox="0.00 0.00 1893.50 203.00" xmlns="http://www.w3.org/2000/svg" xmlns:xlink="http://www.w3.org/1999/xlink">
<g id="graph0" class="graph" transform="scale(1 1) rotate(0) translate(4 199)">
<title>core/DirektComponentRegistry.cpp</title>
<!-- Node1 -->
<g id="Node000001" class="node">
<title>Node1</title>
<g id="a_Node000001"><a xlink:title=" ">
<polygon fill="#999999" stroke="#666666" points="1232.5,-195 1046.5,-195 1046.5,-176 1232.5,-176 1232.5,-195"/>
<text text-anchor="middle" x="1139.5" y="-183" font-family="Helvetica,sans-Serif" font-size="10.00">core/DirektComponentRegistry.cpp</text>
</a>
</g>
</g>
<!-- Node2 -->
<g id="Node000002" class="node">
<title>Node2</title>
<g id="a_Node000002"><a xlink:href="DirektComponentRegistry_8h.html" target="_top" xlink:title=" ">
<polygon fill="white" stroke="#666666" points="419,-140 244,-140 244,-121 419,-121 419,-140"/>
<text text-anchor="middle" x="331.5" y="-128" font-family="Helvetica,sans-Serif" font-size="10.00">core/DirektComponentRegistry.h</text>
</a>
</g>
</g>
<!-- Node1&#45;&gt;Node2 -->
<g id="edge1_Node000001_Node000002" class="edge">
<title>Node1&#45;&gt;Node2</title>
<g id="a_edge1_Node000001_Node000002"><a xlink:title=" ">
<path fill="none" stroke="#63b8ff" d="M1046.42,-178.39C892.42,-168.29 586.08,-148.2 429.14,-137.9"/>
<polygon fill="#63b8ff" stroke="#63b8ff" points="429.23,-134.4 419.02,-137.24 428.77,-141.39 429.23,-134.4"/>
</a>
</g>
</g>
<!-- Node13 -->
<g id="Node000013" class="node">
<title>Node13</title>
<g id="a_Node000013"><a xlink:href="DirektComboBox_8h.html" target="_top" xlink:title=" ">
<polygon fill="white" stroke="#666666" points="749,-85 598,-85 598,-66 749,-66 749,-85"/>
<text text-anchor="middle" x="673.5" y="-73" font-family="Helvetica,sans-Serif" font-size="10.00">controls/DirektComboBox.h</text>
</a>
</g>
</g>
<!-- Node1&#45;&gt;Node13 -->
<g id="edge18_Node000001_Node000013" class="edge">
<title>Node1&#45;&gt;Node13</title>
<g id="a_edge18_Node000001_Node000013"><a xlink:title=" ">
<path fill="none" stroke="#63b8ff" d="M1065.35,-175.96C1009.18,-168.69 930.36,-156.73 862.5,-140 805.82,-126.03 741.8,-102.91 704.7,-88.75"/>
<polygon fill="#63b8ff" stroke="#63b8ff" points="705.57,-85.34 694.98,-85.02 703.06,-91.87 705.57,-85.34"/>
</a>
</g>
</g>
<!-- Node14 -->
<g id="Node000014" class="node">
<title>Node14</title>
<g id="a_Node000014"><a xlink:href="DirektKnob_8h.html" target="_top" xlink:title=" ">
<polygon fill="white" stroke="#666666" points="889.5,-85 767.5,-85 767.5,-66 889.5,-66 889.5,-85"/>
<text text-anchor="middle" x="828.5" y="-73" font-family="Helvetica,sans-Serif" font-size="10.00">controls/DirektKnob.h</text>
</a>
</g>
</g>
<!-- Node1&#45;&gt;Node14 -->
<g id="edge21_Node000001_Node000014" class="edge">
<title>Node1&#45;&gt;Node14</title>
<g id="a_edge21_Node000001_Node000014"><a xlink:title=" ">
<path fill="none" stroke="#63b8ff" d="M1046.38,-180.89C998.2,-175.84 939.75,-164.59 892.5,-140 871.11,-128.87 852.29,-108.14 840.69,-93.4"/>
<polygon fill="#63b8ff" stroke="#63b8ff" points="843.27,-91 834.45,-85.13 837.68,-95.22 843.27,-91"/>
</a>
</g>
</g>
<!-- Node15 -->
<g id="Node000015" class="node">
<title>Node15</title>
<g id="a_Node000015"><a xlink:href="DirektMacroControl_8h.html" target="_top" xlink:title=" ">
<polygon fill="white" stroke="#666666" points="1257,-85 1094,-85 1094,-66 1257,-66 1257,-85"/>
<text text-anchor="middle" x="1175.5" y="-73" font-family="Helvetica,sans-Serif" font-size="10.00">controls/DirektMacroControl.h</text>
</a>
</g>
</g>
<!-- Node1&#45;&gt;Node15 -->
<g id="edge24_Node000001_Node000015" class="edge">
<title>Node1&#45;&gt;Node15</title>
<g id="a_edge24_Node000001_Node000015"><a xlink:title=" ">
<path fill="none" stroke="#63b8ff" d="M1131.29,-175.64C1120.76,-163.16 1104.94,-139.8 1114.5,-121 1121.27,-107.68 1134.1,-97.41 1146.25,-90.1"/>
<polygon fill="#63b8ff" stroke="#63b8ff" points="1148.25,-92.99 1155.3,-85.09 1144.86,-86.87 1148.25,-92.99"/>
</a>
</g>
</g>
<!-- Node16 -->
<g id="Node000016" class="node">
<title>Node16</title>
<g id="a_Node000016"><a xlink:href="DirektToggle_8h.html" target="_top" xlink:title=" ">
<polygon fill="white" stroke="#666666" points="1037,-85 908,-85 908,-66 1037,-66 1037,-85"/>
<text text-anchor="middle" x="972.5" y="-73" font-family="Helvetica,sans-Serif" font-size="10.00">controls/DirektToggle.h</text>
</a>
</g>
</g>
<!-- Node1&#45;&gt;Node16 -->
<g id="edge28_Node000001_Node000016" class="edge">
<title>Node1&#45;&gt;Node16</title>
<g id="a_edge28_Node000001_Node000016"><a xlink:title=" ">
<path fill="none" stroke="#63b8ff" d="M1046.23,-179.08C987.74,-173.5 920.03,-162.31 901.5,-140 885.13,-120.28 914.6,-101.17 940.4,-89.15"/>
<polygon fill="#63b8ff" stroke="#63b8ff" points="941.93,-92.31 949.65,-85.06 939.09,-85.9 941.93,-92.31"/>
</a>
</g>
</g>
<!-- Node17 -->
<g id="Node000017" class="node">
<title>Node17</title>
<g id="a_Node000017"><a xlink:href="DirektLabel_8h.html" target="_top" xlink:title=" ">
<polygon fill="white" stroke="#666666" points="1885.5,-140 1765.5,-140 1765.5,-121 1885.5,-121 1885.5,-140"/>
<text text-anchor="middle" x="1825.5" y="-128" font-family="Helvetica,sans-Serif" font-size="10.00">display/DirektLabel.h</text>
</a>
</g>
</g>
<!-- Node1&#45;&gt;Node17 -->
<g id="edge31_Node000001_Node000017" class="edge">
<title>Node1&#45;&gt;Node17</title>
<g id="a_edge31_Node000001_Node000017"><a xlink:title=" ">
<path fill="none" stroke="#63b8ff" d="M1232.65,-179.25C1351.5,-172.23 1563.64,-158.58 1755.33,-140.07"/>
<polygon fill="#63b8ff" stroke="#63b8ff" points="1755.69,-143.55 1765.31,-139.1 1755.02,-136.58 1755.69,-143.55"/>
</a>
</g>
</g>
<!-- Node18 -->
<g id="Node000018" class="node">
<title>Node18</title>
<g id="a_Node000018"><a xlink:href="DirektColours_8h.html" target="_top" xlink:title=" ">
<polygon fill="white" stroke="#666666" points="1631,-85 1504,-85 1504,-66 1631,-66 1631,-85"/>
<text text-anchor="middle" x="1567.5" y="-73" font-family="Helvetica,sans-Serif" font-size="10.00">theme/DirektColours.h</text>
</a>
</g>
</g>
<!-- Node1&#45;&gt;Node18 -->
<g id="edge50_Node000001_Node000018" class="edge">
<title>Node1&#45;&gt;Node18</title>
<g id="a_edge50_Node000001_Node000018"><a xlink:title=" ">
<path fill="none" stroke="#63b8ff" d="M1232.62,-179.76C1345.81,-173.18 1524.72,-159.79 1548.5,-140 1561.48,-129.19 1565.82,-109.91 1567.16,-95.42"/>
<polygon fill="#63b8ff" stroke="#63b8ff" points="1570.68,-95.24 1567.7,-85.08 1563.69,-94.88 1570.68,-95.24"/>
</a>
</g>
</g>
<!-- Node19 -->
<g id="Node000019" class="node">
<title>Node19</title>
<g id="a_Node000019"><a xlink:href="DirektMeter_8h.html" target="_top" xlink:title=" ">
<polygon fill="white" stroke="#666666" points="1245.5,-140 1123.5,-140 1123.5,-121 1245.5,-121 1245.5,-140"/>
<text text-anchor="middle" x="1184.5" y="-128" font-family="Helvetica,sans-Serif" font-size="10.00">display/DirektMeter.h</text>
</a>
</g>
</g>
<!-- Node1&#45;&gt;Node19 -->
<g id="edge35_Node000001_Node000019" class="edge">
<title>Node1&#45;&gt;Node19</title>
<g id="a_edge35_Node000001_Node000019"><a xlink:title=" ">
<path fill="none" stroke="#63b8ff" d="M1146.93,-175.75C1153.35,-168.18 1162.81,-157.05 1170.62,-147.84"/>
<polygon fill="#63b8ff" stroke="#63b8ff" points="1173.4,-149.98 1177.21,-140.09 1168.07,-145.45 1173.4,-149.98"/>
</a>
</g>
</g>
<!-- Node20 -->
<g id="Node000020" class="node">
<title>Node20</title>
<g id="a_Node000020"><a xlink:href="DirektFlexContainer_8h.html" target="_top" xlink:title=" ">
<polygon fill="white" stroke="#666666" points="1067,-140 910,-140 910,-121 1067,-121 1067,-140"/>
<text text-anchor="middle" x="988.5" y="-128" font-family="Helvetica,sans-Serif" font-size="10.00">layout/DirektFlexContainer.h</text>
</a>
</g>
</g>
<!-- Node1&#45;&gt;Node20 -->
<g id="edge39_Node000001_Node000020" class="edge">
<title>Node1&#45;&gt;Node20</title>
<g id="a_edge39_Node000001_Node000020"><a xlink:title=" ">
<path fill="none" stroke="#63b8ff" d="M1115.24,-175.98C1090.18,-167.19 1050.87,-153.39 1022.67,-143.49"/>
<polygon fill="#63b8ff" stroke="#63b8ff" points="1023.8,-140.18 1013.2,-140.17 1021.48,-146.78 1023.8,-140.18"/>
</a>
</g>
</g>
<!-- Node21 -->
<g id="Node000021" class="node">
<title>Node21</title>
<g id="a_Node000021"><a xlink:href="DirektSection_8h.html" target="_top" xlink:title=" ">
<polygon fill="white" stroke="#666666" points="1539,-140 1414,-140 1414,-121 1539,-121 1539,-140"/>
<text text-anchor="middle" x="1476.5" y="-128" font-family="Helvetica,sans-Serif" font-size="10.00">layout/DirektSection.h</text>
</a>
</g>
</g>
<!-- Node1&#45;&gt;Node21 -->
<g id="edge43_Node000001_Node000021" class="edge">
<title>Node1&#45;&gt;Node21</title>
<g id="a_edge43_Node000001_Node000021"><a xlink:title=" ">
<path fill="none" stroke="#63b8ff" d="M1193.64,-175.98C1253.13,-166.63 1348.61,-151.61 1411.94,-141.65"/>
<polygon fill="#63b8ff" stroke="#63b8ff" points="1412.88,-145.05 1422.21,-140.04 1411.79,-138.13 1412.88,-145.05"/>
</a>
</g>
</g>
<!-- Node22 -->
<g id="Node000022" class="node">
<title>Node22</title>
<g id="a_Node000022"><a xlink:href="DirektTabPanel_8h.html" target="_top" xlink:title=" ">
<polygon fill="white" stroke="#666666" points="1395.5,-140 1263.5,-140 1263.5,-121 1395.5,-121 1395.5,-140"/>
<text text-anchor="middle" x="1329.5" y="-128" font-family="Helvetica,sans-Serif" font-size="10.00">layout/DirektTabPanel.h</text>
</a>
</g>
</g>
<!-- Node1&#45;&gt;Node22 -->
<g id="edge46_Node000001_Node000022" class="edge">
<title>Node1&#45;&gt;Node22</title>
<g id="a_edge46_Node000001_Node000022"><a xlink:title=" ">
<path fill="none" stroke="#63b8ff" d="M1170.03,-175.98C1202.2,-167.01 1253.06,-152.82 1288.67,-142.89"/>
<polygon fill="#63b8ff" stroke="#63b8ff" points="1290.04,-146.14 1298.73,-140.08 1288.16,-139.4 1290.04,-146.14"/>
</a>
</g>
</g>
<!-- Node23 -->
<g id="Node000023" class="node">
<title>Node23</title>
<g id="a_Node000023"><a xlink:href="DirektLookAndFeel_8h.html" target="_top" xlink:title=" ">
<polygon fill="white" stroke="#666666" points="1747.5,-140 1595.5,-140 1595.5,-121 1747.5,-121 1747.5,-140"/>
<text text-anchor="middle" x="1671.5" y="-128" font-family="Helvetica,sans-Serif" font-size="10.00">theme/DirektLookAndFeel.h</text>
</a>
</g>
</g>
<!-- Node1&#45;&gt;Node23 -->
<g id="edge51_Node000001_Node000023" class="edge">
<title>Node1&#45;&gt;Node23</title>
<g id="a_edge51_Node000001_Node000023"><a xlink:title=" ">
<path fill="none" stroke="#63b8ff" d="M1224.98,-175.98C1323.94,-166.13 1486.02,-149.98 1585.29,-140.09"/>
<polygon fill="#63b8ff" stroke="#63b8ff" points="1585.69,-143.57 1595.29,-139.09 1585,-136.6 1585.69,-143.57"/>
</a>
</g>
</g>
<!-- Node3 -->
<g id="Node000003" class="node">
<title>Node3</title>
<g id="a_Node000003"><a xlink:title=" ">
<polygon fill="#e0e0e0" stroke="#999999" points="820,-30 681,-30 681,0 820,0 820,-30"/>
<text text-anchor="start" x="689" y="-18" font-family="Helvetica,sans-Serif" font-size="10.00">juce_audio_processors</text>
<text text-anchor="middle" x="750.5" y="-7" font-family="Helvetica,sans-Serif" font-size="10.00">/juce_audio_processors.h</text>
</a>
</g>
</g>
<!-- Node2&#45;&gt;Node3 -->
<g id="edge2_Node000002_Node000003" class="edge">
<title>Node2&#45;&gt;Node3</title>
<g id="a_edge2_Node000002_Node000003"><a xlink:title=" ">
<path fill="none" stroke="#63b8ff" d="M331.47,-120.94C331.91,-107.05 334.99,-79.77 351.5,-66 375.51,-45.97 561.33,-29.49 670.72,-21.4"/>
<polygon fill="#63b8ff" stroke="#63b8ff" points="671.02,-24.88 680.74,-20.66 670.51,-17.9 671.02,-24.88"/>
</a>
</g>
</g>
<!-- Node4 -->
<g id="Node000004" class="node">
<title>Node4</title>
<g id="a_Node000004"><a xlink:title=" ">
<polygon fill="#e0e0e0" stroke="#999999" points="1381.5,-30 1265.5,-30 1265.5,0 1381.5,0 1381.5,-30"/>
<text text-anchor="start" x="1273.5" y="-18" font-family="Helvetica,sans-Serif" font-size="10.00">juce_gui_basics/juce</text>
<text text-anchor="middle" x="1323.5" y="-7" font-family="Helvetica,sans-Serif" font-size="10.00">_gui_basics.h</text>
</a>
</g>
</g>
<!-- Node2&#45;&gt;Node4 -->
<g id="edge3_Node000002_Node000004" class="edge">
<title>Node2&#45;&gt;Node4</title>
<g id="a_edge3_Node000002_Node000004"><a xlink:title=" ">
<path fill="none" stroke="#63b8ff" d="M419.17,-129.34C637.25,-128.39 1192.02,-122.27 1266.5,-85 1286.25,-75.12 1301.63,-54.95 1311.42,-38.95"/>
<polygon fill="#63b8ff" stroke="#63b8ff" points="1314.55,-40.54 1316.52,-30.13 1308.49,-37.03 1314.55,-40.54"/>
</a>
</g>
</g>
<!-- Node5 -->
<g id="Node000005" class="node">
<title>Node5</title>
<g id="a_Node000005"><a xlink:title=" ">
<polygon fill="#e0e0e0" stroke="#999999" points="65,-85 0,-85 0,-66 65,-66 65,-85"/>
<text text-anchor="middle" x="32.5" y="-73" font-family="Helvetica,sans-Serif" font-size="10.00">functional</text>
</a>
</g>
</g>
<!-- Node2&#45;&gt;Node5 -->
<g id="edge4_Node000002_Node000005" class="edge">
<title>Node2&#45;&gt;Node5</title>
<g id="a_edge4_Node000002_Node000005"><a xlink:title=" ">
<path fill="none" stroke="#63b8ff" d="M282.71,-120.95C231.94,-112.03 150.13,-97.62 79.5,-85 78.05,-84.74 76.57,-84.48 75.07,-84.21"/>
<polygon fill="#63b8ff" stroke="#63b8ff" points="75.57,-80.74 65.11,-82.42 74.34,-87.63 75.57,-80.74"/>
</a>
</g>
</g>
<!-- Node6 -->
<g id="Node000006" class="node">
<title>Node6</title>
<g id="a_Node000006"><a xlink:title=" ">
<polygon fill="#e0e0e0" stroke="#999999" points="246.5,-24.5 208.5,-24.5 208.5,-5.5 246.5,-5.5 246.5,-24.5"/>
<text text-anchor="middle" x="227.5" y="-12.5" font-family="Helvetica,sans-Serif" font-size="10.00">map</text>
</a>
</g>
</g>
<!-- Node2&#45;&gt;Node6 -->
<g id="edge5_Node000002_Node000006" class="edge">
<title>Node2&#45;&gt;Node6</title>
<g id="a_edge5_Node000002_Node000006"><a xlink:title=" ">
<path fill="none" stroke="#63b8ff" d="M245.87,-120.98C198.77,-114.33 147,-103.1 132.5,-85 110.17,-57.13 162.9,-35.09 198.41,-23.95"/>
<polygon fill="#63b8ff" stroke="#63b8ff" points="199.76,-27.2 208.34,-20.98 197.75,-20.5 199.76,-27.2"/>
</a>
</g>
</g>
<!-- Node7 -->
<g id="Node000007" class="node">
<title>Node7</title>
<g id="a_Node000007"><a xlink:title=" ">
<polygon fill="#e0e0e0" stroke="#999999" points="322.5,-24.5 264.5,-24.5 264.5,-5.5 322.5,-5.5 322.5,-24.5"/>
<text text-anchor="middle" x="293.5" y="-12.5" font-family="Helvetica,sans-Serif" font-size="10.00">memory</text>
</a>
</g>
</g>
<!-- Node2&#45;&gt;Node7 -->
<g id="edge6_Node000002_Node000007" class="edge">
<title>Node2&#45;&gt;Node7</title>
<g id="a_edge6_Node000002_Node000007"><a xlink:title=" ">
<path fill="none" stroke="#63b8ff" d="M259.88,-120.98C215.42,-114.05 164.23,-102.51 150.5,-85 104.53,-26.36 134.92,-72.88 255.5,-30 257.34,-29.35 259.22,-28.67 261.13,-27.98"/>
<polygon fill="#63b8ff" stroke="#63b8ff" points="262.42,-31.24 270.62,-24.52 260.03,-24.66 262.42,-31.24"/>
</a>
</g>
</g>
<!-- Node8 -->
<g id="Node000008" class="node">
<title>Node8</title>
<g id="a_Node000008"><a xlink:title=" ">
<polygon fill="#e0e0e0" stroke="#999999" points="1089,-24.5 1042,-24.5 1042,-5.5 1089,-5.5 1089,-24.5"/>
<text text-anchor="middle" x="1065.5" y="-12.5" font-family="Helvetica,sans-Serif" font-size="10.00">vector</text>
</a>
</g>
</g>
<!-- Node2&#45;&gt;Node8 -->
<g id="edge7_Node000002_Node000008" class="edge">
<title>Node2&#45;&gt;Node8</title>
<g id="a_edge7_Node000002_Node000008"><a xlink:title=" ">
<path fill="none" stroke="#63b8ff" d="M366.2,-120.98C402.64,-112.03 461.6,-97.54 512.5,-85 546.73,-76.57 554.78,-72.08 589.5,-66 753.66,-37.26 952.77,-22.86 1031.3,-17.98"/>
<polygon fill="#63b8ff" stroke="#63b8ff" points="1031.8,-21.45 1041.57,-17.35 1031.37,-14.47 1031.8,-21.45"/>
</a>
</g>
</g>
<!-- Node9 -->
<g id="Node000009" class="node">
<title>Node9</title>
<g id="a_Node000009"><a xlink:href="DirektDescriptors_8h.html" target="_top" xlink:title=" ">
<polygon fill="white" stroke="#666666" points="503,-85 360,-85 360,-66 503,-66 503,-85"/>
<text text-anchor="middle" x="431.5" y="-73" font-family="Helvetica,sans-Serif" font-size="10.00">config/DirektDescriptors.h</text>
</a>
</g>
</g>
<!-- Node2&#45;&gt;Node9 -->
<g id="edge8_Node000002_Node000009" class="edge">
<title>Node2&#45;&gt;Node9</title>
<g id="a_edge8_Node000002_Node000009"><a xlink:title=" ">
<path fill="none" stroke="#63b8ff" d="M347.57,-120.98C363.36,-112.61 387.72,-99.7 406.13,-89.95"/>
<polygon fill="#63b8ff" stroke="#63b8ff" points="407.94,-92.95 415.14,-85.17 404.67,-86.76 407.94,-92.95"/>
</a>
</g>
</g>
<!-- Node11 -->
<g id="Node000011" class="node">
<title>Node11</title>
<g id="a_Node000011"><a xlink:href="DirektBuildContext_8h.html" target="_top" xlink:title=" ">
<polygon fill="white" stroke="#666666" points="303,-85 160,-85 160,-66 303,-66 303,-85"/>
<text text-anchor="middle" x="231.5" y="-73" font-family="Helvetica,sans-Serif" font-size="10.00">core/DirektBuildContext.h</text>
</a>
</g>
</g>
<!-- Node2&#45;&gt;Node11 -->
<g id="edge14_Node000002_Node000011" class="edge">
<title>Node2&#45;&gt;Node11</title>
<g id="a_edge14_Node000002_Node000011"><a xlink:title=" ">
<path fill="none" stroke="#63b8ff" d="M315.43,-120.98C299.64,-112.61 275.28,-99.7 256.87,-89.95"/>
<polygon fill="#63b8ff" stroke="#63b8ff" points="258.33,-86.76 247.86,-85.17 255.06,-92.95 258.33,-86.76"/>
</a>
</g>
</g>
<!-- Node9&#45;&gt;Node4 -->
<g id="edge9_Node000009_Node000004" class="edge">
<title>Node9&#45;&gt;Node4</title>
<g id="a_edge9_Node000009_Node000004"><a xlink:title=" ">
<path fill="none" stroke="#63b8ff" d="M503.36,-69.79C671.89,-58.73 1090.69,-31.27 1255.41,-20.47"/>
<polygon fill="#63b8ff" stroke="#63b8ff" points="1255.67,-23.96 1265.42,-19.81 1255.21,-16.97 1255.67,-23.96"/>
</a>
</g>
</g>
<!-- Node9&#45;&gt;Node6 -->
<g id="edge10_Node000009_Node000006" class="edge">
<title>Node9&#45;&gt;Node6</title>
<g id="a_edge10_Node000009_Node000006"><a xlink:title=" ">
<path fill="none" stroke="#63b8ff" d="M386.57,-65.94C350.52,-58.41 298.93,-46.13 255.5,-30 254.48,-29.62 253.45,-29.22 252.42,-28.79"/>
<polygon fill="#63b8ff" stroke="#63b8ff" points="253.78,-25.57 243.23,-24.61 250.88,-31.94 253.78,-25.57"/>
</a>
</g>
</g>
<!-- Node9&#45;&gt;Node7 -->
<g id="edge11_Node000009_Node000007" class="edge">
<title>Node9&#45;&gt;Node7</title>
<g id="a_edge11_Node000009_Node000007"><a xlink:title=" ">
<path fill="none" stroke="#63b8ff" d="M411.43,-65.99C388.13,-56.12 349.49,-39.73 322.82,-28.43"/>
<polygon fill="#63b8ff" stroke="#63b8ff" points="324.16,-25.2 313.59,-24.52 321.43,-31.64 324.16,-25.2"/>
</a>
</g>
</g>
<!-- Node9&#45;&gt;Node8 -->
<g id="edge13_Node000009_Node000008" class="edge">
<title>Node9&#45;&gt;Node8</title>
<g id="a_edge13_Node000009_Node000008"><a xlink:title=" ">
<path fill="none" stroke="#63b8ff" d="M503.3,-67.87C640,-55.26 932.82,-28.24 1031.92,-19.1"/>
<polygon fill="#63b8ff" stroke="#63b8ff" points="1032.33,-22.58 1041.96,-18.17 1031.68,-15.61 1032.33,-22.58"/>
</a>
</g>
</g>
<!-- Node10 -->
<g id="Node000010" class="node">
<title>Node10</title>
<g id="a_Node000010"><a xlink:title=" ">
<polygon fill="#e0e0e0" stroke="#999999" points="460,-24.5 409,-24.5 409,-5.5 460,-5.5 460,-24.5"/>
<text text-anchor="middle" x="434.5" y="-12.5" font-family="Helvetica,sans-Serif" font-size="10.00">variant</text>
</a>
</g>
</g>
<!-- Node9&#45;&gt;Node10 -->
<g id="edge12_Node000009_Node000010" class="edge">
<title>Node9&#45;&gt;Node10</title>
<g id="a_edge12_Node000009_Node000010"><a xlink:title=" ">
<path fill="none" stroke="#63b8ff" d="M431.94,-65.87C432.36,-57.75 433,-45.31 433.53,-34.89"/>
<polygon fill="#63b8ff" stroke="#63b8ff" points="437.04,-34.83 434.06,-24.67 430.05,-34.47 437.04,-34.83"/>
</a>
</g>
</g>
<!-- Node11&#45;&gt;Node3 -->
<g id="edge15_Node000011_Node000003" class="edge">
<title>Node11&#45;&gt;Node3</title>
<g id="a_edge15_Node000011_Node000003"><a xlink:title=" ">
<path fill="none" stroke="#63b8ff" d="M303.12,-66.43C399.5,-55.56 570.41,-36.3 670.77,-24.99"/>
<polygon fill="#63b8ff" stroke="#63b8ff" points="671.31,-28.45 680.86,-23.85 670.53,-21.49 671.31,-28.45"/>
</a>
</g>
</g>
<!-- Node11&#45;&gt;Node6 -->
<g id="edge17_Node000011_Node000006" class="edge">
<title>Node11&#45;&gt;Node6</title>
<g id="a_edge17_Node000011_Node000006"><a xlink:title=" ">
<path fill="none" stroke="#63b8ff" d="M230.91,-65.87C230.35,-57.75 229.5,-45.31 228.79,-34.89"/>
<polygon fill="#63b8ff" stroke="#63b8ff" points="232.27,-34.41 228.09,-24.67 225.28,-34.88 232.27,-34.41"/>
</a>
</g>
</g>
<!-- Node12 -->
<g id="Node000012" class="node">
<title>Node12</title>
<g id="a_Node000012"><a xlink:title=" ">
<polygon fill="#e0e0e0" stroke="#999999" points="390.5,-24.5 340.5,-24.5 340.5,-5.5 390.5,-5.5 390.5,-24.5"/>
<text text-anchor="middle" x="365.5" y="-12.5" font-family="Helvetica,sans-Serif" font-size="10.00">atomic</text>
</a>
</g>
</g>
<!-- Node11&#45;&gt;Node12 -->
<g id="edge16_Node000011_Node000012" class="edge">
<title>Node11&#45;&gt;Node12</title>
<g id="a_edge16_Node000011_Node000012"><a xlink:title=" ">
<path fill="none" stroke="#63b8ff" d="M250.98,-65.99C273.51,-56.16 310.81,-39.88 336.69,-28.58"/>
<polygon fill="#63b8ff" stroke="#63b8ff" points="338.23,-31.73 345.99,-24.52 335.43,-25.31 338.23,-31.73"/>
</a>
</g>
</g>
<!-- Node13&#45;&gt;Node3 -->
<g id="edge19_Node000013_Node000003" class="edge">
<title>Node13&#45;&gt;Node3</title>
<g id="a_edge19_Node000013_Node000003"><a xlink:title=" ">
<path fill="none" stroke="#63b8ff" d="M684.86,-65.87C695.12,-58.08 710.6,-46.32 723.95,-36.17"/>
<polygon fill="#63b8ff" stroke="#63b8ff" points="726.08,-38.95 731.92,-30.11 721.84,-33.38 726.08,-38.95"/>
</a>
</g>
</g>
<!-- Node13&#45;&gt;Node4 -->
<g id="edge20_Node000013_Node000004" class="edge">
<title>Node13&#45;&gt;Node4</title>
<g id="a_edge20_Node000013_Node000004"><a xlink:title=" ">
<path fill="none" stroke="#63b8ff" d="M749.04,-66.9C752.24,-66.59 755.4,-66.29 758.5,-66 937.59,-49.12 1148.77,-30.87 1255.06,-21.8"/>
<polygon fill="#63b8ff" stroke="#63b8ff" points="1255.66,-25.26 1265.33,-20.93 1255.06,-18.29 1255.66,-25.26"/>
</a>
</g>
</g>
<!-- Node14&#45;&gt;Node3 -->
<g id="edge22_Node000014_Node000003" class="edge">
<title>Node14&#45;&gt;Node3</title>
<g id="a_edge22_Node000014_Node000003"><a xlink:title=" ">
<path fill="none" stroke="#63b8ff" d="M816.99,-65.87C806.6,-58.08 790.92,-46.32 777.4,-36.17"/>
<polygon fill="#63b8ff" stroke="#63b8ff" points="779.42,-33.31 769.32,-30.11 775.22,-38.91 779.42,-33.31"/>
</a>
</g>
</g>
<!-- Node14&#45;&gt;Node4 -->
<g id="edge23_Node000014_Node000004" class="edge">
<title>Node14&#45;&gt;Node4</title>
<g id="a_edge23_Node000014_Node000004"><a xlink:title=" ">
<path fill="none" stroke="#63b8ff" d="M889.69,-67.17C893.01,-66.77 896.29,-66.38 899.5,-66 1024.92,-51.1 1171.22,-33.88 1255.04,-24.04"/>
<polygon fill="#63b8ff" stroke="#63b8ff" points="1255.68,-27.48 1265.2,-22.84 1254.86,-20.53 1255.68,-27.48"/>
</a>
</g>
</g>
<!-- Node15&#45;&gt;Node3 -->
<g id="edge25_Node000015_Node000003" class="edge">
<title>Node15&#45;&gt;Node3</title>
<g id="a_edge25_Node000015_Node000003"><a xlink:title=" ">
<path fill="none" stroke="#63b8ff" d="M1113.7,-65.99C1038.78,-55.68 912.37,-38.28 830.19,-26.97"/>
<polygon fill="#63b8ff" stroke="#63b8ff" points="830.53,-23.48 820.15,-25.59 829.58,-30.42 830.53,-23.48"/>
</a>
</g>
</g>
<!-- Node15&#45;&gt;Node4 -->
<g id="edge26_Node000015_Node000004" class="edge">
<title>Node15&#45;&gt;Node4</title>
<g id="a_edge26_Node000015_Node000004"><a xlink:title=" ">
<path fill="none" stroke="#63b8ff" d="M1197.02,-65.99C1218.23,-57.61 1251.28,-44.55 1278.28,-33.87"/>
<polygon fill="#63b8ff" stroke="#63b8ff" points="1279.91,-37 1287.92,-30.06 1277.33,-30.49 1279.91,-37"/>
</a>
</g>
</g>
<!-- Node15&#45;&gt;Node8 -->
<g id="edge27_Node000015_Node000008" class="edge">
<title>Node15&#45;&gt;Node8</title>
<g id="a_edge27_Node000015_Node000008"><a xlink:title=" ">
<path fill="none" stroke="#63b8ff" d="M1159.27,-65.87C1141.23,-56.28 1111.88,-40.67 1090.82,-29.47"/>
<polygon fill="#63b8ff" stroke="#63b8ff" points="1092.27,-26.27 1081.8,-24.67 1088.98,-32.45 1092.27,-26.27"/>
</a>
</g>
</g>
<!-- Node16&#45;&gt;Node3 -->
<g id="edge29_Node000016_Node000003" class="edge">
<title>Node16&#45;&gt;Node3</title>
<g id="a_edge29_Node000016_Node000003"><a xlink:title=" ">
<path fill="none" stroke="#63b8ff" d="M940.22,-65.99C907.15,-57.28 854.89,-43.51 813.58,-32.62"/>
<polygon fill="#63b8ff" stroke="#63b8ff" points="814.43,-29.23 803.87,-30.06 812.65,-36 814.43,-29.23"/>
</a>
</g>
</g>
<!-- Node16&#45;&gt;Node4 -->
<g id="edge30_Node000016_Node000004" class="edge">
<title>Node16&#45;&gt;Node4</title>
<g id="a_edge30_Node000016_Node000004"><a xlink:title=" ">
<path fill="none" stroke="#63b8ff" d="M1023.54,-65.99C1084.67,-55.81 1187.3,-38.7 1255.21,-27.38"/>
<polygon fill="#63b8ff" stroke="#63b8ff" points="1256.09,-30.78 1265.38,-25.69 1254.94,-23.88 1256.09,-30.78"/>
</a>
</g>
</g>
<!-- Node17&#45;&gt;Node4 -->
<g id="edge32_Node000017_Node000004" class="edge">
<title>Node17&#45;&gt;Node4</title>
<g id="a_edge32_Node000017_Node000004"><a xlink:title=" ">
<path fill="none" stroke="#63b8ff" d="M1807.26,-120.88C1777.44,-107.16 1716.11,-80.42 1661.5,-66 1569.85,-41.8 1460.92,-28.33 1391.99,-21.62"/>
<polygon fill="#63b8ff" stroke="#63b8ff" points="1391.99,-18.11 1381.7,-20.64 1391.33,-25.08 1391.99,-18.11"/>
</a>
</g>
</g>
<!-- Node17&#45;&gt;Node18 -->
<g id="edge33_Node000017_Node000018" class="edge">
<title>Node17&#45;&gt;Node18</title>
<g id="a_edge33_Node000017_Node000018"><a xlink:title=" ">
<path fill="none" stroke="#63b8ff" d="M1784.05,-120.98C1739.23,-111.78 1667.73,-97.09 1619.25,-87.13"/>
<polygon fill="#63b8ff" stroke="#63b8ff" points="1619.78,-83.67 1609.28,-85.08 1618.37,-90.52 1619.78,-83.67"/>
</a>
</g>
</g>
<!-- Node18&#45;&gt;Node4 -->
<g id="edge34_Node000018_Node000004" class="edge">
<title>Node18&#45;&gt;Node4</title>
<g id="a_edge34_Node000018_Node000004"><a xlink:title=" ">
<path fill="none" stroke="#63b8ff" d="M1532.02,-65.99C1495.33,-57.2 1437.11,-43.24 1391.51,-32.31"/>
<polygon fill="#63b8ff" stroke="#63b8ff" points="1392.23,-28.88 1381.69,-29.95 1390.6,-35.69 1392.23,-28.88"/>
</a>
</g>
</g>
<!-- Node19&#45;&gt;Node4 -->
<g id="edge36_Node000019_Node000004" class="edge">
<title>Node19&#45;&gt;Node4</title>
<g id="a_edge36_Node000019_Node000004"><a xlink:title=" ">
<path fill="none" stroke="#63b8ff" d="M1237.85,-120.94C1276.99,-113.44 1325.34,-101.21 1337.5,-85 1347.28,-71.97 1343.08,-53.81 1336.81,-39.39"/>
<polygon fill="#63b8ff" stroke="#63b8ff" points="1339.82,-37.57 1332.29,-30.12 1333.53,-40.64 1339.82,-37.57"/>
</a>
</g>
</g>
<!-- Node19&#45;&gt;Node12 -->
<g id="edge37_Node000019_Node000012" class="edge">
<title>Node19&#45;&gt;Node12</title>
<g id="a_edge37_Node000019_Node000012"><a xlink:title=" ">
<path fill="none" stroke="#63b8ff" d="M1123.39,-124.64C1108.08,-123.44 1091.69,-122.16 1076.5,-121 860.09,-104.49 803.09,-123.53 589.5,-85 546.45,-77.23 441.86,-44.25 400.5,-30 398.88,-29.44 397.23,-28.85 395.57,-28.24"/>
<polygon fill="#63b8ff" stroke="#63b8ff" points="396.69,-24.93 386.1,-24.63 394.2,-31.47 396.69,-24.93"/>
</a>
</g>
</g>
<!-- Node19&#45;&gt;Node18 -->
<g id="edge38_Node000019_Node000018" class="edge">
<title>Node19&#45;&gt;Node18</title>
<g id="a_edge38_Node000019_Node000018"><a xlink:title=" ">
<path fill="none" stroke="#63b8ff" d="M1245.61,-121.04C1313.79,-111.61 1423.95,-96.36 1496.06,-86.39"/>
<polygon fill="#63b8ff" stroke="#63b8ff" points="1496.55,-89.85 1505.97,-85.01 1495.59,-82.92 1496.55,-89.85"/>
</a>
</g>
</g>
<!-- Node20&#45;&gt;Node4 -->
<g id="edge40_Node000020_Node000004" class="edge">
<title>Node20&#45;&gt;Node4</title>
<g id="a_edge40_Node000020_Node000004"><a xlink:title=" ">
<path fill="none" stroke="#63b8ff" d="M1067.21,-122.5C1153.41,-114.18 1281.82,-99.57 1299.5,-85 1312.73,-74.1 1318.68,-55.47 1321.35,-40.31"/>
<polygon fill="#63b8ff" stroke="#63b8ff" points="1324.87,-40.44 1322.77,-30.05 1317.93,-39.48 1324.87,-40.44"/>
</a>
</g>
</g>
<!-- Node20&#45;&gt;Node8 -->
<g id="edge41_Node000020_Node000008" class="edge">
<title>Node20&#45;&gt;Node8</title>
<g id="a_edge41_Node000020_Node000008"><a xlink:title=" ">
<path fill="none" stroke="#63b8ff" d="M1004.89,-120.9C1018.02,-113.19 1035.94,-100.69 1046.5,-85 1056.67,-69.89 1061.43,-49.45 1063.63,-34.75"/>
<polygon fill="#63b8ff" stroke="#63b8ff" points="1067.11,-35.16 1064.87,-24.8 1060.16,-34.3 1067.11,-35.16"/>
</a>
</g>
</g>
<!-- Node20&#45;&gt;Node9 -->
<g id="edge42_Node000020_Node000009" class="edge">
<title>Node20&#45;&gt;Node9</title>
<g id="a_edge42_Node000020_Node000009"><a xlink:title=" ">
<path fill="none" stroke="#63b8ff" d="M909.74,-122.16C816.2,-113.43 655.46,-98.33 517.5,-85 516.2,-84.87 514.88,-84.75 513.56,-84.62"/>
<polygon fill="#63b8ff" stroke="#63b8ff" points="513.59,-81.1 503.29,-83.62 512.91,-88.07 513.59,-81.1"/>
</a>
</g>
</g>
<!-- Node21&#45;&gt;Node4 -->
<g id="edge44_Node000021_Node000004" class="edge">
<title>Node21&#45;&gt;Node4</title>
<g id="a_edge44_Node000021_Node000004"><a xlink:title=" ">
<path fill="none" stroke="#63b8ff" d="M1471.67,-120.63C1464.03,-107.28 1447.99,-81.89 1428.5,-66 1412.31,-52.8 1392.05,-42.1 1373.67,-34.04"/>
<polygon fill="#63b8ff" stroke="#63b8ff" points="1374.82,-30.73 1364.25,-30.07 1372.1,-37.18 1374.82,-30.73"/>
</a>
</g>
</g>
<!-- Node21&#45;&gt;Node18 -->
<g id="edge45_Node000021_Node000018" class="edge">
<title>Node21&#45;&gt;Node18</title>
<g id="a_edge45_Node000021_Node000018"><a xlink:title=" ">
<path fill="none" stroke="#63b8ff" d="M1491.12,-120.98C1505.36,-112.69 1527.25,-99.94 1543.95,-90.22"/>
<polygon fill="#63b8ff" stroke="#63b8ff" points="1545.73,-93.23 1552.61,-85.17 1542.21,-87.18 1545.73,-93.23"/>
</a>
</g>
</g>
<!-- Node22&#45;&gt;Node4 -->
<g id="edge47_Node000022_Node000004" class="edge">
<title>Node22&#45;&gt;Node4</title>
<g id="a_edge47_Node000022_Node000004"><a xlink:title=" ">
<path fill="none" stroke="#63b8ff" d="M1359.6,-120.99C1389.48,-110.86 1428.8,-92 1413.5,-66 1405.47,-52.35 1392.22,-42.16 1378.32,-34.67"/>
<polygon fill="#63b8ff" stroke="#63b8ff" points="1379.66,-31.43 1369.15,-30.13 1376.55,-37.7 1379.66,-31.43"/>
</a>
</g>
</g>
<!-- Node22&#45;&gt;Node8 -->
<g id="edge48_Node000022_Node000008" class="edge">
<title>Node22&#45;&gt;Node8</title>
<g id="a_edge48_Node000022_Node000008"><a xlink:title=" ">
<path fill="none" stroke="#63b8ff" d="M1323.25,-120.61C1313.02,-106.74 1291.35,-80.11 1266.5,-66 1212.86,-35.53 1140.84,-23.44 1099.17,-18.79"/>
<polygon fill="#63b8ff" stroke="#63b8ff" points="1099.31,-15.28 1089.01,-17.73 1098.59,-22.24 1099.31,-15.28"/>
</a>
</g>
</g>
<!-- Node22&#45;&gt;Node18 -->
<g id="edge49_Node000022_Node000018" class="edge">
<title>Node22&#45;&gt;Node18</title>
<g id="a_edge49_Node000022_Node000018"><a xlink:title=" ">
<path fill="none" stroke="#63b8ff" d="M1367.74,-120.98C1408.91,-111.82 1474.49,-97.21 1519.2,-87.26"/>
<polygon fill="#63b8ff" stroke="#63b8ff" points="1519.96,-90.67 1528.96,-85.08 1518.44,-83.84 1519.96,-90.67"/>
</a>
</g>
</g>
<!-- Node23&#45;&gt;Node4 -->
<g id="edge52_Node000023_Node000004" class="edge">
<title>Node23&#45;&gt;Node4</title>
<g id="a_edge52_Node000023_Node000004"><a xlink:title=" ">
<path fill="none" stroke="#63b8ff" d="M1669.93,-120.9C1666.9,-106.94 1658.85,-79.56 1640.5,-66 1602.1,-37.61 1472.99,-24.82 1391.87,-19.47"/>
<polygon fill="#63b8ff" stroke="#63b8ff" points="1391.94,-15.97 1381.74,-18.83 1391.49,-22.95 1391.94,-15.97"/>
</a>
</g>
</g>
<!-- Node23&#45;&gt;Node18 -->
<g id="edge53_Node000023_Node000018" class="edge">
<title>Node23&#45;&gt;Node18</title>
<g id="a_edge53_Node000023_Node000018"><a xlink:title=" ">
<path fill="none" stroke="#63b8ff" d="M1654.79,-120.98C1638.29,-112.57 1612.8,-99.59 1593.62,-89.81"/>
<polygon fill="#63b8ff" stroke="#63b8ff" points="1595.01,-86.59 1584.51,-85.17 1591.83,-92.83 1595.01,-86.59"/>
</a>
</g>
</g>
</g>
</svg>
