<?xml version="1.0" encoding="UTF-8" standalone="no"?>
<!DOCTYPE svg PUBLIC "-//W3C//DTD SVG 1.1//EN"
 "http://www.w3.org/Graphics/SVG/1.1/DTD/svg11.dtd">
<!-- Generated by graphviz version 2.43.0 (0)
 -->
<!-- Title: core/DirektBaseEditor.cpp Pages: 1 -->
<svg width="2820pt" height="324pt"
 viewBox="0.00 0.00 2819.66 324.00" xmlns="http://www.w3.org/2000/svg" xmlns:xlink="http://www.w3.org/1999/xlink">
<g id="graph0" class="graph" transform="scale(1 1) rotate(0) translate(4 320)">
<title>core/DirektBaseEditor.cpp</title>
<!-- Node1 -->
<g id="Node000001" class="node">
<title>Node1</title>
<g id="a_Node000001"><a xlink:title=" ">
<polygon fill="#999999" stroke="#666666" points="2629.72,-316 2486.72,-316 2486.72,-297 2629.72,-297 2629.72,-316"/>
<text text-anchor="middle" x="2558.22" y="-304" font-family="Helvetica,sans-Serif" font-size="10.00">core/DirektBaseEditor.cpp</text>
</a>
</g>
</g>
<!-- Node2 -->
<g id="Node000002" class="node">
<title>Node2</title>
<g id="a_Node000002"><a xlink:href="DirektBaseEditor_8h.html" target="_top" xlink:title=" ">
<polygon fill="white" stroke="#666666" points="1461.72,-261 1330.72,-261 1330.72,-242 1461.72,-242 1461.72,-261"/>
<text text-anchor="middle" x="1396.22" y="-249" font-family="Helvetica,sans-Serif" font-size="10.00">core/DirektBaseEditor.h</text>
</a>
</g>
</g>
<!-- Node1&#45;&gt;Node2 -->
<g id="edge1_Node000001_Node000002" class="edge">
<title>Node1&#45;&gt;Node2</title>
<g id="a_edge1_Node000001_Node000002"><a xlink:title=" ">
<path fill="none" stroke="#63b8ff" d="M2486.41,-302.22C2279.51,-292.79 1683.4,-265.6 1471.83,-255.95"/>
<polygon fill="#63b8ff" stroke="#63b8ff" points="1471.89,-252.45 1461.74,-255.49 1471.57,-259.44 1471.89,-252.45"/>
</a>
</g>
</g>
<!-- Node29 -->
<g id="Node000029" class="node">
<title>Node29</title>
<g id="a_Node000029"><a xlink:href="DirektClipIndicator_8h.html" target="_top" xlink:title=" ">
<polygon fill="white" stroke="#666666" points="2794.72,-151 2639.72,-151 2639.72,-132 2794.72,-132 2794.72,-151"/>
<text text-anchor="middle" x="2717.22" y="-139" font-family="Helvetica,sans-Serif" font-size="10.00">display/DirektClipIndicator.h</text>
</a>
</g>
</g>
<!-- Node1&#45;&gt;Node29 -->
<g id="edge69_Node000001_Node000029" class="edge">
<title>Node1&#45;&gt;Node29</title>
<g id="a_edge69_Node000001_Node000029"><a xlink:title=" ">
<path fill="none" stroke="#63b8ff" d="M2577.42,-296.81C2607.39,-282.27 2665.17,-250.21 2697.22,-206 2706.87,-192.69 2711.97,-174.58 2714.6,-161.1"/>
<polygon fill="#63b8ff" stroke="#63b8ff" points="2718.08,-161.52 2716.27,-151.08 2711.17,-160.37 2718.08,-161.52"/>
</a>
</g>
</g>
<!-- Node30 -->
<g id="Node000030" class="node">
<title>Node30</title>
<g id="a_Node000030"><a xlink:href="DirektMeter_8h.html" target="_top" xlink:title=" ">
<polygon fill="white" stroke="#666666" points="2583.22,-151 2461.22,-151 2461.22,-132 2583.22,-132 2583.22,-151"/>
<text text-anchor="middle" x="2522.22" y="-139" font-family="Helvetica,sans-Serif" font-size="10.00">display/DirektMeter.h</text>
</a>
</g>
</g>
<!-- Node1&#45;&gt;Node30 -->
<g id="edge73_Node000001_Node000030" class="edge">
<title>Node1&#45;&gt;Node30</title>
<g id="a_edge73_Node000001_Node000030"><a xlink:title=" ">
<path fill="none" stroke="#63b8ff" d="M2554.65,-296.9C2547.77,-279.89 2532.77,-240.59 2526.22,-206 2523.43,-191.21 2522.47,-174.17 2522.19,-161.47"/>
<polygon fill="#63b8ff" stroke="#63b8ff" points="2525.69,-161.18 2522.09,-151.21 2518.69,-161.25 2525.69,-161.18"/>
</a>
</g>
</g>
<!-- Node31 -->
<g id="Node000031" class="node">
<title>Node31</title>
<g id="a_Node000031"><a xlink:href="DirektStereoMeter_8h.html" target="_top" xlink:title=" ">
<polygon fill="white" stroke="#666666" points="2687.72,-206 2534.72,-206 2534.72,-187 2687.72,-187 2687.72,-206"/>
<text text-anchor="middle" x="2611.22" y="-194" font-family="Helvetica,sans-Serif" font-size="10.00">display/DirektStereoMeter.h</text>
</a>
</g>
</g>
<!-- Node1&#45;&gt;Node31 -->
<g id="edge77_Node000001_Node000031" class="edge">
<title>Node1&#45;&gt;Node31</title>
<g id="a_edge77_Node000001_Node000031"><a xlink:title=" ">
<path fill="none" stroke="#63b8ff" d="M2562.56,-296.66C2571.26,-278.93 2590.99,-238.73 2602.48,-215.32"/>
<polygon fill="#63b8ff" stroke="#63b8ff" points="2605.71,-216.68 2606.98,-206.16 2599.43,-213.59 2605.71,-216.68"/>
</a>
</g>
</g>
<!-- Node3 -->
<g id="Node000003" class="node">
<title>Node3</title>
<g id="a_Node000003"><a xlink:title=" ">
<polygon fill="#e0e0e0" stroke="#999999" points="619.72,-96 480.72,-96 480.72,-66 619.72,-66 619.72,-96"/>
<text text-anchor="start" x="488.72" y="-84" font-family="Helvetica,sans-Serif" font-size="10.00">juce_audio_processors</text>
<text text-anchor="middle" x="550.22" y="-73" font-family="Helvetica,sans-Serif" font-size="10.00">/juce_audio_processors.h</text>
</a>
</g>
</g>
<!-- Node2&#45;&gt;Node3 -->
<g id="edge2_Node000002_Node000003" class="edge">
<title>Node2&#45;&gt;Node3</title>
<g id="a_edge2_Node000002_Node000003"><a xlink:title=" ">
<path fill="none" stroke="#63b8ff" d="M1330.68,-247.83C1224.54,-242.96 1008.6,-230.76 827.22,-206 701.14,-188.79 627.11,-249.25 546.22,-151 536.1,-138.7 537.55,-120.6 541.3,-106.02"/>
<polygon fill="#63b8ff" stroke="#63b8ff" points="544.73,-106.75 544.3,-96.16 538.04,-104.71 544.73,-106.75"/>
</a>
</g>
</g>
<!-- Node4 -->
<g id="Node000004" class="node">
<title>Node4</title>
<g id="a_Node000004"><a xlink:title=" ">
<polygon fill="#e0e0e0" stroke="#999999" points="1708.22,-30 1592.22,-30 1592.22,0 1708.22,0 1708.22,-30"/>
<text text-anchor="start" x="1600.22" y="-18" font-family="Helvetica,sans-Serif" font-size="10.00">juce_gui_basics/juce</text>
<text text-anchor="middle" x="1650.22" y="-7" font-family="Helvetica,sans-Serif" font-size="10.00">_gui_basics.h</text>
</a>
</g>
</g>
<!-- Node2&#45;&gt;Node4 -->
<g id="edge3_Node000002_Node000004" class="edge">
<title>Node2&#45;&gt;Node4</title>
<g id="a_edge3_Node000002_Node000004"><a xlink:title=" ">
<path fill="none" stroke="#63b8ff" d="M1330.47,-250.49C1164.05,-249.88 712.85,-244.48 339.22,-206 187.98,-190.42 -35.69,-278.44 5.22,-132 14.45,-98.96 15.61,-83.3 45.22,-66 112.44,-26.75 1284.09,-17.93 1581.85,-16.32"/>
<polygon fill="#63b8ff" stroke="#63b8ff" points="1582.09,-19.82 1592.07,-16.26 1582.05,-12.82 1582.09,-19.82"/>
</a>
</g>
</g>
<!-- Node5 -->
<g id="Node000005" class="node">
<title>Node5</title>
<g id="a_Node000005"><a xlink:href="DirektFooter_8h.html" target="_top" xlink:title=" ">
<polygon fill="white" stroke="#666666" points="1888.72,-151 1763.72,-151 1763.72,-132 1888.72,-132 1888.72,-151"/>
<text text-anchor="middle" x="1826.22" y="-139" font-family="Helvetica,sans-Serif" font-size="10.00">chrome/DirektFooter.h</text>
</a>
</g>
</g>
<!-- Node2&#45;&gt;Node5 -->
<g id="edge4_Node000002_Node000005" class="edge">
<title>Node2&#45;&gt;Node5</title>
<g id="a_edge4_Node000002_Node000005"><a xlink:title=" ">
<path fill="none" stroke="#63b8ff" d="M1430.33,-241.94C1507.71,-222.5 1696.54,-175.07 1782.42,-153.5"/>
<polygon fill="#63b8ff" stroke="#63b8ff" points="1783.27,-156.9 1792.12,-151.07 1781.57,-150.11 1783.27,-156.9"/>
</a>
</g>
</g>
<!-- Node6 -->
<g id="Node000006" class="node">
<title>Node6</title>
<g id="a_Node000006"><a xlink:href="DirektColours_8h.html" target="_top" xlink:title=" ">
<polygon fill="white" stroke="#666666" points="2071.72,-90.5 1944.72,-90.5 1944.72,-71.5 2071.72,-71.5 2071.72,-90.5"/>
<text text-anchor="middle" x="2008.22" y="-78.5" font-family="Helvetica,sans-Serif" font-size="10.00">theme/DirektColours.h</text>
</a>
</g>
</g>
<!-- Node2&#45;&gt;Node6 -->
<g id="edge65_Node000002_Node000006" class="edge">
<title>Node2&#45;&gt;Node6</title>
<g id="a_edge65_Node000002_Node000006"><a xlink:title=" ">
<path fill="none" stroke="#63b8ff" d="M1461.8,-251.14C1615.19,-251.09 1990.33,-241.51 2068.22,-151 2084.77,-131.77 2057.29,-109.67 2034.29,-95.77"/>
<polygon fill="#63b8ff" stroke="#63b8ff" points="2035.89,-92.65 2025.48,-90.69 2032.4,-98.72 2035.89,-92.65"/>
</a>
</g>
</g>
<!-- Node7 -->
<g id="Node000007" class="node">
<title>Node7</title>
<g id="a_Node000007"><a xlink:href="DirektHeader_8h.html" target="_top" xlink:title=" ">
<polygon fill="white" stroke="#666666" points="1419.22,-151 1289.22,-151 1289.22,-132 1419.22,-132 1419.22,-151"/>
<text text-anchor="middle" x="1354.22" y="-139" font-family="Helvetica,sans-Serif" font-size="10.00">chrome/DirektHeader.h</text>
</a>
</g>
</g>
<!-- Node2&#45;&gt;Node7 -->
<g id="edge8_Node000002_Node000007" class="edge">
<title>Node2&#45;&gt;Node7</title>
<g id="a_edge8_Node000002_Node000007"><a xlink:title=" ">
<path fill="none" stroke="#63b8ff" d="M1392.79,-241.66C1385.92,-224.01 1370.4,-184.09 1361.28,-160.64"/>
<polygon fill="#63b8ff" stroke="#63b8ff" points="1364.48,-159.21 1357.59,-151.16 1357.95,-161.75 1364.48,-159.21"/>
</a>
</g>
</g>
<!-- Node9 -->
<g id="Node000009" class="node">
<title>Node9</title>
<g id="a_Node000009"><a xlink:href="DirektPopupPanel_8h.html" target="_top" xlink:title=" ">
<polygon fill="white" stroke="#666666" points="2059.22,-151 1907.22,-151 1907.22,-132 2059.22,-132 2059.22,-151"/>
<text text-anchor="middle" x="1983.22" y="-139" font-family="Helvetica,sans-Serif" font-size="10.00">chrome/DirektPopupPanel.h</text>
</a>
</g>
</g>
<!-- Node2&#45;&gt;Node9 -->
<g id="edge13_Node000002_Node000009" class="edge">
<title>Node2&#45;&gt;Node9</title>
<g id="a_edge13_Node000002_Node000009"><a xlink:title=" ">
<path fill="none" stroke="#63b8ff" d="M1442.78,-241.94C1549.38,-222.32 1810.91,-174.2 1926.6,-152.92"/>
<polygon fill="#63b8ff" stroke="#63b8ff" points="1927.47,-156.32 1936.67,-151.07 1926.2,-149.43 1927.47,-156.32"/>
</a>
</g>
</g>
<!-- Node10 -->
<g id="Node000010" class="node">
<title>Node10</title>
<g id="a_Node000010"><a xlink:href="DirektPresetBrowser_8h.html" target="_top" xlink:title=" ">
<polygon fill="white" stroke="#666666" points="1602.72,-151 1437.72,-151 1437.72,-132 1602.72,-132 1602.72,-151"/>
<text text-anchor="middle" x="1520.22" y="-139" font-family="Helvetica,sans-Serif" font-size="10.00">chrome/DirektPresetBrowser.h</text>
</a>
</g>
</g>
<!-- Node2&#45;&gt;Node10 -->
<g id="edge16_Node000002_Node000010" class="edge">
<title>Node2&#45;&gt;Node10</title>
<g id="a_edge16_Node000002_Node000010"><a xlink:title=" ">
<path fill="none" stroke="#63b8ff" d="M1406.37,-241.66C1427.46,-223.3 1476.24,-180.81 1502.58,-157.87"/>
<polygon fill="#63b8ff" stroke="#63b8ff" points="1505.04,-160.37 1510.28,-151.16 1500.44,-155.09 1505.04,-160.37"/>
</a>
</g>
</g>
<!-- Node12 -->
<g id="Node000012" class="node">
<title>Node12</title>
<g id="a_Node000012"><a xlink:href="DirektConfig_8h.html" target="_top" xlink:title=" ">
<polygon fill="white" stroke="#666666" points="2234.72,-151 2115.72,-151 2115.72,-132 2234.72,-132 2234.72,-151"/>
<text text-anchor="middle" x="2175.22" y="-139" font-family="Helvetica,sans-Serif" font-size="10.00">config/DirektConfig.h</text>
</a>
</g>
</g>
<!-- Node2&#45;&gt;Node12 -->
<g id="edge21_Node000002_Node000012" class="edge">
<title>Node2&#45;&gt;Node12</title>
<g id="a_edge21_Node000002_Node000012"><a xlink:title=" ">
<path fill="none" stroke="#63b8ff" d="M1461.78,-248.73C1625.44,-243.98 2042.96,-229.68 2101.22,-206 2126.1,-195.89 2148.56,-173.93 2162.05,-158.68"/>
<polygon fill="#63b8ff" stroke="#63b8ff" points="2164.75,-160.91 2168.58,-151.02 2159.43,-156.36 2164.75,-160.91"/>
</a>
</g>
</g>
<!-- Node13 -->
<g id="Node000013" class="node">
<title>Node13</title>
<g id="a_Node000013"><a xlink:href="DirektDescriptors_8h.html" target="_top" xlink:title=" ">
<polygon fill="white" stroke="#666666" points="994.72,-151 851.72,-151 851.72,-132 994.72,-132 994.72,-151"/>
<text text-anchor="middle" x="923.22" y="-139" font-family="Helvetica,sans-Serif" font-size="10.00">config/DirektDescriptors.h</text>
</a>
</g>
</g>
<!-- Node2&#45;&gt;Node13 -->
<g id="edge24_Node000002_Node000013" class="edge">
<title>Node2&#45;&gt;Node13</title>
<g id="a_edge24_Node000002_Node000013"><a xlink:title=" ">
<path fill="none" stroke="#63b8ff" d="M1330.33,-248.06C1211.65,-243.08 971.53,-230.13 942.22,-206 929.19,-195.26 924.85,-175.97 923.53,-161.45"/>
<polygon fill="#63b8ff" stroke="#63b8ff" points="927.01,-160.9 923,-151.1 920.02,-161.26 927.01,-160.9"/>
</a>
</g>
</g>
<!-- Node18 -->
<g id="Node000018" class="node">
<title>Node18</title>
<g id="a_Node000018"><a xlink:href="DirektAutoLayout_8h.html" target="_top" xlink:title=" ">
<polygon fill="white" stroke="#666666" points="483.72,-206 348.72,-206 348.72,-187 483.72,-187 483.72,-206"/>
<text text-anchor="middle" x="416.22" y="-194" font-family="Helvetica,sans-Serif" font-size="10.00">core/DirektAutoLayout.h</text>
</a>
</g>
</g>
<!-- Node2&#45;&gt;Node18 -->
<g id="edge30_Node000002_Node000018" class="edge">
<title>Node2&#45;&gt;Node18</title>
<g id="a_edge30_Node000002_Node000018"><a xlink:title=" ">
<path fill="none" stroke="#63b8ff" d="M1330.54,-248.02C1183.86,-242.31 818.53,-227.06 513.22,-206 506.97,-205.57 500.5,-205.08 493.99,-204.57"/>
<polygon fill="#63b8ff" stroke="#63b8ff" points="494.03,-201.06 483.78,-203.74 493.46,-208.04 494.03,-201.06"/>
</a>
</g>
</g>
<!-- Node23 -->
<g id="Node000023" class="node">
<title>Node23</title>
<g id="a_Node000023"><a xlink:href="DirektSection_8h.html" target="_top" xlink:title=" ">
<polygon fill="white" stroke="#666666" points="1745.72,-151 1620.72,-151 1620.72,-132 1745.72,-132 1745.72,-151"/>
<text text-anchor="middle" x="1683.22" y="-139" font-family="Helvetica,sans-Serif" font-size="10.00">layout/DirektSection.h</text>
</a>
</g>
</g>
<!-- Node2&#45;&gt;Node23 -->
<g id="edge64_Node000002_Node000023" class="edge">
<title>Node2&#45;&gt;Node23</title>
<g id="a_edge64_Node000002_Node000023"><a xlink:title=" ">
<path fill="none" stroke="#63b8ff" d="M1419.23,-241.84C1470.15,-222.68 1592.53,-176.63 1651.03,-154.62"/>
<polygon fill="#63b8ff" stroke="#63b8ff" points="1652.39,-157.84 1660.51,-151.05 1649.92,-151.29 1652.39,-157.84"/>
</a>
</g>
</g>
<!-- Node24 -->
<g id="Node000024" class="node">
<title>Node24</title>
<g id="a_Node000024"><a xlink:href="DirektBuildContext_8h.html" target="_top" xlink:title=" ">
<polygon fill="white" stroke="#666666" points="1270.72,-151 1127.72,-151 1127.72,-132 1270.72,-132 1270.72,-151"/>
<text text-anchor="middle" x="1199.22" y="-139" font-family="Helvetica,sans-Serif" font-size="10.00">core/DirektBuildContext.h</text>
</a>
</g>
</g>
<!-- Node2&#45;&gt;Node24 -->
<g id="edge48_Node000002_Node000024" class="edge">
<title>Node2&#45;&gt;Node24</title>
<g id="a_edge48_Node000002_Node000024"><a xlink:title=" ">
<path fill="none" stroke="#63b8ff" d="M1380.44,-241.84C1346.13,-223.04 1264.59,-178.33 1223.61,-155.87"/>
<polygon fill="#63b8ff" stroke="#63b8ff" points="1225.27,-152.79 1214.81,-151.05 1221.9,-158.92 1225.27,-152.79"/>
</a>
</g>
</g>
<!-- Node26 -->
<g id="Node000026" class="node">
<title>Node26</title>
<g id="a_Node000026"><a xlink:href="DirektComponentRegistry_8h.html" target="_top" xlink:title=" ">
<polygon fill="white" stroke="#666666" points="1126.72,-206 951.72,-206 951.72,-187 1126.72,-187 1126.72,-206"/>
<text text-anchor="middle" x="1039.22" y="-194" font-family="Helvetica,sans-Serif" font-size="10.00">core/DirektComponentRegistry.h</text>
</a>
</g>
</g>
<!-- Node2&#45;&gt;Node26 -->
<g id="edge52_Node000002_Node000026" class="edge">
<title>Node2&#45;&gt;Node26</title>
<g id="a_edge52_Node000002_Node000026"><a xlink:title=" ">
<path fill="none" stroke="#63b8ff" d="M1338.87,-241.98C1275.59,-232.59 1173.87,-217.49 1106.78,-207.53"/>
<polygon fill="#63b8ff" stroke="#63b8ff" points="1107.14,-204.04 1096.74,-206.04 1106.11,-210.97 1107.14,-204.04"/>
</a>
</g>
</g>
<!-- Node27 -->
<g id="Node000027" class="node">
<title>Node27</title>
<g id="a_Node000027"><a xlink:href="DirektParameterHistory_8h.html" target="_top" xlink:title=" ">
<polygon fill="white" stroke="#666666" points="719.22,-151 555.22,-151 555.22,-132 719.22,-132 719.22,-151"/>
<text text-anchor="middle" x="637.22" y="-139" font-family="Helvetica,sans-Serif" font-size="10.00">core/DirektParameterHistory.h</text>
</a>
</g>
</g>
<!-- Node2&#45;&gt;Node27 -->
<g id="edge61_Node000002_Node000027" class="edge">
<title>Node2&#45;&gt;Node27</title>
<g id="a_edge61_Node000002_Node000027"><a xlink:title=" ">
<path fill="none" stroke="#63b8ff" d="M1330.52,-246.81C1239.36,-241.13 1069.55,-228.45 926.22,-206 837.84,-192.16 735.95,-167.76 679.85,-153.58"/>
<polygon fill="#63b8ff" stroke="#63b8ff" points="680.47,-150.12 669.92,-151.05 678.75,-156.91 680.47,-150.12"/>
</a>
</g>
</g>
<!-- Node28 -->
<g id="Node000028" class="node">
<title>Node28</title>
<g id="a_Node000028"><a xlink:href="DirektLookAndFeel_8h.html" target="_top" xlink:title=" ">
<polygon fill="white" stroke="#666666" points="2405.22,-151 2253.22,-151 2253.22,-132 2405.22,-132 2405.22,-151"/>
<text text-anchor="middle" x="2329.22" y="-139" font-family="Helvetica,sans-Serif" font-size="10.00">theme/DirektLookAndFeel.h</text>
</a>
</g>
</g>
<!-- Node2&#45;&gt;Node28 -->
<g id="edge66_Node000002_Node000028" class="edge">
<title>Node2&#45;&gt;Node28</title>
<g id="a_edge66_Node000002_Node000028"><a xlink:title=" ">
<path fill="none" stroke="#63b8ff" d="M1461.97,-248.59C1617.07,-243.73 2002.24,-229.64 2129.22,-206 2190.87,-194.53 2260.03,-169.78 2298.73,-154.79"/>
<polygon fill="#63b8ff" stroke="#63b8ff" points="2300.32,-157.93 2308.35,-151.02 2297.77,-151.41 2300.32,-157.93"/>
</a>
</g>
</g>
<!-- Node5&#45;&gt;Node4 -->
<g id="edge5_Node000005_Node000004" class="edge">
<title>Node5&#45;&gt;Node4</title>
<g id="a_edge5_Node000005_Node000004"><a xlink:title=" ">
<path fill="none" stroke="#63b8ff" d="M1814.13,-131.94C1786.4,-112.33 1717.65,-63.7 1678.57,-36.05"/>
<polygon fill="#63b8ff" stroke="#63b8ff" points="1680.43,-33.08 1670.24,-30.16 1676.39,-38.79 1680.43,-33.08"/>
</a>
</g>
</g>
<!-- Node5&#45;&gt;Node6 -->
<g id="edge6_Node000005_Node000006" class="edge">
<title>Node5&#45;&gt;Node6</title>
<g id="a_edge6_Node000005_Node000006"><a xlink:title=" ">
<path fill="none" stroke="#63b8ff" d="M1852.69,-131.99C1884.09,-121.9 1936.63,-105.01 1971.84,-93.69"/>
<polygon fill="#63b8ff" stroke="#63b8ff" points="1973.28,-96.91 1981.73,-90.52 1971.14,-90.24 1973.28,-96.91"/>
</a>
</g>
</g>
<!-- Node6&#45;&gt;Node4 -->
<g id="edge7_Node000006_Node000004" class="edge">
<title>Node6&#45;&gt;Node4</title>
<g id="a_edge7_Node000006_Node000004"><a xlink:title=" ">
<path fill="none" stroke="#63b8ff" d="M1960.31,-71.44C1898.21,-60.33 1789.49,-40.9 1718.69,-28.24"/>
<polygon fill="#63b8ff" stroke="#63b8ff" points="1718.99,-24.74 1708.53,-26.42 1717.76,-31.63 1718.99,-24.74"/>
</a>
</g>
</g>
<!-- Node7&#45;&gt;Node3 -->
<g id="edge9_Node000007_Node000003" class="edge">
<title>Node7&#45;&gt;Node3</title>
<g id="a_edge9_Node000007_Node000003"><a xlink:title=" ">
<path fill="none" stroke="#63b8ff" d="M1289.2,-132.95C1285.83,-132.62 1282.49,-132.3 1279.22,-132 1043.58,-110.58 764.34,-93.83 630.11,-86.32"/>
<polygon fill="#63b8ff" stroke="#63b8ff" points="630.1,-82.81 619.92,-85.75 629.71,-89.8 630.1,-82.81"/>
</a>
</g>
</g>
<!-- Node7&#45;&gt;Node4 -->
<g id="edge10_Node000007_Node000004" class="edge">
<title>Node7&#45;&gt;Node4</title>
<g id="a_edge10_Node000007_Node000004"><a xlink:title=" ">
<path fill="none" stroke="#63b8ff" d="M1353.67,-131.89C1353.17,-116.29 1354.57,-83.38 1373.22,-66 1402.79,-38.46 1509.75,-25.64 1581.77,-20.01"/>
<polygon fill="#63b8ff" stroke="#63b8ff" points="1582.42,-23.47 1592.13,-19.23 1581.89,-16.49 1582.42,-23.47"/>
</a>
</g>
</g>
<!-- Node7&#45;&gt;Node6 -->
<g id="edge12_Node000007_Node000006" class="edge">
<title>Node7&#45;&gt;Node6</title>
<g id="a_edge12_Node000007_Node000006"><a xlink:title=" ">
<path fill="none" stroke="#63b8ff" d="M1419.58,-132.89C1422.5,-132.58 1425.39,-132.28 1428.22,-132 1610.09,-113.72 1824.47,-96.31 1934.65,-87.67"/>
<polygon fill="#63b8ff" stroke="#63b8ff" points="1934.96,-91.16 1944.66,-86.89 1934.42,-84.18 1934.96,-91.16"/>
</a>
</g>
</g>
<!-- Node8 -->
<g id="Node000008" class="node">
<title>Node8</title>
<g id="a_Node000008"><a xlink:title=" ">
<polygon fill="#e0e0e0" stroke="#999999" points="1447.72,-90.5 1382.72,-90.5 1382.72,-71.5 1447.72,-71.5 1447.72,-90.5"/>
<text text-anchor="middle" x="1415.22" y="-78.5" font-family="Helvetica,sans-Serif" font-size="10.00">functional</text>
</a>
</g>
</g>
<!-- Node7&#45;&gt;Node8 -->
<g id="edge11_Node000007_Node000008" class="edge">
<title>Node7&#45;&gt;Node8</title>
<g id="a_edge11_Node000007_Node000008"><a xlink:title=" ">
<path fill="none" stroke="#63b8ff" d="M1363.23,-131.87C1372.6,-122.88 1387.48,-108.61 1398.92,-97.64"/>
<polygon fill="#63b8ff" stroke="#63b8ff" points="1401.39,-100.12 1406.19,-90.67 1396.55,-95.06 1401.39,-100.12"/>
</a>
</g>
</g>
<!-- Node9&#45;&gt;Node4 -->
<g id="edge14_Node000009_Node000004" class="edge">
<title>Node9&#45;&gt;Node4</title>
<g id="a_edge14_Node000009_Node000004"><a xlink:title=" ">
<path fill="none" stroke="#63b8ff" d="M1960.34,-131.94C1906.26,-111.73 1769.73,-60.68 1697.2,-33.56"/>
<polygon fill="#63b8ff" stroke="#63b8ff" points="1698.42,-30.28 1687.83,-30.06 1695.97,-36.84 1698.42,-30.28"/>
</a>
</g>
</g>
<!-- Node9&#45;&gt;Node6 -->
<g id="edge15_Node000009_Node000006" class="edge">
<title>Node9&#45;&gt;Node6</title>
<g id="a_edge15_Node000009_Node000006"><a xlink:title=" ">
<path fill="none" stroke="#63b8ff" d="M1986.91,-131.87C1990.5,-123.49 1996.04,-110.51 2000.58,-99.89"/>
<polygon fill="#63b8ff" stroke="#63b8ff" points="2003.81,-101.24 2004.52,-90.67 1997.37,-98.49 2003.81,-101.24"/>
</a>
</g>
</g>
<!-- Node10&#45;&gt;Node4 -->
<g id="edge17_Node000010_Node000004" class="edge">
<title>Node10&#45;&gt;Node4</title>
<g id="a_edge17_Node000010_Node000004"><a xlink:title=" ">
<path fill="none" stroke="#63b8ff" d="M1530.83,-131.9C1541.51,-123.13 1558.35,-109 1572.22,-96 1592.54,-76.96 1614.59,-54.13 1630.05,-37.74"/>
<polygon fill="#63b8ff" stroke="#63b8ff" points="1632.78,-39.94 1637.07,-30.25 1627.67,-35.15 1632.78,-39.94"/>
</a>
</g>
</g>
<!-- Node10&#45;&gt;Node6 -->
<g id="edge20_Node000010_Node000006" class="edge">
<title>Node10&#45;&gt;Node6</title>
<g id="a_edge20_Node000010_Node000006"><a xlink:title=" ">
<path fill="none" stroke="#63b8ff" d="M1591.18,-131.99C1682.78,-121.01 1841.41,-102 1934.39,-90.85"/>
<polygon fill="#63b8ff" stroke="#63b8ff" points="1935.05,-94.3 1944.56,-89.63 1934.22,-87.35 1935.05,-94.3"/>
</a>
</g>
</g>
<!-- Node10&#45;&gt;Node8 -->
<g id="edge18_Node000010_Node000008" class="edge">
<title>Node10&#45;&gt;Node8</title>
<g id="a_edge18_Node000010_Node000008"><a xlink:title=" ">
<path fill="none" stroke="#63b8ff" d="M1504.73,-131.87C1487.59,-122.32 1459.75,-106.81 1439.67,-95.62"/>
<polygon fill="#63b8ff" stroke="#63b8ff" points="1441.22,-92.48 1430.78,-90.67 1437.81,-98.59 1441.22,-92.48"/>
</a>
</g>
</g>
<!-- Node11 -->
<g id="Node000011" class="node">
<title>Node11</title>
<g id="a_Node000011"><a xlink:title=" ">
<polygon fill="#e0e0e0" stroke="#999999" points="1563.22,-90.5 1477.22,-90.5 1477.22,-71.5 1563.22,-71.5 1563.22,-90.5"/>
<text text-anchor="middle" x="1520.22" y="-78.5" font-family="Helvetica,sans-Serif" font-size="10.00">unordered_set</text>
</a>
</g>
</g>
<!-- Node10&#45;&gt;Node11 -->
<g id="edge19_Node000010_Node000011" class="edge">
<title>Node10&#45;&gt;Node11</title>
<g id="a_edge19_Node000010_Node000011"><a xlink:title=" ">
<path fill="none" stroke="#63b8ff" d="M1520.22,-131.87C1520.22,-123.75 1520.22,-111.31 1520.22,-100.89"/>
<polygon fill="#63b8ff" stroke="#63b8ff" points="1523.72,-100.67 1520.22,-90.67 1516.72,-100.67 1523.72,-100.67"/>
</a>
</g>
</g>
<!-- Node12&#45;&gt;Node4 -->
<g id="edge22_Node000012_Node000004" class="edge">
<title>Node12&#45;&gt;Node4</title>
<g id="a_edge22_Node000012_Node000004"><a xlink:title=" ">
<path fill="none" stroke="#63b8ff" d="M2167.46,-131.73C2152.57,-115.56 2118.16,-81.31 2081.22,-66 2017.33,-39.52 1823.33,-25.3 1718.76,-19.38"/>
<polygon fill="#63b8ff" stroke="#63b8ff" points="1718.79,-15.88 1708.61,-18.82 1718.4,-22.87 1718.79,-15.88"/>
</a>
</g>
</g>
<!-- Node12&#45;&gt;Node6 -->
<g id="edge23_Node000012_Node000006" class="edge">
<title>Node12&#45;&gt;Node6</title>
<g id="a_edge23_Node000012_Node000006"><a xlink:title=" ">
<path fill="none" stroke="#63b8ff" d="M2150.94,-131.99C2122.25,-121.94 2074.33,-105.16 2042.02,-93.84"/>
<polygon fill="#63b8ff" stroke="#63b8ff" points="2043.13,-90.52 2032.54,-90.52 2040.82,-97.13 2043.13,-90.52"/>
</a>
</g>
</g>
<!-- Node13&#45;&gt;Node4 -->
<g id="edge25_Node000013_Node000004" class="edge">
<title>Node13&#45;&gt;Node4</title>
<g id="a_edge25_Node000013_Node000004"><a xlink:title=" ">
<path fill="none" stroke="#63b8ff" d="M920.16,-131.74C915.35,-116.19 908.21,-83.74 925.22,-66 970.07,-19.23 1409.79,-15.32 1581.78,-15.61"/>
<polygon fill="#63b8ff" stroke="#63b8ff" points="1581.97,-19.11 1591.97,-15.63 1581.98,-12.11 1581.97,-19.11"/>
</a>
</g>
</g>
<!-- Node14 -->
<g id="Node000014" class="node">
<title>Node14</title>
<g id="a_Node000014"><a xlink:title=" ">
<polygon fill="#e0e0e0" stroke="#999999" points="1042.22,-90.5 1004.22,-90.5 1004.22,-71.5 1042.22,-71.5 1042.22,-90.5"/>
<text text-anchor="middle" x="1023.22" y="-78.5" font-family="Helvetica,sans-Serif" font-size="10.00">map</text>
</a>
</g>
</g>
<!-- Node13&#45;&gt;Node14 -->
<g id="edge26_Node000013_Node000014" class="edge">
<title>Node13&#45;&gt;Node14</title>
<g id="a_edge26_Node000013_Node000014"><a xlink:title=" ">
<path fill="none" stroke="#63b8ff" d="M937.98,-131.87C954.23,-122.36 980.58,-106.95 999.69,-95.77"/>
<polygon fill="#63b8ff" stroke="#63b8ff" points="1001.54,-98.74 1008.41,-90.67 998.01,-92.7 1001.54,-98.74"/>
</a>
</g>
</g>
<!-- Node15 -->
<g id="Node000015" class="node">
<title>Node15</title>
<g id="a_Node000015"><a xlink:title=" ">
<polygon fill="#e0e0e0" stroke="#999999" points="1118.22,-90.5 1060.22,-90.5 1060.22,-71.5 1118.22,-71.5 1118.22,-90.5"/>
<text text-anchor="middle" x="1089.22" y="-78.5" font-family="Helvetica,sans-Serif" font-size="10.00">memory</text>
</a>
</g>
</g>
<!-- Node13&#45;&gt;Node15 -->
<g id="edge27_Node000013_Node000015" class="edge">
<title>Node13&#45;&gt;Node15</title>
<g id="a_edge27_Node000013_Node000015"><a xlink:title=" ">
<path fill="none" stroke="#63b8ff" d="M948.29,-131.94C974.13,-123.08 1015.56,-108.77 1051.22,-96 1053.06,-95.34 1054.95,-94.66 1056.85,-93.97"/>
<polygon fill="#63b8ff" stroke="#63b8ff" points="1058.15,-97.23 1066.34,-90.51 1055.75,-90.65 1058.15,-97.23"/>
</a>
</g>
</g>
<!-- Node16 -->
<g id="Node000016" class="node">
<title>Node16</title>
<g id="a_Node000016"><a xlink:title=" ">
<polygon fill="#e0e0e0" stroke="#999999" points="985.72,-90.5 934.72,-90.5 934.72,-71.5 985.72,-71.5 985.72,-90.5"/>
<text text-anchor="middle" x="960.22" y="-78.5" font-family="Helvetica,sans-Serif" font-size="10.00">variant</text>
</a>
</g>
</g>
<!-- Node13&#45;&gt;Node16 -->
<g id="edge28_Node000013_Node000016" class="edge">
<title>Node13&#45;&gt;Node16</title>
<g id="a_edge28_Node000013_Node000016"><a xlink:title=" ">
<path fill="none" stroke="#63b8ff" d="M928.68,-131.87C934.09,-123.31 942.53,-109.97 949.32,-99.24"/>
<polygon fill="#63b8ff" stroke="#63b8ff" points="952.36,-100.99 954.74,-90.67 946.44,-97.25 952.36,-100.99"/>
</a>
</g>
</g>
<!-- Node17 -->
<g id="Node000017" class="node">
<title>Node17</title>
<g id="a_Node000017"><a xlink:title=" ">
<polygon fill="#e0e0e0" stroke="#999999" points="860.72,-90.5 813.72,-90.5 813.72,-71.5 860.72,-71.5 860.72,-90.5"/>
<text text-anchor="middle" x="837.22" y="-78.5" font-family="Helvetica,sans-Serif" font-size="10.00">vector</text>
</a>
</g>
</g>
<!-- Node13&#45;&gt;Node17 -->
<g id="edge29_Node000013_Node000017" class="edge">
<title>Node13&#45;&gt;Node17</title>
<g id="a_edge29_Node000013_Node000017"><a xlink:title=" ">
<path fill="none" stroke="#63b8ff" d="M910.54,-131.87C896.82,-122.54 874.72,-107.51 858.37,-96.38"/>
<polygon fill="#63b8ff" stroke="#63b8ff" points="860.2,-93.4 849.97,-90.67 856.27,-99.19 860.2,-93.4"/>
</a>
</g>
</g>
<!-- Node18&#45;&gt;Node3 -->
<g id="edge31_Node000018_Node000003" class="edge">
<title>Node18&#45;&gt;Node3</title>
<g id="a_edge31_Node000018_Node000003"><a xlink:title=" ">
<path fill="none" stroke="#63b8ff" d="M427.04,-186.71C437.99,-177.78 455.36,-163.53 470.22,-151 489.21,-134.99 510.49,-116.62 526.33,-102.85"/>
<polygon fill="#63b8ff" stroke="#63b8ff" points="528.83,-105.32 534.07,-96.12 524.23,-100.04 528.83,-105.32"/>
</a>
</g>
</g>
<!-- Node18&#45;&gt;Node4 -->
<g id="edge32_Node000018_Node000004" class="edge">
<title>Node18&#45;&gt;Node4</title>
<g id="a_edge32_Node000018_Node000004"><a xlink:title=" ">
<path fill="none" stroke="#63b8ff" d="M348.31,-195.98C223.43,-195.53 -26.44,-187.77 13.22,-132 65.04,-59.15 115.35,-82.39 203.22,-66 472.56,-15.75 1332.44,-14.83 1581.82,-15.66"/>
<polygon fill="#63b8ff" stroke="#63b8ff" points="1582.18,-19.16 1592.19,-15.69 1582.2,-12.16 1582.18,-19.16"/>
</a>
</g>
</g>
<!-- Node18&#45;&gt;Node13 -->
<g id="edge33_Node000018_Node000013" class="edge">
<title>Node18&#45;&gt;Node13</title>
<g id="a_edge33_Node000018_Node000013"><a xlink:title=" ">
<path fill="none" stroke="#63b8ff" d="M483.81,-188.43C576.34,-178.76 742.27,-161.42 841.62,-151.03"/>
<polygon fill="#63b8ff" stroke="#63b8ff" points="842.03,-154.51 851.61,-149.99 841.3,-147.55 842.03,-154.51"/>
</a>
</g>
</g>
<!-- Node19 -->
<g id="Node000019" class="node">
<title>Node19</title>
<g id="a_Node000019"><a xlink:href="DirektComboBox_8h.html" target="_top" xlink:title=" ">
<polygon fill="white" stroke="#666666" points="320.72,-151 169.72,-151 169.72,-132 320.72,-132 320.72,-151"/>
<text text-anchor="middle" x="245.22" y="-139" font-family="Helvetica,sans-Serif" font-size="10.00">controls/DirektComboBox.h</text>
</a>
</g>
</g>
<!-- Node18&#45;&gt;Node19 -->
<g id="edge34_Node000018_Node000019" class="edge">
<title>Node18&#45;&gt;Node19</title>
<g id="a_edge34_Node000018_Node000019"><a xlink:title=" ">
<path fill="none" stroke="#63b8ff" d="M388.75,-186.98C360.04,-178.09 314.81,-164.07 282.8,-154.15"/>
<polygon fill="#63b8ff" stroke="#63b8ff" points="283.5,-150.7 272.91,-151.08 281.43,-157.39 283.5,-150.7"/>
</a>
</g>
</g>
<!-- Node20 -->
<g id="Node000020" class="node">
<title>Node20</title>
<g id="a_Node000020"><a xlink:href="DirektKnob_8h.html" target="_top" xlink:title=" ">
<polygon fill="white" stroke="#666666" points="461.22,-151 339.22,-151 339.22,-132 461.22,-132 461.22,-151"/>
<text text-anchor="middle" x="400.22" y="-139" font-family="Helvetica,sans-Serif" font-size="10.00">controls/DirektKnob.h</text>
</a>
</g>
</g>
<!-- Node18&#45;&gt;Node20 -->
<g id="edge37_Node000018_Node000020" class="edge">
<title>Node18&#45;&gt;Node20</title>
<g id="a_edge37_Node000018_Node000020"><a xlink:title=" ">
<path fill="none" stroke="#63b8ff" d="M413.58,-186.75C411.46,-179.72 408.41,-169.62 405.76,-160.84"/>
<polygon fill="#63b8ff" stroke="#63b8ff" points="409.06,-159.65 402.82,-151.09 402.36,-161.67 409.06,-159.65"/>
</a>
</g>
</g>
<!-- Node22 -->
<g id="Node000022" class="node">
<title>Node22</title>
<g id="a_Node000022"><a xlink:href="DirektToggle_8h.html" target="_top" xlink:title=" ">
<polygon fill="white" stroke="#666666" points="151.72,-151 22.72,-151 22.72,-132 151.72,-132 151.72,-151"/>
<text text-anchor="middle" x="87.22" y="-139" font-family="Helvetica,sans-Serif" font-size="10.00">controls/DirektToggle.h</text>
</a>
</g>
</g>
<!-- Node18&#45;&gt;Node22 -->
<g id="edge41_Node000018_Node000022" class="edge">
<title>Node18&#45;&gt;Node22</title>
<g id="a_edge41_Node000018_Node000022"><a xlink:title=" ">
<path fill="none" stroke="#63b8ff" d="M363.37,-186.98C305.29,-177.63 212.08,-162.61 150.25,-152.65"/>
<polygon fill="#63b8ff" stroke="#63b8ff" points="150.66,-149.17 140.23,-151.04 149.54,-156.08 150.66,-149.17"/>
</a>
</g>
</g>
<!-- Node18&#45;&gt;Node23 -->
<g id="edge44_Node000018_Node000023" class="edge">
<title>Node18&#45;&gt;Node23</title>
<g id="a_edge44_Node000018_Node000023"><a xlink:title=" ">
<path fill="none" stroke="#63b8ff" d="M483.77,-194.92C664.68,-192.97 1175.37,-184.72 1610.27,-151.09"/>
<polygon fill="#63b8ff" stroke="#63b8ff" points="1610.83,-154.55 1620.53,-150.29 1610.29,-147.58 1610.83,-154.55"/>
</a>
</g>
</g>
<!-- Node19&#45;&gt;Node3 -->
<g id="edge35_Node000019_Node000003" class="edge">
<title>Node19&#45;&gt;Node3</title>
<g id="a_edge35_Node000019_Node000003"><a xlink:title=" ">
<path fill="none" stroke="#63b8ff" d="M289.57,-131.99C336.98,-122.9 413.1,-108.3 470.87,-97.22"/>
<polygon fill="#63b8ff" stroke="#63b8ff" points="471.54,-100.66 480.7,-95.33 470.22,-93.78 471.54,-100.66"/>
</a>
</g>
</g>
<!-- Node19&#45;&gt;Node4 -->
<g id="edge36_Node000019_Node000004" class="edge">
<title>Node19&#45;&gt;Node4</title>
<g id="a_edge36_Node000019_Node000004"><a xlink:title=" ">
<path fill="none" stroke="#63b8ff" d="M256.72,-131.96C279.57,-115.54 332.97,-79.95 384.22,-66 499.76,-34.55 1334.68,-20.43 1581.61,-16.91"/>
<polygon fill="#63b8ff" stroke="#63b8ff" points="1581.93,-20.4 1591.88,-16.76 1581.84,-13.41 1581.93,-20.4"/>
</a>
</g>
</g>
<!-- Node20&#45;&gt;Node3 -->
<g id="edge38_Node000020_Node000003" class="edge">
<title>Node20&#45;&gt;Node3</title>
<g id="a_edge38_Node000020_Node000003"><a xlink:title=" ">
<path fill="none" stroke="#63b8ff" d="M422.04,-131.99C443.62,-123.57 477.32,-110.43 504.75,-99.73"/>
<polygon fill="#63b8ff" stroke="#63b8ff" points="506.12,-102.96 514.16,-96.06 503.57,-96.44 506.12,-102.96"/>
</a>
</g>
</g>
<!-- Node20&#45;&gt;Node4 -->
<g id="edge39_Node000020_Node000004" class="edge">
<title>Node20&#45;&gt;Node4</title>
<g id="a_edge39_Node000020_Node000004"><a xlink:title=" ">
<path fill="none" stroke="#63b8ff" d="M396.33,-131.73C390.09,-116.18 380.18,-83.73 397.22,-66 438.51,-23.03 1325.86,-16.99 1581.73,-16.14"/>
<polygon fill="#63b8ff" stroke="#63b8ff" points="1582.02,-19.64 1592.01,-16.11 1581.99,-12.64 1582.02,-19.64"/>
</a>
</g>
</g>
<!-- Node21 -->
<g id="Node000021" class="node">
<title>Node21</title>
<g id="a_Node000021"><a xlink:title=" ">
<polygon fill="#e0e0e0" stroke="#999999" points="462.22,-90.5 406.22,-90.5 406.22,-71.5 462.22,-71.5 462.22,-90.5"/>
<text text-anchor="middle" x="434.22" y="-78.5" font-family="Helvetica,sans-Serif" font-size="10.00">optional</text>
</a>
</g>
</g>
<!-- Node20&#45;&gt;Node21 -->
<g id="edge40_Node000020_Node000021" class="edge">
<title>Node20&#45;&gt;Node21</title>
<g id="a_edge40_Node000020_Node000021"><a xlink:title=" ">
<path fill="none" stroke="#63b8ff" d="M405.24,-131.87C410.16,-123.4 417.81,-110.24 424.02,-99.57"/>
<polygon fill="#63b8ff" stroke="#63b8ff" points="427.19,-101.07 429.19,-90.67 421.14,-97.55 427.19,-101.07"/>
</a>
</g>
</g>
<!-- Node22&#45;&gt;Node3 -->
<g id="edge42_Node000022_Node000003" class="edge">
<title>Node22&#45;&gt;Node3</title>
<g id="a_edge42_Node000022_Node000003"><a xlink:title=" ">
<path fill="none" stroke="#63b8ff" d="M152.1,-132.94C154.85,-132.62 157.56,-132.31 160.22,-132 295.2,-116.33 331.84,-116.15 470.33,-96.08"/>
<polygon fill="#63b8ff" stroke="#63b8ff" points="471.08,-99.5 480.47,-94.6 470.07,-92.58 471.08,-99.5"/>
</a>
</g>
</g>
<!-- Node22&#45;&gt;Node4 -->
<g id="edge43_Node000022_Node000004" class="edge">
<title>Node22&#45;&gt;Node4</title>
<g id="a_edge43_Node000022_Node000004"><a xlink:title=" ">
<path fill="none" stroke="#63b8ff" d="M106.99,-131.88C145.69,-115.47 234.55,-80.15 313.22,-66 560.59,-21.52 1345.17,-16.51 1581.93,-16.03"/>
<polygon fill="#63b8ff" stroke="#63b8ff" points="1582.13,-19.53 1592.12,-16.01 1582.11,-12.53 1582.13,-19.53"/>
</a>
</g>
</g>
<!-- Node23&#45;&gt;Node4 -->
<g id="edge45_Node000023_Node000004" class="edge">
<title>Node23&#45;&gt;Node4</title>
<g id="a_edge45_Node000023_Node000004"><a xlink:title=" ">
<path fill="none" stroke="#63b8ff" d="M1680.96,-131.94C1676,-113.24 1664.04,-68.13 1656.59,-40.01"/>
<polygon fill="#63b8ff" stroke="#63b8ff" points="1659.92,-38.93 1653.98,-30.16 1653.16,-40.72 1659.92,-38.93"/>
</a>
</g>
</g>
<!-- Node23&#45;&gt;Node6 -->
<g id="edge47_Node000023_Node000006" class="edge">
<title>Node23&#45;&gt;Node6</title>
<g id="a_edge47_Node000023_Node000006"><a xlink:title=" ">
<path fill="none" stroke="#63b8ff" d="M1730.48,-131.99C1788.85,-121.49 1888.09,-103.62 1950.79,-92.34"/>
<polygon fill="#63b8ff" stroke="#63b8ff" points="1951.69,-95.73 1960.91,-90.52 1950.45,-88.84 1951.69,-95.73"/>
</a>
</g>
</g>
<!-- Node23&#45;&gt;Node15 -->
<g id="edge46_Node000023_Node000015" class="edge">
<title>Node23&#45;&gt;Node15</title>
<g id="a_edge46_Node000023_Node000015"><a xlink:title=" ">
<path fill="none" stroke="#63b8ff" d="M1620.51,-132.91C1617.71,-132.6 1614.94,-132.29 1612.22,-132 1431.61,-112.56 1215.49,-93.11 1128.42,-85.43"/>
<polygon fill="#63b8ff" stroke="#63b8ff" points="1128.72,-81.94 1118.45,-84.55 1128.11,-88.91 1128.72,-81.94"/>
</a>
</g>
</g>
<!-- Node24&#45;&gt;Node3 -->
<g id="edge49_Node000024_Node000003" class="edge">
<title>Node24&#45;&gt;Node3</title>
<g id="a_edge49_Node000024_Node000003"><a xlink:title=" ">
<path fill="none" stroke="#63b8ff" d="M1127.6,-134.04C1005.48,-123.04 757.8,-100.71 630.2,-89.21"/>
<polygon fill="#63b8ff" stroke="#63b8ff" points="630.37,-85.71 620.1,-88.3 629.74,-92.68 630.37,-85.71"/>
</a>
</g>
</g>
<!-- Node24&#45;&gt;Node14 -->
<g id="edge51_Node000024_Node000014" class="edge">
<title>Node24&#45;&gt;Node14</title>
<g id="a_edge51_Node000024_Node000014"><a xlink:title=" ">
<path fill="none" stroke="#63b8ff" d="M1164.86,-131.96C1134.5,-124 1089.26,-111.1 1051.22,-96 1050.36,-95.66 1049.49,-95.3 1048.62,-94.93"/>
<polygon fill="#63b8ff" stroke="#63b8ff" points="1049.84,-91.64 1039.3,-90.62 1046.91,-97.99 1049.84,-91.64"/>
</a>
</g>
</g>
<!-- Node25 -->
<g id="Node000025" class="node">
<title>Node25</title>
<g id="a_Node000025"><a xlink:title=" ">
<polygon fill="#e0e0e0" stroke="#999999" points="2582.22,-90.5 2532.22,-90.5 2532.22,-71.5 2582.22,-71.5 2582.22,-90.5"/>
<text text-anchor="middle" x="2557.22" y="-78.5" font-family="Helvetica,sans-Serif" font-size="10.00">atomic</text>
</a>
</g>
</g>
<!-- Node24&#45;&gt;Node25 -->
<g id="edge50_Node000024_Node000025" class="edge">
<title>Node24&#45;&gt;Node25</title>
<g id="a_edge50_Node000024_Node000025"><a xlink:title=" ">
<path fill="none" stroke="#63b8ff" d="M1270.76,-132.74C1273.95,-132.47 1277.12,-132.22 1280.22,-132 1531.66,-113.9 2342.86,-88.54 2522,-83.07"/>
<polygon fill="#63b8ff" stroke="#63b8ff" points="2522.29,-86.56 2532.18,-82.76 2522.07,-79.56 2522.29,-86.56"/>
</a>
</g>
</g>
<!-- Node26&#45;&gt;Node3 -->
<g id="edge53_Node000026_Node000003" class="edge">
<title>Node26&#45;&gt;Node3</title>
<g id="a_edge53_Node000026_Node000003"><a xlink:title=" ">
<path fill="none" stroke="#63b8ff" d="M954.7,-186.99C901.32,-180.27 831.33,-168.96 771.22,-151 751.21,-145.02 747.89,-139.07 728.22,-132 692.35,-119.11 651.44,-107.42 617.9,-98.58"/>
<polygon fill="#63b8ff" stroke="#63b8ff" points="618.75,-95.19 608.2,-96.05 616.99,-101.96 618.75,-95.19"/>
</a>
</g>
</g>
<!-- Node26&#45;&gt;Node4 -->
<g id="edge54_Node000026_Node000004" class="edge">
<title>Node26&#45;&gt;Node4</title>
<g id="a_edge54_Node000026_Node000004"><a xlink:title=" ">
<path fill="none" stroke="#63b8ff" d="M966.78,-186.99C915.12,-179.67 851.24,-167.63 830.22,-151 799.25,-126.48 777.13,-94.75 804.22,-66 830.78,-37.83 1385.58,-22.18 1582.02,-17.51"/>
<polygon fill="#63b8ff" stroke="#63b8ff" points="1582.3,-21 1592.22,-17.27 1582.14,-14 1582.3,-21"/>
</a>
</g>
</g>
<!-- Node26&#45;&gt;Node8 -->
<g id="edge55_Node000026_Node000008" class="edge">
<title>Node26&#45;&gt;Node8</title>
<g id="a_edge55_Node000026_Node000008"><a xlink:title=" ">
<path fill="none" stroke="#63b8ff" d="M1047.02,-186.86C1060.19,-172.85 1088.37,-145.4 1118.22,-132 1202.83,-94.02 1312.75,-84.67 1372.31,-82.51"/>
<polygon fill="#63b8ff" stroke="#63b8ff" points="1372.59,-86 1382.47,-82.19 1372.37,-79 1372.59,-86"/>
</a>
</g>
</g>
<!-- Node26&#45;&gt;Node13 -->
<g id="edge59_Node000026_Node000013" class="edge">
<title>Node26&#45;&gt;Node13</title>
<g id="a_edge59_Node000026_Node000013"><a xlink:title=" ">
<path fill="none" stroke="#63b8ff" d="M1020.59,-186.98C1001.93,-178.46 972.97,-165.23 951.48,-155.41"/>
<polygon fill="#63b8ff" stroke="#63b8ff" points="952.75,-152.14 942.2,-151.17 949.84,-158.51 952.75,-152.14"/>
</a>
</g>
</g>
<!-- Node26&#45;&gt;Node14 -->
<g id="edge56_Node000026_Node000014" class="edge">
<title>Node26&#45;&gt;Node14</title>
<g id="a_edge56_Node000026_Node000014"><a xlink:title=" ">
<path fill="none" stroke="#63b8ff" d="M1038.02,-186.97C1035.45,-168.73 1029.37,-125.57 1025.85,-100.64"/>
<polygon fill="#63b8ff" stroke="#63b8ff" points="1029.3,-100.04 1024.44,-90.63 1022.37,-101.02 1029.3,-100.04"/>
</a>
</g>
</g>
<!-- Node26&#45;&gt;Node15 -->
<g id="edge57_Node000026_Node000015" class="edge">
<title>Node26&#45;&gt;Node15</title>
<g id="a_edge57_Node000026_Node000015"><a xlink:title=" ">
<path fill="none" stroke="#63b8ff" d="M1042.98,-186.97C1051.09,-168.56 1070.37,-124.79 1081.31,-99.98"/>
<polygon fill="#63b8ff" stroke="#63b8ff" points="1084.59,-101.19 1085.42,-90.63 1078.19,-98.37 1084.59,-101.19"/>
</a>
</g>
</g>
<!-- Node26&#45;&gt;Node17 -->
<g id="edge58_Node000026_Node000017" class="edge">
<title>Node26&#45;&gt;Node17</title>
<g id="a_edge58_Node000026_Node000017"><a xlink:title=" ">
<path fill="none" stroke="#63b8ff" d="M958.35,-186.98C911,-180.21 857.58,-168.84 842.22,-151 830.5,-137.37 830.78,-116.09 833.03,-100.77"/>
<polygon fill="#63b8ff" stroke="#63b8ff" points="836.48,-101.33 834.87,-90.86 829.6,-100.05 836.48,-101.33"/>
</a>
</g>
</g>
<!-- Node26&#45;&gt;Node24 -->
<g id="edge60_Node000026_Node000024" class="edge">
<title>Node26&#45;&gt;Node24</title>
<g id="a_edge60_Node000026_Node000024"><a xlink:title=" ">
<path fill="none" stroke="#63b8ff" d="M1064.93,-186.98C1091.68,-178.13 1133.75,-164.19 1163.67,-154.28"/>
<polygon fill="#63b8ff" stroke="#63b8ff" points="1164.92,-157.55 1173.32,-151.08 1162.72,-150.9 1164.92,-157.55"/>
</a>
</g>
</g>
<!-- Node27&#45;&gt;Node3 -->
<g id="edge62_Node000027_Node000003" class="edge">
<title>Node27&#45;&gt;Node3</title>
<g id="a_edge62_Node000027_Node000003"><a xlink:title=" ">
<path fill="none" stroke="#63b8ff" d="M624.39,-131.87C612.69,-124 594.98,-112.09 579.8,-101.89"/>
<polygon fill="#63b8ff" stroke="#63b8ff" points="581.47,-98.79 571.22,-96.11 577.56,-104.6 581.47,-98.79"/>
</a>
</g>
</g>
<!-- Node27&#45;&gt;Node17 -->
<g id="edge63_Node000027_Node000017" class="edge">
<title>Node27&#45;&gt;Node17</title>
<g id="a_edge63_Node000027_Node000017"><a xlink:title=" ">
<path fill="none" stroke="#63b8ff" d="M666.31,-131.99C702.81,-121.32 765.27,-103.05 803.73,-91.8"/>
<polygon fill="#63b8ff" stroke="#63b8ff" points="804.82,-95.13 813.43,-88.96 802.85,-88.41 804.82,-95.13"/>
</a>
</g>
</g>
<!-- Node28&#45;&gt;Node4 -->
<g id="edge67_Node000028_Node000004" class="edge">
<title>Node28&#45;&gt;Node4</title>
<g id="a_edge67_Node000028_Node000004"><a xlink:title=" ">
<path fill="none" stroke="#63b8ff" d="M2309.9,-131.95C2273.28,-116.15 2190.97,-82.49 2118.22,-66 1978.43,-34.31 1810.47,-22.57 1718.58,-18.32"/>
<polygon fill="#63b8ff" stroke="#63b8ff" points="1718.72,-14.83 1708.58,-17.88 1718.41,-21.82 1718.72,-14.83"/>
</a>
</g>
</g>
<!-- Node28&#45;&gt;Node6 -->
<g id="edge68_Node000028_Node000006" class="edge">
<title>Node28&#45;&gt;Node6</title>
<g id="a_edge68_Node000028_Node000006"><a xlink:title=" ">
<path fill="none" stroke="#63b8ff" d="M2282.55,-131.99C2224.9,-121.49 2126.88,-103.62 2064.95,-92.34"/>
<polygon fill="#63b8ff" stroke="#63b8ff" points="2065.42,-88.87 2054.96,-90.52 2064.17,-95.75 2065.42,-88.87"/>
</a>
</g>
</g>
<!-- Node29&#45;&gt;Node4 -->
<g id="edge70_Node000029_Node000004" class="edge">
<title>Node29&#45;&gt;Node4</title>
<g id="a_edge70_Node000029_Node000004"><a xlink:title=" ">
<path fill="none" stroke="#63b8ff" d="M2706.62,-131.76C2685.95,-115.33 2638.17,-80.19 2591.22,-66 2427.94,-16.64 1906.25,-14.52 1718.43,-15.43"/>
<polygon fill="#63b8ff" stroke="#63b8ff" points="1718.38,-11.93 1708.4,-15.48 1718.42,-18.93 1718.38,-11.93"/>
</a>
</g>
</g>
<!-- Node29&#45;&gt;Node6 -->
<g id="edge72_Node000029_Node000006" class="edge">
<title>Node29&#45;&gt;Node6</title>
<g id="a_edge72_Node000029_Node000006"><a xlink:title=" ">
<path fill="none" stroke="#63b8ff" d="M2639.66,-134.1C2502.04,-122.74 2216.95,-99.22 2082.05,-88.09"/>
<polygon fill="#63b8ff" stroke="#63b8ff" points="2082.07,-84.58 2071.81,-87.25 2081.49,-91.56 2082.07,-84.58"/>
</a>
</g>
</g>
<!-- Node29&#45;&gt;Node25 -->
<g id="edge71_Node000029_Node000025" class="edge">
<title>Node29&#45;&gt;Node25</title>
<g id="a_edge71_Node000029_Node000025"><a xlink:title=" ">
<path fill="none" stroke="#63b8ff" d="M2693.96,-131.99C2666.59,-121.99 2620.96,-105.3 2590.01,-93.99"/>
<polygon fill="#63b8ff" stroke="#63b8ff" points="2591.11,-90.66 2580.52,-90.52 2588.71,-97.24 2591.11,-90.66"/>
</a>
</g>
</g>
<!-- Node30&#45;&gt;Node4 -->
<g id="edge74_Node000030_Node000004" class="edge">
<title>Node30&#45;&gt;Node4</title>
<g id="a_edge74_Node000030_Node000004"><a xlink:title=" ">
<path fill="none" stroke="#63b8ff" d="M2489.56,-131.97C2429.12,-116.51 2295.59,-83.81 2181.22,-66 2016.04,-40.27 1819.73,-25.97 1718.36,-19.77"/>
<polygon fill="#63b8ff" stroke="#63b8ff" points="1718.45,-16.26 1708.26,-19.16 1718.03,-23.25 1718.45,-16.26"/>
</a>
</g>
</g>
<!-- Node30&#45;&gt;Node6 -->
<g id="edge76_Node000030_Node000006" class="edge">
<title>Node30&#45;&gt;Node6</title>
<g id="a_edge76_Node000030_Node000006"><a xlink:title=" ">
<path fill="none" stroke="#63b8ff" d="M2460.99,-133.53C2366.15,-122.74 2184.08,-102.01 2082.09,-90.41"/>
<polygon fill="#63b8ff" stroke="#63b8ff" points="2082.2,-86.9 2071.87,-89.24 2081.41,-93.85 2082.2,-86.9"/>
</a>
</g>
</g>
<!-- Node30&#45;&gt;Node25 -->
<g id="edge75_Node000030_Node000025" class="edge">
<title>Node30&#45;&gt;Node25</title>
<g id="a_edge75_Node000030_Node000025"><a xlink:title=" ">
<path fill="none" stroke="#63b8ff" d="M2527.39,-131.87C2532.46,-123.4 2540.33,-110.24 2546.72,-99.57"/>
<polygon fill="#63b8ff" stroke="#63b8ff" points="2549.91,-101.05 2552.04,-90.67 2543.9,-97.45 2549.91,-101.05"/>
</a>
</g>
</g>
<!-- Node31&#45;&gt;Node4 -->
<g id="edge78_Node000031_Node000004" class="edge">
<title>Node31&#45;&gt;Node4</title>
<g id="a_edge78_Node000031_Node000004"><a xlink:title=" ">
<path fill="none" stroke="#63b8ff" d="M2687.92,-194.96C2754.52,-191.47 2835.71,-178.1 2804.22,-132 2758.75,-65.41 2714.06,-82.93 2635.22,-66 2459.86,-28.34 1911.84,-18.83 1718.55,-16.62"/>
<polygon fill="#63b8ff" stroke="#63b8ff" points="1718.56,-13.12 1708.52,-16.51 1718.48,-20.12 1718.56,-13.12"/>
</a>
</g>
</g>
<!-- Node31&#45;&gt;Node6 -->
<g id="edge81_Node000031_Node000006" class="edge">
<title>Node31&#45;&gt;Node6</title>
<g id="a_edge81_Node000031_Node000006"><a xlink:title=" ">
<path fill="none" stroke="#63b8ff" d="M2572.98,-186.97C2540.35,-179.18 2492.47,-166.53 2452.22,-151 2434.61,-144.2 2432.3,-137.46 2414.22,-132 2301.47,-97.97 2164.43,-87.05 2081.88,-83.58"/>
<polygon fill="#63b8ff" stroke="#63b8ff" points="2081.97,-80.08 2071.84,-83.18 2081.7,-87.07 2081.97,-80.08"/>
</a>
</g>
</g>
<!-- Node31&#45;&gt;Node25 -->
<g id="edge79_Node000031_Node000025" class="edge">
<title>Node31&#45;&gt;Node25</title>
<g id="a_edge79_Node000031_Node000025"><a xlink:title=" ">
<path fill="none" stroke="#63b8ff" d="M2609.58,-186.96C2606.98,-174.46 2601.25,-150.64 2592.22,-132 2586.49,-120.15 2578.07,-108.02 2570.93,-98.67"/>
<polygon fill="#63b8ff" stroke="#63b8ff" points="2573.55,-96.35 2564.6,-90.67 2568.06,-100.69 2573.55,-96.35"/>
</a>
</g>
</g>
<!-- Node31&#45;&gt;Node30 -->
<g id="edge80_Node000031_Node000030" class="edge">
<title>Node31&#45;&gt;Node30</title>
<g id="a_edge80_Node000031_Node000030"><a xlink:title=" ">
<path fill="none" stroke="#63b8ff" d="M2596.93,-186.98C2583.12,-178.77 2561.98,-166.18 2545.71,-156.49"/>
<polygon fill="#63b8ff" stroke="#63b8ff" points="2547.17,-153.28 2536.78,-151.17 2543.59,-159.29 2547.17,-153.28"/>
</a>
</g>
</g>
</g>
</svg>
