<?xml version="1.0" encoding="UTF-8" standalone="no"?>
<!DOCTYPE svg PUBLIC "-//W3C//DTD SVG 1.1//EN"
 "http://www.w3.org/Graphics/SVG/1.1/DTD/svg11.dtd">
<!-- Generated by graphviz version 2.43.0 (0)
 -->
<!-- Title: layout/DirektTabPanel.h Pages: 1 -->
<svg width="243pt" height="148pt"
 viewBox="0.00 0.00 242.50 148.00" xmlns="http://www.w3.org/2000/svg" xmlns:xlink="http://www.w3.org/1999/xlink">
<g id="graph0" class="graph" transform="scale(1 1) rotate(0) translate(4 144)">
<title>layout/DirektTabPanel.h</title>
<!-- Node1 -->
<g id="Node000001" class="node">
<title>Node1</title>
<g id="a_Node000001"><a xlink:title=" ">
<polygon fill="#999999" stroke="#666666" points="132,-140 0,-140 0,-121 132,-121 132,-140"/>
<text text-anchor="middle" x="66" y="-128" font-family="Helvetica,sans-Serif" font-size="10.00">layout/DirektTabPanel.h</text>
</a>
</g>
</g>
<!-- Node2 -->
<g id="Node000002" class="node">
<title>Node2</title>
<g id="a_Node000002"><a xlink:title=" ">
<polygon fill="#e0e0e0" stroke="#999999" points="150,-30 34,-30 34,0 150,0 150,-30"/>
<text text-anchor="start" x="42" y="-18" font-family="Helvetica,sans-Serif" font-size="10.00">juce_gui_basics/juce</text>
<text text-anchor="middle" x="92" y="-7" font-family="Helvetica,sans-Serif" font-size="10.00">_gui_basics.h</text>
</a>
</g>
</g>
<!-- Node1&#45;&gt;Node2 -->
<g id="edge1_Node000001_Node000002" class="edge">
<title>Node1&#45;&gt;Node2</title>
<g id="a_edge1_Node000001_Node000002"><a xlink:title=" ">
<path fill="none" stroke="#63b8ff" d="M56.09,-121C43.29,-108.93 23.7,-86.07 33,-66 38.52,-54.08 48.44,-43.97 58.59,-36.02"/>
<polygon fill="#63b8ff" stroke="#63b8ff" points="60.67,-38.84 66.7,-30.12 56.56,-33.18 60.67,-38.84"/>
</a>
</g>
</g>
<!-- Node3 -->
<g id="Node000003" class="node">
<title>Node3</title>
<g id="a_Node000003"><a xlink:title=" ">
<polygon fill="#e0e0e0" stroke="#999999" points="89.5,-85 42.5,-85 42.5,-66 89.5,-66 89.5,-85"/>
<text text-anchor="middle" x="66" y="-73" font-family="Helvetica,sans-Serif" font-size="10.00">vector</text>
</a>
</g>
</g>
<!-- Node1&#45;&gt;Node3 -->
<g id="edge2_Node000001_Node000003" class="edge">
<title>Node1&#45;&gt;Node3</title>
<g id="a_edge2_Node000001_Node000003"><a xlink:title=" ">
<path fill="none" stroke="#63b8ff" d="M66,-120.75C66,-113.8 66,-103.85 66,-95.13"/>
<polygon fill="#63b8ff" stroke="#63b8ff" points="69.5,-95.09 66,-85.09 62.5,-95.09 69.5,-95.09"/>
</a>
</g>
</g>
<!-- Node4 -->
<g id="Node000004" class="node">
<title>Node4</title>
<g id="a_Node000004"><a xlink:href="DirektColours_8h.html" target="_top" xlink:title=" ">
<polygon fill="white" stroke="#666666" points="234.5,-85 107.5,-85 107.5,-66 234.5,-66 234.5,-85"/>
<text text-anchor="middle" x="171" y="-73" font-family="Helvetica,sans-Serif" font-size="10.00">theme/DirektColours.h</text>
</a>
</g>
</g>
<!-- Node1&#45;&gt;Node4 -->
<g id="edge3_Node000001_Node000004" class="edge">
<title>Node1&#45;&gt;Node4</title>
<g id="a_edge3_Node000001_Node000004"><a xlink:title=" ">
<path fill="none" stroke="#63b8ff" d="M82.87,-120.98C99.61,-112.54 125.5,-99.47 144.89,-89.68"/>
<polygon fill="#63b8ff" stroke="#63b8ff" points="146.47,-92.8 153.82,-85.17 143.32,-86.55 146.47,-92.8"/>
</a>
</g>
</g>
<!-- Node4&#45;&gt;Node2 -->
<g id="edge4_Node000004_Node000002" class="edge">
<title>Node4&#45;&gt;Node2</title>
<g id="a_edge4_Node000004_Node000002"><a xlink:title=" ">
<path fill="none" stroke="#63b8ff" d="M159.34,-65.87C148.82,-58.08 132.94,-46.32 119.24,-36.17"/>
<polygon fill="#63b8ff" stroke="#63b8ff" points="121.18,-33.25 111.06,-30.11 117.01,-38.88 121.18,-33.25"/>
</a>
</g>
</g>
</g>
</svg>
