<?xml version="1.0" encoding="UTF-8" standalone="no"?>
<!DOCTYPE svg PUBLIC "-//W3C//DTD SVG 1.1//EN"
 "http://www.w3.org/Graphics/SVG/1.1/DTD/svg11.dtd">
<!-- Generated by graphviz version 2.43.0 (0)
 -->
<!-- Title: chrome/DirektFooter.cpp Pages: 1 -->
<svg width="186pt" height="203pt"
 viewBox="0.00 0.00 186.00 203.00" xmlns="http://www.w3.org/2000/svg" xmlns:xlink="http://www.w3.org/1999/xlink">
<g id="graph0" class="graph" transform="scale(1 1) rotate(0) translate(4 199)">
<title>chrome/DirektFooter.cpp</title>
<!-- Node1 -->
<g id="Node000001" class="node">
<title>Node1</title>
<g id="a_Node000001"><a xlink:title=" ">
<polygon fill="#999999" stroke="#666666" points="137,-195 0,-195 0,-176 137,-176 137,-195"/>
<text text-anchor="middle" x="68.5" y="-183" font-family="Helvetica,sans-Serif" font-size="10.00">chrome/DirektFooter.cpp</text>
</a>
</g>
</g>
<!-- Node2 -->
<g id="Node000002" class="node">
<title>Node2</title>
<g id="a_Node000002"><a xlink:href="DirektFooter_8h.html" target="_top" xlink:title=" ">
<polygon fill="white" stroke="#666666" points="131,-140 6,-140 6,-121 131,-121 131,-140"/>
<text text-anchor="middle" x="68.5" y="-128" font-family="Helvetica,sans-Serif" font-size="10.00">chrome/DirektFooter.h</text>
</a>
</g>
</g>
<!-- Node1&#45;&gt;Node2 -->
<g id="edge1_Node000001_Node000002" class="edge">
<title>Node1&#45;&gt;Node2</title>
<g id="a_edge1_Node000001_Node000002"><a xlink:title=" ">
<path fill="none" stroke="#63b8ff" d="M68.5,-175.75C68.5,-168.8 68.5,-158.85 68.5,-150.13"/>
<polygon fill="#63b8ff" stroke="#63b8ff" points="72,-150.09 68.5,-140.09 65,-150.09 72,-150.09"/>
</a>
</g>
</g>
<!-- Node3 -->
<g id="Node000003" class="node">
<title>Node3</title>
<g id="a_Node000003"><a xlink:title=" ">
<polygon fill="#e0e0e0" stroke="#999999" points="126.5,-30 10.5,-30 10.5,0 126.5,0 126.5,-30"/>
<text text-anchor="start" x="18.5" y="-18" font-family="Helvetica,sans-Serif" font-size="10.00">juce_gui_basics/juce</text>
<text text-anchor="middle" x="68.5" y="-7" font-family="Helvetica,sans-Serif" font-size="10.00">_gui_basics.h</text>
</a>
</g>
</g>
<!-- Node2&#45;&gt;Node3 -->
<g id="edge2_Node000002_Node000003" class="edge">
<title>Node2&#45;&gt;Node3</title>
<g id="a_edge2_Node000002_Node000003"><a xlink:title=" ">
<path fill="none" stroke="#63b8ff" d="M61.35,-120.97C54.73,-112.48 45.35,-98.75 41.5,-85 37.08,-69.2 43.77,-52.01 51.59,-38.74"/>
<polygon fill="#63b8ff" stroke="#63b8ff" points="54.59,-40.55 57.07,-30.25 48.71,-36.76 54.59,-40.55"/>
</a>
</g>
</g>
<!-- Node4 -->
<g id="Node000004" class="node">
<title>Node4</title>
<g id="a_Node000004"><a xlink:href="DirektColours_8h.html" target="_top" xlink:title=" ">
<polygon fill="white" stroke="#666666" points="178,-85 51,-85 51,-66 178,-66 178,-85"/>
<text text-anchor="middle" x="114.5" y="-73" font-family="Helvetica,sans-Serif" font-size="10.00">theme/DirektColours.h</text>
</a>
</g>
</g>
<!-- Node2&#45;&gt;Node4 -->
<g id="edge3_Node000002_Node000004" class="edge">
<title>Node2&#45;&gt;Node4</title>
<g id="a_edge3_Node000002_Node000004"><a xlink:title=" ">
<path fill="none" stroke="#63b8ff" d="M76.1,-120.75C82.66,-113.18 92.32,-102.05 100.31,-92.84"/>
<polygon fill="#63b8ff" stroke="#63b8ff" points="103.13,-94.94 107.05,-85.09 97.85,-90.35 103.13,-94.94"/>
</a>
</g>
</g>
<!-- Node4&#45;&gt;Node3 -->
<g id="edge4_Node000004_Node000003" class="edge">
<title>Node4&#45;&gt;Node3</title>
<g id="a_edge4_Node000004_Node000003"><a xlink:title=" ">
<path fill="none" stroke="#63b8ff" d="M107.71,-65.87C101.99,-58.59 93.55,-47.85 85.96,-38.2"/>
<polygon fill="#63b8ff" stroke="#63b8ff" points="88.53,-35.81 79.6,-30.11 83.03,-40.14 88.53,-35.81"/>
</a>
</g>
</g>
</g>
</svg>
