<?xml version="1.0" encoding="UTF-8" standalone="no"?>
<!DOCTYPE svg PUBLIC "-//W3C//DTD SVG 1.1//EN"
 "http://www.w3.org/Graphics/SVG/1.1/DTD/svg11.dtd">
<!-- Generated by graphviz version 2.43.0 (0)
 -->
<!-- Title: core/DirektAutoLayout.cpp Pages: 1 -->
<svg width="1147pt" height="269pt"
 viewBox="0.00 0.00 1147.38 269.00" xmlns="http://www.w3.org/2000/svg" xmlns:xlink="http://www.w3.org/1999/xlink">
<g id="graph0" class="graph" transform="scale(1 1) rotate(0) translate(4 265)">
<title>core/DirektAutoLayout.cpp</title>
<!-- Node1 -->
<g id="Node000001" class="node">
<title>Node1</title>
<g id="a_Node000001"><a xlink:title=" ">
<polygon fill="#999999" stroke="#666666" points="896.88,-261 750.88,-261 750.88,-242 896.88,-242 896.88,-261"/>
<text text-anchor="middle" x="823.88" y="-249" font-family="Helvetica,sans-Serif" font-size="10.00">core/DirektAutoLayout.cpp</text>
</a>
</g>
</g>
<!-- Node2 -->
<g id="Node000002" class="node">
<title>Node2</title>
<g id="a_Node000002"><a xlink:href="DirektAutoLayout_8h.html" target="_top" xlink:title=" ">
<polygon fill="white" stroke="#666666" points="501.38,-206 366.38,-206 366.38,-187 501.38,-187 501.38,-206"/>
<text text-anchor="middle" x="433.88" y="-194" font-family="Helvetica,sans-Serif" font-size="10.00">core/DirektAutoLayout.h</text>
</a>
</g>
</g>
<!-- Node1&#45;&gt;Node2 -->
<g id="edge1_Node000001_Node000002" class="edge">
<title>Node1&#45;&gt;Node2</title>
<g id="a_edge1_Node000001_Node000002"><a xlink:title=" ">
<path fill="none" stroke="#63b8ff" d="M761.22,-241.98C691.82,-232.55 580.06,-217.36 506.79,-207.41"/>
<polygon fill="#63b8ff" stroke="#63b8ff" points="507.09,-203.92 496.71,-206.04 506.15,-210.85 507.09,-203.92"/>
</a>
</g>
</g>
<!-- Node17 -->
<g id="Node000017" class="node">
<title>Node17</title>
<g id="a_Node000017"><a xlink:href="DirektDescriptorHelpers_8h.html" target="_top" xlink:title=" ">
<polygon fill="white" stroke="#666666" points="1052.88,-206 876.88,-206 876.88,-187 1052.88,-187 1052.88,-206"/>
<text text-anchor="middle" x="964.88" y="-194" font-family="Helvetica,sans-Serif" font-size="10.00">config/DirektDescriptorHelpers.h</text>
</a>
</g>
</g>
<!-- Node1&#45;&gt;Node17 -->
<g id="edge26_Node000001_Node000017" class="edge">
<title>Node1&#45;&gt;Node17</title>
<g id="a_edge26_Node000001_Node000017"><a xlink:title=" ">
<path fill="none" stroke="#63b8ff" d="M846.54,-241.98C869.73,-233.27 906,-219.63 932.28,-209.75"/>
<polygon fill="#63b8ff" stroke="#63b8ff" points="933.69,-212.97 941.82,-206.17 931.22,-206.41 933.69,-212.97"/>
</a>
</g>
</g>
<!-- Node18 -->
<g id="Node000018" class="node">
<title>Node18</title>
<g id="a_Node000018"><a xlink:href="DirektModuleBypassSoloStrip_8h.html" target="_top" xlink:title=" ">
<polygon fill="white" stroke="#666666" points="899.88,-151 747.88,-151 747.88,-121 899.88,-121 899.88,-151"/>
<text text-anchor="start" x="755.88" y="-139" font-family="Helvetica,sans-Serif" font-size="10.00">layout/DirektModuleBypass</text>
<text text-anchor="middle" x="823.88" y="-128" font-family="Helvetica,sans-Serif" font-size="10.00">SoloStrip.h</text>
</a>
</g>
</g>
<!-- Node1&#45;&gt;Node18 -->
<g id="edge28_Node000001_Node000018" class="edge">
<title>Node1&#45;&gt;Node18</title>
<g id="a_edge28_Node000001_Node000018"><a xlink:title=" ">
<path fill="none" stroke="#63b8ff" d="M823.88,-241.97C823.88,-225.08 823.88,-186.85 823.88,-161.48"/>
<polygon fill="#63b8ff" stroke="#63b8ff" points="827.38,-161.18 823.88,-151.18 820.38,-161.18 827.38,-161.18"/>
</a>
</g>
</g>
<!-- Node3 -->
<g id="Node000003" class="node">
<title>Node3</title>
<g id="a_Node000003"><a xlink:title=" ">
<polygon fill="#e0e0e0" stroke="#999999" points="298.38,-30 159.38,-30 159.38,0 298.38,0 298.38,-30"/>
<text text-anchor="start" x="167.38" y="-18" font-family="Helvetica,sans-Serif" font-size="10.00">juce_audio_processors</text>
<text text-anchor="middle" x="228.88" y="-7" font-family="Helvetica,sans-Serif" font-size="10.00">/juce_audio_processors.h</text>
</a>
</g>
</g>
<!-- Node2&#45;&gt;Node3 -->
<g id="edge2_Node000002_Node000003" class="edge">
<title>Node2&#45;&gt;Node3</title>
<g id="a_edge2_Node000002_Node000003"><a xlink:title=" ">
<path fill="none" stroke="#63b8ff" d="M366.24,-188.45C256.16,-175.39 46.24,-143.31 3.88,-85 -1.08,-78.17 -1.4,-72.59 3.88,-66 13.24,-54.34 88.33,-39.26 149.24,-28.72"/>
<polygon fill="#63b8ff" stroke="#63b8ff" points="150,-32.14 159.26,-27 148.81,-25.24 150,-32.14"/>
</a>
</g>
</g>
<!-- Node4 -->
<g id="Node000004" class="node">
<title>Node4</title>
<g id="a_Node000004"><a xlink:title=" ">
<polygon fill="#e0e0e0" stroke="#999999" points="644.88,-30 528.88,-30 528.88,0 644.88,0 644.88,-30"/>
<text text-anchor="start" x="536.88" y="-18" font-family="Helvetica,sans-Serif" font-size="10.00">juce_gui_basics/juce</text>
<text text-anchor="middle" x="586.88" y="-7" font-family="Helvetica,sans-Serif" font-size="10.00">_gui_basics.h</text>
</a>
</g>
</g>
<!-- Node2&#45;&gt;Node4 -->
<g id="edge3_Node000002_Node000004" class="edge">
<title>Node2&#45;&gt;Node4</title>
<g id="a_edge3_Node000002_Node000004"><a xlink:title=" ">
<path fill="none" stroke="#63b8ff" d="M436.35,-186.92C443.15,-164.57 464.06,-103.67 499.88,-66 512.01,-53.25 528.12,-42.77 543.17,-34.76"/>
<polygon fill="#63b8ff" stroke="#63b8ff" points="545.03,-37.74 552.36,-30.1 541.86,-31.5 545.03,-37.74"/>
</a>
</g>
</g>
<!-- Node5 -->
<g id="Node000005" class="node">
<title>Node5</title>
<g id="a_Node000005"><a xlink:href="DirektDescriptors_8h.html" target="_top" xlink:title=" ">
<polygon fill="white" stroke="#666666" points="1061.38,-145.5 918.38,-145.5 918.38,-126.5 1061.38,-126.5 1061.38,-145.5"/>
<text text-anchor="middle" x="989.88" y="-133.5" font-family="Helvetica,sans-Serif" font-size="10.00">config/DirektDescriptors.h</text>
</a>
</g>
</g>
<!-- Node2&#45;&gt;Node5 -->
<g id="edge4_Node000002_Node000005" class="edge">
<title>Node2&#45;&gt;Node5</title>
<g id="a_edge4_Node000002_Node000005"><a xlink:title=" ">
<path fill="none" stroke="#63b8ff" d="M501.72,-190.81C594.06,-184.05 764.38,-170.23 908.88,-151 917.03,-149.92 925.61,-148.61 934.02,-147.24"/>
<polygon fill="#63b8ff" stroke="#63b8ff" points="934.86,-150.65 944.14,-145.54 933.7,-143.74 934.86,-150.65"/>
</a>
</g>
</g>
<!-- Node10 -->
<g id="Node000010" class="node">
<title>Node10</title>
<g id="a_Node000010"><a xlink:href="DirektComboBox_8h.html" target="_top" xlink:title=" ">
<polygon fill="white" stroke="#666666" points="304.38,-85 153.38,-85 153.38,-66 304.38,-66 304.38,-85"/>
<text text-anchor="middle" x="228.88" y="-73" font-family="Helvetica,sans-Serif" font-size="10.00">controls/DirektComboBox.h</text>
</a>
</g>
</g>
<!-- Node2&#45;&gt;Node10 -->
<g id="edge10_Node000002_Node000010" class="edge">
<title>Node2&#45;&gt;Node10</title>
<g id="a_edge10_Node000002_Node000010"><a xlink:title=" ">
<path fill="none" stroke="#63b8ff" d="M419.14,-186.94C384.06,-166.58 295.38,-115.1 252.63,-90.29"/>
<polygon fill="#63b8ff" stroke="#63b8ff" points="254.17,-87.13 243.77,-85.14 250.66,-93.19 254.17,-87.13"/>
</a>
</g>
</g>
<!-- Node11 -->
<g id="Node000011" class="node">
<title>Node11</title>
<g id="a_Node000011"><a xlink:href="DirektKnob_8h.html" target="_top" xlink:title=" ">
<polygon fill="white" stroke="#666666" points="134.88,-85 12.88,-85 12.88,-66 134.88,-66 134.88,-85"/>
<text text-anchor="middle" x="73.88" y="-73" font-family="Helvetica,sans-Serif" font-size="10.00">controls/DirektKnob.h</text>
</a>
</g>
</g>
<!-- Node2&#45;&gt;Node11 -->
<g id="edge13_Node000002_Node000011" class="edge">
<title>Node2&#45;&gt;Node11</title>
<g id="a_edge13_Node000002_Node000011"><a xlink:title=" ">
<path fill="none" stroke="#63b8ff" d="M407.99,-186.94C344.71,-166.02 182.07,-112.26 109.63,-88.32"/>
<polygon fill="#63b8ff" stroke="#63b8ff" points="110.62,-84.96 100.02,-85.14 108.42,-91.6 110.62,-84.96"/>
</a>
</g>
</g>
<!-- Node13 -->
<g id="Node000013" class="node">
<title>Node13</title>
<g id="a_Node000013"><a xlink:href="DirektToggle_8h.html" target="_top" xlink:title=" ">
<polygon fill="white" stroke="#666666" points="451.38,-85 322.38,-85 322.38,-66 451.38,-66 451.38,-85"/>
<text text-anchor="middle" x="386.88" y="-73" font-family="Helvetica,sans-Serif" font-size="10.00">controls/DirektToggle.h</text>
</a>
</g>
</g>
<!-- Node2&#45;&gt;Node13 -->
<g id="edge17_Node000002_Node000013" class="edge">
<title>Node2&#45;&gt;Node13</title>
<g id="a_edge17_Node000002_Node000013"><a xlink:title=" ">
<path fill="none" stroke="#63b8ff" d="M430.5,-186.94C422.92,-167.74 404.4,-120.86 394.1,-94.77"/>
<polygon fill="#63b8ff" stroke="#63b8ff" points="397.29,-93.32 390.36,-85.3 390.78,-95.89 397.29,-93.32"/>
</a>
</g>
</g>
<!-- Node14 -->
<g id="Node000014" class="node">
<title>Node14</title>
<g id="a_Node000014"><a xlink:href="DirektSection_8h.html" target="_top" xlink:title=" ">
<polygon fill="white" stroke="#666666" points="729.38,-145.5 604.38,-145.5 604.38,-126.5 729.38,-126.5 729.38,-145.5"/>
<text text-anchor="middle" x="666.88" y="-133.5" font-family="Helvetica,sans-Serif" font-size="10.00">layout/DirektSection.h</text>
</a>
</g>
</g>
<!-- Node2&#45;&gt;Node14 -->
<g id="edge20_Node000002_Node000014" class="edge">
<title>Node2&#45;&gt;Node14</title>
<g id="a_edge20_Node000002_Node000014"><a xlink:title=" ">
<path fill="none" stroke="#63b8ff" d="M467.76,-186.99C508.83,-176.68 578.12,-159.28 623.18,-147.97"/>
<polygon fill="#63b8ff" stroke="#63b8ff" points="624.11,-151.35 632.96,-145.52 622.41,-144.56 624.11,-151.35"/>
</a>
</g>
</g>
<!-- Node5&#45;&gt;Node4 -->
<g id="edge5_Node000005_Node000004" class="edge">
<title>Node5&#45;&gt;Node4</title>
<g id="a_edge5_Node000005_Node000004"><a xlink:title=" ">
<path fill="none" stroke="#63b8ff" d="M992.3,-126.45C995.84,-111.91 1000.42,-82.38 984.88,-66 962.62,-42.54 763.11,-26.8 655.3,-19.93"/>
<polygon fill="#63b8ff" stroke="#63b8ff" points="655.37,-16.43 645.17,-19.29 654.93,-23.41 655.37,-16.43"/>
</a>
</g>
</g>
<!-- Node6 -->
<g id="Node000006" class="node">
<title>Node6</title>
<g id="a_Node000006"><a xlink:title=" ">
<polygon fill="#e0e0e0" stroke="#999999" points="1069.88,-85 1031.88,-85 1031.88,-66 1069.88,-66 1069.88,-85"/>
<text text-anchor="middle" x="1050.88" y="-73" font-family="Helvetica,sans-Serif" font-size="10.00">map</text>
</a>
</g>
</g>
<!-- Node5&#45;&gt;Node6 -->
<g id="edge6_Node000005_Node000006" class="edge">
<title>Node5&#45;&gt;Node6</title>
<g id="a_edge6_Node000005_Node000006"><a xlink:title=" ">
<path fill="none" stroke="#63b8ff" d="M998.88,-126.37C1008.25,-117.38 1023.13,-103.11 1034.58,-92.14"/>
<polygon fill="#63b8ff" stroke="#63b8ff" points="1037.05,-94.62 1041.84,-85.17 1032.2,-89.56 1037.05,-94.62"/>
</a>
</g>
</g>
<!-- Node7 -->
<g id="Node000007" class="node">
<title>Node7</title>
<g id="a_Node000007"><a xlink:title=" ">
<polygon fill="#e0e0e0" stroke="#999999" points="909.88,-85 851.88,-85 851.88,-66 909.88,-66 909.88,-85"/>
<text text-anchor="middle" x="880.88" y="-73" font-family="Helvetica,sans-Serif" font-size="10.00">memory</text>
</a>
</g>
</g>
<!-- Node5&#45;&gt;Node7 -->
<g id="edge7_Node000005_Node000007" class="edge">
<title>Node5&#45;&gt;Node7</title>
<g id="a_edge7_Node000005_Node000007"><a xlink:title=" ">
<path fill="none" stroke="#63b8ff" d="M973.8,-126.37C955.93,-116.78 926.84,-101.17 905.97,-89.97"/>
<polygon fill="#63b8ff" stroke="#63b8ff" points="907.5,-86.81 897.03,-85.17 904.19,-92.98 907.5,-86.81"/>
</a>
</g>
</g>
<!-- Node8 -->
<g id="Node000008" class="node">
<title>Node8</title>
<g id="a_Node000008"><a xlink:title=" ">
<polygon fill="#e0e0e0" stroke="#999999" points="1139.38,-85 1088.38,-85 1088.38,-66 1139.38,-66 1139.38,-85"/>
<text text-anchor="middle" x="1113.88" y="-73" font-family="Helvetica,sans-Serif" font-size="10.00">variant</text>
</a>
</g>
</g>
<!-- Node5&#45;&gt;Node8 -->
<g id="edge8_Node000005_Node000008" class="edge">
<title>Node5&#45;&gt;Node8</title>
<g id="a_edge8_Node000005_Node000008"><a xlink:title=" ">
<path fill="none" stroke="#63b8ff" d="M1007.91,-126.49C1028.58,-116.75 1062.66,-100.66 1086.58,-89.38"/>
<polygon fill="#63b8ff" stroke="#63b8ff" points="1088.28,-92.45 1095.83,-85.02 1085.29,-86.12 1088.28,-92.45"/>
</a>
</g>
</g>
<!-- Node9 -->
<g id="Node000009" class="node">
<title>Node9</title>
<g id="a_Node000009"><a xlink:title=" ">
<polygon fill="#e0e0e0" stroke="#999999" points="975.38,-85 928.38,-85 928.38,-66 975.38,-66 975.38,-85"/>
<text text-anchor="middle" x="951.88" y="-73" font-family="Helvetica,sans-Serif" font-size="10.00">vector</text>
</a>
</g>
</g>
<!-- Node5&#45;&gt;Node9 -->
<g id="edge9_Node000005_Node000009" class="edge">
<title>Node5&#45;&gt;Node9</title>
<g id="a_edge9_Node000005_Node000009"><a xlink:title=" ">
<path fill="none" stroke="#63b8ff" d="M984.28,-126.37C978.72,-117.81 970.05,-104.47 963.08,-93.74"/>
<polygon fill="#63b8ff" stroke="#63b8ff" points="965.9,-91.65 957.51,-85.17 960.02,-95.46 965.9,-91.65"/>
</a>
</g>
</g>
<!-- Node10&#45;&gt;Node3 -->
<g id="edge11_Node000010_Node000003" class="edge">
<title>Node10&#45;&gt;Node3</title>
<g id="a_edge11_Node000010_Node000003"><a xlink:title=" ">
<path fill="none" stroke="#63b8ff" d="M228.88,-65.87C228.88,-59.11 228.88,-49.35 228.88,-40.26"/>
<polygon fill="#63b8ff" stroke="#63b8ff" points="232.38,-40.11 228.88,-30.11 225.38,-40.11 232.38,-40.11"/>
</a>
</g>
</g>
<!-- Node10&#45;&gt;Node4 -->
<g id="edge12_Node000010_Node000004" class="edge">
<title>Node10&#45;&gt;Node4</title>
<g id="a_edge12_Node000010_Node000004"><a xlink:title=" ">
<path fill="none" stroke="#63b8ff" d="M280.94,-65.99C343.78,-55.72 449.64,-38.43 518.88,-27.11"/>
<polygon fill="#63b8ff" stroke="#63b8ff" points="519.52,-30.55 528.82,-25.49 518.39,-23.65 519.52,-30.55"/>
</a>
</g>
</g>
<!-- Node11&#45;&gt;Node3 -->
<g id="edge14_Node000011_Node000003" class="edge">
<title>Node11&#45;&gt;Node3</title>
<g id="a_edge14_Node000011_Node000003"><a xlink:title=" ">
<path fill="none" stroke="#63b8ff" d="M96.42,-65.99C118.73,-57.57 153.55,-44.43 181.89,-33.73"/>
<polygon fill="#63b8ff" stroke="#63b8ff" points="183.5,-36.87 191.62,-30.06 181.03,-30.32 183.5,-36.87"/>
</a>
</g>
</g>
<!-- Node11&#45;&gt;Node4 -->
<g id="edge15_Node000011_Node000004" class="edge">
<title>Node11&#45;&gt;Node4</title>
<g id="a_edge15_Node000011_Node000004"><a xlink:title=" ">
<path fill="none" stroke="#63b8ff" d="M134.96,-67.05C137.98,-66.69 140.96,-66.34 143.88,-66 276.61,-50.45 431.82,-33.13 518.81,-23.5"/>
<polygon fill="#63b8ff" stroke="#63b8ff" points="519.26,-26.97 528.81,-22.4 518.49,-20.02 519.26,-26.97"/>
</a>
</g>
</g>
<!-- Node12 -->
<g id="Node000012" class="node">
<title>Node12</title>
<g id="a_Node000012"><a xlink:title=" ">
<polygon fill="#e0e0e0" stroke="#999999" points="101.88,-24.5 45.88,-24.5 45.88,-5.5 101.88,-5.5 101.88,-24.5"/>
<text text-anchor="middle" x="73.88" y="-12.5" font-family="Helvetica,sans-Serif" font-size="10.00">optional</text>
</a>
</g>
</g>
<!-- Node11&#45;&gt;Node12 -->
<g id="edge16_Node000011_Node000012" class="edge">
<title>Node11&#45;&gt;Node12</title>
<g id="a_edge16_Node000011_Node000012"><a xlink:title=" ">
<path fill="none" stroke="#63b8ff" d="M73.88,-65.87C73.88,-57.75 73.88,-45.31 73.88,-34.89"/>
<polygon fill="#63b8ff" stroke="#63b8ff" points="77.38,-34.67 73.88,-24.67 70.38,-34.67 77.38,-34.67"/>
</a>
</g>
</g>
<!-- Node13&#45;&gt;Node3 -->
<g id="edge18_Node000013_Node000003" class="edge">
<title>Node13&#45;&gt;Node3</title>
<g id="a_edge18_Node000013_Node000003"><a xlink:title=" ">
<path fill="none" stroke="#63b8ff" d="M363.91,-65.99C341.07,-57.54 305.36,-44.32 276.4,-33.59"/>
<polygon fill="#63b8ff" stroke="#63b8ff" points="277.46,-30.25 266.87,-30.06 275.03,-36.82 277.46,-30.25"/>
</a>
</g>
</g>
<!-- Node13&#45;&gt;Node4 -->
<g id="edge19_Node000013_Node000004" class="edge">
<title>Node13&#45;&gt;Node4</title>
<g id="a_edge19_Node000013_Node000004"><a xlink:title=" ">
<path fill="none" stroke="#63b8ff" d="M415.96,-65.99C445.5,-57.35 492.05,-43.74 529.11,-32.9"/>
<polygon fill="#63b8ff" stroke="#63b8ff" points="530.18,-36.23 538.8,-30.06 528.22,-29.51 530.18,-36.23"/>
</a>
</g>
</g>
<!-- Node14&#45;&gt;Node4 -->
<g id="edge21_Node000014_Node000004" class="edge">
<title>Node14&#45;&gt;Node4</title>
<g id="a_edge21_Node000014_Node000004"><a xlink:title=" ">
<path fill="none" stroke="#63b8ff" d="M700.83,-126.44C737.66,-115.48 788.52,-94.46 766.88,-66 753.06,-47.82 699.96,-34.51 654.99,-26.21"/>
<polygon fill="#63b8ff" stroke="#63b8ff" points="655.4,-22.73 644.94,-24.42 654.17,-29.62 655.4,-22.73"/>
</a>
</g>
</g>
<!-- Node14&#45;&gt;Node7 -->
<g id="edge23_Node000014_Node000007" class="edge">
<title>Node14&#45;&gt;Node7</title>
<g id="a_edge23_Node000014_Node000007"><a xlink:title=" ">
<path fill="none" stroke="#63b8ff" d="M698,-126.49C736.13,-116.07 800.73,-98.41 842.07,-87.11"/>
<polygon fill="#63b8ff" stroke="#63b8ff" points="843.07,-90.47 851.79,-84.45 841.22,-83.71 843.07,-90.47"/>
</a>
</g>
</g>
<!-- Node15 -->
<g id="Node000015" class="node">
<title>Node15</title>
<g id="a_Node000015"><a xlink:title=" ">
<polygon fill="#e0e0e0" stroke="#999999" points="573.38,-85 508.38,-85 508.38,-66 573.38,-66 573.38,-85"/>
<text text-anchor="middle" x="540.88" y="-73" font-family="Helvetica,sans-Serif" font-size="10.00">functional</text>
</a>
</g>
</g>
<!-- Node14&#45;&gt;Node15 -->
<g id="edge22_Node000014_Node000015" class="edge">
<title>Node14&#45;&gt;Node15</title>
<g id="a_edge22_Node000014_Node000015"><a xlink:title=" ">
<path fill="none" stroke="#63b8ff" d="M648.56,-126.49C627.47,-116.7 592.62,-100.52 568.3,-89.23"/>
<polygon fill="#63b8ff" stroke="#63b8ff" points="569.77,-86.05 559.23,-85.02 566.82,-92.4 569.77,-86.05"/>
</a>
</g>
</g>
<!-- Node16 -->
<g id="Node000016" class="node">
<title>Node16</title>
<g id="a_Node000016"><a xlink:href="DirektColours_8h.html" target="_top" xlink:title=" ">
<polygon fill="white" stroke="#666666" points="757.38,-85 630.38,-85 630.38,-66 757.38,-66 757.38,-85"/>
<text text-anchor="middle" x="693.88" y="-73" font-family="Helvetica,sans-Serif" font-size="10.00">theme/DirektColours.h</text>
</a>
</g>
</g>
<!-- Node14&#45;&gt;Node16 -->
<g id="edge24_Node000014_Node000016" class="edge">
<title>Node14&#45;&gt;Node16</title>
<g id="a_edge24_Node000014_Node000016"><a xlink:title=" ">
<path fill="none" stroke="#63b8ff" d="M670.87,-126.37C674.74,-117.99 680.72,-105.01 685.62,-94.39"/>
<polygon fill="#63b8ff" stroke="#63b8ff" points="688.87,-95.71 689.88,-85.17 682.51,-92.78 688.87,-95.71"/>
</a>
</g>
</g>
<!-- Node16&#45;&gt;Node4 -->
<g id="edge25_Node000016_Node000004" class="edge">
<title>Node16&#45;&gt;Node4</title>
<g id="a_edge25_Node000016_Node000004"><a xlink:title=" ">
<path fill="none" stroke="#63b8ff" d="M678.09,-65.87C663.31,-57.78 640.7,-45.42 621.69,-35.03"/>
<polygon fill="#63b8ff" stroke="#63b8ff" points="623.15,-31.84 612.7,-30.11 619.79,-37.98 623.15,-31.84"/>
</a>
</g>
</g>
<!-- Node17&#45;&gt;Node5 -->
<g id="edge27_Node000017_Node000005" class="edge">
<title>Node17&#45;&gt;Node5</title>
<g id="a_edge27_Node000017_Node000005"><a xlink:title=" ">
<path fill="none" stroke="#63b8ff" d="M968.57,-186.87C972.15,-178.49 977.7,-165.51 982.24,-154.89"/>
<polygon fill="#63b8ff" stroke="#63b8ff" points="985.47,-156.24 986.18,-145.67 979.03,-153.49 985.47,-156.24"/>
</a>
</g>
</g>
<!-- Node18&#45;&gt;Node3 -->
<g id="edge29_Node000018_Node000003" class="edge">
<title>Node18&#45;&gt;Node3</title>
<g id="a_edge29_Node000018_Node000003"><a xlink:title=" ">
<path fill="none" stroke="#63b8ff" d="M751.27,-120.91C712.31,-112.39 663.83,-100.22 621.88,-85 603.76,-78.42 601.32,-71.64 582.88,-66 491.19,-37.95 381.25,-25.55 308.48,-20.12"/>
<polygon fill="#63b8ff" stroke="#63b8ff" points="308.69,-16.63 298.46,-19.4 308.18,-23.61 308.69,-16.63"/>
</a>
</g>
</g>
<!-- Node18&#45;&gt;Node4 -->
<g id="edge30_Node000018_Node000004" class="edge">
<title>Node18&#45;&gt;Node4</title>
<g id="a_edge30_Node000018_Node000004"><a xlink:title=" ">
<path fill="none" stroke="#63b8ff" d="M819.22,-120.83C813.29,-105.05 801.52,-79.94 782.88,-66 746.07,-38.46 695.66,-26.02 655.18,-20.42"/>
<polygon fill="#63b8ff" stroke="#63b8ff" points="655.47,-16.93 645.11,-19.15 654.59,-23.88 655.47,-16.93"/>
</a>
</g>
</g>
<!-- Node18&#45;&gt;Node7 -->
<g id="edge31_Node000018_Node000007" class="edge">
<title>Node18&#45;&gt;Node7</title>
<g id="a_edge31_Node000018_Node000007"><a xlink:title=" ">
<path fill="none" stroke="#63b8ff" d="M837.68,-120.84C845.95,-112.35 856.51,-101.52 865.11,-92.69"/>
<polygon fill="#63b8ff" stroke="#63b8ff" points="867.87,-94.87 872.34,-85.27 862.86,-89.99 867.87,-94.87"/>
</a>
</g>
</g>
<!-- Node18&#45;&gt;Node9 -->
<g id="edge32_Node000018_Node000009" class="edge">
<title>Node18&#45;&gt;Node9</title>
<g id="a_edge32_Node000018_Node000009"><a xlink:title=" ">
<path fill="none" stroke="#63b8ff" d="M854.54,-120.99C875.61,-111.36 903.37,-98.67 923.85,-89.31"/>
<polygon fill="#63b8ff" stroke="#63b8ff" points="925.34,-92.48 932.98,-85.14 922.43,-86.11 925.34,-92.48"/>
</a>
</g>
</g>
<!-- Node18&#45;&gt;Node13 -->
<g id="edge33_Node000018_Node000013" class="edge">
<title>Node18&#45;&gt;Node13</title>
<g id="a_edge33_Node000018_Node000013"><a xlink:title=" ">
<path fill="none" stroke="#63b8ff" d="M747.45,-122.27C744.56,-121.83 741.69,-121.41 738.88,-121 643.46,-107.11 533.11,-93.57 461.77,-85.14"/>
<polygon fill="#63b8ff" stroke="#63b8ff" points="461.88,-81.63 451.53,-83.94 461.06,-88.58 461.88,-81.63"/>
</a>
</g>
</g>
</g>
</svg>
