<?xml version="1.0" encoding="UTF-8" standalone="no"?>
<!DOCTYPE svg PUBLIC "-//W3C//DTD SVG 1.1//EN"
 "http://www.w3.org/Graphics/SVG/1.1/DTD/svg11.dtd">
<!-- Generated by graphviz version 2.43.0 (0)
 -->
<!-- Title: controls/DirektKnob.h Pages: 1 -->
<svg width="517pt" height="192pt"
 viewBox="0.00 0.00 516.96 192.00" xmlns="http://www.w3.org/2000/svg" xmlns:xlink="http://www.w3.org/1999/xlink">
<g id="graph0" class="graph" transform="scale(1 1) rotate(0) translate(4 188)">
<title>controls/DirektKnob.h</title>
<!-- Node1 -->
<g id="Node000001" class="node">
<title>Node1</title>
<g id="a_Node000001"><a xlink:title=" ">
<polygon fill="#999999" stroke="#666666" points="220.96,-184 98.96,-184 98.96,-165 220.96,-165 220.96,-184"/>
<text text-anchor="middle" x="159.96" y="-172" font-family="Helvetica,sans-Serif" font-size="10.00">controls/DirektKnob.h</text>
</a>
</g>
</g>
<!-- Node2 -->
<g id="Node000002" class="node">
<title>Node2</title>
<g id="a_Node000002"><a xlink:href="DirektDSP_8h.html" target="_top" xlink:title=" ">
<polygon fill="white" stroke="#666666" points="117.96,-19 43.96,-19 43.96,0 117.96,0 117.96,-19"/>
<text text-anchor="middle" x="80.96" y="-7" font-family="Helvetica,sans-Serif" font-size="10.00">DirektDSP.h</text>
</a>
</g>
</g>
<!-- Node1&#45;&gt;Node2 -->
<g id="edge1_Node000001_Node000002" class="edge">
<title>Node1&#45;&gt;Node2</title>
<g id="a_edge1_Node000001_Node000002"><a xlink:title=" ">
<path fill="none" stroke="#63b8ff" d="M97.13,-162.92C60.36,-155.31 19.04,-143.78 7.96,-129 -21.16,-90.13 40.45,-39.25 68.27,-19.18"/>
<polygon fill="#63b8ff" stroke="#63b8ff" points="96.85,-166.44 107.35,-164.96 98.23,-159.57 96.85,-166.44"/>
</a>
</g>
</g>
<!-- Node3 -->
<g id="Node000003" class="node">
<title>Node3</title>
<g id="a_Node000003"><a xlink:href="DirektKnob_8cpp.html" target="_top" xlink:title=" ">
<polygon fill="white" stroke="#666666" points="150.96,-129 16.96,-129 16.96,-110 150.96,-110 150.96,-129"/>
<text text-anchor="middle" x="83.96" y="-117" font-family="Helvetica,sans-Serif" font-size="10.00">controls/DirektKnob.cpp</text>
</a>
</g>
</g>
<!-- Node1&#45;&gt;Node3 -->
<g id="edge2_Node000001_Node000003" class="edge">
<title>Node1&#45;&gt;Node3</title>
<g id="a_edge2_Node000001_Node000003"><a xlink:title=" ">
<path fill="none" stroke="#63b8ff" d="M139.38,-159.15C125.65,-149.57 108.03,-137.29 96.39,-129.17"/>
<polygon fill="#63b8ff" stroke="#63b8ff" points="137.54,-162.14 147.75,-164.98 141.55,-156.39 137.54,-162.14"/>
</a>
</g>
</g>
<!-- Node4 -->
<g id="Node000004" class="node">
<title>Node4</title>
<g id="a_Node000004"><a xlink:href="DirektAutoLayout_8h.html" target="_top" xlink:title=" ">
<polygon fill="white" stroke="#666666" points="304.46,-129 169.46,-129 169.46,-110 304.46,-110 304.46,-129"/>
<text text-anchor="middle" x="236.96" y="-117" font-family="Helvetica,sans-Serif" font-size="10.00">core/DirektAutoLayout.h</text>
</a>
</g>
</g>
<!-- Node1&#45;&gt;Node4 -->
<g id="edge3_Node000001_Node000004" class="edge">
<title>Node1&#45;&gt;Node4</title>
<g id="a_edge3_Node000001_Node000004"><a xlink:title=" ">
<path fill="none" stroke="#63b8ff" d="M180.81,-159.15C194.72,-149.57 212.57,-137.29 224.36,-129.17"/>
<polygon fill="#63b8ff" stroke="#63b8ff" points="178.58,-156.43 172.33,-164.98 182.55,-162.2 178.58,-156.43"/>
</a>
</g>
</g>
<!-- Node8 -->
<g id="Node000008" class="node">
<title>Node8</title>
<g id="a_Node000008"><a xlink:href="DirektComponentRegistry_8cpp.html" target="_top" xlink:title=" ">
<polygon fill="white" stroke="#666666" points="508.96,-129 322.96,-129 322.96,-110 508.96,-110 508.96,-129"/>
<text text-anchor="middle" x="415.96" y="-117" font-family="Helvetica,sans-Serif" font-size="10.00">core/DirektComponentRegistry.cpp</text>
</a>
</g>
</g>
<!-- Node1&#45;&gt;Node8 -->
<g id="edge9_Node000001_Node000008" class="edge">
<title>Node1&#45;&gt;Node8</title>
<g id="a_edge9_Node000001_Node000008"><a xlink:title=" ">
<path fill="none" stroke="#63b8ff" d="M210.96,-162.94C258.95,-153.01 329.91,-138.31 374.51,-129.08"/>
<polygon fill="#63b8ff" stroke="#63b8ff" points="210.17,-159.53 201.09,-164.98 211.59,-166.38 210.17,-159.53"/>
</a>
</g>
</g>
<!-- Node4&#45;&gt;Node2 -->
<g id="edge4_Node000004_Node000002" class="edge">
<title>Node4&#45;&gt;Node2</title>
<g id="a_edge4_Node000004_Node000002"><a xlink:title=" ">
<path fill="none" stroke="#63b8ff" d="M159.44,-107.17C137.8,-100.62 115.87,-90.29 99.96,-74 85.16,-58.85 81.82,-32.68 81.11,-19.15"/>
<polygon fill="#63b8ff" stroke="#63b8ff" points="158.77,-110.62 169.35,-109.92 160.65,-103.87 158.77,-110.62"/>
</a>
</g>
</g>
<!-- Node5 -->
<g id="Node000005" class="node">
<title>Node5</title>
<g id="a_Node000005"><a xlink:href="DirektAutoLayout_8cpp.html" target="_top" xlink:title=" ">
<polygon fill="white" stroke="#666666" points="254.96,-74 108.96,-74 108.96,-55 254.96,-55 254.96,-74"/>
<text text-anchor="middle" x="181.96" y="-62" font-family="Helvetica,sans-Serif" font-size="10.00">core/DirektAutoLayout.cpp</text>
</a>
</g>
</g>
<!-- Node4&#45;&gt;Node5 -->
<g id="edge5_Node000004_Node000005" class="edge">
<title>Node4&#45;&gt;Node5</title>
<g id="a_edge5_Node000004_Node000005"><a xlink:title=" ">
<path fill="none" stroke="#63b8ff" d="M220.66,-102.8C210.92,-93.41 198.91,-81.83 190.87,-74.09"/>
<polygon fill="#63b8ff" stroke="#63b8ff" points="218.25,-105.33 227.88,-109.75 223.1,-100.29 218.25,-105.33"/>
</a>
</g>
</g>
<!-- Node6 -->
<g id="Node000006" class="node">
<title>Node6</title>
<g id="a_Node000006"><a xlink:href="DirektBaseEditor_8h.html" target="_top" xlink:title=" ">
<polygon fill="white" stroke="#666666" points="404.46,-74 273.46,-74 273.46,-55 404.46,-55 404.46,-74"/>
<text text-anchor="middle" x="338.96" y="-62" font-family="Helvetica,sans-Serif" font-size="10.00">core/DirektBaseEditor.h</text>
</a>
</g>
</g>
<!-- Node4&#45;&gt;Node6 -->
<g id="edge6_Node000004_Node000006" class="edge">
<title>Node4&#45;&gt;Node6</title>
<g id="a_edge6_Node000004_Node000006"><a xlink:title=" ">
<path fill="none" stroke="#63b8ff" d="M262.23,-105.37C280.97,-95.63 305.98,-82.64 322.27,-74.17"/>
<polygon fill="#63b8ff" stroke="#63b8ff" points="260.61,-102.27 253.35,-109.98 263.83,-108.48 260.61,-102.27"/>
</a>
</g>
</g>
<!-- Node6&#45;&gt;Node2 -->
<g id="edge7_Node000006_Node000002" class="edge">
<title>Node6&#45;&gt;Node2</title>
<g id="a_edge7_Node000006_Node000002"><a xlink:title=" ">
<path fill="none" stroke="#63b8ff" d="M287.53,-52.94C237.48,-42.65 162.64,-27.28 118.12,-18.13"/>
<polygon fill="#63b8ff" stroke="#63b8ff" points="287.01,-56.4 297.51,-54.98 288.42,-49.54 287.01,-56.4"/>
</a>
</g>
</g>
<!-- Node7 -->
<g id="Node000007" class="node">
<title>Node7</title>
<g id="a_Node000007"><a xlink:href="DirektBaseEditor_8cpp.html" target="_top" xlink:title=" ">
<polygon fill="white" stroke="#666666" points="410.46,-19 267.46,-19 267.46,0 410.46,0 410.46,-19"/>
<text text-anchor="middle" x="338.96" y="-7" font-family="Helvetica,sans-Serif" font-size="10.00">core/DirektBaseEditor.cpp</text>
</a>
</g>
</g>
<!-- Node6&#45;&gt;Node7 -->
<g id="edge8_Node000006_Node000007" class="edge">
<title>Node6&#45;&gt;Node7</title>
<g id="a_edge8_Node000006_Node000007"><a xlink:title=" ">
<path fill="none" stroke="#63b8ff" d="M338.96,-44.66C338.96,-35.93 338.96,-25.99 338.96,-19.09"/>
<polygon fill="#63b8ff" stroke="#63b8ff" points="335.46,-44.75 338.96,-54.75 342.46,-44.75 335.46,-44.75"/>
</a>
</g>
</g>
</g>
</svg>
