<?xml version="1.0" encoding="UTF-8" standalone="no"?>
<!DOCTYPE svg PUBLIC "-//W3C//DTD SVG 1.1//EN"
 "http://www.w3.org/Graphics/SVG/1.1/DTD/svg11.dtd">
<!-- Generated by graphviz version 2.43.0 (0)
 -->
<!-- Title: layout/DirektModuleBypassSoloStrip.h Pages: 1 -->
<svg width="819pt" height="170pt"
 viewBox="0.00 0.00 819.00 170.00" xmlns="http://www.w3.org/2000/svg" xmlns:xlink="http://www.w3.org/1999/xlink">
<g id="graph0" class="graph" transform="scale(1 1) rotate(0) translate(4 166)">
<title>layout/DirektModuleBypassSoloStrip.h</title>
<!-- Node1 -->
<g id="Node000001" class="node">
<title>Node1</title>
<g id="a_Node000001"><a xlink:title=" ">
<polygon fill="#999999" stroke="#666666" points="468.5,-162 316.5,-162 316.5,-132 468.5,-132 468.5,-162"/>
<text text-anchor="start" x="324.5" y="-150" font-family="Helvetica,sans-Serif" font-size="10.00">layout/DirektModuleBypass</text>
<text text-anchor="middle" x="392.5" y="-139" font-family="Helvetica,sans-Serif" font-size="10.00">SoloStrip.h</text>
</a>
</g>
</g>
<!-- Node2 -->
<g id="Node000002" class="node">
<title>Node2</title>
<g id="a_Node000002"><a xlink:href="DirektDSP_8h.html" target="_top" xlink:title=" ">
<polygon fill="white" stroke="#666666" points="117.5,-90.5 43.5,-90.5 43.5,-71.5 117.5,-71.5 117.5,-90.5"/>
<text text-anchor="middle" x="80.5" y="-78.5" font-family="Helvetica,sans-Serif" font-size="10.00">DirektDSP.h</text>
</a>
</g>
</g>
<!-- Node1&#45;&gt;Node2 -->
<g id="edge1_Node000001_Node000002" class="edge">
<title>Node1&#45;&gt;Node2</title>
<g id="a_edge1_Node000001_Node000002"><a xlink:title=" ">
<path fill="none" stroke="#63b8ff" d="M306.44,-132.29C254.1,-123.34 186.09,-110.62 126.5,-96 120.18,-94.45 113.44,-92.54 107.12,-90.64"/>
<polygon fill="#63b8ff" stroke="#63b8ff" points="305.91,-135.75 316.35,-133.97 307.08,-128.84 305.91,-135.75"/>
</a>
</g>
</g>
<!-- Node4 -->
<g id="Node000004" class="node">
<title>Node4</title>
<g id="a_Node000004"><a xlink:href="DirektAutoLayout_8cpp.html" target="_top" xlink:title=" ">
<polygon fill="white" stroke="#666666" points="281.5,-90.5 135.5,-90.5 135.5,-71.5 281.5,-71.5 281.5,-90.5"/>
<text text-anchor="middle" x="208.5" y="-78.5" font-family="Helvetica,sans-Serif" font-size="10.00">core/DirektAutoLayout.cpp</text>
</a>
</g>
</g>
<!-- Node1&#45;&gt;Node4 -->
<g id="edge3_Node000001_Node000004" class="edge">
<title>Node1&#45;&gt;Node4</title>
<g id="a_edge3_Node000001_Node000004"><a xlink:title=" ">
<path fill="none" stroke="#63b8ff" d="M342.41,-128.58C306.9,-116.23 260.79,-100.19 232.99,-90.52"/>
<polygon fill="#63b8ff" stroke="#63b8ff" points="341.53,-131.98 352.12,-131.95 343.83,-125.36 341.53,-131.98"/>
</a>
</g>
</g>
<!-- Node5 -->
<g id="Node000005" class="node">
<title>Node5</title>
<g id="a_Node000005"><a xlink:href="DirektComponentRegistry_8cpp.html" target="_top" xlink:title=" ">
<polygon fill="white" stroke="#666666" points="485.5,-90.5 299.5,-90.5 299.5,-71.5 485.5,-71.5 485.5,-90.5"/>
<text text-anchor="middle" x="392.5" y="-78.5" font-family="Helvetica,sans-Serif" font-size="10.00">core/DirektComponentRegistry.cpp</text>
</a>
</g>
</g>
<!-- Node1&#45;&gt;Node5 -->
<g id="edge4_Node000001_Node000005" class="edge">
<title>Node1&#45;&gt;Node5</title>
<g id="a_edge4_Node000001_Node000005"><a xlink:title=" ">
<path fill="none" stroke="#63b8ff" d="M392.5,-121.6C392.5,-110.8 392.5,-98.78 392.5,-90.84"/>
<polygon fill="#63b8ff" stroke="#63b8ff" points="389,-121.8 392.5,-131.8 396,-121.8 389,-121.8"/>
</a>
</g>
</g>
<!-- Node6 -->
<g id="Node000006" class="node">
<title>Node6</title>
<g id="a_Node000006"><a xlink:href="DirektModuleBypassSoloStrip_8cpp.html" target="_top" xlink:title=" ">
<polygon fill="white" stroke="#666666" points="655.5,-96 503.5,-96 503.5,-66 655.5,-66 655.5,-96"/>
<text text-anchor="start" x="511.5" y="-84" font-family="Helvetica,sans-Serif" font-size="10.00">layout/DirektModuleBypass</text>
<text text-anchor="middle" x="579.5" y="-73" font-family="Helvetica,sans-Serif" font-size="10.00">SoloStrip.cpp</text>
</a>
</g>
</g>
<!-- Node1&#45;&gt;Node6 -->
<g id="edge5_Node000001_Node000006" class="edge">
<title>Node1&#45;&gt;Node6</title>
<g id="a_edge5_Node000001_Node000006"><a xlink:title=" ">
<path fill="none" stroke="#63b8ff" d="M443.37,-128.59C473.27,-118.36 510.57,-105.59 538.56,-96.01"/>
<polygon fill="#63b8ff" stroke="#63b8ff" points="441.87,-125.41 433.54,-131.95 444.13,-132.03 441.87,-125.41"/>
</a>
</g>
</g>
<!-- Node7 -->
<g id="Node000007" class="node">
<title>Node7</title>
<g id="a_Node000007"><a xlink:href="DirektSection_8cpp.html" target="_top" xlink:title=" ">
<polygon fill="white" stroke="#666666" points="811,-90.5 674,-90.5 674,-71.5 811,-71.5 811,-90.5"/>
<text text-anchor="middle" x="742.5" y="-78.5" font-family="Helvetica,sans-Serif" font-size="10.00">layout/DirektSection.cpp</text>
</a>
</g>
</g>
<!-- Node1&#45;&gt;Node7 -->
<g id="edge6_Node000001_Node000007" class="edge">
<title>Node1&#45;&gt;Node7</title>
<g id="a_edge6_Node000001_Node000007"><a xlink:title=" ">
<path fill="none" stroke="#63b8ff" d="M478.8,-130.22C547.33,-117.69 640.52,-100.65 695.8,-90.54"/>
<polygon fill="#63b8ff" stroke="#63b8ff" points="478.08,-126.79 468.88,-132.03 479.34,-133.68 478.08,-126.79"/>
</a>
</g>
</g>
<!-- Node3 -->
<g id="Node000003" class="node">
<title>Node3</title>
<g id="a_Node000003"><a xlink:href="StandaloneTestProcessor_8cpp.html" target="_top" xlink:title=" ">
<polygon fill="white" stroke="#666666" points="161,-30 0,-30 0,0 161,0 161,-30"/>
<text text-anchor="start" x="8" y="-18" font-family="Helvetica,sans-Serif" font-size="10.00">examples/StandaloneTest</text>
<text text-anchor="middle" x="80.5" y="-7" font-family="Helvetica,sans-Serif" font-size="10.00">/StandaloneTestProcessor.cpp</text>
</a>
</g>
</g>
<!-- Node2&#45;&gt;Node3 -->
<g id="edge2_Node000002_Node000003" class="edge">
<title>Node2&#45;&gt;Node3</title>
<g id="a_edge2_Node000002_Node000003"><a xlink:title=" ">
<path fill="none" stroke="#63b8ff" d="M80.5,-61.35C80.5,-51.47 80.5,-39.51 80.5,-30.36"/>
<polygon fill="#63b8ff" stroke="#63b8ff" points="77,-61.37 80.5,-71.37 84,-61.37 77,-61.37"/>
</a>
</g>
</g>
</g>
</svg>
