<?xml version="1.0" encoding="UTF-8" standalone="no"?>
<!DOCTYPE svg PUBLIC "-//W3C//DTD SVG 1.1//EN"
 "http://www.w3.org/Graphics/SVG/1.1/DTD/svg11.dtd">
<!-- Generated by graphviz version 2.43.0 (0)
 -->
<!-- Title: core/DirektComponentRegistry.cpp Pages: 1 -->
<svg width="1739pt" height="203pt"
 viewBox="0.00 0.00 1738.95 203.00" xmlns="http://www.w3.org/2000/svg" xmlns:xlink="http://www.w3.org/1999/xlink">
<g id="graph0" class="graph" transform="scale(1 1) rotate(0) translate(4 199)">
<title>core/DirektComponentRegistry.cpp</title>
<!-- Node1 -->
<g id="Node000001" class="node">
<title>Node1</title>
<g id="a_Node000001"><a xlink:title=" ">
<polygon fill="#999999" stroke="#666666" points="1122.95,-195 936.95,-195 936.95,-176 1122.95,-176 1122.95,-195"/>
<text text-anchor="middle" x="1029.95" y="-183" font-family="Helvetica,sans-Serif" font-size="10.00">core/DirektComponentRegistry.cpp</text>
</a>
</g>
</g>
<!-- Node2 -->
<g id="Node000002" class="node">
<title>Node2</title>
<g id="a_Node000002"><a xlink:href="DirektComponentRegistry_8h.html" target="_top" xlink:title=" ">
<polygon fill="white" stroke="#666666" points="426.45,-140 251.45,-140 251.45,-121 426.45,-121 426.45,-140"/>
<text text-anchor="middle" x="338.95" y="-128" font-family="Helvetica,sans-Serif" font-size="10.00">core/DirektComponentRegistry.h</text>
</a>
</g>
</g>
<!-- Node1&#45;&gt;Node2 -->
<g id="edge1_Node000001_Node000002" class="edge">
<title>Node1&#45;&gt;Node2</title>
<g id="a_edge1_Node000001_Node000002"><a xlink:title=" ">
<path fill="none" stroke="#63b8ff" d="M936.76,-177.35C806.16,-167.34 569.81,-149.21 436.77,-139"/>
<polygon fill="#63b8ff" stroke="#63b8ff" points="436.82,-135.5 426.58,-138.22 436.28,-142.48 436.82,-135.5"/>
</a>
</g>
</g>
<!-- Node13 -->
<g id="Node000013" class="node">
<title>Node13</title>
<g id="a_Node000013"><a xlink:href="DirektComboBox_8h.html" target="_top" xlink:title=" ">
<polygon fill="white" stroke="#666666" points="981.45,-85 830.45,-85 830.45,-66 981.45,-66 981.45,-85"/>
<text text-anchor="middle" x="905.95" y="-73" font-family="Helvetica,sans-Serif" font-size="10.00">controls/DirektComboBox.h</text>
</a>
</g>
</g>
<!-- Node1&#45;&gt;Node13 -->
<g id="edge18_Node000001_Node000013" class="edge">
<title>Node1&#45;&gt;Node13</title>
<g id="a_edge18_Node000001_Node000013"><a xlink:title=" ">
<path fill="none" stroke="#63b8ff" d="M936.9,-179.71C876.05,-174.4 804.38,-163.27 784.95,-140 763.11,-113.84 803.88,-97.04 843.88,-87.34"/>
<polygon fill="#63b8ff" stroke="#63b8ff" points="844.75,-90.73 853.72,-85.08 843.19,-83.91 844.75,-90.73"/>
</a>
</g>
</g>
<!-- Node14 -->
<g id="Node000014" class="node">
<title>Node14</title>
<g id="a_Node000014"><a xlink:href="DirektKnob_8h.html" target="_top" xlink:title=" ">
<polygon fill="white" stroke="#666666" points="626.95,-85 504.95,-85 504.95,-66 626.95,-66 626.95,-85"/>
<text text-anchor="middle" x="565.95" y="-73" font-family="Helvetica,sans-Serif" font-size="10.00">controls/DirektKnob.h</text>
</a>
</g>
</g>
<!-- Node1&#45;&gt;Node14 -->
<g id="edge21_Node000001_Node000014" class="edge">
<title>Node1&#45;&gt;Node14</title>
<g id="a_edge21_Node000001_Node000014"><a xlink:title=" ">
<path fill="none" stroke="#63b8ff" d="M956.92,-175.99C901.12,-168.7 822.56,-156.71 754.95,-140 698.28,-125.99 634.25,-102.88 597.16,-88.74"/>
<polygon fill="#63b8ff" stroke="#63b8ff" points="598.02,-85.33 587.43,-85.01 595.51,-91.86 598.02,-85.33"/>
</a>
</g>
</g>
<!-- Node15 -->
<g id="Node000015" class="node">
<title>Node15</title>
<g id="a_Node000015"><a xlink:href="DirektToggle_8h.html" target="_top" xlink:title=" ">
<polygon fill="white" stroke="#666666" points="812.45,-85 683.45,-85 683.45,-66 812.45,-66 812.45,-85"/>
<text text-anchor="middle" x="747.95" y="-73" font-family="Helvetica,sans-Serif" font-size="10.00">controls/DirektToggle.h</text>
</a>
</g>
</g>
<!-- Node1&#45;&gt;Node15 -->
<g id="edge24_Node000001_Node000015" class="edge">
<title>Node1&#45;&gt;Node15</title>
<g id="a_edge24_Node000001_Node000015"><a xlink:title=" ">
<path fill="none" stroke="#63b8ff" d="M936.72,-177.72C874.15,-171.44 798.78,-159.96 773.95,-140 760.19,-128.94 753.65,-109.4 750.58,-94.91"/>
<polygon fill="#63b8ff" stroke="#63b8ff" points="754.02,-94.28 748.85,-85.03 747.13,-95.49 754.02,-94.28"/>
</a>
</g>
</g>
<!-- Node16 -->
<g id="Node000016" class="node">
<title>Node16</title>
<g id="a_Node000016"><a xlink:href="DirektLabel_8h.html" target="_top" xlink:title=" ">
<polygon fill="white" stroke="#666666" points="1560.95,-140 1440.95,-140 1440.95,-121 1560.95,-121 1560.95,-140"/>
<text text-anchor="middle" x="1500.95" y="-128" font-family="Helvetica,sans-Serif" font-size="10.00">display/DirektLabel.h</text>
</a>
</g>
</g>
<!-- Node1&#45;&gt;Node16 -->
<g id="edge27_Node000001_Node000016" class="edge">
<title>Node1&#45;&gt;Node16</title>
<g id="a_edge27_Node000001_Node000016"><a xlink:title=" ">
<path fill="none" stroke="#63b8ff" d="M1109.69,-175.97C1188.53,-167.46 1312.9,-153.87 1430.48,-140.16"/>
<polygon fill="#63b8ff" stroke="#63b8ff" points="1431.22,-143.6 1440.74,-138.96 1430.41,-136.64 1431.22,-143.6"/>
</a>
</g>
</g>
<!-- Node17 -->
<g id="Node000017" class="node">
<title>Node17</title>
<g id="a_Node000017"><a xlink:href="DirektColours_8h.html" target="_top" xlink:title=" ">
<polygon fill="white" stroke="#666666" points="1355.45,-85 1228.45,-85 1228.45,-66 1355.45,-66 1355.45,-85"/>
<text text-anchor="middle" x="1291.95" y="-73" font-family="Helvetica,sans-Serif" font-size="10.00">theme/DirektColours.h</text>
</a>
</g>
</g>
<!-- Node1&#45;&gt;Node17 -->
<g id="edge46_Node000001_Node000017" class="edge">
<title>Node1&#45;&gt;Node17</title>
<g id="a_edge46_Node000001_Node000017"><a xlink:title=" ">
<path fill="none" stroke="#63b8ff" d="M1123.1,-181.63C1164.83,-176.52 1212.87,-164.99 1249.95,-140 1266.35,-128.94 1277.93,-109.11 1284.72,-94.54"/>
<polygon fill="#63b8ff" stroke="#63b8ff" points="1288.06,-95.63 1288.82,-85.07 1281.64,-92.86 1288.06,-95.63"/>
</a>
</g>
</g>
<!-- Node18 -->
<g id="Node000018" class="node">
<title>Node18</title>
<g id="a_Node000018"><a xlink:href="DirektMeter_8h.html" target="_top" xlink:title=" ">
<polygon fill="white" stroke="#666666" points="1090.95,-140 968.95,-140 968.95,-121 1090.95,-121 1090.95,-140"/>
<text text-anchor="middle" x="1029.95" y="-128" font-family="Helvetica,sans-Serif" font-size="10.00">display/DirektMeter.h</text>
</a>
</g>
</g>
<!-- Node1&#45;&gt;Node18 -->
<g id="edge31_Node000001_Node000018" class="edge">
<title>Node1&#45;&gt;Node18</title>
<g id="a_edge31_Node000001_Node000018"><a xlink:title=" ">
<path fill="none" stroke="#63b8ff" d="M1029.95,-175.75C1029.95,-168.8 1029.95,-158.85 1029.95,-150.13"/>
<polygon fill="#63b8ff" stroke="#63b8ff" points="1033.45,-150.09 1029.95,-140.09 1026.45,-150.09 1033.45,-150.09"/>
</a>
</g>
</g>
<!-- Node19 -->
<g id="Node000019" class="node">
<title>Node19</title>
<g id="a_Node000019"><a xlink:href="DirektFlexContainer_8h.html" target="_top" xlink:title=" ">
<polygon fill="white" stroke="#666666" points="950.45,-140 793.45,-140 793.45,-121 950.45,-121 950.45,-140"/>
<text text-anchor="middle" x="871.95" y="-128" font-family="Helvetica,sans-Serif" font-size="10.00">layout/DirektFlexContainer.h</text>
</a>
</g>
</g>
<!-- Node1&#45;&gt;Node19 -->
<g id="edge35_Node000001_Node000019" class="edge">
<title>Node1&#45;&gt;Node19</title>
<g id="a_edge35_Node000001_Node000019"><a xlink:title=" ">
<path fill="none" stroke="#63b8ff" d="M1004.56,-175.98C978.15,-167.13 936.6,-153.19 907.06,-143.28"/>
<polygon fill="#63b8ff" stroke="#63b8ff" points="908.13,-139.94 897.53,-140.08 905.9,-146.58 908.13,-139.94"/>
</a>
</g>
</g>
<!-- Node20 -->
<g id="Node000020" class="node">
<title>Node20</title>
<g id="a_Node000020"><a xlink:href="DirektSection_8h.html" target="_top" xlink:title=" ">
<polygon fill="white" stroke="#666666" points="1422.45,-140 1297.45,-140 1297.45,-121 1422.45,-121 1422.45,-140"/>
<text text-anchor="middle" x="1359.95" y="-128" font-family="Helvetica,sans-Serif" font-size="10.00">layout/DirektSection.h</text>
</a>
</g>
</g>
<!-- Node1&#45;&gt;Node20 -->
<g id="edge39_Node000001_Node000020" class="edge">
<title>Node1&#45;&gt;Node20</title>
<g id="a_edge39_Node000001_Node000020"><a xlink:title=" ">
<path fill="none" stroke="#63b8ff" d="M1082.97,-175.98C1141.22,-166.63 1234.72,-151.61 1296.73,-141.65"/>
<polygon fill="#63b8ff" stroke="#63b8ff" points="1297.47,-145.08 1306.79,-140.04 1296.36,-138.17 1297.47,-145.08"/>
</a>
</g>
</g>
<!-- Node21 -->
<g id="Node000021" class="node">
<title>Node21</title>
<g id="a_Node000021"><a xlink:href="DirektTabPanel_8h.html" target="_top" xlink:title=" ">
<polygon fill="white" stroke="#666666" points="1240.95,-140 1108.95,-140 1108.95,-121 1240.95,-121 1240.95,-140"/>
<text text-anchor="middle" x="1174.95" y="-128" font-family="Helvetica,sans-Serif" font-size="10.00">layout/DirektTabPanel.h</text>
</a>
</g>
</g>
<!-- Node1&#45;&gt;Node21 -->
<g id="edge42_Node000001_Node000021" class="edge">
<title>Node1&#45;&gt;Node21</title>
<g id="a_edge42_Node000001_Node000021"><a xlink:title=" ">
<path fill="none" stroke="#63b8ff" d="M1053.25,-175.98C1077.2,-167.23 1114.73,-153.51 1141.78,-143.62"/>
<polygon fill="#63b8ff" stroke="#63b8ff" points="1143.04,-146.89 1151.23,-140.17 1140.64,-140.32 1143.04,-146.89"/>
</a>
</g>
</g>
<!-- Node22 -->
<g id="Node000022" class="node">
<title>Node22</title>
<g id="a_Node000022"><a xlink:href="DirektLookAndFeel_8h.html" target="_top" xlink:title=" ">
<polygon fill="white" stroke="#666666" points="1730.95,-140 1578.95,-140 1578.95,-121 1730.95,-121 1730.95,-140"/>
<text text-anchor="middle" x="1654.95" y="-128" font-family="Helvetica,sans-Serif" font-size="10.00">theme/DirektLookAndFeel.h</text>
</a>
</g>
</g>
<!-- Node1&#45;&gt;Node22 -->
<g id="edge47_Node000001_Node000022" class="edge">
<title>Node1&#45;&gt;Node22</title>
<g id="a_edge47_Node000001_Node000022"><a xlink:title=" ">
<path fill="none" stroke="#63b8ff" d="M1123.16,-177.32C1228.62,-169.07 1405.82,-154.89 1568.31,-140.14"/>
<polygon fill="#63b8ff" stroke="#63b8ff" points="1568.86,-143.6 1578.5,-139.21 1568.22,-136.63 1568.86,-143.6"/>
</a>
</g>
</g>
<!-- Node3 -->
<g id="Node000003" class="node">
<title>Node3</title>
<g id="a_Node000003"><a xlink:title=" ">
<polygon fill="#e0e0e0" stroke="#999999" points="635.45,-30 496.45,-30 496.45,0 635.45,0 635.45,-30"/>
<text text-anchor="start" x="504.45" y="-18" font-family="Helvetica,sans-Serif" font-size="10.00">juce_audio_processors</text>
<text text-anchor="middle" x="565.95" y="-7" font-family="Helvetica,sans-Serif" font-size="10.00">/juce_audio_processors.h</text>
</a>
</g>
</g>
<!-- Node2&#45;&gt;Node3 -->
<g id="edge2_Node000002_Node000003" class="edge">
<title>Node2&#45;&gt;Node3</title>
<g id="a_edge2_Node000002_Node000003"><a xlink:title=" ">
<path fill="none" stroke="#63b8ff" d="M355.34,-120.97C379.02,-108.67 424.21,-85.32 462.95,-66 484.2,-55.4 508.04,-43.81 527.43,-34.46"/>
<polygon fill="#63b8ff" stroke="#63b8ff" points="529.08,-37.55 536.57,-30.06 526.04,-31.24 529.08,-37.55"/>
</a>
</g>
</g>
<!-- Node4 -->
<g id="Node000004" class="node">
<title>Node4</title>
<g id="a_Node000004"><a xlink:title=" ">
<polygon fill="#e0e0e0" stroke="#999999" points="1181.95,-30 1065.95,-30 1065.95,0 1181.95,0 1181.95,-30"/>
<text text-anchor="start" x="1073.95" y="-18" font-family="Helvetica,sans-Serif" font-size="10.00">juce_gui_basics/juce</text>
<text text-anchor="middle" x="1123.95" y="-7" font-family="Helvetica,sans-Serif" font-size="10.00">_gui_basics.h</text>
</a>
</g>
</g>
<!-- Node2&#45;&gt;Node4 -->
<g id="edge3_Node000002_Node000004" class="edge">
<title>Node2&#45;&gt;Node4</title>
<g id="a_edge3_Node000002_Node000004"><a xlink:title=" ">
<path fill="none" stroke="#63b8ff" d="M426.61,-123.42C486.59,-117.56 567.36,-106.3 635.95,-85 654.36,-79.28 656.43,-71.37 674.95,-66 677.22,-65.34 930.18,-37.38 1055.36,-23.56"/>
<polygon fill="#63b8ff" stroke="#63b8ff" points="1056.05,-27.01 1065.61,-22.43 1055.29,-20.05 1056.05,-27.01"/>
</a>
</g>
</g>
<!-- Node5 -->
<g id="Node000005" class="node">
<title>Node5</title>
<g id="a_Node000005"><a xlink:title=" ">
<polygon fill="#e0e0e0" stroke="#999999" points="249.45,-85 184.45,-85 184.45,-66 249.45,-66 249.45,-85"/>
<text text-anchor="middle" x="216.95" y="-73" font-family="Helvetica,sans-Serif" font-size="10.00">functional</text>
</a>
</g>
</g>
<!-- Node2&#45;&gt;Node5 -->
<g id="edge4_Node000002_Node000005" class="edge">
<title>Node2&#45;&gt;Node5</title>
<g id="a_edge4_Node000002_Node000005"><a xlink:title=" ">
<path fill="none" stroke="#63b8ff" d="M319.35,-120.98C299.63,-112.42 269,-99.11 246.37,-89.28"/>
<polygon fill="#63b8ff" stroke="#63b8ff" points="247.47,-85.94 236.91,-85.17 244.69,-92.37 247.47,-85.94"/>
</a>
</g>
</g>
<!-- Node6 -->
<g id="Node000006" class="node">
<title>Node6</title>
<g id="a_Node000006"><a xlink:title=" ">
<polygon fill="#e0e0e0" stroke="#999999" points="113.95,-24.5 75.95,-24.5 75.95,-5.5 113.95,-5.5 113.95,-24.5"/>
<text text-anchor="middle" x="94.95" y="-12.5" font-family="Helvetica,sans-Serif" font-size="10.00">map</text>
</a>
</g>
</g>
<!-- Node2&#45;&gt;Node6 -->
<g id="edge5_Node000002_Node000006" class="edge">
<title>Node2&#45;&gt;Node6</title>
<g id="a_edge5_Node000002_Node000006"><a xlink:title=" ">
<path fill="none" stroke="#63b8ff" d="M251.17,-123.68C157.99,-116.6 21.94,-103.27 5.95,-85 -16.44,-59.42 32.62,-36.77 66.42,-24.86"/>
<polygon fill="#63b8ff" stroke="#63b8ff" points="67.54,-28.17 75.89,-21.65 65.3,-21.54 67.54,-28.17"/>
</a>
</g>
</g>
<!-- Node7 -->
<g id="Node000007" class="node">
<title>Node7</title>
<g id="a_Node000007"><a xlink:title=" ">
<polygon fill="#e0e0e0" stroke="#999999" points="242.95,-24.5 184.95,-24.5 184.95,-5.5 242.95,-5.5 242.95,-24.5"/>
<text text-anchor="middle" x="213.95" y="-12.5" font-family="Helvetica,sans-Serif" font-size="10.00">memory</text>
</a>
</g>
</g>
<!-- Node2&#45;&gt;Node7 -->
<g id="edge6_Node000002_Node000007" class="edge">
<title>Node2&#45;&gt;Node7</title>
<g id="a_edge6_Node000002_Node000007"><a xlink:title=" ">
<path fill="none" stroke="#63b8ff" d="M251.15,-129.95C165.61,-128.29 44.18,-119.65 13.95,-85 8.4,-78.64 8.75,-72.66 13.95,-66 23.9,-53.25 119.5,-33.58 174.85,-23.12"/>
<polygon fill="#63b8ff" stroke="#63b8ff" points="175.5,-26.56 184.68,-21.27 174.21,-19.68 175.5,-26.56"/>
</a>
</g>
</g>
<!-- Node8 -->
<g id="Node000008" class="node">
<title>Node8</title>
<g id="a_Node000008"><a xlink:title=" ">
<polygon fill="#e0e0e0" stroke="#999999" points="987.45,-24.5 940.45,-24.5 940.45,-5.5 987.45,-5.5 987.45,-24.5"/>
<text text-anchor="middle" x="963.95" y="-12.5" font-family="Helvetica,sans-Serif" font-size="10.00">vector</text>
</a>
</g>
</g>
<!-- Node2&#45;&gt;Node8 -->
<g id="edge7_Node000002_Node000008" class="edge">
<title>Node2&#45;&gt;Node8</title>
<g id="a_edge7_Node000002_Node000008"><a xlink:title=" ">
<path fill="none" stroke="#63b8ff" d="M364.58,-120.99C389.12,-112.61 427.02,-99.06 458.95,-85 475.87,-77.55 478.24,-71.29 495.95,-66 516.77,-59.78 826.13,-29.37 930.13,-19.27"/>
<polygon fill="#63b8ff" stroke="#63b8ff" points="930.76,-22.73 940.38,-18.28 930.09,-15.76 930.76,-22.73"/>
</a>
</g>
</g>
<!-- Node9 -->
<g id="Node000009" class="node">
<title>Node9</title>
<g id="a_Node000009"><a xlink:href="DirektDescriptors_8h.html" target="_top" xlink:title=" ">
<polygon fill="white" stroke="#666666" points="410.45,-85 267.45,-85 267.45,-66 410.45,-66 410.45,-85"/>
<text text-anchor="middle" x="338.95" y="-73" font-family="Helvetica,sans-Serif" font-size="10.00">config/DirektDescriptors.h</text>
</a>
</g>
</g>
<!-- Node2&#45;&gt;Node9 -->
<g id="edge8_Node000002_Node000009" class="edge">
<title>Node2&#45;&gt;Node9</title>
<g id="a_edge8_Node000002_Node000009"><a xlink:title=" ">
<path fill="none" stroke="#63b8ff" d="M338.95,-120.75C338.95,-113.8 338.95,-103.85 338.95,-95.13"/>
<polygon fill="#63b8ff" stroke="#63b8ff" points="342.45,-95.09 338.95,-85.09 335.45,-95.09 342.45,-95.09"/>
</a>
</g>
</g>
<!-- Node11 -->
<g id="Node000011" class="node">
<title>Node11</title>
<g id="a_Node000011"><a xlink:href="DirektBuildContext_8h.html" target="_top" xlink:title=" ">
<polygon fill="white" stroke="#666666" points="166.45,-85 23.45,-85 23.45,-66 166.45,-66 166.45,-85"/>
<text text-anchor="middle" x="94.95" y="-73" font-family="Helvetica,sans-Serif" font-size="10.00">core/DirektBuildContext.h</text>
</a>
</g>
</g>
<!-- Node2&#45;&gt;Node11 -->
<g id="edge14_Node000002_Node000011" class="edge">
<title>Node2&#45;&gt;Node11</title>
<g id="a_edge14_Node000002_Node000011"><a xlink:title=" ">
<path fill="none" stroke="#63b8ff" d="M299.75,-120.98C257.54,-111.82 190.3,-97.21 144.47,-87.26"/>
<polygon fill="#63b8ff" stroke="#63b8ff" points="144.97,-83.78 134.46,-85.08 143.49,-90.63 144.97,-83.78"/>
</a>
</g>
</g>
<!-- Node9&#45;&gt;Node4 -->
<g id="edge9_Node000009_Node000004" class="edge">
<title>Node9&#45;&gt;Node4</title>
<g id="a_edge9_Node000009_Node000004"><a xlink:title=" ">
<path fill="none" stroke="#63b8ff" d="M410.59,-70.65C531.56,-63.92 783.97,-48.93 996.95,-30 1016.05,-28.3 1036.74,-26.15 1055.76,-24.05"/>
<polygon fill="#63b8ff" stroke="#63b8ff" points="1056.29,-27.52 1065.83,-22.93 1055.51,-20.56 1056.29,-27.52"/>
</a>
</g>
</g>
<!-- Node9&#45;&gt;Node6 -->
<g id="edge10_Node000009_Node000006" class="edge">
<title>Node9&#45;&gt;Node6</title>
<g id="a_edge10_Node000009_Node000006"><a xlink:title=" ">
<path fill="none" stroke="#63b8ff" d="M303.47,-65.99C255.01,-54.38 169.04,-33.76 124.12,-22.99"/>
<polygon fill="#63b8ff" stroke="#63b8ff" points="124.69,-19.53 114.15,-20.6 123.06,-26.34 124.69,-19.53"/>
</a>
</g>
</g>
<!-- Node9&#45;&gt;Node7 -->
<g id="edge11_Node000009_Node000007" class="edge">
<title>Node9&#45;&gt;Node7</title>
<g id="a_edge11_Node000009_Node000007"><a xlink:title=" ">
<path fill="none" stroke="#63b8ff" d="M320.77,-65.99C299.94,-56.25 265.58,-40.16 241.47,-28.88"/>
<polygon fill="#63b8ff" stroke="#63b8ff" points="242.69,-25.59 232.15,-24.52 239.72,-31.93 242.69,-25.59"/>
</a>
</g>
</g>
<!-- Node9&#45;&gt;Node8 -->
<g id="edge13_Node000009_Node000008" class="edge">
<title>Node9&#45;&gt;Node8</title>
<g id="a_edge13_Node000009_Node000008"><a xlink:title=" ">
<path fill="none" stroke="#63b8ff" d="M410.65,-67.79C545.39,-55.18 831.7,-28.38 929.99,-19.18"/>
<polygon fill="#63b8ff" stroke="#63b8ff" points="930.61,-22.64 940.24,-18.22 929.95,-15.67 930.61,-22.64"/>
</a>
</g>
</g>
<!-- Node10 -->
<g id="Node000010" class="node">
<title>Node10</title>
<g id="a_Node000010"><a xlink:title=" ">
<polygon fill="#e0e0e0" stroke="#999999" points="364.45,-24.5 313.45,-24.5 313.45,-5.5 364.45,-5.5 364.45,-24.5"/>
<text text-anchor="middle" x="338.95" y="-12.5" font-family="Helvetica,sans-Serif" font-size="10.00">variant</text>
</a>
</g>
</g>
<!-- Node9&#45;&gt;Node10 -->
<g id="edge12_Node000009_Node000010" class="edge">
<title>Node9&#45;&gt;Node10</title>
<g id="a_edge12_Node000009_Node000010"><a xlink:title=" ">
<path fill="none" stroke="#63b8ff" d="M338.95,-65.87C338.95,-57.75 338.95,-45.31 338.95,-34.89"/>
<polygon fill="#63b8ff" stroke="#63b8ff" points="342.45,-34.67 338.95,-24.67 335.45,-34.67 342.45,-34.67"/>
</a>
</g>
</g>
<!-- Node11&#45;&gt;Node3 -->
<g id="edge15_Node000011_Node000003" class="edge">
<title>Node11&#45;&gt;Node3</title>
<g id="a_edge15_Node000011_Node000003"><a xlink:title=" ">
<path fill="none" stroke="#63b8ff" d="M163.44,-65.99C249.14,-55.35 395.64,-37.15 486.28,-25.9"/>
<polygon fill="#63b8ff" stroke="#63b8ff" points="486.73,-29.37 496.23,-24.66 485.87,-22.42 486.73,-29.37"/>
</a>
</g>
</g>
<!-- Node11&#45;&gt;Node6 -->
<g id="edge17_Node000011_Node000006" class="edge">
<title>Node11&#45;&gt;Node6</title>
<g id="a_edge17_Node000011_Node000006"><a xlink:title=" ">
<path fill="none" stroke="#63b8ff" d="M94.95,-65.87C94.95,-57.75 94.95,-45.31 94.95,-34.89"/>
<polygon fill="#63b8ff" stroke="#63b8ff" points="98.45,-34.67 94.95,-24.67 91.45,-34.67 98.45,-34.67"/>
</a>
</g>
</g>
<!-- Node12 -->
<g id="Node000012" class="node">
<title>Node12</title>
<g id="a_Node000012"><a xlink:title=" ">
<polygon fill="#e0e0e0" stroke="#999999" points="801.95,-24.5 751.95,-24.5 751.95,-5.5 801.95,-5.5 801.95,-24.5"/>
<text text-anchor="middle" x="776.95" y="-12.5" font-family="Helvetica,sans-Serif" font-size="10.00">atomic</text>
</a>
</g>
</g>
<!-- Node11&#45;&gt;Node12 -->
<g id="edge16_Node000011_Node000012" class="edge">
<title>Node11&#45;&gt;Node12</title>
<g id="a_edge16_Node000011_Node000012"><a xlink:title=" ">
<path fill="none" stroke="#63b8ff" d="M166.47,-66.8C169.33,-66.52 172.17,-66.25 174.95,-66 383.58,-46.93 436.32,-49.05 644.95,-30 677.77,-27 715.12,-22.99 741.69,-20.02"/>
<polygon fill="#63b8ff" stroke="#63b8ff" points="742.12,-23.5 751.67,-18.9 741.34,-16.54 742.12,-23.5"/>
</a>
</g>
</g>
<!-- Node13&#45;&gt;Node3 -->
<g id="edge19_Node000013_Node000003" class="edge">
<title>Node13&#45;&gt;Node3</title>
<g id="a_edge19_Node000013_Node000003"><a xlink:title=" ">
<path fill="none" stroke="#63b8ff" d="M856.51,-65.99C801.27,-56.49 711.03,-40.96 645.76,-29.73"/>
<polygon fill="#63b8ff" stroke="#63b8ff" points="645.95,-26.21 635.5,-27.97 644.77,-33.11 645.95,-26.21"/>
</a>
</g>
</g>
<!-- Node13&#45;&gt;Node4 -->
<g id="edge20_Node000013_Node000004" class="edge">
<title>Node13&#45;&gt;Node4</title>
<g id="a_edge20_Node000013_Node000004"><a xlink:title=" ">
<path fill="none" stroke="#63b8ff" d="M937.65,-65.99C970.05,-57.3 1021.23,-43.57 1061.75,-32.69"/>
<polygon fill="#63b8ff" stroke="#63b8ff" points="1062.79,-36.04 1071.54,-30.06 1060.97,-29.28 1062.79,-36.04"/>
</a>
</g>
</g>
<!-- Node14&#45;&gt;Node3 -->
<g id="edge22_Node000014_Node000003" class="edge">
<title>Node14&#45;&gt;Node3</title>
<g id="a_edge22_Node000014_Node000003"><a xlink:title=" ">
<path fill="none" stroke="#63b8ff" d="M565.95,-65.87C565.95,-59.11 565.95,-49.35 565.95,-40.26"/>
<polygon fill="#63b8ff" stroke="#63b8ff" points="569.45,-40.11 565.95,-30.11 562.45,-40.11 569.45,-40.11"/>
</a>
</g>
</g>
<!-- Node14&#45;&gt;Node4 -->
<g id="edge23_Node000014_Node000004" class="edge">
<title>Node14&#45;&gt;Node4</title>
<g id="a_edge23_Node000014_Node000004"><a xlink:title=" ">
<path fill="none" stroke="#63b8ff" d="M627.34,-67.48C631.94,-66.97 636.52,-66.48 640.95,-66 799.07,-49.05 838.8,-46.71 996.95,-30 1016.02,-27.98 1036.7,-25.73 1055.72,-23.64"/>
<polygon fill="#63b8ff" stroke="#63b8ff" points="1056.24,-27.1 1065.8,-22.52 1055.47,-20.14 1056.24,-27.1"/>
</a>
</g>
</g>
<!-- Node15&#45;&gt;Node3 -->
<g id="edge25_Node000015_Node000003" class="edge">
<title>Node15&#45;&gt;Node3</title>
<g id="a_edge25_Node000015_Node000003"><a xlink:title=" ">
<path fill="none" stroke="#63b8ff" d="M721.49,-65.99C694.84,-57.43 652.97,-43.97 619.39,-33.18"/>
<polygon fill="#63b8ff" stroke="#63b8ff" points="620.3,-29.79 609.71,-30.06 618.15,-36.46 620.3,-29.79"/>
</a>
</g>
</g>
<!-- Node15&#45;&gt;Node4 -->
<g id="edge26_Node000015_Node000004" class="edge">
<title>Node15&#45;&gt;Node4</title>
<g id="a_edge26_Node000015_Node000004"><a xlink:title=" ">
<path fill="none" stroke="#63b8ff" d="M802.62,-65.99C869.64,-55.57 983.22,-37.9 1055.84,-26.6"/>
<polygon fill="#63b8ff" stroke="#63b8ff" points="1056.47,-30.04 1065.81,-25.05 1055.39,-23.12 1056.47,-30.04"/>
</a>
</g>
</g>
<!-- Node16&#45;&gt;Node4 -->
<g id="edge28_Node000016_Node000004" class="edge">
<title>Node16&#45;&gt;Node4</title>
<g id="a_edge28_Node000016_Node000004"><a xlink:title=" ">
<path fill="none" stroke="#63b8ff" d="M1487.99,-120.9C1466.74,-107.19 1422.78,-80.48 1381.95,-66 1319.54,-43.87 1244.96,-30.76 1192.08,-23.56"/>
<polygon fill="#63b8ff" stroke="#63b8ff" points="1192.5,-20.08 1182.13,-22.24 1191.58,-27.02 1192.5,-20.08"/>
</a>
</g>
</g>
<!-- Node16&#45;&gt;Node17 -->
<g id="edge29_Node000016_Node000017" class="edge">
<title>Node16&#45;&gt;Node17</title>
<g id="a_edge29_Node000016_Node000017"><a xlink:title=" ">
<path fill="none" stroke="#63b8ff" d="M1467.37,-120.98C1431.6,-111.91 1374.83,-97.52 1335.61,-87.57"/>
<polygon fill="#63b8ff" stroke="#63b8ff" points="1336.35,-84.15 1325.79,-85.08 1334.63,-90.93 1336.35,-84.15"/>
</a>
</g>
</g>
<!-- Node17&#45;&gt;Node4 -->
<g id="edge30_Node000017_Node000004" class="edge">
<title>Node17&#45;&gt;Node4</title>
<g id="a_edge30_Node000017_Node000004"><a xlink:title=" ">
<path fill="none" stroke="#63b8ff" d="M1267.52,-65.99C1243.13,-57.5 1204.94,-44.2 1174.08,-33.45"/>
<polygon fill="#63b8ff" stroke="#63b8ff" points="1174.93,-30.05 1164.34,-30.06 1172.63,-36.66 1174.93,-30.05"/>
</a>
</g>
</g>
<!-- Node18&#45;&gt;Node4 -->
<g id="edge32_Node000018_Node000004" class="edge">
<title>Node18&#45;&gt;Node4</title>
<g id="a_edge32_Node000018_Node000004"><a xlink:title=" ">
<path fill="none" stroke="#63b8ff" d="M1050.71,-120.89C1066.25,-113.47 1086.99,-101.37 1099.95,-85 1110.24,-72 1116.28,-54.3 1119.72,-40.07"/>
<polygon fill="#63b8ff" stroke="#63b8ff" points="1123.21,-40.52 1121.88,-30.01 1116.36,-39.05 1123.21,-40.52"/>
</a>
</g>
</g>
<!-- Node18&#45;&gt;Node12 -->
<g id="edge33_Node000018_Node000012" class="edge">
<title>Node18&#45;&gt;Node12</title>
<g id="a_edge33_Node000018_Node000012"><a xlink:title=" ">
<path fill="none" stroke="#63b8ff" d="M1027.01,-120.56C1021.96,-106.64 1010.26,-79.92 990.95,-66 937.23,-27.26 857.97,-18.07 812.51,-16.17"/>
<polygon fill="#63b8ff" stroke="#63b8ff" points="812.36,-12.66 802.25,-15.84 812.14,-19.66 812.36,-12.66"/>
</a>
</g>
</g>
<!-- Node18&#45;&gt;Node17 -->
<g id="edge34_Node000018_Node000017" class="edge">
<title>Node18&#45;&gt;Node17</title>
<g id="a_edge34_Node000018_Node000017"><a xlink:title=" ">
<path fill="none" stroke="#63b8ff" d="M1072.04,-120.98C1117.65,-111.76 1190.47,-97.03 1239.7,-87.07"/>
<polygon fill="#63b8ff" stroke="#63b8ff" points="1240.42,-90.5 1249.52,-85.08 1239.03,-83.63 1240.42,-90.5"/>
</a>
</g>
</g>
<!-- Node19&#45;&gt;Node4 -->
<g id="edge36_Node000019_Node000004" class="edge">
<title>Node19&#45;&gt;Node4</title>
<g id="a_edge36_Node000019_Node000004"><a xlink:title=" ">
<path fill="none" stroke="#63b8ff" d="M904.32,-120.95C932.14,-113.1 973.01,-100.39 1006.95,-85 1038.05,-70.9 1071.39,-50.68 1094.5,-35.77"/>
<polygon fill="#63b8ff" stroke="#63b8ff" points="1096.66,-38.54 1103.13,-30.14 1092.84,-32.67 1096.66,-38.54"/>
</a>
</g>
</g>
<!-- Node19&#45;&gt;Node8 -->
<g id="edge37_Node000019_Node000008" class="edge">
<title>Node19&#45;&gt;Node8</title>
<g id="a_edge37_Node000019_Node000008"><a xlink:title=" ">
<path fill="none" stroke="#63b8ff" d="M934.16,-121C955.78,-114.73 977.87,-103.85 990.95,-85 1002.23,-68.74 990.21,-47.11 978.81,-32.43"/>
<polygon fill="#63b8ff" stroke="#63b8ff" points="981.45,-30.13 972.36,-24.69 976.07,-34.61 981.45,-30.13"/>
</a>
</g>
</g>
<!-- Node19&#45;&gt;Node9 -->
<g id="edge38_Node000019_Node000009" class="edge">
<title>Node19&#45;&gt;Node9</title>
<g id="a_edge38_Node000019_Node000009"><a xlink:title=" ">
<path fill="none" stroke="#63b8ff" d="M793.3,-121.68C693.5,-111.76 522.17,-94.72 420.84,-84.64"/>
<polygon fill="#63b8ff" stroke="#63b8ff" points="420.95,-81.14 410.66,-83.63 420.26,-88.1 420.95,-81.14"/>
</a>
</g>
</g>
<!-- Node20&#45;&gt;Node4 -->
<g id="edge40_Node000020_Node000004" class="edge">
<title>Node20&#45;&gt;Node4</title>
<g id="a_edge40_Node000020_Node000004"><a xlink:title=" ">
<path fill="none" stroke="#63b8ff" d="M1364.15,-120.56C1369.77,-107.12 1377.65,-81.61 1364.95,-66 1343.48,-39.61 1255.48,-26.71 1192.02,-20.72"/>
<polygon fill="#63b8ff" stroke="#63b8ff" points="1192.33,-17.24 1182.06,-19.82 1191.7,-24.21 1192.33,-17.24"/>
</a>
</g>
</g>
<!-- Node20&#45;&gt;Node17 -->
<g id="edge41_Node000020_Node000017" class="edge">
<title>Node20&#45;&gt;Node17</title>
<g id="a_edge41_Node000020_Node000017"><a xlink:title=" ">
<path fill="none" stroke="#63b8ff" d="M1349.02,-120.98C1338.87,-113.07 1323.53,-101.11 1311.3,-91.58"/>
<polygon fill="#63b8ff" stroke="#63b8ff" points="1313.11,-88.56 1303.07,-85.17 1308.81,-94.08 1313.11,-88.56"/>
</a>
</g>
</g>
<!-- Node21&#45;&gt;Node4 -->
<g id="edge43_Node000021_Node000004" class="edge">
<title>Node21&#45;&gt;Node4</title>
<g id="a_edge43_Node000021_Node000004"><a xlink:title=" ">
<path fill="none" stroke="#63b8ff" d="M1177.22,-120.86C1180.07,-108.24 1183.72,-84.26 1175.95,-66 1171.13,-54.68 1162.35,-44.69 1153.37,-36.67"/>
<polygon fill="#63b8ff" stroke="#63b8ff" points="1155.44,-33.84 1145.51,-30.14 1150.97,-39.22 1155.44,-33.84"/>
</a>
</g>
</g>
<!-- Node21&#45;&gt;Node8 -->
<g id="edge44_Node000021_Node000008" class="edge">
<title>Node21&#45;&gt;Node8</title>
<g id="a_edge44_Node000021_Node000008"><a xlink:title=" ">
<path fill="none" stroke="#63b8ff" d="M1159.09,-120.97C1122.66,-101.37 1032.77,-53.02 988.87,-29.41"/>
<polygon fill="#63b8ff" stroke="#63b8ff" points="990.46,-26.28 979.99,-24.63 987.14,-32.45 990.46,-26.28"/>
</a>
</g>
</g>
<!-- Node21&#45;&gt;Node17 -->
<g id="edge45_Node000021_Node000017" class="edge">
<title>Node21&#45;&gt;Node17</title>
<g id="a_edge45_Node000021_Node000017"><a xlink:title=" ">
<path fill="none" stroke="#63b8ff" d="M1193.75,-120.98C1212.57,-112.46 1241.77,-99.23 1263.45,-89.41"/>
<polygon fill="#63b8ff" stroke="#63b8ff" points="1265.14,-92.48 1272.81,-85.17 1262.26,-86.11 1265.14,-92.48"/>
</a>
</g>
</g>
<!-- Node22&#45;&gt;Node4 -->
<g id="edge48_Node000022_Node000004" class="edge">
<title>Node22&#45;&gt;Node4</title>
<g id="a_edge48_Node000022_Node000004"><a xlink:title=" ">
<path fill="none" stroke="#63b8ff" d="M1626.09,-120.93C1581.37,-107.85 1492.5,-82.69 1415.95,-66 1339.82,-49.4 1251.55,-34.94 1192.15,-25.9"/>
<polygon fill="#63b8ff" stroke="#63b8ff" points="1192.55,-22.42 1182.14,-24.38 1191.51,-29.34 1192.55,-22.42"/>
</a>
</g>
</g>
<!-- Node22&#45;&gt;Node17 -->
<g id="edge49_Node000022_Node000017" class="edge">
<title>Node22&#45;&gt;Node17</title>
<g id="a_edge49_Node000022_Node000017"><a xlink:title=" ">
<path fill="none" stroke="#63b8ff" d="M1596.63,-120.98C1532.29,-111.59 1428.86,-96.49 1360.64,-86.53"/>
<polygon fill="#63b8ff" stroke="#63b8ff" points="1360.83,-83.02 1350.43,-85.04 1359.82,-89.95 1360.83,-83.02"/>
</a>
</g>
</g>
</g>
</svg>
