<?xml version="1.0" encoding="UTF-8" standalone="no"?>
<!DOCTYPE svg PUBLIC "-//W3C//DTD SVG 1.1//EN"
 "http://www.w3.org/Graphics/SVG/1.1/DTD/svg11.dtd">
<!-- Generated by graphviz version 2.43.0 (0)
 -->
<!-- Title: core/DirektBaseEditor.cpp Pages: 1 -->
<svg width="2818pt" height="324pt"
 viewBox="0.00 0.00 2818.31 324.00" xmlns="http://www.w3.org/2000/svg" xmlns:xlink="http://www.w3.org/1999/xlink">
<g id="graph0" class="graph" transform="scale(1 1) rotate(0) translate(4 320)">
<title>core/DirektBaseEditor.cpp</title>
<!-- Node1 -->
<g id="Node000001" class="node">
<title>Node1</title>
<g id="a_Node000001"><a xlink:title=" ">
<polygon fill="#999999" stroke="#666666" points="2662.72,-316 2519.72,-316 2519.72,-297 2662.72,-297 2662.72,-316"/>
<text text-anchor="middle" x="2591.22" y="-304" font-family="Helvetica,sans-Serif" font-size="10.00">core/DirektBaseEditor.cpp</text>
</a>
</g>
</g>
<!-- Node2 -->
<g id="Node000002" class="node">
<title>Node2</title>
<g id="a_Node000002"><a xlink:href="DirektBaseEditor_8h.html" target="_top" xlink:title=" ">
<polygon fill="white" stroke="#666666" points="1462.72,-261 1331.72,-261 1331.72,-242 1462.72,-242 1462.72,-261"/>
<text text-anchor="middle" x="1397.22" y="-249" font-family="Helvetica,sans-Serif" font-size="10.00">core/DirektBaseEditor.h</text>
</a>
</g>
</g>
<!-- Node1&#45;&gt;Node2 -->
<g id="edge1_Node000001_Node000002" class="edge">
<title>Node1&#45;&gt;Node2</title>
<g id="a_edge1_Node000001_Node000002"><a xlink:title=" ">
<path fill="none" stroke="#63b8ff" d="M2519.67,-302.32C2308.56,-292.95 1689.63,-265.48 1473.09,-255.87"/>
<polygon fill="#63b8ff" stroke="#63b8ff" points="1473.23,-252.37 1463.09,-255.42 1472.92,-259.36 1473.23,-252.37"/>
</a>
</g>
</g>
<!-- Node29 -->
<g id="Node000029" class="node">
<title>Node29</title>
<g id="a_Node000029"><a xlink:href="DirektClipIndicator_8h.html" target="_top" xlink:title=" ">
<polygon fill="white" stroke="#666666" points="2616.72,-151 2461.72,-151 2461.72,-132 2616.72,-132 2616.72,-151"/>
<text text-anchor="middle" x="2539.22" y="-139" font-family="Helvetica,sans-Serif" font-size="10.00">display/DirektClipIndicator.h</text>
</a>
</g>
</g>
<!-- Node1&#45;&gt;Node29 -->
<g id="edge70_Node000001_Node000029" class="edge">
<title>Node1&#45;&gt;Node29</title>
<g id="a_edge70_Node000001_Node000029"><a xlink:title=" ">
<path fill="none" stroke="#63b8ff" d="M2588.47,-296.99C2582.91,-279.8 2569.96,-239.72 2559.22,-206 2554.4,-190.84 2548.98,-173.62 2545,-160.94"/>
<polygon fill="#63b8ff" stroke="#63b8ff" points="2548.26,-159.63 2541.93,-151.13 2541.58,-161.72 2548.26,-159.63"/>
</a>
</g>
</g>
<!-- Node30 -->
<g id="Node000030" class="node">
<title>Node30</title>
<g id="a_Node000030"><a xlink:href="DirektMeter_8h.html" target="_top" xlink:title=" ">
<polygon fill="white" stroke="#666666" points="2795.22,-151 2673.22,-151 2673.22,-132 2795.22,-132 2795.22,-151"/>
<text text-anchor="middle" x="2734.22" y="-139" font-family="Helvetica,sans-Serif" font-size="10.00">display/DirektMeter.h</text>
</a>
</g>
</g>
<!-- Node1&#45;&gt;Node30 -->
<g id="edge74_Node000001_Node000030" class="edge">
<title>Node1&#45;&gt;Node30</title>
<g id="a_edge74_Node000001_Node000030"><a xlink:title=" ">
<path fill="none" stroke="#63b8ff" d="M2613.32,-296.98C2645.48,-283.27 2704.18,-252.98 2730.22,-206 2737.68,-192.55 2738.21,-174.95 2737.14,-161.69"/>
<polygon fill="#63b8ff" stroke="#63b8ff" points="2740.57,-160.89 2735.93,-151.37 2733.62,-161.71 2740.57,-160.89"/>
</a>
</g>
</g>
<!-- Node31 -->
<g id="Node000031" class="node">
<title>Node31</title>
<g id="a_Node000031"><a xlink:href="DirektStereoMeter_8h.html" target="_top" xlink:title=" ">
<polygon fill="white" stroke="#666666" points="2720.72,-206 2567.72,-206 2567.72,-187 2720.72,-187 2720.72,-206"/>
<text text-anchor="middle" x="2644.22" y="-194" font-family="Helvetica,sans-Serif" font-size="10.00">display/DirektStereoMeter.h</text>
</a>
</g>
</g>
<!-- Node1&#45;&gt;Node31 -->
<g id="edge78_Node000001_Node000031" class="edge">
<title>Node1&#45;&gt;Node31</title>
<g id="a_edge78_Node000001_Node000031"><a xlink:title=" ">
<path fill="none" stroke="#63b8ff" d="M2595.56,-296.66C2604.26,-278.93 2623.99,-238.73 2635.48,-215.32"/>
<polygon fill="#63b8ff" stroke="#63b8ff" points="2638.71,-216.68 2639.98,-206.16 2632.43,-213.59 2638.71,-216.68"/>
</a>
</g>
</g>
<!-- Node3 -->
<g id="Node000003" class="node">
<title>Node3</title>
<g id="a_Node000003"><a xlink:title=" ">
<polygon fill="#e0e0e0" stroke="#999999" points="618.72,-96 479.72,-96 479.72,-66 618.72,-66 618.72,-96"/>
<text text-anchor="start" x="487.72" y="-84" font-family="Helvetica,sans-Serif" font-size="10.00">juce_audio_processors</text>
<text text-anchor="middle" x="549.22" y="-73" font-family="Helvetica,sans-Serif" font-size="10.00">/juce_audio_processors.h</text>
</a>
</g>
</g>
<!-- Node2&#45;&gt;Node3 -->
<g id="edge2_Node000002_Node000003" class="edge">
<title>Node2&#45;&gt;Node3</title>
<g id="a_edge2_Node000002_Node000003"><a xlink:title=" ">
<path fill="none" stroke="#63b8ff" d="M1331.6,-247.88C1140.86,-239.59 596.82,-210.85 546.22,-151 535.95,-138.84 537.14,-120.74 540.66,-106.12"/>
<polygon fill="#63b8ff" stroke="#63b8ff" points="544.11,-106.81 543.52,-96.23 537.38,-104.87 544.11,-106.81"/>
</a>
</g>
</g>
<!-- Node4 -->
<g id="Node000004" class="node">
<title>Node4</title>
<g id="a_Node000004"><a xlink:title=" ">
<polygon fill="#e0e0e0" stroke="#999999" points="1561.22,-30 1445.22,-30 1445.22,0 1561.22,0 1561.22,-30"/>
<text text-anchor="start" x="1453.22" y="-18" font-family="Helvetica,sans-Serif" font-size="10.00">juce_gui_basics/juce</text>
<text text-anchor="middle" x="1503.22" y="-7" font-family="Helvetica,sans-Serif" font-size="10.00">_gui_basics.h</text>
</a>
</g>
</g>
<!-- Node2&#45;&gt;Node4 -->
<g id="edge3_Node000002_Node000004" class="edge">
<title>Node2&#45;&gt;Node4</title>
<g id="a_edge3_Node000002_Node000004"><a xlink:title=" ">
<path fill="none" stroke="#63b8ff" d="M1331.71,-250.5C1165.38,-249.9 713.43,-244.54 339.22,-206 187.98,-190.42 -35.69,-278.44 5.22,-132 14.45,-98.96 15.63,-83.34 45.22,-66 105.8,-30.5 1155.49,-18.98 1435.2,-16.54"/>
<polygon fill="#63b8ff" stroke="#63b8ff" points="1435.25,-20.04 1445.22,-16.45 1435.19,-13.04 1435.25,-20.04"/>
</a>
</g>
</g>
<!-- Node5 -->
<g id="Node000005" class="node">
<title>Node5</title>
<g id="a_Node000005"><a xlink:href="DirektFooter_8h.html" target="_top" xlink:title=" ">
<polygon fill="white" stroke="#666666" points="1888.72,-151 1763.72,-151 1763.72,-132 1888.72,-132 1888.72,-151"/>
<text text-anchor="middle" x="1826.22" y="-139" font-family="Helvetica,sans-Serif" font-size="10.00">chrome/DirektFooter.h</text>
</a>
</g>
</g>
<!-- Node2&#45;&gt;Node5 -->
<g id="edge4_Node000002_Node000005" class="edge">
<title>Node2&#45;&gt;Node5</title>
<g id="a_edge4_Node000002_Node000005"><a xlink:title=" ">
<path fill="none" stroke="#63b8ff" d="M1431.25,-241.94C1508.37,-222.52 1696.46,-175.17 1782.26,-153.57"/>
<polygon fill="#63b8ff" stroke="#63b8ff" points="1783.36,-156.9 1792.2,-151.07 1781.65,-150.11 1783.36,-156.9"/>
</a>
</g>
</g>
<!-- Node6 -->
<g id="Node000006" class="node">
<title>Node6</title>
<g id="a_Node000006"><a xlink:href="DirektColours_8h.html" target="_top" xlink:title=" ">
<polygon fill="white" stroke="#666666" points="2071.72,-90.5 1944.72,-90.5 1944.72,-71.5 2071.72,-71.5 2071.72,-90.5"/>
<text text-anchor="middle" x="2008.22" y="-78.5" font-family="Helvetica,sans-Serif" font-size="10.00">theme/DirektColours.h</text>
</a>
</g>
</g>
<!-- Node2&#45;&gt;Node6 -->
<g id="edge66_Node000002_Node000006" class="edge">
<title>Node2&#45;&gt;Node6</title>
<g id="a_edge66_Node000002_Node000006"><a xlink:title=" ">
<path fill="none" stroke="#63b8ff" d="M1462.99,-251.12C1616.34,-251.03 1990.51,-241.34 2068.22,-151 2084.77,-131.77 2057.28,-109.66 2034.29,-95.76"/>
<polygon fill="#63b8ff" stroke="#63b8ff" points="2035.89,-92.65 2025.48,-90.69 2032.4,-98.71 2035.89,-92.65"/>
</a>
</g>
</g>
<!-- Node7 -->
<g id="Node000007" class="node">
<title>Node7</title>
<g id="a_Node000007"><a xlink:href="DirektHeader_8h.html" target="_top" xlink:title=" ">
<polygon fill="white" stroke="#666666" points="905.22,-151 775.22,-151 775.22,-132 905.22,-132 905.22,-151"/>
<text text-anchor="middle" x="840.22" y="-139" font-family="Helvetica,sans-Serif" font-size="10.00">chrome/DirektHeader.h</text>
</a>
</g>
</g>
<!-- Node2&#45;&gt;Node7 -->
<g id="edge8_Node000002_Node000007" class="edge">
<title>Node2&#45;&gt;Node7</title>
<g id="a_edge8_Node000002_Node000007"><a xlink:title=" ">
<path fill="none" stroke="#63b8ff" d="M1331.54,-243.95C1265.98,-236.82 1162.56,-223.99 1074.22,-206 1003.67,-191.63 922.92,-168.11 877.11,-154.09"/>
<polygon fill="#63b8ff" stroke="#63b8ff" points="877.92,-150.67 867.33,-151.07 875.86,-157.36 877.92,-150.67"/>
</a>
</g>
</g>
<!-- Node9 -->
<g id="Node000009" class="node">
<title>Node9</title>
<g id="a_Node000009"><a xlink:href="DirektPopupPanel_8h.html" target="_top" xlink:title=" ">
<polygon fill="white" stroke="#666666" points="2059.22,-151 1907.22,-151 1907.22,-132 2059.22,-132 2059.22,-151"/>
<text text-anchor="middle" x="1983.22" y="-139" font-family="Helvetica,sans-Serif" font-size="10.00">chrome/DirektPopupPanel.h</text>
</a>
</g>
</g>
<!-- Node2&#45;&gt;Node9 -->
<g id="edge13_Node000002_Node000009" class="edge">
<title>Node2&#45;&gt;Node9</title>
<g id="a_edge13_Node000002_Node000009"><a xlink:title=" ">
<path fill="none" stroke="#63b8ff" d="M1443.7,-241.94C1550.12,-222.32 1811.21,-174.2 1926.7,-152.92"/>
<polygon fill="#63b8ff" stroke="#63b8ff" points="1927.55,-156.32 1936.75,-151.07 1926.28,-149.44 1927.55,-156.32"/>
</a>
</g>
</g>
<!-- Node10 -->
<g id="Node000010" class="node">
<title>Node10</title>
<g id="a_Node000010"><a xlink:href="DirektPresetBrowser_8h.html" target="_top" xlink:title=" ">
<polygon fill="white" stroke="#666666" points="1745.72,-151 1580.72,-151 1580.72,-132 1745.72,-132 1745.72,-151"/>
<text text-anchor="middle" x="1663.22" y="-139" font-family="Helvetica,sans-Serif" font-size="10.00">chrome/DirektPresetBrowser.h</text>
</a>
</g>
</g>
<!-- Node2&#45;&gt;Node10 -->
<g id="edge16_Node000002_Node000010" class="edge">
<title>Node2&#45;&gt;Node10</title>
<g id="a_edge16_Node000002_Node000010"><a xlink:title=" ">
<path fill="none" stroke="#63b8ff" d="M1418.54,-241.84C1465.55,-222.76 1578.23,-177.01 1632.71,-154.89"/>
<polygon fill="#63b8ff" stroke="#63b8ff" points="1634.23,-158.05 1642.17,-151.05 1631.59,-151.57 1634.23,-158.05"/>
</a>
</g>
</g>
<!-- Node12 -->
<g id="Node000012" class="node">
<title>Node12</title>
<g id="a_Node000012"><a xlink:href="DirektConfig_8h.html" target="_top" xlink:title=" ">
<polygon fill="white" stroke="#666666" points="2234.72,-151 2115.72,-151 2115.72,-132 2234.72,-132 2234.72,-151"/>
<text text-anchor="middle" x="2175.22" y="-139" font-family="Helvetica,sans-Serif" font-size="10.00">config/DirektConfig.h</text>
</a>
</g>
</g>
<!-- Node2&#45;&gt;Node12 -->
<g id="edge21_Node000002_Node000012" class="edge">
<title>Node2&#45;&gt;Node12</title>
<g id="a_edge21_Node000002_Node000012"><a xlink:title=" ">
<path fill="none" stroke="#63b8ff" d="M1462.99,-248.72C1626.62,-243.95 2043.08,-229.64 2101.22,-206 2126.1,-195.89 2148.56,-173.93 2162.05,-158.68"/>
<polygon fill="#63b8ff" stroke="#63b8ff" points="2164.75,-160.9 2168.58,-151.02 2159.43,-156.36 2164.75,-160.9"/>
</a>
</g>
</g>
<!-- Node13 -->
<g id="Node000013" class="node">
<title>Node13</title>
<g id="a_Node000013"><a xlink:href="DirektDescriptors_8h.html" target="_top" xlink:title=" ">
<polygon fill="white" stroke="#666666" points="1142.72,-151 999.72,-151 999.72,-132 1142.72,-132 1142.72,-151"/>
<text text-anchor="middle" x="1071.22" y="-139" font-family="Helvetica,sans-Serif" font-size="10.00">config/DirektDescriptors.h</text>
</a>
</g>
</g>
<!-- Node2&#45;&gt;Node13 -->
<g id="edge24_Node000002_Node000013" class="edge">
<title>Node2&#45;&gt;Node13</title>
<g id="a_edge24_Node000002_Node000013"><a xlink:title=" ">
<path fill="none" stroke="#63b8ff" d="M1331.43,-249.06C1252.19,-245.97 1125.34,-236.3 1090.22,-206 1077.44,-194.97 1073.07,-175.71 1071.67,-161.29"/>
<polygon fill="#63b8ff" stroke="#63b8ff" points="1075.14,-160.79 1071.08,-151.01 1068.16,-161.19 1075.14,-160.79"/>
</a>
</g>
</g>
<!-- Node18 -->
<g id="Node000018" class="node">
<title>Node18</title>
<g id="a_Node000018"><a xlink:href="DirektAutoLayout_8h.html" target="_top" xlink:title=" ">
<polygon fill="white" stroke="#666666" points="483.72,-206 348.72,-206 348.72,-187 483.72,-187 483.72,-206"/>
<text text-anchor="middle" x="416.22" y="-194" font-family="Helvetica,sans-Serif" font-size="10.00">core/DirektAutoLayout.h</text>
</a>
</g>
</g>
<!-- Node2&#45;&gt;Node18 -->
<g id="edge30_Node000002_Node000018" class="edge">
<title>Node2&#45;&gt;Node18</title>
<g id="a_edge30_Node000002_Node000018"><a xlink:title=" ">
<path fill="none" stroke="#63b8ff" d="M1331.47,-248.03C1184.62,-242.32 818.87,-227.08 513.22,-206 506.97,-205.57 500.5,-205.08 493.99,-204.57"/>
<polygon fill="#63b8ff" stroke="#63b8ff" points="494.03,-201.06 483.78,-203.74 493.46,-208.04 494.03,-201.06"/>
</a>
</g>
</g>
<!-- Node23 -->
<g id="Node000023" class="node">
<title>Node23</title>
<g id="a_Node000023"><a xlink:href="DirektSection_8h.html" target="_top" xlink:title=" ">
<polygon fill="white" stroke="#666666" points="1362.72,-151 1237.72,-151 1237.72,-132 1362.72,-132 1362.72,-151"/>
<text text-anchor="middle" x="1300.22" y="-139" font-family="Helvetica,sans-Serif" font-size="10.00">layout/DirektSection.h</text>
</a>
</g>
</g>
<!-- Node2&#45;&gt;Node23 -->
<g id="edge65_Node000002_Node000023" class="edge">
<title>Node2&#45;&gt;Node23</title>
<g id="a_edge65_Node000002_Node000023"><a xlink:title=" ">
<path fill="none" stroke="#63b8ff" d="M1389.29,-241.66C1373.01,-223.54 1335.62,-181.91 1314.84,-158.77"/>
<polygon fill="#63b8ff" stroke="#63b8ff" points="1317.29,-156.26 1308,-151.16 1312.08,-160.94 1317.29,-156.26"/>
</a>
</g>
</g>
<!-- Node24 -->
<g id="Node000024" class="node">
<title>Node24</title>
<g id="a_Node000024"><a xlink:href="DirektBuildContext_8h.html" target="_top" xlink:title=" ">
<polygon fill="white" stroke="#666666" points="1562.72,-151 1419.72,-151 1419.72,-132 1562.72,-132 1562.72,-151"/>
<text text-anchor="middle" x="1491.22" y="-139" font-family="Helvetica,sans-Serif" font-size="10.00">core/DirektBuildContext.h</text>
</a>
</g>
</g>
<!-- Node2&#45;&gt;Node24 -->
<g id="edge49_Node000002_Node000024" class="edge">
<title>Node2&#45;&gt;Node24</title>
<g id="a_edge49_Node000002_Node000024"><a xlink:title=" ">
<path fill="none" stroke="#63b8ff" d="M1404.92,-241.66C1420.69,-223.54 1456.92,-181.91 1477.06,-158.77"/>
<polygon fill="#63b8ff" stroke="#63b8ff" points="1479.76,-161 1483.69,-151.16 1474.48,-156.4 1479.76,-161"/>
</a>
</g>
</g>
<!-- Node26 -->
<g id="Node000026" class="node">
<title>Node26</title>
<g id="a_Node000026"><a xlink:href="DirektComponentRegistry_8h.html" target="_top" xlink:title=" ">
<polygon fill="white" stroke="#666666" points="1274.72,-206 1099.72,-206 1099.72,-187 1274.72,-187 1274.72,-206"/>
<text text-anchor="middle" x="1187.22" y="-194" font-family="Helvetica,sans-Serif" font-size="10.00">core/DirektComponentRegistry.h</text>
</a>
</g>
</g>
<!-- Node2&#45;&gt;Node26 -->
<g id="edge53_Node000002_Node000026" class="edge">
<title>Node2&#45;&gt;Node26</title>
<g id="a_edge53_Node000002_Node000026"><a xlink:title=" ">
<path fill="none" stroke="#63b8ff" d="M1363.48,-241.98C1327.54,-232.91 1270.5,-218.52 1231.09,-208.57"/>
<polygon fill="#63b8ff" stroke="#63b8ff" points="1231.78,-205.14 1221.23,-206.08 1230.07,-211.92 1231.78,-205.14"/>
</a>
</g>
</g>
<!-- Node27 -->
<g id="Node000027" class="node">
<title>Node27</title>
<g id="a_Node000027"><a xlink:href="DirektParameterHistory_8h.html" target="_top" xlink:title=" ">
<polygon fill="white" stroke="#666666" points="719.22,-151 555.22,-151 555.22,-132 719.22,-132 719.22,-151"/>
<text text-anchor="middle" x="637.22" y="-139" font-family="Helvetica,sans-Serif" font-size="10.00">core/DirektParameterHistory.h</text>
</a>
</g>
</g>
<!-- Node2&#45;&gt;Node27 -->
<g id="edge62_Node000002_Node000027" class="edge">
<title>Node2&#45;&gt;Node27</title>
<g id="a_edge62_Node000002_Node000027"><a xlink:title=" ">
<path fill="none" stroke="#63b8ff" d="M1331.63,-244.63C1251.56,-237.16 1112.13,-223.13 993.22,-206 885.06,-190.41 759.4,-166.67 690.05,-153.06"/>
<polygon fill="#63b8ff" stroke="#63b8ff" points="690.31,-149.55 679.82,-151.05 688.96,-156.41 690.31,-149.55"/>
</a>
</g>
</g>
<!-- Node28 -->
<g id="Node000028" class="node">
<title>Node28</title>
<g id="a_Node000028"><a xlink:href="DirektLookAndFeel_8h.html" target="_top" xlink:title=" ">
<polygon fill="white" stroke="#666666" points="2405.22,-151 2253.22,-151 2253.22,-132 2405.22,-132 2405.22,-151"/>
<text text-anchor="middle" x="2329.22" y="-139" font-family="Helvetica,sans-Serif" font-size="10.00">theme/DirektLookAndFeel.h</text>
</a>
</g>
</g>
<!-- Node2&#45;&gt;Node28 -->
<g id="edge67_Node000002_Node000028" class="edge">
<title>Node2&#45;&gt;Node28</title>
<g id="a_edge67_Node000002_Node000028"><a xlink:title=" ">
<path fill="none" stroke="#63b8ff" d="M1462.88,-248.58C1617.76,-243.72 2002.41,-229.61 2129.22,-206 2190.87,-194.52 2260.03,-169.77 2298.73,-154.79"/>
<polygon fill="#63b8ff" stroke="#63b8ff" points="2300.32,-157.93 2308.35,-151.02 2297.77,-151.41 2300.32,-157.93"/>
</a>
</g>
</g>
<!-- Node5&#45;&gt;Node4 -->
<g id="edge5_Node000005_Node000004" class="edge">
<title>Node5&#45;&gt;Node4</title>
<g id="a_edge5_Node000005_Node000004"><a xlink:title=" ">
<path fill="none" stroke="#63b8ff" d="M1809.62,-131.91C1780.77,-117.2 1719.28,-86.74 1665.22,-66 1632.49,-53.44 1595.15,-41.74 1564.57,-32.83"/>
<polygon fill="#63b8ff" stroke="#63b8ff" points="1565.48,-29.44 1554.9,-30.03 1563.53,-36.17 1565.48,-29.44"/>
</a>
</g>
</g>
<!-- Node5&#45;&gt;Node6 -->
<g id="edge6_Node000005_Node000006" class="edge">
<title>Node5&#45;&gt;Node6</title>
<g id="a_edge6_Node000005_Node000006"><a xlink:title=" ">
<path fill="none" stroke="#63b8ff" d="M1852.69,-131.99C1884.09,-121.9 1936.63,-105.01 1971.84,-93.69"/>
<polygon fill="#63b8ff" stroke="#63b8ff" points="1973.28,-96.91 1981.73,-90.52 1971.14,-90.24 1973.28,-96.91"/>
</a>
</g>
</g>
<!-- Node6&#45;&gt;Node4 -->
<g id="edge7_Node000006_Node000004" class="edge">
<title>Node6&#45;&gt;Node4</title>
<g id="a_edge7_Node000006_Node000004"><a xlink:title=" ">
<path fill="none" stroke="#63b8ff" d="M1944.52,-71.93C1849,-59.82 1669.42,-37.06 1571.37,-24.64"/>
<polygon fill="#63b8ff" stroke="#63b8ff" points="1571.63,-21.14 1561.27,-23.36 1570.75,-28.09 1571.63,-21.14"/>
</a>
</g>
</g>
<!-- Node7&#45;&gt;Node3 -->
<g id="edge9_Node000007_Node000003" class="edge">
<title>Node7&#45;&gt;Node3</title>
<g id="a_edge9_Node000007_Node000003"><a xlink:title=" ">
<path fill="none" stroke="#63b8ff" d="M797.91,-131.99C753.76,-123.12 683.5,-108.99 628.91,-98.02"/>
<polygon fill="#63b8ff" stroke="#63b8ff" points="629.4,-94.55 618.9,-96.01 628.02,-101.41 629.4,-94.55"/>
</a>
</g>
</g>
<!-- Node7&#45;&gt;Node4 -->
<g id="edge10_Node000007_Node000004" class="edge">
<title>Node7&#45;&gt;Node4</title>
<g id="a_edge10_Node000007_Node000004"><a xlink:title=" ">
<path fill="none" stroke="#63b8ff" d="M846.37,-131.63C858.27,-115.3 886.19,-80.78 919.22,-66 1009.75,-25.49 1301,-17.68 1434.82,-16.26"/>
<polygon fill="#63b8ff" stroke="#63b8ff" points="1434.98,-19.76 1444.95,-16.16 1434.92,-12.76 1434.98,-19.76"/>
</a>
</g>
</g>
<!-- Node7&#45;&gt;Node6 -->
<g id="edge12_Node000007_Node000006" class="edge">
<title>Node7&#45;&gt;Node6</title>
<g id="a_edge12_Node000007_Node000006"><a xlink:title=" ">
<path fill="none" stroke="#63b8ff" d="M905.56,-136.69C931.86,-135.18 962.48,-133.47 990.22,-132 1343.74,-113.3 1766.44,-93.29 1934.29,-85.44"/>
<polygon fill="#63b8ff" stroke="#63b8ff" points="1934.66,-88.93 1944.49,-84.96 1934.34,-81.93 1934.66,-88.93"/>
</a>
</g>
</g>
<!-- Node8 -->
<g id="Node000008" class="node">
<title>Node8</title>
<g id="a_Node000008"><a xlink:title=" ">
<polygon fill="#e0e0e0" stroke="#999999" points="1303.72,-90.5 1238.72,-90.5 1238.72,-71.5 1303.72,-71.5 1303.72,-90.5"/>
<text text-anchor="middle" x="1271.22" y="-78.5" font-family="Helvetica,sans-Serif" font-size="10.00">functional</text>
</a>
</g>
</g>
<!-- Node7&#45;&gt;Node8 -->
<g id="edge11_Node000007_Node000008" class="edge">
<title>Node7&#45;&gt;Node8</title>
<g id="a_edge11_Node000007_Node000008"><a xlink:title=" ">
<path fill="none" stroke="#63b8ff" d="M905.26,-135.09C979.96,-128.33 1106.03,-115.26 1213.22,-96 1218.32,-95.08 1223.63,-93.99 1228.89,-92.83"/>
<polygon fill="#63b8ff" stroke="#63b8ff" points="1229.9,-96.19 1238.85,-90.53 1228.32,-89.37 1229.9,-96.19"/>
</a>
</g>
</g>
<!-- Node9&#45;&gt;Node4 -->
<g id="edge14_Node000009_Node000004" class="edge">
<title>Node9&#45;&gt;Node4</title>
<g id="a_edge14_Node000009_Node000004"><a xlink:title=" ">
<path fill="none" stroke="#63b8ff" d="M1953.24,-131.9C1903.35,-117.68 1800.13,-88.59 1712.22,-66 1665.32,-53.95 1612.25,-41.26 1571.33,-31.69"/>
<polygon fill="#63b8ff" stroke="#63b8ff" points="1572,-28.25 1561.46,-29.38 1570.41,-35.06 1572,-28.25"/>
</a>
</g>
</g>
<!-- Node9&#45;&gt;Node6 -->
<g id="edge15_Node000009_Node000006" class="edge">
<title>Node9&#45;&gt;Node6</title>
<g id="a_edge15_Node000009_Node000006"><a xlink:title=" ">
<path fill="none" stroke="#63b8ff" d="M1986.91,-131.87C1990.5,-123.49 1996.04,-110.51 2000.58,-99.89"/>
<polygon fill="#63b8ff" stroke="#63b8ff" points="2003.81,-101.24 2004.52,-90.67 1997.37,-98.49 2003.81,-101.24"/>
</a>
</g>
</g>
<!-- Node10&#45;&gt;Node4 -->
<g id="edge17_Node000010_Node000004" class="edge">
<title>Node10&#45;&gt;Node4</title>
<g id="a_edge17_Node000010_Node000004"><a xlink:title=" ">
<path fill="none" stroke="#63b8ff" d="M1663.5,-131.93C1663.51,-116.7 1661.32,-84.73 1644.22,-66 1625.36,-45.33 1597.4,-33.21 1571.34,-26.09"/>
<polygon fill="#63b8ff" stroke="#63b8ff" points="1572.02,-22.65 1561.47,-23.6 1570.31,-29.44 1572.02,-22.65"/>
</a>
</g>
</g>
<!-- Node10&#45;&gt;Node6 -->
<g id="edge20_Node000010_Node000006" class="edge">
<title>Node10&#45;&gt;Node6</title>
<g id="a_edge20_Node000010_Node000006"><a xlink:title=" ">
<path fill="none" stroke="#63b8ff" d="M1713.39,-131.99C1775.61,-121.44 1881.56,-103.48 1948.08,-92.2"/>
<polygon fill="#63b8ff" stroke="#63b8ff" points="1948.72,-95.64 1958,-90.52 1947.55,-88.74 1948.72,-95.64"/>
</a>
</g>
</g>
<!-- Node10&#45;&gt;Node8 -->
<g id="edge18_Node000010_Node000008" class="edge">
<title>Node10&#45;&gt;Node8</title>
<g id="a_edge18_Node000010_Node000008"><a xlink:title=" ">
<path fill="none" stroke="#63b8ff" d="M1605.42,-131.99C1545,-123.08 1447.45,-108.65 1363.22,-96 1347.26,-93.6 1329.74,-90.94 1314.31,-88.59"/>
<polygon fill="#63b8ff" stroke="#63b8ff" points="1314.42,-85.07 1304.01,-87.02 1313.36,-91.99 1314.42,-85.07"/>
</a>
</g>
</g>
<!-- Node11 -->
<g id="Node000011" class="node">
<title>Node11</title>
<g id="a_Node000011"><a xlink:title=" ">
<polygon fill="#e0e0e0" stroke="#999999" points="1635.22,-90.5 1549.22,-90.5 1549.22,-71.5 1635.22,-71.5 1635.22,-90.5"/>
<text text-anchor="middle" x="1592.22" y="-78.5" font-family="Helvetica,sans-Serif" font-size="10.00">unordered_set</text>
</a>
</g>
</g>
<!-- Node10&#45;&gt;Node11 -->
<g id="edge19_Node000010_Node000011" class="edge">
<title>Node10&#45;&gt;Node11</title>
<g id="a_edge19_Node000010_Node000011"><a xlink:title=" ">
<path fill="none" stroke="#63b8ff" d="M1652.75,-131.87C1641.74,-122.8 1624.19,-108.34 1610.82,-97.32"/>
<polygon fill="#63b8ff" stroke="#63b8ff" points="1612.69,-94.33 1602.74,-90.67 1608.24,-99.73 1612.69,-94.33"/>
</a>
</g>
</g>
<!-- Node12&#45;&gt;Node4 -->
<g id="edge22_Node000012_Node000004" class="edge">
<title>Node12&#45;&gt;Node4</title>
<g id="a_edge22_Node000012_Node000004"><a xlink:title=" ">
<path fill="none" stroke="#63b8ff" d="M2167.5,-131.63C2152.68,-115.29 2118.38,-80.76 2081.22,-66 1990.23,-29.84 1704.03,-19.77 1571.64,-17.01"/>
<polygon fill="#63b8ff" stroke="#63b8ff" points="1571.68,-13.51 1561.62,-16.81 1571.54,-20.51 1571.68,-13.51"/>
</a>
</g>
</g>
<!-- Node12&#45;&gt;Node6 -->
<g id="edge23_Node000012_Node000006" class="edge">
<title>Node12&#45;&gt;Node6</title>
<g id="a_edge23_Node000012_Node000006"><a xlink:title=" ">
<path fill="none" stroke="#63b8ff" d="M2150.94,-131.99C2122.25,-121.94 2074.33,-105.16 2042.02,-93.84"/>
<polygon fill="#63b8ff" stroke="#63b8ff" points="2043.13,-90.52 2032.54,-90.52 2040.82,-97.13 2043.13,-90.52"/>
</a>
</g>
</g>
<!-- Node13&#45;&gt;Node4 -->
<g id="edge25_Node000013_Node000004" class="edge">
<title>Node13&#45;&gt;Node4</title>
<g id="a_edge25_Node000013_Node000004"><a xlink:title=" ">
<path fill="none" stroke="#63b8ff" d="M1067.3,-131.86C1060.98,-116.51 1050.84,-84.37 1067.22,-66 1091.22,-39.09 1318.1,-24.64 1434.72,-18.93"/>
<polygon fill="#63b8ff" stroke="#63b8ff" points="1435.15,-22.42 1444.97,-18.44 1434.81,-15.43 1435.15,-22.42"/>
</a>
</g>
</g>
<!-- Node14 -->
<g id="Node000014" class="node">
<title>Node14</title>
<g id="a_Node000014"><a xlink:title=" ">
<polygon fill="#e0e0e0" stroke="#999999" points="1410.22,-90.5 1372.22,-90.5 1372.22,-71.5 1410.22,-71.5 1410.22,-90.5"/>
<text text-anchor="middle" x="1391.22" y="-78.5" font-family="Helvetica,sans-Serif" font-size="10.00">map</text>
</a>
</g>
</g>
<!-- Node13&#45;&gt;Node14 -->
<g id="edge26_Node000013_Node000014" class="edge">
<title>Node13&#45;&gt;Node14</title>
<g id="a_edge26_Node000013_Node000014"><a xlink:title=" ">
<path fill="none" stroke="#63b8ff" d="M1117.76,-131.99C1184.85,-119.73 1306.78,-97.44 1362.3,-87.29"/>
<polygon fill="#63b8ff" stroke="#63b8ff" points="1362.97,-90.72 1372.18,-85.48 1361.71,-83.84 1362.97,-90.72"/>
</a>
</g>
</g>
<!-- Node15 -->
<g id="Node000015" class="node">
<title>Node15</title>
<g id="a_Node000015"><a xlink:title=" ">
<polygon fill="#e0e0e0" stroke="#999999" points="1204.22,-90.5 1146.22,-90.5 1146.22,-71.5 1204.22,-71.5 1204.22,-90.5"/>
<text text-anchor="middle" x="1175.22" y="-78.5" font-family="Helvetica,sans-Serif" font-size="10.00">memory</text>
</a>
</g>
</g>
<!-- Node13&#45;&gt;Node15 -->
<g id="edge27_Node000013_Node000015" class="edge">
<title>Node13&#45;&gt;Node15</title>
<g id="a_edge27_Node000013_Node000015"><a xlink:title=" ">
<path fill="none" stroke="#63b8ff" d="M1086.57,-131.87C1103.54,-122.32 1131.12,-106.81 1151.02,-95.62"/>
<polygon fill="#63b8ff" stroke="#63b8ff" points="1152.82,-98.62 1159.82,-90.67 1149.38,-92.52 1152.82,-98.62"/>
</a>
</g>
</g>
<!-- Node16 -->
<g id="Node000016" class="node">
<title>Node16</title>
<g id="a_Node000016"><a xlink:title=" ">
<polygon fill="#e0e0e0" stroke="#999999" points="1127.72,-90.5 1076.72,-90.5 1076.72,-71.5 1127.72,-71.5 1127.72,-90.5"/>
<text text-anchor="middle" x="1102.22" y="-78.5" font-family="Helvetica,sans-Serif" font-size="10.00">variant</text>
</a>
</g>
</g>
<!-- Node13&#45;&gt;Node16 -->
<g id="edge28_Node000013_Node000016" class="edge">
<title>Node13&#45;&gt;Node16</title>
<g id="a_edge28_Node000013_Node000016"><a xlink:title=" ">
<path fill="none" stroke="#63b8ff" d="M1075.8,-131.87C1080.29,-123.4 1087.26,-110.24 1092.92,-99.57"/>
<polygon fill="#63b8ff" stroke="#63b8ff" points="1096.04,-101.14 1097.63,-90.67 1089.86,-97.86 1096.04,-101.14"/>
</a>
</g>
</g>
<!-- Node17 -->
<g id="Node000017" class="node">
<title>Node17</title>
<g id="a_Node000017"><a xlink:title=" ">
<polygon fill="#e0e0e0" stroke="#999999" points="1008.72,-90.5 961.72,-90.5 961.72,-71.5 1008.72,-71.5 1008.72,-90.5"/>
<text text-anchor="middle" x="985.22" y="-78.5" font-family="Helvetica,sans-Serif" font-size="10.00">vector</text>
</a>
</g>
</g>
<!-- Node13&#45;&gt;Node17 -->
<g id="edge29_Node000013_Node000017" class="edge">
<title>Node13&#45;&gt;Node17</title>
<g id="a_edge29_Node000013_Node000017"><a xlink:title=" ">
<path fill="none" stroke="#63b8ff" d="M1058.54,-131.87C1044.82,-122.54 1022.72,-107.51 1006.37,-96.38"/>
<polygon fill="#63b8ff" stroke="#63b8ff" points="1008.2,-93.4 997.97,-90.67 1004.27,-99.19 1008.2,-93.4"/>
</a>
</g>
</g>
<!-- Node18&#45;&gt;Node3 -->
<g id="edge31_Node000018_Node000003" class="edge">
<title>Node18&#45;&gt;Node3</title>
<g id="a_edge31_Node000018_Node000003"><a xlink:title=" ">
<path fill="none" stroke="#63b8ff" d="M427.06,-186.72C438.02,-177.81 455.4,-163.57 470.22,-151 489.03,-135.05 510.04,-116.67 525.66,-102.89"/>
<polygon fill="#63b8ff" stroke="#63b8ff" points="528.13,-105.39 533.3,-96.14 523.49,-100.14 528.13,-105.39"/>
</a>
</g>
</g>
<!-- Node18&#45;&gt;Node4 -->
<g id="edge32_Node000018_Node000004" class="edge">
<title>Node18&#45;&gt;Node4</title>
<g id="a_edge32_Node000018_Node000004"><a xlink:title=" ">
<path fill="none" stroke="#63b8ff" d="M348.31,-195.98C223.43,-195.53 -26.44,-187.77 13.22,-132 65.04,-59.15 115.38,-82.57 203.22,-66 442.84,-20.82 1203.02,-16.28 1435.21,-15.97"/>
<polygon fill="#63b8ff" stroke="#63b8ff" points="1435.22,-19.47 1445.21,-15.96 1435.21,-12.47 1435.22,-19.47"/>
</a>
</g>
</g>
<!-- Node18&#45;&gt;Node13 -->
<g id="edge33_Node000018_Node000013" class="edge">
<title>Node18&#45;&gt;Node13</title>
<g id="a_edge33_Node000018_Node000013"><a xlink:title=" ">
<path fill="none" stroke="#63b8ff" d="M483.85,-190.03C604.94,-180.23 858.32,-159.73 989.15,-149.14"/>
<polygon fill="#63b8ff" stroke="#63b8ff" points="989.82,-152.6 999.5,-148.3 989.25,-145.62 989.82,-152.6"/>
</a>
</g>
</g>
<!-- Node19 -->
<g id="Node000019" class="node">
<title>Node19</title>
<g id="a_Node000019"><a xlink:href="DirektComboBox_8h.html" target="_top" xlink:title=" ">
<polygon fill="white" stroke="#666666" points="320.72,-151 169.72,-151 169.72,-132 320.72,-132 320.72,-151"/>
<text text-anchor="middle" x="245.22" y="-139" font-family="Helvetica,sans-Serif" font-size="10.00">controls/DirektComboBox.h</text>
</a>
</g>
</g>
<!-- Node18&#45;&gt;Node19 -->
<g id="edge34_Node000018_Node000019" class="edge">
<title>Node18&#45;&gt;Node19</title>
<g id="a_edge34_Node000018_Node000019"><a xlink:title=" ">
<path fill="none" stroke="#63b8ff" d="M388.75,-186.98C360.04,-178.09 314.81,-164.07 282.8,-154.15"/>
<polygon fill="#63b8ff" stroke="#63b8ff" points="283.5,-150.7 272.91,-151.08 281.43,-157.39 283.5,-150.7"/>
</a>
</g>
</g>
<!-- Node20 -->
<g id="Node000020" class="node">
<title>Node20</title>
<g id="a_Node000020"><a xlink:href="DirektKnob_8h.html" target="_top" xlink:title=" ">
<polygon fill="white" stroke="#666666" points="461.22,-151 339.22,-151 339.22,-132 461.22,-132 461.22,-151"/>
<text text-anchor="middle" x="400.22" y="-139" font-family="Helvetica,sans-Serif" font-size="10.00">controls/DirektKnob.h</text>
</a>
</g>
</g>
<!-- Node18&#45;&gt;Node20 -->
<g id="edge37_Node000018_Node000020" class="edge">
<title>Node18&#45;&gt;Node20</title>
<g id="a_edge37_Node000018_Node000020"><a xlink:title=" ">
<path fill="none" stroke="#63b8ff" d="M413.58,-186.75C411.46,-179.72 408.41,-169.62 405.76,-160.84"/>
<polygon fill="#63b8ff" stroke="#63b8ff" points="409.06,-159.65 402.82,-151.09 402.36,-161.67 409.06,-159.65"/>
</a>
</g>
</g>
<!-- Node22 -->
<g id="Node000022" class="node">
<title>Node22</title>
<g id="a_Node000022"><a xlink:href="DirektToggle_8h.html" target="_top" xlink:title=" ">
<polygon fill="white" stroke="#666666" points="151.72,-151 22.72,-151 22.72,-132 151.72,-132 151.72,-151"/>
<text text-anchor="middle" x="87.22" y="-139" font-family="Helvetica,sans-Serif" font-size="10.00">controls/DirektToggle.h</text>
</a>
</g>
</g>
<!-- Node18&#45;&gt;Node22 -->
<g id="edge41_Node000018_Node000022" class="edge">
<title>Node18&#45;&gt;Node22</title>
<g id="a_edge41_Node000018_Node000022"><a xlink:title=" ">
<path fill="none" stroke="#63b8ff" d="M363.37,-186.98C305.29,-177.63 212.08,-162.61 150.25,-152.65"/>
<polygon fill="#63b8ff" stroke="#63b8ff" points="150.66,-149.17 140.23,-151.04 149.54,-156.08 150.66,-149.17"/>
</a>
</g>
</g>
<!-- Node18&#45;&gt;Node23 -->
<g id="edge44_Node000018_Node000023" class="edge">
<title>Node18&#45;&gt;Node23</title>
<g id="a_edge44_Node000018_Node000023"><a xlink:title=" ">
<path fill="none" stroke="#63b8ff" d="M483.76,-191.45C646.54,-181.69 1059.47,-156.93 1227.47,-146.86"/>
<polygon fill="#63b8ff" stroke="#63b8ff" points="1227.92,-150.34 1237.69,-146.25 1227.5,-143.35 1227.92,-150.34"/>
</a>
</g>
</g>
<!-- Node19&#45;&gt;Node3 -->
<g id="edge35_Node000019_Node000003" class="edge">
<title>Node19&#45;&gt;Node3</title>
<g id="a_edge35_Node000019_Node000003"><a xlink:title=" ">
<path fill="none" stroke="#63b8ff" d="M289.43,-131.99C336.5,-122.94 411.98,-108.41 469.49,-97.34"/>
<polygon fill="#63b8ff" stroke="#63b8ff" points="470.48,-100.72 479.64,-95.39 469.16,-93.84 470.48,-100.72"/>
</a>
</g>
</g>
<!-- Node19&#45;&gt;Node4 -->
<g id="edge36_Node000019_Node000004" class="edge">
<title>Node19&#45;&gt;Node4</title>
<g id="a_edge36_Node000019_Node000004"><a xlink:title=" ">
<path fill="none" stroke="#63b8ff" d="M256.63,-131.98C279.32,-115.6 332.32,-80.08 383.22,-66 484.21,-38.07 1207.62,-21.75 1435.01,-17.27"/>
<polygon fill="#63b8ff" stroke="#63b8ff" points="1435.2,-20.77 1445.13,-17.07 1435.07,-13.77 1435.2,-20.77"/>
</a>
</g>
</g>
<!-- Node20&#45;&gt;Node3 -->
<g id="edge38_Node000020_Node000003" class="edge">
<title>Node20&#45;&gt;Node3</title>
<g id="a_edge38_Node000020_Node000003"><a xlink:title=" ">
<path fill="none" stroke="#63b8ff" d="M421.89,-131.99C443.33,-123.57 476.81,-110.43 504.06,-99.73"/>
<polygon fill="#63b8ff" stroke="#63b8ff" points="505.37,-102.98 513.4,-96.06 502.82,-96.46 505.37,-102.98"/>
</a>
</g>
</g>
<!-- Node20&#45;&gt;Node4 -->
<g id="edge39_Node000020_Node000004" class="edge">
<title>Node20&#45;&gt;Node4</title>
<g id="a_edge39_Node000020_Node000004"><a xlink:title=" ">
<path fill="none" stroke="#63b8ff" d="M396.17,-131.75C389.66,-116.21 379.22,-83.79 396.22,-66 432.2,-28.36 1199.29,-18.62 1434.96,-16.51"/>
<polygon fill="#63b8ff" stroke="#63b8ff" points="1435.15,-20.01 1445.12,-16.43 1435.09,-13.01 1435.15,-20.01"/>
</a>
</g>
</g>
<!-- Node21 -->
<g id="Node000021" class="node">
<title>Node21</title>
<g id="a_Node000021"><a xlink:title=" ">
<polygon fill="#e0e0e0" stroke="#999999" points="461.22,-90.5 405.22,-90.5 405.22,-71.5 461.22,-71.5 461.22,-90.5"/>
<text text-anchor="middle" x="433.22" y="-78.5" font-family="Helvetica,sans-Serif" font-size="10.00">optional</text>
</a>
</g>
</g>
<!-- Node20&#45;&gt;Node21 -->
<g id="edge40_Node000020_Node000021" class="edge">
<title>Node20&#45;&gt;Node21</title>
<g id="a_edge40_Node000020_Node000021"><a xlink:title=" ">
<path fill="none" stroke="#63b8ff" d="M405.09,-131.87C409.87,-123.4 417.29,-110.24 423.32,-99.57"/>
<polygon fill="#63b8ff" stroke="#63b8ff" points="426.47,-101.1 428.34,-90.67 420.37,-97.66 426.47,-101.1"/>
</a>
</g>
</g>
<!-- Node22&#45;&gt;Node3 -->
<g id="edge42_Node000022_Node000003" class="edge">
<title>Node22&#45;&gt;Node3</title>
<g id="a_edge42_Node000022_Node000003"><a xlink:title=" ">
<path fill="none" stroke="#63b8ff" d="M152.1,-132.94C154.85,-132.63 157.56,-132.31 160.22,-132 294.77,-116.35 331.29,-116.11 469.36,-96.07"/>
<polygon fill="#63b8ff" stroke="#63b8ff" points="470.09,-99.5 479.47,-94.59 469.07,-92.58 470.09,-99.5"/>
</a>
</g>
</g>
<!-- Node22&#45;&gt;Node4 -->
<g id="edge43_Node000022_Node000004" class="edge">
<title>Node22&#45;&gt;Node4</title>
<g id="a_edge43_Node000022_Node000004"><a xlink:title=" ">
<path fill="none" stroke="#63b8ff" d="M107,-131.91C145.7,-115.56 234.58,-80.33 313.22,-66 530.75,-26.37 1215.28,-18.06 1434.78,-16.4"/>
<polygon fill="#63b8ff" stroke="#63b8ff" points="1434.9,-19.9 1444.87,-16.32 1434.85,-12.9 1434.9,-19.9"/>
</a>
</g>
</g>
<!-- Node23&#45;&gt;Node4 -->
<g id="edge45_Node000023_Node000004" class="edge">
<title>Node23&#45;&gt;Node4</title>
<g id="a_edge45_Node000023_Node000004"><a xlink:title=" ">
<path fill="none" stroke="#63b8ff" d="M1305.35,-131.85C1314.88,-116.49 1336.77,-84.33 1363.22,-66 1384.76,-51.08 1411.23,-40.13 1435.34,-32.35"/>
<polygon fill="#63b8ff" stroke="#63b8ff" points="1436.63,-35.61 1445.14,-29.31 1434.56,-28.92 1436.63,-35.61"/>
</a>
</g>
</g>
<!-- Node23&#45;&gt;Node6 -->
<g id="edge48_Node000023_Node000006" class="edge">
<title>Node23&#45;&gt;Node6</title>
<g id="a_edge48_Node000023_Node000006"><a xlink:title=" ">
<path fill="none" stroke="#63b8ff" d="M1362.74,-135.33C1493.38,-124.54 1794.72,-99.64 1934.52,-88.09"/>
<polygon fill="#63b8ff" stroke="#63b8ff" points="1935.02,-91.56 1944.7,-87.25 1934.45,-84.58 1935.02,-91.56"/>
</a>
</g>
</g>
<!-- Node23&#45;&gt;Node8 -->
<g id="edge46_Node000023_Node000008" class="edge">
<title>Node23&#45;&gt;Node8</title>
<g id="a_edge46_Node000023_Node000008"><a xlink:title=" ">
<path fill="none" stroke="#63b8ff" d="M1295.95,-131.87C1291.79,-123.49 1285.36,-110.51 1280.1,-99.89"/>
<polygon fill="#63b8ff" stroke="#63b8ff" points="1283.1,-98.07 1275.52,-90.67 1276.83,-101.18 1283.1,-98.07"/>
</a>
</g>
</g>
<!-- Node23&#45;&gt;Node15 -->
<g id="edge47_Node000023_Node000015" class="edge">
<title>Node23&#45;&gt;Node15</title>
<g id="a_edge47_Node000023_Node000015"><a xlink:title=" ">
<path fill="none" stroke="#63b8ff" d="M1282.05,-131.99C1261.22,-122.25 1226.86,-106.16 1202.74,-94.88"/>
<polygon fill="#63b8ff" stroke="#63b8ff" points="1203.96,-91.59 1193.42,-90.52 1201,-97.93 1203.96,-91.59"/>
</a>
</g>
</g>
<!-- Node24&#45;&gt;Node3 -->
<g id="edge50_Node000024_Node000003" class="edge">
<title>Node24&#45;&gt;Node3</title>
<g id="a_edge50_Node000024_Node000003"><a xlink:title=" ">
<path fill="none" stroke="#63b8ff" d="M1419.5,-135.25C1403.91,-134.15 1387.52,-133.01 1372.22,-132 1099.7,-113.99 776.25,-95.05 629.16,-86.57"/>
<polygon fill="#63b8ff" stroke="#63b8ff" points="629.06,-83.06 618.88,-85.98 628.66,-90.05 629.06,-83.06"/>
</a>
</g>
</g>
<!-- Node24&#45;&gt;Node14 -->
<g id="edge52_Node000024_Node000014" class="edge">
<title>Node24&#45;&gt;Node14</title>
<g id="a_edge52_Node000024_Node000014"><a xlink:title=" ">
<path fill="none" stroke="#63b8ff" d="M1476.47,-131.87C1460.22,-122.36 1433.87,-106.95 1414.76,-95.77"/>
<polygon fill="#63b8ff" stroke="#63b8ff" points="1416.44,-92.7 1406.04,-90.67 1412.9,-98.74 1416.44,-92.7"/>
</a>
</g>
</g>
<!-- Node25 -->
<g id="Node000025" class="node">
<title>Node25</title>
<g id="a_Node000025"><a xlink:title=" ">
<polygon fill="#e0e0e0" stroke="#999999" points="2599.22,-90.5 2549.22,-90.5 2549.22,-71.5 2599.22,-71.5 2599.22,-90.5"/>
<text text-anchor="middle" x="2574.22" y="-78.5" font-family="Helvetica,sans-Serif" font-size="10.00">atomic</text>
</a>
</g>
</g>
<!-- Node24&#45;&gt;Node25 -->
<g id="edge51_Node000024_Node000025" class="edge">
<title>Node24&#45;&gt;Node25</title>
<g id="a_edge51_Node000024_Node000025"><a xlink:title=" ">
<path fill="none" stroke="#63b8ff" d="M1562.76,-132.78C1565.96,-132.5 1569.12,-132.24 1572.22,-132 1950.16,-102.76 2409.67,-87.1 2538.92,-83.06"/>
<polygon fill="#63b8ff" stroke="#63b8ff" points="2539.14,-86.56 2549.03,-82.75 2538.92,-79.56 2539.14,-86.56"/>
</a>
</g>
</g>
<!-- Node26&#45;&gt;Node3 -->
<g id="edge54_Node000026_Node000003" class="edge">
<title>Node26&#45;&gt;Node3</title>
<g id="a_edge54_Node000026_Node000003"><a xlink:title=" ">
<path fill="none" stroke="#63b8ff" d="M1099.6,-195.29C1013.2,-192.99 878.21,-183.75 766.22,-151 748.1,-145.7 745.84,-138.79 728.22,-132 693.58,-118.64 653.9,-107.19 620.72,-98.63"/>
<polygon fill="#63b8ff" stroke="#63b8ff" points="621.2,-95.14 610.65,-96.06 619.48,-101.92 621.2,-95.14"/>
</a>
</g>
</g>
<!-- Node26&#45;&gt;Node4 -->
<g id="edge55_Node000026_Node000004" class="edge">
<title>Node26&#45;&gt;Node4</title>
<g id="a_edge55_Node000026_Node000004"><a xlink:title=" ">
<path fill="none" stroke="#63b8ff" d="M1114.78,-186.99C1063.12,-179.67 999.24,-167.63 978.22,-151 947.25,-126.48 925.58,-95.17 952.22,-66 984.18,-31.02 1294.2,-20.26 1434.67,-17.16"/>
<polygon fill="#63b8ff" stroke="#63b8ff" points="1434.96,-20.66 1444.89,-16.94 1434.81,-13.66 1434.96,-20.66"/>
</a>
</g>
</g>
<!-- Node26&#45;&gt;Node8 -->
<g id="edge56_Node000026_Node000008" class="edge">
<title>Node26&#45;&gt;Node8</title>
<g id="a_edge56_Node000026_Node000008"><a xlink:title=" ">
<path fill="none" stroke="#63b8ff" d="M1192.62,-186.66C1200.34,-174.19 1215.15,-150.85 1229.22,-132 1237.93,-120.34 1248.47,-107.8 1256.81,-98.19"/>
<polygon fill="#63b8ff" stroke="#63b8ff" points="1259.51,-100.43 1263.48,-90.6 1254.25,-95.81 1259.51,-100.43"/>
</a>
</g>
</g>
<!-- Node26&#45;&gt;Node13 -->
<g id="edge60_Node000026_Node000013" class="edge">
<title>Node26&#45;&gt;Node13</title>
<g id="a_edge60_Node000026_Node000013"><a xlink:title=" ">
<path fill="none" stroke="#63b8ff" d="M1168.59,-186.98C1149.93,-178.46 1120.97,-165.23 1099.48,-155.41"/>
<polygon fill="#63b8ff" stroke="#63b8ff" points="1100.75,-152.14 1090.2,-151.17 1097.84,-158.51 1100.75,-152.14"/>
</a>
</g>
</g>
<!-- Node26&#45;&gt;Node14 -->
<g id="edge57_Node000026_Node000014" class="edge">
<title>Node26&#45;&gt;Node14</title>
<g id="a_edge57_Node000026_Node000014"><a xlink:title=" ">
<path fill="none" stroke="#63b8ff" d="M1252.18,-186.97C1298.34,-179.64 1355.07,-167.6 1372.22,-151 1385.73,-137.93 1389.91,-116.21 1391.07,-100.63"/>
<polygon fill="#63b8ff" stroke="#63b8ff" points="1394.57,-100.71 1391.47,-90.58 1387.57,-100.43 1394.57,-100.71"/>
</a>
</g>
</g>
<!-- Node26&#45;&gt;Node15 -->
<g id="edge58_Node000026_Node000015" class="edge">
<title>Node26&#45;&gt;Node15</title>
<g id="a_edge58_Node000026_Node000015"><a xlink:title=" ">
<path fill="none" stroke="#63b8ff" d="M1186.32,-186.97C1184.39,-168.73 1179.83,-125.57 1177.2,-100.64"/>
<polygon fill="#63b8ff" stroke="#63b8ff" points="1180.67,-100.21 1176.14,-90.63 1173.71,-100.94 1180.67,-100.21"/>
</a>
</g>
</g>
<!-- Node26&#45;&gt;Node17 -->
<g id="edge59_Node000026_Node000017" class="edge">
<title>Node26&#45;&gt;Node17</title>
<g id="a_edge59_Node000026_Node000017"><a xlink:title=" ">
<path fill="none" stroke="#63b8ff" d="M1106.35,-186.98C1059,-180.21 1005.58,-168.84 990.22,-151 978.5,-137.37 978.78,-116.09 981.03,-100.77"/>
<polygon fill="#63b8ff" stroke="#63b8ff" points="984.48,-101.33 982.87,-90.86 977.6,-100.05 984.48,-101.33"/>
</a>
</g>
</g>
<!-- Node26&#45;&gt;Node24 -->
<g id="edge61_Node000026_Node000024" class="edge">
<title>Node26&#45;&gt;Node24</title>
<g id="a_edge61_Node000026_Node000024"><a xlink:title=" ">
<path fill="none" stroke="#63b8ff" d="M1236.07,-186.98C1289.51,-177.67 1375.15,-162.74 1432.28,-152.78"/>
<polygon fill="#63b8ff" stroke="#63b8ff" points="1433,-156.2 1442.25,-151.04 1431.8,-149.31 1433,-156.2"/>
</a>
</g>
</g>
<!-- Node27&#45;&gt;Node3 -->
<g id="edge63_Node000027_Node000003" class="edge">
<title>Node27&#45;&gt;Node3</title>
<g id="a_edge63_Node000027_Node000003"><a xlink:title=" ">
<path fill="none" stroke="#63b8ff" d="M624.24,-131.87C612.41,-124 594.49,-112.09 579.14,-101.89"/>
<polygon fill="#63b8ff" stroke="#63b8ff" points="580.72,-98.74 570.46,-96.11 576.85,-104.57 580.72,-98.74"/>
</a>
</g>
</g>
<!-- Node27&#45;&gt;Node17 -->
<g id="edge64_Node000027_Node000017" class="edge">
<title>Node27&#45;&gt;Node17</title>
<g id="a_edge64_Node000027_Node000017"><a xlink:title=" ">
<path fill="none" stroke="#63b8ff" d="M687.83,-131.99C760,-119.86 890.52,-97.92 951.78,-87.62"/>
<polygon fill="#63b8ff" stroke="#63b8ff" points="952.41,-91.07 961.69,-85.96 951.25,-84.16 952.41,-91.07"/>
</a>
</g>
</g>
<!-- Node28&#45;&gt;Node4 -->
<g id="edge68_Node000028_Node000004" class="edge">
<title>Node28&#45;&gt;Node4</title>
<g id="a_edge68_Node000028_Node000004"><a xlink:title=" ">
<path fill="none" stroke="#63b8ff" d="M2310.22,-131.9C2273.81,-115.87 2191.36,-81.61 2118.22,-66 1922.97,-24.33 1686.05,-16.83 1571.63,-15.84"/>
<polygon fill="#63b8ff" stroke="#63b8ff" points="1571.63,-12.34 1561.6,-15.76 1571.58,-19.34 1571.63,-12.34"/>
</a>
</g>
</g>
<!-- Node28&#45;&gt;Node6 -->
<g id="edge69_Node000028_Node000006" class="edge">
<title>Node28&#45;&gt;Node6</title>
<g id="a_edge69_Node000028_Node000006"><a xlink:title=" ">
<path fill="none" stroke="#63b8ff" d="M2282.55,-131.99C2224.9,-121.49 2126.88,-103.62 2064.95,-92.34"/>
<polygon fill="#63b8ff" stroke="#63b8ff" points="2065.42,-88.87 2054.96,-90.52 2064.17,-95.75 2065.42,-88.87"/>
</a>
</g>
</g>
<!-- Node29&#45;&gt;Node4 -->
<g id="edge71_Node000029_Node000004" class="edge">
<title>Node29&#45;&gt;Node4</title>
<g id="a_edge71_Node000029_Node000004"><a xlink:title=" ">
<path fill="none" stroke="#63b8ff" d="M2505.43,-131.91C2442.22,-116.2 2301.62,-82.89 2181.22,-66 1959.53,-34.9 1694.17,-22.44 1571.54,-18.07"/>
<polygon fill="#63b8ff" stroke="#63b8ff" points="1571.66,-14.57 1561.54,-17.72 1571.41,-21.56 1571.66,-14.57"/>
</a>
</g>
</g>
<!-- Node29&#45;&gt;Node6 -->
<g id="edge73_Node000029_Node000006" class="edge">
<title>Node29&#45;&gt;Node6</title>
<g id="a_edge73_Node000029_Node000006"><a xlink:title=" ">
<path fill="none" stroke="#63b8ff" d="M2462.01,-131.99C2360.09,-120.77 2181.91,-101.13 2081.83,-90.11"/>
<polygon fill="#63b8ff" stroke="#63b8ff" points="2082.12,-86.62 2071.8,-89 2081.35,-93.58 2082.12,-86.62"/>
</a>
</g>
</g>
<!-- Node29&#45;&gt;Node25 -->
<g id="edge72_Node000029_Node000025" class="edge">
<title>Node29&#45;&gt;Node25</title>
<g id="a_edge72_Node000029_Node000025"><a xlink:title=" ">
<path fill="none" stroke="#63b8ff" d="M2544.39,-131.87C2549.46,-123.4 2557.33,-110.24 2563.72,-99.57"/>
<polygon fill="#63b8ff" stroke="#63b8ff" points="2566.91,-101.05 2569.04,-90.67 2560.9,-97.45 2566.91,-101.05"/>
</a>
</g>
</g>
<!-- Node30&#45;&gt;Node4 -->
<g id="edge75_Node000030_Node000004" class="edge">
<title>Node30&#45;&gt;Node4</title>
<g id="a_edge75_Node000030_Node000004"><a xlink:title=" ">
<path fill="none" stroke="#63b8ff" d="M2723.95,-131.98C2703.47,-115.6 2655.47,-80.08 2608.22,-66 2509.27,-36.51 1796.68,-21.28 1571.35,-17.16"/>
<polygon fill="#63b8ff" stroke="#63b8ff" points="1571.37,-13.66 1561.3,-16.98 1571.24,-20.66 1571.37,-13.66"/>
</a>
</g>
</g>
<!-- Node30&#45;&gt;Node6 -->
<g id="edge77_Node000030_Node000006" class="edge">
<title>Node30&#45;&gt;Node6</title>
<g id="a_edge77_Node000030_Node000006"><a xlink:title=" ">
<path fill="none" stroke="#63b8ff" d="M2672.95,-135.56C2540,-124.85 2225.49,-99.51 2081.95,-87.94"/>
<polygon fill="#63b8ff" stroke="#63b8ff" points="2082.17,-84.45 2071.92,-87.13 2081.6,-91.42 2082.17,-84.45"/>
</a>
</g>
</g>
<!-- Node30&#45;&gt;Node25 -->
<g id="edge76_Node000030_Node000025" class="edge">
<title>Node30&#45;&gt;Node25</title>
<g id="a_edge76_Node000030_Node000025"><a xlink:title=" ">
<path fill="none" stroke="#63b8ff" d="M2710.96,-131.99C2683.59,-121.99 2637.96,-105.3 2607.01,-93.99"/>
<polygon fill="#63b8ff" stroke="#63b8ff" points="2608.11,-90.66 2597.52,-90.52 2605.71,-97.24 2608.11,-90.66"/>
</a>
</g>
</g>
<!-- Node31&#45;&gt;Node4 -->
<g id="edge79_Node000031_Node000004" class="edge">
<title>Node31&#45;&gt;Node4</title>
<g id="a_edge79_Node000031_Node000004"><a xlink:title=" ">
<path fill="none" stroke="#63b8ff" d="M2720.98,-190.58C2772.94,-183.95 2828.12,-168.42 2804.22,-132 2763.83,-70.42 2723.99,-82.54 2652.22,-66 2444.88,-18.2 1786.36,-15.34 1571.64,-15.72"/>
<polygon fill="#63b8ff" stroke="#63b8ff" points="1571.45,-12.22 1561.45,-15.74 1571.46,-19.22 1571.45,-12.22"/>
</a>
</g>
</g>
<!-- Node31&#45;&gt;Node6 -->
<g id="edge82_Node000031_Node000006" class="edge">
<title>Node31&#45;&gt;Node6</title>
<g id="a_edge82_Node000031_Node000006"><a xlink:title=" ">
<path fill="none" stroke="#63b8ff" d="M2593.88,-186.97C2554.85,-179.6 2499.75,-167.52 2453.22,-151 2435.05,-144.55 2432.71,-137.48 2414.22,-132 2301.3,-98.56 2164.31,-87.46 2081.82,-83.79"/>
<polygon fill="#63b8ff" stroke="#63b8ff" points="2081.92,-80.29 2071.79,-83.37 2081.63,-87.29 2081.92,-80.29"/>
</a>
</g>
</g>
<!-- Node31&#45;&gt;Node25 -->
<g id="edge80_Node000031_Node000025" class="edge">
<title>Node31&#45;&gt;Node25</title>
<g id="a_edge80_Node000031_Node000025"><a xlink:title=" ">
<path fill="none" stroke="#63b8ff" d="M2643.21,-186.71C2641.43,-173.89 2636.84,-149.68 2626.22,-132 2618.01,-118.31 2605.08,-105.85 2594.17,-96.8"/>
<polygon fill="#63b8ff" stroke="#63b8ff" points="2596.33,-94.05 2586.33,-90.57 2591.98,-99.53 2596.33,-94.05"/>
</a>
</g>
</g>
<!-- Node31&#45;&gt;Node30 -->
<g id="edge81_Node000031_Node000030" class="edge">
<title>Node31&#45;&gt;Node30</title>
<g id="a_edge81_Node000031_Node000030"><a xlink:title=" ">
<path fill="none" stroke="#63b8ff" d="M2658.68,-186.98C2672.64,-178.77 2694.02,-166.18 2710.47,-156.49"/>
<polygon fill="#63b8ff" stroke="#63b8ff" points="2712.66,-159.26 2719.5,-151.17 2709.11,-153.23 2712.66,-159.26"/>
</a>
</g>
</g>
</g>
</svg>
