<?xml version="1.0" encoding="UTF-8" standalone="no"?>
<!DOCTYPE svg PUBLIC "-//W3C//DTD SVG 1.1//EN"
 "http://www.w3.org/Graphics/SVG/1.1/DTD/svg11.dtd">
<!-- Generated by graphviz version 2.43.0 (0)
 -->
<!-- Title: chrome/DirektPresetBrowser.cpp Pages: 1 -->
<svg width="495pt" height="214pt"
 viewBox="0.00 0.00 495.00 214.00" xmlns="http://www.w3.org/2000/svg" xmlns:xlink="http://www.w3.org/1999/xlink">

<svg id="main" version="1.1" xmlns="http://www.w3.org/2000/svg" xmlns:xlink="http://www.w3.org/1999/xlink" xml:space="preserve" onload="init(evt)">
<style type="text/css"><![CDATA[
.node, .edge {opacity: 0.7;}
.node.selected, .edge.selected {opacity: 1;}
.edge:hover path { stroke: red; }
.edge:hover polygon { stroke: red; fill: red; }
]]></style>
<script type="application/ecmascript" xlink:href="svg.min.js"/>
<svg id="graph" class="graph">
<g id="graph0" class="graph" transform="scale(1 1) rotate(0) translate(4 210)">
<title>chrome/DirektPresetBrowser.cpp</title>
<!-- Node1 -->
<g id="Node000001" class="node">
<title>Node1</title>
<g id="a_Node000001"><a xlink:title=" ">
<polygon fill="#999999" stroke="#666666" points="339.5,-206 163.5,-206 163.5,-187 339.5,-187 339.5,-206"/>
<text text-anchor="middle" x="251.5" y="-194" font-family="Helvetica,sans-Serif" font-size="10.00">chrome/DirektPresetBrowser.cpp</text>
</a>
</g>
</g>
<!-- Node2 -->
<g id="Node000002" class="node">
<title>Node2</title>
<g id="a_Node000002"><a xlink:href="DirektPresetBrowser_8h.html" target="_top" xlink:title=" ">
<polygon fill="white" stroke="#666666" points="165,-151 0,-151 0,-132 165,-132 165,-151"/>
<text text-anchor="middle" x="82.5" y="-139" font-family="Helvetica,sans-Serif" font-size="10.00">chrome/DirektPresetBrowser.h</text>
</a>
</g>
</g>
<!-- Node1&#45;&gt;Node2 -->
<g id="edge1_Node000001_Node000002" class="edge">
<title>Node1&#45;&gt;Node2</title>
<g id="a_edge1_Node000001_Node000002"><a xlink:title=" ">
<path fill="none" stroke="#63b8ff" d="M224.35,-186.98C195.97,-178.09 151.27,-164.07 119.64,-154.15"/>
<polygon fill="#63b8ff" stroke="#63b8ff" points="120.45,-150.73 109.87,-151.08 118.36,-157.41 120.45,-150.73"/>
</a>
</g>
</g>
<!-- Node7 -->
<g id="Node000007" class="node">
<title>Node7</title>
<g id="a_Node000007"><a xlink:title=" ">
<polygon fill="#e0e0e0" stroke="#999999" points="247.5,-151 183.5,-151 183.5,-132 247.5,-132 247.5,-151"/>
<text text-anchor="middle" x="215.5" y="-139" font-family="Helvetica,sans-Serif" font-size="10.00">algorithm</text>
</a>
</g>
</g>
<!-- Node1&#45;&gt;Node7 -->
<g id="edge7_Node000001_Node000007" class="edge">
<title>Node1&#45;&gt;Node7</title>
<g id="a_edge7_Node000001_Node000007"><a xlink:title=" ">
<path fill="none" stroke="#63b8ff" d="M245.56,-186.75C240.52,-179.34 233.16,-168.5 226.99,-159.41"/>
<polygon fill="#63b8ff" stroke="#63b8ff" points="229.85,-157.39 221.33,-151.09 224.06,-161.33 229.85,-157.39"/>
</a>
</g>
</g>
<!-- Node8 -->
<g id="Node000008" class="node">
<title>Node8</title>
<g id="a_Node000008"><a xlink:title=" ">
<polygon fill="#e0e0e0" stroke="#999999" points="311,-151 266,-151 266,-132 311,-132 311,-151"/>
<text text-anchor="middle" x="288.5" y="-139" font-family="Helvetica,sans-Serif" font-size="10.00">utility</text>
</a>
</g>
</g>
<!-- Node1&#45;&gt;Node8 -->
<g id="edge8_Node000001_Node000008" class="edge">
<title>Node1&#45;&gt;Node8</title>
<g id="a_edge8_Node000001_Node000008"><a xlink:title=" ">
<path fill="none" stroke="#63b8ff" d="M257.61,-186.75C262.78,-179.34 270.35,-168.5 276.69,-159.41"/>
<polygon fill="#63b8ff" stroke="#63b8ff" points="279.65,-161.29 282.5,-151.09 273.91,-157.29 279.65,-161.29"/>
</a>
</g>
</g>
<!-- Node9 -->
<g id="Node000009" class="node">
<title>Node9</title>
<g id="a_Node000009"><a xlink:href="PresetManager_8h.html" target="_top" xlink:title=" ">
<polygon fill="white" stroke="#666666" points="466,-151 329,-151 329,-132 466,-132 466,-151"/>
<text text-anchor="middle" x="397.5" y="-139" font-family="Helvetica,sans-Serif" font-size="10.00">Service/PresetManager.h</text>
</a>
</g>
</g>
<!-- Node1&#45;&gt;Node9 -->
<g id="edge9_Node000001_Node000009" class="edge">
<title>Node1&#45;&gt;Node9</title>
<g id="a_edge9_Node000001_Node000009"><a xlink:title=" ">
<path fill="none" stroke="#63b8ff" d="M274.96,-186.98C299.08,-178.23 336.87,-164.51 364.1,-154.62"/>
<polygon fill="#63b8ff" stroke="#63b8ff" points="365.41,-157.87 373.62,-151.17 363.02,-151.29 365.41,-157.87"/>
</a>
</g>
</g>
<!-- Node3 -->
<g id="Node000003" class="node">
<title>Node3</title>
<g id="a_Node000003"><a xlink:title=" ">
<polygon fill="#e0e0e0" stroke="#999999" points="285.5,-30 169.5,-30 169.5,0 285.5,0 285.5,-30"/>
<text text-anchor="start" x="177.5" y="-18" font-family="Helvetica,sans-Serif" font-size="10.00">juce_gui_basics/juce</text>
<text text-anchor="middle" x="227.5" y="-7" font-family="Helvetica,sans-Serif" font-size="10.00">_gui_basics.h</text>
</a>
</g>
</g>
<!-- Node2&#45;&gt;Node3 -->
<g id="edge2_Node000002_Node000003" class="edge">
<title>Node2&#45;&gt;Node3</title>
<g id="a_edge2_Node000002_Node000003"><a xlink:title=" ">
<path fill="none" stroke="#63b8ff" d="M61.98,-132C47.48,-124.77 29.15,-112.86 20.5,-96 14.41,-84.14 12.25,-76.48 20.5,-66 37.66,-44.2 105.84,-30.78 159.33,-23.4"/>
<polygon fill="#63b8ff" stroke="#63b8ff" points="160.02,-26.84 169.47,-22.05 159.09,-19.9 160.02,-26.84"/>
</a>
</g>
</g>
<!-- Node4 -->
<g id="Node000004" class="node">
<title>Node4</title>
<g id="a_Node000004"><a xlink:title=" ">
<polygon fill="#e0e0e0" stroke="#999999" points="95,-90.5 30,-90.5 30,-71.5 95,-71.5 95,-90.5"/>
<text text-anchor="middle" x="62.5" y="-78.5" font-family="Helvetica,sans-Serif" font-size="10.00">functional</text>
</a>
</g>
</g>
<!-- Node2&#45;&gt;Node4 -->
<g id="edge3_Node000002_Node000004" class="edge">
<title>Node2&#45;&gt;Node4</title>
<g id="a_edge3_Node000002_Node000004"><a xlink:title=" ">
<path fill="none" stroke="#63b8ff" d="M79.55,-131.87C76.71,-123.57 72.34,-110.78 68.73,-100.22"/>
<polygon fill="#63b8ff" stroke="#63b8ff" points="72.01,-99 65.46,-90.67 65.39,-101.26 72.01,-99"/>
</a>
</g>
</g>
<!-- Node5 -->
<g id="Node000005" class="node">
<title>Node5</title>
<g id="a_Node000005"><a xlink:title=" ">
<polygon fill="#e0e0e0" stroke="#999999" points="145.5,-90.5 113.5,-90.5 113.5,-71.5 145.5,-71.5 145.5,-90.5"/>
<text text-anchor="middle" x="129.5" y="-78.5" font-family="Helvetica,sans-Serif" font-size="10.00">set</text>
</a>
</g>
</g>
<!-- Node2&#45;&gt;Node5 -->
<g id="edge4_Node000002_Node000005" class="edge">
<title>Node2&#45;&gt;Node5</title>
<g id="a_edge4_Node000002_Node000005"><a xlink:title=" ">
<path fill="none" stroke="#63b8ff" d="M89.44,-131.87C96.45,-123.14 107.46,-109.43 116.17,-98.59"/>
<polygon fill="#63b8ff" stroke="#63b8ff" points="119,-100.66 122.54,-90.67 113.54,-96.27 119,-100.66"/>
</a>
</g>
</g>
<!-- Node6 -->
<g id="Node000006" class="node">
<title>Node6</title>
<g id="a_Node000006"><a xlink:href="DirektColours_8h.html" target="_top" xlink:title=" ">
<polygon fill="white" stroke="#666666" points="291,-90.5 164,-90.5 164,-71.5 291,-71.5 291,-90.5"/>
<text text-anchor="middle" x="227.5" y="-78.5" font-family="Helvetica,sans-Serif" font-size="10.00">theme/DirektColours.h</text>
</a>
</g>
</g>
<!-- Node2&#45;&gt;Node6 -->
<g id="edge5_Node000002_Node000006" class="edge">
<title>Node2&#45;&gt;Node6</title>
<g id="a_edge5_Node000002_Node000006"><a xlink:title=" ">
<path fill="none" stroke="#63b8ff" d="M103.58,-131.99C128.18,-122.07 169.03,-105.59 197.06,-94.28"/>
<polygon fill="#63b8ff" stroke="#63b8ff" points="198.43,-97.5 206.39,-90.52 195.81,-91.01 198.43,-97.5"/>
</a>
</g>
</g>
<!-- Node6&#45;&gt;Node3 -->
<g id="edge6_Node000006_Node000003" class="edge">
<title>Node6&#45;&gt;Node3</title>
<g id="a_edge6_Node000006_Node000003"><a xlink:title=" ">
<path fill="none" stroke="#63b8ff" d="M227.5,-71.37C227.5,-63.49 227.5,-51.45 227.5,-40.6"/>
<polygon fill="#63b8ff" stroke="#63b8ff" points="231,-40.36 227.5,-30.36 224,-40.36 231,-40.36"/>
</a>
</g>
</g>
<!-- Node9&#45;&gt;Node3 -->
<g id="edge11_Node000009_Node000003" class="edge">
<title>Node9&#45;&gt;Node3</title>
<g id="a_edge11_Node000009_Node000003"><a xlink:title=" ">
<path fill="none" stroke="#63b8ff" d="M385.72,-131.67C373.79,-122.71 354.83,-108.44 338.5,-96 321.1,-82.75 317.15,-78.91 299.5,-66 285.73,-55.93 270.21,-45.09 257.11,-36.08"/>
<polygon fill="#63b8ff" stroke="#63b8ff" points="258.71,-32.94 248.48,-30.18 254.76,-38.71 258.71,-32.94"/>
</a>
</g>
</g>
<!-- Node10 -->
<g id="Node000010" class="node">
<title>Node10</title>
<g id="a_Node000010"><a xlink:title=" ">
<polygon fill="#e0e0e0" stroke="#999999" points="487,-96 348,-96 348,-66 487,-66 487,-96"/>
<text text-anchor="start" x="356" y="-84" font-family="Helvetica,sans-Serif" font-size="10.00">juce_audio_processors</text>
<text text-anchor="middle" x="417.5" y="-73" font-family="Helvetica,sans-Serif" font-size="10.00">/juce_audio_processors.h</text>
</a>
</g>
</g>
<!-- Node9&#45;&gt;Node10 -->
<g id="edge10_Node000009_Node000010" class="edge">
<title>Node9&#45;&gt;Node10</title>
<g id="a_edge10_Node000009_Node000010"><a xlink:title=" ">
<path fill="none" stroke="#63b8ff" d="M400.45,-131.87C402.81,-124.96 406.24,-114.93 409.41,-105.67"/>
<polygon fill="#63b8ff" stroke="#63b8ff" points="412.75,-106.71 412.67,-96.11 406.13,-104.44 412.75,-106.71"/>
</a>
</g>
</g>
</g>
</svg>
</svg>

<style type='text/css'>
<![CDATA[
[data-mouse-over-selected='false'] { opacity: 0.7; }
[data-mouse-over-selected='true']  { opacity: 1.0; }
]]>
</style>
<script type="application/ecmascript"><![CDATA[
document.addEventListener('DOMContentLoaded', (event) => {
  highlightEdges();
  highlightAdjacentNodes();
});
]]></script>
</svg>
