<?xml version="1.0" encoding="UTF-8" standalone="no"?>
<!DOCTYPE svg PUBLIC "-//W3C//DTD SVG 1.1//EN"
 "http://www.w3.org/Graphics/SVG/1.1/DTD/svg11.dtd">
<!-- Generated by graphviz version 2.43.0 (0)
 -->
<!-- Title: display/DirektMeter.cpp Pages: 1 -->
<svg width="245pt" height="203pt"
 viewBox="0.00 0.00 245.00 203.00" xmlns="http://www.w3.org/2000/svg" xmlns:xlink="http://www.w3.org/1999/xlink">
<g id="graph0" class="graph" transform="scale(1 1) rotate(0) translate(4 199)">
<title>display/DirektMeter.cpp</title>
<!-- Node1 -->
<g id="Node000001" class="node">
<title>Node1</title>
<g id="a_Node000001"><a xlink:title=" ">
<polygon fill="#999999" stroke="#666666" points="133,-195 0,-195 0,-176 133,-176 133,-195"/>
<text text-anchor="middle" x="66.5" y="-183" font-family="Helvetica,sans-Serif" font-size="10.00">display/DirektMeter.cpp</text>
</a>
</g>
</g>
<!-- Node2 -->
<g id="Node000002" class="node">
<title>Node2</title>
<g id="a_Node000002"><a xlink:href="DirektMeter_8h.html" target="_top" xlink:title=" ">
<polygon fill="white" stroke="#666666" points="127.5,-140 5.5,-140 5.5,-121 127.5,-121 127.5,-140"/>
<text text-anchor="middle" x="66.5" y="-128" font-family="Helvetica,sans-Serif" font-size="10.00">display/DirektMeter.h</text>
</a>
</g>
</g>
<!-- Node1&#45;&gt;Node2 -->
<g id="edge1_Node000001_Node000002" class="edge">
<title>Node1&#45;&gt;Node2</title>
<g id="a_edge1_Node000001_Node000002"><a xlink:title=" ">
<path fill="none" stroke="#63b8ff" d="M66.5,-175.75C66.5,-168.8 66.5,-158.85 66.5,-150.13"/>
<polygon fill="#63b8ff" stroke="#63b8ff" points="70,-150.09 66.5,-140.09 63,-150.09 70,-150.09"/>
</a>
</g>
</g>
<!-- Node3 -->
<g id="Node000003" class="node">
<title>Node3</title>
<g id="a_Node000003"><a xlink:title=" ">
<polygon fill="#e0e0e0" stroke="#999999" points="151.5,-30 35.5,-30 35.5,0 151.5,0 151.5,-30"/>
<text text-anchor="start" x="43.5" y="-18" font-family="Helvetica,sans-Serif" font-size="10.00">juce_gui_basics/juce</text>
<text text-anchor="middle" x="93.5" y="-7" font-family="Helvetica,sans-Serif" font-size="10.00">_gui_basics.h</text>
</a>
</g>
</g>
<!-- Node2&#45;&gt;Node3 -->
<g id="edge2_Node000002_Node000003" class="edge">
<title>Node2&#45;&gt;Node3</title>
<g id="a_edge2_Node000002_Node000003"><a xlink:title=" ">
<path fill="none" stroke="#63b8ff" d="M55.86,-120.6C42.69,-108.45 23.08,-85.89 32.5,-66 38.19,-53.99 48.33,-43.9 58.73,-36"/>
<polygon fill="#63b8ff" stroke="#63b8ff" points="60.89,-38.76 67.05,-30.14 56.86,-33.04 60.89,-38.76"/>
</a>
</g>
</g>
<!-- Node4 -->
<g id="Node000004" class="node">
<title>Node4</title>
<g id="a_Node000004"><a xlink:title=" ">
<polygon fill="#e0e0e0" stroke="#999999" points="91.5,-85 41.5,-85 41.5,-66 91.5,-66 91.5,-85"/>
<text text-anchor="middle" x="66.5" y="-73" font-family="Helvetica,sans-Serif" font-size="10.00">atomic</text>
</a>
</g>
</g>
<!-- Node2&#45;&gt;Node4 -->
<g id="edge3_Node000002_Node000004" class="edge">
<title>Node2&#45;&gt;Node4</title>
<g id="a_edge3_Node000002_Node000004"><a xlink:title=" ">
<path fill="none" stroke="#63b8ff" d="M66.5,-120.75C66.5,-113.8 66.5,-103.85 66.5,-95.13"/>
<polygon fill="#63b8ff" stroke="#63b8ff" points="70,-95.09 66.5,-85.09 63,-95.09 70,-95.09"/>
</a>
</g>
</g>
<!-- Node5 -->
<g id="Node000005" class="node">
<title>Node5</title>
<g id="a_Node000005"><a xlink:href="DirektColours_8h.html" target="_top" xlink:title=" ">
<polygon fill="white" stroke="#666666" points="237,-85 110,-85 110,-66 237,-66 237,-85"/>
<text text-anchor="middle" x="173.5" y="-73" font-family="Helvetica,sans-Serif" font-size="10.00">theme/DirektColours.h</text>
</a>
</g>
</g>
<!-- Node2&#45;&gt;Node5 -->
<g id="edge4_Node000002_Node000005" class="edge">
<title>Node2&#45;&gt;Node5</title>
<g id="a_edge4_Node000002_Node000005"><a xlink:title=" ">
<path fill="none" stroke="#63b8ff" d="M83.69,-120.98C100.75,-112.54 127.13,-99.47 146.9,-89.68"/>
<polygon fill="#63b8ff" stroke="#63b8ff" points="148.59,-92.75 156,-85.17 145.48,-86.47 148.59,-92.75"/>
</a>
</g>
</g>
<!-- Node5&#45;&gt;Node3 -->
<g id="edge5_Node000005_Node000003" class="edge">
<title>Node5&#45;&gt;Node3</title>
<g id="a_edge5_Node000005_Node000003"><a xlink:title=" ">
<path fill="none" stroke="#63b8ff" d="M161.7,-65.87C151.04,-58.08 134.96,-46.32 121.09,-36.17"/>
<polygon fill="#63b8ff" stroke="#63b8ff" points="122.94,-33.19 112.8,-30.11 118.81,-38.84 122.94,-33.19"/>
</a>
</g>
</g>
</g>
</svg>
