<?xml version="1.0" encoding="UTF-8" standalone="no"?>
<!DOCTYPE svg PUBLIC "-//W3C//DTD SVG 1.1//EN"
 "http://www.w3.org/Graphics/SVG/1.1/DTD/svg11.dtd">
<!-- Generated by graphviz version 2.43.0 (0)
 -->
<!-- Title: chrome/DirektHeader.h Pages: 1 -->
<svg width="317pt" height="137pt"
 viewBox="0.00 0.00 316.75 137.00" xmlns="http://www.w3.org/2000/svg" xmlns:xlink="http://www.w3.org/1999/xlink">

<svg id="main" version="1.1" xmlns="http://www.w3.org/2000/svg" xmlns:xlink="http://www.w3.org/1999/xlink" xml:space="preserve" onload="init(evt)">
<style type="text/css"><![CDATA[
.node, .edge {opacity: 0.7;}
.node.selected, .edge.selected {opacity: 1;}
.edge:hover path { stroke: red; }
.edge:hover polygon { stroke: red; fill: red; }
]]></style>
<script type="application/ecmascript" xlink:href="svg.min.js"/>
<svg id="graph" class="graph">
<g id="graph0" class="graph" transform="scale(1 1) rotate(0) translate(4 133)">
<title>chrome/DirektHeader.h</title>
<!-- Node1 -->
<g id="Node000001" class="node">
<title>Node1</title>
<g id="a_Node000001"><a xlink:title=" ">
<polygon fill="#999999" stroke="#666666" points="148.25,-129 18.25,-129 18.25,-110 148.25,-110 148.25,-129"/>
<text text-anchor="middle" x="83.25" y="-117" font-family="Helvetica,sans-Serif" font-size="10.00">chrome/DirektHeader.h</text>
</a>
</g>
</g>
<!-- Node2 -->
<g id="Node000002" class="node">
<title>Node2</title>
<g id="a_Node000002"><a xlink:href="DirektDSP_8h.html" target="_top" xlink:title=" ">
<polygon fill="white" stroke="#666666" points="84.25,-19 10.25,-19 10.25,0 84.25,0 84.25,-19"/>
<text text-anchor="middle" x="47.25" y="-7" font-family="Helvetica,sans-Serif" font-size="10.00">DirektDSP.h</text>
</a>
</g>
</g>
<!-- Node1&#45;&gt;Node2 -->
<g id="edge1_Node000001_Node000002" class="edge">
<title>Node1&#45;&gt;Node2</title>
<g id="a_edge1_Node000001_Node000002"><a xlink:title=" ">
<path fill="none" stroke="#63b8ff" d="M42.88,-106.01C27.69,-99.12 11.99,-88.86 3.25,-74 -8.78,-53.54 16.86,-31.01 33.83,-19.06"/>
<polygon fill="#63b8ff" stroke="#63b8ff" points="41.63,-109.28 52.21,-109.87 44.31,-102.81 41.63,-109.28"/>
</a>
</g>
</g>
<!-- Node3 -->
<g id="Node000003" class="node">
<title>Node3</title>
<g id="a_Node000003"><a xlink:href="DirektHeader_8cpp.html" target="_top" xlink:title=" ">
<polygon fill="white" stroke="#666666" points="153.75,-74 12.75,-74 12.75,-55 153.75,-55 153.75,-74"/>
<text text-anchor="middle" x="83.25" y="-62" font-family="Helvetica,sans-Serif" font-size="10.00">chrome/DirektHeader.cpp</text>
</a>
</g>
</g>
<!-- Node1&#45;&gt;Node3 -->
<g id="edge2_Node000001_Node000003" class="edge">
<title>Node1&#45;&gt;Node3</title>
<g id="a_edge2_Node000001_Node000003"><a xlink:title=" ">
<path fill="none" stroke="#63b8ff" d="M83.25,-99.66C83.25,-90.93 83.25,-80.99 83.25,-74.09"/>
<polygon fill="#63b8ff" stroke="#63b8ff" points="79.75,-99.75 83.25,-109.75 86.75,-99.75 79.75,-99.75"/>
</a>
</g>
</g>
<!-- Node4 -->
<g id="Node000004" class="node">
<title>Node4</title>
<g id="a_Node000004"><a xlink:href="DirektBaseEditor_8h.html" target="_top" xlink:title=" ">
<polygon fill="white" stroke="#666666" points="302.75,-74 171.75,-74 171.75,-55 302.75,-55 302.75,-74"/>
<text text-anchor="middle" x="237.25" y="-62" font-family="Helvetica,sans-Serif" font-size="10.00">core/DirektBaseEditor.h</text>
</a>
</g>
</g>
<!-- Node1&#45;&gt;Node4 -->
<g id="edge3_Node000001_Node000004" class="edge">
<title>Node1&#45;&gt;Node4</title>
<g id="a_edge3_Node000001_Node000004"><a xlink:title=" ">
<path fill="none" stroke="#63b8ff" d="M117.63,-106.67C146.35,-96.79 186.61,-82.93 212.32,-74.08"/>
<polygon fill="#63b8ff" stroke="#63b8ff" points="116.31,-103.42 108,-109.98 118.59,-110.04 116.31,-103.42"/>
</a>
</g>
</g>
<!-- Node4&#45;&gt;Node2 -->
<g id="edge4_Node000004_Node000002" class="edge">
<title>Node4&#45;&gt;Node2</title>
<g id="a_edge4_Node000004_Node000002"><a xlink:title=" ">
<path fill="none" stroke="#63b8ff" d="M196.69,-52.18C161.15,-42.27 110.29,-28.08 78.02,-19.08"/>
<polygon fill="#63b8ff" stroke="#63b8ff" points="196.16,-55.67 206.73,-54.98 198.04,-48.93 196.16,-55.67"/>
</a>
</g>
</g>
<!-- Node5 -->
<g id="Node000005" class="node">
<title>Node5</title>
<g id="a_Node000005"><a xlink:href="DirektBaseEditor_8cpp.html" target="_top" xlink:title=" ">
<polygon fill="white" stroke="#666666" points="308.75,-19 165.75,-19 165.75,0 308.75,0 308.75,-19"/>
<text text-anchor="middle" x="237.25" y="-7" font-family="Helvetica,sans-Serif" font-size="10.00">core/DirektBaseEditor.cpp</text>
</a>
</g>
</g>
<!-- Node4&#45;&gt;Node5 -->
<g id="edge5_Node000004_Node000005" class="edge">
<title>Node4&#45;&gt;Node5</title>
<g id="a_edge5_Node000004_Node000005"><a xlink:title=" ">
<path fill="none" stroke="#63b8ff" d="M237.25,-44.66C237.25,-35.93 237.25,-25.99 237.25,-19.09"/>
<polygon fill="#63b8ff" stroke="#63b8ff" points="233.75,-44.75 237.25,-54.75 240.75,-44.75 233.75,-44.75"/>
</a>
</g>
</g>
</g>
</svg>
</svg>

<style type='text/css'>
<![CDATA[
[data-mouse-over-selected='false'] { opacity: 0.7; }
[data-mouse-over-selected='true']  { opacity: 1.0; }
]]>
</style>
<script type="application/ecmascript"><![CDATA[
document.addEventListener('DOMContentLoaded', (event) => {
  highlightEdges();
  highlightAdjacentNodes();
});
]]></script>
</svg>
