<?xml version="1.0" encoding="UTF-8" standalone="no"?>
<!DOCTYPE svg PUBLIC "-//W3C//DTD SVG 1.1//EN"
 "http://www.w3.org/Graphics/SVG/1.1/DTD/svg11.dtd">
<!-- Generated by graphviz version 2.43.0 (0)
 -->
<!-- Title: display/DirektMeter.h Pages: 1 -->
<svg width="674pt" height="203pt"
 viewBox="0.00 0.00 673.50 203.00" xmlns="http://www.w3.org/2000/svg" xmlns:xlink="http://www.w3.org/1999/xlink">
<g id="graph0" class="graph" transform="scale(1 1) rotate(0) translate(4 199)">
<title>display/DirektMeter.h</title>
<!-- Node1 -->
<g id="Node000001" class="node">
<title>Node1</title>
<g id="a_Node000001"><a xlink:title=" ">
<polygon fill="#999999" stroke="#666666" points="373.5,-195 251.5,-195 251.5,-176 373.5,-176 373.5,-195"/>
<text text-anchor="middle" x="312.5" y="-183" font-family="Helvetica,sans-Serif" font-size="10.00">display/DirektMeter.h</text>
</a>
</g>
</g>
<!-- Node2 -->
<g id="Node000002" class="node">
<title>Node2</title>
<g id="a_Node000002"><a xlink:href="DirektDSP_8h.html" target="_top" xlink:title=" ">
<polygon fill="white" stroke="#666666" points="117.5,-85 43.5,-85 43.5,-66 117.5,-66 117.5,-85"/>
<text text-anchor="middle" x="80.5" y="-73" font-family="Helvetica,sans-Serif" font-size="10.00">DirektDSP.h</text>
</a>
</g>
</g>
<!-- Node1&#45;&gt;Node2 -->
<g id="edge1_Node000001_Node000002" class="edge">
<title>Node1&#45;&gt;Node2</title>
<g id="a_edge1_Node000001_Node000002"><a xlink:title=" ">
<path fill="none" stroke="#63b8ff" d="M283.67,-171.94C263.64,-163.15 236.36,-151.04 212.5,-140 171.19,-120.88 123.11,-97.45 97.93,-85.09"/>
<polygon fill="#63b8ff" stroke="#63b8ff" points="282.31,-175.17 292.88,-175.97 285.12,-168.76 282.31,-175.17"/>
</a>
</g>
</g>
<!-- Node4 -->
<g id="Node000004" class="node">
<title>Node4</title>
<g id="a_Node000004"><a xlink:href="DirektBaseEditor_8cpp.html" target="_top" xlink:title=" ">
<polygon fill="white" stroke="#666666" points="279,-85 136,-85 136,-66 279,-66 279,-85"/>
<text text-anchor="middle" x="207.5" y="-73" font-family="Helvetica,sans-Serif" font-size="10.00">core/DirektBaseEditor.cpp</text>
</a>
</g>
</g>
<!-- Node1&#45;&gt;Node4 -->
<g id="edge3_Node000001_Node000004" class="edge">
<title>Node1&#45;&gt;Node4</title>
<g id="a_edge3_Node000001_Node000004"><a xlink:title=" ">
<path fill="none" stroke="#63b8ff" d="M274.53,-172.15C258.04,-165.08 239.74,-154.63 227.5,-140 214,-123.87 209.59,-98.58 208.16,-85.31"/>
<polygon fill="#63b8ff" stroke="#63b8ff" points="273.38,-175.46 283.97,-175.94 275.99,-168.97 273.38,-175.46"/>
</a>
</g>
</g>
<!-- Node5 -->
<g id="Node000005" class="node">
<title>Node5</title>
<g id="a_Node000005"><a xlink:href="DirektComponentRegistry_8cpp.html" target="_top" xlink:title=" ">
<polygon fill="white" stroke="#666666" points="665.5,-85 479.5,-85 479.5,-66 665.5,-66 665.5,-85"/>
<text text-anchor="middle" x="572.5" y="-73" font-family="Helvetica,sans-Serif" font-size="10.00">core/DirektComponentRegistry.cpp</text>
</a>
</g>
</g>
<!-- Node1&#45;&gt;Node5 -->
<g id="edge4_Node000001_Node000005" class="edge">
<title>Node1&#45;&gt;Node5</title>
<g id="a_edge4_Node000001_Node000005"><a xlink:title=" ">
<path fill="none" stroke="#63b8ff" d="M338.27,-171.15C371.88,-153.77 427.58,-125.13 437.5,-121 472.7,-106.36 514.59,-93.18 542.26,-85.03"/>
<polygon fill="#63b8ff" stroke="#63b8ff" points="336.3,-168.22 329.03,-175.93 339.52,-174.44 336.3,-168.22"/>
</a>
</g>
</g>
<!-- Node6 -->
<g id="Node000006" class="node">
<title>Node6</title>
<g id="a_Node000006"><a xlink:href="DirektMeter_8cpp.html" target="_top" xlink:title=" ">
<polygon fill="white" stroke="#666666" points="579,-140 446,-140 446,-121 579,-121 579,-140"/>
<text text-anchor="middle" x="512.5" y="-128" font-family="Helvetica,sans-Serif" font-size="10.00">display/DirektMeter.cpp</text>
</a>
</g>
</g>
<!-- Node1&#45;&gt;Node6 -->
<g id="edge5_Node000001_Node000006" class="edge">
<title>Node1&#45;&gt;Node6</title>
<g id="a_edge5_Node000001_Node000006"><a xlink:title=" ">
<path fill="none" stroke="#63b8ff" d="M354.72,-173.31C392.15,-163.39 446,-149.12 480.11,-140.08"/>
<polygon fill="#63b8ff" stroke="#63b8ff" points="353.4,-170.04 344.63,-175.98 355.2,-176.81 353.4,-170.04"/>
</a>
</g>
</g>
<!-- Node7 -->
<g id="Node000007" class="node">
<title>Node7</title>
<g id="a_Node000007"><a xlink:href="DirektStereoMeter_8h.html" target="_top" xlink:title=" ">
<polygon fill="white" stroke="#666666" points="389,-140 236,-140 236,-121 389,-121 389,-140"/>
<text text-anchor="middle" x="312.5" y="-128" font-family="Helvetica,sans-Serif" font-size="10.00">display/DirektStereoMeter.h</text>
</a>
</g>
</g>
<!-- Node1&#45;&gt;Node7 -->
<g id="edge6_Node000001_Node000007" class="edge">
<title>Node1&#45;&gt;Node7</title>
<g id="a_edge6_Node000001_Node000007"><a xlink:title=" ">
<path fill="none" stroke="#63b8ff" d="M312.5,-165.66C312.5,-156.93 312.5,-146.99 312.5,-140.09"/>
<polygon fill="#63b8ff" stroke="#63b8ff" points="309,-165.75 312.5,-175.75 316,-165.75 309,-165.75"/>
</a>
</g>
</g>
<!-- Node3 -->
<g id="Node000003" class="node">
<title>Node3</title>
<g id="a_Node000003"><a xlink:href="StandaloneTestProcessor_8cpp.html" target="_top" xlink:title=" ">
<polygon fill="white" stroke="#666666" points="161,-30 0,-30 0,0 161,0 161,-30"/>
<text text-anchor="start" x="8" y="-18" font-family="Helvetica,sans-Serif" font-size="10.00">examples/StandaloneTest</text>
<text text-anchor="middle" x="80.5" y="-7" font-family="Helvetica,sans-Serif" font-size="10.00">/StandaloneTestProcessor.cpp</text>
</a>
</g>
</g>
<!-- Node2&#45;&gt;Node3 -->
<g id="edge2_Node000002_Node000003" class="edge">
<title>Node2&#45;&gt;Node3</title>
<g id="a_edge2_Node000002_Node000003"><a xlink:title=" ">
<path fill="none" stroke="#63b8ff" d="M80.5,-55.65C80.5,-47.36 80.5,-37.78 80.5,-30.11"/>
<polygon fill="#63b8ff" stroke="#63b8ff" points="77,-55.87 80.5,-65.87 84,-55.87 77,-55.87"/>
</a>
</g>
</g>
<!-- Node7&#45;&gt;Node2 -->
<g id="edge7_Node000007_Node000002" class="edge">
<title>Node7&#45;&gt;Node2</title>
<g id="a_edge7_Node000007_Node000002"><a xlink:title=" ">
<path fill="none" stroke="#63b8ff" d="M265.43,-118.75C221.82,-108.78 157.81,-94.16 117.68,-84.99"/>
<polygon fill="#63b8ff" stroke="#63b8ff" points="264.7,-122.17 275.23,-120.98 266.26,-115.35 264.7,-122.17"/>
</a>
</g>
</g>
<!-- Node7&#45;&gt;Node4 -->
<g id="edge8_Node000007_Node000004" class="edge">
<title>Node7&#45;&gt;Node4</title>
<g id="a_edge8_Node000007_Node000004"><a xlink:title=" ">
<path fill="none" stroke="#63b8ff" d="M286.48,-116.37C267.2,-106.63 241.45,-93.64 224.68,-85.17"/>
<polygon fill="#63b8ff" stroke="#63b8ff" points="285.13,-119.6 295.63,-120.98 288.28,-113.35 285.13,-119.6"/>
</a>
</g>
</g>
<!-- Node7&#45;&gt;Node5 -->
<g id="edge9_Node000007_Node000005" class="edge">
<title>Node7&#45;&gt;Node5</title>
<g id="a_edge9_Node000007_Node000005"><a xlink:title=" ">
<path fill="none" stroke="#63b8ff" d="M364.3,-118.94C413.04,-109.01 485.11,-94.31 530.4,-85.08"/>
<polygon fill="#63b8ff" stroke="#63b8ff" points="363.37,-115.56 354.27,-120.98 364.77,-122.42 363.37,-115.56"/>
</a>
</g>
</g>
<!-- Node8 -->
<g id="Node000008" class="node">
<title>Node8</title>
<g id="a_Node000008"><a xlink:href="DirektStereoMeter_8cpp.html" target="_top" xlink:title=" ">
<polygon fill="white" stroke="#666666" points="461.5,-85 297.5,-85 297.5,-66 461.5,-66 461.5,-85"/>
<text text-anchor="middle" x="379.5" y="-73" font-family="Helvetica,sans-Serif" font-size="10.00">display/DirektStereoMeter.cpp</text>
</a>
</g>
</g>
<!-- Node7&#45;&gt;Node8 -->
<g id="edge10_Node000007_Node000008" class="edge">
<title>Node7&#45;&gt;Node8</title>
<g id="a_edge10_Node000007_Node000008"><a xlink:title=" ">
<path fill="none" stroke="#63b8ff" d="M331.33,-114.6C343.34,-105.11 358.47,-93.13 368.54,-85.17"/>
<polygon fill="#63b8ff" stroke="#63b8ff" points="328.94,-112.04 323.26,-120.98 333.28,-117.53 328.94,-112.04"/>
</a>
</g>
</g>
</g>
</svg>
