<?xml version="1.0" encoding="UTF-8" standalone="no"?>
<!DOCTYPE svg PUBLIC "-//W3C//DTD SVG 1.1//EN"
 "http://www.w3.org/Graphics/SVG/1.1/DTD/svg11.dtd">
<!-- Generated by graphviz version 2.43.0 (0)
 -->
<!-- Title: controls/DirektComboBox.cpp Pages: 1 -->
<svg width="487pt" height="148pt"
 viewBox="0.00 0.00 486.50 148.00" xmlns="http://www.w3.org/2000/svg" xmlns:xlink="http://www.w3.org/1999/xlink">
<g id="graph0" class="graph" transform="scale(1 1) rotate(0) translate(4 144)">
<title>controls/DirektComboBox.cpp</title>
<!-- Node1 -->
<g id="Node000001" class="node">
<title>Node1</title>
<g id="a_Node000001"><a xlink:title=" ">
<polygon fill="#999999" stroke="#666666" points="339,-140 177,-140 177,-121 339,-121 339,-140"/>
<text text-anchor="middle" x="258" y="-128" font-family="Helvetica,sans-Serif" font-size="10.00">controls/DirektComboBox.cpp</text>
</a>
</g>
</g>
<!-- Node2 -->
<g id="Node000002" class="node">
<title>Node2</title>
<g id="a_Node000002"><a xlink:href="DirektComboBox_8h.html" target="_top" xlink:title=" ">
<polygon fill="white" stroke="#666666" points="333.5,-85 182.5,-85 182.5,-66 333.5,-66 333.5,-85"/>
<text text-anchor="middle" x="258" y="-73" font-family="Helvetica,sans-Serif" font-size="10.00">controls/DirektComboBox.h</text>
</a>
</g>
</g>
<!-- Node1&#45;&gt;Node2 -->
<g id="edge1_Node000001_Node000002" class="edge">
<title>Node1&#45;&gt;Node2</title>
<g id="a_edge1_Node000001_Node000002"><a xlink:title=" ">
<path fill="none" stroke="#63b8ff" d="M258,-120.75C258,-113.8 258,-103.85 258,-95.13"/>
<polygon fill="#63b8ff" stroke="#63b8ff" points="261.5,-95.09 258,-85.09 254.5,-95.09 261.5,-95.09"/>
</a>
</g>
</g>
<!-- Node5 -->
<g id="Node000005" class="node">
<title>Node5</title>
<g id="a_Node000005"><a xlink:href="DirektParameterHistory_8h.html" target="_top" xlink:title=" ">
<polygon fill="white" stroke="#666666" points="164,-85 0,-85 0,-66 164,-66 164,-85"/>
<text text-anchor="middle" x="82" y="-73" font-family="Helvetica,sans-Serif" font-size="10.00">core/DirektParameterHistory.h</text>
</a>
</g>
</g>
<!-- Node1&#45;&gt;Node5 -->
<g id="edge4_Node000001_Node000005" class="edge">
<title>Node1&#45;&gt;Node5</title>
<g id="a_edge4_Node000001_Node000005"><a xlink:title=" ">
<path fill="none" stroke="#63b8ff" d="M229.72,-120.98C200.05,-112.05 153.21,-97.94 120.25,-88.02"/>
<polygon fill="#63b8ff" stroke="#63b8ff" points="121.08,-84.61 110.5,-85.08 119.07,-91.32 121.08,-84.61"/>
</a>
</g>
</g>
<!-- Node7 -->
<g id="Node000007" class="node">
<title>Node7</title>
<g id="a_Node000007"><a xlink:href="DirektColours_8h.html" target="_top" xlink:title=" ">
<polygon fill="white" stroke="#666666" points="478.5,-85 351.5,-85 351.5,-66 478.5,-66 478.5,-85"/>
<text text-anchor="middle" x="415" y="-73" font-family="Helvetica,sans-Serif" font-size="10.00">theme/DirektColours.h</text>
</a>
</g>
</g>
<!-- Node1&#45;&gt;Node7 -->
<g id="edge7_Node000001_Node000007" class="edge">
<title>Node1&#45;&gt;Node7</title>
<g id="a_edge7_Node000001_Node000007"><a xlink:title=" ">
<path fill="none" stroke="#63b8ff" d="M283.22,-120.98C309.36,-112.16 350.4,-98.31 379.73,-88.41"/>
<polygon fill="#63b8ff" stroke="#63b8ff" points="381.22,-91.6 389.58,-85.08 378.98,-84.96 381.22,-91.6"/>
</a>
</g>
</g>
<!-- Node3 -->
<g id="Node000003" class="node">
<title>Node3</title>
<g id="a_Node000003"><a xlink:title=" ">
<polygon fill="#e0e0e0" stroke="#999999" points="294.5,-30 155.5,-30 155.5,0 294.5,0 294.5,-30"/>
<text text-anchor="start" x="163.5" y="-18" font-family="Helvetica,sans-Serif" font-size="10.00">juce_audio_processors</text>
<text text-anchor="middle" x="225" y="-7" font-family="Helvetica,sans-Serif" font-size="10.00">/juce_audio_processors.h</text>
</a>
</g>
</g>
<!-- Node2&#45;&gt;Node3 -->
<g id="edge2_Node000002_Node000003" class="edge">
<title>Node2&#45;&gt;Node3</title>
<g id="a_edge2_Node000002_Node000003"><a xlink:title=" ">
<path fill="none" stroke="#63b8ff" d="M253.13,-65.87C249.15,-58.81 243.33,-48.5 238.02,-39.08"/>
<polygon fill="#63b8ff" stroke="#63b8ff" points="240.92,-37.1 232.96,-30.11 234.83,-40.54 240.92,-37.1"/>
</a>
</g>
</g>
<!-- Node4 -->
<g id="Node000004" class="node">
<title>Node4</title>
<g id="a_Node000004"><a xlink:title=" ">
<polygon fill="#e0e0e0" stroke="#999999" points="451,-30 335,-30 335,0 451,0 451,-30"/>
<text text-anchor="start" x="343" y="-18" font-family="Helvetica,sans-Serif" font-size="10.00">juce_gui_basics/juce</text>
<text text-anchor="middle" x="393" y="-7" font-family="Helvetica,sans-Serif" font-size="10.00">_gui_basics.h</text>
</a>
</g>
</g>
<!-- Node2&#45;&gt;Node4 -->
<g id="edge3_Node000002_Node000004" class="edge">
<title>Node2&#45;&gt;Node4</title>
<g id="a_edge3_Node000002_Node000004"><a xlink:title=" ">
<path fill="none" stroke="#63b8ff" d="M277.63,-65.99C296.8,-57.68 326.6,-44.78 351.1,-34.16"/>
<polygon fill="#63b8ff" stroke="#63b8ff" points="352.76,-37.25 360.54,-30.06 349.98,-30.83 352.76,-37.25"/>
</a>
</g>
</g>
<!-- Node5&#45;&gt;Node3 -->
<g id="edge5_Node000005_Node000003" class="edge">
<title>Node5&#45;&gt;Node3</title>
<g id="a_edge5_Node000005_Node000003"><a xlink:title=" ">
<path fill="none" stroke="#63b8ff" d="M102.79,-65.99C123.28,-57.61 155.22,-44.55 181.31,-33.87"/>
<polygon fill="#63b8ff" stroke="#63b8ff" points="182.69,-37.09 190.62,-30.06 180.04,-30.61 182.69,-37.09"/>
</a>
</g>
</g>
<!-- Node6 -->
<g id="Node000006" class="node">
<title>Node6</title>
<g id="a_Node000006"><a xlink:title=" ">
<polygon fill="#e0e0e0" stroke="#999999" points="105.5,-24.5 58.5,-24.5 58.5,-5.5 105.5,-5.5 105.5,-24.5"/>
<text text-anchor="middle" x="82" y="-12.5" font-family="Helvetica,sans-Serif" font-size="10.00">vector</text>
</a>
</g>
</g>
<!-- Node5&#45;&gt;Node6 -->
<g id="edge6_Node000005_Node000006" class="edge">
<title>Node5&#45;&gt;Node6</title>
<g id="a_edge6_Node000005_Node000006"><a xlink:title=" ">
<path fill="none" stroke="#63b8ff" d="M82,-65.87C82,-57.75 82,-45.31 82,-34.89"/>
<polygon fill="#63b8ff" stroke="#63b8ff" points="85.5,-34.67 82,-24.67 78.5,-34.67 85.5,-34.67"/>
</a>
</g>
</g>
<!-- Node7&#45;&gt;Node4 -->
<g id="edge8_Node000007_Node000004" class="edge">
<title>Node7&#45;&gt;Node4</title>
<g id="a_edge8_Node000007_Node000004"><a xlink:title=" ">
<path fill="none" stroke="#63b8ff" d="M411.75,-65.87C409.16,-58.96 405.38,-48.93 401.9,-39.67"/>
<polygon fill="#63b8ff" stroke="#63b8ff" points="405.1,-38.24 398.31,-30.11 398.55,-40.71 405.1,-38.24"/>
</a>
</g>
</g>
</g>
</svg>
