<?xml version="1.0" encoding="UTF-8" standalone="no"?>
<!DOCTYPE svg PUBLIC "-//W3C//DTD SVG 1.1//EN"
 "http://www.w3.org/Graphics/SVG/1.1/DTD/svg11.dtd">
<!-- Generated by graphviz version 2.43.0 (0)
 -->
<!-- Title: layout/DirektSection.cpp Pages: 1 -->
<!--zoomable 214 -->

<svg id="main" version="1.1" xmlns="http://www.w3.org/2000/svg" xmlns:xlink="http://www.w3.org/1999/xlink" xml:space="preserve" onload="init(evt)">
<style type="text/css"><![CDATA[
.node, .edge {opacity: 0.7;}
.node.selected, .edge.selected {opacity: 1;}
.edge:hover path { stroke: red; }
.edge:hover polygon { stroke: red; fill: red; }
]]></style>

<defs>
  <circle id="rim" cx="0" cy="0" r="7"/>
  <circle id="rim2" cx="0" cy="0" r="3.5"/>
  <g id="zoomPlus">
    <use xlink:href="#rim" fill="#404040"><set attributeName="fill" to="#808080" begin="zoomplus.mouseover" end="zoomplus.mouseout"/></use>
    <path d="M-4,0h8M0,-4v8" fill="none" stroke="white" stroke-width="1.5" pointer-events="none"/>
  </g>
  <g id="zoomMin">
    <use xlink:href="#rim" fill="#404040"><set attributeName="fill" to="#808080" begin="zoomminus.mouseover" end="zoomminus.mouseout"/></use>
    <path d="M-4,0h8" fill="none" stroke="white" stroke-width="1.5" pointer-events="none"/>
  </g>
  <g id="arrowUp" transform="translate(30 24)">
    <use xlink:href="#rim"/>
    <path pointer-events="none" fill="none" stroke="white" stroke-width="1.5" d="M0,-3.0v7 M-2.5,-0.5L0,-3.0L2.5,-0.5"/>
  </g>
  <g id="arrowRight" transform="rotate(90) translate(36 -43)">
    <use xlink:href="#rim"/>
    <path pointer-events="none" fill="none" stroke="white" stroke-width="1.5" d="M0,-3.0v7 M-2.5,-0.5L0,-3.0L2.5,-0.5"/>
  </g>
  <g id="arrowDown" transform="rotate(180) translate(-30 -48)">
    <use xlink:href="#rim"/>
    <path pointer-events="none" fill="none" stroke="white" stroke-width="1.5" d="M0,-3.0v7 M-2.5,-0.5L0,-3.0L2.5,-0.5"/>
  </g>
  <g id="arrowLeft" transform="rotate(270) translate(-36 17)">
    <use xlink:href="#rim"/>
    <path pointer-events="none" fill="none" stroke="white" stroke-width="1.5" d="M0,-3.0v7 M-2.5,-0.5L0,-3.0L2.5,-0.5"/>
  </g>
  <g id="resetDef">
    <use xlink:href="#rim2" fill="#404040"><set attributeName="fill" to="#808080" begin="reset.mouseover" end="reset.mouseout"/></use>
  </g>
</defs>
<script type="application/ecmascript">
var viewWidth = 597;
var viewHeight = 214;
var sectionId = 'dynsection-0';
</script>
<script type="application/ecmascript" xlink:href="svg.min.js"/>
<svg id="graph" class="graph">
<g id="viewport">
<title>layout/DirektSection.cpp</title>
<!-- Node1 -->
<g id="Node000001" class="node">
<title>Node1</title>
<g id="a_Node000001"><a xlink:title=" ">
<polygon fill="#999999" stroke="#666666" points="397,-206 260,-206 260,-187 397,-187 397,-206"/>
<text text-anchor="middle" x="328.5" y="-194" font-family="Helvetica,sans-Serif" font-size="10.00">layout/DirektSection.cpp</text>
</a>
</g>
</g>
<!-- Node2 -->
<g id="Node000002" class="node">
<title>Node2</title>
<g id="a_Node000002"><a xlink:href="DirektSection_8h.html" target="_top" xlink:title=" ">
<polygon fill="white" stroke="#666666" points="288,-145.5 163,-145.5 163,-126.5 288,-126.5 288,-145.5"/>
<text text-anchor="middle" x="225.5" y="-133.5" font-family="Helvetica,sans-Serif" font-size="10.00">layout/DirektSection.h</text>
</a>
</g>
</g>
<!-- Node1&#45;&gt;Node2 -->
<g id="edge1_Node000001_Node000002" class="edge">
<title>Node1&#45;&gt;Node2</title>
<g id="a_edge1_Node000001_Node000002"><a xlink:title=" ">
<path fill="none" stroke="#63b8ff" d="M313.3,-186.87C296.49,-177.32 269.18,-161.81 249.48,-150.62"/>
<polygon fill="#63b8ff" stroke="#63b8ff" points="251.18,-147.56 240.76,-145.67 247.73,-153.65 251.18,-147.56"/>
</a>
</g>
</g>
<!-- Node7 -->
<g id="Node000007" class="node">
<title>Node7</title>
<g id="a_Node000007"><a xlink:title=" ">
<polygon fill="#e0e0e0" stroke="#999999" points="351,-145.5 306,-145.5 306,-126.5 351,-126.5 351,-145.5"/>
<text text-anchor="middle" x="328.5" y="-133.5" font-family="Helvetica,sans-Serif" font-size="10.00">utility</text>
</a>
</g>
</g>
<!-- Node1&#45;&gt;Node7 -->
<g id="edge7_Node000001_Node000007" class="edge">
<title>Node1&#45;&gt;Node7</title>
<g id="a_edge7_Node000001_Node000007"><a xlink:title=" ">
<path fill="none" stroke="#63b8ff" d="M328.5,-186.87C328.5,-178.75 328.5,-166.31 328.5,-155.89"/>
<polygon fill="#63b8ff" stroke="#63b8ff" points="332,-155.67 328.5,-145.67 325,-155.67 332,-155.67"/>
</a>
</g>
</g>
<!-- Node8 -->
<g id="Node000008" class="node">
<title>Node8</title>
<g id="a_Node000008"><a xlink:href="DirektModuleBypassSoloStrip_8h.html" target="_top" xlink:title=" ">
<polygon fill="white" stroke="#666666" points="521.5,-151 369.5,-151 369.5,-121 521.5,-121 521.5,-151"/>
<text text-anchor="start" x="377.5" y="-139" font-family="Helvetica,sans-Serif" font-size="10.00">layout/DirektModuleBypass</text>
<text text-anchor="middle" x="445.5" y="-128" font-family="Helvetica,sans-Serif" font-size="10.00">SoloStrip.h</text>
</a>
</g>
</g>
<!-- Node1&#45;&gt;Node8 -->
<g id="edge8_Node000001_Node000008" class="edge">
<title>Node1&#45;&gt;Node8</title>
<g id="a_edge8_Node000001_Node000008"><a xlink:title=" ">
<path fill="none" stroke="#63b8ff" d="M345.51,-186.99C361.85,-178.82 387.09,-166.2 408.13,-155.69"/>
<polygon fill="#63b8ff" stroke="#63b8ff" points="409.77,-158.78 417.14,-151.18 406.64,-152.52 409.77,-158.78"/>
</a>
</g>
</g>
<!-- Node3 -->
<g id="Node000003" class="node">
<title>Node3</title>
<g id="a_Node000003"><a xlink:title=" ">
<polygon fill="#e0e0e0" stroke="#999999" points="368.5,-30 252.5,-30 252.5,0 368.5,0 368.5,-30"/>
<text text-anchor="start" x="260.5" y="-18" font-family="Helvetica,sans-Serif" font-size="10.00">juce_gui_basics/juce</text>
<text text-anchor="middle" x="310.5" y="-7" font-family="Helvetica,sans-Serif" font-size="10.00">_gui_basics.h</text>
</a>
</g>
</g>
<!-- Node2&#45;&gt;Node3 -->
<g id="edge2_Node000002_Node000003" class="edge">
<title>Node2&#45;&gt;Node3</title>
<g id="a_edge2_Node000002_Node000003"><a xlink:title=" ">
<path fill="none" stroke="#63b8ff" d="M228.3,-126.37C232.98,-112.73 243.3,-85.71 257.5,-66 265.18,-55.34 275.36,-45.09 284.74,-36.68"/>
<polygon fill="#63b8ff" stroke="#63b8ff" points="287.1,-39.28 292.36,-30.08 282.51,-33.98 287.1,-39.28"/>
</a>
</g>
</g>
<!-- Node4 -->
<g id="Node000004" class="node">
<title>Node4</title>
<g id="a_Node000004"><a xlink:title=" ">
<polygon fill="#e0e0e0" stroke="#999999" points="210,-85 145,-85 145,-66 210,-66 210,-85"/>
<text text-anchor="middle" x="177.5" y="-73" font-family="Helvetica,sans-Serif" font-size="10.00">functional</text>
</a>
</g>
</g>
<!-- Node2&#45;&gt;Node4 -->
<g id="edge3_Node000002_Node000004" class="edge">
<title>Node2&#45;&gt;Node4</title>
<g id="a_edge3_Node000002_Node000004"><a xlink:title=" ">
<path fill="none" stroke="#63b8ff" d="M218.42,-126.37C211.26,-117.64 200.01,-103.93 191.11,-93.09"/>
<polygon fill="#63b8ff" stroke="#63b8ff" points="193.66,-90.68 184.61,-85.17 188.25,-95.12 193.66,-90.68"/>
</a>
</g>
</g>
<!-- Node5 -->
<g id="Node000005" class="node">
<title>Node5</title>
<g id="a_Node000005"><a xlink:title=" ">
<polygon fill="#e0e0e0" stroke="#999999" points="324.5,-85 266.5,-85 266.5,-66 324.5,-66 324.5,-85"/>
<text text-anchor="middle" x="295.5" y="-73" font-family="Helvetica,sans-Serif" font-size="10.00">memory</text>
</a>
</g>
</g>
<!-- Node2&#45;&gt;Node5 -->
<g id="edge4_Node000002_Node000005" class="edge">
<title>Node2&#45;&gt;Node5</title>
<g id="a_edge4_Node000002_Node000005"><a xlink:title=" ">
<path fill="none" stroke="#63b8ff" d="M235.83,-126.37C246.69,-117.3 263.99,-102.84 277.17,-91.82"/>
<polygon fill="#63b8ff" stroke="#63b8ff" points="279.7,-94.27 285.13,-85.17 275.21,-88.89 279.7,-94.27"/>
</a>
</g>
</g>
<!-- Node6 -->
<g id="Node000006" class="node">
<title>Node6</title>
<g id="a_Node000006"><a xlink:href="DirektColours_8h.html" target="_top" xlink:title=" ">
<polygon fill="white" stroke="#666666" points="127,-85 0,-85 0,-66 127,-66 127,-85"/>
<text text-anchor="middle" x="63.5" y="-73" font-family="Helvetica,sans-Serif" font-size="10.00">theme/DirektColours.h</text>
</a>
</g>
</g>
<!-- Node2&#45;&gt;Node6 -->
<g id="edge5_Node000002_Node000006" class="edge">
<title>Node2&#45;&gt;Node6</title>
<g id="a_edge5_Node000002_Node000006"><a xlink:title=" ">
<path fill="none" stroke="#63b8ff" d="M201.94,-126.49C174.23,-116.49 128.03,-99.8 96.69,-88.49"/>
<polygon fill="#63b8ff" stroke="#63b8ff" points="97.68,-85.12 87.08,-85.02 95.3,-91.71 97.68,-85.12"/>
</a>
</g>
</g>
<!-- Node6&#45;&gt;Node3 -->
<g id="edge6_Node000006_Node000003" class="edge">
<title>Node6&#45;&gt;Node3</title>
<g id="a_edge6_Node000006_Node000003"><a xlink:title=" ">
<path fill="none" stroke="#63b8ff" d="M99.42,-65.99C136.69,-57.17 195.88,-43.15 242.12,-32.2"/>
<polygon fill="#63b8ff" stroke="#63b8ff" points="243.15,-35.55 252.07,-29.84 241.53,-28.74 243.15,-35.55"/>
</a>
</g>
</g>
<!-- Node8&#45;&gt;Node3 -->
<g id="edge10_Node000008_Node000003" class="edge">
<title>Node8&#45;&gt;Node3</title>
<g id="a_edge10_Node000008_Node000003"><a xlink:title=" ">
<path fill="none" stroke="#63b8ff" d="M421.78,-120.79C406.97,-111.44 387.86,-98.47 372.5,-85 356.1,-70.62 339.7,-52.15 327.89,-37.94"/>
<polygon fill="#63b8ff" stroke="#63b8ff" points="330.54,-35.65 321.5,-30.12 325.12,-40.08 330.54,-35.65"/>
</a>
</g>
</g>
<!-- Node8&#45;&gt;Node5 -->
<g id="edge11_Node000008_Node000005" class="edge">
<title>Node8&#45;&gt;Node5</title>
<g id="a_edge11_Node000008_Node000005"><a xlink:title=" ">
<path fill="none" stroke="#63b8ff" d="M409.57,-120.99C384.43,-111.18 351.17,-98.21 327.05,-88.81"/>
<polygon fill="#63b8ff" stroke="#63b8ff" points="328.24,-85.51 317.65,-85.14 325.7,-92.03 328.24,-85.51"/>
</a>
</g>
</g>
<!-- Node9 -->
<g id="Node000009" class="node">
<title>Node9</title>
<g id="a_Node000009"><a xlink:title=" ">
<polygon fill="#e0e0e0" stroke="#999999" points="556,-30 417,-30 417,0 556,0 556,-30"/>
<text text-anchor="start" x="425" y="-18" font-family="Helvetica,sans-Serif" font-size="10.00">juce_audio_processors</text>
<text text-anchor="middle" x="486.5" y="-7" font-family="Helvetica,sans-Serif" font-size="10.00">/juce_audio_processors.h</text>
</a>
</g>
</g>
<!-- Node8&#45;&gt;Node9 -->
<g id="edge9_Node000008_Node000009" class="edge">
<title>Node8&#45;&gt;Node9</title>
<g id="a_edge9_Node000008_Node000009"><a xlink:title=" ">
<path fill="none" stroke="#63b8ff" d="M521.74,-125.09C545.8,-117.95 569.9,-105.77 584.5,-85 600,-62.96 574.74,-45.56 546,-33.75"/>
<polygon fill="#63b8ff" stroke="#63b8ff" points="547.18,-30.45 536.59,-30.11 544.66,-36.98 547.18,-30.45"/>
</a>
</g>
</g>
<!-- Node10 -->
<g id="Node000010" class="node">
<title>Node10</title>
<g id="a_Node000010"><a xlink:title=" ">
<polygon fill="#e0e0e0" stroke="#999999" points="575,-85 528,-85 528,-66 575,-66 575,-85"/>
<text text-anchor="middle" x="551.5" y="-73" font-family="Helvetica,sans-Serif" font-size="10.00">vector</text>
</a>
</g>
</g>
<!-- Node8&#45;&gt;Node10 -->
<g id="edge12_Node000008_Node000010" class="edge">
<title>Node8&#45;&gt;Node10</title>
<g id="a_edge12_Node000008_Node000010"><a xlink:title=" ">
<path fill="none" stroke="#63b8ff" d="M470.89,-120.99C487.79,-111.66 509.88,-99.47 526.66,-90.21"/>
<polygon fill="#63b8ff" stroke="#63b8ff" points="528.78,-93.04 535.85,-85.14 525.4,-86.91 528.78,-93.04"/>
</a>
</g>
</g>
<!-- Node11 -->
<g id="Node000011" class="node">
<title>Node11</title>
<g id="a_Node000011"><a xlink:href="DirektToggle_8h.html" target="_top" xlink:title=" ">
<polygon fill="white" stroke="#666666" points="510,-85 381,-85 381,-66 510,-66 510,-85"/>
<text text-anchor="middle" x="445.5" y="-73" font-family="Helvetica,sans-Serif" font-size="10.00">controls/DirektToggle.h</text>
</a>
</g>
</g>
<!-- Node8&#45;&gt;Node11 -->
<g id="edge13_Node000008_Node000011" class="edge">
<title>Node8&#45;&gt;Node11</title>
<g id="a_edge13_Node000008_Node000011"><a xlink:title=" ">
<path fill="none" stroke="#63b8ff" d="M445.5,-120.84C445.5,-113.21 445.5,-103.7 445.5,-95.45"/>
<polygon fill="#63b8ff" stroke="#63b8ff" points="449,-95.27 445.5,-85.27 442,-95.27 449,-95.27"/>
</a>
</g>
</g>
<!-- Node11&#45;&gt;Node3 -->
<g id="edge15_Node000011_Node000003" class="edge">
<title>Node11&#45;&gt;Node3</title>
<g id="a_edge15_Node000011_Node000003"><a xlink:title=" ">
<path fill="none" stroke="#63b8ff" d="M425.87,-65.99C406.7,-57.68 376.9,-44.78 352.4,-34.16"/>
<polygon fill="#63b8ff" stroke="#63b8ff" points="353.52,-30.83 342.96,-30.06 350.74,-37.25 353.52,-30.83"/>
</a>
</g>
</g>
<!-- Node11&#45;&gt;Node9 -->
<g id="edge14_Node000011_Node000009" class="edge">
<title>Node11&#45;&gt;Node9</title>
<g id="a_edge14_Node000011_Node000009"><a xlink:title=" ">
<path fill="none" stroke="#63b8ff" d="M451.55,-65.87C456.6,-58.67 464.02,-48.07 470.74,-38.49"/>
<polygon fill="#63b8ff" stroke="#63b8ff" points="473.73,-40.31 476.61,-30.11 468,-36.29 473.73,-40.31"/>
</a>
</g>
</g>
</g>
</svg>

<g id="navigator" transform="translate(0 0)" fill="#404254">
  <rect fill="#f2f5e9" fill-opacity="0.5" stroke="#606060" stroke-width=".5" x="0" y="0" width="60" height="60"/>
  <use id="zoomplus" xlink:href="#zoomPlus" x="17" y="9" onmousedown="handleZoom(evt,'in')"/>
  <use id="zoomminus" xlink:href="#zoomMin" x="42" y="9" onmousedown="handleZoom(evt,'out')"/>
  <use id="reset" xlink:href="#resetDef" x="30" y="36" onmousedown="handleReset()"/>
   <use id="arrowup" xlink:href="#arrowUp" x="0" y="0" onmousedown="handlePan(0,-1)"/>
  <use id="arrowright" xlink:href="#arrowRight" x="0" y="0" onmousedown="handlePan(1,0)"/>
  <use id="arrowdown" xlink:href="#arrowDown" x="0" y="0" onmousedown="handlePan(0,1)"/>
  <use id="arrowleft" xlink:href="#arrowLeft" x="0" y="0" onmousedown="handlePan(-1,0)"/>
</g>
<svg viewBox="0 0 15 15" width="100%" height="30px" preserveAspectRatio="xMaxYMin meet">
 <g id="arrow_out" transform="scale(0.3 0.3)">
  <a xlink:href="DirektSection_8cpp__incl_org.svg" target="_base">
   <rect id="button" ry="5" rx="5" y="6" x="6" height="38" width="38"
        fill="#f2f5e9" fill-opacity="0.5" stroke="#606060" stroke-width="1.0"/>
   <path id="arrow"
     d="M 11.500037,31.436501 C 11.940474,20.09759 22.043105,11.32322 32.158766,21.979434 L 37.068811,17.246167 C 37.068811,17.246167 37.088388,32 37.088388,32 L 22.160133,31.978069 C 22.160133,31.978069 26.997745,27.140456 26.997745,27.140456 C 18.528582,18.264221 13.291696,25.230495 11.500037,31.436501 z"
     style="fill:#404040;"/>
  </a>
 </g>
</svg>

<style type='text/css'>
<![CDATA[
[data-mouse-over-selected='false'] { opacity: 0.7; }
[data-mouse-over-selected='true']  { opacity: 1.0; }
]]>
</style>
<script type="application/ecmascript"><![CDATA[
document.addEventListener('DOMContentLoaded', (event) => {
  highlightEdges();
  highlightAdjacentNodes();
});
]]></script>
</svg>
