<?xml version="1.0" encoding="UTF-8" standalone="no"?>
<!DOCTYPE svg PUBLIC "-//W3C//DTD SVG 1.1//EN"
 "http://www.w3.org/Graphics/SVG/1.1/DTD/svg11.dtd">
<!-- Generated by graphviz version 2.43.0 (0)
 -->
<!-- Title: core/DirektBaseEditor.h Pages: 1 -->
<svg width="2518pt" height="269pt"
 viewBox="0.00 0.00 2517.58 269.00" xmlns="http://www.w3.org/2000/svg" xmlns:xlink="http://www.w3.org/1999/xlink">
<g id="graph0" class="graph" transform="scale(1 1) rotate(0) translate(4 265)">
<title>core/DirektBaseEditor.h</title>
<!-- Node1 -->
<g id="Node000001" class="node">
<title>Node1</title>
<g id="a_Node000001"><a xlink:title=" ">
<polygon fill="#999999" stroke="#666666" points="1058.58,-261 927.58,-261 927.58,-242 1058.58,-242 1058.58,-261"/>
<text text-anchor="middle" x="993.08" y="-249" font-family="Helvetica,sans-Serif" font-size="10.00">core/DirektBaseEditor.h</text>
</a>
</g>
</g>
<!-- Node2 -->
<g id="Node000002" class="node">
<title>Node2</title>
<g id="a_Node000002"><a xlink:title=" ">
<polygon fill="#e0e0e0" stroke="#999999" points="1665.58,-96 1526.58,-96 1526.58,-66 1665.58,-66 1665.58,-96"/>
<text text-anchor="start" x="1534.58" y="-84" font-family="Helvetica,sans-Serif" font-size="10.00">juce_audio_processors</text>
<text text-anchor="middle" x="1596.08" y="-73" font-family="Helvetica,sans-Serif" font-size="10.00">/juce_audio_processors.h</text>
</a>
</g>
</g>
<!-- Node1&#45;&gt;Node2 -->
<g id="edge1_Node000001_Node000002" class="edge">
<title>Node1&#45;&gt;Node2</title>
<g id="a_edge1_Node000001_Node000002"><a xlink:title=" ">
<path fill="none" stroke="#63b8ff" d="M1058.97,-244.19C1185.77,-231.12 1458.35,-198.33 1539.08,-151 1557.91,-139.96 1573.23,-120.27 1583.23,-104.74"/>
<polygon fill="#63b8ff" stroke="#63b8ff" points="1586.24,-106.53 1588.49,-96.17 1580.27,-102.87 1586.24,-106.53"/>
</a>
</g>
</g>
<!-- Node3 -->
<g id="Node000003" class="node">
<title>Node3</title>
<g id="a_Node000003"><a xlink:title=" ">
<polygon fill="#e0e0e0" stroke="#999999" points="1051.08,-30 935.08,-30 935.08,0 1051.08,0 1051.08,-30"/>
<text text-anchor="start" x="943.08" y="-18" font-family="Helvetica,sans-Serif" font-size="10.00">juce_gui_basics/juce</text>
<text text-anchor="middle" x="993.08" y="-7" font-family="Helvetica,sans-Serif" font-size="10.00">_gui_basics.h</text>
</a>
</g>
</g>
<!-- Node1&#45;&gt;Node3 -->
<g id="edge2_Node000001_Node000003" class="edge">
<title>Node1&#45;&gt;Node3</title>
<g id="a_edge2_Node000001_Node000003"><a xlink:title=" ">
<path fill="none" stroke="#63b8ff" d="M927.28,-248.45C726.79,-241.51 133.88,-215.65 79.08,-151 14.95,-75.33 -113.39,-150.55 225.08,-66 356.61,-33.15 762.16,-20.96 924.68,-17.32"/>
<polygon fill="#63b8ff" stroke="#63b8ff" points="925.11,-20.81 935.03,-17.09 924.96,-13.81 925.11,-20.81"/>
</a>
</g>
</g>
<!-- Node4 -->
<g id="Node000004" class="node">
<title>Node4</title>
<g id="a_Node000004"><a xlink:href="DirektFooter_8h.html" target="_top" xlink:title=" ">
<polygon fill="white" stroke="#666666" points="566.58,-151 441.58,-151 441.58,-132 566.58,-132 566.58,-151"/>
<text text-anchor="middle" x="504.08" y="-139" font-family="Helvetica,sans-Serif" font-size="10.00">chrome/DirektFooter.h</text>
</a>
</g>
</g>
<!-- Node1&#45;&gt;Node4 -->
<g id="edge3_Node000001_Node000004" class="edge">
<title>Node1&#45;&gt;Node4</title>
<g id="a_edge3_Node000001_Node000004"><a xlink:title=" ">
<path fill="none" stroke="#63b8ff" d="M927.53,-242.67C870.47,-235.24 785.75,-222.73 713.08,-206 650.26,-191.54 578.72,-168.28 537.74,-154.29"/>
<polygon fill="#63b8ff" stroke="#63b8ff" points="538.84,-150.97 528.24,-151.03 536.56,-157.59 538.84,-150.97"/>
</a>
</g>
</g>
<!-- Node5 -->
<g id="Node000005" class="node">
<title>Node5</title>
<g id="a_Node000005"><a xlink:href="DirektColours_8h.html" target="_top" xlink:title=" ">
<polygon fill="white" stroke="#666666" points="828.58,-90.5 701.58,-90.5 701.58,-71.5 828.58,-71.5 828.58,-90.5"/>
<text text-anchor="middle" x="765.08" y="-78.5" font-family="Helvetica,sans-Serif" font-size="10.00">theme/DirektColours.h</text>
</a>
</g>
</g>
<!-- Node1&#45;&gt;Node5 -->
<g id="edge65_Node000001_Node000005" class="edge">
<title>Node1&#45;&gt;Node5</title>
<g id="a_edge65_Node000001_Node000005"><a xlink:title=" ">
<path fill="none" stroke="#63b8ff" d="M952.61,-241.98C905.28,-229.9 827.84,-203.2 784.08,-151 772.25,-136.89 767.75,-115.99 766.06,-100.89"/>
<polygon fill="#63b8ff" stroke="#63b8ff" points="769.53,-100.37 765.24,-90.68 762.55,-100.93 769.53,-100.37"/>
</a>
</g>
</g>
<!-- Node6 -->
<g id="Node000006" class="node">
<title>Node6</title>
<g id="a_Node000006"><a xlink:href="DirektHeader_8h.html" target="_top" xlink:title=" ">
<polygon fill="white" stroke="#666666" points="1242.08,-151 1112.08,-151 1112.08,-132 1242.08,-132 1242.08,-151"/>
<text text-anchor="middle" x="1177.08" y="-139" font-family="Helvetica,sans-Serif" font-size="10.00">chrome/DirektHeader.h</text>
</a>
</g>
</g>
<!-- Node1&#45;&gt;Node6 -->
<g id="edge7_Node000001_Node000006" class="edge">
<title>Node1&#45;&gt;Node6</title>
<g id="a_edge7_Node000001_Node000006"><a xlink:title=" ">
<path fill="none" stroke="#63b8ff" d="M1007.83,-241.84C1039.67,-223.16 1115.07,-178.9 1153.58,-156.3"/>
<polygon fill="#63b8ff" stroke="#63b8ff" points="1155.67,-159.13 1162.52,-151.05 1152.13,-153.09 1155.67,-159.13"/>
</a>
</g>
</g>
<!-- Node8 -->
<g id="Node000008" class="node">
<title>Node8</title>
<g id="a_Node000008"><a xlink:href="DirektPopupPanel_8h.html" target="_top" xlink:title=" ">
<polygon fill="white" stroke="#666666" points="737.08,-151 585.08,-151 585.08,-132 737.08,-132 737.08,-151"/>
<text text-anchor="middle" x="661.08" y="-139" font-family="Helvetica,sans-Serif" font-size="10.00">chrome/DirektPopupPanel.h</text>
</a>
</g>
</g>
<!-- Node1&#45;&gt;Node8 -->
<g id="edge12_Node000001_Node000008" class="edge">
<title>Node1&#45;&gt;Node8</title>
<g id="a_edge12_Node000001_Node000008"><a xlink:title=" ">
<path fill="none" stroke="#63b8ff" d="M927.47,-246.12C877.51,-240.99 807.88,-229.89 751.08,-206 723.16,-194.26 695.34,-172.74 678.18,-158.03"/>
<polygon fill="#63b8ff" stroke="#63b8ff" points="680.06,-155.02 670.24,-151.05 675.44,-160.28 680.06,-155.02"/>
</a>
</g>
</g>
<!-- Node9 -->
<g id="Node000009" class="node">
<title>Node9</title>
<g id="a_Node000009"><a xlink:href="DirektPresetBrowser_8h.html" target="_top" xlink:title=" ">
<polygon fill="white" stroke="#666666" points="423.58,-151 258.58,-151 258.58,-132 423.58,-132 423.58,-151"/>
<text text-anchor="middle" x="341.08" y="-139" font-family="Helvetica,sans-Serif" font-size="10.00">chrome/DirektPresetBrowser.h</text>
</a>
</g>
</g>
<!-- Node1&#45;&gt;Node9 -->
<g id="edge15_Node000001_Node000009" class="edge">
<title>Node1&#45;&gt;Node9</title>
<g id="a_edge15_Node000001_Node000009"><a xlink:title=" ">
<path fill="none" stroke="#63b8ff" d="M927.46,-243.89C856.39,-236.35 739.82,-222.85 640.08,-206 549.75,-190.74 445.28,-167.19 386.82,-153.46"/>
<polygon fill="#63b8ff" stroke="#63b8ff" points="387.33,-149.99 376.8,-151.1 385.73,-156.8 387.33,-149.99"/>
</a>
</g>
</g>
<!-- Node11 -->
<g id="Node000011" class="node">
<title>Node11</title>
<g id="a_Node000011"><a xlink:href="DirektConfig_8h.html" target="_top" xlink:title=" ">
<polygon fill="white" stroke="#666666" points="912.58,-151 793.58,-151 793.58,-132 912.58,-132 912.58,-151"/>
<text text-anchor="middle" x="853.08" y="-139" font-family="Helvetica,sans-Serif" font-size="10.00">config/DirektConfig.h</text>
</a>
</g>
</g>
<!-- Node1&#45;&gt;Node11 -->
<g id="edge20_Node000001_Node000011" class="edge">
<title>Node1&#45;&gt;Node11</title>
<g id="a_edge20_Node000001_Node000011"><a xlink:title=" ">
<path fill="none" stroke="#63b8ff" d="M981.63,-241.66C957.61,-223.14 901.79,-180.08 872.24,-157.28"/>
<polygon fill="#63b8ff" stroke="#63b8ff" points="874.36,-154.5 864.31,-151.16 870.09,-160.04 874.36,-154.5"/>
</a>
</g>
</g>
<!-- Node12 -->
<g id="Node000012" class="node">
<title>Node12</title>
<g id="a_Node000012"><a xlink:href="DirektDescriptors_8h.html" target="_top" xlink:title=" ">
<polygon fill="white" stroke="#666666" points="2271.58,-151 2128.58,-151 2128.58,-132 2271.58,-132 2271.58,-151"/>
<text text-anchor="middle" x="2200.08" y="-139" font-family="Helvetica,sans-Serif" font-size="10.00">config/DirektDescriptors.h</text>
</a>
</g>
</g>
<!-- Node1&#45;&gt;Node12 -->
<g id="edge23_Node000001_Node000012" class="edge">
<title>Node1&#45;&gt;Node12</title>
<g id="a_edge23_Node000001_Node000012"><a xlink:title=" ">
<path fill="none" stroke="#63b8ff" d="M1058.8,-250.14C1301.62,-248.54 2136.48,-240.53 2181.08,-206 2194.57,-195.56 2198.81,-175.92 2199.99,-161.24"/>
<polygon fill="#63b8ff" stroke="#63b8ff" points="2203.49,-161.34 2200.39,-151.21 2196.49,-161.06 2203.49,-161.34"/>
</a>
</g>
</g>
<!-- Node17 -->
<g id="Node000017" class="node">
<title>Node17</title>
<g id="a_Node000017"><a xlink:href="DirektAutoLayout_8h.html" target="_top" xlink:title=" ">
<polygon fill="white" stroke="#666666" points="1721.58,-206 1586.58,-206 1586.58,-187 1721.58,-187 1721.58,-206"/>
<text text-anchor="middle" x="1654.08" y="-194" font-family="Helvetica,sans-Serif" font-size="10.00">core/DirektAutoLayout.h</text>
</a>
</g>
</g>
<!-- Node1&#45;&gt;Node17 -->
<g id="edge29_Node000001_Node000017" class="edge">
<title>Node1&#45;&gt;Node17</title>
<g id="a_edge29_Node000001_Node000017"><a xlink:title=" ">
<path fill="none" stroke="#63b8ff" d="M1058.69,-246.03C1166.08,-238.58 1386.07,-222.79 1572.08,-206 1573.55,-205.87 1575.04,-205.73 1576.53,-205.59"/>
<polygon fill="#63b8ff" stroke="#63b8ff" points="1576.9,-209.07 1586.53,-204.65 1576.24,-202.11 1576.9,-209.07"/>
</a>
</g>
</g>
<!-- Node22 -->
<g id="Node000022" class="node">
<title>Node22</title>
<g id="a_Node000022"><a xlink:href="DirektSection_8h.html" target="_top" xlink:title=" ">
<polygon fill="white" stroke="#666666" points="1055.58,-151 930.58,-151 930.58,-132 1055.58,-132 1055.58,-151"/>
<text text-anchor="middle" x="993.08" y="-139" font-family="Helvetica,sans-Serif" font-size="10.00">layout/DirektSection.h</text>
</a>
</g>
</g>
<!-- Node1&#45;&gt;Node22 -->
<g id="edge64_Node000001_Node000022" class="edge">
<title>Node1&#45;&gt;Node22</title>
<g id="a_edge64_Node000001_Node000022"><a xlink:title=" ">
<path fill="none" stroke="#63b8ff" d="M993.08,-241.66C993.08,-224.17 993.08,-184.8 993.08,-161.27"/>
<polygon fill="#63b8ff" stroke="#63b8ff" points="996.58,-161.16 993.08,-151.16 989.58,-161.16 996.58,-161.16"/>
</a>
</g>
</g>
<!-- Node23 -->
<g id="Node000023" class="node">
<title>Node23</title>
<g id="a_Node000023"><a xlink:href="DirektBuildContext_8h.html" target="_top" xlink:title=" ">
<polygon fill="white" stroke="#666666" points="2509.58,-151 2366.58,-151 2366.58,-132 2509.58,-132 2509.58,-151"/>
<text text-anchor="middle" x="2438.08" y="-139" font-family="Helvetica,sans-Serif" font-size="10.00">core/DirektBuildContext.h</text>
</a>
</g>
</g>
<!-- Node1&#45;&gt;Node23 -->
<g id="edge48_Node000001_Node000023" class="edge">
<title>Node1&#45;&gt;Node23</title>
<g id="a_edge48_Node000001_Node000023"><a xlink:title=" ">
<path fill="none" stroke="#63b8ff" d="M1058.95,-250.02C1277.57,-248.14 1977.99,-239.56 2201.08,-206 2274.71,-194.93 2358.27,-169.37 2403.89,-154.27"/>
<polygon fill="#63b8ff" stroke="#63b8ff" points="2405.19,-157.53 2413.56,-151.04 2402.97,-150.89 2405.19,-157.53"/>
</a>
</g>
</g>
<!-- Node25 -->
<g id="Node000025" class="node">
<title>Node25</title>
<g id="a_Node000025"><a xlink:href="DirektComponentRegistry_8h.html" target="_top" xlink:title=" ">
<polygon fill="white" stroke="#666666" points="2171.58,-206 1996.58,-206 1996.58,-187 2171.58,-187 2171.58,-206"/>
<text text-anchor="middle" x="2084.08" y="-194" font-family="Helvetica,sans-Serif" font-size="10.00">core/DirektComponentRegistry.h</text>
</a>
</g>
</g>
<!-- Node1&#45;&gt;Node25 -->
<g id="edge52_Node000001_Node000025" class="edge">
<title>Node1&#45;&gt;Node25</title>
<g id="a_edge52_Node000001_Node000025"><a xlink:title=" ">
<path fill="none" stroke="#63b8ff" d="M1058.87,-247.3C1243.56,-238.33 1767.55,-212.88 1986.28,-202.25"/>
<polygon fill="#63b8ff" stroke="#63b8ff" points="1986.65,-205.74 1996.46,-201.76 1986.31,-198.75 1986.65,-205.74"/>
</a>
</g>
</g>
<!-- Node26 -->
<g id="Node000026" class="node">
<title>Node26</title>
<g id="a_Node000026"><a xlink:href="DirektParameterHistory_8h.html" target="_top" xlink:title=" ">
<polygon fill="white" stroke="#666666" points="2034.08,-151 1870.08,-151 1870.08,-132 2034.08,-132 2034.08,-151"/>
<text text-anchor="middle" x="1952.08" y="-139" font-family="Helvetica,sans-Serif" font-size="10.00">core/DirektParameterHistory.h</text>
</a>
</g>
</g>
<!-- Node1&#45;&gt;Node26 -->
<g id="edge61_Node000001_Node000026" class="edge">
<title>Node1&#45;&gt;Node26</title>
<g id="a_edge61_Node000001_Node000026"><a xlink:title=" ">
<path fill="none" stroke="#63b8ff" d="M1058.79,-251.35C1188.39,-251.96 1485.66,-248.13 1731.08,-206 1799.2,-194.31 1876.25,-169.39 1919.01,-154.48"/>
<polygon fill="#63b8ff" stroke="#63b8ff" points="1920.34,-157.72 1928.61,-151.1 1918.01,-151.12 1920.34,-157.72"/>
</a>
</g>
</g>
<!-- Node27 -->
<g id="Node000027" class="node">
<title>Node27</title>
<g id="a_Node000027"><a xlink:href="DirektLookAndFeel_8h.html" target="_top" xlink:title=" ">
<polygon fill="white" stroke="#666666" points="240.08,-151 88.08,-151 88.08,-132 240.08,-132 240.08,-151"/>
<text text-anchor="middle" x="164.08" y="-139" font-family="Helvetica,sans-Serif" font-size="10.00">theme/DirektLookAndFeel.h</text>
</a>
</g>
</g>
<!-- Node1&#45;&gt;Node27 -->
<g id="edge66_Node000001_Node000027" class="edge">
<title>Node1&#45;&gt;Node27</title>
<g id="a_edge66_Node000001_Node000027"><a xlink:title=" ">
<path fill="none" stroke="#63b8ff" d="M927.22,-245.56C838.41,-238.55 675.45,-224.51 537.08,-206 423.21,-190.77 290.83,-166.71 218.38,-153"/>
<polygon fill="#63b8ff" stroke="#63b8ff" points="218.62,-149.48 208.14,-151.05 217.31,-156.35 218.62,-149.48"/>
</a>
</g>
</g>
<!-- Node4&#45;&gt;Node3 -->
<g id="edge4_Node000004_Node000003" class="edge">
<title>Node4&#45;&gt;Node3</title>
<g id="a_edge4_Node000004_Node000003"><a xlink:title=" ">
<path fill="none" stroke="#63b8ff" d="M519.36,-131.83C547.72,-116.13 610.84,-83.05 668.08,-66 754.42,-40.28 857.81,-27.27 924.43,-21.07"/>
<polygon fill="#63b8ff" stroke="#63b8ff" points="925.15,-24.52 934.79,-20.14 924.52,-17.55 925.15,-24.52"/>
</a>
</g>
</g>
<!-- Node4&#45;&gt;Node5 -->
<g id="edge5_Node000004_Node000005" class="edge">
<title>Node4&#45;&gt;Node5</title>
<g id="a_edge5_Node000004_Node000005"><a xlink:title=" ">
<path fill="none" stroke="#63b8ff" d="M542.03,-131.99C588.33,-121.62 666.64,-104.07 717.08,-92.76"/>
<polygon fill="#63b8ff" stroke="#63b8ff" points="718.09,-96.12 727.08,-90.52 716.56,-89.29 718.09,-96.12"/>
</a>
</g>
</g>
<!-- Node5&#45;&gt;Node3 -->
<g id="edge6_Node000005_Node000003" class="edge">
<title>Node5&#45;&gt;Node3</title>
<g id="a_edge6_Node000005_Node000003"><a xlink:title=" ">
<path fill="none" stroke="#63b8ff" d="M795.83,-71.37C830.86,-61.54 888.96,-45.23 933.05,-32.85"/>
<polygon fill="#63b8ff" stroke="#63b8ff" points="934.11,-36.19 942.8,-30.12 932.22,-29.45 934.11,-36.19"/>
</a>
</g>
</g>
<!-- Node6&#45;&gt;Node2 -->
<g id="edge8_Node000006_Node000002" class="edge">
<title>Node6&#45;&gt;Node2</title>
<g id="a_edge8_Node000006_Node000002"><a xlink:title=" ">
<path fill="none" stroke="#63b8ff" d="M1242.37,-132.06C1308.79,-123.38 1414.68,-109.29 1506.08,-96 1509.47,-95.51 1512.93,-95 1516.42,-94.48"/>
<polygon fill="#63b8ff" stroke="#63b8ff" points="1516.96,-97.94 1526.33,-92.99 1515.92,-91.01 1516.96,-97.94"/>
</a>
</g>
</g>
<!-- Node6&#45;&gt;Node3 -->
<g id="edge9_Node000006_Node000003" class="edge">
<title>Node6&#45;&gt;Node3</title>
<g id="a_edge9_Node000006_Node000003"><a xlink:title=" ">
<path fill="none" stroke="#63b8ff" d="M1171.17,-131.54C1160.69,-116.25 1137.46,-84.96 1111.08,-66 1092.29,-52.49 1069.29,-41.7 1048.6,-33.66"/>
<polygon fill="#63b8ff" stroke="#63b8ff" points="1049.56,-30.28 1038.97,-30.04 1047.1,-36.83 1049.56,-30.28"/>
</a>
</g>
</g>
<!-- Node6&#45;&gt;Node5 -->
<g id="edge11_Node000006_Node000005" class="edge">
<title>Node6&#45;&gt;Node5</title>
<g id="a_edge11_Node000006_Node000005"><a xlink:title=" ">
<path fill="none" stroke="#63b8ff" d="M1117.17,-131.99C1042.42,-121.38 914.78,-103.26 835.45,-91.99"/>
<polygon fill="#63b8ff" stroke="#63b8ff" points="835.46,-88.46 825.06,-90.52 834.47,-95.39 835.46,-88.46"/>
</a>
</g>
</g>
<!-- Node7 -->
<g id="Node000007" class="node">
<title>Node7</title>
<g id="a_Node000007"><a xlink:title=" ">
<polygon fill="#e0e0e0" stroke="#999999" points="1101.58,-90.5 1036.58,-90.5 1036.58,-71.5 1101.58,-71.5 1101.58,-90.5"/>
<text text-anchor="middle" x="1069.08" y="-78.5" font-family="Helvetica,sans-Serif" font-size="10.00">functional</text>
</a>
</g>
</g>
<!-- Node6&#45;&gt;Node7 -->
<g id="edge10_Node000006_Node000007" class="edge">
<title>Node6&#45;&gt;Node7</title>
<g id="a_edge10_Node000006_Node000007"><a xlink:title=" ">
<path fill="none" stroke="#63b8ff" d="M1161.15,-131.87C1143.44,-122.28 1114.62,-106.67 1093.94,-95.47"/>
<polygon fill="#63b8ff" stroke="#63b8ff" points="1095.54,-92.35 1085.08,-90.67 1092.21,-98.51 1095.54,-92.35"/>
</a>
</g>
</g>
<!-- Node8&#45;&gt;Node3 -->
<g id="edge13_Node000008_Node000003" class="edge">
<title>Node8&#45;&gt;Node3</title>
<g id="a_edge13_Node000008_Node000003"><a xlink:title=" ">
<path fill="none" stroke="#63b8ff" d="M661.97,-131.99C664.11,-116.26 671.01,-82.71 692.08,-66 727.18,-38.16 847.32,-25.28 924.78,-19.75"/>
<polygon fill="#63b8ff" stroke="#63b8ff" points="925.21,-23.22 934.95,-19.04 924.73,-16.24 925.21,-23.22"/>
</a>
</g>
</g>
<!-- Node8&#45;&gt;Node5 -->
<g id="edge14_Node000008_Node000005" class="edge">
<title>Node8&#45;&gt;Node5</title>
<g id="a_edge14_Node000008_Node000005"><a xlink:title=" ">
<path fill="none" stroke="#63b8ff" d="M676.43,-131.87C693.4,-122.32 720.98,-106.81 740.87,-95.62"/>
<polygon fill="#63b8ff" stroke="#63b8ff" points="742.67,-98.62 749.67,-90.67 739.24,-92.52 742.67,-98.62"/>
</a>
</g>
</g>
<!-- Node9&#45;&gt;Node3 -->
<g id="edge16_Node000009_Node000003" class="edge">
<title>Node9&#45;&gt;Node3</title>
<g id="a_edge16_Node000009_Node000003"><a xlink:title=" ">
<path fill="none" stroke="#63b8ff" d="M364.88,-131.96C408.93,-116.49 506.42,-83.75 591.08,-66 707.09,-41.68 844.59,-27.71 925,-21"/>
<polygon fill="#63b8ff" stroke="#63b8ff" points="925.32,-24.49 935,-20.18 924.75,-17.51 925.32,-24.49"/>
</a>
</g>
</g>
<!-- Node9&#45;&gt;Node5 -->
<g id="edge19_Node000009_Node000005" class="edge">
<title>Node9&#45;&gt;Node5</title>
<g id="a_edge19_Node000009_Node000005"><a xlink:title=" ">
<path fill="none" stroke="#63b8ff" d="M402.74,-131.99C479.83,-121.36 611.56,-103.18 693.17,-91.92"/>
<polygon fill="#63b8ff" stroke="#63b8ff" points="693.93,-95.35 703.35,-90.52 692.97,-88.42 693.93,-95.35"/>
</a>
</g>
</g>
<!-- Node9&#45;&gt;Node7 -->
<g id="edge17_Node000009_Node000007" class="edge">
<title>Node9&#45;&gt;Node7</title>
<g id="a_edge17_Node000009_Node000007"><a xlink:title=" ">
<path fill="none" stroke="#63b8ff" d="M423.9,-132.71C426.66,-132.47 429.39,-132.23 432.08,-132 655.67,-112.78 923.68,-92.71 1026.27,-85.14"/>
<polygon fill="#63b8ff" stroke="#63b8ff" points="1026.53,-88.63 1036.25,-84.4 1026.02,-81.65 1026.53,-88.63"/>
</a>
</g>
</g>
<!-- Node10 -->
<g id="Node000010" class="node">
<title>Node10</title>
<g id="a_Node000010"><a xlink:title=" ">
<polygon fill="#e0e0e0" stroke="#999999" points="384.08,-90.5 298.08,-90.5 298.08,-71.5 384.08,-71.5 384.08,-90.5"/>
<text text-anchor="middle" x="341.08" y="-78.5" font-family="Helvetica,sans-Serif" font-size="10.00">unordered_set</text>
</a>
</g>
</g>
<!-- Node9&#45;&gt;Node10 -->
<g id="edge18_Node000009_Node000010" class="edge">
<title>Node9&#45;&gt;Node10</title>
<g id="a_edge18_Node000009_Node000010"><a xlink:title=" ">
<path fill="none" stroke="#63b8ff" d="M341.08,-131.87C341.08,-123.75 341.08,-111.31 341.08,-100.89"/>
<polygon fill="#63b8ff" stroke="#63b8ff" points="344.58,-100.67 341.08,-90.67 337.58,-100.67 344.58,-100.67"/>
</a>
</g>
</g>
<!-- Node11&#45;&gt;Node3 -->
<g id="edge21_Node000011_Node000003" class="edge">
<title>Node11&#45;&gt;Node3</title>
<g id="a_edge21_Node000011_Node000003"><a xlink:title=" ">
<path fill="none" stroke="#63b8ff" d="M862.71,-131.94C884.48,-112.58 938.07,-64.92 969.35,-37.11"/>
<polygon fill="#63b8ff" stroke="#63b8ff" points="972.01,-39.42 977.16,-30.16 967.36,-34.19 972.01,-39.42"/>
</a>
</g>
</g>
<!-- Node11&#45;&gt;Node5 -->
<g id="edge22_Node000011_Node000005" class="edge">
<title>Node11&#45;&gt;Node5</title>
<g id="a_edge22_Node000011_Node000005"><a xlink:title=" ">
<path fill="none" stroke="#63b8ff" d="M840.1,-131.87C826.06,-122.54 803.45,-107.51 786.72,-96.38"/>
<polygon fill="#63b8ff" stroke="#63b8ff" points="788.39,-93.29 778.12,-90.67 784.51,-99.12 788.39,-93.29"/>
</a>
</g>
</g>
<!-- Node12&#45;&gt;Node3 -->
<g id="edge24_Node000012_Node000003" class="edge">
<title>Node12&#45;&gt;Node3</title>
<g id="a_edge24_Node000012_Node000003"><a xlink:title=" ">
<path fill="none" stroke="#63b8ff" d="M2195.28,-131.53C2185.87,-115.04 2163.28,-80.26 2133.08,-66 2036.43,-20.37 1292.59,-16.14 1061.41,-15.94"/>
<polygon fill="#63b8ff" stroke="#63b8ff" points="1061.12,-12.44 1051.12,-15.93 1061.12,-19.44 1061.12,-12.44"/>
</a>
</g>
</g>
<!-- Node13 -->
<g id="Node000013" class="node">
<title>Node13</title>
<g id="a_Node000013"><a xlink:title=" ">
<polygon fill="#e0e0e0" stroke="#999999" points="2366.08,-90.5 2328.08,-90.5 2328.08,-71.5 2366.08,-71.5 2366.08,-90.5"/>
<text text-anchor="middle" x="2347.08" y="-78.5" font-family="Helvetica,sans-Serif" font-size="10.00">map</text>
</a>
</g>
</g>
<!-- Node12&#45;&gt;Node13 -->
<g id="edge25_Node000012_Node000013" class="edge">
<title>Node12&#45;&gt;Node13</title>
<g id="a_edge25_Node000012_Node000013"><a xlink:title=" ">
<path fill="none" stroke="#63b8ff" d="M2221.46,-131.99C2247.1,-121.79 2290.18,-104.64 2318.62,-93.33"/>
<polygon fill="#63b8ff" stroke="#63b8ff" points="2320.02,-96.54 2328.02,-89.59 2317.43,-90.03 2320.02,-96.54"/>
</a>
</g>
</g>
<!-- Node14 -->
<g id="Node000014" class="node">
<title>Node14</title>
<g id="a_Node000014"><a xlink:title=" ">
<polygon fill="#e0e0e0" stroke="#999999" points="2058.08,-90.5 2000.08,-90.5 2000.08,-71.5 2058.08,-71.5 2058.08,-90.5"/>
<text text-anchor="middle" x="2029.08" y="-78.5" font-family="Helvetica,sans-Serif" font-size="10.00">memory</text>
</a>
</g>
</g>
<!-- Node12&#45;&gt;Node14 -->
<g id="edge26_Node000012_Node000014" class="edge">
<title>Node12&#45;&gt;Node14</title>
<g id="a_edge26_Node000012_Node000014"><a xlink:title=" ">
<path fill="none" stroke="#63b8ff" d="M2174.23,-131.95C2147.58,-123.1 2104.86,-108.8 2068.08,-96 2066.2,-95.34 2064.26,-94.67 2062.31,-93.98"/>
<polygon fill="#63b8ff" stroke="#63b8ff" points="2063.16,-90.57 2052.57,-90.51 2060.82,-97.16 2063.16,-90.57"/>
</a>
</g>
</g>
<!-- Node15 -->
<g id="Node000015" class="node">
<title>Node15</title>
<g id="a_Node000015"><a xlink:title=" ">
<polygon fill="#e0e0e0" stroke="#999999" points="2231.58,-90.5 2180.58,-90.5 2180.58,-71.5 2231.58,-71.5 2231.58,-90.5"/>
<text text-anchor="middle" x="2206.08" y="-78.5" font-family="Helvetica,sans-Serif" font-size="10.00">variant</text>
</a>
</g>
</g>
<!-- Node12&#45;&gt;Node15 -->
<g id="edge27_Node000012_Node000015" class="edge">
<title>Node12&#45;&gt;Node15</title>
<g id="a_edge27_Node000012_Node000015"><a xlink:title=" ">
<path fill="none" stroke="#63b8ff" d="M2200.97,-131.87C2201.8,-123.75 2203.08,-111.31 2204.15,-100.89"/>
<polygon fill="#63b8ff" stroke="#63b8ff" points="2207.65,-100.97 2205.19,-90.67 2200.69,-100.26 2207.65,-100.97"/>
</a>
</g>
</g>
<!-- Node16 -->
<g id="Node000016" class="node">
<title>Node16</title>
<g id="a_Node000016"><a xlink:title=" ">
<polygon fill="#e0e0e0" stroke="#999999" points="2123.58,-90.5 2076.58,-90.5 2076.58,-71.5 2123.58,-71.5 2123.58,-90.5"/>
<text text-anchor="middle" x="2100.08" y="-78.5" font-family="Helvetica,sans-Serif" font-size="10.00">vector</text>
</a>
</g>
</g>
<!-- Node12&#45;&gt;Node16 -->
<g id="edge28_Node000012_Node000016" class="edge">
<title>Node12&#45;&gt;Node16</title>
<g id="a_edge28_Node000012_Node000016"><a xlink:title=" ">
<path fill="none" stroke="#63b8ff" d="M2185.33,-131.87C2169.08,-122.36 2142.73,-106.95 2123.62,-95.77"/>
<polygon fill="#63b8ff" stroke="#63b8ff" points="2125.3,-92.7 2114.9,-90.67 2121.76,-98.74 2125.3,-92.7"/>
</a>
</g>
</g>
<!-- Node17&#45;&gt;Node2 -->
<g id="edge30_Node000017_Node000002" class="edge">
<title>Node17&#45;&gt;Node2</title>
<g id="a_edge30_Node000017_Node000002"><a xlink:title=" ">
<path fill="none" stroke="#63b8ff" d="M1644.66,-186.82C1636.07,-178.42 1623.6,-164.95 1616.08,-151 1608.56,-137.05 1603.58,-119.96 1600.47,-106.27"/>
<polygon fill="#63b8ff" stroke="#63b8ff" points="1603.83,-105.23 1598.36,-96.15 1596.98,-106.66 1603.83,-105.23"/>
</a>
</g>
</g>
<!-- Node17&#45;&gt;Node3 -->
<g id="edge31_Node000017_Node000003" class="edge">
<title>Node17&#45;&gt;Node3</title>
<g id="a_edge31_Node000017_Node000003"><a xlink:title=" ">
<path fill="none" stroke="#63b8ff" d="M1695.44,-186.94C1729.68,-178.91 1774.38,-165.94 1785.08,-151 1822.16,-99.25 1788.45,-100 1698.08,-66 1582.87,-22.65 1215.2,-16.54 1061.57,-15.92"/>
<polygon fill="#63b8ff" stroke="#63b8ff" points="1061.33,-12.42 1051.32,-15.89 1061.31,-19.42 1061.33,-12.42"/>
</a>
</g>
</g>
<!-- Node17&#45;&gt;Node12 -->
<g id="edge32_Node000017_Node000012" class="edge">
<title>Node17&#45;&gt;Node12</title>
<g id="a_edge32_Node000017_Node000012"><a xlink:title=" ">
<path fill="none" stroke="#63b8ff" d="M1721.85,-188.92C1822.29,-179.17 2010.35,-160.92 2118.3,-150.44"/>
<polygon fill="#63b8ff" stroke="#63b8ff" points="2118.88,-153.9 2128.49,-149.45 2118.2,-146.93 2118.88,-153.9"/>
</a>
</g>
</g>
<!-- Node18 -->
<g id="Node000018" class="node">
<title>Node18</title>
<g id="a_Node000018"><a xlink:href="DirektComboBox_8h.html" target="_top" xlink:title=" ">
<polygon fill="white" stroke="#666666" points="1775.58,-151 1624.58,-151 1624.58,-132 1775.58,-132 1775.58,-151"/>
<text text-anchor="middle" x="1700.08" y="-139" font-family="Helvetica,sans-Serif" font-size="10.00">controls/DirektComboBox.h</text>
</a>
</g>
</g>
<!-- Node17&#45;&gt;Node18 -->
<g id="edge33_Node000017_Node000018" class="edge">
<title>Node17&#45;&gt;Node18</title>
<g id="a_edge33_Node000017_Node000018"><a xlink:title=" ">
<path fill="none" stroke="#63b8ff" d="M1661.68,-186.75C1668.24,-179.18 1677.91,-168.05 1685.9,-158.84"/>
<polygon fill="#63b8ff" stroke="#63b8ff" points="1688.72,-160.94 1692.63,-151.09 1683.43,-156.35 1688.72,-160.94"/>
</a>
</g>
</g>
<!-- Node19 -->
<g id="Node000019" class="node">
<title>Node19</title>
<g id="a_Node000019"><a xlink:href="DirektKnob_8h.html" target="_top" xlink:title=" ">
<polygon fill="white" stroke="#666666" points="1530.08,-151 1408.08,-151 1408.08,-132 1530.08,-132 1530.08,-151"/>
<text text-anchor="middle" x="1469.08" y="-139" font-family="Helvetica,sans-Serif" font-size="10.00">controls/DirektKnob.h</text>
</a>
</g>
</g>
<!-- Node17&#45;&gt;Node19 -->
<g id="edge36_Node000017_Node000019" class="edge">
<title>Node17&#45;&gt;Node19</title>
<g id="a_edge36_Node000017_Node000019"><a xlink:title=" ">
<path fill="none" stroke="#63b8ff" d="M1624.36,-186.98C1593.03,-178.01 1543.51,-163.82 1508.84,-153.89"/>
<polygon fill="#63b8ff" stroke="#63b8ff" points="1509.62,-150.47 1499.04,-151.08 1507.69,-157.2 1509.62,-150.47"/>
</a>
</g>
</g>
<!-- Node21 -->
<g id="Node000021" class="node">
<title>Node21</title>
<g id="a_Node000021"><a xlink:href="DirektToggle_8h.html" target="_top" xlink:title=" ">
<polygon fill="white" stroke="#666666" points="1389.58,-151 1260.58,-151 1260.58,-132 1389.58,-132 1389.58,-151"/>
<text text-anchor="middle" x="1325.08" y="-139" font-family="Helvetica,sans-Serif" font-size="10.00">controls/DirektToggle.h</text>
</a>
</g>
</g>
<!-- Node17&#45;&gt;Node21 -->
<g id="edge40_Node000017_Node000021" class="edge">
<title>Node17&#45;&gt;Node21</title>
<g id="a_edge40_Node000017_Node000021"><a xlink:title=" ">
<path fill="none" stroke="#63b8ff" d="M1601.22,-186.98C1543.15,-177.63 1449.94,-162.61 1388.11,-152.65"/>
<polygon fill="#63b8ff" stroke="#63b8ff" points="1388.51,-149.17 1378.08,-151.04 1387.4,-156.08 1388.51,-149.17"/>
</a>
</g>
</g>
<!-- Node17&#45;&gt;Node22 -->
<g id="edge43_Node000017_Node000022" class="edge">
<title>Node17&#45;&gt;Node22</title>
<g id="a_edge43_Node000017_Node000022"><a xlink:title=" ">
<path fill="none" stroke="#63b8ff" d="M1586.58,-191.1C1477.76,-183.85 1256.88,-168.42 1070.08,-151 1068.62,-150.86 1067.14,-150.72 1065.65,-150.58"/>
<polygon fill="#63b8ff" stroke="#63b8ff" points="1065.98,-147.09 1055.68,-149.59 1065.28,-154.06 1065.98,-147.09"/>
</a>
</g>
</g>
<!-- Node18&#45;&gt;Node2 -->
<g id="edge34_Node000018_Node000002" class="edge">
<title>Node18&#45;&gt;Node2</title>
<g id="a_edge34_Node000018_Node000002"><a xlink:title=" ">
<path fill="none" stroke="#63b8ff" d="M1684.74,-131.87C1670.36,-123.78 1648.39,-111.42 1629.91,-101.03"/>
<polygon fill="#63b8ff" stroke="#63b8ff" points="1631.61,-97.97 1621.17,-96.11 1628.17,-104.07 1631.61,-97.97"/>
</a>
</g>
</g>
<!-- Node18&#45;&gt;Node3 -->
<g id="edge35_Node000018_Node000003" class="edge">
<title>Node18&#45;&gt;Node3</title>
<g id="a_edge35_Node000018_Node000003"><a xlink:title=" ">
<path fill="none" stroke="#63b8ff" d="M1700.06,-131.87C1699.49,-115.94 1695.77,-82.06 1675.08,-66 1627.39,-28.98 1224.92,-19.22 1061.57,-16.78"/>
<polygon fill="#63b8ff" stroke="#63b8ff" points="1061.21,-13.27 1051.16,-16.63 1061.11,-20.27 1061.21,-13.27"/>
</a>
</g>
</g>
<!-- Node19&#45;&gt;Node2 -->
<g id="edge37_Node000019_Node000002" class="edge">
<title>Node19&#45;&gt;Node2</title>
<g id="a_edge37_Node000019_Node000002"><a xlink:title=" ">
<path fill="none" stroke="#63b8ff" d="M1487.55,-131.99C1505.45,-123.75 1533.18,-110.98 1556.13,-100.4"/>
<polygon fill="#63b8ff" stroke="#63b8ff" points="1557.69,-103.54 1565.3,-96.18 1554.76,-97.18 1557.69,-103.54"/>
</a>
</g>
</g>
<!-- Node19&#45;&gt;Node3 -->
<g id="edge38_Node000019_Node000003" class="edge">
<title>Node19&#45;&gt;Node3</title>
<g id="a_edge38_Node000019_Node000003"><a xlink:title=" ">
<path fill="none" stroke="#63b8ff" d="M1437.97,-131.95C1386.77,-117.92 1281.49,-89.25 1192.08,-66 1148.25,-54.6 1098.87,-42.19 1060.27,-32.59"/>
<polygon fill="#63b8ff" stroke="#63b8ff" points="1060.74,-29.1 1050.19,-30.08 1059.05,-35.89 1060.74,-29.1"/>
</a>
</g>
</g>
<!-- Node20 -->
<g id="Node000020" class="node">
<title>Node20</title>
<g id="a_Node000020"><a xlink:title=" ">
<polygon fill="#e0e0e0" stroke="#999999" points="1497.08,-90.5 1441.08,-90.5 1441.08,-71.5 1497.08,-71.5 1497.08,-90.5"/>
<text text-anchor="middle" x="1469.08" y="-78.5" font-family="Helvetica,sans-Serif" font-size="10.00">optional</text>
</a>
</g>
</g>
<!-- Node19&#45;&gt;Node20 -->
<g id="edge39_Node000019_Node000020" class="edge">
<title>Node19&#45;&gt;Node20</title>
<g id="a_edge39_Node000019_Node000020"><a xlink:title=" ">
<path fill="none" stroke="#63b8ff" d="M1469.08,-131.87C1469.08,-123.75 1469.08,-111.31 1469.08,-100.89"/>
<polygon fill="#63b8ff" stroke="#63b8ff" points="1472.58,-100.67 1469.08,-90.67 1465.58,-100.67 1472.58,-100.67"/>
</a>
</g>
</g>
<!-- Node21&#45;&gt;Node2 -->
<g id="edge41_Node000021_Node000002" class="edge">
<title>Node21&#45;&gt;Node2</title>
<g id="a_edge41_Node000021_Node000002"><a xlink:title=" ">
<path fill="none" stroke="#63b8ff" d="M1364.49,-131.99C1405.43,-123.16 1470.49,-109.11 1521.24,-98.16"/>
<polygon fill="#63b8ff" stroke="#63b8ff" points="1522.16,-101.54 1531.19,-96.01 1520.68,-94.7 1522.16,-101.54"/>
</a>
</g>
</g>
<!-- Node21&#45;&gt;Node3 -->
<g id="edge42_Node000021_Node000003" class="edge">
<title>Node21&#45;&gt;Node3</title>
<g id="a_edge42_Node000021_Node000003"><a xlink:title=" ">
<path fill="none" stroke="#63b8ff" d="M1304.97,-131.98C1271.14,-117.74 1200.62,-88.47 1140.08,-66 1109.11,-54.51 1074.1,-42.56 1046.02,-33.23"/>
<polygon fill="#63b8ff" stroke="#63b8ff" points="1046.99,-29.86 1036.4,-30.04 1044.79,-36.5 1046.99,-29.86"/>
</a>
</g>
</g>
<!-- Node22&#45;&gt;Node3 -->
<g id="edge44_Node000022_Node000003" class="edge">
<title>Node22&#45;&gt;Node3</title>
<g id="a_edge44_Node000022_Node000003"><a xlink:title=" ">
<path fill="none" stroke="#63b8ff" d="M993.08,-131.94C993.08,-113.32 993.08,-68.53 993.08,-40.39"/>
<polygon fill="#63b8ff" stroke="#63b8ff" points="996.58,-40.16 993.08,-30.16 989.58,-40.16 996.58,-40.16"/>
</a>
</g>
</g>
<!-- Node22&#45;&gt;Node5 -->
<g id="edge47_Node000022_Node000005" class="edge">
<title>Node22&#45;&gt;Node5</title>
<g id="a_edge47_Node000022_Node000005"><a xlink:title=" ">
<path fill="none" stroke="#63b8ff" d="M959.93,-131.99C919.83,-121.7 852.22,-104.36 808.13,-93.04"/>
<polygon fill="#63b8ff" stroke="#63b8ff" points="808.83,-89.61 798.28,-90.52 807.09,-96.39 808.83,-89.61"/>
</a>
</g>
</g>
<!-- Node22&#45;&gt;Node7 -->
<g id="edge45_Node000022_Node000007" class="edge">
<title>Node22&#45;&gt;Node7</title>
<g id="a_edge45_Node000022_Node000007"><a xlink:title=" ">
<path fill="none" stroke="#63b8ff" d="M1004.3,-131.87C1016.2,-122.71 1035.22,-108.06 1049.59,-97.01"/>
<polygon fill="#63b8ff" stroke="#63b8ff" points="1052.03,-99.54 1057.82,-90.67 1047.76,-93.99 1052.03,-99.54"/>
</a>
</g>
</g>
<!-- Node22&#45;&gt;Node14 -->
<g id="edge46_Node000022_Node000014" class="edge">
<title>Node22&#45;&gt;Node14</title>
<g id="a_edge46_Node000022_Node000014"><a xlink:title=" ">
<path fill="none" stroke="#63b8ff" d="M1055.6,-135.42C1071.11,-134.22 1087.7,-133.01 1103.08,-132 1446.46,-109.47 1861.97,-89.71 1989.79,-83.8"/>
<polygon fill="#63b8ff" stroke="#63b8ff" points="1990.05,-87.29 1999.87,-83.33 1989.72,-80.29 1990.05,-87.29"/>
</a>
</g>
</g>
<!-- Node23&#45;&gt;Node2 -->
<g id="edge49_Node000023_Node000002" class="edge">
<title>Node23&#45;&gt;Node2</title>
<g id="a_edge49_Node000023_Node000002"><a xlink:title=" ">
<path fill="none" stroke="#63b8ff" d="M2366.29,-135.51C2209.8,-124.64 1838.89,-98.87 1675.6,-87.52"/>
<polygon fill="#63b8ff" stroke="#63b8ff" points="1675.83,-84.03 1665.62,-86.83 1675.35,-91.02 1675.83,-84.03"/>
</a>
</g>
</g>
<!-- Node23&#45;&gt;Node13 -->
<g id="edge51_Node000023_Node000013" class="edge">
<title>Node23&#45;&gt;Node13</title>
<g id="a_edge51_Node000023_Node000013"><a xlink:title=" ">
<path fill="none" stroke="#63b8ff" d="M2424.65,-131.87C2410,-122.45 2386.33,-107.23 2368.98,-96.08"/>
<polygon fill="#63b8ff" stroke="#63b8ff" points="2370.87,-93.13 2360.56,-90.67 2367.08,-99.02 2370.87,-93.13"/>
</a>
</g>
</g>
<!-- Node24 -->
<g id="Node000024" class="node">
<title>Node24</title>
<g id="a_Node000024"><a xlink:title=" ">
<polygon fill="#e0e0e0" stroke="#999999" points="2463.08,-90.5 2413.08,-90.5 2413.08,-71.5 2463.08,-71.5 2463.08,-90.5"/>
<text text-anchor="middle" x="2438.08" y="-78.5" font-family="Helvetica,sans-Serif" font-size="10.00">atomic</text>
</a>
</g>
</g>
<!-- Node23&#45;&gt;Node24 -->
<g id="edge50_Node000023_Node000024" class="edge">
<title>Node23&#45;&gt;Node24</title>
<g id="a_edge50_Node000023_Node000024"><a xlink:title=" ">
<path fill="none" stroke="#63b8ff" d="M2438.08,-131.87C2438.08,-123.75 2438.08,-111.31 2438.08,-100.89"/>
<polygon fill="#63b8ff" stroke="#63b8ff" points="2441.58,-100.67 2438.08,-90.67 2434.58,-100.67 2441.58,-100.67"/>
</a>
</g>
</g>
<!-- Node25&#45;&gt;Node2 -->
<g id="edge53_Node000025_Node000002" class="edge">
<title>Node25&#45;&gt;Node2</title>
<g id="a_edge53_Node000025_Node000002"><a xlink:title=" ">
<path fill="none" stroke="#63b8ff" d="M2037.36,-186.99C1992.12,-178.56 1921.68,-164.92 1861.08,-151 1822.85,-142.22 1723.79,-116.08 1658.21,-98.62"/>
<polygon fill="#63b8ff" stroke="#63b8ff" points="1658.95,-95.2 1648.39,-96 1657.15,-101.96 1658.95,-95.2"/>
</a>
</g>
</g>
<!-- Node25&#45;&gt;Node3 -->
<g id="edge54_Node000025_Node000003" class="edge">
<title>Node25&#45;&gt;Node3</title>
<g id="a_edge54_Node000025_Node000003"><a xlink:title=" ">
<path fill="none" stroke="#63b8ff" d="M2168.06,-186.98C2214.91,-180.3 2266.66,-169.04 2281.08,-151 2305.29,-120.71 2281.71,-89.97 2241.08,-66 2190.02,-35.88 1315.24,-20.73 1061.53,-16.96"/>
<polygon fill="#63b8ff" stroke="#63b8ff" points="1061.39,-13.45 1051.34,-16.81 1061.29,-20.45 1061.39,-13.45"/>
</a>
</g>
</g>
<!-- Node25&#45;&gt;Node7 -->
<g id="edge55_Node000025_Node000007" class="edge">
<title>Node25&#45;&gt;Node7</title>
<g id="a_edge55_Node000025_Node000007"><a xlink:title=" ">
<path fill="none" stroke="#63b8ff" d="M1996.36,-192.7C1759.18,-184.98 1121.65,-163.14 1103.08,-151 1085.83,-139.72 1077.02,-116.95 1072.75,-100.65"/>
<polygon fill="#63b8ff" stroke="#63b8ff" points="1076.09,-99.6 1070.46,-90.62 1069.27,-101.15 1076.09,-99.6"/>
</a>
</g>
</g>
<!-- Node25&#45;&gt;Node12 -->
<g id="edge59_Node000025_Node000012" class="edge">
<title>Node25&#45;&gt;Node12</title>
<g id="a_edge59_Node000025_Node000012"><a xlink:title=" ">
<path fill="none" stroke="#63b8ff" d="M2102.72,-186.98C2121.38,-178.46 2150.33,-165.23 2171.82,-155.41"/>
<polygon fill="#63b8ff" stroke="#63b8ff" points="2173.46,-158.51 2181.11,-151.17 2170.56,-152.14 2173.46,-158.51"/>
</a>
</g>
</g>
<!-- Node25&#45;&gt;Node13 -->
<g id="edge56_Node000025_Node000013" class="edge">
<title>Node25&#45;&gt;Node13</title>
<g id="a_edge56_Node000025_Node000013"><a xlink:title=" ">
<path fill="none" stroke="#63b8ff" d="M2169.98,-186.98C2225.59,-179.96 2291.68,-168.31 2314.08,-151 2330.13,-138.6 2338.78,-116.43 2343.14,-100.57"/>
<polygon fill="#63b8ff" stroke="#63b8ff" points="2346.56,-101.33 2345.52,-90.79 2339.75,-99.68 2346.56,-101.33"/>
</a>
</g>
</g>
<!-- Node25&#45;&gt;Node14 -->
<g id="edge57_Node000025_Node000014" class="edge">
<title>Node25&#45;&gt;Node14</title>
<g id="a_edge57_Node000025_Node000014"><a xlink:title=" ">
<path fill="none" stroke="#63b8ff" d="M2079.95,-186.97C2070.99,-168.48 2049.63,-124.4 2037.63,-99.64"/>
<polygon fill="#63b8ff" stroke="#63b8ff" points="2040.77,-98.1 2033.26,-90.63 2034.48,-101.16 2040.77,-98.1"/>
</a>
</g>
</g>
<!-- Node25&#45;&gt;Node16 -->
<g id="edge58_Node000025_Node000016" class="edge">
<title>Node25&#45;&gt;Node16</title>
<g id="a_edge58_Node000025_Node000016"><a xlink:title=" ">
<path fill="none" stroke="#63b8ff" d="M2085.28,-186.97C2087.86,-168.73 2093.94,-125.57 2097.45,-100.64"/>
<polygon fill="#63b8ff" stroke="#63b8ff" points="2100.94,-101.02 2098.87,-90.63 2094,-100.04 2100.94,-101.02"/>
</a>
</g>
</g>
<!-- Node25&#45;&gt;Node23 -->
<g id="edge60_Node000025_Node000023" class="edge">
<title>Node25&#45;&gt;Node23</title>
<g id="a_edge60_Node000025_Node000023"><a xlink:title=" ">
<path fill="none" stroke="#63b8ff" d="M2140.96,-186.98C2203.7,-177.59 2304.57,-162.49 2371.09,-152.53"/>
<polygon fill="#63b8ff" stroke="#63b8ff" points="2371.68,-155.98 2381.05,-151.04 2370.65,-149.06 2371.68,-155.98"/>
</a>
</g>
</g>
<!-- Node26&#45;&gt;Node2 -->
<g id="edge62_Node000026_Node000002" class="edge">
<title>Node26&#45;&gt;Node2</title>
<g id="a_edge62_Node000026_Node000002"><a xlink:title=" ">
<path fill="none" stroke="#63b8ff" d="M1900.32,-131.99C1841.32,-122.3 1744.19,-106.34 1675.57,-95.06"/>
<polygon fill="#63b8ff" stroke="#63b8ff" points="1676.1,-91.6 1665.67,-93.43 1674.97,-98.51 1676.1,-91.6"/>
</a>
</g>
</g>
<!-- Node26&#45;&gt;Node16 -->
<g id="edge63_Node000026_Node000016" class="edge">
<title>Node26&#45;&gt;Node16</title>
<g id="a_edge63_Node000026_Node000016"><a xlink:title=" ">
<path fill="none" stroke="#63b8ff" d="M1975.08,-131.85C1998.35,-123.04 2035.34,-108.87 2067.08,-96 2068.28,-95.51 2069.51,-95.01 2070.74,-94.51"/>
<polygon fill="#63b8ff" stroke="#63b8ff" points="2072.35,-97.63 2080.23,-90.54 2069.66,-91.17 2072.35,-97.63"/>
</a>
</g>
</g>
<!-- Node27&#45;&gt;Node3 -->
<g id="edge67_Node000027_Node000003" class="edge">
<title>Node27&#45;&gt;Node3</title>
<g id="a_edge67_Node000027_Node000003"><a xlink:title=" ">
<path fill="none" stroke="#63b8ff" d="M174.62,-131.84C195.14,-115.53 242.56,-80.6 289.08,-66 406.29,-29.2 771.8,-19.38 924.73,-16.84"/>
<polygon fill="#63b8ff" stroke="#63b8ff" points="924.99,-20.34 934.93,-16.68 924.87,-13.34 924.99,-20.34"/>
</a>
</g>
</g>
<!-- Node27&#45;&gt;Node5 -->
<g id="edge68_Node000027_Node000005" class="edge">
<title>Node27&#45;&gt;Node5</title>
<g id="a_edge68_Node000027_Node000005"><a xlink:title=" ">
<path fill="none" stroke="#63b8ff" d="M240.54,-132.84C243.42,-132.56 246.28,-132.28 249.08,-132 406.69,-116.48 591.41,-98.68 691.52,-89.06"/>
<polygon fill="#63b8ff" stroke="#63b8ff" points="691.91,-92.54 701.53,-88.1 691.24,-85.57 691.91,-92.54"/>
</a>
</g>
</g>
</g>
</svg>
