<?xml version="1.0" encoding="UTF-8" standalone="no"?>
<!DOCTYPE svg PUBLIC "-//W3C//DTD SVG 1.1//EN"
 "http://www.w3.org/Graphics/SVG/1.1/DTD/svg11.dtd">
<!-- Generated by graphviz version 2.43.0 (0)
 -->
<!-- Title: chrome/DirektPopupPanel.h Pages: 1 -->
<svg width="339pt" height="137pt"
 viewBox="0.00 0.00 339.02 137.00" xmlns="http://www.w3.org/2000/svg" xmlns:xlink="http://www.w3.org/1999/xlink">
<g id="graph0" class="graph" transform="scale(1 1) rotate(0) translate(4 133)">
<title>chrome/DirektPopupPanel.h</title>
<!-- Node1 -->
<g id="Node000001" class="node">
<title>Node1</title>
<g id="a_Node000001"><a xlink:title=" ">
<polygon fill="#999999" stroke="#666666" points="170.52,-129 18.52,-129 18.52,-110 170.52,-110 170.52,-129"/>
<text text-anchor="middle" x="94.52" y="-117" font-family="Helvetica,sans-Serif" font-size="10.00">chrome/DirektPopupPanel.h</text>
</a>
</g>
</g>
<!-- Node2 -->
<g id="Node000002" class="node">
<title>Node2</title>
<g id="a_Node000002"><a xlink:href="DirektDSP_8h.html" target="_top" xlink:title=" ">
<polygon fill="white" stroke="#666666" points="95.52,-19 21.52,-19 21.52,0 95.52,0 95.52,-19"/>
<text text-anchor="middle" x="58.52" y="-7" font-family="Helvetica,sans-Serif" font-size="10.00">DirektDSP.h</text>
</a>
</g>
</g>
<!-- Node1&#45;&gt;Node2 -->
<g id="edge1_Node000001_Node000002" class="edge">
<title>Node1&#45;&gt;Node2</title>
<g id="a_edge1_Node000001_Node000002"><a xlink:title=" ">
<path fill="none" stroke="#63b8ff" d="M46.45,-106.41C29.92,-99.7 13.17,-89.46 3.52,-74 -10,-52.35 20.67,-30.62 41.42,-19.05"/>
<polygon fill="#63b8ff" stroke="#63b8ff" points="45.5,-109.79 56.09,-109.96 47.92,-103.22 45.5,-109.79"/>
</a>
</g>
</g>
<!-- Node3 -->
<g id="Node000003" class="node">
<title>Node3</title>
<g id="a_Node000003"><a xlink:href="DirektPopupPanel_8cpp.html" target="_top" xlink:title=" ">
<polygon fill="white" stroke="#666666" points="176.02,-74 13.02,-74 13.02,-55 176.02,-55 176.02,-74"/>
<text text-anchor="middle" x="94.52" y="-62" font-family="Helvetica,sans-Serif" font-size="10.00">chrome/DirektPopupPanel.cpp</text>
</a>
</g>
</g>
<!-- Node1&#45;&gt;Node3 -->
<g id="edge2_Node000001_Node000003" class="edge">
<title>Node1&#45;&gt;Node3</title>
<g id="a_edge2_Node000001_Node000003"><a xlink:title=" ">
<path fill="none" stroke="#63b8ff" d="M94.52,-99.66C94.52,-90.93 94.52,-80.99 94.52,-74.09"/>
<polygon fill="#63b8ff" stroke="#63b8ff" points="91.02,-99.75 94.52,-109.75 98.02,-99.75 91.02,-99.75"/>
</a>
</g>
</g>
<!-- Node4 -->
<g id="Node000004" class="node">
<title>Node4</title>
<g id="a_Node000004"><a xlink:href="DirektBaseEditor_8h.html" target="_top" xlink:title=" ">
<polygon fill="white" stroke="#666666" points="325.02,-74 194.02,-74 194.02,-55 325.02,-55 325.02,-74"/>
<text text-anchor="middle" x="259.52" y="-62" font-family="Helvetica,sans-Serif" font-size="10.00">core/DirektBaseEditor.h</text>
</a>
</g>
</g>
<!-- Node1&#45;&gt;Node4 -->
<g id="edge3_Node000001_Node000004" class="edge">
<title>Node1&#45;&gt;Node4</title>
<g id="a_edge3_Node000001_Node000004"><a xlink:title=" ">
<path fill="none" stroke="#63b8ff" d="M130.95,-106.8C161.74,-96.91 205.14,-82.97 232.8,-74.08"/>
<polygon fill="#63b8ff" stroke="#63b8ff" points="129.48,-103.59 121.03,-109.98 131.62,-110.26 129.48,-103.59"/>
</a>
</g>
</g>
<!-- Node4&#45;&gt;Node2 -->
<g id="edge4_Node000004_Node000002" class="edge">
<title>Node4&#45;&gt;Node2</title>
<g id="a_edge4_Node000004_Node000002"><a xlink:title=" ">
<path fill="none" stroke="#63b8ff" d="M217.08,-52.31C179.47,-42.39 125.35,-28.12 91.06,-19.08"/>
<polygon fill="#63b8ff" stroke="#63b8ff" points="216.66,-55.82 227.22,-54.98 218.45,-49.05 216.66,-55.82"/>
</a>
</g>
</g>
<!-- Node5 -->
<g id="Node000005" class="node">
<title>Node5</title>
<g id="a_Node000005"><a xlink:href="DirektBaseEditor_8cpp.html" target="_top" xlink:title=" ">
<polygon fill="white" stroke="#666666" points="331.02,-19 188.02,-19 188.02,0 331.02,0 331.02,-19"/>
<text text-anchor="middle" x="259.52" y="-7" font-family="Helvetica,sans-Serif" font-size="10.00">core/DirektBaseEditor.cpp</text>
</a>
</g>
</g>
<!-- Node4&#45;&gt;Node5 -->
<g id="edge5_Node000004_Node000005" class="edge">
<title>Node4&#45;&gt;Node5</title>
<g id="a_edge5_Node000004_Node000005"><a xlink:title=" ">
<path fill="none" stroke="#63b8ff" d="M259.52,-44.66C259.52,-35.93 259.52,-25.99 259.52,-19.09"/>
<polygon fill="#63b8ff" stroke="#63b8ff" points="256.02,-44.75 259.52,-54.75 263.02,-44.75 256.02,-44.75"/>
</a>
</g>
</g>
</g>
</svg>
