<?xml version="1.0" encoding="UTF-8" standalone="no"?>
<!DOCTYPE svg PUBLIC "-//W3C//DTD SVG 1.1//EN"
 "http://www.w3.org/Graphics/SVG/1.1/DTD/svg11.dtd">
<!-- Generated by graphviz version 2.43.0 (0)
 -->
<!-- Title: core/DirektComponentRegistry.cpp Pages: 1 -->
<svg width="2523pt" height="280pt"
 viewBox="0.00 0.00 2522.50 280.00" xmlns="http://www.w3.org/2000/svg" xmlns:xlink="http://www.w3.org/1999/xlink">
<g id="graph0" class="graph" transform="scale(1 1) rotate(0) translate(4 276)">
<title>core/DirektComponentRegistry.cpp</title>
<!-- Node1 -->
<g id="Node000001" class="node">
<title>Node1</title>
<g id="a_Node000001"><a xlink:title=" ">
<polygon fill="#999999" stroke="#666666" points="1620.5,-272 1434.5,-272 1434.5,-253 1620.5,-253 1620.5,-272"/>
<text text-anchor="middle" x="1527.5" y="-260" font-family="Helvetica,sans-Serif" font-size="10.00">core/DirektComponentRegistry.cpp</text>
</a>
</g>
</g>
<!-- Node2 -->
<g id="Node000002" class="node">
<title>Node2</title>
<g id="a_Node000002"><a xlink:href="DirektComponentRegistry_8h.html" target="_top" xlink:title=" ">
<polygon fill="white" stroke="#666666" points="1164,-211.5 989,-211.5 989,-192.5 1164,-192.5 1164,-211.5"/>
<text text-anchor="middle" x="1076.5" y="-199.5" font-family="Helvetica,sans-Serif" font-size="10.00">core/DirektComponentRegistry.h</text>
</a>
</g>
</g>
<!-- Node1&#45;&gt;Node2 -->
<g id="edge1_Node000001_Node000002" class="edge">
<title>Node1&#45;&gt;Node2</title>
<g id="a_edge1_Node000001_Node000002"><a xlink:title=" ">
<path fill="none" stroke="#63b8ff" d="M1461.92,-252.99C1379.67,-242.32 1238.94,-224.07 1152.2,-212.82"/>
<polygon fill="#63b8ff" stroke="#63b8ff" points="1152.53,-209.33 1142.16,-211.52 1151.63,-216.27 1152.53,-209.33"/>
</a>
</g>
</g>
<!-- Node13 -->
<g id="Node000013" class="node">
<title>Node13</title>
<g id="a_Node000013"><a xlink:href="DirektComboBox_8h.html" target="_top" xlink:title=" ">
<polygon fill="white" stroke="#666666" points="151,-151 0,-151 0,-132 151,-132 151,-151"/>
<text text-anchor="middle" x="75.5" y="-139" font-family="Helvetica,sans-Serif" font-size="10.00">controls/DirektComboBox.h</text>
</a>
</g>
</g>
<!-- Node1&#45;&gt;Node13 -->
<g id="edge18_Node000001_Node000013" class="edge">
<title>Node1&#45;&gt;Node13</title>
<g id="a_edge18_Node000001_Node000013"><a xlink:title=" ">
<path fill="none" stroke="#63b8ff" d="M1434.34,-260.18C1199.99,-256.5 590.41,-244.5 389.5,-217 288.17,-203.13 171.7,-171.16 113.2,-153.96"/>
<polygon fill="#63b8ff" stroke="#63b8ff" points="113.88,-150.51 103.3,-151.02 111.9,-157.22 113.88,-150.51"/>
</a>
</g>
</g>
<!-- Node14 -->
<g id="Node000014" class="node">
<title>Node14</title>
<g id="a_Node000014"><a xlink:href="DirektKnob_8h.html" target="_top" xlink:title=" ">
<polygon fill="white" stroke="#666666" points="438.5,-151 316.5,-151 316.5,-132 438.5,-132 438.5,-151"/>
<text text-anchor="middle" x="377.5" y="-139" font-family="Helvetica,sans-Serif" font-size="10.00">controls/DirektKnob.h</text>
</a>
</g>
</g>
<!-- Node1&#45;&gt;Node14 -->
<g id="edge21_Node000001_Node000014" class="edge">
<title>Node1&#45;&gt;Node14</title>
<g id="a_edge21_Node000001_Node000014"><a xlink:title=" ">
<path fill="none" stroke="#63b8ff" d="M1434.3,-262.29C1277.84,-262.35 952.86,-257.03 681.5,-217 583.62,-202.56 471.2,-170.98 414.43,-153.94"/>
<polygon fill="#63b8ff" stroke="#63b8ff" points="415.41,-150.58 404.82,-151.03 413.38,-157.28 415.41,-150.58"/>
</a>
</g>
</g>
<!-- Node16 -->
<g id="Node000016" class="node">
<title>Node16</title>
<g id="a_Node000016"><a xlink:href="DirektMacroControl_8h.html" target="_top" xlink:title=" ">
<polygon fill="white" stroke="#666666" points="734,-151 571,-151 571,-132 734,-132 734,-151"/>
<text text-anchor="middle" x="652.5" y="-139" font-family="Helvetica,sans-Serif" font-size="10.00">controls/DirektMacroControl.h</text>
</a>
</g>
</g>
<!-- Node1&#45;&gt;Node16 -->
<g id="edge25_Node000001_Node000016" class="edge">
<title>Node1&#45;&gt;Node16</title>
<g id="a_edge25_Node000001_Node000016"><a xlink:title=" ">
<path fill="none" stroke="#63b8ff" d="M1434.09,-258.09C1324.8,-253.14 1138.65,-241.69 980.5,-217 922.34,-207.92 908.89,-200.09 851.5,-187 800.11,-175.28 741.19,-162.14 700.88,-153.2"/>
<polygon fill="#63b8ff" stroke="#63b8ff" points="701.56,-149.76 691.04,-151.02 700.05,-156.6 701.56,-149.76"/>
</a>
</g>
</g>
<!-- Node17 -->
<g id="Node000017" class="node">
<title>Node17</title>
<g id="a_Node000017"><a xlink:href="DirektToggle_8h.html" target="_top" xlink:title=" ">
<polygon fill="white" stroke="#666666" points="298,-151 169,-151 169,-132 298,-132 298,-151"/>
<text text-anchor="middle" x="233.5" y="-139" font-family="Helvetica,sans-Serif" font-size="10.00">controls/DirektToggle.h</text>
</a>
</g>
</g>
<!-- Node1&#45;&gt;Node17 -->
<g id="edge29_Node000001_Node000017" class="edge">
<title>Node1&#45;&gt;Node17</title>
<g id="a_edge29_Node000001_Node000017"><a xlink:title=" ">
<path fill="none" stroke="#63b8ff" d="M1434.25,-259.68C1221.69,-255.14 706.36,-241.87 534.5,-217 437.7,-202.99 326.68,-171.34 270.39,-154.15"/>
<polygon fill="#63b8ff" stroke="#63b8ff" points="271.12,-150.71 260.53,-151.11 269.06,-157.4 271.12,-150.71"/>
</a>
</g>
</g>
<!-- Node18 -->
<g id="Node000018" class="node">
<title>Node18</title>
<g id="a_Node000018"><a xlink:href="DirektClipIndicator_8h.html" target="_top" xlink:title=" ">
<polygon fill="white" stroke="#666666" points="2306,-151 2151,-151 2151,-132 2306,-132 2306,-151"/>
<text text-anchor="middle" x="2228.5" y="-139" font-family="Helvetica,sans-Serif" font-size="10.00">display/DirektClipIndicator.h</text>
</a>
</g>
</g>
<!-- Node1&#45;&gt;Node18 -->
<g id="edge32_Node000001_Node000018" class="edge">
<title>Node1&#45;&gt;Node18</title>
<g id="a_edge32_Node000001_Node000018"><a xlink:title=" ">
<path fill="none" stroke="#63b8ff" d="M1620.71,-261.46C1767.51,-260.26 2045.26,-253.11 2136.5,-217 2168.32,-204.41 2197.67,-176.68 2214.3,-158.83"/>
<polygon fill="#63b8ff" stroke="#63b8ff" points="2216.89,-161.18 2221,-151.42 2211.7,-156.49 2216.89,-161.18"/>
</a>
</g>
</g>
<!-- Node19 -->
<g id="Node000019" class="node">
<title>Node19</title>
<g id="a_Node000019"><a xlink:href="DirektColours_8h.html" target="_top" xlink:title=" ">
<polygon fill="white" stroke="#666666" points="2128,-90.5 2001,-90.5 2001,-71.5 2128,-71.5 2128,-90.5"/>
<text text-anchor="middle" x="2064.5" y="-78.5" font-family="Helvetica,sans-Serif" font-size="10.00">theme/DirektColours.h</text>
</a>
</g>
</g>
<!-- Node1&#45;&gt;Node19 -->
<g id="edge67_Node000001_Node000019" class="edge">
<title>Node1&#45;&gt;Node19</title>
<g id="a_edge67_Node000001_Node000019"><a xlink:title=" ">
<path fill="none" stroke="#63b8ff" d="M1620.74,-261.07C1775.45,-259.39 2071.46,-251.62 2103.5,-217 2134.61,-183.4 2099.14,-126.5 2077.99,-98.53"/>
<polygon fill="#63b8ff" stroke="#63b8ff" points="2080.65,-96.25 2071.73,-90.53 2075.14,-100.56 2080.65,-96.25"/>
</a>
</g>
</g>
<!-- Node20 -->
<g id="Node000020" class="node">
<title>Node20</title>
<g id="a_Node000020"><a xlink:href="DirektLabel_8h.html" target="_top" xlink:title=" ">
<polygon fill="white" stroke="#666666" points="1878.5,-151 1758.5,-151 1758.5,-132 1878.5,-132 1878.5,-151"/>
<text text-anchor="middle" x="1818.5" y="-139" font-family="Helvetica,sans-Serif" font-size="10.00">display/DirektLabel.h</text>
</a>
</g>
</g>
<!-- Node1&#45;&gt;Node20 -->
<g id="edge37_Node000001_Node000020" class="edge">
<title>Node1&#45;&gt;Node20</title>
<g id="a_edge37_Node000001_Node000020"><a xlink:title=" ">
<path fill="none" stroke="#63b8ff" d="M1548.43,-252.94C1599.06,-232.24 1728.37,-179.36 1787.79,-155.06"/>
<polygon fill="#63b8ff" stroke="#63b8ff" points="1789.44,-158.17 1797.37,-151.14 1786.79,-151.69 1789.44,-158.17"/>
</a>
</g>
</g>
<!-- Node21 -->
<g id="Node000021" class="node">
<title>Node21</title>
<g id="a_Node000021"><a xlink:href="DirektMeter_8h.html" target="_top" xlink:title=" ">
<polygon fill="white" stroke="#666666" points="2018.5,-151 1896.5,-151 1896.5,-132 2018.5,-132 2018.5,-151"/>
<text text-anchor="middle" x="1957.5" y="-139" font-family="Helvetica,sans-Serif" font-size="10.00">display/DirektMeter.h</text>
</a>
</g>
</g>
<!-- Node1&#45;&gt;Node21 -->
<g id="edge40_Node000001_Node000021" class="edge">
<title>Node1&#45;&gt;Node21</title>
<g id="a_edge40_Node000001_Node000021"><a xlink:title=" ">
<path fill="none" stroke="#63b8ff" d="M1558.42,-252.94C1634.57,-231.87 1831.14,-177.47 1916.7,-153.79"/>
<polygon fill="#63b8ff" stroke="#63b8ff" points="1917.86,-157.1 1926.57,-151.06 1916,-150.35 1917.86,-157.1"/>
</a>
</g>
</g>
<!-- Node22 -->
<g id="Node000022" class="node">
<title>Node22</title>
<g id="a_Node000022"><a xlink:href="DirektStereoMeter_8h.html" target="_top" xlink:title=" ">
<polygon fill="white" stroke="#666666" points="2094,-211.5 1941,-211.5 1941,-192.5 2094,-192.5 2094,-211.5"/>
<text text-anchor="middle" x="2017.5" y="-199.5" font-family="Helvetica,sans-Serif" font-size="10.00">display/DirektStereoMeter.h</text>
</a>
</g>
</g>
<!-- Node1&#45;&gt;Node22 -->
<g id="edge44_Node000001_Node000022" class="edge">
<title>Node1&#45;&gt;Node22</title>
<g id="a_edge44_Node000001_Node000022"><a xlink:title=" ">
<path fill="none" stroke="#63b8ff" d="M1598.75,-252.99C1688.38,-242.29 1841.95,-223.96 1936.11,-212.72"/>
<polygon fill="#63b8ff" stroke="#63b8ff" points="1936.65,-216.18 1946.16,-211.52 1935.82,-209.23 1936.65,-216.18"/>
</a>
</g>
</g>
<!-- Node23 -->
<g id="Node000023" class="node">
<title>Node23</title>
<g id="a_Node000023"><a xlink:href="DirektFlexContainer_8h.html" target="_top" xlink:title=" ">
<polygon fill="white" stroke="#666666" points="1488,-211.5 1331,-211.5 1331,-192.5 1488,-192.5 1488,-211.5"/>
<text text-anchor="middle" x="1409.5" y="-199.5" font-family="Helvetica,sans-Serif" font-size="10.00">layout/DirektFlexContainer.h</text>
</a>
</g>
</g>
<!-- Node1&#45;&gt;Node23 -->
<g id="edge49_Node000001_Node000023" class="edge">
<title>Node1&#45;&gt;Node23</title>
<g id="a_edge49_Node000001_Node000023"><a xlink:title=" ">
<path fill="none" stroke="#63b8ff" d="M1510.34,-252.99C1490.77,-243.29 1458.53,-227.31 1435.78,-216.03"/>
<polygon fill="#63b8ff" stroke="#63b8ff" points="1437.19,-212.82 1426.68,-211.52 1434.08,-219.09 1437.19,-212.82"/>
</a>
</g>
</g>
<!-- Node24 -->
<g id="Node000024" class="node">
<title>Node24</title>
<g id="a_Node000024"><a xlink:href="DirektModuleBypassSoloStrip_8h.html" target="_top" xlink:title=" ">
<polygon fill="white" stroke="#666666" points="842.5,-217 690.5,-217 690.5,-187 842.5,-187 842.5,-217"/>
<text text-anchor="start" x="698.5" y="-205" font-family="Helvetica,sans-Serif" font-size="10.00">layout/DirektModuleBypass</text>
<text text-anchor="middle" x="766.5" y="-194" font-family="Helvetica,sans-Serif" font-size="10.00">SoloStrip.h</text>
</a>
</g>
</g>
<!-- Node1&#45;&gt;Node24 -->
<g id="edge53_Node000001_Node000024" class="edge">
<title>Node1&#45;&gt;Node24</title>
<g id="a_edge53_Node000001_Node000024"><a xlink:title=" ">
<path fill="none" stroke="#63b8ff" d="M1434.34,-255.24C1314.83,-247.09 1101.14,-232.08 918.5,-217 897.18,-215.24 874.2,-213.2 852.71,-211.23"/>
<polygon fill="#63b8ff" stroke="#63b8ff" points="852.91,-207.73 842.63,-210.3 852.27,-214.7 852.91,-207.73"/>
</a>
</g>
</g>
<!-- Node25 -->
<g id="Node000025" class="node">
<title>Node25</title>
<g id="a_Node000025"><a xlink:href="DirektSection_8h.html" target="_top" xlink:title=" ">
<polygon fill="white" stroke="#666666" points="1590,-151 1465,-151 1465,-132 1590,-132 1590,-151"/>
<text text-anchor="middle" x="1527.5" y="-139" font-family="Helvetica,sans-Serif" font-size="10.00">layout/DirektSection.h</text>
</a>
</g>
</g>
<!-- Node1&#45;&gt;Node25 -->
<g id="edge59_Node000001_Node000025" class="edge">
<title>Node1&#45;&gt;Node25</title>
<g id="a_edge59_Node000001_Node000025"><a xlink:title=" ">
<path fill="none" stroke="#63b8ff" d="M1527.5,-252.94C1527.5,-233.91 1527.5,-187.69 1527.5,-161.47"/>
<polygon fill="#63b8ff" stroke="#63b8ff" points="1531,-161.3 1527.5,-151.3 1524,-161.3 1531,-161.3"/>
</a>
</g>
</g>
<!-- Node26 -->
<g id="Node000026" class="node">
<title>Node26</title>
<g id="a_Node000026"><a xlink:href="DirektTabPanel_8h.html" target="_top" xlink:title=" ">
<polygon fill="white" stroke="#666666" points="1740.5,-151 1608.5,-151 1608.5,-132 1740.5,-132 1740.5,-151"/>
<text text-anchor="middle" x="1674.5" y="-139" font-family="Helvetica,sans-Serif" font-size="10.00">layout/DirektTabPanel.h</text>
</a>
</g>
</g>
<!-- Node1&#45;&gt;Node26 -->
<g id="edge63_Node000001_Node000026" class="edge">
<title>Node1&#45;&gt;Node26</title>
<g id="a_edge63_Node000001_Node000026"><a xlink:title=" ">
<path fill="none" stroke="#63b8ff" d="M1538.07,-252.94C1562.74,-232.97 1624.39,-183.06 1655.67,-157.75"/>
<polygon fill="#63b8ff" stroke="#63b8ff" points="1658.06,-160.31 1663.63,-151.3 1653.65,-154.87 1658.06,-160.31"/>
</a>
</g>
</g>
<!-- Node27 -->
<g id="Node000027" class="node">
<title>Node27</title>
<g id="a_Node000027"><a xlink:href="DirektLookAndFeel_8h.html" target="_top" xlink:title=" ">
<polygon fill="white" stroke="#666666" points="2514.5,-151 2362.5,-151 2362.5,-132 2514.5,-132 2514.5,-151"/>
<text text-anchor="middle" x="2438.5" y="-139" font-family="Helvetica,sans-Serif" font-size="10.00">theme/DirektLookAndFeel.h</text>
</a>
</g>
</g>
<!-- Node1&#45;&gt;Node27 -->
<g id="edge68_Node000001_Node000027" class="edge">
<title>Node1&#45;&gt;Node27</title>
<g id="a_edge68_Node000001_Node000027"><a xlink:title=" ">
<path fill="none" stroke="#63b8ff" d="M1620.75,-261.06C1746.98,-259.1 1978.82,-250.7 2173.5,-217 2258.31,-202.32 2354.94,-171.42 2404.79,-154.39"/>
<polygon fill="#63b8ff" stroke="#63b8ff" points="2406.09,-157.65 2414.41,-151.08 2403.81,-151.03 2406.09,-157.65"/>
</a>
</g>
</g>
<!-- Node3 -->
<g id="Node000003" class="node">
<title>Node3</title>
<g id="a_Node000003"><a xlink:title=" ">
<polygon fill="#e0e0e0" stroke="#999999" points="634,-96 495,-96 495,-66 634,-66 634,-96"/>
<text text-anchor="start" x="503" y="-84" font-family="Helvetica,sans-Serif" font-size="10.00">juce_audio_processors</text>
<text text-anchor="middle" x="564.5" y="-73" font-family="Helvetica,sans-Serif" font-size="10.00">/juce_audio_processors.h</text>
</a>
</g>
</g>
<!-- Node2&#45;&gt;Node3 -->
<g id="edge2_Node000002_Node000003" class="edge">
<title>Node2&#45;&gt;Node3</title>
<g id="a_edge2_Node000002_Node000003"><a xlink:title=" ">
<path fill="none" stroke="#63b8ff" d="M988.82,-195.52C845.79,-186.15 576.62,-166.56 562.5,-151 551.74,-139.15 552.76,-120.88 556.18,-106.11"/>
<polygon fill="#63b8ff" stroke="#63b8ff" points="559.66,-106.7 558.98,-96.13 552.91,-104.81 559.66,-106.7"/>
</a>
</g>
</g>
<!-- Node4 -->
<g id="Node000004" class="node">
<title>Node4</title>
<g id="a_Node000004"><a xlink:title=" ">
<polygon fill="#e0e0e0" stroke="#999999" points="1526.5,-30 1410.5,-30 1410.5,0 1526.5,0 1526.5,-30"/>
<text text-anchor="start" x="1418.5" y="-18" font-family="Helvetica,sans-Serif" font-size="10.00">juce_gui_basics/juce</text>
<text text-anchor="middle" x="1468.5" y="-7" font-family="Helvetica,sans-Serif" font-size="10.00">_gui_basics.h</text>
</a>
</g>
</g>
<!-- Node2&#45;&gt;Node4 -->
<g id="edge3_Node000002_Node000004" class="edge">
<title>Node2&#45;&gt;Node4</title>
<g id="a_edge3_Node000002_Node000004"><a xlink:title=" ">
<path fill="none" stroke="#63b8ff" d="M1010.51,-192.5C938.75,-182.58 832.57,-165.66 820.5,-151 815.13,-144.48 815.87,-139.06 820.5,-132 883.46,-36.02 1246.63,-19.24 1400.08,-16.47"/>
<polygon fill="#63b8ff" stroke="#63b8ff" points="1400.38,-19.96 1410.32,-16.3 1400.26,-12.96 1400.38,-19.96"/>
</a>
</g>
</g>
<!-- Node5 -->
<g id="Node000005" class="node">
<title>Node5</title>
<g id="a_Node000005"><a xlink:title=" ">
<polygon fill="#e0e0e0" stroke="#999999" points="1170,-151 1105,-151 1105,-132 1170,-132 1170,-151"/>
<text text-anchor="middle" x="1137.5" y="-139" font-family="Helvetica,sans-Serif" font-size="10.00">functional</text>
</a>
</g>
</g>
<!-- Node2&#45;&gt;Node5 -->
<g id="edge4_Node000002_Node000005" class="edge">
<title>Node2&#45;&gt;Node5</title>
<g id="a_edge4_Node000002_Node000005"><a xlink:title=" ">
<path fill="none" stroke="#63b8ff" d="M1085.5,-192.37C1094.87,-183.38 1109.75,-169.11 1121.2,-158.14"/>
<polygon fill="#63b8ff" stroke="#63b8ff" points="1123.67,-160.62 1128.46,-151.17 1118.82,-155.56 1123.67,-160.62"/>
</a>
</g>
</g>
<!-- Node6 -->
<g id="Node000006" class="node">
<title>Node6</title>
<g id="a_Node000006"><a xlink:title=" ">
<polygon fill="#e0e0e0" stroke="#999999" points="1019.5,-90.5 981.5,-90.5 981.5,-71.5 1019.5,-71.5 1019.5,-90.5"/>
<text text-anchor="middle" x="1000.5" y="-78.5" font-family="Helvetica,sans-Serif" font-size="10.00">map</text>
</a>
</g>
</g>
<!-- Node2&#45;&gt;Node6 -->
<g id="edge5_Node000002_Node000006" class="edge">
<title>Node2&#45;&gt;Node6</title>
<g id="a_edge5_Node000002_Node000006"><a xlink:title=" ">
<path fill="none" stroke="#63b8ff" d="M1071.03,-192.44C1058.61,-172.98 1028.03,-125.1 1011.51,-99.24"/>
<polygon fill="#63b8ff" stroke="#63b8ff" points="1014.45,-97.35 1006.12,-90.8 1008.55,-101.11 1014.45,-97.35"/>
</a>
</g>
</g>
<!-- Node7 -->
<g id="Node000007" class="node">
<title>Node7</title>
<g id="a_Node000007"><a xlink:title=" ">
<polygon fill="#e0e0e0" stroke="#999999" points="1131.5,-90.5 1073.5,-90.5 1073.5,-71.5 1131.5,-71.5 1131.5,-90.5"/>
<text text-anchor="middle" x="1102.5" y="-78.5" font-family="Helvetica,sans-Serif" font-size="10.00">memory</text>
</a>
</g>
</g>
<!-- Node2&#45;&gt;Node7 -->
<g id="edge6_Node000002_Node000007" class="edge">
<title>Node2&#45;&gt;Node7</title>
<g id="a_edge6_Node000002_Node000007"><a xlink:title=" ">
<path fill="none" stroke="#63b8ff" d="M1078.37,-192.44C1082.55,-173.32 1092.72,-126.77 1098.43,-100.62"/>
<polygon fill="#63b8ff" stroke="#63b8ff" points="1101.86,-101.32 1100.58,-90.8 1095.02,-99.82 1101.86,-101.32"/>
</a>
</g>
</g>
<!-- Node8 -->
<g id="Node000008" class="node">
<title>Node8</title>
<g id="a_Node000008"><a xlink:title=" ">
<polygon fill="#e0e0e0" stroke="#999999" points="1246,-90.5 1199,-90.5 1199,-71.5 1246,-71.5 1246,-90.5"/>
<text text-anchor="middle" x="1222.5" y="-78.5" font-family="Helvetica,sans-Serif" font-size="10.00">vector</text>
</a>
</g>
</g>
<!-- Node2&#45;&gt;Node8 -->
<g id="edge7_Node000002_Node000008" class="edge">
<title>Node2&#45;&gt;Node8</title>
<g id="a_edge7_Node000002_Node000008"><a xlink:title=" ">
<path fill="none" stroke="#63b8ff" d="M1103.9,-192.48C1126.2,-184.5 1157.48,-170.81 1179.5,-151 1195.36,-136.73 1207.48,-115.26 1214.75,-100.07"/>
<polygon fill="#63b8ff" stroke="#63b8ff" points="1218.05,-101.27 1218.99,-90.72 1211.67,-98.38 1218.05,-101.27"/>
</a>
</g>
</g>
<!-- Node9 -->
<g id="Node000009" class="node">
<title>Node9</title>
<g id="a_Node000009"><a xlink:href="DirektDescriptors_8h.html" target="_top" xlink:title=" ">
<polygon fill="white" stroke="#666666" points="1370,-151 1227,-151 1227,-132 1370,-132 1370,-151"/>
<text text-anchor="middle" x="1298.5" y="-139" font-family="Helvetica,sans-Serif" font-size="10.00">config/DirektDescriptors.h</text>
</a>
</g>
</g>
<!-- Node2&#45;&gt;Node9 -->
<g id="edge8_Node000002_Node000009" class="edge">
<title>Node2&#45;&gt;Node9</title>
<g id="a_edge8_Node000002_Node000009"><a xlink:title=" ">
<path fill="none" stroke="#63b8ff" d="M1108.78,-192.49C1147.75,-182.23 1213.38,-164.93 1256.32,-153.62"/>
<polygon fill="#63b8ff" stroke="#63b8ff" points="1257.4,-156.95 1266.18,-151.02 1255.62,-150.18 1257.4,-156.95"/>
</a>
</g>
</g>
<!-- Node11 -->
<g id="Node000011" class="node">
<title>Node11</title>
<g id="a_Node000011"><a xlink:href="DirektBuildContext_8h.html" target="_top" xlink:title=" ">
<polygon fill="white" stroke="#666666" points="972,-151 829,-151 829,-132 972,-132 972,-151"/>
<text text-anchor="middle" x="900.5" y="-139" font-family="Helvetica,sans-Serif" font-size="10.00">core/DirektBuildContext.h</text>
</a>
</g>
</g>
<!-- Node2&#45;&gt;Node11 -->
<g id="edge14_Node000002_Node000011" class="edge">
<title>Node2&#45;&gt;Node11</title>
<g id="a_edge14_Node000002_Node000011"><a xlink:title=" ">
<path fill="none" stroke="#63b8ff" d="M1050.91,-192.49C1020.54,-182.4 969.74,-165.51 935.68,-154.19"/>
<polygon fill="#63b8ff" stroke="#63b8ff" points="936.72,-150.85 926.12,-151.02 934.51,-157.49 936.72,-150.85"/>
</a>
</g>
</g>
<!-- Node9&#45;&gt;Node4 -->
<g id="edge9_Node000009_Node000004" class="edge">
<title>Node9&#45;&gt;Node4</title>
<g id="a_edge9_Node000009_Node000004"><a xlink:title=" ">
<path fill="none" stroke="#63b8ff" d="M1298.32,-131.89C1298.49,-116.59 1301.05,-84.52 1318.5,-66 1339.8,-43.39 1371.58,-31 1400.41,-24.21"/>
<polygon fill="#63b8ff" stroke="#63b8ff" points="1401.43,-27.57 1410.46,-22.04 1399.95,-20.73 1401.43,-27.57"/>
</a>
</g>
</g>
<!-- Node9&#45;&gt;Node6 -->
<g id="edge10_Node000009_Node000006" class="edge">
<title>Node9&#45;&gt;Node6</title>
<g id="a_edge10_Node000009_Node000006"><a xlink:title=" ">
<path fill="none" stroke="#63b8ff" d="M1251.36,-131.93C1204.05,-123.23 1129.12,-109.21 1064.5,-96 1053.02,-93.65 1040.4,-90.93 1029.44,-88.51"/>
<polygon fill="#63b8ff" stroke="#63b8ff" points="1030.04,-85.05 1019.51,-86.3 1028.52,-91.89 1030.04,-85.05"/>
</a>
</g>
</g>
<!-- Node9&#45;&gt;Node7 -->
<g id="edge11_Node000009_Node000007" class="edge">
<title>Node9&#45;&gt;Node7</title>
<g id="a_edge11_Node000009_Node000007"><a xlink:title=" ">
<path fill="none" stroke="#63b8ff" d="M1270,-131.99C1235.89,-121.81 1178.63,-104.72 1140.71,-93.4"/>
<polygon fill="#63b8ff" stroke="#63b8ff" points="1141.62,-90.02 1131.03,-90.52 1139.62,-96.73 1141.62,-90.02"/>
</a>
</g>
</g>
<!-- Node9&#45;&gt;Node8 -->
<g id="edge13_Node000009_Node000008" class="edge">
<title>Node9&#45;&gt;Node8</title>
<g id="a_edge13_Node000009_Node000008"><a xlink:title=" ">
<path fill="none" stroke="#63b8ff" d="M1287.29,-131.87C1275.39,-122.71 1256.36,-108.06 1241.99,-97.01"/>
<polygon fill="#63b8ff" stroke="#63b8ff" points="1243.82,-93.99 1233.76,-90.67 1239.55,-99.54 1243.82,-93.99"/>
</a>
</g>
</g>
<!-- Node10 -->
<g id="Node000010" class="node">
<title>Node10</title>
<g id="a_Node000010"><a xlink:title=" ">
<polygon fill="#e0e0e0" stroke="#999999" points="1378,-90.5 1327,-90.5 1327,-71.5 1378,-71.5 1378,-90.5"/>
<text text-anchor="middle" x="1352.5" y="-78.5" font-family="Helvetica,sans-Serif" font-size="10.00">variant</text>
</a>
</g>
</g>
<!-- Node9&#45;&gt;Node10 -->
<g id="edge12_Node000009_Node000010" class="edge">
<title>Node9&#45;&gt;Node10</title>
<g id="a_edge12_Node000009_Node000010"><a xlink:title=" ">
<path fill="none" stroke="#63b8ff" d="M1306.47,-131.87C1314.6,-123.05 1327.43,-109.16 1337.48,-98.27"/>
<polygon fill="#63b8ff" stroke="#63b8ff" points="1340.29,-100.39 1344.5,-90.67 1335.14,-95.64 1340.29,-100.39"/>
</a>
</g>
</g>
<!-- Node11&#45;&gt;Node3 -->
<g id="edge15_Node000011_Node000003" class="edge">
<title>Node11&#45;&gt;Node3</title>
<g id="a_edge15_Node000011_Node000003"><a xlink:title=" ">
<path fill="none" stroke="#63b8ff" d="M851.64,-131.99C797.31,-122.53 708.72,-107.11 644.29,-95.89"/>
<polygon fill="#63b8ff" stroke="#63b8ff" points="644.62,-92.4 634.16,-94.13 643.41,-99.29 644.62,-92.4"/>
</a>
</g>
</g>
<!-- Node11&#45;&gt;Node6 -->
<g id="edge17_Node000011_Node000006" class="edge">
<title>Node11&#45;&gt;Node6</title>
<g id="a_edge17_Node000011_Node000006"><a xlink:title=" ">
<path fill="none" stroke="#63b8ff" d="M915.26,-131.87C931.5,-122.36 957.85,-106.95 976.96,-95.77"/>
<polygon fill="#63b8ff" stroke="#63b8ff" points="978.82,-98.74 985.68,-90.67 975.29,-92.7 978.82,-98.74"/>
</a>
</g>
</g>
<!-- Node12 -->
<g id="Node000012" class="node">
<title>Node12</title>
<g id="a_Node000012"><a xlink:title=" ">
<polygon fill="#e0e0e0" stroke="#999999" points="1982.5,-90.5 1932.5,-90.5 1932.5,-71.5 1982.5,-71.5 1982.5,-90.5"/>
<text text-anchor="middle" x="1957.5" y="-78.5" font-family="Helvetica,sans-Serif" font-size="10.00">atomic</text>
</a>
</g>
</g>
<!-- Node11&#45;&gt;Node12 -->
<g id="edge16_Node000011_Node000012" class="edge">
<title>Node11&#45;&gt;Node12</title>
<g id="a_edge16_Node000011_Node000012"><a xlink:title=" ">
<path fill="none" stroke="#63b8ff" d="M972.32,-136.53C1179.24,-125.07 1771.48,-92.3 1922.24,-83.95"/>
<polygon fill="#63b8ff" stroke="#63b8ff" points="1922.53,-87.44 1932.33,-83.39 1922.15,-80.45 1922.53,-87.44"/>
</a>
</g>
</g>
<!-- Node13&#45;&gt;Node3 -->
<g id="edge19_Node000013_Node000003" class="edge">
<title>Node13&#45;&gt;Node3</title>
<g id="a_edge19_Node000013_Node000003"><a xlink:title=" ">
<path fill="none" stroke="#63b8ff" d="M146.6,-131.99C236.57,-121.23 391.06,-102.75 484.88,-91.52"/>
<polygon fill="#63b8ff" stroke="#63b8ff" points="485.38,-94.99 494.89,-90.33 484.55,-88.04 485.38,-94.99"/>
</a>
</g>
</g>
<!-- Node13&#45;&gt;Node4 -->
<g id="edge20_Node000013_Node000004" class="edge">
<title>Node13&#45;&gt;Node4</title>
<g id="a_edge20_Node000013_Node000004"><a xlink:title=" ">
<path fill="none" stroke="#63b8ff" d="M93.43,-131.89C128.55,-115.51 209.3,-80.23 281.5,-66 497.89,-23.36 1181.09,-17.07 1400.18,-16.15"/>
<polygon fill="#63b8ff" stroke="#63b8ff" points="1400.27,-19.65 1410.25,-16.11 1400.24,-12.65 1400.27,-19.65"/>
</a>
</g>
</g>
<!-- Node14&#45;&gt;Node3 -->
<g id="edge22_Node000014_Node000003" class="edge">
<title>Node14&#45;&gt;Node3</title>
<g id="a_edge22_Node000014_Node000003"><a xlink:title=" ">
<path fill="none" stroke="#63b8ff" d="M404.69,-131.99C432.07,-123.43 475.09,-109.97 509.6,-99.18"/>
<polygon fill="#63b8ff" stroke="#63b8ff" points="511.04,-102.39 519.54,-96.06 508.95,-95.71 511.04,-102.39"/>
</a>
</g>
</g>
<!-- Node14&#45;&gt;Node4 -->
<g id="edge23_Node000014_Node000004" class="edge">
<title>Node14&#45;&gt;Node4</title>
<g id="a_edge23_Node000014_Node000004"><a xlink:title=" ">
<path fill="none" stroke="#63b8ff" d="M383.17,-131.53C394.19,-115.02 420.26,-80.23 452.5,-66 538.64,-27.99 1186.32,-18.61 1400.19,-16.54"/>
<polygon fill="#63b8ff" stroke="#63b8ff" points="1400.38,-20.04 1410.35,-16.44 1400.32,-13.04 1400.38,-20.04"/>
</a>
</g>
</g>
<!-- Node15 -->
<g id="Node000015" class="node">
<title>Node15</title>
<g id="a_Node000015"><a xlink:title=" ">
<polygon fill="#e0e0e0" stroke="#999999" points="400.5,-90.5 344.5,-90.5 344.5,-71.5 400.5,-71.5 400.5,-90.5"/>
<text text-anchor="middle" x="372.5" y="-78.5" font-family="Helvetica,sans-Serif" font-size="10.00">optional</text>
</a>
</g>
</g>
<!-- Node14&#45;&gt;Node15 -->
<g id="edge24_Node000014_Node000015" class="edge">
<title>Node14&#45;&gt;Node15</title>
<g id="a_edge24_Node000014_Node000015"><a xlink:title=" ">
<path fill="none" stroke="#63b8ff" d="M376.76,-131.87C376.07,-123.75 375,-111.31 374.11,-100.89"/>
<polygon fill="#63b8ff" stroke="#63b8ff" points="377.58,-100.33 373.24,-90.67 370.61,-100.93 377.58,-100.33"/>
</a>
</g>
</g>
<!-- Node16&#45;&gt;Node3 -->
<g id="edge26_Node000016_Node000003" class="edge">
<title>Node16&#45;&gt;Node3</title>
<g id="a_edge26_Node000016_Node000003"><a xlink:title=" ">
<path fill="none" stroke="#63b8ff" d="M639.52,-131.87C627.69,-124 609.77,-112.09 594.41,-101.89"/>
<polygon fill="#63b8ff" stroke="#63b8ff" points="596,-98.74 585.73,-96.11 592.12,-104.57 596,-98.74"/>
</a>
</g>
</g>
<!-- Node16&#45;&gt;Node4 -->
<g id="edge27_Node000016_Node000004" class="edge">
<title>Node16&#45;&gt;Node4</title>
<g id="a_edge27_Node000016_Node000004"><a xlink:title=" ">
<path fill="none" stroke="#63b8ff" d="M660.4,-131.57C675.58,-115.13 710.66,-80.45 748.5,-66 866.29,-21.04 1243.85,-15.87 1399.96,-15.71"/>
<polygon fill="#63b8ff" stroke="#63b8ff" points="1400.36,-19.21 1410.36,-15.71 1400.36,-12.21 1400.36,-19.21"/>
</a>
</g>
</g>
<!-- Node16&#45;&gt;Node8 -->
<g id="edge28_Node000016_Node000008" class="edge">
<title>Node16&#45;&gt;Node8</title>
<g id="a_edge28_Node000016_Node000008"><a xlink:title=" ">
<path fill="none" stroke="#63b8ff" d="M734.31,-135C831.42,-128.02 998.15,-114.61 1140.5,-96 1156.4,-93.92 1173.94,-91.01 1188.7,-88.38"/>
<polygon fill="#63b8ff" stroke="#63b8ff" points="1189.68,-91.76 1198.89,-86.53 1188.43,-84.87 1189.68,-91.76"/>
</a>
</g>
</g>
<!-- Node17&#45;&gt;Node3 -->
<g id="edge30_Node000017_Node000003" class="edge">
<title>Node17&#45;&gt;Node3</title>
<g id="a_edge30_Node000017_Node000003"><a xlink:title=" ">
<path fill="none" stroke="#63b8ff" d="M281.63,-131.99C334.9,-122.58 421.6,-107.26 484.99,-96.05"/>
<polygon fill="#63b8ff" stroke="#63b8ff" points="485.72,-99.48 494.96,-94.29 484.5,-92.58 485.72,-99.48"/>
</a>
</g>
</g>
<!-- Node17&#45;&gt;Node4 -->
<g id="edge31_Node000017_Node000004" class="edge">
<title>Node17&#45;&gt;Node4</title>
<g id="a_edge31_Node000017_Node000004"><a xlink:title=" ">
<path fill="none" stroke="#63b8ff" d="M241.49,-131.99C257.48,-115.61 295.36,-80.09 335.5,-66 435.62,-30.87 1170.46,-19.45 1400.11,-16.72"/>
<polygon fill="#63b8ff" stroke="#63b8ff" points="1400.38,-20.22 1410.34,-16.6 1400.3,-13.22 1400.38,-20.22"/>
</a>
</g>
</g>
<!-- Node18&#45;&gt;Node4 -->
<g id="edge33_Node000018_Node000004" class="edge">
<title>Node18&#45;&gt;Node4</title>
<g id="a_edge33_Node000018_Node000004"><a xlink:title=" ">
<path fill="none" stroke="#63b8ff" d="M2221.11,-131.59C2206.89,-115.18 2173.9,-80.55 2137.5,-66 2029.84,-22.96 1684.99,-16.62 1537.01,-15.93"/>
<polygon fill="#63b8ff" stroke="#63b8ff" points="1536.71,-12.43 1526.7,-15.89 1536.69,-19.43 1536.71,-12.43"/>
</a>
</g>
</g>
<!-- Node18&#45;&gt;Node12 -->
<g id="edge34_Node000018_Node000012" class="edge">
<title>Node18&#45;&gt;Node12</title>
<g id="a_edge34_Node000018_Node000012"><a xlink:title=" ">
<path fill="none" stroke="#63b8ff" d="M2165.11,-131.97C2117.14,-124.69 2049.94,-112.73 1992.5,-96 1990.57,-95.44 1988.59,-94.81 1986.62,-94.14"/>
<polygon fill="#63b8ff" stroke="#63b8ff" points="1987.48,-90.72 1976.89,-90.53 1985.05,-97.29 1987.48,-90.72"/>
</a>
</g>
</g>
<!-- Node18&#45;&gt;Node19 -->
<g id="edge35_Node000018_Node000019" class="edge">
<title>Node18&#45;&gt;Node19</title>
<g id="a_edge35_Node000018_Node000019"><a xlink:title=" ">
<path fill="none" stroke="#63b8ff" d="M2204.65,-131.99C2176.6,-121.99 2129.83,-105.3 2098.1,-93.99"/>
<polygon fill="#63b8ff" stroke="#63b8ff" points="2098.97,-90.58 2088.38,-90.52 2096.62,-97.17 2098.97,-90.58"/>
</a>
</g>
</g>
<!-- Node19&#45;&gt;Node4 -->
<g id="edge36_Node000019_Node000004" class="edge">
<title>Node19&#45;&gt;Node4</title>
<g id="a_edge36_Node000019_Node000004"><a xlink:title=" ">
<path fill="none" stroke="#63b8ff" d="M2023.69,-71.47C2013.23,-69.48 2001.97,-67.5 1991.5,-66 1829.14,-42.72 1636.82,-27.48 1536.74,-20.46"/>
<polygon fill="#63b8ff" stroke="#63b8ff" points="1536.98,-16.97 1526.76,-19.77 1536.49,-23.96 1536.98,-16.97"/>
</a>
</g>
</g>
<!-- Node20&#45;&gt;Node4 -->
<g id="edge38_Node000020_Node000004" class="edge">
<title>Node20&#45;&gt;Node4</title>
<g id="a_edge38_Node000020_Node000004"><a xlink:title=" ">
<path fill="none" stroke="#63b8ff" d="M1794.44,-131.94C1737.61,-111.73 1594.11,-60.68 1517.87,-33.56"/>
<polygon fill="#63b8ff" stroke="#63b8ff" points="1518.62,-30.11 1508.02,-30.06 1516.27,-36.71 1518.62,-30.11"/>
</a>
</g>
</g>
<!-- Node20&#45;&gt;Node19 -->
<g id="edge39_Node000020_Node000019" class="edge">
<title>Node20&#45;&gt;Node19</title>
<g id="a_edge39_Node000020_Node000019"><a xlink:title=" ">
<path fill="none" stroke="#63b8ff" d="M1854.27,-131.99C1897.81,-121.64 1971.4,-104.14 2018.95,-92.83"/>
<polygon fill="#63b8ff" stroke="#63b8ff" points="2019.77,-96.24 2028.69,-90.52 2018.15,-89.43 2019.77,-96.24"/>
</a>
</g>
</g>
<!-- Node21&#45;&gt;Node4 -->
<g id="edge41_Node000021_Node000004" class="edge">
<title>Node21&#45;&gt;Node4</title>
<g id="a_edge41_Node000021_Node000004"><a xlink:title=" ">
<path fill="none" stroke="#63b8ff" d="M1923.89,-131.94C1843.51,-111.48 1639.06,-59.43 1533.61,-32.58"/>
<polygon fill="#63b8ff" stroke="#63b8ff" points="1534.27,-29.13 1523.72,-30.06 1532.55,-35.92 1534.27,-29.13"/>
</a>
</g>
</g>
<!-- Node21&#45;&gt;Node12 -->
<g id="edge42_Node000021_Node000012" class="edge">
<title>Node21&#45;&gt;Node12</title>
<g id="a_edge42_Node000021_Node000012"><a xlink:title=" ">
<path fill="none" stroke="#63b8ff" d="M1957.5,-131.87C1957.5,-123.75 1957.5,-111.31 1957.5,-100.89"/>
<polygon fill="#63b8ff" stroke="#63b8ff" points="1961,-100.67 1957.5,-90.67 1954,-100.67 1961,-100.67"/>
</a>
</g>
</g>
<!-- Node21&#45;&gt;Node19 -->
<g id="edge43_Node000021_Node000019" class="edge">
<title>Node21&#45;&gt;Node19</title>
<g id="a_edge43_Node000021_Node000019"><a xlink:title=" ">
<path fill="none" stroke="#63b8ff" d="M1973.29,-131.87C1990.83,-122.28 2019.38,-106.67 2039.87,-95.47"/>
<polygon fill="#63b8ff" stroke="#63b8ff" points="2041.55,-98.54 2048.65,-90.67 2038.19,-92.39 2041.55,-98.54"/>
</a>
</g>
</g>
<!-- Node22&#45;&gt;Node4 -->
<g id="edge45_Node000022_Node000004" class="edge">
<title>Node22&#45;&gt;Node4</title>
<g id="a_edge45_Node000022_Node000004"><a xlink:title=" ">
<path fill="none" stroke="#63b8ff" d="M2094.26,-193.26C2177.75,-184.05 2301.29,-167.79 2315.5,-151 2320.95,-144.55 2320.04,-139.12 2315.5,-132 2278.07,-73.33 2240.88,-83.42 2173.5,-66 2054.39,-35.21 1689.34,-21.98 1536.71,-17.69"/>
<polygon fill="#63b8ff" stroke="#63b8ff" points="1536.62,-14.19 1526.53,-17.41 1536.43,-21.18 1536.62,-14.19"/>
</a>
</g>
</g>
<!-- Node22&#45;&gt;Node12 -->
<g id="edge46_Node000022_Node000012" class="edge">
<title>Node22&#45;&gt;Node12</title>
<g id="a_edge46_Node000022_Node000012"><a xlink:title=" ">
<path fill="none" stroke="#63b8ff" d="M2021.85,-192.4C2028.07,-178.78 2037.69,-151.8 2027.5,-132 2019.07,-115.61 2002.5,-103.41 1987.6,-95.16"/>
<polygon fill="#63b8ff" stroke="#63b8ff" points="1989.12,-92 1978.63,-90.53 1985.91,-98.23 1989.12,-92"/>
</a>
</g>
</g>
<!-- Node22&#45;&gt;Node19 -->
<g id="edge48_Node000022_Node000019" class="edge">
<title>Node22&#45;&gt;Node19</title>
<g id="a_edge48_Node000022_Node000019"><a xlink:title=" ">
<path fill="none" stroke="#63b8ff" d="M2028.21,-192.34C2038.55,-183.27 2053.64,-167.98 2060.5,-151 2066.96,-135.02 2067.43,-115.26 2066.6,-100.98"/>
<polygon fill="#63b8ff" stroke="#63b8ff" points="2070.07,-100.56 2065.74,-90.89 2063.1,-101.15 2070.07,-100.56"/>
</a>
</g>
</g>
<!-- Node22&#45;&gt;Node21 -->
<g id="edge47_Node000022_Node000021" class="edge">
<title>Node22&#45;&gt;Node21</title>
<g id="a_edge47_Node000022_Node000021"><a xlink:title=" ">
<path fill="none" stroke="#63b8ff" d="M2008.65,-192.37C1999.52,-183.47 1985.08,-169.39 1973.86,-158.45"/>
<polygon fill="#63b8ff" stroke="#63b8ff" points="1975.99,-155.64 1966.39,-151.17 1971.11,-160.65 1975.99,-155.64"/>
</a>
</g>
</g>
<!-- Node23&#45;&gt;Node4 -->
<g id="edge50_Node000023_Node000004" class="edge">
<title>Node23&#45;&gt;Node4</title>
<g id="a_edge50_Node000023_Node000004"><a xlink:title=" ">
<path fill="none" stroke="#63b8ff" d="M1412.35,-192.08C1421.09,-164.66 1447.76,-81.03 1460.95,-39.67"/>
<polygon fill="#63b8ff" stroke="#63b8ff" points="1464.29,-40.71 1464,-30.12 1457.62,-38.59 1464.29,-40.71"/>
</a>
</g>
</g>
<!-- Node23&#45;&gt;Node8 -->
<g id="edge51_Node000023_Node000008" class="edge">
<title>Node23&#45;&gt;Node8</title>
<g id="a_edge51_Node000023_Node000008"><a xlink:title=" ">
<path fill="none" stroke="#63b8ff" d="M1408.13,-192.46C1405.36,-177.96 1397.73,-148.46 1379.5,-132 1345.06,-100.9 1291.23,-89.14 1256.41,-84.69"/>
<polygon fill="#63b8ff" stroke="#63b8ff" points="1256.58,-81.19 1246.25,-83.54 1255.79,-88.15 1256.58,-81.19"/>
</a>
</g>
</g>
<!-- Node23&#45;&gt;Node9 -->
<g id="edge52_Node000023_Node000009" class="edge">
<title>Node23&#45;&gt;Node9</title>
<g id="a_edge52_Node000023_Node000009"><a xlink:title=" ">
<path fill="none" stroke="#63b8ff" d="M1393.12,-192.37C1374.92,-182.78 1345.3,-167.17 1324.05,-155.97"/>
<polygon fill="#63b8ff" stroke="#63b8ff" points="1325.42,-152.73 1314.95,-151.17 1322.16,-158.93 1325.42,-152.73"/>
</a>
</g>
</g>
<!-- Node24&#45;&gt;Node3 -->
<g id="edge54_Node000024_Node000003" class="edge">
<title>Node24&#45;&gt;Node3</title>
<g id="a_edge54_Node000024_Node000003"><a xlink:title=" ">
<path fill="none" stroke="#63b8ff" d="M690.28,-195.25C628.57,-188.83 548.69,-175.87 528.5,-151 516.86,-136.66 527.91,-117.96 540.74,-103.65"/>
<polygon fill="#63b8ff" stroke="#63b8ff" points="543.5,-105.83 547.92,-96.2 538.46,-100.97 543.5,-105.83"/>
</a>
</g>
</g>
<!-- Node24&#45;&gt;Node4 -->
<g id="edge55_Node000024_Node000004" class="edge">
<title>Node24&#45;&gt;Node4</title>
<g id="a_edge55_Node000024_Node000004"><a xlink:title=" ">
<path fill="none" stroke="#63b8ff" d="M690.47,-192.41C628.37,-184.17 546.61,-170.15 519.5,-151 486.4,-127.62 458.58,-95.38 486.5,-66 517.95,-32.9 1182.9,-20.2 1400.35,-16.92"/>
<polygon fill="#63b8ff" stroke="#63b8ff" points="1400.42,-20.42 1410.36,-16.78 1400.31,-13.42 1400.42,-20.42"/>
</a>
</g>
</g>
<!-- Node24&#45;&gt;Node7 -->
<g id="edge56_Node000024_Node000007" class="edge">
<title>Node24&#45;&gt;Node7</title>
<g id="a_edge56_Node000024_Node000007"><a xlink:title=" ">
<path fill="none" stroke="#63b8ff" d="M773.48,-186.8C782.17,-170.73 798.57,-145.12 820.5,-132 901.01,-83.84 936.18,-112.72 1028.5,-96 1039.83,-93.95 1052.12,-91.65 1063.37,-89.52"/>
<polygon fill="#63b8ff" stroke="#63b8ff" points="1064.18,-92.93 1073.35,-87.62 1062.87,-86.05 1064.18,-92.93"/>
</a>
</g>
</g>
<!-- Node24&#45;&gt;Node8 -->
<g id="edge57_Node000024_Node000008" class="edge">
<title>Node24&#45;&gt;Node8</title>
<g id="a_edge57_Node000024_Node000008"><a xlink:title=" ">
<path fill="none" stroke="#63b8ff" d="M830.68,-186.96C873.52,-177.37 931.05,-164.08 981.5,-151 1055.92,-131.71 1142.38,-106.19 1188.83,-92.22"/>
<polygon fill="#63b8ff" stroke="#63b8ff" points="1190.1,-95.49 1198.66,-89.26 1188.08,-88.79 1190.1,-95.49"/>
</a>
</g>
</g>
<!-- Node24&#45;&gt;Node17 -->
<g id="edge58_Node000024_Node000017" class="edge">
<title>Node24&#45;&gt;Node17</title>
<g id="a_edge58_Node000024_Node000017"><a xlink:title=" ">
<path fill="none" stroke="#63b8ff" d="M690.14,-192.82C601.18,-183.26 449.45,-166.86 308.22,-151.07"/>
<polygon fill="#63b8ff" stroke="#63b8ff" points="308.4,-147.57 298.07,-149.94 307.62,-154.53 308.4,-147.57"/>
</a>
</g>
</g>
<!-- Node25&#45;&gt;Node4 -->
<g id="edge60_Node000025_Node000004" class="edge">
<title>Node25&#45;&gt;Node4</title>
<g id="a_edge60_Node000025_Node000004"><a xlink:title=" ">
<path fill="none" stroke="#63b8ff" d="M1523.44,-131.94C1514.5,-113.07 1492.83,-67.34 1479.53,-39.28"/>
<polygon fill="#63b8ff" stroke="#63b8ff" points="1482.66,-37.7 1475.21,-30.16 1476.33,-40.7 1482.66,-37.7"/>
</a>
</g>
</g>
<!-- Node25&#45;&gt;Node7 -->
<g id="edge61_Node000025_Node000007" class="edge">
<title>Node25&#45;&gt;Node7</title>
<g id="a_edge61_Node000025_Node000007"><a xlink:title=" ">
<path fill="none" stroke="#63b8ff" d="M1464.7,-132.71C1396.96,-124.19 1285.98,-109.9 1190.5,-96 1174.58,-93.68 1157.07,-90.94 1141.89,-88.49"/>
<polygon fill="#63b8ff" stroke="#63b8ff" points="1142.23,-85.01 1131.8,-86.86 1141.12,-91.91 1142.23,-85.01"/>
</a>
</g>
</g>
<!-- Node25&#45;&gt;Node19 -->
<g id="edge62_Node000025_Node000019" class="edge">
<title>Node25&#45;&gt;Node19</title>
<g id="a_edge62_Node000025_Node000019"><a xlink:title=" ">
<path fill="none" stroke="#63b8ff" d="M1590.32,-132.99C1593.42,-132.65 1596.5,-132.32 1599.5,-132 1773.5,-113.74 1818.27,-120.51 1991.5,-96 1998.7,-94.98 2006.27,-93.73 2013.7,-92.4"/>
<polygon fill="#63b8ff" stroke="#63b8ff" points="2014.49,-95.82 2023.69,-90.56 2013.22,-88.93 2014.49,-95.82"/>
</a>
</g>
</g>
<!-- Node26&#45;&gt;Node4 -->
<g id="edge64_Node000026_Node000004" class="edge">
<title>Node26&#45;&gt;Node4</title>
<g id="a_edge64_Node000026_Node000004"><a xlink:title=" ">
<path fill="none" stroke="#63b8ff" d="M1660.34,-131.94C1627.62,-112.17 1546.07,-62.88 1500.53,-35.36"/>
<polygon fill="#63b8ff" stroke="#63b8ff" points="1502.3,-32.34 1491.93,-30.16 1498.68,-38.33 1502.3,-32.34"/>
</a>
</g>
</g>
<!-- Node26&#45;&gt;Node8 -->
<g id="edge65_Node000026_Node000008" class="edge">
<title>Node26&#45;&gt;Node8</title>
<g id="a_edge65_Node000026_Node000008"><a xlink:title=" ">
<path fill="none" stroke="#63b8ff" d="M1608.18,-132.62C1536.64,-124.03 1419.42,-109.66 1318.5,-96 1297.75,-93.19 1274.52,-89.81 1256.11,-87.07"/>
<polygon fill="#63b8ff" stroke="#63b8ff" points="1256.56,-83.6 1246.15,-85.59 1255.53,-90.52 1256.56,-83.6"/>
</a>
</g>
</g>
<!-- Node26&#45;&gt;Node19 -->
<g id="edge66_Node000026_Node000019" class="edge">
<title>Node26&#45;&gt;Node19</title>
<g id="a_edge66_Node000026_Node000019"><a xlink:title=" ">
<path fill="none" stroke="#63b8ff" d="M1740.52,-132.21C1804.75,-123.92 1905.01,-110.35 1991.5,-96 1998.17,-94.89 2005.17,-93.65 2012.08,-92.38"/>
<polygon fill="#63b8ff" stroke="#63b8ff" points="2012.92,-95.78 2022.1,-90.5 2011.63,-88.9 2012.92,-95.78"/>
</a>
</g>
</g>
<!-- Node27&#45;&gt;Node4 -->
<g id="edge69_Node000027_Node000004" class="edge">
<title>Node27&#45;&gt;Node4</title>
<g id="a_edge69_Node000027_Node000004"><a xlink:title=" ">
<path fill="none" stroke="#63b8ff" d="M2431.23,-131.53C2417.25,-115.02 2384.75,-80.23 2348.5,-66 2273.77,-36.66 1730.14,-21.82 1536.64,-17.43"/>
<polygon fill="#63b8ff" stroke="#63b8ff" points="1536.68,-13.93 1526.6,-17.2 1536.52,-20.93 1536.68,-13.93"/>
</a>
</g>
</g>
<!-- Node27&#45;&gt;Node19 -->
<g id="edge70_Node000027_Node000019" class="edge">
<title>Node27&#45;&gt;Node19</title>
<g id="a_edge70_Node000027_Node000019"><a xlink:title=" ">
<path fill="none" stroke="#63b8ff" d="M2384.12,-131.99C2316.53,-121.42 2201.33,-103.4 2129.26,-92.13"/>
<polygon fill="#63b8ff" stroke="#63b8ff" points="2129.37,-88.6 2118.95,-90.52 2128.29,-95.52 2129.37,-88.6"/>
</a>
</g>
</g>
</g>
</svg>
