<?xml version="1.0" encoding="UTF-8" standalone="no"?>
<!DOCTYPE svg PUBLIC "-//W3C//DTD SVG 1.1//EN"
 "http://www.w3.org/Graphics/SVG/1.1/DTD/svg11.dtd">
<!-- Generated by graphviz version 2.43.0 (0)
 -->
<!-- Title: display/DirektLabel.h Pages: 1 -->
<svg width="178pt" height="148pt"
 viewBox="0.00 0.00 177.50 148.00" xmlns="http://www.w3.org/2000/svg" xmlns:xlink="http://www.w3.org/1999/xlink">
<g id="graph0" class="graph" transform="scale(1 1) rotate(0) translate(4 144)">
<title>display/DirektLabel.h</title>
<!-- Node1 -->
<g id="Node000001" class="node">
<title>Node1</title>
<g id="a_Node000001"><a xlink:title=" ">
<polygon fill="#999999" stroke="#666666" points="120,-140 0,-140 0,-121 120,-121 120,-140"/>
<text text-anchor="middle" x="60" y="-128" font-family="Helvetica,sans-Serif" font-size="10.00">display/DirektLabel.h</text>
</a>
</g>
</g>
<!-- Node2 -->
<g id="Node000002" class="node">
<title>Node2</title>
<g id="a_Node000002"><a xlink:title=" ">
<polygon fill="#e0e0e0" stroke="#999999" points="118,-30 2,-30 2,0 118,0 118,-30"/>
<text text-anchor="start" x="10" y="-18" font-family="Helvetica,sans-Serif" font-size="10.00">juce_gui_basics/juce</text>
<text text-anchor="middle" x="60" y="-7" font-family="Helvetica,sans-Serif" font-size="10.00">_gui_basics.h</text>
</a>
</g>
</g>
<!-- Node1&#45;&gt;Node2 -->
<g id="edge1_Node000001_Node000002" class="edge">
<title>Node1&#45;&gt;Node2</title>
<g id="a_edge1_Node000001_Node000002"><a xlink:title=" ">
<path fill="none" stroke="#63b8ff" d="M52.85,-120.97C46.23,-112.48 36.85,-98.75 33,-85 28.58,-69.2 35.27,-52.01 43.09,-38.74"/>
<polygon fill="#63b8ff" stroke="#63b8ff" points="46.09,-40.55 48.57,-30.25 40.21,-36.76 46.09,-40.55"/>
</a>
</g>
</g>
<!-- Node3 -->
<g id="Node000003" class="node">
<title>Node3</title>
<g id="a_Node000003"><a xlink:href="DirektColours_8h.html" target="_top" xlink:title=" ">
<polygon fill="white" stroke="#666666" points="169.5,-85 42.5,-85 42.5,-66 169.5,-66 169.5,-85"/>
<text text-anchor="middle" x="106" y="-73" font-family="Helvetica,sans-Serif" font-size="10.00">theme/DirektColours.h</text>
</a>
</g>
</g>
<!-- Node1&#45;&gt;Node3 -->
<g id="edge2_Node000001_Node000003" class="edge">
<title>Node1&#45;&gt;Node3</title>
<g id="a_edge2_Node000001_Node000003"><a xlink:title=" ">
<path fill="none" stroke="#63b8ff" d="M67.6,-120.75C74.16,-113.18 83.82,-102.05 91.81,-92.84"/>
<polygon fill="#63b8ff" stroke="#63b8ff" points="94.63,-94.94 98.55,-85.09 89.35,-90.35 94.63,-94.94"/>
</a>
</g>
</g>
<!-- Node3&#45;&gt;Node2 -->
<g id="edge3_Node000003_Node000002" class="edge">
<title>Node3&#45;&gt;Node2</title>
<g id="a_edge3_Node000003_Node000002"><a xlink:title=" ">
<path fill="none" stroke="#63b8ff" d="M99.21,-65.87C93.49,-58.59 85.05,-47.85 77.46,-38.2"/>
<polygon fill="#63b8ff" stroke="#63b8ff" points="80.03,-35.81 71.1,-30.11 74.53,-40.14 80.03,-35.81"/>
</a>
</g>
</g>
</g>
</svg>
