<?xml version="1.0" encoding="UTF-8" standalone="no"?>
<!DOCTYPE svg PUBLIC "-//W3C//DTD SVG 1.1//EN"
 "http://www.w3.org/Graphics/SVG/1.1/DTD/svg11.dtd">
<!-- Generated by graphviz version 2.43.0 (0)
 -->
<!-- Title: chrome/DirektPresetBrowser.h Pages: 1 -->
<svg width="337pt" height="148pt"
 viewBox="0.00 0.00 336.83 148.00" xmlns="http://www.w3.org/2000/svg" xmlns:xlink="http://www.w3.org/1999/xlink">
<g id="graph0" class="graph" transform="scale(1 1) rotate(0) translate(4 144)">
<title>chrome/DirektPresetBrowser.h</title>
<!-- Node1 -->
<g id="Node000001" class="node">
<title>Node1</title>
<g id="a_Node000001"><a xlink:title=" ">
<polygon fill="#999999" stroke="#666666" points="175.83,-140 10.83,-140 10.83,-121 175.83,-121 175.83,-140"/>
<text text-anchor="middle" x="93.33" y="-128" font-family="Helvetica,sans-Serif" font-size="10.00">chrome/DirektPresetBrowser.h</text>
</a>
</g>
</g>
<!-- Node2 -->
<g id="Node000002" class="node">
<title>Node2</title>
<g id="a_Node000002"><a xlink:title=" ">
<polygon fill="#e0e0e0" stroke="#999999" points="183.33,-30 67.33,-30 67.33,0 183.33,0 183.33,-30"/>
<text text-anchor="start" x="75.33" y="-18" font-family="Helvetica,sans-Serif" font-size="10.00">juce_gui_basics/juce</text>
<text text-anchor="middle" x="125.33" y="-7" font-family="Helvetica,sans-Serif" font-size="10.00">_gui_basics.h</text>
</a>
</g>
</g>
<!-- Node1&#45;&gt;Node2 -->
<g id="edge1_Node000001_Node000002" class="edge">
<title>Node1&#45;&gt;Node2</title>
<g id="a_edge1_Node000001_Node000002"><a xlink:title=" ">
<path fill="none" stroke="#63b8ff" d="M60.7,-120.91C28.67,-110.77 -13.02,-91.95 4.33,-66 16.61,-47.65 36.98,-36.03 57.55,-28.67"/>
<polygon fill="#63b8ff" stroke="#63b8ff" points="58.88,-31.91 67.3,-25.48 56.71,-25.26 58.88,-31.91"/>
</a>
</g>
</g>
<!-- Node3 -->
<g id="Node000003" class="node">
<title>Node3</title>
<g id="a_Node000003"><a xlink:title=" ">
<polygon fill="#e0e0e0" stroke="#999999" points="78.83,-85 13.83,-85 13.83,-66 78.83,-66 78.83,-85"/>
<text text-anchor="middle" x="46.33" y="-73" font-family="Helvetica,sans-Serif" font-size="10.00">functional</text>
</a>
</g>
</g>
<!-- Node1&#45;&gt;Node3 -->
<g id="edge2_Node000001_Node000003" class="edge">
<title>Node1&#45;&gt;Node3</title>
<g id="a_edge2_Node000001_Node000003"><a xlink:title=" ">
<path fill="none" stroke="#63b8ff" d="M85.57,-120.75C78.87,-113.18 68.99,-102.05 60.83,-92.84"/>
<polygon fill="#63b8ff" stroke="#63b8ff" points="63.2,-90.25 53.95,-85.09 57.97,-94.89 63.2,-90.25"/>
</a>
</g>
</g>
<!-- Node4 -->
<g id="Node000004" class="node">
<title>Node4</title>
<g id="a_Node000004"><a xlink:title=" ">
<polygon fill="#e0e0e0" stroke="#999999" points="183.33,-85 97.33,-85 97.33,-66 183.33,-66 183.33,-85"/>
<text text-anchor="middle" x="140.33" y="-73" font-family="Helvetica,sans-Serif" font-size="10.00">unordered_set</text>
</a>
</g>
</g>
<!-- Node1&#45;&gt;Node4 -->
<g id="edge3_Node000001_Node000004" class="edge">
<title>Node1&#45;&gt;Node4</title>
<g id="a_edge3_Node000001_Node000004"><a xlink:title=" ">
<path fill="none" stroke="#63b8ff" d="M101.09,-120.75C107.8,-113.18 117.68,-102.05 125.84,-92.84"/>
<polygon fill="#63b8ff" stroke="#63b8ff" points="128.7,-94.89 132.72,-85.09 123.46,-90.25 128.7,-94.89"/>
</a>
</g>
</g>
<!-- Node5 -->
<g id="Node000005" class="node">
<title>Node5</title>
<g id="a_Node000005"><a xlink:href="DirektColours_8h.html" target="_top" xlink:title=" ">
<polygon fill="white" stroke="#666666" points="328.83,-85 201.83,-85 201.83,-66 328.83,-66 328.83,-85"/>
<text text-anchor="middle" x="265.33" y="-73" font-family="Helvetica,sans-Serif" font-size="10.00">theme/DirektColours.h</text>
</a>
</g>
</g>
<!-- Node1&#45;&gt;Node5 -->
<g id="edge4_Node000001_Node000005" class="edge">
<title>Node1&#45;&gt;Node5</title>
<g id="a_edge4_Node000001_Node000005"><a xlink:title=" ">
<path fill="none" stroke="#63b8ff" d="M120.97,-120.98C149.85,-112.09 195.35,-98.07 227.54,-88.15"/>
<polygon fill="#63b8ff" stroke="#63b8ff" points="228.96,-91.37 237.48,-85.08 226.9,-84.68 228.96,-91.37"/>
</a>
</g>
</g>
<!-- Node5&#45;&gt;Node2 -->
<g id="edge5_Node000005_Node000002" class="edge">
<title>Node5&#45;&gt;Node2</title>
<g id="a_edge5_Node000005_Node000002"><a xlink:title=" ">
<path fill="none" stroke="#63b8ff" d="M244.98,-65.99C225,-57.65 193.92,-44.66 168.45,-34.02"/>
<polygon fill="#63b8ff" stroke="#63b8ff" points="169.57,-30.69 158.99,-30.06 166.87,-37.15 169.57,-30.69"/>
</a>
</g>
</g>
</g>
</svg>
