<?xml version="1.0" encoding="UTF-8" standalone="no"?>
<!DOCTYPE svg PUBLIC "-//W3C//DTD SVG 1.1//EN"
 "http://www.w3.org/Graphics/SVG/1.1/DTD/svg11.dtd">
<!-- Generated by graphviz version 2.43.0 (0)
 -->
<!-- Title: theme/DirektColours.h Pages: 1 -->
<!--zoomable 247 -->

<svg id="main" version="1.1" xmlns="http://www.w3.org/2000/svg" xmlns:xlink="http://www.w3.org/1999/xlink" xml:space="preserve" onload="init(evt)">
<style type="text/css"><![CDATA[
.node, .edge {opacity: 0.7;}
.node.selected, .edge.selected {opacity: 1;}
.edge:hover path { stroke: red; }
.edge:hover polygon { stroke: red; fill: red; }
]]></style>

<defs>
  <circle id="rim" cx="0" cy="0" r="7"/>
  <circle id="rim2" cx="0" cy="0" r="3.5"/>
  <g id="zoomPlus">
    <use xlink:href="#rim" fill="#404040"><set attributeName="fill" to="#808080" begin="zoomplus.mouseover" end="zoomplus.mouseout"/></use>
    <path d="M-4,0h8M0,-4v8" fill="none" stroke="white" stroke-width="1.5" pointer-events="none"/>
  </g>
  <g id="zoomMin">
    <use xlink:href="#rim" fill="#404040"><set attributeName="fill" to="#808080" begin="zoomminus.mouseover" end="zoomminus.mouseout"/></use>
    <path d="M-4,0h8" fill="none" stroke="white" stroke-width="1.5" pointer-events="none"/>
  </g>
  <g id="arrowUp" transform="translate(30 24)">
    <use xlink:href="#rim"/>
    <path pointer-events="none" fill="none" stroke="white" stroke-width="1.5" d="M0,-3.0v7 M-2.5,-0.5L0,-3.0L2.5,-0.5"/>
  </g>
  <g id="arrowRight" transform="rotate(90) translate(36 -43)">
    <use xlink:href="#rim"/>
    <path pointer-events="none" fill="none" stroke="white" stroke-width="1.5" d="M0,-3.0v7 M-2.5,-0.5L0,-3.0L2.5,-0.5"/>
  </g>
  <g id="arrowDown" transform="rotate(180) translate(-30 -48)">
    <use xlink:href="#rim"/>
    <path pointer-events="none" fill="none" stroke="white" stroke-width="1.5" d="M0,-3.0v7 M-2.5,-0.5L0,-3.0L2.5,-0.5"/>
  </g>
  <g id="arrowLeft" transform="rotate(270) translate(-36 17)">
    <use xlink:href="#rim"/>
    <path pointer-events="none" fill="none" stroke="white" stroke-width="1.5" d="M0,-3.0v7 M-2.5,-0.5L0,-3.0L2.5,-0.5"/>
  </g>
  <g id="resetDef">
    <use xlink:href="#rim2" fill="#404040"><set attributeName="fill" to="#808080" begin="reset.mouseover" end="reset.mouseout"/></use>
  </g>
</defs>
<script type="application/ecmascript">
var viewWidth = 3198;
var viewHeight = 247;
var sectionId = 'dynsection-1';
</script>
<script type="application/ecmascript" xlink:href="svg.min.js"/>
<svg id="graph" class="graph">
<g id="viewport">
<title>theme/DirektColours.h</title>
<!-- Node1 -->
<g id="Node000001" class="node">
<title>Node1</title>
<g id="a_Node000001"><a xlink:title=" ">
<polygon fill="#999999" stroke="#666666" points="1591.58,-239 1464.58,-239 1464.58,-220 1591.58,-220 1591.58,-239"/>
<text text-anchor="middle" x="1528.08" y="-227" font-family="Helvetica,sans-Serif" font-size="10.00">theme/DirektColours.h</text>
</a>
</g>
</g>
<!-- Node2 -->
<g id="Node000002" class="node">
<title>Node2</title>
<g id="a_Node000002"><a xlink:href="DirektDSP_8h.html" target="_top" xlink:title=" ">
<polygon fill="white" stroke="#666666" points="1274.08,-19 1200.08,-19 1200.08,0 1274.08,0 1274.08,-19"/>
<text text-anchor="middle" x="1237.08" y="-7" font-family="Helvetica,sans-Serif" font-size="10.00">DirektDSP.h</text>
</a>
</g>
</g>
<!-- Node1&#45;&gt;Node2 -->
<g id="edge1_Node000001_Node000002" class="edge">
<title>Node1&#45;&gt;Node2</title>
<g id="a_edge1_Node000001_Node000002"><a xlink:title=" ">
<path fill="none" stroke="#63b8ff" d="M1454.42,-228.11C1283.87,-226.61 848.77,-219.33 487.08,-184 326.43,-168.31 283,-174.34 128.08,-129 70.22,-112.06 36.95,-124.54 4.08,-74 -0.52,-66.92 -1.78,-61.08 4.08,-55 46.63,-10.89 998.65,-10.08 1199.92,-10.41"/>
<polygon fill="#63b8ff" stroke="#63b8ff" points="1454.51,-231.61 1464.54,-228.2 1454.57,-224.61 1454.51,-231.61"/>
</a>
</g>
</g>
<!-- Node3 -->
<g id="Node000003" class="node">
<title>Node3</title>
<g id="a_Node000003"><a xlink:href="DirektFooter_8h.html" target="_top" xlink:title=" ">
<polygon fill="white" stroke="#666666" points="262.58,-129 137.58,-129 137.58,-110 262.58,-110 262.58,-129"/>
<text text-anchor="middle" x="200.08" y="-117" font-family="Helvetica,sans-Serif" font-size="10.00">chrome/DirektFooter.h</text>
</a>
</g>
</g>
<!-- Node1&#45;&gt;Node3 -->
<g id="edge2_Node000001_Node000003" class="edge">
<title>Node1&#45;&gt;Node3</title>
<g id="a_edge2_Node000001_Node000003"><a xlink:title=" ">
<path fill="none" stroke="#63b8ff" d="M1454.36,-226.92C1303.84,-223.23 950.45,-212.08 655.08,-184 507.6,-169.98 334.59,-142.87 250.75,-129.05"/>
<polygon fill="#63b8ff" stroke="#63b8ff" points="1454.33,-230.42 1464.41,-227.17 1454.5,-223.43 1454.33,-230.42"/>
</a>
</g>
</g>
<!-- Node5 -->
<g id="Node000005" class="node">
<title>Node5</title>
<g id="a_Node000005"><a xlink:href="DirektBaseEditor_8h.html" target="_top" xlink:title=" ">
<polygon fill="white" stroke="#666666" points="988.58,-74 857.58,-74 857.58,-55 988.58,-55 988.58,-74"/>
<text text-anchor="middle" x="923.08" y="-62" font-family="Helvetica,sans-Serif" font-size="10.00">core/DirektBaseEditor.h</text>
</a>
</g>
</g>
<!-- Node1&#45;&gt;Node5 -->
<g id="edge26_Node000001_Node000005" class="edge">
<title>Node1&#45;&gt;Node5</title>
<g id="a_edge26_Node000001_Node000005"><a xlink:title=" ">
<path fill="none" stroke="#63b8ff" d="M1454.02,-223.38C1318.76,-212.78 1038.45,-184.63 960.08,-129 940.73,-115.26 929.97,-87.97 925.53,-74.07"/>
<polygon fill="#63b8ff" stroke="#63b8ff" points="1454.05,-226.9 1464.29,-224.18 1454.59,-219.92 1454.05,-226.9"/>
</a>
</g>
</g>
<!-- Node7 -->
<g id="Node000007" class="node">
<title>Node7</title>
<g id="a_Node000007"><a xlink:href="DirektHeader_8h.html" target="_top" xlink:title=" ">
<polygon fill="white" stroke="#666666" points="495.08,-129 365.08,-129 365.08,-110 495.08,-110 495.08,-129"/>
<text text-anchor="middle" x="430.08" y="-117" font-family="Helvetica,sans-Serif" font-size="10.00">chrome/DirektHeader.h</text>
</a>
</g>
</g>
<!-- Node1&#45;&gt;Node7 -->
<g id="edge8_Node000001_Node000007" class="edge">
<title>Node1&#45;&gt;Node7</title>
<g id="a_edge8_Node000001_Node000007"><a xlink:title=" ">
<path fill="none" stroke="#63b8ff" d="M1454.41,-226.89C1321.07,-223.34 1030.99,-212.75 788.08,-184 671.49,-170.2 535.33,-142.93 469.59,-129.05"/>
<polygon fill="#63b8ff" stroke="#63b8ff" points="1454.42,-230.39 1464.51,-227.15 1454.61,-223.39 1454.42,-230.39"/>
</a>
</g>
</g>
<!-- Node9 -->
<g id="Node000009" class="node">
<title>Node9</title>
<g id="a_Node000009"><a xlink:href="DirektPopupPanel_8h.html" target="_top" xlink:title=" ">
<polygon fill="white" stroke="#666666" points="707.08,-129 555.08,-129 555.08,-110 707.08,-110 707.08,-129"/>
<text text-anchor="middle" x="631.08" y="-117" font-family="Helvetica,sans-Serif" font-size="10.00">chrome/DirektPopupPanel.h</text>
</a>
</g>
</g>
<!-- Node1&#45;&gt;Node9 -->
<g id="edge12_Node000001_Node000009" class="edge">
<title>Node1&#45;&gt;Node9</title>
<g id="a_edge12_Node000001_Node000009"><a xlink:title=" ">
<path fill="none" stroke="#63b8ff" d="M1453.93,-227.63C1333.62,-225.26 1088.7,-216.49 884.08,-184 800.67,-170.76 704.52,-143.11 658.45,-129.07"/>
<polygon fill="#63b8ff" stroke="#63b8ff" points="1454.07,-231.13 1464.13,-227.82 1454.2,-224.13 1454.07,-231.13"/>
</a>
</g>
</g>
<!-- Node11 -->
<g id="Node000011" class="node">
<title>Node11</title>
<g id="a_Node000011"><a xlink:href="DirektPresetBrowser_8h.html" target="_top" xlink:title=" ">
<polygon fill="white" stroke="#666666" points="911.58,-129 746.58,-129 746.58,-110 911.58,-110 911.58,-129"/>
<text text-anchor="middle" x="829.08" y="-117" font-family="Helvetica,sans-Serif" font-size="10.00">chrome/DirektPresetBrowser.h</text>
</a>
</g>
</g>
<!-- Node1&#45;&gt;Node11 -->
<g id="edge16_Node000001_Node000011" class="edge">
<title>Node1&#45;&gt;Node11</title>
<g id="a_edge16_Node000001_Node000011"><a xlink:title=" ">
<path fill="none" stroke="#63b8ff" d="M1454.41,-227.64C1315.89,-225.28 1021.95,-216.48 926.08,-184 890.43,-171.92 855.11,-143.61 838.65,-129.22"/>
<polygon fill="#63b8ff" stroke="#63b8ff" points="1454.46,-231.15 1464.51,-227.81 1454.57,-224.15 1454.46,-231.15"/>
</a>
</g>
</g>
<!-- Node13 -->
<g id="Node000013" class="node">
<title>Node13</title>
<g id="a_Node000013"><a xlink:href="DirektConfig_8h.html" target="_top" xlink:title=" ">
<polygon fill="white" stroke="#666666" points="1087.58,-129 968.58,-129 968.58,-110 1087.58,-110 1087.58,-129"/>
<text text-anchor="middle" x="1028.08" y="-117" font-family="Helvetica,sans-Serif" font-size="10.00">config/DirektConfig.h</text>
</a>
</g>
</g>
<!-- Node1&#45;&gt;Node13 -->
<g id="edge20_Node000001_Node000013" class="edge">
<title>Node1&#45;&gt;Node13</title>
<g id="a_edge20_Node000001_Node000013"><a xlink:title=" ">
<path fill="none" stroke="#63b8ff" d="M1478.36,-217.76C1379.08,-196.32 1158.09,-148.58 1067.74,-129.07"/>
<polygon fill="#63b8ff" stroke="#63b8ff" points="1477.92,-221.24 1488.43,-219.94 1479.39,-214.4 1477.92,-221.24"/>
</a>
</g>
</g>
<!-- Node14 -->
<g id="Node000014" class="node">
<title>Node14</title>
<g id="a_Node000014"><a xlink:href="DirektComboBox_8cpp.html" target="_top" xlink:title=" ">
<polygon fill="white" stroke="#666666" points="2846.08,-184 2684.08,-184 2684.08,-165 2846.08,-165 2846.08,-184"/>
<text text-anchor="middle" x="2765.08" y="-172" font-family="Helvetica,sans-Serif" font-size="10.00">controls/DirektComboBox.cpp</text>
</a>
</g>
</g>
<!-- Node1&#45;&gt;Node14 -->
<g id="edge23_Node000001_Node000014" class="edge">
<title>Node1&#45;&gt;Node14</title>
<g id="a_edge23_Node000001_Node000014"><a xlink:title=" ">
<path fill="none" stroke="#63b8ff" d="M1601.83,-226.91C1783.53,-222.72 2267.28,-209.85 2670.08,-184 2674.63,-183.71 2679.29,-183.38 2684,-183.03"/>
<polygon fill="#63b8ff" stroke="#63b8ff" points="1601.51,-223.42 1591.59,-227.15 1601.67,-230.42 1601.51,-223.42"/>
</a>
</g>
</g>
<!-- Node15 -->
<g id="Node000015" class="node">
<title>Node15</title>
<g id="a_Node000015"><a xlink:href="DirektKnob_8cpp.html" target="_top" xlink:title=" ">
<polygon fill="white" stroke="#666666" points="2998.08,-184 2864.08,-184 2864.08,-165 2998.08,-165 2998.08,-184"/>
<text text-anchor="middle" x="2931.08" y="-172" font-family="Helvetica,sans-Serif" font-size="10.00">controls/DirektKnob.cpp</text>
</a>
</g>
</g>
<!-- Node1&#45;&gt;Node15 -->
<g id="edge24_Node000001_Node000015" class="edge">
<title>Node1&#45;&gt;Node15</title>
<g id="a_edge24_Node000001_Node000015"><a xlink:title=" ">
<path fill="none" stroke="#63b8ff" d="M1601.86,-228.04C1803.09,-226.35 2378.27,-218.61 2855.08,-184 2858,-183.79 2860.97,-183.55 2863.97,-183.29"/>
<polygon fill="#63b8ff" stroke="#63b8ff" points="1601.68,-224.54 1591.71,-228.12 1601.74,-231.54 1601.68,-224.54"/>
</a>
</g>
</g>
<!-- Node16 -->
<g id="Node000016" class="node">
<title>Node16</title>
<g id="a_Node000016"><a xlink:href="DirektMacroControl_8cpp.html" target="_top" xlink:title=" ">
<polygon fill="white" stroke="#666666" points="3190.08,-184 3016.08,-184 3016.08,-165 3190.08,-165 3190.08,-184"/>
<text text-anchor="middle" x="3103.08" y="-172" font-family="Helvetica,sans-Serif" font-size="10.00">controls/DirektMacroControl.cpp</text>
</a>
</g>
</g>
<!-- Node1&#45;&gt;Node16 -->
<g id="edge25_Node000001_Node000016" class="edge">
<title>Node1&#45;&gt;Node16</title>
<g id="a_edge25_Node000001_Node000016"><a xlink:title=" ">
<path fill="none" stroke="#63b8ff" d="M1602.21,-227.8C1818.71,-225.41 2468.73,-215.91 3007.08,-184 3010.01,-183.83 3012.98,-183.64 3015.98,-183.44"/>
<polygon fill="#63b8ff" stroke="#63b8ff" points="1601.89,-224.3 1591.93,-227.91 1601.97,-231.3 1601.89,-224.3"/>
</a>
</g>
</g>
<!-- Node17 -->
<g id="Node000017" class="node">
<title>Node17</title>
<g id="a_Node000017"><a xlink:href="DirektComponentRegistry_8cpp.html" target="_top" xlink:title=" ">
<polygon fill="white" stroke="#666666" points="2139.08,-74 1953.08,-74 1953.08,-55 2139.08,-55 2139.08,-74"/>
<text text-anchor="middle" x="2046.08" y="-62" font-family="Helvetica,sans-Serif" font-size="10.00">core/DirektComponentRegistry.cpp</text>
</a>
</g>
</g>
<!-- Node1&#45;&gt;Node17 -->
<g id="edge27_Node000001_Node000017" class="edge">
<title>Node1&#45;&gt;Node17</title>
<g id="a_edge27_Node000001_Node000017"><a xlink:title=" ">
<path fill="none" stroke="#63b8ff" d="M1601.84,-227.78C1821.35,-225.29 2460.67,-215.41 2549.08,-184 2587.7,-170.28 2604.68,-165.61 2623.08,-129 2626.88,-121.46 2628.82,-116.19 2623.08,-110 2587.18,-71.26 2201.74,-78.17 2149.08,-74 2145.86,-73.74 2142.59,-73.48 2139.28,-73.22"/>
<polygon fill="#63b8ff" stroke="#63b8ff" points="1601.67,-224.28 1591.71,-227.89 1601.75,-231.28 1601.67,-224.28"/>
</a>
</g>
</g>
<!-- Node18 -->
<g id="Node000018" class="node">
<title>Node18</title>
<g id="a_Node000018"><a xlink:href="DirektClipIndicator_8h.html" target="_top" xlink:title=" ">
<polygon fill="white" stroke="#666666" points="1556.58,-129 1401.58,-129 1401.58,-110 1556.58,-110 1556.58,-129"/>
<text text-anchor="middle" x="1479.08" y="-117" font-family="Helvetica,sans-Serif" font-size="10.00">display/DirektClipIndicator.h</text>
</a>
</g>
</g>
<!-- Node1&#45;&gt;Node18 -->
<g id="edge28_Node000001_Node000018" class="edge">
<title>Node1&#45;&gt;Node18</title>
<g id="a_edge28_Node000001_Node000018"><a xlink:title=" ">
<path fill="none" stroke="#63b8ff" d="M1519.89,-210.44C1509.22,-186.92 1490.98,-146.73 1483.01,-129.16"/>
<polygon fill="#63b8ff" stroke="#63b8ff" points="1516.75,-212 1524.07,-219.66 1523.13,-209.11 1516.75,-212"/>
</a>
</g>
</g>
<!-- Node20 -->
<g id="Node000020" class="node">
<title>Node20</title>
<g id="a_Node000020"><a xlink:href="DirektLabel_8h.html" target="_top" xlink:title=" ">
<polygon fill="white" stroke="#666666" points="1695.08,-129 1575.08,-129 1575.08,-110 1695.08,-110 1695.08,-129"/>
<text text-anchor="middle" x="1635.08" y="-117" font-family="Helvetica,sans-Serif" font-size="10.00">display/DirektLabel.h</text>
</a>
</g>
</g>
<!-- Node1&#45;&gt;Node20 -->
<g id="edge33_Node000001_Node000020" class="edge">
<title>Node1&#45;&gt;Node20</title>
<g id="a_edge33_Node000001_Node000020"><a xlink:title=" ">
<path fill="none" stroke="#63b8ff" d="M1544.13,-212.3C1567.12,-189.1 1608.62,-147.21 1626.5,-129.16"/>
<polygon fill="#63b8ff" stroke="#63b8ff" points="1541.39,-210.09 1536.84,-219.66 1546.36,-215.02 1541.39,-210.09"/>
</a>
</g>
</g>
<!-- Node22 -->
<g id="Node000022" class="node">
<title>Node22</title>
<g id="a_Node000022"><a xlink:href="DirektMeter_8h.html" target="_top" xlink:title=" ">
<polygon fill="white" stroke="#666666" points="2540.08,-184 2418.08,-184 2418.08,-165 2540.08,-165 2540.08,-184"/>
<text text-anchor="middle" x="2479.08" y="-172" font-family="Helvetica,sans-Serif" font-size="10.00">display/DirektMeter.h</text>
</a>
</g>
</g>
<!-- Node1&#45;&gt;Node22 -->
<g id="edge37_Node000001_Node000022" class="edge">
<title>Node1&#45;&gt;Node22</title>
<g id="a_edge37_Node000001_Node000022"><a xlink:title=" ">
<path fill="none" stroke="#63b8ff" d="M1601.57,-224.4C1783.09,-214.29 2250.09,-188.26 2417.89,-178.91"/>
<polygon fill="#63b8ff" stroke="#63b8ff" points="1601.38,-220.91 1591.59,-224.96 1601.77,-227.9 1601.38,-220.91"/>
</a>
</g>
</g>
<!-- Node24 -->
<g id="Node000024" class="node">
<title>Node24</title>
<g id="a_Node000024"><a xlink:href="DirektStereoMeter_8h.html" target="_top" xlink:title=" ">
<polygon fill="white" stroke="#666666" points="2406.58,-129 2253.58,-129 2253.58,-110 2406.58,-110 2406.58,-129"/>
<text text-anchor="middle" x="2330.08" y="-117" font-family="Helvetica,sans-Serif" font-size="10.00">display/DirektStereoMeter.h</text>
</a>
</g>
</g>
<!-- Node1&#45;&gt;Node24 -->
<g id="edge47_Node000001_Node000024" class="edge">
<title>Node1&#45;&gt;Node24</title>
<g id="a_edge47_Node000001_Node000024"><a xlink:title=" ">
<path fill="none" stroke="#63b8ff" d="M1601.88,-220.55C1678.32,-212.14 1801.19,-198.16 1907.08,-184 2040.49,-166.16 2197.03,-141.75 2277.07,-129.02"/>
<polygon fill="#63b8ff" stroke="#63b8ff" points="1601.42,-217.07 1591.87,-221.64 1602.19,-224.03 1601.42,-217.07"/>
</a>
</g>
</g>
<!-- Node26 -->
<g id="Node000026" class="node">
<title>Node26</title>
<g id="a_Node000026"><a xlink:href="DirektSection_8h.html" target="_top" xlink:title=" ">
<polygon fill="white" stroke="#666666" points="1835.58,-184 1710.58,-184 1710.58,-165 1835.58,-165 1835.58,-184"/>
<text text-anchor="middle" x="1773.08" y="-172" font-family="Helvetica,sans-Serif" font-size="10.00">layout/DirektSection.h</text>
</a>
</g>
</g>
<!-- Node1&#45;&gt;Node26 -->
<g id="edge48_Node000001_Node000026" class="edge">
<title>Node1&#45;&gt;Node26</title>
<g id="a_edge48_Node000001_Node000026"><a xlink:title=" ">
<path fill="none" stroke="#63b8ff" d="M1577.47,-217.82C1623.39,-207.88 1690.91,-193.28 1733.41,-184.08"/>
<polygon fill="#63b8ff" stroke="#63b8ff" points="1576.48,-214.45 1567.45,-219.98 1577.96,-221.29 1576.48,-214.45"/>
</a>
</g>
</g>
<!-- Node30 -->
<g id="Node000030" class="node">
<title>Node30</title>
<g id="a_Node000030"><a xlink:href="DirektTabPanel_8h.html" target="_top" xlink:title=" ">
<polygon fill="white" stroke="#666666" points="2233.08,-129 2101.08,-129 2101.08,-110 2233.08,-110 2233.08,-129"/>
<text text-anchor="middle" x="2167.08" y="-117" font-family="Helvetica,sans-Serif" font-size="10.00">layout/DirektTabPanel.h</text>
</a>
</g>
</g>
<!-- Node1&#45;&gt;Node30 -->
<g id="edge57_Node000001_Node000030" class="edge">
<title>Node1&#45;&gt;Node30</title>
<g id="a_edge57_Node000001_Node000030"><a xlink:title=" ">
<path fill="none" stroke="#63b8ff" d="M1601.75,-219.33C1666.11,-211.04 1761.98,-198.02 1845.08,-184 1947.34,-166.75 2066.95,-141.93 2127.55,-129.03"/>
<polygon fill="#63b8ff" stroke="#63b8ff" points="1601.17,-215.88 1591.69,-220.62 1602.06,-222.82 1601.17,-215.88"/>
</a>
</g>
</g>
<!-- Node32 -->
<g id="Node000032" class="node">
<title>Node32</title>
<g id="a_Node000032"><a xlink:href="DirektLookAndFeel_8h.html" target="_top" xlink:title=" ">
<polygon fill="white" stroke="#666666" points="1313.08,-129 1161.08,-129 1161.08,-110 1313.08,-110 1313.08,-129"/>
<text text-anchor="middle" x="1237.08" y="-117" font-family="Helvetica,sans-Serif" font-size="10.00">theme/DirektLookAndFeel.h</text>
</a>
</g>
</g>
<!-- Node1&#45;&gt;Node32 -->
<g id="edge61_Node000001_Node000032" class="edge">
<title>Node1&#45;&gt;Node32</title>
<g id="a_edge61_Node000001_Node000032"><a xlink:title=" ">
<path fill="none" stroke="#63b8ff" d="M1495.1,-216.26C1435.54,-194.15 1311.47,-148.11 1260.11,-129.05"/>
<polygon fill="#63b8ff" stroke="#63b8ff" points="1494.17,-219.65 1504.76,-219.84 1496.6,-213.08 1494.17,-219.65"/>
</a>
</g>
</g>
<!-- Node3&#45;&gt;Node2 -->
<g id="edge3_Node000003_Node000002" class="edge">
<title>Node3&#45;&gt;Node2</title>
<g id="a_edge3_Node000003_Node000002"><a xlink:title=" ">
<path fill="none" stroke="#63b8ff" d="M193.17,-100.03C189.18,-85.81 186.89,-66.68 198.08,-55 233.43,-18.11 1018.7,-11.67 1199.98,-10.67"/>
<polygon fill="#63b8ff" stroke="#63b8ff" points="189.92,-101.33 196.36,-109.73 196.57,-99.14 189.92,-101.33"/>
</a>
</g>
</g>
<!-- Node4 -->
<g id="Node000004" class="node">
<title>Node4</title>
<g id="a_Node000004"><a xlink:href="DirektFooter_8cpp.html" target="_top" xlink:title=" ">
<polygon fill="white" stroke="#666666" points="150.58,-74 13.58,-74 13.58,-55 150.58,-55 150.58,-74"/>
<text text-anchor="middle" x="82.08" y="-62" font-family="Helvetica,sans-Serif" font-size="10.00">chrome/DirektFooter.cpp</text>
</a>
</g>
</g>
<!-- Node3&#45;&gt;Node4 -->
<g id="edge4_Node000003_Node000004" class="edge">
<title>Node3&#45;&gt;Node4</title>
<g id="a_edge4_Node000003_Node000004"><a xlink:title=" ">
<path fill="none" stroke="#63b8ff" d="M171.73,-105.77C149.96,-95.99 120.49,-82.75 101.39,-74.17"/>
<polygon fill="#63b8ff" stroke="#63b8ff" points="170.57,-109.08 181.12,-109.98 173.44,-102.69 170.57,-109.08"/>
</a>
</g>
</g>
<!-- Node3&#45;&gt;Node5 -->
<g id="edge5_Node000003_Node000005" class="edge">
<title>Node3&#45;&gt;Node5</title>
<g id="a_edge5_Node000003_Node000005"><a xlink:title=" ">
<path fill="none" stroke="#63b8ff" d="M272.91,-113.24C387.3,-104.97 616.06,-88.37 810.08,-74 825.39,-72.87 841.85,-71.63 857.36,-70.47"/>
<polygon fill="#63b8ff" stroke="#63b8ff" points="272.59,-109.75 262.87,-113.97 273.1,-116.74 272.59,-109.75"/>
</a>
</g>
</g>
<!-- Node5&#45;&gt;Node2 -->
<g id="edge6_Node000005_Node000002" class="edge">
<title>Node5&#45;&gt;Node2</title>
<g id="a_edge6_Node000005_Node000002"><a xlink:title=" ">
<path fill="none" stroke="#63b8ff" d="M983.5,-53.3C1047.54,-42.49 1146.66,-25.76 1200.03,-16.75"/>
<polygon fill="#63b8ff" stroke="#63b8ff" points="982.81,-49.87 973.53,-54.98 983.97,-56.77 982.81,-49.87"/>
</a>
</g>
</g>
<!-- Node6 -->
<g id="Node000006" class="node">
<title>Node6</title>
<g id="a_Node000006"><a xlink:href="DirektBaseEditor_8cpp.html" target="_top" xlink:title=" ">
<polygon fill="white" stroke="#666666" points="1936.58,-19 1793.58,-19 1793.58,0 1936.58,0 1936.58,-19"/>
<text text-anchor="middle" x="1865.08" y="-7" font-family="Helvetica,sans-Serif" font-size="10.00">core/DirektBaseEditor.cpp</text>
</a>
</g>
</g>
<!-- Node5&#45;&gt;Node6 -->
<g id="edge7_Node000005_Node000006" class="edge">
<title>Node5&#45;&gt;Node6</title>
<g id="a_edge7_Node000005_Node000006"><a xlink:title=" ">
<path fill="none" stroke="#63b8ff" d="M999.08,-57.56C1011.45,-56.66 1024.12,-55.77 1036.08,-55 1316.2,-36.95 1649.89,-20.61 1793.53,-13.82"/>
<polygon fill="#63b8ff" stroke="#63b8ff" points="998.51,-54.09 988.79,-58.32 999.02,-61.07 998.51,-54.09"/>
</a>
</g>
</g>
<!-- Node7&#45;&gt;Node2 -->
<g id="edge9_Node000007_Node000002" class="edge">
<title>Node7&#45;&gt;Node2</title>
<g id="a_edge9_Node000007_Node000002"><a xlink:title=" ">
<path fill="none" stroke="#63b8ff" d="M412.15,-102.78C398.45,-88.93 383.95,-68.84 397.08,-55 425.08,-25.48 1041.01,-13.63 1199.94,-11.06"/>
<polygon fill="#63b8ff" stroke="#63b8ff" points="409.84,-105.42 419.5,-109.76 414.66,-100.34 409.84,-105.42"/>
</a>
</g>
</g>
<!-- Node7&#45;&gt;Node5 -->
<g id="edge11_Node000007_Node000005" class="edge">
<title>Node7&#45;&gt;Node5</title>
<g id="a_edge11_Node000007_Node000005"><a xlink:title=" ">
<path fill="none" stroke="#63b8ff" d="M505.52,-110.39C601.59,-100.06 766.05,-82.38 857.27,-72.58"/>
<polygon fill="#63b8ff" stroke="#63b8ff" points="504.86,-106.94 495.29,-111.49 505.61,-113.9 504.86,-106.94"/>
</a>
</g>
</g>
<!-- Node8 -->
<g id="Node000008" class="node">
<title>Node8</title>
<g id="a_Node000008"><a xlink:href="DirektHeader_8cpp.html" target="_top" xlink:title=" ">
<polygon fill="white" stroke="#666666" points="348.58,-74 207.58,-74 207.58,-55 348.58,-55 348.58,-74"/>
<text text-anchor="middle" x="278.08" y="-62" font-family="Helvetica,sans-Serif" font-size="10.00">chrome/DirektHeader.cpp</text>
</a>
</g>
</g>
<!-- Node7&#45;&gt;Node8 -->
<g id="edge10_Node000007_Node000008" class="edge">
<title>Node7&#45;&gt;Node8</title>
<g id="a_edge10_Node000007_Node000008"><a xlink:title=" ">
<path fill="none" stroke="#63b8ff" d="M396.15,-106.67C367.81,-96.79 328.07,-82.93 302.7,-74.08"/>
<polygon fill="#63b8ff" stroke="#63b8ff" points="395.07,-110 405.66,-109.98 397.37,-103.39 395.07,-110"/>
</a>
</g>
</g>
<!-- Node9&#45;&gt;Node2 -->
<g id="edge13_Node000009_Node000002" class="edge">
<title>Node9&#45;&gt;Node2</title>
<g id="a_edge13_Node000009_Node000002"><a xlink:title=" ">
<path fill="none" stroke="#63b8ff" d="M619.46,-101.11C611.6,-86.97 604.54,-67.4 616.08,-55 655.9,-12.23 1071.57,-9.96 1199.7,-10.29"/>
<polygon fill="#63b8ff" stroke="#63b8ff" points="616.62,-103.17 624.82,-109.88 622.59,-99.52 616.62,-103.17"/>
</a>
</g>
</g>
<!-- Node9&#45;&gt;Node5 -->
<g id="edge15_Node000009_Node000005" class="edge">
<title>Node9&#45;&gt;Node5</title>
<g id="a_edge15_Node000009_Node000005"><a xlink:title=" ">
<path fill="none" stroke="#63b8ff" d="M687.89,-108.19C742.64,-98.25 824.51,-83.39 875.8,-74.08"/>
<polygon fill="#63b8ff" stroke="#63b8ff" points="687.21,-104.75 678,-109.98 688.46,-111.64 687.21,-104.75"/>
</a>
</g>
</g>
<!-- Node10 -->
<g id="Node000010" class="node">
<title>Node10</title>
<g id="a_Node000010"><a xlink:href="DirektPopupPanel_8cpp.html" target="_top" xlink:title=" ">
<polygon fill="white" stroke="#666666" points="568.58,-74 405.58,-74 405.58,-55 568.58,-55 568.58,-74"/>
<text text-anchor="middle" x="487.08" y="-62" font-family="Helvetica,sans-Serif" font-size="10.00">chrome/DirektPopupPanel.cpp</text>
</a>
</g>
</g>
<!-- Node9&#45;&gt;Node10 -->
<g id="edge14_Node000009_Node000010" class="edge">
<title>Node9&#45;&gt;Node10</title>
<g id="a_edge14_Node000009_Node000010"><a xlink:title=" ">
<path fill="none" stroke="#63b8ff" d="M598.26,-106.42C571.55,-96.59 534.48,-82.95 510.64,-74.17"/>
<polygon fill="#63b8ff" stroke="#63b8ff" points="597.35,-109.82 607.95,-109.98 599.77,-103.25 597.35,-109.82"/>
</a>
</g>
</g>
<!-- Node11&#45;&gt;Node2 -->
<g id="edge17_Node000011_Node000002" class="edge">
<title>Node11&#45;&gt;Node2</title>
<g id="a_edge17_Node000011_Node000002"><a xlink:title=" ">
<path fill="none" stroke="#63b8ff" d="M829.75,-99.58C831.34,-85.09 836,-65.8 849.08,-55 901.97,-11.36 1113.46,-8.9 1199.95,-9.79"/>
<polygon fill="#63b8ff" stroke="#63b8ff" points="826.24,-99.7 829.03,-109.92 833.22,-100.19 826.24,-99.7"/>
</a>
</g>
</g>
<!-- Node11&#45;&gt;Node5 -->
<g id="edge19_Node000011_Node000005" class="edge">
<title>Node11&#45;&gt;Node5</title>
<g id="a_edge19_Node000011_Node000005"><a xlink:title=" ">
<path fill="none" stroke="#63b8ff" d="M853.09,-104.97C870.27,-95.28 892.89,-82.52 907.7,-74.17"/>
<polygon fill="#63b8ff" stroke="#63b8ff" points="851.18,-102.02 844.18,-109.98 854.61,-108.12 851.18,-102.02"/>
</a>
</g>
</g>
<!-- Node12 -->
<g id="Node000012" class="node">
<title>Node12</title>
<g id="a_Node000012"><a xlink:href="DirektPresetBrowser_8cpp.html" target="_top" xlink:title=" ">
<polygon fill="white" stroke="#666666" points="801.08,-74 625.08,-74 625.08,-55 801.08,-55 801.08,-74"/>
<text text-anchor="middle" x="713.08" y="-62" font-family="Helvetica,sans-Serif" font-size="10.00">chrome/DirektPresetBrowser.cpp</text>
</a>
</g>
</g>
<!-- Node11&#45;&gt;Node12 -->
<g id="edge18_Node000011_Node000012" class="edge">
<title>Node11&#45;&gt;Node12</title>
<g id="a_edge18_Node000011_Node000012"><a xlink:title=" ">
<path fill="none" stroke="#63b8ff" d="M801.21,-105.77C779.81,-95.99 750.84,-82.75 732.06,-74.17"/>
<polygon fill="#63b8ff" stroke="#63b8ff" points="799.89,-109.01 810.44,-109.98 802.8,-102.65 799.89,-109.01"/>
</a>
</g>
</g>
<!-- Node13&#45;&gt;Node2 -->
<g id="edge21_Node000013_Node000002" class="edge">
<title>Node13&#45;&gt;Node2</title>
<g id="a_edge21_Node000013_Node000002"><a xlink:title=" ">
<path fill="none" stroke="#63b8ff" d="M1025.17,-99.81C1024.1,-85.75 1025.21,-66.92 1036.08,-55 1057.69,-31.29 1147.82,-18.95 1199.75,-13.7"/>
<polygon fill="#63b8ff" stroke="#63b8ff" points="1021.71,-100.32 1026.36,-109.84 1028.66,-99.5 1021.71,-100.32"/>
</a>
</g>
</g>
<!-- Node13&#45;&gt;Node5 -->
<g id="edge22_Node000013_Node000005" class="edge">
<title>Node13&#45;&gt;Node5</title>
<g id="a_edge22_Node000013_Node000005"><a xlink:title=" ">
<path fill="none" stroke="#63b8ff" d="M1002.06,-105.37C982.78,-95.63 957.03,-82.64 940.26,-74.17"/>
<polygon fill="#63b8ff" stroke="#63b8ff" points="1000.71,-108.6 1011.21,-109.98 1003.86,-102.35 1000.71,-108.6"/>
</a>
</g>
</g>
<!-- Node18&#45;&gt;Node2 -->
<g id="edge29_Node000018_Node000002" class="edge">
<title>Node18&#45;&gt;Node2</title>
<g id="a_edge29_Node000018_Node000002"><a xlink:title=" ">
<path fill="none" stroke="#63b8ff" d="M1484.49,-99.98C1487.35,-86.01 1488.42,-67.22 1478.08,-55 1452.39,-24.62 1335.64,-14.88 1274.57,-11.84"/>
<polygon fill="#63b8ff" stroke="#63b8ff" points="1481.03,-99.38 1482,-109.93 1487.82,-101.08 1481.03,-99.38"/>
</a>
</g>
</g>
<!-- Node18&#45;&gt;Node6 -->
<g id="edge30_Node000018_Node000006" class="edge">
<title>Node18&#45;&gt;Node6</title>
<g id="a_edge30_Node000018_Node000006"><a xlink:title=" ">
<path fill="none" stroke="#63b8ff" d="M1391.47,-113.99C1328.27,-107.61 1259.66,-92.21 1294.08,-55 1327.34,-19.05 1647.54,-12.08 1793.37,-10.77"/>
<polygon fill="#63b8ff" stroke="#63b8ff" points="1391.27,-117.49 1401.55,-114.94 1391.92,-110.52 1391.27,-117.49"/>
</a>
</g>
</g>
<!-- Node18&#45;&gt;Node17 -->
<g id="edge31_Node000018_Node000017" class="edge">
<title>Node18&#45;&gt;Node17</title>
<g id="a_edge31_Node000018_Node000017"><a xlink:title=" ">
<path fill="none" stroke="#63b8ff" d="M1566.98,-109.92C1707.68,-96.54 1858.24,-82.67 1952.7,-74.02"/>
<polygon fill="#63b8ff" stroke="#63b8ff" points="1566.49,-106.45 1556.87,-110.88 1567.16,-113.42 1566.49,-106.45"/>
</a>
</g>
</g>
<!-- Node19 -->
<g id="Node000019" class="node">
<title>Node19</title>
<g id="a_Node000019"><a xlink:href="DirektClipIndicator_8cpp.html" target="_top" xlink:title=" ">
<polygon fill="white" stroke="#666666" points="1469.08,-74 1303.08,-74 1303.08,-55 1469.08,-55 1469.08,-74"/>
<text text-anchor="middle" x="1386.08" y="-62" font-family="Helvetica,sans-Serif" font-size="10.00">display/DirektClipIndicator.cpp</text>
</a>
</g>
</g>
<!-- Node18&#45;&gt;Node19 -->
<g id="edge32_Node000018_Node000019" class="edge">
<title>Node18&#45;&gt;Node19</title>
<g id="a_edge32_Node000018_Node000019"><a xlink:title=" ">
<path fill="none" stroke="#63b8ff" d="M1455.33,-104.97C1438.33,-95.28 1415.95,-82.52 1401.3,-74.17"/>
<polygon fill="#63b8ff" stroke="#63b8ff" points="1453.72,-108.07 1464.14,-109.98 1457.18,-101.99 1453.72,-108.07"/>
</a>
</g>
</g>
<!-- Node20&#45;&gt;Node2 -->
<g id="edge34_Node000020_Node000002" class="edge">
<title>Node20&#45;&gt;Node2</title>
<g id="a_edge34_Node000020_Node000002"><a xlink:title=" ">
<path fill="none" stroke="#63b8ff" d="M1652.42,-102.47C1665.27,-88.68 1678.58,-68.86 1666.08,-55 1640.04,-26.12 1373.74,-14.81 1274.28,-11.57"/>
<polygon fill="#63b8ff" stroke="#63b8ff" points="1649.69,-100.25 1645.1,-109.81 1654.64,-105.2 1649.69,-100.25"/>
</a>
</g>
</g>
<!-- Node20&#45;&gt;Node17 -->
<g id="edge35_Node000020_Node000017" class="edge">
<title>Node20&#45;&gt;Node17</title>
<g id="a_edge35_Node000020_Node000017"><a xlink:title=" ">
<path fill="none" stroke="#63b8ff" d="M1705.36,-109.44C1782.29,-99.52 1904.67,-83.74 1979.93,-74.03"/>
<polygon fill="#63b8ff" stroke="#63b8ff" points="1704.76,-105.99 1695.29,-110.74 1705.65,-112.93 1704.76,-105.99"/>
</a>
</g>
</g>
<!-- Node21 -->
<g id="Node000021" class="node">
<title>Node21</title>
<g id="a_Node000021"><a xlink:href="DirektLabel_8cpp.html" target="_top" xlink:title=" ">
<polygon fill="white" stroke="#666666" points="1656.58,-74 1525.58,-74 1525.58,-55 1656.58,-55 1656.58,-74"/>
<text text-anchor="middle" x="1591.08" y="-62" font-family="Helvetica,sans-Serif" font-size="10.00">display/DirektLabel.cpp</text>
</a>
</g>
</g>
<!-- Node20&#45;&gt;Node21 -->
<g id="edge36_Node000020_Node000021" class="edge">
<title>Node20&#45;&gt;Node21</title>
<g id="a_edge36_Node000020_Node000021"><a xlink:title=" ">
<path fill="none" stroke="#63b8ff" d="M1621.35,-101.96C1613.68,-92.72 1604.45,-81.6 1598.21,-74.09"/>
<polygon fill="#63b8ff" stroke="#63b8ff" points="1618.74,-104.29 1627.82,-109.75 1624.12,-99.82 1618.74,-104.29"/>
</a>
</g>
</g>
<!-- Node22&#45;&gt;Node2 -->
<g id="edge38_Node000022_Node000002" class="edge">
<title>Node22&#45;&gt;Node2</title>
<g id="a_edge38_Node000022_Node000002"><a xlink:title=" ">
<path fill="none" stroke="#63b8ff" d="M2550.17,-169.05C2577.48,-163.45 2606.14,-151.97 2623.08,-129 2644.9,-99.42 2604.62,-66.05 2584.08,-55 2554.43,-39.05 1488.47,-15.79 1274.33,-11.28"/>
<polygon fill="#63b8ff" stroke="#63b8ff" points="2549.41,-165.63 2540.2,-170.86 2550.66,-172.52 2549.41,-165.63"/>
</a>
</g>
</g>
<!-- Node22&#45;&gt;Node6 -->
<g id="edge39_Node000022_Node000006" class="edge">
<title>Node22&#45;&gt;Node6</title>
<g id="a_edge39_Node000022_Node000006"><a xlink:title=" ">
<path fill="none" stroke="#63b8ff" d="M2464.5,-156.91C2454.38,-143.28 2444.44,-124.01 2455.08,-110 2492.77,-60.36 2626.77,-100.41 2584.08,-55 2562.13,-31.65 2114.28,-17.16 1936.71,-12.31"/>
<polygon fill="#63b8ff" stroke="#63b8ff" points="2461.97,-159.34 2470.97,-164.93 2467.42,-154.95 2461.97,-159.34"/>
</a>
</g>
</g>
<!-- Node22&#45;&gt;Node17 -->
<g id="edge40_Node000022_Node000017" class="edge">
<title>Node22&#45;&gt;Node17</title>
<g id="a_edge40_Node000022_Node000017"><a xlink:title=" ">
<path fill="none" stroke="#63b8ff" d="M2543.93,-162.79C2586.54,-153.07 2630.3,-136.2 2606.08,-110 2571.51,-72.6 2199.85,-78.09 2149.08,-74 2145.86,-73.74 2142.59,-73.48 2139.28,-73.21"/>
<polygon fill="#63b8ff" stroke="#63b8ff" points="2543.06,-159.39 2534.03,-164.93 2544.54,-166.24 2543.06,-159.39"/>
</a>
</g>
</g>
<!-- Node23 -->
<g id="Node000023" class="node">
<title>Node23</title>
<g id="a_Node000023"><a xlink:href="DirektMeter_8cpp.html" target="_top" xlink:title=" ">
<polygon fill="white" stroke="#666666" points="2596.58,-129 2463.58,-129 2463.58,-110 2596.58,-110 2596.58,-129"/>
<text text-anchor="middle" x="2530.08" y="-117" font-family="Helvetica,sans-Serif" font-size="10.00">display/DirektMeter.cpp</text>
</a>
</g>
</g>
<!-- Node22&#45;&gt;Node23 -->
<g id="edge41_Node000022_Node000023" class="edge">
<title>Node22&#45;&gt;Node23</title>
<g id="a_edge41_Node000022_Node000023"><a xlink:title=" ">
<path fill="none" stroke="#63b8ff" d="M2494.46,-157.52C2503.45,-148.18 2514.44,-136.75 2521.82,-129.09"/>
<polygon fill="#63b8ff" stroke="#63b8ff" points="2491.92,-155.12 2487.5,-164.75 2496.96,-159.97 2491.92,-155.12"/>
</a>
</g>
</g>
<!-- Node22&#45;&gt;Node24 -->
<g id="edge42_Node000022_Node000024" class="edge">
<title>Node22&#45;&gt;Node24</title>
<g id="a_edge42_Node000022_Node000024"><a xlink:title=" ">
<path fill="none" stroke="#63b8ff" d="M2445.49,-161.55C2417.82,-151.71 2379.24,-137.98 2354.46,-129.17"/>
<polygon fill="#63b8ff" stroke="#63b8ff" points="2444.55,-164.93 2455.14,-164.98 2446.89,-158.34 2444.55,-164.93"/>
</a>
</g>
</g>
<!-- Node24&#45;&gt;Node2 -->
<g id="edge43_Node000024_Node000002" class="edge">
<title>Node24&#45;&gt;Node2</title>
<g id="a_edge43_Node000024_Node000002"><a xlink:title=" ">
<path fill="none" stroke="#63b8ff" d="M2410.51,-108.58C2475.51,-99.73 2557.85,-86.32 2568.08,-74 2573.48,-67.5 2573.95,-61.07 2568.08,-55 2544.96,-31.1 1487.87,-14.21 1274.42,-11.04"/>
<polygon fill="#63b8ff" stroke="#63b8ff" points="2409.68,-105.16 2400.24,-109.96 2410.61,-112.1 2409.68,-105.16"/>
</a>
</g>
</g>
<!-- Node24&#45;&gt;Node6 -->
<g id="edge44_Node000024_Node000006" class="edge">
<title>Node24&#45;&gt;Node6</title>
<g id="a_edge44_Node000024_Node000006"><a xlink:title=" ">
<path fill="none" stroke="#63b8ff" d="M2340.84,-101.13C2348.08,-87 2354.41,-67.43 2343.08,-55 2316.28,-25.58 2063.39,-15.29 1936.7,-11.96"/>
<polygon fill="#63b8ff" stroke="#63b8ff" points="2337.77,-99.46 2335.9,-109.89 2343.86,-102.9 2337.77,-99.46"/>
</a>
</g>
</g>
<!-- Node24&#45;&gt;Node17 -->
<g id="edge45_Node000024_Node000017" class="edge">
<title>Node24&#45;&gt;Node17</title>
<g id="a_edge45_Node000024_Node000017"><a xlink:title=" ">
<path fill="none" stroke="#63b8ff" d="M2274.5,-108.13C2221.25,-98.19 2141.85,-83.37 2092.07,-74.08"/>
<polygon fill="#63b8ff" stroke="#63b8ff" points="2273.98,-111.59 2284.45,-109.98 2275.26,-104.71 2273.98,-111.59"/>
</a>
</g>
</g>
<!-- Node25 -->
<g id="Node000025" class="node">
<title>Node25</title>
<g id="a_Node000025"><a xlink:href="DirektStereoMeter_8cpp.html" target="_top" xlink:title=" ">
<polygon fill="white" stroke="#666666" points="2559.08,-74 2395.08,-74 2395.08,-55 2559.08,-55 2559.08,-74"/>
<text text-anchor="middle" x="2477.08" y="-62" font-family="Helvetica,sans-Serif" font-size="10.00">display/DirektStereoMeter.cpp</text>
</a>
</g>
</g>
<!-- Node24&#45;&gt;Node25 -->
<g id="edge46_Node000024_Node000025" class="edge">
<title>Node24&#45;&gt;Node25</title>
<g id="a_edge46_Node000024_Node000025"><a xlink:title=" ">
<path fill="none" stroke="#63b8ff" d="M2363.23,-106.55C2390.52,-96.71 2428.59,-82.98 2453.03,-74.17"/>
<polygon fill="#63b8ff" stroke="#63b8ff" points="2361.92,-103.3 2353.7,-109.98 2364.29,-109.89 2361.92,-103.3"/>
</a>
</g>
</g>
<!-- Node26&#45;&gt;Node2 -->
<g id="edge49_Node000026_Node000002" class="edge">
<title>Node26&#45;&gt;Node2</title>
<g id="a_edge49_Node000026_Node000002"><a xlink:title=" ">
<path fill="none" stroke="#63b8ff" d="M1761.23,-156.59C1739.16,-125.32 1693.02,-61.08 1682.08,-55 1612.46,-16.26 1368.42,-11.03 1274.4,-10.49"/>
<polygon fill="#63b8ff" stroke="#63b8ff" points="1758.39,-158.63 1767.01,-164.79 1764.12,-154.6 1758.39,-158.63"/>
</a>
</g>
</g>
<!-- Node26&#45;&gt;Node5 -->
<g id="edge54_Node000026_Node000005" class="edge">
<title>Node26&#45;&gt;Node5</title>
<g id="a_edge54_Node000026_Node000005"><a xlink:title=" ">
<path fill="none" stroke="#63b8ff" d="M1699.95,-174.39C1582.98,-174.45 1347.12,-168.96 1152.08,-129 1126.75,-123.81 1121.85,-117.43 1097.08,-110 1050.19,-95.93 995.37,-82.38 959.99,-74.01"/>
<polygon fill="#63b8ff" stroke="#63b8ff" points="1700.22,-177.89 1710.21,-174.37 1700.2,-170.89 1700.22,-177.89"/>
</a>
</g>
</g>
<!-- Node26&#45;&gt;Node17 -->
<g id="edge55_Node000026_Node000017" class="edge">
<title>Node26&#45;&gt;Node17</title>
<g id="a_edge55_Node000026_Node000017"><a xlink:title=" ">
<path fill="none" stroke="#63b8ff" d="M1809,-161.63C1833.74,-153.19 1867.22,-141.21 1896.08,-129 1913.84,-121.49 1917.46,-117.81 1935.08,-110 1965.26,-96.62 2000.77,-82.69 2023.35,-74.06"/>
<polygon fill="#63b8ff" stroke="#63b8ff" points="1807.66,-158.39 1799.31,-164.91 1809.9,-165.02 1807.66,-158.39"/>
</a>
</g>
</g>
<!-- Node27 -->
<g id="Node000027" class="node">
<title>Node27</title>
<g id="a_Node000027"><a xlink:href="DirektAutoLayout_8h.html" target="_top" xlink:title=" ">
<polygon fill="white" stroke="#666666" points="1886.58,-129 1751.58,-129 1751.58,-110 1886.58,-110 1886.58,-129"/>
<text text-anchor="middle" x="1819.08" y="-117" font-family="Helvetica,sans-Serif" font-size="10.00">core/DirektAutoLayout.h</text>
</a>
</g>
</g>
<!-- Node26&#45;&gt;Node27 -->
<g id="edge50_Node000026_Node000027" class="edge">
<title>Node26&#45;&gt;Node27</title>
<g id="a_edge50_Node000026_Node000027"><a xlink:title=" ">
<path fill="none" stroke="#63b8ff" d="M1787.44,-156.96C1795.46,-147.72 1805.11,-136.6 1811.63,-129.09"/>
<polygon fill="#63b8ff" stroke="#63b8ff" points="1784.59,-154.9 1780.68,-164.75 1789.88,-159.49 1784.59,-154.9"/>
</a>
</g>
</g>
<!-- Node29 -->
<g id="Node000029" class="node">
<title>Node29</title>
<g id="a_Node000029"><a xlink:href="DirektSection_8cpp.html" target="_top" xlink:title=" ">
<polygon fill="white" stroke="#666666" points="2080.58,-129 1943.58,-129 1943.58,-110 2080.58,-110 2080.58,-129"/>
<text text-anchor="middle" x="2012.08" y="-117" font-family="Helvetica,sans-Serif" font-size="10.00">layout/DirektSection.cpp</text>
</a>
</g>
</g>
<!-- Node26&#45;&gt;Node29 -->
<g id="edge56_Node000026_Node000029" class="edge">
<title>Node26&#45;&gt;Node29</title>
<g id="a_edge56_Node000026_Node000029"><a xlink:title=" ">
<path fill="none" stroke="#63b8ff" d="M1821.26,-162.82C1866.05,-152.88 1931.92,-138.28 1973.38,-129.08"/>
<polygon fill="#63b8ff" stroke="#63b8ff" points="1820.49,-159.4 1811.48,-164.98 1822,-166.24 1820.49,-159.4"/>
</a>
</g>
</g>
<!-- Node27&#45;&gt;Node2 -->
<g id="edge51_Node000027_Node000002" class="edge">
<title>Node27&#45;&gt;Node2</title>
<g id="a_edge51_Node000027_Node000002"><a xlink:title=" ">
<path fill="none" stroke="#63b8ff" d="M1858.01,-106.62C1889.62,-95.08 1925.94,-76.22 1906.08,-55 1862.79,-8.73 1409.13,-8.98 1274.53,-10.08"/>
<polygon fill="#63b8ff" stroke="#63b8ff" points="1856.71,-103.37 1848.42,-109.97 1859.02,-109.98 1856.71,-103.37"/>
</a>
</g>
</g>
<!-- Node27&#45;&gt;Node5 -->
<g id="edge53_Node000027_Node000005" class="edge">
<title>Node27&#45;&gt;Node5</title>
<g id="a_edge53_Node000027_Node000005"><a xlink:title=" ">
<path fill="none" stroke="#63b8ff" d="M1741.01,-112.52C1728.66,-111.63 1716.02,-110.76 1704.08,-110 1407.37,-91.04 1332.78,-93.15 1036.08,-74 1020.77,-73.01 1004.3,-71.84 988.79,-70.68"/>
<polygon fill="#63b8ff" stroke="#63b8ff" points="1741.07,-116.03 1751.3,-113.26 1741.57,-109.05 1741.07,-116.03"/>
</a>
</g>
</g>
<!-- Node28 -->
<g id="Node000028" class="node">
<title>Node28</title>
<g id="a_Node000028"><a xlink:href="DirektAutoLayout_8cpp.html" target="_top" xlink:title=" ">
<polygon fill="white" stroke="#666666" points="1897.08,-74 1751.08,-74 1751.08,-55 1897.08,-55 1897.08,-74"/>
<text text-anchor="middle" x="1824.08" y="-62" font-family="Helvetica,sans-Serif" font-size="10.00">core/DirektAutoLayout.cpp</text>
</a>
</g>
</g>
<!-- Node27&#45;&gt;Node28 -->
<g id="edge52_Node000027_Node000028" class="edge">
<title>Node27&#45;&gt;Node28</title>
<g id="a_edge52_Node000027_Node000028"><a xlink:title=" ">
<path fill="none" stroke="#63b8ff" d="M1820.86,-99.66C1821.68,-90.93 1822.62,-80.99 1823.27,-74.09"/>
<polygon fill="#63b8ff" stroke="#63b8ff" points="1817.36,-99.46 1819.91,-109.75 1824.33,-100.12 1817.36,-99.46"/>
</a>
</g>
</g>
<!-- Node30&#45;&gt;Node2 -->
<g id="edge58_Node000030_Node000002" class="edge">
<title>Node30&#45;&gt;Node2</title>
<g id="a_edge58_Node000030_Node000002"><a xlink:title=" ">
<path fill="none" stroke="#63b8ff" d="M2243.34,-108.39C2290.24,-99.2 2336.68,-82.72 2310.08,-55 2291.76,-35.9 1461.35,-15.66 1274.26,-11.34"/>
<polygon fill="#63b8ff" stroke="#63b8ff" points="2242.55,-104.98 2233.36,-110.24 2243.83,-111.86 2242.55,-104.98"/>
</a>
</g>
</g>
<!-- Node30&#45;&gt;Node17 -->
<g id="edge59_Node000030_Node000017" class="edge">
<title>Node30&#45;&gt;Node17</title>
<g id="a_edge59_Node000030_Node000017"><a xlink:title=" ">
<path fill="none" stroke="#63b8ff" d="M2138.31,-105.9C2115.96,-96.11 2085.56,-82.79 2065.88,-74.17"/>
<polygon fill="#63b8ff" stroke="#63b8ff" points="2137.08,-109.18 2147.64,-109.98 2139.89,-102.77 2137.08,-109.18"/>
</a>
</g>
</g>
<!-- Node31 -->
<g id="Node000031" class="node">
<title>Node31</title>
<g id="a_Node000031"><a xlink:href="DirektTabPanel_8cpp.html" target="_top" xlink:title=" ">
<polygon fill="white" stroke="#666666" points="2300.58,-74 2157.58,-74 2157.58,-55 2300.58,-55 2300.58,-74"/>
<text text-anchor="middle" x="2229.08" y="-62" font-family="Helvetica,sans-Serif" font-size="10.00">layout/DirektTabPanel.cpp</text>
</a>
</g>
</g>
<!-- Node30&#45;&gt;Node31 -->
<g id="edge60_Node000030_Node000031" class="edge">
<title>Node30&#45;&gt;Node31</title>
<g id="a_edge60_Node000030_Node000031"><a xlink:title=" ">
<path fill="none" stroke="#63b8ff" d="M2184.84,-103.32C2195.89,-93.87 2209.71,-82.06 2218.94,-74.17"/>
<polygon fill="#63b8ff" stroke="#63b8ff" points="2182.37,-100.83 2177.04,-109.98 2186.92,-106.15 2182.37,-100.83"/>
</a>
</g>
</g>
<!-- Node32&#45;&gt;Node2 -->
<g id="edge62_Node000032_Node000002" class="edge">
<title>Node32&#45;&gt;Node2</title>
<g id="a_edge62_Node000032_Node000002"><a xlink:title=" ">
<path fill="none" stroke="#63b8ff" d="M1237.08,-99.48C1237.08,-75.84 1237.08,-36.5 1237.08,-19.16"/>
<polygon fill="#63b8ff" stroke="#63b8ff" points="1233.58,-99.66 1237.08,-109.66 1240.58,-99.66 1233.58,-99.66"/>
</a>
</g>
</g>
<!-- Node32&#45;&gt;Node5 -->
<g id="edge63_Node000032_Node000005" class="edge">
<title>Node32&#45;&gt;Node5</title>
<g id="a_edge63_Node000032_Node000005"><a xlink:title=" ">
<path fill="none" stroke="#63b8ff" d="M1176.71,-108.31C1117.75,-98.36 1029.03,-83.38 973.67,-74.04"/>
<polygon fill="#63b8ff" stroke="#63b8ff" points="1176.19,-111.77 1186.63,-109.98 1177.35,-104.87 1176.19,-111.77"/>
</a>
</g>
</g>
<!-- Node32&#45;&gt;Node17 -->
<g id="edge64_Node000032_Node000017" class="edge">
<title>Node32&#45;&gt;Node17</title>
<g id="a_edge64_Node000032_Node000017"><a xlink:title=" ">
<path fill="none" stroke="#63b8ff" d="M1323.49,-112.84C1476.78,-102.8 1794.99,-81.95 1952.95,-71.6"/>
<polygon fill="#63b8ff" stroke="#63b8ff" points="1322.94,-109.37 1313.19,-113.51 1323.4,-116.35 1322.94,-109.37"/>
</a>
</g>
</g>
<!-- Node33 -->
<g id="Node000033" class="node">
<title>Node33</title>
<g id="a_Node000033"><a xlink:href="DirektLookAndFeel_8cpp.html" target="_top" xlink:title=" ">
<polygon fill="white" stroke="#666666" points="1209.08,-74 1045.08,-74 1045.08,-55 1209.08,-55 1209.08,-74"/>
<text text-anchor="middle" x="1127.08" y="-62" font-family="Helvetica,sans-Serif" font-size="10.00">theme/DirektLookAndFeel.cpp</text>
</a>
</g>
</g>
<!-- Node32&#45;&gt;Node33 -->
<g id="edge65_Node000032_Node000033" class="edge">
<title>Node32&#45;&gt;Node33</title>
<g id="a_edge65_Node000032_Node000033"><a xlink:title=" ">
<path fill="none" stroke="#63b8ff" d="M1210.38,-105.63C1190.11,-95.87 1162.81,-82.71 1145.08,-74.17"/>
<polygon fill="#63b8ff" stroke="#63b8ff" points="1208.88,-108.8 1219.41,-109.98 1211.92,-102.49 1208.88,-108.8"/>
</a>
</g>
</g>
</g>
</svg>

<g id="navigator" transform="translate(0 0)" fill="#404254">
  <rect fill="#f2f5e9" fill-opacity="0.5" stroke="#606060" stroke-width=".5" x="0" y="0" width="60" height="60"/>
  <use id="zoomplus" xlink:href="#zoomPlus" x="17" y="9" onmousedown="handleZoom(evt,'in')"/>
  <use id="zoomminus" xlink:href="#zoomMin" x="42" y="9" onmousedown="handleZoom(evt,'out')"/>
  <use id="reset" xlink:href="#resetDef" x="30" y="36" onmousedown="handleReset()"/>
   <use id="arrowup" xlink:href="#arrowUp" x="0" y="0" onmousedown="handlePan(0,-1)"/>
  <use id="arrowright" xlink:href="#arrowRight" x="0" y="0" onmousedown="handlePan(1,0)"/>
  <use id="arrowdown" xlink:href="#arrowDown" x="0" y="0" onmousedown="handlePan(0,1)"/>
  <use id="arrowleft" xlink:href="#arrowLeft" x="0" y="0" onmousedown="handlePan(-1,0)"/>
</g>
<svg viewBox="0 0 15 15" width="100%" height="30px" preserveAspectRatio="xMaxYMin meet">
 <g id="arrow_out" transform="scale(0.3 0.3)">
  <a xlink:href="DirektColours_8h__dep__incl_org.svg" target="_base">
   <rect id="button" ry="5" rx="5" y="6" x="6" height="38" width="38"
        fill="#f2f5e9" fill-opacity="0.5" stroke="#606060" stroke-width="1.0"/>
   <path id="arrow"
     d="M 11.500037,31.436501 C 11.940474,20.09759 22.043105,11.32322 32.158766,21.979434 L 37.068811,17.246167 C 37.068811,17.246167 37.088388,32 37.088388,32 L 22.160133,31.978069 C 22.160133,31.978069 26.997745,27.140456 26.997745,27.140456 C 18.528582,18.264221 13.291696,25.230495 11.500037,31.436501 z"
     style="fill:#404040;"/>
  </a>
 </g>
</svg>

<style type='text/css'>
<![CDATA[
[data-mouse-over-selected='false'] { opacity: 0.7; }
[data-mouse-over-selected='true']  { opacity: 1.0; }
]]>
</style>
<script type="application/ecmascript"><![CDATA[
document.addEventListener('DOMContentLoaded', (event) => {
  highlightEdges();
  highlightAdjacentNodes();
});
]]></script>
</svg>
