<?xml version="1.0" encoding="UTF-8" standalone="no"?>
<!DOCTYPE svg PUBLIC "-//W3C//DTD SVG 1.1//EN"
 "http://www.w3.org/Graphics/SVG/1.1/DTD/svg11.dtd">
<!-- Generated by graphviz version 2.43.0 (0)
 -->
<!-- Title: layout/DirektSection.cpp Pages: 1 -->
<svg width="196pt" height="203pt"
 viewBox="0.00 0.00 196.00 203.00" xmlns="http://www.w3.org/2000/svg" xmlns:xlink="http://www.w3.org/1999/xlink">
<g id="graph0" class="graph" transform="scale(1 1) rotate(0) translate(4 199)">
<title>layout/DirektSection.cpp</title>
<!-- Node1 -->
<g id="Node000001" class="node">
<title>Node1</title>
<g id="a_Node000001"><a xlink:title=" ">
<polygon fill="#999999" stroke="#666666" points="182,-195 45,-195 45,-176 182,-176 182,-195"/>
<text text-anchor="middle" x="113.5" y="-183" font-family="Helvetica,sans-Serif" font-size="10.00">layout/DirektSection.cpp</text>
</a>
</g>
</g>
<!-- Node2 -->
<g id="Node000002" class="node">
<title>Node2</title>
<g id="a_Node000002"><a xlink:href="DirektSection_8h.html" target="_top" xlink:title=" ">
<polygon fill="white" stroke="#666666" points="125,-140 0,-140 0,-121 125,-121 125,-140"/>
<text text-anchor="middle" x="62.5" y="-128" font-family="Helvetica,sans-Serif" font-size="10.00">layout/DirektSection.h</text>
</a>
</g>
</g>
<!-- Node1&#45;&gt;Node2 -->
<g id="edge1_Node000001_Node000002" class="edge">
<title>Node1&#45;&gt;Node2</title>
<g id="a_edge1_Node000001_Node000002"><a xlink:title=" ">
<path fill="none" stroke="#63b8ff" d="M105.08,-175.75C97.73,-168.11 86.87,-156.82 77.96,-147.56"/>
<polygon fill="#63b8ff" stroke="#63b8ff" points="80.22,-144.87 70.76,-140.09 75.18,-149.72 80.22,-144.87"/>
</a>
</g>
</g>
<!-- Node5 -->
<g id="Node000005" class="node">
<title>Node5</title>
<g id="a_Node000005"><a xlink:title=" ">
<polygon fill="#e0e0e0" stroke="#999999" points="188,-140 143,-140 143,-121 188,-121 188,-140"/>
<text text-anchor="middle" x="165.5" y="-128" font-family="Helvetica,sans-Serif" font-size="10.00">utility</text>
</a>
</g>
</g>
<!-- Node1&#45;&gt;Node5 -->
<g id="edge5_Node000001_Node000005" class="edge">
<title>Node1&#45;&gt;Node5</title>
<g id="a_edge5_Node000001_Node000005"><a xlink:title=" ">
<path fill="none" stroke="#63b8ff" d="M122.09,-175.75C129.66,-168.03 140.88,-156.6 150.01,-147.28"/>
<polygon fill="#63b8ff" stroke="#63b8ff" points="152.57,-149.68 157.07,-140.09 147.57,-144.78 152.57,-149.68"/>
</a>
</g>
</g>
<!-- Node3 -->
<g id="Node000003" class="node">
<title>Node3</title>
<g id="a_Node000003"><a xlink:title=" ">
<polygon fill="#e0e0e0" stroke="#999999" points="120.5,-30 4.5,-30 4.5,0 120.5,0 120.5,-30"/>
<text text-anchor="start" x="12.5" y="-18" font-family="Helvetica,sans-Serif" font-size="10.00">juce_gui_basics/juce</text>
<text text-anchor="middle" x="62.5" y="-7" font-family="Helvetica,sans-Serif" font-size="10.00">_gui_basics.h</text>
</a>
</g>
</g>
<!-- Node2&#45;&gt;Node3 -->
<g id="edge2_Node000002_Node000003" class="edge">
<title>Node2&#45;&gt;Node3</title>
<g id="a_edge2_Node000002_Node000003"><a xlink:title=" ">
<path fill="none" stroke="#63b8ff" d="M55.35,-120.97C48.73,-112.48 39.35,-98.75 35.5,-85 31.08,-69.2 37.77,-52.01 45.59,-38.74"/>
<polygon fill="#63b8ff" stroke="#63b8ff" points="48.59,-40.55 51.07,-30.25 42.71,-36.76 48.59,-40.55"/>
</a>
</g>
</g>
<!-- Node4 -->
<g id="Node000004" class="node">
<title>Node4</title>
<g id="a_Node000004"><a xlink:href="DirektColours_8h.html" target="_top" xlink:title=" ">
<polygon fill="white" stroke="#666666" points="172,-85 45,-85 45,-66 172,-66 172,-85"/>
<text text-anchor="middle" x="108.5" y="-73" font-family="Helvetica,sans-Serif" font-size="10.00">theme/DirektColours.h</text>
</a>
</g>
</g>
<!-- Node2&#45;&gt;Node4 -->
<g id="edge3_Node000002_Node000004" class="edge">
<title>Node2&#45;&gt;Node4</title>
<g id="a_edge3_Node000002_Node000004"><a xlink:title=" ">
<path fill="none" stroke="#63b8ff" d="M70.1,-120.75C76.66,-113.18 86.32,-102.05 94.31,-92.84"/>
<polygon fill="#63b8ff" stroke="#63b8ff" points="97.13,-94.94 101.05,-85.09 91.85,-90.35 97.13,-94.94"/>
</a>
</g>
</g>
<!-- Node4&#45;&gt;Node3 -->
<g id="edge4_Node000004_Node000003" class="edge">
<title>Node4&#45;&gt;Node3</title>
<g id="a_edge4_Node000004_Node000003"><a xlink:title=" ">
<path fill="none" stroke="#63b8ff" d="M101.71,-65.87C95.99,-58.59 87.55,-47.85 79.96,-38.2"/>
<polygon fill="#63b8ff" stroke="#63b8ff" points="82.53,-35.81 73.6,-30.11 77.03,-40.14 82.53,-35.81"/>
</a>
</g>
</g>
</g>
</svg>
