<?xml version="1.0" encoding="UTF-8" standalone="no"?>
<!DOCTYPE svg PUBLIC "-//W3C//DTD SVG 1.1//EN"
 "http://www.w3.org/Graphics/SVG/1.1/DTD/svg11.dtd">
<!-- Generated by graphviz version 2.43.0 (0)
 -->
<!-- Title: theme/DirektColours.h Pages: 1 -->
<!--zoomable 247 -->

<svg id="main" version="1.1" xmlns="http://www.w3.org/2000/svg" xmlns:xlink="http://www.w3.org/1999/xlink" xml:space="preserve" onload="init(evt)">
<style type="text/css"><![CDATA[
.node, .edge {opacity: 0.7;}
.node.selected, .edge.selected {opacity: 1;}
.edge:hover path { stroke: red; }
.edge:hover polygon { stroke: red; fill: red; }
]]></style>

<defs>
  <circle id="rim" cx="0" cy="0" r="7"/>
  <circle id="rim2" cx="0" cy="0" r="3.5"/>
  <g id="zoomPlus">
    <use xlink:href="#rim" fill="#404040"><set attributeName="fill" to="#808080" begin="zoomplus.mouseover" end="zoomplus.mouseout"/></use>
    <path d="M-4,0h8M0,-4v8" fill="none" stroke="white" stroke-width="1.5" pointer-events="none"/>
  </g>
  <g id="zoomMin">
    <use xlink:href="#rim" fill="#404040"><set attributeName="fill" to="#808080" begin="zoomminus.mouseover" end="zoomminus.mouseout"/></use>
    <path d="M-4,0h8" fill="none" stroke="white" stroke-width="1.5" pointer-events="none"/>
  </g>
  <g id="arrowUp" transform="translate(30 24)">
    <use xlink:href="#rim"/>
    <path pointer-events="none" fill="none" stroke="white" stroke-width="1.5" d="M0,-3.0v7 M-2.5,-0.5L0,-3.0L2.5,-0.5"/>
  </g>
  <g id="arrowRight" transform="rotate(90) translate(36 -43)">
    <use xlink:href="#rim"/>
    <path pointer-events="none" fill="none" stroke="white" stroke-width="1.5" d="M0,-3.0v7 M-2.5,-0.5L0,-3.0L2.5,-0.5"/>
  </g>
  <g id="arrowDown" transform="rotate(180) translate(-30 -48)">
    <use xlink:href="#rim"/>
    <path pointer-events="none" fill="none" stroke="white" stroke-width="1.5" d="M0,-3.0v7 M-2.5,-0.5L0,-3.0L2.5,-0.5"/>
  </g>
  <g id="arrowLeft" transform="rotate(270) translate(-36 17)">
    <use xlink:href="#rim"/>
    <path pointer-events="none" fill="none" stroke="white" stroke-width="1.5" d="M0,-3.0v7 M-2.5,-0.5L0,-3.0L2.5,-0.5"/>
  </g>
  <g id="resetDef">
    <use xlink:href="#rim2" fill="#404040"><set attributeName="fill" to="#808080" begin="reset.mouseover" end="reset.mouseout"/></use>
  </g>
</defs>
<script type="application/ecmascript">
var viewWidth = 2392;
var viewHeight = 247;
var sectionId = 'dynsection-1';
</script>
<script type="application/ecmascript" xlink:href="svg.min.js"/>
<svg id="graph" class="graph">
<g id="viewport">
<title>theme/DirektColours.h</title>
<!-- Node1 -->
<g id="Node000001" class="node">
<title>Node1</title>
<g id="a_Node000001"><a xlink:title=" ">
<polygon fill="#999999" stroke="#666666" points="1224.31,-239 1097.31,-239 1097.31,-220 1224.31,-220 1224.31,-239"/>
<text text-anchor="middle" x="1160.81" y="-227" font-family="Helvetica,sans-Serif" font-size="10.00">theme/DirektColours.h</text>
</a>
</g>
</g>
<!-- Node2 -->
<g id="Node000002" class="node">
<title>Node2</title>
<g id="a_Node000002"><a xlink:href="DirektDSP_8h.html" target="_top" xlink:title=" ">
<polygon fill="white" stroke="#666666" points="1053.81,-19 979.81,-19 979.81,0 1053.81,0 1053.81,-19"/>
<text text-anchor="middle" x="1016.81" y="-7" font-family="Helvetica,sans-Serif" font-size="10.00">DirektDSP.h</text>
</a>
</g>
</g>
<!-- Node1&#45;&gt;Node2 -->
<g id="edge1_Node000001_Node000002" class="edge">
<title>Node1&#45;&gt;Node2</title>
<g id="a_edge1_Node000001_Node000002"><a xlink:title=" ">
<path fill="none" stroke="#63b8ff" d="M1086.96,-228.81C939.34,-228.5 597.65,-223.16 313.81,-184 168.99,-164.02 65.82,-206.39 3.81,-74 0.23,-66.35 -2.02,-61.1 3.81,-55 38.2,-19.07 801.36,-11.9 979.76,-10.71"/>
<polygon fill="#63b8ff" stroke="#63b8ff" points="1087.24,-232.31 1097.25,-228.82 1087.25,-225.31 1087.24,-232.31"/>
</a>
</g>
</g>
<!-- Node3 -->
<g id="Node000003" class="node">
<title>Node3</title>
<g id="a_Node000003"><a xlink:href="DirektFooter_8h.html" target="_top" xlink:title=" ">
<polygon fill="white" stroke="#666666" points="204.31,-129 79.31,-129 79.31,-110 204.31,-110 204.31,-129"/>
<text text-anchor="middle" x="141.81" y="-117" font-family="Helvetica,sans-Serif" font-size="10.00">chrome/DirektFooter.h</text>
</a>
</g>
</g>
<!-- Node1&#45;&gt;Node3 -->
<g id="edge2_Node000001_Node000003" class="edge">
<title>Node1&#45;&gt;Node3</title>
<g id="a_edge2_Node000001_Node000003"><a xlink:title=" ">
<path fill="none" stroke="#63b8ff" d="M1087.1,-228.16C953.01,-226.64 660.52,-219.17 416.81,-184 326.37,-170.95 221.75,-143.21 171.62,-129.11"/>
<polygon fill="#63b8ff" stroke="#63b8ff" points="1087.22,-231.66 1097.25,-228.27 1087.29,-224.66 1087.22,-231.66"/>
</a>
</g>
</g>
<!-- Node5 -->
<g id="Node000005" class="node">
<title>Node5</title>
<g id="a_Node000005"><a xlink:href="DirektBaseEditor_8h.html" target="_top" xlink:title=" ">
<polygon fill="white" stroke="#666666" points="756.31,-74 625.31,-74 625.31,-55 756.31,-55 756.31,-74"/>
<text text-anchor="middle" x="690.81" y="-62" font-family="Helvetica,sans-Serif" font-size="10.00">core/DirektBaseEditor.h</text>
</a>
</g>
</g>
<!-- Node1&#45;&gt;Node5 -->
<g id="edge25_Node000001_Node000005" class="edge">
<title>Node1&#45;&gt;Node5</title>
<g id="a_edge25_Node000001_Node000005"><a xlink:title=" ">
<path fill="none" stroke="#63b8ff" d="M1087.23,-227.47C943.94,-223.75 635.77,-206.67 570.81,-129 547.23,-100.79 596.95,-83.38 639.39,-74.09"/>
<polygon fill="#63b8ff" stroke="#63b8ff" points="1087.17,-230.97 1097.26,-227.72 1087.35,-223.98 1087.17,-230.97"/>
</a>
</g>
</g>
<!-- Node7 -->
<g id="Node000007" class="node">
<title>Node7</title>
<g id="a_Node000007"><a xlink:href="DirektHeader_8h.html" target="_top" xlink:title=" ">
<polygon fill="white" stroke="#666666" points="352.81,-129 222.81,-129 222.81,-110 352.81,-110 352.81,-129"/>
<text text-anchor="middle" x="287.81" y="-117" font-family="Helvetica,sans-Serif" font-size="10.00">chrome/DirektHeader.h</text>
</a>
</g>
</g>
<!-- Node1&#45;&gt;Node7 -->
<g id="edge8_Node000001_Node000007" class="edge">
<title>Node1&#45;&gt;Node7</title>
<g id="a_edge8_Node000001_Node000007"><a xlink:title=" ">
<path fill="none" stroke="#63b8ff" d="M1087.08,-228.97C963.97,-228.55 709.21,-222.54 497.81,-184 427.74,-171.23 347.99,-143.23 310.09,-129.07"/>
<polygon fill="#63b8ff" stroke="#63b8ff" points="1087.14,-232.47 1097.15,-228.99 1087.16,-225.47 1087.14,-232.47"/>
</a>
</g>
</g>
<!-- Node9 -->
<g id="Node000009" class="node">
<title>Node9</title>
<g id="a_Node000009"><a xlink:href="DirektPopupPanel_8h.html" target="_top" xlink:title=" ">
<polygon fill="white" stroke="#666666" points="522.81,-129 370.81,-129 370.81,-110 522.81,-110 522.81,-129"/>
<text text-anchor="middle" x="446.81" y="-117" font-family="Helvetica,sans-Serif" font-size="10.00">chrome/DirektPopupPanel.h</text>
</a>
</g>
</g>
<!-- Node1&#45;&gt;Node9 -->
<g id="edge12_Node000001_Node000009" class="edge">
<title>Node1&#45;&gt;Node9</title>
<g id="a_edge12_Node000001_Node000009"><a xlink:title=" ">
<path fill="none" stroke="#63b8ff" d="M1086.78,-228.17C944.06,-226.73 636.17,-219.46 536.81,-184 502.96,-171.92 470.29,-143.33 455.32,-129"/>
<polygon fill="#63b8ff" stroke="#63b8ff" points="1087.15,-231.67 1097.18,-228.27 1087.21,-224.67 1087.15,-231.67"/>
</a>
</g>
</g>
<!-- Node11 -->
<g id="Node000011" class="node">
<title>Node11</title>
<g id="a_Node000011"><a xlink:href="DirektPresetBrowser_8h.html" target="_top" xlink:title=" ">
<polygon fill="white" stroke="#666666" points="744.31,-129 579.31,-129 579.31,-110 744.31,-110 744.31,-129"/>
<text text-anchor="middle" x="661.81" y="-117" font-family="Helvetica,sans-Serif" font-size="10.00">chrome/DirektPresetBrowser.h</text>
</a>
</g>
</g>
<!-- Node1&#45;&gt;Node11 -->
<g id="edge16_Node000001_Node000011" class="edge">
<title>Node1&#45;&gt;Node11</title>
<g id="a_edge16_Node000001_Node000011"><a xlink:title=" ">
<path fill="none" stroke="#63b8ff" d="M1111.19,-217.76C1012.11,-196.32 791.56,-148.58 701.39,-129.07"/>
<polygon fill="#63b8ff" stroke="#63b8ff" points="1110.73,-221.24 1121.24,-219.94 1112.21,-214.4 1110.73,-221.24"/>
</a>
</g>
</g>
<!-- Node13 -->
<g id="Node000013" class="node">
<title>Node13</title>
<g id="a_Node000013"><a xlink:href="DirektConfig_8h.html" target="_top" xlink:title=" ">
<polygon fill="white" stroke="#666666" points="881.31,-129 762.31,-129 762.31,-110 881.31,-110 881.31,-129"/>
<text text-anchor="middle" x="821.81" y="-117" font-family="Helvetica,sans-Serif" font-size="10.00">config/DirektConfig.h</text>
</a>
</g>
</g>
<!-- Node1&#45;&gt;Node13 -->
<g id="edge20_Node000001_Node000013" class="edge">
<title>Node1&#45;&gt;Node13</title>
<g id="a_edge20_Node000001_Node000013"><a xlink:title=" ">
<path fill="none" stroke="#63b8ff" d="M1123.98,-216.77C1055.27,-194.87 909.03,-148.29 848.7,-129.07"/>
<polygon fill="#63b8ff" stroke="#63b8ff" points="1123.34,-220.23 1133.93,-219.94 1125.46,-213.56 1123.34,-220.23"/>
</a>
</g>
</g>
<!-- Node14 -->
<g id="Node000014" class="node">
<title>Node14</title>
<g id="a_Node000014"><a xlink:href="DirektComboBox_8cpp.html" target="_top" xlink:title=" ">
<polygon fill="white" stroke="#666666" points="2231.81,-184 2069.81,-184 2069.81,-165 2231.81,-165 2231.81,-184"/>
<text text-anchor="middle" x="2150.81" y="-172" font-family="Helvetica,sans-Serif" font-size="10.00">controls/DirektComboBox.cpp</text>
</a>
</g>
</g>
<!-- Node1&#45;&gt;Node14 -->
<g id="edge23_Node000001_Node000014" class="edge">
<title>Node1&#45;&gt;Node14</title>
<g id="a_edge23_Node000001_Node000014"><a xlink:title=" ">
<path fill="none" stroke="#63b8ff" d="M1234.7,-225.97C1388.54,-220.45 1754.41,-206.03 2060.81,-184 2063.63,-183.8 2066.5,-183.58 2069.39,-183.35"/>
<polygon fill="#63b8ff" stroke="#63b8ff" points="1234.3,-222.48 1224.44,-226.33 1234.55,-229.47 1234.3,-222.48"/>
</a>
</g>
</g>
<!-- Node15 -->
<g id="Node000015" class="node">
<title>Node15</title>
<g id="a_Node000015"><a xlink:href="DirektKnob_8cpp.html" target="_top" xlink:title=" ">
<polygon fill="white" stroke="#666666" points="2383.81,-184 2249.81,-184 2249.81,-165 2383.81,-165 2383.81,-184"/>
<text text-anchor="middle" x="2316.81" y="-172" font-family="Helvetica,sans-Serif" font-size="10.00">controls/DirektKnob.cpp</text>
</a>
</g>
</g>
<!-- Node1&#45;&gt;Node15 -->
<g id="edge24_Node000001_Node000015" class="edge">
<title>Node1&#45;&gt;Node15</title>
<g id="a_edge24_Node000001_Node000015"><a xlink:title=" ">
<path fill="none" stroke="#63b8ff" d="M1234.63,-227.24C1409.59,-223.88 1863.12,-212.87 2240.81,-184 2243.73,-183.78 2246.7,-183.53 2249.7,-183.26"/>
<polygon fill="#63b8ff" stroke="#63b8ff" points="1234.44,-223.75 1224.51,-227.44 1234.57,-230.75 1234.44,-223.75"/>
</a>
</g>
</g>
<!-- Node16 -->
<g id="Node000016" class="node">
<title>Node16</title>
<g id="a_Node000016"><a xlink:href="DirektComponentRegistry_8cpp.html" target="_top" xlink:title=" ">
<polygon fill="white" stroke="#666666" points="1916.81,-129 1730.81,-129 1730.81,-110 1916.81,-110 1916.81,-129"/>
<text text-anchor="middle" x="1823.81" y="-117" font-family="Helvetica,sans-Serif" font-size="10.00">core/DirektComponentRegistry.cpp</text>
</a>
</g>
</g>
<!-- Node1&#45;&gt;Node16 -->
<g id="edge26_Node000001_Node000016" class="edge">
<title>Node1&#45;&gt;Node16</title>
<g id="a_edge26_Node000001_Node000016"><a xlink:title=" ">
<path fill="none" stroke="#63b8ff" d="M1234.83,-227.56C1368.16,-225.06 1643.12,-216.08 1732.81,-184 1766.55,-171.93 1799.3,-143.88 1814.69,-129.44"/>
<polygon fill="#63b8ff" stroke="#63b8ff" points="1234.64,-224.06 1224.71,-227.74 1234.77,-231.06 1234.64,-224.06"/>
</a>
</g>
</g>
<!-- Node17 -->
<g id="Node000017" class="node">
<title>Node17</title>
<g id="a_Node000017"><a xlink:href="DirektLabel_8h.html" target="_top" xlink:title=" ">
<polygon fill="white" stroke="#666666" points="1404.81,-184 1284.81,-184 1284.81,-165 1404.81,-165 1404.81,-184"/>
<text text-anchor="middle" x="1344.81" y="-172" font-family="Helvetica,sans-Serif" font-size="10.00">display/DirektLabel.h</text>
</a>
</g>
</g>
<!-- Node1&#45;&gt;Node17 -->
<g id="edge27_Node000001_Node000017" class="edge">
<title>Node1&#45;&gt;Node17</title>
<g id="a_edge27_Node000001_Node000017"><a xlink:title=" ">
<path fill="none" stroke="#63b8ff" d="M1200.1,-217.18C1234.51,-207.27 1283.77,-193.08 1315.02,-184.08"/>
<polygon fill="#63b8ff" stroke="#63b8ff" points="1199.02,-213.85 1190.38,-219.98 1200.96,-220.58 1199.02,-213.85"/>
</a>
</g>
</g>
<!-- Node19 -->
<g id="Node000019" class="node">
<title>Node19</title>
<g id="a_Node000019"><a xlink:href="DirektMeter_8h.html" target="_top" xlink:title=" ">
<polygon fill="white" stroke="#666666" points="1901.81,-184 1779.81,-184 1779.81,-165 1901.81,-165 1901.81,-184"/>
<text text-anchor="middle" x="1840.81" y="-172" font-family="Helvetica,sans-Serif" font-size="10.00">display/DirektMeter.h</text>
</a>
</g>
</g>
<!-- Node1&#45;&gt;Node19 -->
<g id="edge31_Node000001_Node000019" class="edge">
<title>Node1&#45;&gt;Node19</title>
<g id="a_edge31_Node000001_Node000019"><a xlink:title=" ">
<path fill="none" stroke="#63b8ff" d="M1234.48,-224.02C1348.48,-216.88 1574.45,-201.87 1765.81,-184 1770.25,-183.59 1774.83,-183.13 1779.44,-182.66"/>
<polygon fill="#63b8ff" stroke="#63b8ff" points="1234.23,-220.53 1224.47,-224.65 1234.67,-227.52 1234.23,-220.53"/>
</a>
</g>
</g>
<!-- Node21 -->
<g id="Node000021" class="node">
<title>Node21</title>
<g id="a_Node000021"><a xlink:href="DirektSection_8h.html" target="_top" xlink:title=" ">
<polygon fill="white" stroke="#666666" points="1223.31,-184 1098.31,-184 1098.31,-165 1223.31,-165 1223.31,-184"/>
<text text-anchor="middle" x="1160.81" y="-172" font-family="Helvetica,sans-Serif" font-size="10.00">layout/DirektSection.h</text>
</a>
</g>
</g>
<!-- Node1&#45;&gt;Node21 -->
<g id="edge36_Node000001_Node000021" class="edge">
<title>Node1&#45;&gt;Node21</title>
<g id="a_edge36_Node000001_Node000021"><a xlink:title=" ">
<path fill="none" stroke="#63b8ff" d="M1160.81,-209.66C1160.81,-200.93 1160.81,-190.99 1160.81,-184.09"/>
<polygon fill="#63b8ff" stroke="#63b8ff" points="1157.31,-209.75 1160.81,-219.75 1164.31,-209.75 1157.31,-209.75"/>
</a>
</g>
</g>
<!-- Node25 -->
<g id="Node000025" class="node">
<title>Node25</title>
<g id="a_Node000025"><a xlink:href="DirektTabPanel_8h.html" target="_top" xlink:title=" ">
<polygon fill="white" stroke="#666666" points="2051.81,-184 1919.81,-184 1919.81,-165 2051.81,-165 2051.81,-184"/>
<text text-anchor="middle" x="1985.81" y="-172" font-family="Helvetica,sans-Serif" font-size="10.00">layout/DirektTabPanel.h</text>
</a>
</g>
</g>
<!-- Node1&#45;&gt;Node25 -->
<g id="edge45_Node000001_Node000025" class="edge">
<title>Node1&#45;&gt;Node25</title>
<g id="a_edge45_Node000001_Node000025"><a xlink:title=" ">
<path fill="none" stroke="#63b8ff" d="M1234.8,-225.43C1369.46,-219.54 1663.52,-205.33 1910.81,-184 1913.69,-183.75 1916.62,-183.48 1919.58,-183.2"/>
<polygon fill="#63b8ff" stroke="#63b8ff" points="1234.45,-221.94 1224.61,-225.87 1234.75,-228.93 1234.45,-221.94"/>
</a>
</g>
</g>
<!-- Node27 -->
<g id="Node000027" class="node">
<title>Node27</title>
<g id="a_Node000027"><a xlink:href="DirektLookAndFeel_8h.html" target="_top" xlink:title=" ">
<polygon fill="white" stroke="#666666" points="1723.81,-184 1571.81,-184 1571.81,-165 1723.81,-165 1723.81,-184"/>
<text text-anchor="middle" x="1647.81" y="-172" font-family="Helvetica,sans-Serif" font-size="10.00">theme/DirektLookAndFeel.h</text>
</a>
</g>
</g>
<!-- Node1&#45;&gt;Node27 -->
<g id="edge49_Node000001_Node000027" class="edge">
<title>Node1&#45;&gt;Node27</title>
<g id="a_edge49_Node000001_Node000027"><a xlink:title=" ">
<path fill="none" stroke="#63b8ff" d="M1234.44,-220.49C1325.46,-210.58 1479.58,-193.81 1571.72,-183.78"/>
<polygon fill="#63b8ff" stroke="#63b8ff" points="1234.04,-217.01 1224.48,-221.57 1234.8,-223.97 1234.04,-217.01"/>
</a>
</g>
</g>
<!-- Node3&#45;&gt;Node2 -->
<g id="edge3_Node000003_Node000002" class="edge">
<title>Node3&#45;&gt;Node2</title>
<g id="a_edge3_Node000003_Node000002"><a xlink:title=" ">
<path fill="none" stroke="#63b8ff" d="M151.66,-101.06C161.27,-85.9 177.41,-64.88 197.81,-55 268.74,-20.64 829.44,-12.43 979.81,-10.84"/>
<polygon fill="#63b8ff" stroke="#63b8ff" points="148.44,-99.61 146.31,-109.99 154.45,-103.21 148.44,-99.61"/>
</a>
</g>
</g>
<!-- Node4 -->
<g id="Node000004" class="node">
<title>Node4</title>
<g id="a_Node000004"><a xlink:href="DirektFooter_8cpp.html" target="_top" xlink:title=" ">
<polygon fill="white" stroke="#666666" points="150.31,-74 13.31,-74 13.31,-55 150.31,-55 150.31,-74"/>
<text text-anchor="middle" x="81.81" y="-62" font-family="Helvetica,sans-Serif" font-size="10.00">chrome/DirektFooter.cpp</text>
</a>
</g>
</g>
<!-- Node3&#45;&gt;Node4 -->
<g id="edge4_Node000003_Node000004" class="edge">
<title>Node3&#45;&gt;Node4</title>
<g id="a_edge4_Node000003_Node000004"><a xlink:title=" ">
<path fill="none" stroke="#63b8ff" d="M124.63,-103.32C113.94,-93.87 100.56,-82.06 91.63,-74.17"/>
<polygon fill="#63b8ff" stroke="#63b8ff" points="122.36,-105.99 132.17,-109.98 127,-100.74 122.36,-105.99"/>
</a>
</g>
</g>
<!-- Node3&#45;&gt;Node5 -->
<g id="edge5_Node000003_Node000005" class="edge">
<title>Node3&#45;&gt;Node5</title>
<g id="a_edge5_Node000003_Node000005"><a xlink:title=" ">
<path fill="none" stroke="#63b8ff" d="M214.71,-109.93C368,-93.83 535.15,-78.92 625.18,-71.11"/>
<polygon fill="#63b8ff" stroke="#63b8ff" points="214.21,-106.46 204.63,-110.99 214.95,-113.42 214.21,-106.46"/>
</a>
</g>
</g>
<!-- Node5&#45;&gt;Node2 -->
<g id="edge6_Node000005_Node000002" class="edge">
<title>Node5&#45;&gt;Node2</title>
<g id="a_edge6_Node000005_Node000002"><a xlink:title=" ">
<path fill="none" stroke="#63b8ff" d="M753.21,-53.36C820.27,-42.45 924.63,-25.49 979.78,-16.52"/>
<polygon fill="#63b8ff" stroke="#63b8ff" points="752.5,-49.93 743.19,-54.98 753.62,-56.83 752.5,-49.93"/>
</a>
</g>
</g>
<!-- Node6 -->
<g id="Node000006" class="node">
<title>Node6</title>
<g id="a_Node000006"><a xlink:href="DirektBaseEditor_8cpp.html" target="_top" xlink:title=" ">
<polygon fill="white" stroke="#666666" points="1634.31,-19 1491.31,-19 1491.31,0 1634.31,0 1634.31,-19"/>
<text text-anchor="middle" x="1562.81" y="-7" font-family="Helvetica,sans-Serif" font-size="10.00">core/DirektBaseEditor.cpp</text>
</a>
</g>
</g>
<!-- Node5&#45;&gt;Node6 -->
<g id="edge7_Node000005_Node000006" class="edge">
<title>Node5&#45;&gt;Node6</title>
<g id="a_edge7_Node000005_Node000006"><a xlink:title=" ">
<path fill="none" stroke="#63b8ff" d="M766.78,-54.97C1040.77,-32.08 1353.34,-18.48 1491.28,-13.12"/>
<polygon fill="#63b8ff" stroke="#63b8ff" points="766.32,-51.5 756.64,-55.82 766.9,-58.47 766.32,-51.5"/>
</a>
</g>
</g>
<!-- Node7&#45;&gt;Node2 -->
<g id="edge9_Node000007_Node000002" class="edge">
<title>Node7&#45;&gt;Node2</title>
<g id="a_edge9_Node000007_Node000002"><a xlink:title=" ">
<path fill="none" stroke="#63b8ff" d="M309.21,-104.46C335.48,-87.51 378.75,-60.58 396.81,-55 506.63,-21.08 862.92,-12.8 979.51,-10.97"/>
<polygon fill="#63b8ff" stroke="#63b8ff" points="307.18,-101.61 300.7,-109.99 310.99,-107.48 307.18,-101.61"/>
</a>
</g>
</g>
<!-- Node7&#45;&gt;Node5 -->
<g id="edge11_Node000007_Node000005" class="edge">
<title>Node7&#45;&gt;Node5</title>
<g id="a_edge11_Node000007_Node000005"><a xlink:title=" ">
<path fill="none" stroke="#63b8ff" d="M362.5,-108.68C438.14,-98.73 553.96,-83.5 625.89,-74.04"/>
<polygon fill="#63b8ff" stroke="#63b8ff" points="362.02,-105.21 352.56,-109.98 362.93,-112.15 362.02,-105.21"/>
</a>
</g>
</g>
<!-- Node8 -->
<g id="Node000008" class="node">
<title>Node8</title>
<g id="a_Node000008"><a xlink:href="DirektHeader_8cpp.html" target="_top" xlink:title=" ">
<polygon fill="white" stroke="#666666" points="348.31,-74 207.31,-74 207.31,-55 348.31,-55 348.31,-74"/>
<text text-anchor="middle" x="277.81" y="-62" font-family="Helvetica,sans-Serif" font-size="10.00">chrome/DirektHeader.cpp</text>
</a>
</g>
</g>
<!-- Node7&#45;&gt;Node8 -->
<g id="edge10_Node000007_Node000008" class="edge">
<title>Node7&#45;&gt;Node8</title>
<g id="a_edge10_Node000007_Node000008"><a xlink:title=" ">
<path fill="none" stroke="#63b8ff" d="M284.26,-99.66C282.61,-90.93 280.74,-80.99 279.44,-74.09"/>
<polygon fill="#63b8ff" stroke="#63b8ff" points="280.87,-100.57 286.16,-109.75 287.75,-99.27 280.87,-100.57"/>
</a>
</g>
</g>
<!-- Node9&#45;&gt;Node2 -->
<g id="edge13_Node000009_Node000002" class="edge">
<title>Node9&#45;&gt;Node2</title>
<g id="a_edge13_Node000009_Node000002"><a xlink:title=" ">
<path fill="none" stroke="#63b8ff" d="M484.93,-106.95C511.32,-98.62 547.09,-86.64 577.81,-74 595.64,-66.66 598.3,-60.37 616.81,-55 746.34,-17.46 907.92,-11.23 979.6,-10.44"/>
<polygon fill="#63b8ff" stroke="#63b8ff" points="483.8,-103.64 475.3,-109.96 485.89,-110.32 483.8,-103.64"/>
</a>
</g>
</g>
<!-- Node9&#45;&gt;Node5 -->
<g id="edge15_Node000009_Node000005" class="edge">
<title>Node9&#45;&gt;Node5</title>
<g id="a_edge15_Node000009_Node000005"><a xlink:title=" ">
<path fill="none" stroke="#63b8ff" d="M496,-107.82C541.73,-97.88 608.98,-83.28 651.3,-74.08"/>
<polygon fill="#63b8ff" stroke="#63b8ff" points="495.05,-104.44 486.02,-109.98 496.53,-111.28 495.05,-104.44"/>
</a>
</g>
</g>
<!-- Node10 -->
<g id="Node000010" class="node">
<title>Node10</title>
<g id="a_Node000010"><a xlink:href="DirektPopupPanel_8cpp.html" target="_top" xlink:title=" ">
<polygon fill="white" stroke="#666666" points="568.31,-74 405.31,-74 405.31,-55 568.31,-55 568.31,-74"/>
<text text-anchor="middle" x="486.81" y="-62" font-family="Helvetica,sans-Serif" font-size="10.00">chrome/DirektPopupPanel.cpp</text>
</a>
</g>
</g>
<!-- Node9&#45;&gt;Node10 -->
<g id="edge14_Node000009_Node000010" class="edge">
<title>Node9&#45;&gt;Node10</title>
<g id="a_edge14_Node000009_Node000010"><a xlink:title=" ">
<path fill="none" stroke="#63b8ff" d="M459.51,-101.67C466.44,-92.5 474.72,-81.52 480.33,-74.09"/>
<polygon fill="#63b8ff" stroke="#63b8ff" points="456.65,-99.66 453.42,-109.75 462.24,-103.87 456.65,-99.66"/>
</a>
</g>
</g>
<!-- Node11&#45;&gt;Node2 -->
<g id="edge17_Node000011_Node000002" class="edge">
<title>Node11&#45;&gt;Node2</title>
<g id="a_edge17_Node000011_Node000002"><a xlink:title=" ">
<path fill="none" stroke="#63b8ff" d="M747.01,-108.76C828.37,-98.98 941.29,-83.97 959.81,-74 984.08,-60.94 1003.17,-33.34 1011.8,-19.22"/>
<polygon fill="#63b8ff" stroke="#63b8ff" points="746.27,-105.33 736.75,-109.99 747.1,-112.28 746.27,-105.33"/>
</a>
</g>
</g>
<!-- Node11&#45;&gt;Node5 -->
<g id="edge19_Node000011_Node000005" class="edge">
<title>Node11&#45;&gt;Node5</title>
<g id="a_edge19_Node000011_Node000005"><a xlink:title=" ">
<path fill="none" stroke="#63b8ff" d="M671.49,-100.82C676.41,-91.82 682.17,-81.29 686.12,-74.09"/>
<polygon fill="#63b8ff" stroke="#63b8ff" points="668.33,-99.3 666.6,-109.75 674.47,-102.66 668.33,-99.3"/>
</a>
</g>
</g>
<!-- Node12 -->
<g id="Node000012" class="node">
<title>Node12</title>
<g id="a_Node000012"><a xlink:href="DirektPresetBrowser_8cpp.html" target="_top" xlink:title=" ">
<polygon fill="white" stroke="#666666" points="950.81,-74 774.81,-74 774.81,-55 950.81,-55 950.81,-74"/>
<text text-anchor="middle" x="862.81" y="-62" font-family="Helvetica,sans-Serif" font-size="10.00">chrome/DirektPresetBrowser.cpp</text>
</a>
</g>
</g>
<!-- Node11&#45;&gt;Node12 -->
<g id="edge18_Node000011_Node000012" class="edge">
<title>Node11&#45;&gt;Node12</title>
<g id="a_edge18_Node000011_Node000012"><a xlink:title=" ">
<path fill="none" stroke="#63b8ff" d="M704.25,-107.31C741.86,-97.39 795.99,-83.12 830.27,-74.08"/>
<polygon fill="#63b8ff" stroke="#63b8ff" points="702.89,-104.05 694.11,-109.98 704.67,-110.82 702.89,-104.05"/>
</a>
</g>
</g>
<!-- Node13&#45;&gt;Node2 -->
<g id="edge21_Node000013_Node000002" class="edge">
<title>Node13&#45;&gt;Node2</title>
<g id="a_edge21_Node000013_Node000002"><a xlink:title=" ">
<path fill="none" stroke="#63b8ff" d="M885.67,-108.18C927.35,-100.28 976.87,-88.33 992.81,-74 1008.94,-59.51 1014.29,-33.04 1016.02,-19.3"/>
<polygon fill="#63b8ff" stroke="#63b8ff" points="885.02,-104.74 875.82,-109.99 886.29,-111.62 885.02,-104.74"/>
</a>
</g>
</g>
<!-- Node13&#45;&gt;Node5 -->
<g id="edge22_Node000013_Node000005" class="edge">
<title>Node13&#45;&gt;Node5</title>
<g id="a_edge22_Node000013_Node000005"><a xlink:title=" ">
<path fill="none" stroke="#63b8ff" d="M791.31,-106.16C767.06,-96.35 733.75,-82.87 712.25,-74.17"/>
<polygon fill="#63b8ff" stroke="#63b8ff" points="790.18,-109.48 800.77,-109.98 792.81,-102.99 790.18,-109.48"/>
</a>
</g>
</g>
<!-- Node17&#45;&gt;Node2 -->
<g id="edge28_Node000017_Node000002" class="edge">
<title>Node17&#45;&gt;Node2</title>
<g id="a_edge28_Node000017_Node000002"><a xlink:title=" ">
<path fill="none" stroke="#63b8ff" d="M1331.54,-156.68C1307.94,-127.2 1258.98,-68.07 1235.81,-55 1178.04,-22.39 1099.73,-13.49 1054.1,-11.18"/>
<polygon fill="#63b8ff" stroke="#63b8ff" points="1329.03,-159.15 1338,-164.79 1334.51,-154.79 1329.03,-159.15"/>
</a>
</g>
</g>
<!-- Node17&#45;&gt;Node16 -->
<g id="edge29_Node000017_Node000016" class="edge">
<title>Node17&#45;&gt;Node16</title>
<g id="a_edge29_Node000017_Node000016"><a xlink:title=" ">
<path fill="none" stroke="#63b8ff" d="M1414.94,-165.74C1503.47,-155.95 1655.24,-139.15 1746.88,-129.01"/>
<polygon fill="#63b8ff" stroke="#63b8ff" points="1414.55,-162.26 1405,-166.84 1415.32,-169.22 1414.55,-162.26"/>
</a>
</g>
</g>
<!-- Node18 -->
<g id="Node000018" class="node">
<title>Node18</title>
<g id="a_Node000018"><a xlink:href="DirektLabel_8cpp.html" target="_top" xlink:title=" ">
<polygon fill="white" stroke="#666666" points="1454.31,-129 1323.31,-129 1323.31,-110 1454.31,-110 1454.31,-129"/>
<text text-anchor="middle" x="1388.81" y="-117" font-family="Helvetica,sans-Serif" font-size="10.00">display/DirektLabel.cpp</text>
</a>
</g>
</g>
<!-- Node17&#45;&gt;Node18 -->
<g id="edge30_Node000017_Node000018" class="edge">
<title>Node17&#45;&gt;Node18</title>
<g id="a_edge30_Node000017_Node000018"><a xlink:title=" ">
<path fill="none" stroke="#63b8ff" d="M1358.55,-156.96C1366.22,-147.72 1375.45,-136.6 1381.68,-129.09"/>
<polygon fill="#63b8ff" stroke="#63b8ff" points="1355.78,-154.82 1352.08,-164.75 1361.16,-159.29 1355.78,-154.82"/>
</a>
</g>
</g>
<!-- Node19&#45;&gt;Node2 -->
<g id="edge32_Node000019_Node000002" class="edge">
<title>Node19&#45;&gt;Node2</title>
<g id="a_edge32_Node000019_Node000002"><a xlink:title=" ">
<path fill="none" stroke="#63b8ff" d="M1879.63,-161.47C1909.93,-150.09 1944.07,-131.56 1925.81,-110 1868.46,-42.26 1217.68,-16.94 1054,-11.62"/>
<polygon fill="#63b8ff" stroke="#63b8ff" points="1878.24,-158.25 1870,-164.91 1880.59,-164.84 1878.24,-158.25"/>
</a>
</g>
</g>
<!-- Node19&#45;&gt;Node6 -->
<g id="edge33_Node000019_Node000006" class="edge">
<title>Node19&#45;&gt;Node6</title>
<g id="a_edge33_Node000019_Node000006"><a xlink:title=" ">
<path fill="none" stroke="#63b8ff" d="M1911.54,-161.95C1929.93,-155.38 1947.68,-145.1 1958.81,-129 1977.52,-101.95 1980.73,-79.52 1958.81,-55 1937.63,-31.31 1742.84,-18.7 1634.58,-13.47"/>
<polygon fill="#63b8ff" stroke="#63b8ff" points="1910.34,-158.66 1901.9,-165.05 1912.49,-165.32 1910.34,-158.66"/>
</a>
</g>
</g>
<!-- Node19&#45;&gt;Node16 -->
<g id="edge34_Node000019_Node000016" class="edge">
<title>Node19&#45;&gt;Node16</title>
<g id="a_edge34_Node000019_Node000016"><a xlink:title=" ">
<path fill="none" stroke="#63b8ff" d="M1834.86,-154.95C1832.04,-146.15 1828.81,-136.06 1826.57,-129.09"/>
<polygon fill="#63b8ff" stroke="#63b8ff" points="1831.62,-156.29 1838.01,-164.75 1838.29,-154.16 1831.62,-156.29"/>
</a>
</g>
</g>
<!-- Node20 -->
<g id="Node000020" class="node">
<title>Node20</title>
<g id="a_Node000020"><a xlink:href="DirektMeter_8cpp.html" target="_top" xlink:title=" ">
<polygon fill="white" stroke="#666666" points="2144.31,-129 2011.31,-129 2011.31,-110 2144.31,-110 2144.31,-129"/>
<text text-anchor="middle" x="2077.81" y="-117" font-family="Helvetica,sans-Serif" font-size="10.00">display/DirektMeter.cpp</text>
</a>
</g>
</g>
<!-- Node19&#45;&gt;Node20 -->
<g id="edge35_Node000019_Node000020" class="edge">
<title>Node19&#45;&gt;Node20</title>
<g id="a_edge35_Node000019_Node000020"><a xlink:title=" ">
<path fill="none" stroke="#63b8ff" d="M1888.87,-162.75C1933.28,-152.82 1998.41,-138.26 2039.44,-129.08"/>
<polygon fill="#63b8ff" stroke="#63b8ff" points="1887.89,-159.39 1878.89,-164.98 1889.42,-166.22 1887.89,-159.39"/>
</a>
</g>
</g>
<!-- Node21&#45;&gt;Node2 -->
<g id="edge37_Node000021_Node000002" class="edge">
<title>Node21&#45;&gt;Node2</title>
<g id="a_edge37_Node000021_Node000002"><a xlink:title=" ">
<path fill="none" stroke="#63b8ff" d="M1199.46,-160.77C1214.17,-153.83 1229.4,-143.59 1237.81,-129 1251.16,-105.87 1224.96,-62.78 1215.81,-55 1191.75,-34.52 1104.5,-20.97 1053.87,-14.64"/>
<polygon fill="#63b8ff" stroke="#63b8ff" points="1197.75,-157.7 1189.95,-164.87 1200.52,-164.13 1197.75,-157.7"/>
</a>
</g>
</g>
<!-- Node21&#45;&gt;Node5 -->
<g id="edge42_Node000021_Node000005" class="edge">
<title>Node21&#45;&gt;Node5</title>
<g id="a_edge42_Node000021_Node000005"><a xlink:title=" ">
<path fill="none" stroke="#63b8ff" d="M1137.31,-159.9C1106.55,-142.19 1055.4,-113.12 1045.81,-110 1032.25,-105.59 855.26,-84.58 756.44,-73.08"/>
<polygon fill="#63b8ff" stroke="#63b8ff" points="1135.73,-163.02 1146.14,-164.99 1139.22,-156.96 1135.73,-163.02"/>
</a>
</g>
</g>
<!-- Node21&#45;&gt;Node16 -->
<g id="edge43_Node000021_Node000016" class="edge">
<title>Node21&#45;&gt;Node16</title>
<g id="a_edge43_Node000021_Node000016"><a xlink:title=" ">
<path fill="none" stroke="#63b8ff" d="M1233.76,-167.67C1354.89,-157.99 1597.33,-138.6 1730.65,-127.95"/>
<polygon fill="#63b8ff" stroke="#63b8ff" points="1233.18,-164.2 1223.49,-168.49 1233.73,-171.18 1233.18,-164.2"/>
</a>
</g>
</g>
<!-- Node22 -->
<g id="Node000022" class="node">
<title>Node22</title>
<g id="a_Node000022"><a xlink:href="DirektAutoLayout_8h.html" target="_top" xlink:title=" ">
<polygon fill="white" stroke="#666666" points="1228.31,-129 1093.31,-129 1093.31,-110 1228.31,-110 1228.31,-129"/>
<text text-anchor="middle" x="1160.81" y="-117" font-family="Helvetica,sans-Serif" font-size="10.00">core/DirektAutoLayout.h</text>
</a>
</g>
</g>
<!-- Node21&#45;&gt;Node22 -->
<g id="edge38_Node000021_Node000022" class="edge">
<title>Node21&#45;&gt;Node22</title>
<g id="a_edge38_Node000021_Node000022"><a xlink:title=" ">
<path fill="none" stroke="#63b8ff" d="M1160.81,-154.66C1160.81,-145.93 1160.81,-135.99 1160.81,-129.09"/>
<polygon fill="#63b8ff" stroke="#63b8ff" points="1157.31,-154.75 1160.81,-164.75 1164.31,-154.75 1157.31,-154.75"/>
</a>
</g>
</g>
<!-- Node24 -->
<g id="Node000024" class="node">
<title>Node24</title>
<g id="a_Node000024"><a xlink:href="DirektSection_8cpp.html" target="_top" xlink:title=" ">
<polygon fill="white" stroke="#666666" points="1036.31,-129 899.31,-129 899.31,-110 1036.31,-110 1036.31,-129"/>
<text text-anchor="middle" x="967.81" y="-117" font-family="Helvetica,sans-Serif" font-size="10.00">layout/DirektSection.cpp</text>
</a>
</g>
</g>
<!-- Node21&#45;&gt;Node24 -->
<g id="edge44_Node000021_Node000024" class="edge">
<title>Node21&#45;&gt;Node24</title>
<g id="a_edge44_Node000021_Node000024"><a xlink:title=" ">
<path fill="none" stroke="#63b8ff" d="M1120.07,-162.31C1083.96,-152.39 1031.98,-138.12 999.07,-129.08"/>
<polygon fill="#63b8ff" stroke="#63b8ff" points="1119.24,-165.71 1129.81,-164.98 1121.09,-158.96 1119.24,-165.71"/>
</a>
</g>
</g>
<!-- Node22&#45;&gt;Node2 -->
<g id="edge39_Node000022_Node000002" class="edge">
<title>Node22&#45;&gt;Node2</title>
<g id="a_edge39_Node000022_Node000002"><a xlink:title=" ">
<path fill="none" stroke="#63b8ff" d="M1180.95,-103.2C1195.97,-89.92 1211.96,-70.45 1199.81,-55 1182.03,-32.38 1102.21,-19.83 1054.05,-14.19"/>
<polygon fill="#63b8ff" stroke="#63b8ff" points="1178.36,-100.8 1172.89,-109.87 1182.82,-106.19 1178.36,-100.8"/>
</a>
</g>
</g>
<!-- Node22&#45;&gt;Node5 -->
<g id="edge41_Node000022_Node000005" class="edge">
<title>Node22&#45;&gt;Node5</title>
<g id="a_edge41_Node000022_Node000005"><a xlink:title=" ">
<path fill="none" stroke="#63b8ff" d="M1083.06,-109.76C1003.4,-100.79 875.96,-86.45 765.81,-74 762.82,-73.66 759.76,-73.32 756.66,-72.97"/>
<polygon fill="#63b8ff" stroke="#63b8ff" points="1082.69,-113.24 1093.02,-110.88 1083.47,-106.28 1082.69,-113.24"/>
</a>
</g>
</g>
<!-- Node23 -->
<g id="Node000023" class="node">
<title>Node23</title>
<g id="a_Node000023"><a xlink:href="DirektAutoLayout_8cpp.html" target="_top" xlink:title=" ">
<polygon fill="white" stroke="#666666" points="1190.81,-74 1044.81,-74 1044.81,-55 1190.81,-55 1190.81,-74"/>
<text text-anchor="middle" x="1117.81" y="-62" font-family="Helvetica,sans-Serif" font-size="10.00">core/DirektAutoLayout.cpp</text>
</a>
</g>
</g>
<!-- Node22&#45;&gt;Node23 -->
<g id="edge40_Node000022_Node000023" class="edge">
<title>Node22&#45;&gt;Node23</title>
<g id="a_edge40_Node000022_Node000023"><a xlink:title=" ">
<path fill="none" stroke="#63b8ff" d="M1147.39,-101.96C1139.9,-92.72 1130.88,-81.6 1124.78,-74.09"/>
<polygon fill="#63b8ff" stroke="#63b8ff" points="1144.7,-104.19 1153.71,-109.75 1150.13,-99.78 1144.7,-104.19"/>
</a>
</g>
</g>
<!-- Node25&#45;&gt;Node2 -->
<g id="edge46_Node000025_Node000002" class="edge">
<title>Node25&#45;&gt;Node2</title>
<g id="a_edge46_Node000025_Node000002"><a xlink:title=" ">
<path fill="none" stroke="#63b8ff" d="M2058.33,-163.22C2098.11,-155.93 2141.77,-144.65 2153.81,-129 2158.96,-122.31 2159.33,-116.39 2153.81,-110 2080.26,-24.78 1241.34,-12.45 1053.83,-10.76"/>
<polygon fill="#63b8ff" stroke="#63b8ff" points="2057.56,-159.8 2048.32,-164.99 2058.77,-166.69 2057.56,-159.8"/>
</a>
</g>
</g>
<!-- Node25&#45;&gt;Node16 -->
<g id="edge47_Node000025_Node000016" class="edge">
<title>Node25&#45;&gt;Node16</title>
<g id="a_edge47_Node000025_Node000016"><a xlink:title=" ">
<path fill="none" stroke="#63b8ff" d="M1950.05,-161.8C1919.81,-151.91 1877.2,-137.97 1850.05,-129.08"/>
<polygon fill="#63b8ff" stroke="#63b8ff" points="1949.19,-165.2 1959.79,-164.98 1951.37,-158.55 1949.19,-165.2"/>
</a>
</g>
</g>
<!-- Node26 -->
<g id="Node000026" class="node">
<title>Node26</title>
<g id="a_Node000026"><a xlink:href="DirektTabPanel_8cpp.html" target="_top" xlink:title=" ">
<polygon fill="white" stroke="#666666" points="2344.31,-129 2201.31,-129 2201.31,-110 2344.31,-110 2344.31,-129"/>
<text text-anchor="middle" x="2272.81" y="-117" font-family="Helvetica,sans-Serif" font-size="10.00">layout/DirektTabPanel.cpp</text>
</a>
</g>
</g>
<!-- Node25&#45;&gt;Node26 -->
<g id="edge48_Node000025_Node000026" class="edge">
<title>Node25&#45;&gt;Node26</title>
<g id="a_edge48_Node000025_Node000026"><a xlink:title=" ">
<path fill="none" stroke="#63b8ff" d="M2041.99,-163.13C2095.79,-153.19 2176.03,-138.37 2226.34,-129.08"/>
<polygon fill="#63b8ff" stroke="#63b8ff" points="2041.12,-159.73 2031.93,-164.98 2042.4,-166.61 2041.12,-159.73"/>
</a>
</g>
</g>
<!-- Node27&#45;&gt;Node2 -->
<g id="edge50_Node000027_Node000002" class="edge">
<title>Node27&#45;&gt;Node2</title>
<g id="a_edge50_Node000027_Node000002"><a xlink:title=" ">
<path fill="none" stroke="#63b8ff" d="M1659.82,-155.91C1667.72,-141.97 1674.76,-122.76 1663.81,-110 1583.99,-16.96 1179.17,-10.07 1053.85,-10.21"/>
<polygon fill="#63b8ff" stroke="#63b8ff" points="1656.74,-154.25 1654.43,-164.59 1662.68,-157.94 1656.74,-154.25"/>
</a>
</g>
</g>
<!-- Node27&#45;&gt;Node5 -->
<g id="edge51_Node000027_Node000005" class="edge">
<title>Node27&#45;&gt;Node5</title>
<g id="a_edge51_Node000027_Node000005"><a xlink:title=" ">
<path fill="none" stroke="#63b8ff" d="M1653.26,-154.92C1656.2,-140.65 1657.2,-121.49 1645.81,-110 1611.38,-75.24 814.6,-77.76 765.81,-74 762.81,-73.77 759.74,-73.51 756.64,-73.23"/>
<polygon fill="#63b8ff" stroke="#63b8ff" points="1649.86,-154.13 1650.82,-164.68 1656.65,-155.83 1649.86,-154.13"/>
</a>
</g>
</g>
<!-- Node27&#45;&gt;Node16 -->
<g id="edge52_Node000027_Node000016" class="edge">
<title>Node27&#45;&gt;Node16</title>
<g id="a_edge52_Node000027_Node000016"><a xlink:title=" ">
<path fill="none" stroke="#63b8ff" d="M1685.82,-162.06C1718.71,-152.15 1765.55,-138.04 1795.32,-129.08"/>
<polygon fill="#63b8ff" stroke="#63b8ff" points="1684.66,-158.75 1676.09,-164.98 1686.68,-165.45 1684.66,-158.75"/>
</a>
</g>
</g>
<!-- Node28 -->
<g id="Node000028" class="node">
<title>Node28</title>
<g id="a_Node000028"><a xlink:href="DirektLookAndFeel_8cpp.html" target="_top" xlink:title=" ">
<polygon fill="white" stroke="#666666" points="1636.81,-129 1472.81,-129 1472.81,-110 1636.81,-110 1636.81,-129"/>
<text text-anchor="middle" x="1554.81" y="-117" font-family="Helvetica,sans-Serif" font-size="10.00">theme/DirektLookAndFeel.cpp</text>
</a>
</g>
</g>
<!-- Node27&#45;&gt;Node28 -->
<g id="edge53_Node000027_Node000028" class="edge">
<title>Node27&#45;&gt;Node28</title>
<g id="a_edge53_Node000027_Node000028"><a xlink:title=" ">
<path fill="none" stroke="#63b8ff" d="M1624.07,-159.97C1607.07,-150.28 1584.68,-137.52 1570.03,-129.17"/>
<polygon fill="#63b8ff" stroke="#63b8ff" points="1622.45,-163.07 1632.87,-164.98 1625.92,-156.99 1622.45,-163.07"/>
</a>
</g>
</g>
</g>
</svg>

<g id="navigator" transform="translate(0 0)" fill="#404254">
  <rect fill="#f2f5e9" fill-opacity="0.5" stroke="#606060" stroke-width=".5" x="0" y="0" width="60" height="60"/>
  <use id="zoomplus" xlink:href="#zoomPlus" x="17" y="9" onmousedown="handleZoom(evt,'in')"/>
  <use id="zoomminus" xlink:href="#zoomMin" x="42" y="9" onmousedown="handleZoom(evt,'out')"/>
  <use id="reset" xlink:href="#resetDef" x="30" y="36" onmousedown="handleReset()"/>
   <use id="arrowup" xlink:href="#arrowUp" x="0" y="0" onmousedown="handlePan(0,-1)"/>
  <use id="arrowright" xlink:href="#arrowRight" x="0" y="0" onmousedown="handlePan(1,0)"/>
  <use id="arrowdown" xlink:href="#arrowDown" x="0" y="0" onmousedown="handlePan(0,1)"/>
  <use id="arrowleft" xlink:href="#arrowLeft" x="0" y="0" onmousedown="handlePan(-1,0)"/>
</g>
<svg viewBox="0 0 15 15" width="100%" height="30px" preserveAspectRatio="xMaxYMin meet">
 <g id="arrow_out" transform="scale(0.3 0.3)">
  <a xlink:href="DirektColours_8h__dep__incl_org.svg" target="_base">
   <rect id="button" ry="5" rx="5" y="6" x="6" height="38" width="38"
        fill="#f2f5e9" fill-opacity="0.5" stroke="#606060" stroke-width="1.0"/>
   <path id="arrow"
     d="M 11.500037,31.436501 C 11.940474,20.09759 22.043105,11.32322 32.158766,21.979434 L 37.068811,17.246167 C 37.068811,17.246167 37.088388,32 37.088388,32 L 22.160133,31.978069 C 22.160133,31.978069 26.997745,27.140456 26.997745,27.140456 C 18.528582,18.264221 13.291696,25.230495 11.500037,31.436501 z"
     style="fill:#404040;"/>
  </a>
 </g>
</svg>

<style type='text/css'>
<![CDATA[
[data-mouse-over-selected='false'] { opacity: 0.7; }
[data-mouse-over-selected='true']  { opacity: 1.0; }
]]>
</style>
<script type="application/ecmascript"><![CDATA[
document.addEventListener('DOMContentLoaded', (event) => {
  highlightEdges();
  highlightAdjacentNodes();
});
]]></script>
</svg>
