<?xml version="1.0" encoding="UTF-8" standalone="no"?>
<!DOCTYPE svg PUBLIC "-//W3C//DTD SVG 1.1//EN"
 "http://www.w3.org/Graphics/SVG/1.1/DTD/svg11.dtd">
<!-- Generated by graphviz version 2.43.0 (0)
 -->
<!-- Title: layout/DirektSection.cpp Pages: 1 -->
<svg width="539pt" height="214pt"
 viewBox="0.00 0.00 539.00 214.00" xmlns="http://www.w3.org/2000/svg" xmlns:xlink="http://www.w3.org/1999/xlink">
<g id="graph0" class="graph" transform="scale(1 1) rotate(0) translate(4 210)">
<title>layout/DirektSection.cpp</title>
<!-- Node1 -->
<g id="Node000001" class="node">
<title>Node1</title>
<g id="a_Node000001"><a xlink:title=" ">
<polygon fill="#999999" stroke="#666666" points="320,-206 183,-206 183,-187 320,-187 320,-206"/>
<text text-anchor="middle" x="251.5" y="-194" font-family="Helvetica,sans-Serif" font-size="10.00">layout/DirektSection.cpp</text>
</a>
</g>
</g>
<!-- Node2 -->
<g id="Node000002" class="node">
<title>Node2</title>
<g id="a_Node000002"><a xlink:href="DirektSection_8h.html" target="_top" xlink:title=" ">
<polygon fill="white" stroke="#666666" points="211,-145.5 86,-145.5 86,-126.5 211,-126.5 211,-145.5"/>
<text text-anchor="middle" x="148.5" y="-133.5" font-family="Helvetica,sans-Serif" font-size="10.00">layout/DirektSection.h</text>
</a>
</g>
</g>
<!-- Node1&#45;&gt;Node2 -->
<g id="edge1_Node000001_Node000002" class="edge">
<title>Node1&#45;&gt;Node2</title>
<g id="a_edge1_Node000001_Node000002"><a xlink:title=" ">
<path fill="none" stroke="#63b8ff" d="M236.3,-186.87C219.49,-177.32 192.18,-161.81 172.48,-150.62"/>
<polygon fill="#63b8ff" stroke="#63b8ff" points="174.18,-147.56 163.76,-145.67 170.73,-153.65 174.18,-147.56"/>
</a>
</g>
</g>
<!-- Node6 -->
<g id="Node000006" class="node">
<title>Node6</title>
<g id="a_Node000006"><a xlink:title=" ">
<polygon fill="#e0e0e0" stroke="#999999" points="274,-145.5 229,-145.5 229,-126.5 274,-126.5 274,-145.5"/>
<text text-anchor="middle" x="251.5" y="-133.5" font-family="Helvetica,sans-Serif" font-size="10.00">utility</text>
</a>
</g>
</g>
<!-- Node1&#45;&gt;Node6 -->
<g id="edge6_Node000001_Node000006" class="edge">
<title>Node1&#45;&gt;Node6</title>
<g id="a_edge6_Node000001_Node000006"><a xlink:title=" ">
<path fill="none" stroke="#63b8ff" d="M251.5,-186.87C251.5,-178.75 251.5,-166.31 251.5,-155.89"/>
<polygon fill="#63b8ff" stroke="#63b8ff" points="255,-155.67 251.5,-145.67 248,-155.67 255,-155.67"/>
</a>
</g>
</g>
<!-- Node7 -->
<g id="Node000007" class="node">
<title>Node7</title>
<g id="a_Node000007"><a xlink:href="DirektModuleBypassSoloStrip_8h.html" target="_top" xlink:title=" ">
<polygon fill="white" stroke="#666666" points="444.5,-151 292.5,-151 292.5,-121 444.5,-121 444.5,-151"/>
<text text-anchor="start" x="300.5" y="-139" font-family="Helvetica,sans-Serif" font-size="10.00">layout/DirektModuleBypass</text>
<text text-anchor="middle" x="368.5" y="-128" font-family="Helvetica,sans-Serif" font-size="10.00">SoloStrip.h</text>
</a>
</g>
</g>
<!-- Node1&#45;&gt;Node7 -->
<g id="edge7_Node000001_Node000007" class="edge">
<title>Node1&#45;&gt;Node7</title>
<g id="a_edge7_Node000001_Node000007"><a xlink:title=" ">
<path fill="none" stroke="#63b8ff" d="M268.51,-186.99C284.85,-178.82 310.09,-166.2 331.13,-155.69"/>
<polygon fill="#63b8ff" stroke="#63b8ff" points="332.77,-158.78 340.14,-151.18 329.64,-152.52 332.77,-158.78"/>
</a>
</g>
</g>
<!-- Node3 -->
<g id="Node000003" class="node">
<title>Node3</title>
<g id="a_Node000003"><a xlink:title=" ">
<polygon fill="#e0e0e0" stroke="#999999" points="285.5,-30 169.5,-30 169.5,0 285.5,0 285.5,-30"/>
<text text-anchor="start" x="177.5" y="-18" font-family="Helvetica,sans-Serif" font-size="10.00">juce_gui_basics/juce</text>
<text text-anchor="middle" x="227.5" y="-7" font-family="Helvetica,sans-Serif" font-size="10.00">_gui_basics.h</text>
</a>
</g>
</g>
<!-- Node2&#45;&gt;Node3 -->
<g id="edge2_Node000002_Node000003" class="edge">
<title>Node2&#45;&gt;Node3</title>
<g id="a_edge2_Node000002_Node000003"><a xlink:title=" ">
<path fill="none" stroke="#63b8ff" d="M150.42,-126.35C153.73,-112.67 161.45,-85.61 174.5,-66 181.73,-55.14 191.74,-44.92 201.11,-36.58"/>
<polygon fill="#63b8ff" stroke="#63b8ff" points="203.43,-39.2 208.76,-30.05 198.88,-33.88 203.43,-39.2"/>
</a>
</g>
</g>
<!-- Node4 -->
<g id="Node000004" class="node">
<title>Node4</title>
<g id="a_Node000004"><a xlink:title=" ">
<polygon fill="#e0e0e0" stroke="#999999" points="241.5,-85 183.5,-85 183.5,-66 241.5,-66 241.5,-85"/>
<text text-anchor="middle" x="212.5" y="-73" font-family="Helvetica,sans-Serif" font-size="10.00">memory</text>
</a>
</g>
</g>
<!-- Node2&#45;&gt;Node4 -->
<g id="edge3_Node000002_Node000004" class="edge">
<title>Node2&#45;&gt;Node4</title>
<g id="a_edge3_Node000002_Node000004"><a xlink:title=" ">
<path fill="none" stroke="#63b8ff" d="M157.94,-126.37C167.77,-117.38 183.39,-103.11 195.39,-92.14"/>
<polygon fill="#63b8ff" stroke="#63b8ff" points="198,-94.5 203.02,-85.17 193.28,-89.33 198,-94.5"/>
</a>
</g>
</g>
<!-- Node5 -->
<g id="Node000005" class="node">
<title>Node5</title>
<g id="a_Node000005"><a xlink:href="DirektColours_8h.html" target="_top" xlink:title=" ">
<polygon fill="white" stroke="#666666" points="127,-85 0,-85 0,-66 127,-66 127,-85"/>
<text text-anchor="middle" x="63.5" y="-73" font-family="Helvetica,sans-Serif" font-size="10.00">theme/DirektColours.h</text>
</a>
</g>
</g>
<!-- Node2&#45;&gt;Node5 -->
<g id="edge4_Node000002_Node000005" class="edge">
<title>Node2&#45;&gt;Node5</title>
<g id="a_edge4_Node000002_Node000005"><a xlink:title=" ">
<path fill="none" stroke="#63b8ff" d="M135.96,-126.37C122.4,-117.04 100.56,-102.01 84.4,-90.88"/>
<polygon fill="#63b8ff" stroke="#63b8ff" points="86.32,-87.95 76.09,-85.17 82.35,-93.72 86.32,-87.95"/>
</a>
</g>
</g>
<!-- Node5&#45;&gt;Node3 -->
<g id="edge5_Node000005_Node000003" class="edge">
<title>Node5&#45;&gt;Node3</title>
<g id="a_edge5_Node000005_Node000003"><a xlink:title=" ">
<path fill="none" stroke="#63b8ff" d="M87.35,-65.99C111.16,-57.5 148.44,-44.2 178.57,-33.45"/>
<polygon fill="#63b8ff" stroke="#63b8ff" points="179.83,-36.72 188.07,-30.06 177.48,-30.13 179.83,-36.72"/>
</a>
</g>
</g>
<!-- Node7&#45;&gt;Node3 -->
<g id="edge9_Node000007_Node000003" class="edge">
<title>Node7&#45;&gt;Node3</title>
<g id="a_edge9_Node000007_Node000003"><a xlink:title=" ">
<path fill="none" stroke="#63b8ff" d="M342.37,-120.9C326.36,-111.69 305.87,-98.83 289.5,-85 272.84,-70.92 256.46,-52.43 244.72,-38.13"/>
<polygon fill="#63b8ff" stroke="#63b8ff" points="247.38,-35.86 238.38,-30.27 241.93,-40.25 247.38,-35.86"/>
</a>
</g>
</g>
<!-- Node7&#45;&gt;Node4 -->
<g id="edge10_Node000007_Node000004" class="edge">
<title>Node7&#45;&gt;Node4</title>
<g id="a_edge10_Node000007_Node000004"><a xlink:title=" ">
<path fill="none" stroke="#63b8ff" d="M331.13,-120.99C304.87,-111.14 270.09,-98.1 244.98,-88.68"/>
<polygon fill="#63b8ff" stroke="#63b8ff" points="246.13,-85.37 235.54,-85.14 243.67,-91.93 246.13,-85.37"/>
</a>
</g>
</g>
<!-- Node8 -->
<g id="Node000008" class="node">
<title>Node8</title>
<g id="a_Node000008"><a xlink:title=" ">
<polygon fill="#e0e0e0" stroke="#999999" points="473,-30 334,-30 334,0 473,0 473,-30"/>
<text text-anchor="start" x="342" y="-18" font-family="Helvetica,sans-Serif" font-size="10.00">juce_audio_processors</text>
<text text-anchor="middle" x="403.5" y="-7" font-family="Helvetica,sans-Serif" font-size="10.00">/juce_audio_processors.h</text>
</a>
</g>
</g>
<!-- Node7&#45;&gt;Node8 -->
<g id="edge8_Node000007_Node000008" class="edge">
<title>Node7&#45;&gt;Node8</title>
<g id="a_edge8_Node000007_Node000008"><a xlink:title=" ">
<path fill="none" stroke="#63b8ff" d="M398.96,-120.94C413.12,-112.66 428.56,-100.69 436.5,-85 444.39,-69.4 435.44,-51.59 424.88,-37.98"/>
<polygon fill="#63b8ff" stroke="#63b8ff" points="427.35,-35.48 418.23,-30.1 422,-40 427.35,-35.48"/>
</a>
</g>
</g>
<!-- Node9 -->
<g id="Node000009" class="node">
<title>Node9</title>
<g id="a_Node000009"><a xlink:title=" ">
<polygon fill="#e0e0e0" stroke="#999999" points="531,-85 484,-85 484,-66 531,-66 531,-85"/>
<text text-anchor="middle" x="507.5" y="-73" font-family="Helvetica,sans-Serif" font-size="10.00">vector</text>
</a>
</g>
</g>
<!-- Node7&#45;&gt;Node9 -->
<g id="edge11_Node000007_Node000009" class="edge">
<title>Node7&#45;&gt;Node9</title>
<g id="a_edge11_Node000007_Node000009"><a xlink:title=" ">
<path fill="none" stroke="#63b8ff" d="M401.79,-120.99C424.88,-111.27 455.37,-98.44 477.66,-89.06"/>
<polygon fill="#63b8ff" stroke="#63b8ff" points="479.11,-92.24 486.97,-85.14 476.4,-85.79 479.11,-92.24"/>
</a>
</g>
</g>
<!-- Node10 -->
<g id="Node000010" class="node">
<title>Node10</title>
<g id="a_Node000010"><a xlink:href="DirektToggle_8h.html" target="_top" xlink:title=" ">
<polygon fill="white" stroke="#666666" points="427,-85 298,-85 298,-66 427,-66 427,-85"/>
<text text-anchor="middle" x="362.5" y="-73" font-family="Helvetica,sans-Serif" font-size="10.00">controls/DirektToggle.h</text>
</a>
</g>
</g>
<!-- Node7&#45;&gt;Node10 -->
<g id="edge12_Node000007_Node000010" class="edge">
<title>Node7&#45;&gt;Node10</title>
<g id="a_edge12_Node000007_Node000010"><a xlink:title=" ">
<path fill="none" stroke="#63b8ff" d="M367.05,-120.84C366.27,-113.21 365.29,-103.7 364.44,-95.45"/>
<polygon fill="#63b8ff" stroke="#63b8ff" points="367.9,-94.86 363.4,-85.27 360.94,-95.57 367.9,-94.86"/>
</a>
</g>
</g>
<!-- Node10&#45;&gt;Node3 -->
<g id="edge14_Node000010_Node000003" class="edge">
<title>Node10&#45;&gt;Node3</title>
<g id="a_edge14_Node000010_Node000003"><a xlink:title=" ">
<path fill="none" stroke="#63b8ff" d="M342.87,-65.99C323.7,-57.68 293.9,-44.78 269.4,-34.16"/>
<polygon fill="#63b8ff" stroke="#63b8ff" points="270.52,-30.83 259.96,-30.06 267.74,-37.25 270.52,-30.83"/>
</a>
</g>
</g>
<!-- Node10&#45;&gt;Node8 -->
<g id="edge13_Node000010_Node000008" class="edge">
<title>Node10&#45;&gt;Node8</title>
<g id="a_edge13_Node000010_Node000008"><a xlink:title=" ">
<path fill="none" stroke="#63b8ff" d="M368.55,-65.87C373.6,-58.67 381.02,-48.07 387.74,-38.49"/>
<polygon fill="#63b8ff" stroke="#63b8ff" points="390.73,-40.31 393.61,-30.11 385,-36.29 390.73,-40.31"/>
</a>
</g>
</g>
</g>
</svg>
