<?xml version="1.0" encoding="UTF-8" standalone="no"?>
<!DOCTYPE svg PUBLIC "-//W3C//DTD SVG 1.1//EN"
 "http://www.w3.org/Graphics/SVG/1.1/DTD/svg11.dtd">
<!-- Generated by graphviz version 2.43.0 (0)
 -->
<!-- Title: layout/DirektSection.h Pages: 1 -->
<svg width="841pt" height="258pt"
 viewBox="0.00 0.00 841.00 258.00" xmlns="http://www.w3.org/2000/svg" xmlns:xlink="http://www.w3.org/1999/xlink">
<g id="graph0" class="graph" transform="scale(1 1) rotate(0) translate(4 254)">
<title>layout/DirektSection.h</title>
<!-- Node1 -->
<g id="Node000001" class="node">
<title>Node1</title>
<g id="a_Node000001"><a xlink:title=" ">
<polygon fill="#999999" stroke="#666666" points="400,-250 275,-250 275,-231 400,-231 400,-250"/>
<text text-anchor="middle" x="337.5" y="-238" font-family="Helvetica,sans-Serif" font-size="10.00">layout/DirektSection.h</text>
</a>
</g>
</g>
<!-- Node2 -->
<g id="Node000002" class="node">
<title>Node2</title>
<g id="a_Node000002"><a xlink:href="DirektDSP_8h.html" target="_top" xlink:title=" ">
<polygon fill="white" stroke="#666666" points="117.5,-85 43.5,-85 43.5,-66 117.5,-66 117.5,-85"/>
<text text-anchor="middle" x="80.5" y="-73" font-family="Helvetica,sans-Serif" font-size="10.00">DirektDSP.h</text>
</a>
</g>
</g>
<!-- Node1&#45;&gt;Node2 -->
<g id="edge1_Node000001_Node000002" class="edge">
<title>Node1&#45;&gt;Node2</title>
<g id="a_edge1_Node000001_Node000002"><a xlink:title=" ">
<path fill="none" stroke="#63b8ff" d="M264.77,-233.54C205.59,-227.29 128.12,-215.45 104.5,-195 71.81,-166.7 76.19,-107.21 79.15,-85.06"/>
<polygon fill="#63b8ff" stroke="#63b8ff" points="264.55,-237.04 274.85,-234.57 265.26,-230.07 264.55,-237.04"/>
</a>
</g>
</g>
<!-- Node4 -->
<g id="Node000004" class="node">
<title>Node4</title>
<g id="a_Node000004"><a xlink:href="DirektAutoLayout_8h.html" target="_top" xlink:title=" ">
<polygon fill="white" stroke="#666666" points="249,-195 114,-195 114,-176 249,-176 249,-195"/>
<text text-anchor="middle" x="181.5" y="-183" font-family="Helvetica,sans-Serif" font-size="10.00">core/DirektAutoLayout.h</text>
</a>
</g>
</g>
<!-- Node1&#45;&gt;Node4 -->
<g id="edge3_Node000001_Node000004" class="edge">
<title>Node1&#45;&gt;Node4</title>
<g id="a_edge3_Node000001_Node000004"><a xlink:title=" ">
<path fill="none" stroke="#63b8ff" d="M302.68,-227.67C273.59,-217.79 232.8,-203.93 206.76,-195.08"/>
<polygon fill="#63b8ff" stroke="#63b8ff" points="301.84,-231.08 312.44,-230.98 304.09,-224.45 301.84,-231.08"/>
</a>
</g>
</g>
<!-- Node6 -->
<g id="Node000006" class="node">
<title>Node6</title>
<g id="a_Node000006"><a xlink:href="DirektBaseEditor_8h.html" target="_top" xlink:title=" ">
<polygon fill="white" stroke="#666666" points="404,-140 273,-140 273,-121 404,-121 404,-140"/>
<text text-anchor="middle" x="338.5" y="-128" font-family="Helvetica,sans-Serif" font-size="10.00">core/DirektBaseEditor.h</text>
</a>
</g>
</g>
<!-- Node1&#45;&gt;Node6 -->
<g id="edge9_Node000001_Node000006" class="edge">
<title>Node1&#45;&gt;Node6</title>
<g id="a_edge9_Node000001_Node000006"><a xlink:title=" ">
<path fill="none" stroke="#63b8ff" d="M317.46,-224.34C303.81,-212.03 289.41,-193.84 296.5,-176 302.46,-160.99 316.15,-148.12 326.29,-140.14"/>
<polygon fill="#63b8ff" stroke="#63b8ff" points="315.33,-227.12 325.24,-230.86 319.82,-221.75 315.33,-227.12"/>
</a>
</g>
</g>
<!-- Node8 -->
<g id="Node000008" class="node">
<title>Node8</title>
<g id="a_Node000008"><a xlink:href="DirektComponentRegistry_8cpp.html" target="_top" xlink:title=" ">
<polygon fill="white" stroke="#666666" points="491.5,-195 305.5,-195 305.5,-176 491.5,-176 491.5,-195"/>
<text text-anchor="middle" x="398.5" y="-183" font-family="Helvetica,sans-Serif" font-size="10.00">core/DirektComponentRegistry.cpp</text>
</a>
</g>
</g>
<!-- Node1&#45;&gt;Node8 -->
<g id="edge10_Node000001_Node000008" class="edge">
<title>Node1&#45;&gt;Node8</title>
<g id="a_edge10_Node000001_Node000008"><a xlink:title=" ">
<path fill="none" stroke="#63b8ff" d="M354.97,-224.32C365.84,-214.87 379.44,-203.06 388.52,-195.17"/>
<polygon fill="#63b8ff" stroke="#63b8ff" points="352.55,-221.78 347.3,-230.98 357.15,-227.07 352.55,-221.78"/>
</a>
</g>
</g>
<!-- Node9 -->
<g id="Node000009" class="node">
<title>Node9</title>
<g id="a_Node000009"><a xlink:href="DirektFlexContainer_8cpp.html" target="_top" xlink:title=" ">
<polygon fill="white" stroke="#666666" points="677.5,-195 509.5,-195 509.5,-176 677.5,-176 677.5,-195"/>
<text text-anchor="middle" x="593.5" y="-183" font-family="Helvetica,sans-Serif" font-size="10.00">layout/DirektFlexContainer.cpp</text>
</a>
</g>
</g>
<!-- Node1&#45;&gt;Node9 -->
<g id="edge11_Node000001_Node000009" class="edge">
<title>Node1&#45;&gt;Node9</title>
<g id="a_edge11_Node000001_Node000009"><a xlink:title=" ">
<path fill="none" stroke="#63b8ff" d="M388.5,-228.94C436.49,-219.01 507.45,-204.31 552.05,-195.08"/>
<polygon fill="#63b8ff" stroke="#63b8ff" points="387.71,-225.53 378.63,-230.98 389.13,-232.38 387.71,-225.53"/>
</a>
</g>
</g>
<!-- Node10 -->
<g id="Node000010" class="node">
<title>Node10</title>
<g id="a_Node000010"><a xlink:href="DirektSection_8cpp.html" target="_top" xlink:title=" ">
<polygon fill="white" stroke="#666666" points="833,-195 696,-195 696,-176 833,-176 833,-195"/>
<text text-anchor="middle" x="764.5" y="-183" font-family="Helvetica,sans-Serif" font-size="10.00">layout/DirektSection.cpp</text>
</a>
</g>
</g>
<!-- Node1&#45;&gt;Node10 -->
<g id="edge12_Node000001_Node000010" class="edge">
<title>Node1&#45;&gt;Node10</title>
<g id="a_edge12_Node000001_Node000010"><a xlink:title=" ">
<path fill="none" stroke="#63b8ff" d="M410.03,-230.5C489.92,-220.58 617.43,-204.75 695.77,-195.03"/>
<polygon fill="#63b8ff" stroke="#63b8ff" points="409.54,-227.03 400.05,-231.74 410.4,-233.98 409.54,-227.03"/>
</a>
</g>
</g>
<!-- Node3 -->
<g id="Node000003" class="node">
<title>Node3</title>
<g id="a_Node000003"><a xlink:href="StandaloneTestProcessor_8cpp.html" target="_top" xlink:title=" ">
<polygon fill="white" stroke="#666666" points="161,-30 0,-30 0,0 161,0 161,-30"/>
<text text-anchor="start" x="8" y="-18" font-family="Helvetica,sans-Serif" font-size="10.00">examples/StandaloneTest</text>
<text text-anchor="middle" x="80.5" y="-7" font-family="Helvetica,sans-Serif" font-size="10.00">/StandaloneTestProcessor.cpp</text>
</a>
</g>
</g>
<!-- Node2&#45;&gt;Node3 -->
<g id="edge2_Node000002_Node000003" class="edge">
<title>Node2&#45;&gt;Node3</title>
<g id="a_edge2_Node000002_Node000003"><a xlink:title=" ">
<path fill="none" stroke="#63b8ff" d="M80.5,-55.65C80.5,-47.36 80.5,-37.78 80.5,-30.11"/>
<polygon fill="#63b8ff" stroke="#63b8ff" points="77,-55.87 80.5,-65.87 84,-55.87 77,-55.87"/>
</a>
</g>
</g>
<!-- Node4&#45;&gt;Node2 -->
<g id="edge4_Node000004_Node000002" class="edge">
<title>Node4&#45;&gt;Node2</title>
<g id="a_edge4_Node000004_Node000002"><a xlink:title=" ">
<path fill="none" stroke="#63b8ff" d="M144.66,-171.9C128.76,-164.78 111.17,-154.37 99.5,-140 86.3,-123.74 82.26,-98.51 81.04,-85.28"/>
<polygon fill="#63b8ff" stroke="#63b8ff" points="143.7,-175.29 154.28,-175.91 146.4,-168.83 143.7,-175.29"/>
</a>
</g>
</g>
<!-- Node5 -->
<g id="Node000005" class="node">
<title>Node5</title>
<g id="a_Node000005"><a xlink:href="DirektAutoLayout_8cpp.html" target="_top" xlink:title=" ">
<polygon fill="white" stroke="#666666" points="254.5,-140 108.5,-140 108.5,-121 254.5,-121 254.5,-140"/>
<text text-anchor="middle" x="181.5" y="-128" font-family="Helvetica,sans-Serif" font-size="10.00">core/DirektAutoLayout.cpp</text>
</a>
</g>
</g>
<!-- Node4&#45;&gt;Node5 -->
<g id="edge5_Node000004_Node000005" class="edge">
<title>Node4&#45;&gt;Node5</title>
<g id="a_edge5_Node000004_Node000005"><a xlink:title=" ">
<path fill="none" stroke="#63b8ff" d="M181.5,-165.66C181.5,-156.93 181.5,-146.99 181.5,-140.09"/>
<polygon fill="#63b8ff" stroke="#63b8ff" points="178,-165.75 181.5,-175.75 185,-165.75 178,-165.75"/>
</a>
</g>
</g>
<!-- Node4&#45;&gt;Node6 -->
<g id="edge6_Node000004_Node000006" class="edge">
<title>Node4&#45;&gt;Node6</title>
<g id="a_edge6_Node000004_Node000006"><a xlink:title=" ">
<path fill="none" stroke="#63b8ff" d="M216.55,-172.67C245.82,-162.79 286.87,-148.93 313.08,-140.08"/>
<polygon fill="#63b8ff" stroke="#63b8ff" points="215.08,-169.47 206.72,-175.98 217.32,-176.1 215.08,-169.47"/>
</a>
</g>
</g>
<!-- Node6&#45;&gt;Node2 -->
<g id="edge7_Node000006_Node000002" class="edge">
<title>Node6&#45;&gt;Node2</title>
<g id="a_edge7_Node000006_Node000002"><a xlink:title=" ">
<path fill="none" stroke="#63b8ff" d="M287.07,-118.94C237.02,-108.65 162.19,-93.28 117.66,-84.13"/>
<polygon fill="#63b8ff" stroke="#63b8ff" points="286.55,-122.4 297.05,-120.98 287.96,-115.54 286.55,-122.4"/>
</a>
</g>
</g>
<!-- Node7 -->
<g id="Node000007" class="node">
<title>Node7</title>
<g id="a_Node000007"><a xlink:href="DirektBaseEditor_8cpp.html" target="_top" xlink:title=" ">
<polygon fill="white" stroke="#666666" points="410,-85 267,-85 267,-66 410,-66 410,-85"/>
<text text-anchor="middle" x="338.5" y="-73" font-family="Helvetica,sans-Serif" font-size="10.00">core/DirektBaseEditor.cpp</text>
</a>
</g>
</g>
<!-- Node6&#45;&gt;Node7 -->
<g id="edge8_Node000006_Node000007" class="edge">
<title>Node6&#45;&gt;Node7</title>
<g id="a_edge8_Node000006_Node000007"><a xlink:title=" ">
<path fill="none" stroke="#63b8ff" d="M338.5,-110.66C338.5,-101.93 338.5,-91.99 338.5,-85.09"/>
<polygon fill="#63b8ff" stroke="#63b8ff" points="335,-110.75 338.5,-120.75 342,-110.75 335,-110.75"/>
</a>
</g>
</g>
</g>
</svg>
