<?xml version="1.0" encoding="UTF-8" standalone="no"?>
<!DOCTYPE svg PUBLIC "-//W3C//DTD SVG 1.1//EN"
 "http://www.w3.org/Graphics/SVG/1.1/DTD/svg11.dtd">
<!-- Generated by graphviz version 2.43.0 (0)
 -->
<!-- Title: config/DirektDescriptors.h Pages: 1 -->
<svg width="919pt" height="258pt"
 viewBox="0.00 0.00 918.66 258.00" xmlns="http://www.w3.org/2000/svg" xmlns:xlink="http://www.w3.org/1999/xlink">
<g id="graph0" class="graph" transform="scale(1 1) rotate(0) translate(4 254)">
<title>config/DirektDescriptors.h</title>
<!-- Node1 -->
<g id="Node000001" class="node">
<title>Node1</title>
<g id="a_Node000001"><a xlink:title=" ">
<polygon fill="#999999" stroke="#666666" points="404.16,-250 261.16,-250 261.16,-231 404.16,-231 404.16,-250"/>
<text text-anchor="middle" x="332.66" y="-238" font-family="Helvetica,sans-Serif" font-size="10.00">config/DirektDescriptors.h</text>
</a>
</g>
</g>
<!-- Node2 -->
<g id="Node000002" class="node">
<title>Node2</title>
<g id="a_Node000002"><a xlink:href="DirektDSP_8h.html" target="_top" xlink:title=" ">
<polygon fill="white" stroke="#666666" points="321.66,-85 247.66,-85 247.66,-66 321.66,-66 321.66,-85"/>
<text text-anchor="middle" x="284.66" y="-73" font-family="Helvetica,sans-Serif" font-size="10.00">DirektDSP.h</text>
</a>
</g>
</g>
<!-- Node1&#45;&gt;Node2 -->
<g id="edge1_Node000001_Node000002" class="edge">
<title>Node1&#45;&gt;Node2</title>
<g id="a_edge1_Node000001_Node000002"><a xlink:title=" ">
<path fill="none" stroke="#63b8ff" d="M250.83,-239.8C166.7,-238.16 43.82,-229.66 13.66,-195 -55.18,-115.88 158.34,-87.58 247.48,-79.37"/>
<polygon fill="#63b8ff" stroke="#63b8ff" points="250.84,-243.3 260.89,-239.97 250.95,-236.3 250.84,-243.3"/>
</a>
</g>
</g>
<!-- Node4 -->
<g id="Node000004" class="node">
<title>Node4</title>
<g id="a_Node000004"><a xlink:href="DirektDescriptorHelpers_8h.html" target="_top" xlink:title=" ">
<polygon fill="white" stroke="#666666" points="198.66,-195 22.66,-195 22.66,-176 198.66,-176 198.66,-195"/>
<text text-anchor="middle" x="110.66" y="-183" font-family="Helvetica,sans-Serif" font-size="10.00">config/DirektDescriptorHelpers.h</text>
</a>
</g>
</g>
<!-- Node1&#45;&gt;Node4 -->
<g id="edge3_Node000001_Node000004" class="edge">
<title>Node1&#45;&gt;Node4</title>
<g id="a_edge3_Node000001_Node000004"><a xlink:title=" ">
<path fill="none" stroke="#63b8ff" d="M287.12,-228.63C245.54,-218.7 184.88,-204.22 146.61,-195.08"/>
<polygon fill="#63b8ff" stroke="#63b8ff" points="286.46,-232.07 297,-230.98 288.08,-225.26 286.46,-232.07"/>
</a>
</g>
</g>
<!-- Node6 -->
<g id="Node000006" class="node">
<title>Node6</title>
<g id="a_Node000006"><a xlink:href="DirektAutoLayout_8h.html" target="_top" xlink:title=" ">
<polygon fill="white" stroke="#666666" points="352.16,-195 217.16,-195 217.16,-176 352.16,-176 352.16,-195"/>
<text text-anchor="middle" x="284.66" y="-183" font-family="Helvetica,sans-Serif" font-size="10.00">core/DirektAutoLayout.h</text>
</a>
</g>
</g>
<!-- Node1&#45;&gt;Node6 -->
<g id="edge6_Node000001_Node000006" class="edge">
<title>Node1&#45;&gt;Node6</title>
<g id="a_edge6_Node000001_Node000006"><a xlink:title=" ">
<path fill="none" stroke="#63b8ff" d="M317.94,-223.24C309.52,-213.95 299.32,-202.68 292.44,-195.09"/>
<polygon fill="#63b8ff" stroke="#63b8ff" points="315.43,-225.69 324.74,-230.75 320.62,-220.99 315.43,-225.69"/>
</a>
</g>
</g>
<!-- Node7 -->
<g id="Node000007" class="node">
<title>Node7</title>
<g id="a_Node000007"><a xlink:href="DirektBaseEditor_8h.html" target="_top" xlink:title=" ">
<polygon fill="white" stroke="#666666" points="444.16,-140 313.16,-140 313.16,-121 444.16,-121 444.16,-140"/>
<text text-anchor="middle" x="378.66" y="-128" font-family="Helvetica,sans-Serif" font-size="10.00">core/DirektBaseEditor.h</text>
</a>
</g>
</g>
<!-- Node1&#45;&gt;Node7 -->
<g id="edge12_Node000001_Node000007" class="edge">
<title>Node1&#45;&gt;Node7</title>
<g id="a_edge12_Node000001_Node000007"><a xlink:title=" ">
<path fill="none" stroke="#63b8ff" d="M345.11,-222.3C350.46,-214.29 356.45,-204.47 360.66,-195 368.96,-176.37 374.42,-152.95 376.98,-140.4"/>
<polygon fill="#63b8ff" stroke="#63b8ff" points="342.09,-220.51 339.25,-230.72 347.83,-224.51 342.09,-220.51"/>
</a>
</g>
</g>
<!-- Node9 -->
<g id="Node000009" class="node">
<title>Node9</title>
<g id="a_Node000009"><a xlink:href="DirektComponentRegistry_8h.html" target="_top" xlink:title=" ">
<polygon fill="white" stroke="#666666" points="584.16,-195 409.16,-195 409.16,-176 584.16,-176 584.16,-195"/>
<text text-anchor="middle" x="496.66" y="-183" font-family="Helvetica,sans-Serif" font-size="10.00">core/DirektComponentRegistry.h</text>
</a>
</g>
</g>
<!-- Node1&#45;&gt;Node9 -->
<g id="edge13_Node000001_Node000009" class="edge">
<title>Node1&#45;&gt;Node9</title>
<g id="a_edge13_Node000001_Node000009"><a xlink:title=" ">
<path fill="none" stroke="#63b8ff" d="M368.87,-227.8C399.48,-217.91 442.62,-203.97 470.11,-195.08"/>
<polygon fill="#63b8ff" stroke="#63b8ff" points="367.45,-224.58 359.01,-230.98 369.61,-231.24 367.45,-224.58"/>
</a>
</g>
</g>
<!-- Node11 -->
<g id="Node000011" class="node">
<title>Node11</title>
<g id="a_Node000011"><a xlink:href="DirektFlexContainer_8h.html" target="_top" xlink:title=" ">
<polygon fill="white" stroke="#666666" points="776.16,-195 619.16,-195 619.16,-176 776.16,-176 776.16,-195"/>
<text text-anchor="middle" x="697.66" y="-183" font-family="Helvetica,sans-Serif" font-size="10.00">layout/DirektFlexContainer.h</text>
</a>
</g>
</g>
<!-- Node1&#45;&gt;Node11 -->
<g id="edge17_Node000001_Node000011" class="edge">
<title>Node1&#45;&gt;Node11</title>
<g id="a_edge17_Node000001_Node000011"><a xlink:title=" ">
<path fill="none" stroke="#63b8ff" d="M401.57,-229.49C470.1,-219.54 574.11,-204.44 638.86,-195.04"/>
<polygon fill="#63b8ff" stroke="#63b8ff" points="400.7,-226.08 391.31,-230.98 401.71,-233.01 400.7,-226.08"/>
</a>
</g>
</g>
<!-- Node3 -->
<g id="Node000003" class="node">
<title>Node3</title>
<g id="a_Node000003"><a xlink:href="StandaloneTestProcessor_8cpp.html" target="_top" xlink:title=" ">
<polygon fill="white" stroke="#666666" points="365.16,-30 204.16,-30 204.16,0 365.16,0 365.16,-30"/>
<text text-anchor="start" x="212.16" y="-18" font-family="Helvetica,sans-Serif" font-size="10.00">examples/StandaloneTest</text>
<text text-anchor="middle" x="284.66" y="-7" font-family="Helvetica,sans-Serif" font-size="10.00">/StandaloneTestProcessor.cpp</text>
</a>
</g>
</g>
<!-- Node2&#45;&gt;Node3 -->
<g id="edge2_Node000002_Node000003" class="edge">
<title>Node2&#45;&gt;Node3</title>
<g id="a_edge2_Node000002_Node000003"><a xlink:title=" ">
<path fill="none" stroke="#63b8ff" d="M284.66,-55.65C284.66,-47.36 284.66,-37.78 284.66,-30.11"/>
<polygon fill="#63b8ff" stroke="#63b8ff" points="281.17,-55.87 284.66,-65.87 288.17,-55.87 281.17,-55.87"/>
</a>
</g>
</g>
<!-- Node4&#45;&gt;Node2 -->
<g id="edge4_Node000004_Node000002" class="edge">
<title>Node4&#45;&gt;Node2</title>
<g id="a_edge4_Node000004_Node000002"><a xlink:title=" ">
<path fill="none" stroke="#63b8ff" d="M101.43,-166.21C95.9,-152.39 91.69,-133.7 101.66,-121 119.45,-98.38 199.27,-85.83 247.43,-80.19"/>
<polygon fill="#63b8ff" stroke="#63b8ff" points="98.39,-167.98 105.7,-175.64 104.77,-165.09 98.39,-167.98"/>
</a>
</g>
</g>
<!-- Node5 -->
<g id="Node000005" class="node">
<title>Node5</title>
<g id="a_Node000005"><a xlink:href="DirektAutoLayout_8cpp.html" target="_top" xlink:title=" ">
<polygon fill="white" stroke="#666666" points="256.66,-140 110.66,-140 110.66,-121 256.66,-121 256.66,-140"/>
<text text-anchor="middle" x="183.66" y="-128" font-family="Helvetica,sans-Serif" font-size="10.00">core/DirektAutoLayout.cpp</text>
</a>
</g>
</g>
<!-- Node4&#45;&gt;Node5 -->
<g id="edge5_Node000004_Node000005" class="edge">
<title>Node4&#45;&gt;Node5</title>
<g id="a_edge5_Node000004_Node000005"><a xlink:title=" ">
<path fill="none" stroke="#63b8ff" d="M130.81,-169.88C143.94,-160.34 160.65,-148.21 171.72,-140.17"/>
<polygon fill="#63b8ff" stroke="#63b8ff" points="128.43,-167.28 122.39,-175.98 132.54,-172.94 128.43,-167.28"/>
</a>
</g>
</g>
<!-- Node6&#45;&gt;Node2 -->
<g id="edge7_Node000006_Node000002" class="edge">
<title>Node6&#45;&gt;Node2</title>
<g id="a_edge7_Node000006_Node000002"><a xlink:title=" ">
<path fill="none" stroke="#63b8ff" d="M284.66,-165.48C284.66,-141.84 284.66,-102.5 284.66,-85.16"/>
<polygon fill="#63b8ff" stroke="#63b8ff" points="281.17,-165.66 284.66,-175.66 288.17,-165.66 281.17,-165.66"/>
</a>
</g>
</g>
<!-- Node6&#45;&gt;Node5 -->
<g id="edge8_Node000006_Node000005" class="edge">
<title>Node6&#45;&gt;Node5</title>
<g id="a_edge8_Node000006_Node000005"><a xlink:title=" ">
<path fill="none" stroke="#63b8ff" d="M259.38,-171.23C240.86,-161.51 216.25,-148.6 200.19,-140.17"/>
<polygon fill="#63b8ff" stroke="#63b8ff" points="257.96,-174.44 268.44,-175.98 261.21,-168.24 257.96,-174.44"/>
</a>
</g>
</g>
<!-- Node6&#45;&gt;Node7 -->
<g id="edge9_Node000006_Node000007" class="edge">
<title>Node6&#45;&gt;Node7</title>
<g id="a_edge9_Node000006_Node000007"><a xlink:title=" ">
<path fill="none" stroke="#63b8ff" d="M308.67,-170.97C325.85,-161.28 348.48,-148.52 363.29,-140.17"/>
<polygon fill="#63b8ff" stroke="#63b8ff" points="306.76,-168.02 299.77,-175.98 310.2,-174.12 306.76,-168.02"/>
</a>
</g>
</g>
<!-- Node7&#45;&gt;Node2 -->
<g id="edge10_Node000007_Node000002" class="edge">
<title>Node7&#45;&gt;Node2</title>
<g id="a_edge10_Node000007_Node000002"><a xlink:title=" ">
<path fill="none" stroke="#63b8ff" d="M354.66,-115.97C337.48,-106.28 314.85,-93.52 300.04,-85.17"/>
<polygon fill="#63b8ff" stroke="#63b8ff" points="353.13,-119.12 363.56,-120.98 356.57,-113.02 353.13,-119.12"/>
</a>
</g>
</g>
<!-- Node8 -->
<g id="Node000008" class="node">
<title>Node8</title>
<g id="a_Node000008"><a xlink:href="DirektBaseEditor_8cpp.html" target="_top" xlink:title=" ">
<polygon fill="white" stroke="#666666" points="483.16,-85 340.16,-85 340.16,-66 483.16,-66 483.16,-85"/>
<text text-anchor="middle" x="411.66" y="-73" font-family="Helvetica,sans-Serif" font-size="10.00">core/DirektBaseEditor.cpp</text>
</a>
</g>
</g>
<!-- Node7&#45;&gt;Node8 -->
<g id="edge11_Node000007_Node000008" class="edge">
<title>Node7&#45;&gt;Node8</title>
<g id="a_edge11_Node000007_Node000008"><a xlink:title=" ">
<path fill="none" stroke="#63b8ff" d="M389.5,-112.1C395.14,-103.04 401.78,-92.37 406.32,-85.09"/>
<polygon fill="#63b8ff" stroke="#63b8ff" points="386.43,-110.41 384.11,-120.75 392.37,-114.11 386.43,-110.41"/>
</a>
</g>
</g>
<!-- Node9&#45;&gt;Node2 -->
<g id="edge14_Node000009_Node000002" class="edge">
<title>Node9&#45;&gt;Node2</title>
<g id="a_edge14_Node000009_Node000002"><a xlink:title=" ">
<path fill="none" stroke="#63b8ff" d="M488.46,-166.24C481.09,-151.86 468.92,-132.41 452.66,-121 441.92,-113.46 368.17,-95.61 322.03,-84.95"/>
<polygon fill="#63b8ff" stroke="#63b8ff" points="485.49,-168.12 492.98,-175.62 491.8,-165.09 485.49,-168.12"/>
</a>
</g>
</g>
<!-- Node9&#45;&gt;Node7 -->
<g id="edge15_Node000009_Node000007" class="edge">
<title>Node9&#45;&gt;Node7</title>
<g id="a_edge15_Node000009_Node000007"><a xlink:title=" ">
<path fill="none" stroke="#63b8ff" d="M468.31,-171.77C446.55,-161.99 417.08,-148.75 397.97,-140.17"/>
<polygon fill="#63b8ff" stroke="#63b8ff" points="467.15,-175.08 477.71,-175.98 470.02,-168.69 467.15,-175.08"/>
</a>
</g>
</g>
<!-- Node10 -->
<g id="Node000010" class="node">
<title>Node10</title>
<g id="a_Node000010"><a xlink:href="DirektComponentRegistry_8cpp.html" target="_top" xlink:title=" ">
<polygon fill="white" stroke="#666666" points="686.66,-140 500.66,-140 500.66,-121 686.66,-121 686.66,-140"/>
<text text-anchor="middle" x="593.66" y="-128" font-family="Helvetica,sans-Serif" font-size="10.00">core/DirektComponentRegistry.cpp</text>
</a>
</g>
</g>
<!-- Node9&#45;&gt;Node10 -->
<g id="edge16_Node000009_Node000010" class="edge">
<title>Node9&#45;&gt;Node10</title>
<g id="a_edge16_Node000009_Node000010"><a xlink:title=" ">
<path fill="none" stroke="#63b8ff" d="M521.44,-170.97C539.17,-161.28 562.51,-148.52 577.8,-140.17"/>
<polygon fill="#63b8ff" stroke="#63b8ff" points="519.35,-168.12 512.25,-175.98 522.7,-174.26 519.35,-168.12"/>
</a>
</g>
</g>
<!-- Node11&#45;&gt;Node2 -->
<g id="edge18_Node000011_Node000002" class="edge">
<title>Node11&#45;&gt;Node2</title>
<g id="a_edge18_Node000011_Node000002"><a xlink:title=" ">
<path fill="none" stroke="#63b8ff" d="M703.01,-165.68C705.78,-151.55 706.6,-132.7 695.66,-121 667.83,-91.24 371.02,-90.71 330.66,-85 327.77,-84.59 324.78,-84.13 321.78,-83.64"/>
<polygon fill="#63b8ff" stroke="#63b8ff" points="699.52,-165.23 700.57,-175.77 706.33,-166.88 699.52,-165.23"/>
</a>
</g>
</g>
<!-- Node11&#45;&gt;Node10 -->
<g id="edge19_Node000011_Node000010" class="edge">
<title>Node11&#45;&gt;Node10</title>
<g id="a_edge19_Node000011_Node000010"><a xlink:title=" ">
<path fill="none" stroke="#63b8ff" d="M671.9,-171.37C652.79,-161.63 627.29,-148.64 610.68,-140.17"/>
<polygon fill="#63b8ff" stroke="#63b8ff" points="670.46,-174.56 680.96,-175.98 673.64,-168.33 670.46,-174.56"/>
</a>
</g>
</g>
<!-- Node12 -->
<g id="Node000012" class="node">
<title>Node12</title>
<g id="a_Node000012"><a xlink:href="DirektFlexContainer_8cpp.html" target="_top" xlink:title=" ">
<polygon fill="white" stroke="#666666" points="910.66,-140 742.66,-140 742.66,-121 910.66,-121 910.66,-140"/>
<text text-anchor="middle" x="826.66" y="-128" font-family="Helvetica,sans-Serif" font-size="10.00">layout/DirektFlexContainer.cpp</text>
</a>
</g>
</g>
<!-- Node11&#45;&gt;Node12 -->
<g id="edge20_Node000011_Node000012" class="edge">
<title>Node11&#45;&gt;Node12</title>
<g id="a_edge20_Node000011_Node000012"><a xlink:title=" ">
<path fill="none" stroke="#63b8ff" d="M727.7,-172.16C751.58,-162.35 784.39,-148.87 805.56,-140.17"/>
<polygon fill="#63b8ff" stroke="#63b8ff" points="726.31,-168.95 718.39,-175.98 728.97,-175.42 726.31,-168.95"/>
</a>
</g>
</g>
</g>
</svg>
