<?xml version="1.0" encoding="UTF-8" standalone="no"?>
<!DOCTYPE svg PUBLIC "-//W3C//DTD SVG 1.1//EN"
 "http://www.w3.org/Graphics/SVG/1.1/DTD/svg11.dtd">
<!-- Generated by graphviz version 2.43.0 (0)
 -->
<!-- Title: theme/DirektColours.h Pages: 1 -->
<svg width="2567pt" height="247pt"
 viewBox="0.00 0.00 2566.81 247.00" xmlns="http://www.w3.org/2000/svg" xmlns:xlink="http://www.w3.org/1999/xlink">
<g id="graph0" class="graph" transform="scale(1 1) rotate(0) translate(4 243)">
<title>theme/DirektColours.h</title>
<!-- Node1 -->
<g id="Node000001" class="node">
<title>Node1</title>
<g id="a_Node000001"><a xlink:title=" ">
<polygon fill="#999999" stroke="#666666" points="1316.31,-239 1189.31,-239 1189.31,-220 1316.31,-220 1316.31,-239"/>
<text text-anchor="middle" x="1252.81" y="-227" font-family="Helvetica,sans-Serif" font-size="10.00">theme/DirektColours.h</text>
</a>
</g>
</g>
<!-- Node2 -->
<g id="Node000002" class="node">
<title>Node2</title>
<g id="a_Node000002"><a xlink:href="DirektDSP_8h.html" target="_top" xlink:title=" ">
<polygon fill="white" stroke="#666666" points="1053.81,-19 979.81,-19 979.81,0 1053.81,0 1053.81,-19"/>
<text text-anchor="middle" x="1016.81" y="-7" font-family="Helvetica,sans-Serif" font-size="10.00">DirektDSP.h</text>
</a>
</g>
</g>
<!-- Node1&#45;&gt;Node2 -->
<g id="edge1_Node000001_Node000002" class="edge">
<title>Node1&#45;&gt;Node2</title>
<g id="a_edge1_Node000001_Node000002"><a xlink:title=" ">
<path fill="none" stroke="#63b8ff" d="M1179.14,-229.36C1020.26,-230.26 633.88,-227.32 313.81,-184 168.94,-164.39 65.82,-206.39 3.81,-74 0.23,-66.35 -2.02,-61.1 3.81,-55 38.2,-19.07 801.36,-11.9 979.76,-10.71"/>
<polygon fill="#63b8ff" stroke="#63b8ff" points="1179.3,-232.86 1189.27,-229.29 1179.25,-225.86 1179.3,-232.86"/>
</a>
</g>
</g>
<!-- Node3 -->
<g id="Node000003" class="node">
<title>Node3</title>
<g id="a_Node000003"><a xlink:href="DirektFooter_8h.html" target="_top" xlink:title=" ">
<polygon fill="white" stroke="#666666" points="204.31,-129 79.31,-129 79.31,-110 204.31,-110 204.31,-129"/>
<text text-anchor="middle" x="141.81" y="-117" font-family="Helvetica,sans-Serif" font-size="10.00">chrome/DirektFooter.h</text>
</a>
</g>
</g>
<!-- Node1&#45;&gt;Node3 -->
<g id="edge2_Node000001_Node000003" class="edge">
<title>Node1&#45;&gt;Node3</title>
<g id="a_edge2_Node000001_Node000003"><a xlink:title=" ">
<path fill="none" stroke="#63b8ff" d="M1179.07,-228.86C1032.89,-228.63 696.33,-223.41 416.81,-184 326.08,-171.21 221.17,-143.22 171.21,-129.06"/>
<polygon fill="#63b8ff" stroke="#63b8ff" points="1179.26,-232.36 1189.27,-228.87 1179.27,-225.36 1179.26,-232.36"/>
</a>
</g>
</g>
<!-- Node5 -->
<g id="Node000005" class="node">
<title>Node5</title>
<g id="a_Node000005"><a xlink:href="DirektBaseEditor_8h.html" target="_top" xlink:title=" ">
<polygon fill="white" stroke="#666666" points="756.31,-74 625.31,-74 625.31,-55 756.31,-55 756.31,-74"/>
<text text-anchor="middle" x="690.81" y="-62" font-family="Helvetica,sans-Serif" font-size="10.00">core/DirektBaseEditor.h</text>
</a>
</g>
</g>
<!-- Node1&#45;&gt;Node5 -->
<g id="edge26_Node000001_Node000005" class="edge">
<title>Node1&#45;&gt;Node5</title>
<g id="a_edge26_Node000001_Node000005"><a xlink:title=" ">
<path fill="none" stroke="#63b8ff" d="M1178.81,-229.39C1018.64,-229.56 648.07,-219.88 570.81,-129 546.92,-100.89 597.09,-83.42 639.7,-74.08"/>
<polygon fill="#63b8ff" stroke="#63b8ff" points="1179.06,-232.89 1189.05,-229.36 1179.04,-225.89 1179.06,-232.89"/>
</a>
</g>
</g>
<!-- Node7 -->
<g id="Node000007" class="node">
<title>Node7</title>
<g id="a_Node000007"><a xlink:href="DirektHeader_8h.html" target="_top" xlink:title=" ">
<polygon fill="white" stroke="#666666" points="352.81,-129 222.81,-129 222.81,-110 352.81,-110 352.81,-129"/>
<text text-anchor="middle" x="287.81" y="-117" font-family="Helvetica,sans-Serif" font-size="10.00">chrome/DirektHeader.h</text>
</a>
</g>
</g>
<!-- Node1&#45;&gt;Node7 -->
<g id="edge8_Node000001_Node000007" class="edge">
<title>Node1&#45;&gt;Node7</title>
<g id="a_edge8_Node000001_Node000007"><a xlink:title=" ">
<path fill="none" stroke="#63b8ff" d="M1178.76,-226.35C1015.12,-221.23 627.07,-207.02 497.81,-184 427.5,-171.48 347.54,-143.23 309.77,-129.02"/>
<polygon fill="#63b8ff" stroke="#63b8ff" points="1179.1,-229.86 1189.2,-226.67 1179.32,-222.86 1179.1,-229.86"/>
</a>
</g>
</g>
<!-- Node9 -->
<g id="Node000009" class="node">
<title>Node9</title>
<g id="a_Node000009"><a xlink:href="DirektPopupPanel_8h.html" target="_top" xlink:title=" ">
<polygon fill="white" stroke="#666666" points="522.81,-129 370.81,-129 370.81,-110 522.81,-110 522.81,-129"/>
<text text-anchor="middle" x="446.81" y="-117" font-family="Helvetica,sans-Serif" font-size="10.00">chrome/DirektPopupPanel.h</text>
</a>
</g>
</g>
<!-- Node1&#45;&gt;Node9 -->
<g id="edge12_Node000001_Node000009" class="edge">
<title>Node1&#45;&gt;Node9</title>
<g id="a_edge12_Node000001_Node000009"><a xlink:title=" ">
<path fill="none" stroke="#63b8ff" d="M1178.95,-228.98C1020.64,-229.19 653.57,-225.07 536.81,-184 502.9,-172.07 470.26,-143.42 455.31,-129.04"/>
<polygon fill="#63b8ff" stroke="#63b8ff" points="1179.08,-232.48 1189.07,-228.96 1179.06,-225.48 1179.08,-232.48"/>
</a>
</g>
</g>
<!-- Node11 -->
<g id="Node000011" class="node">
<title>Node11</title>
<g id="a_Node000011"><a xlink:href="DirektPresetBrowser_8h.html" target="_top" xlink:title=" ">
<polygon fill="white" stroke="#666666" points="744.31,-129 579.31,-129 579.31,-110 744.31,-110 744.31,-129"/>
<text text-anchor="middle" x="661.81" y="-117" font-family="Helvetica,sans-Serif" font-size="10.00">chrome/DirektPresetBrowser.h</text>
</a>
</g>
</g>
<!-- Node1&#45;&gt;Node11 -->
<g id="edge16_Node000001_Node000011" class="edge">
<title>Node1&#45;&gt;Node11</title>
<g id="a_edge16_Node000001_Node000011"><a xlink:title=" ">
<path fill="none" stroke="#63b8ff" d="M1195.24,-218.14C1145.38,-209.15 1071.33,-195.77 1006.81,-184 899.72,-164.46 773.98,-141.25 707.84,-129.02"/>
<polygon fill="#63b8ff" stroke="#63b8ff" points="1194.73,-221.6 1205.19,-219.93 1195.97,-214.71 1194.73,-221.6"/>
</a>
</g>
</g>
<!-- Node13 -->
<g id="Node000013" class="node">
<title>Node13</title>
<g id="a_Node000013"><a xlink:href="DirektConfig_8h.html" target="_top" xlink:title=" ">
<polygon fill="white" stroke="#666666" points="881.31,-129 762.31,-129 762.31,-110 881.31,-110 881.31,-129"/>
<text text-anchor="middle" x="821.81" y="-117" font-family="Helvetica,sans-Serif" font-size="10.00">config/DirektConfig.h</text>
</a>
</g>
</g>
<!-- Node1&#45;&gt;Node13 -->
<g id="edge20_Node000001_Node000013" class="edge">
<title>Node1&#45;&gt;Node13</title>
<g id="a_edge20_Node000001_Node000013"><a xlink:title=" ">
<path fill="none" stroke="#63b8ff" d="M1208.91,-217.5C1122.84,-195.93 933.57,-148.5 856,-129.07"/>
<polygon fill="#63b8ff" stroke="#63b8ff" points="1208.08,-220.9 1218.63,-219.94 1209.79,-214.11 1208.08,-220.9"/>
</a>
</g>
</g>
<!-- Node14 -->
<g id="Node000014" class="node">
<title>Node14</title>
<g id="a_Node000014"><a xlink:href="DirektComboBox_8cpp.html" target="_top" xlink:title=" ">
<polygon fill="white" stroke="#666666" points="2214.81,-184 2052.81,-184 2052.81,-165 2214.81,-165 2214.81,-184"/>
<text text-anchor="middle" x="2133.81" y="-172" font-family="Helvetica,sans-Serif" font-size="10.00">controls/DirektComboBox.cpp</text>
</a>
</g>
</g>
<!-- Node1&#45;&gt;Node14 -->
<g id="edge23_Node000001_Node000014" class="edge">
<title>Node1&#45;&gt;Node14</title>
<g id="a_edge23_Node000001_Node000014"><a xlink:title=" ">
<path fill="none" stroke="#63b8ff" d="M1326.62,-225.28C1466.59,-218.98 1780.22,-203.86 2043.81,-184 2046.63,-183.79 2049.5,-183.56 2052.39,-183.33"/>
<polygon fill="#63b8ff" stroke="#63b8ff" points="1326.27,-221.8 1316.44,-225.74 1326.58,-228.79 1326.27,-221.8"/>
</a>
</g>
</g>
<!-- Node15 -->
<g id="Node000015" class="node">
<title>Node15</title>
<g id="a_Node000015"><a xlink:href="DirektKnob_8cpp.html" target="_top" xlink:title=" ">
<polygon fill="white" stroke="#666666" points="2366.81,-184 2232.81,-184 2232.81,-165 2366.81,-165 2366.81,-184"/>
<text text-anchor="middle" x="2299.81" y="-172" font-family="Helvetica,sans-Serif" font-size="10.00">controls/DirektKnob.cpp</text>
</a>
</g>
</g>
<!-- Node1&#45;&gt;Node15 -->
<g id="edge24_Node000001_Node000015" class="edge">
<title>Node1&#45;&gt;Node15</title>
<g id="a_edge24_Node000001_Node000015"><a xlink:title=" ">
<path fill="none" stroke="#63b8ff" d="M1326.89,-226.76C1489.45,-222.59 1889.64,-210.32 2223.81,-184 2226.73,-183.77 2229.7,-183.52 2232.7,-183.25"/>
<polygon fill="#63b8ff" stroke="#63b8ff" points="1326.43,-223.27 1316.53,-227.03 1326.61,-230.27 1326.43,-223.27"/>
</a>
</g>
</g>
<!-- Node16 -->
<g id="Node000016" class="node">
<title>Node16</title>
<g id="a_Node000016"><a xlink:href="DirektMacroControl_8cpp.html" target="_top" xlink:title=" ">
<polygon fill="white" stroke="#666666" points="2558.81,-184 2384.81,-184 2384.81,-165 2558.81,-165 2558.81,-184"/>
<text text-anchor="middle" x="2471.81" y="-172" font-family="Helvetica,sans-Serif" font-size="10.00">controls/DirektMacroControl.cpp</text>
</a>
</g>
</g>
<!-- Node1&#45;&gt;Node16 -->
<g id="edge25_Node000001_Node000016" class="edge">
<title>Node1&#45;&gt;Node16</title>
<g id="a_edge25_Node000001_Node000016"><a xlink:title=" ">
<path fill="none" stroke="#63b8ff" d="M1326.63,-226.82C1506.3,-222.46 1980.66,-209.31 2375.81,-184 2378.74,-183.81 2381.71,-183.61 2384.71,-183.4"/>
<polygon fill="#63b8ff" stroke="#63b8ff" points="1326.41,-223.32 1316.5,-227.06 1326.58,-230.32 1326.41,-223.32"/>
</a>
</g>
</g>
<!-- Node17 -->
<g id="Node000017" class="node">
<title>Node17</title>
<g id="a_Node000017"><a xlink:href="DirektComponentRegistry_8cpp.html" target="_top" xlink:title=" ">
<polygon fill="white" stroke="#666666" points="1916.81,-129 1730.81,-129 1730.81,-110 1916.81,-110 1916.81,-129"/>
<text text-anchor="middle" x="1823.81" y="-117" font-family="Helvetica,sans-Serif" font-size="10.00">core/DirektComponentRegistry.cpp</text>
</a>
</g>
</g>
<!-- Node1&#45;&gt;Node17 -->
<g id="edge27_Node000001_Node000017" class="edge">
<title>Node1&#45;&gt;Node17</title>
<g id="a_edge27_Node000001_Node000017"><a xlink:title=" ">
<path fill="none" stroke="#63b8ff" d="M1326.63,-225.29C1438.51,-219.78 1645.42,-206.83 1715.81,-184 1735.68,-177.56 1786.5,-145.06 1810.66,-129.21"/>
<polygon fill="#63b8ff" stroke="#63b8ff" points="1326.26,-221.81 1316.44,-225.79 1326.6,-228.8 1326.26,-221.81"/>
</a>
</g>
</g>
<!-- Node18 -->
<g id="Node000018" class="node">
<title>Node18</title>
<g id="a_Node000018"><a xlink:href="DirektLabel_8h.html" target="_top" xlink:title=" ">
<polygon fill="white" stroke="#666666" points="1426.81,-184 1306.81,-184 1306.81,-165 1426.81,-165 1426.81,-184"/>
<text text-anchor="middle" x="1366.81" y="-172" font-family="Helvetica,sans-Serif" font-size="10.00">display/DirektLabel.h</text>
</a>
</g>
</g>
<!-- Node1&#45;&gt;Node18 -->
<g id="edge28_Node000001_Node000018" class="edge">
<title>Node1&#45;&gt;Node18</title>
<g id="a_edge28_Node000001_Node000018"><a xlink:title=" ">
<path fill="none" stroke="#63b8ff" d="M1280.21,-215.77C1301.23,-205.99 1329.7,-192.75 1348.17,-184.17"/>
<polygon fill="#63b8ff" stroke="#63b8ff" points="1278.72,-212.6 1271.13,-219.98 1281.67,-218.94 1278.72,-212.6"/>
</a>
</g>
</g>
<!-- Node20 -->
<g id="Node000020" class="node">
<title>Node20</title>
<g id="a_Node000020"><a xlink:href="DirektMeter_8h.html" target="_top" xlink:title=" ">
<polygon fill="white" stroke="#666666" points="1884.81,-184 1762.81,-184 1762.81,-165 1884.81,-165 1884.81,-184"/>
<text text-anchor="middle" x="1823.81" y="-172" font-family="Helvetica,sans-Serif" font-size="10.00">display/DirektMeter.h</text>
</a>
</g>
</g>
<!-- Node1&#45;&gt;Node20 -->
<g id="edge32_Node000001_Node000020" class="edge">
<title>Node1&#45;&gt;Node20</title>
<g id="a_edge32_Node000001_Node000020"><a xlink:title=" ">
<path fill="none" stroke="#63b8ff" d="M1326.67,-222.42C1423.62,-214.31 1599.07,-199.2 1748.81,-184 1753.25,-183.55 1757.83,-183.07 1762.43,-182.57"/>
<polygon fill="#63b8ff" stroke="#63b8ff" points="1326.35,-218.93 1316.67,-223.25 1326.93,-225.91 1326.35,-218.93"/>
</a>
</g>
</g>
<!-- Node22 -->
<g id="Node000022" class="node">
<title>Node22</title>
<g id="a_Node000022"><a xlink:href="DirektSection_8h.html" target="_top" xlink:title=" ">
<polygon fill="white" stroke="#666666" points="1245.31,-184 1120.31,-184 1120.31,-165 1245.31,-165 1245.31,-184"/>
<text text-anchor="middle" x="1182.81" y="-172" font-family="Helvetica,sans-Serif" font-size="10.00">layout/DirektSection.h</text>
</a>
</g>
</g>
<!-- Node1&#45;&gt;Node22 -->
<g id="edge37_Node000001_Node000022" class="edge">
<title>Node1&#45;&gt;Node22</title>
<g id="a_edge37_Node000001_Node000022"><a xlink:title=" ">
<path fill="none" stroke="#63b8ff" d="M1233.5,-213.88C1220.9,-204.34 1204.89,-192.21 1194.27,-184.17"/>
<polygon fill="#63b8ff" stroke="#63b8ff" points="1231.48,-216.74 1241.57,-219.98 1235.71,-211.16 1231.48,-216.74"/>
</a>
</g>
</g>
<!-- Node26 -->
<g id="Node000026" class="node">
<title>Node26</title>
<g id="a_Node000026"><a xlink:href="DirektTabPanel_8h.html" target="_top" xlink:title=" ">
<polygon fill="white" stroke="#666666" points="2034.81,-184 1902.81,-184 1902.81,-165 2034.81,-165 2034.81,-184"/>
<text text-anchor="middle" x="1968.81" y="-172" font-family="Helvetica,sans-Serif" font-size="10.00">layout/DirektTabPanel.h</text>
</a>
</g>
</g>
<!-- Node1&#45;&gt;Node26 -->
<g id="edge46_Node000001_Node000026" class="edge">
<title>Node1&#45;&gt;Node26</title>
<g id="a_edge46_Node000001_Node000026"><a xlink:title=" ">
<path fill="none" stroke="#63b8ff" d="M1326.69,-224.42C1446.07,-217.59 1688.72,-202.73 1893.81,-184 1896.69,-183.74 1899.62,-183.46 1902.58,-183.17"/>
<polygon fill="#63b8ff" stroke="#63b8ff" points="1326.36,-220.93 1316.57,-225 1326.76,-227.92 1326.36,-220.93"/>
</a>
</g>
</g>
<!-- Node28 -->
<g id="Node000028" class="node">
<title>Node28</title>
<g id="a_Node000028"><a xlink:href="DirektLookAndFeel_8h.html" target="_top" xlink:title=" ">
<polygon fill="white" stroke="#666666" points="1706.81,-184 1554.81,-184 1554.81,-165 1706.81,-165 1706.81,-184"/>
<text text-anchor="middle" x="1630.81" y="-172" font-family="Helvetica,sans-Serif" font-size="10.00">theme/DirektLookAndFeel.h</text>
</a>
</g>
</g>
<!-- Node1&#45;&gt;Node28 -->
<g id="edge50_Node000001_Node000028" class="edge">
<title>Node1&#45;&gt;Node28</title>
<g id="a_edge50_Node000001_Node000028"><a xlink:title=" ">
<path fill="none" stroke="#63b8ff" d="M1323.74,-218.56C1394.7,-208.61 1502.72,-193.46 1569.92,-184.04"/>
<polygon fill="#63b8ff" stroke="#63b8ff" points="1322.96,-215.13 1313.55,-219.98 1323.94,-222.06 1322.96,-215.13"/>
</a>
</g>
</g>
<!-- Node3&#45;&gt;Node2 -->
<g id="edge3_Node000003_Node000002" class="edge">
<title>Node3&#45;&gt;Node2</title>
<g id="a_edge3_Node000003_Node000002"><a xlink:title=" ">
<path fill="none" stroke="#63b8ff" d="M151.66,-101.06C161.27,-85.9 177.41,-64.88 197.81,-55 268.74,-20.64 829.44,-12.43 979.81,-10.84"/>
<polygon fill="#63b8ff" stroke="#63b8ff" points="148.44,-99.61 146.31,-109.99 154.45,-103.21 148.44,-99.61"/>
</a>
</g>
</g>
<!-- Node4 -->
<g id="Node000004" class="node">
<title>Node4</title>
<g id="a_Node000004"><a xlink:href="DirektFooter_8cpp.html" target="_top" xlink:title=" ">
<polygon fill="white" stroke="#666666" points="150.31,-74 13.31,-74 13.31,-55 150.31,-55 150.31,-74"/>
<text text-anchor="middle" x="81.81" y="-62" font-family="Helvetica,sans-Serif" font-size="10.00">chrome/DirektFooter.cpp</text>
</a>
</g>
</g>
<!-- Node3&#45;&gt;Node4 -->
<g id="edge4_Node000003_Node000004" class="edge">
<title>Node3&#45;&gt;Node4</title>
<g id="a_edge4_Node000003_Node000004"><a xlink:title=" ">
<path fill="none" stroke="#63b8ff" d="M124.63,-103.32C113.94,-93.87 100.56,-82.06 91.63,-74.17"/>
<polygon fill="#63b8ff" stroke="#63b8ff" points="122.36,-105.99 132.17,-109.98 127,-100.74 122.36,-105.99"/>
</a>
</g>
</g>
<!-- Node3&#45;&gt;Node5 -->
<g id="edge5_Node000003_Node000005" class="edge">
<title>Node3&#45;&gt;Node5</title>
<g id="a_edge5_Node000003_Node000005"><a xlink:title=" ">
<path fill="none" stroke="#63b8ff" d="M214.71,-109.93C368,-93.83 535.15,-78.92 625.18,-71.11"/>
<polygon fill="#63b8ff" stroke="#63b8ff" points="214.21,-106.46 204.63,-110.99 214.95,-113.42 214.21,-106.46"/>
</a>
</g>
</g>
<!-- Node5&#45;&gt;Node2 -->
<g id="edge6_Node000005_Node000002" class="edge">
<title>Node5&#45;&gt;Node2</title>
<g id="a_edge6_Node000005_Node000002"><a xlink:title=" ">
<path fill="none" stroke="#63b8ff" d="M753.21,-53.36C820.27,-42.45 924.63,-25.49 979.78,-16.52"/>
<polygon fill="#63b8ff" stroke="#63b8ff" points="752.5,-49.93 743.19,-54.98 753.62,-56.83 752.5,-49.93"/>
</a>
</g>
</g>
<!-- Node6 -->
<g id="Node000006" class="node">
<title>Node6</title>
<g id="a_Node000006"><a xlink:href="DirektBaseEditor_8cpp.html" target="_top" xlink:title=" ">
<polygon fill="white" stroke="#666666" points="1634.31,-19 1491.31,-19 1491.31,0 1634.31,0 1634.31,-19"/>
<text text-anchor="middle" x="1562.81" y="-7" font-family="Helvetica,sans-Serif" font-size="10.00">core/DirektBaseEditor.cpp</text>
</a>
</g>
</g>
<!-- Node5&#45;&gt;Node6 -->
<g id="edge7_Node000005_Node000006" class="edge">
<title>Node5&#45;&gt;Node6</title>
<g id="a_edge7_Node000005_Node000006"><a xlink:title=" ">
<path fill="none" stroke="#63b8ff" d="M766.78,-54.97C1040.77,-32.08 1353.34,-18.48 1491.28,-13.12"/>
<polygon fill="#63b8ff" stroke="#63b8ff" points="766.32,-51.5 756.64,-55.82 766.9,-58.47 766.32,-51.5"/>
</a>
</g>
</g>
<!-- Node7&#45;&gt;Node2 -->
<g id="edge9_Node000007_Node000002" class="edge">
<title>Node7&#45;&gt;Node2</title>
<g id="a_edge9_Node000007_Node000002"><a xlink:title=" ">
<path fill="none" stroke="#63b8ff" d="M309.21,-104.46C335.48,-87.51 378.75,-60.58 396.81,-55 506.63,-21.08 862.92,-12.8 979.51,-10.97"/>
<polygon fill="#63b8ff" stroke="#63b8ff" points="307.18,-101.61 300.7,-109.99 310.99,-107.48 307.18,-101.61"/>
</a>
</g>
</g>
<!-- Node7&#45;&gt;Node5 -->
<g id="edge11_Node000007_Node000005" class="edge">
<title>Node7&#45;&gt;Node5</title>
<g id="a_edge11_Node000007_Node000005"><a xlink:title=" ">
<path fill="none" stroke="#63b8ff" d="M362.5,-108.68C438.14,-98.73 553.96,-83.5 625.89,-74.04"/>
<polygon fill="#63b8ff" stroke="#63b8ff" points="362.02,-105.21 352.56,-109.98 362.93,-112.15 362.02,-105.21"/>
</a>
</g>
</g>
<!-- Node8 -->
<g id="Node000008" class="node">
<title>Node8</title>
<g id="a_Node000008"><a xlink:href="DirektHeader_8cpp.html" target="_top" xlink:title=" ">
<polygon fill="white" stroke="#666666" points="348.31,-74 207.31,-74 207.31,-55 348.31,-55 348.31,-74"/>
<text text-anchor="middle" x="277.81" y="-62" font-family="Helvetica,sans-Serif" font-size="10.00">chrome/DirektHeader.cpp</text>
</a>
</g>
</g>
<!-- Node7&#45;&gt;Node8 -->
<g id="edge10_Node000007_Node000008" class="edge">
<title>Node7&#45;&gt;Node8</title>
<g id="a_edge10_Node000007_Node000008"><a xlink:title=" ">
<path fill="none" stroke="#63b8ff" d="M284.26,-99.66C282.61,-90.93 280.74,-80.99 279.44,-74.09"/>
<polygon fill="#63b8ff" stroke="#63b8ff" points="280.87,-100.57 286.16,-109.75 287.75,-99.27 280.87,-100.57"/>
</a>
</g>
</g>
<!-- Node9&#45;&gt;Node2 -->
<g id="edge13_Node000009_Node000002" class="edge">
<title>Node9&#45;&gt;Node2</title>
<g id="a_edge13_Node000009_Node000002"><a xlink:title=" ">
<path fill="none" stroke="#63b8ff" d="M484.93,-106.95C511.32,-98.62 547.09,-86.64 577.81,-74 595.64,-66.66 598.3,-60.37 616.81,-55 746.34,-17.46 907.92,-11.23 979.6,-10.44"/>
<polygon fill="#63b8ff" stroke="#63b8ff" points="483.8,-103.64 475.3,-109.96 485.89,-110.32 483.8,-103.64"/>
</a>
</g>
</g>
<!-- Node9&#45;&gt;Node5 -->
<g id="edge15_Node000009_Node000005" class="edge">
<title>Node9&#45;&gt;Node5</title>
<g id="a_edge15_Node000009_Node000005"><a xlink:title=" ">
<path fill="none" stroke="#63b8ff" d="M496,-107.82C541.73,-97.88 608.98,-83.28 651.3,-74.08"/>
<polygon fill="#63b8ff" stroke="#63b8ff" points="495.05,-104.44 486.02,-109.98 496.53,-111.28 495.05,-104.44"/>
</a>
</g>
</g>
<!-- Node10 -->
<g id="Node000010" class="node">
<title>Node10</title>
<g id="a_Node000010"><a xlink:href="DirektPopupPanel_8cpp.html" target="_top" xlink:title=" ">
<polygon fill="white" stroke="#666666" points="568.31,-74 405.31,-74 405.31,-55 568.31,-55 568.31,-74"/>
<text text-anchor="middle" x="486.81" y="-62" font-family="Helvetica,sans-Serif" font-size="10.00">chrome/DirektPopupPanel.cpp</text>
</a>
</g>
</g>
<!-- Node9&#45;&gt;Node10 -->
<g id="edge14_Node000009_Node000010" class="edge">
<title>Node9&#45;&gt;Node10</title>
<g id="a_edge14_Node000009_Node000010"><a xlink:title=" ">
<path fill="none" stroke="#63b8ff" d="M459.51,-101.67C466.44,-92.5 474.72,-81.52 480.33,-74.09"/>
<polygon fill="#63b8ff" stroke="#63b8ff" points="456.65,-99.66 453.42,-109.75 462.24,-103.87 456.65,-99.66"/>
</a>
</g>
</g>
<!-- Node11&#45;&gt;Node2 -->
<g id="edge17_Node000011_Node000002" class="edge">
<title>Node11&#45;&gt;Node2</title>
<g id="a_edge17_Node000011_Node000002"><a xlink:title=" ">
<path fill="none" stroke="#63b8ff" d="M747.01,-108.76C828.37,-98.98 941.29,-83.97 959.81,-74 984.08,-60.94 1003.17,-33.34 1011.8,-19.22"/>
<polygon fill="#63b8ff" stroke="#63b8ff" points="746.27,-105.33 736.75,-109.99 747.1,-112.28 746.27,-105.33"/>
</a>
</g>
</g>
<!-- Node11&#45;&gt;Node5 -->
<g id="edge19_Node000011_Node000005" class="edge">
<title>Node11&#45;&gt;Node5</title>
<g id="a_edge19_Node000011_Node000005"><a xlink:title=" ">
<path fill="none" stroke="#63b8ff" d="M671.49,-100.82C676.41,-91.82 682.17,-81.29 686.12,-74.09"/>
<polygon fill="#63b8ff" stroke="#63b8ff" points="668.33,-99.3 666.6,-109.75 674.47,-102.66 668.33,-99.3"/>
</a>
</g>
</g>
<!-- Node12 -->
<g id="Node000012" class="node">
<title>Node12</title>
<g id="a_Node000012"><a xlink:href="DirektPresetBrowser_8cpp.html" target="_top" xlink:title=" ">
<polygon fill="white" stroke="#666666" points="950.81,-74 774.81,-74 774.81,-55 950.81,-55 950.81,-74"/>
<text text-anchor="middle" x="862.81" y="-62" font-family="Helvetica,sans-Serif" font-size="10.00">chrome/DirektPresetBrowser.cpp</text>
</a>
</g>
</g>
<!-- Node11&#45;&gt;Node12 -->
<g id="edge18_Node000011_Node000012" class="edge">
<title>Node11&#45;&gt;Node12</title>
<g id="a_edge18_Node000011_Node000012"><a xlink:title=" ">
<path fill="none" stroke="#63b8ff" d="M704.25,-107.31C741.86,-97.39 795.99,-83.12 830.27,-74.08"/>
<polygon fill="#63b8ff" stroke="#63b8ff" points="702.89,-104.05 694.11,-109.98 704.67,-110.82 702.89,-104.05"/>
</a>
</g>
</g>
<!-- Node13&#45;&gt;Node2 -->
<g id="edge21_Node000013_Node000002" class="edge">
<title>Node13&#45;&gt;Node2</title>
<g id="a_edge21_Node000013_Node000002"><a xlink:title=" ">
<path fill="none" stroke="#63b8ff" d="M885.67,-108.18C927.35,-100.28 976.87,-88.33 992.81,-74 1008.94,-59.51 1014.29,-33.04 1016.02,-19.3"/>
<polygon fill="#63b8ff" stroke="#63b8ff" points="885.02,-104.74 875.82,-109.99 886.29,-111.62 885.02,-104.74"/>
</a>
</g>
</g>
<!-- Node13&#45;&gt;Node5 -->
<g id="edge22_Node000013_Node000005" class="edge">
<title>Node13&#45;&gt;Node5</title>
<g id="a_edge22_Node000013_Node000005"><a xlink:title=" ">
<path fill="none" stroke="#63b8ff" d="M791.31,-106.16C767.06,-96.35 733.75,-82.87 712.25,-74.17"/>
<polygon fill="#63b8ff" stroke="#63b8ff" points="790.18,-109.48 800.77,-109.98 792.81,-102.99 790.18,-109.48"/>
</a>
</g>
</g>
<!-- Node18&#45;&gt;Node2 -->
<g id="edge29_Node000018_Node000002" class="edge">
<title>Node18&#45;&gt;Node2</title>
<g id="a_edge29_Node000018_Node000002"><a xlink:title=" ">
<path fill="none" stroke="#63b8ff" d="M1348.62,-158.22C1338.57,-149.71 1325.91,-138.87 1314.81,-129 1278.63,-96.8 1277.91,-77.1 1234.81,-55 1176.21,-24.94 1098.97,-15.18 1053.91,-12.02"/>
<polygon fill="#63b8ff" stroke="#63b8ff" points="1346.45,-160.98 1356.35,-164.75 1350.97,-155.63 1346.45,-160.98"/>
</a>
</g>
</g>
<!-- Node18&#45;&gt;Node17 -->
<g id="edge30_Node000018_Node000017" class="edge">
<title>Node18&#45;&gt;Node17</title>
<g id="a_edge30_Node000018_Node000017"><a xlink:title=" ">
<path fill="none" stroke="#63b8ff" d="M1437.08,-165.35C1521.92,-155.51 1663.93,-139.04 1750.23,-129.03"/>
<polygon fill="#63b8ff" stroke="#63b8ff" points="1436.56,-161.89 1427.03,-166.52 1437.37,-168.84 1436.56,-161.89"/>
</a>
</g>
</g>
<!-- Node19 -->
<g id="Node000019" class="node">
<title>Node19</title>
<g id="a_Node000019"><a xlink:href="DirektLabel_8cpp.html" target="_top" xlink:title=" ">
<polygon fill="white" stroke="#666666" points="1454.31,-129 1323.31,-129 1323.31,-110 1454.31,-110 1454.31,-129"/>
<text text-anchor="middle" x="1388.81" y="-117" font-family="Helvetica,sans-Serif" font-size="10.00">display/DirektLabel.cpp</text>
</a>
</g>
</g>
<!-- Node18&#45;&gt;Node19 -->
<g id="edge31_Node000018_Node000019" class="edge">
<title>Node18&#45;&gt;Node19</title>
<g id="a_edge31_Node000018_Node000019"><a xlink:title=" ">
<path fill="none" stroke="#63b8ff" d="M1374.39,-155.24C1378.07,-146.37 1382.32,-136.14 1385.25,-129.09"/>
<polygon fill="#63b8ff" stroke="#63b8ff" points="1371.05,-154.17 1370.45,-164.75 1377.51,-156.85 1371.05,-154.17"/>
</a>
</g>
</g>
<!-- Node20&#45;&gt;Node2 -->
<g id="edge33_Node000020_Node000002" class="edge">
<title>Node20&#45;&gt;Node2</title>
<g id="a_edge33_Node000020_Node000002"><a xlink:title=" ">
<path fill="none" stroke="#63b8ff" d="M1871.94,-162.21C1907.36,-151.66 1946.09,-133.93 1925.81,-110 1868.45,-42.28 1217.68,-16.95 1054,-11.62"/>
<polygon fill="#63b8ff" stroke="#63b8ff" points="1870.76,-158.91 1862.09,-165 1872.67,-165.64 1870.76,-158.91"/>
</a>
</g>
</g>
<!-- Node20&#45;&gt;Node6 -->
<g id="edge34_Node000020_Node000006" class="edge">
<title>Node20&#45;&gt;Node6</title>
<g id="a_edge34_Node000020_Node000006"><a xlink:title=" ">
<path fill="none" stroke="#63b8ff" d="M1877.24,-162.6C1910.52,-154.61 1948.85,-142.77 1958.81,-129 1978.09,-102.35 1980.73,-79.52 1958.81,-55 1937.63,-31.31 1742.84,-18.7 1634.58,-13.47"/>
<polygon fill="#63b8ff" stroke="#63b8ff" points="1876.06,-159.28 1867.11,-164.96 1877.64,-166.1 1876.06,-159.28"/>
</a>
</g>
</g>
<!-- Node20&#45;&gt;Node17 -->
<g id="edge35_Node000020_Node000017" class="edge">
<title>Node20&#45;&gt;Node17</title>
<g id="a_edge35_Node000020_Node000017"><a xlink:title=" ">
<path fill="none" stroke="#63b8ff" d="M1823.81,-154.66C1823.81,-145.93 1823.81,-135.99 1823.81,-129.09"/>
<polygon fill="#63b8ff" stroke="#63b8ff" points="1820.31,-154.75 1823.81,-164.75 1827.31,-154.75 1820.31,-154.75"/>
</a>
</g>
</g>
<!-- Node21 -->
<g id="Node000021" class="node">
<title>Node21</title>
<g id="a_Node000021"><a xlink:href="DirektMeter_8cpp.html" target="_top" xlink:title=" ">
<polygon fill="white" stroke="#666666" points="2144.31,-129 2011.31,-129 2011.31,-110 2144.31,-110 2144.31,-129"/>
<text text-anchor="middle" x="2077.81" y="-117" font-family="Helvetica,sans-Serif" font-size="10.00">display/DirektMeter.cpp</text>
</a>
</g>
</g>
<!-- Node20&#45;&gt;Node21 -->
<g id="edge36_Node000020_Node000021" class="edge">
<title>Node20&#45;&gt;Node21</title>
<g id="a_edge36_Node000020_Node000021"><a xlink:title=" ">
<path fill="none" stroke="#63b8ff" d="M1874.42,-162.94C1922.03,-153.01 1992.44,-138.31 2036.69,-129.08"/>
<polygon fill="#63b8ff" stroke="#63b8ff" points="1873.7,-159.52 1864.62,-164.98 1875.13,-166.37 1873.7,-159.52"/>
</a>
</g>
</g>
<!-- Node22&#45;&gt;Node2 -->
<g id="edge38_Node000022_Node000002" class="edge">
<title>Node22&#45;&gt;Node2</title>
<g id="a_edge38_Node000022_Node000002"><a xlink:title=" ">
<path fill="none" stroke="#63b8ff" d="M1208.89,-159.51C1219.97,-152.06 1231.72,-141.77 1237.81,-129 1249.52,-104.47 1219.84,-58.42 1215.81,-55 1191.75,-34.52 1104.5,-20.97 1053.87,-14.64"/>
<polygon fill="#63b8ff" stroke="#63b8ff" points="1206.92,-156.62 1200.27,-164.88 1210.61,-162.57 1206.92,-156.62"/>
</a>
</g>
</g>
<!-- Node22&#45;&gt;Node5 -->
<g id="edge43_Node000022_Node000005" class="edge">
<title>Node22&#45;&gt;Node5</title>
<g id="a_edge43_Node000022_Node000005"><a xlink:title=" ">
<path fill="none" stroke="#63b8ff" d="M1154.3,-160.8C1134.7,-152 1108.1,-139.96 1084.81,-129 1067.37,-120.79 1064.3,-115.5 1045.81,-110 1032.14,-105.93 855.2,-84.78 756.42,-73.16"/>
<polygon fill="#63b8ff" stroke="#63b8ff" points="1153.03,-164.06 1163.59,-164.96 1155.89,-157.68 1153.03,-164.06"/>
</a>
</g>
</g>
<!-- Node22&#45;&gt;Node17 -->
<g id="edge44_Node000022_Node000017" class="edge">
<title>Node22&#45;&gt;Node17</title>
<g id="a_edge44_Node000022_Node000017"><a xlink:title=" ">
<path fill="none" stroke="#63b8ff" d="M1255.72,-167.47C1372.63,-157.81 1601.93,-138.85 1730.59,-128.21"/>
<polygon fill="#63b8ff" stroke="#63b8ff" points="1255.12,-164.01 1245.44,-168.32 1255.7,-170.99 1255.12,-164.01"/>
</a>
</g>
</g>
<!-- Node23 -->
<g id="Node000023" class="node">
<title>Node23</title>
<g id="a_Node000023"><a xlink:href="DirektAutoLayout_8h.html" target="_top" xlink:title=" ">
<polygon fill="white" stroke="#666666" points="1228.31,-129 1093.31,-129 1093.31,-110 1228.31,-110 1228.31,-129"/>
<text text-anchor="middle" x="1160.81" y="-117" font-family="Helvetica,sans-Serif" font-size="10.00">core/DirektAutoLayout.h</text>
</a>
</g>
</g>
<!-- Node22&#45;&gt;Node23 -->
<g id="edge39_Node000022_Node000023" class="edge">
<title>Node22&#45;&gt;Node23</title>
<g id="a_edge39_Node000022_Node000023"><a xlink:title=" ">
<path fill="none" stroke="#63b8ff" d="M1175.24,-155.24C1171.55,-146.37 1167.31,-136.14 1164.38,-129.09"/>
<polygon fill="#63b8ff" stroke="#63b8ff" points="1172.12,-156.85 1179.18,-164.75 1178.58,-154.17 1172.12,-156.85"/>
</a>
</g>
</g>
<!-- Node25 -->
<g id="Node000025" class="node">
<title>Node25</title>
<g id="a_Node000025"><a xlink:href="DirektSection_8cpp.html" target="_top" xlink:title=" ">
<polygon fill="white" stroke="#666666" points="1036.31,-129 899.31,-129 899.31,-110 1036.31,-110 1036.31,-129"/>
<text text-anchor="middle" x="967.81" y="-117" font-family="Helvetica,sans-Serif" font-size="10.00">layout/DirektSection.cpp</text>
</a>
</g>
</g>
<!-- Node22&#45;&gt;Node25 -->
<g id="edge45_Node000022_Node000025" class="edge">
<title>Node22&#45;&gt;Node25</title>
<g id="a_edge45_Node000022_Node000025"><a xlink:title=" ">
<path fill="none" stroke="#63b8ff" d="M1138.45,-162.56C1098.19,-152.64 1039.61,-138.2 1002.63,-129.08"/>
<polygon fill="#63b8ff" stroke="#63b8ff" points="1137.72,-165.99 1148.27,-164.98 1139.4,-159.19 1137.72,-165.99"/>
</a>
</g>
</g>
<!-- Node23&#45;&gt;Node2 -->
<g id="edge40_Node000023_Node000002" class="edge">
<title>Node23&#45;&gt;Node2</title>
<g id="a_edge40_Node000023_Node000002"><a xlink:title=" ">
<path fill="none" stroke="#63b8ff" d="M1180.95,-103.2C1195.97,-89.92 1211.96,-70.45 1199.81,-55 1182.03,-32.38 1102.21,-19.83 1054.05,-14.19"/>
<polygon fill="#63b8ff" stroke="#63b8ff" points="1178.36,-100.8 1172.89,-109.87 1182.82,-106.19 1178.36,-100.8"/>
</a>
</g>
</g>
<!-- Node23&#45;&gt;Node5 -->
<g id="edge42_Node000023_Node000005" class="edge">
<title>Node23&#45;&gt;Node5</title>
<g id="a_edge42_Node000023_Node000005"><a xlink:title=" ">
<path fill="none" stroke="#63b8ff" d="M1083.06,-109.76C1003.4,-100.79 875.96,-86.45 765.81,-74 762.82,-73.66 759.76,-73.32 756.66,-72.97"/>
<polygon fill="#63b8ff" stroke="#63b8ff" points="1082.69,-113.24 1093.02,-110.88 1083.47,-106.28 1082.69,-113.24"/>
</a>
</g>
</g>
<!-- Node24 -->
<g id="Node000024" class="node">
<title>Node24</title>
<g id="a_Node000024"><a xlink:href="DirektAutoLayout_8cpp.html" target="_top" xlink:title=" ">
<polygon fill="white" stroke="#666666" points="1190.81,-74 1044.81,-74 1044.81,-55 1190.81,-55 1190.81,-74"/>
<text text-anchor="middle" x="1117.81" y="-62" font-family="Helvetica,sans-Serif" font-size="10.00">core/DirektAutoLayout.cpp</text>
</a>
</g>
</g>
<!-- Node23&#45;&gt;Node24 -->
<g id="edge41_Node000023_Node000024" class="edge">
<title>Node23&#45;&gt;Node24</title>
<g id="a_edge41_Node000023_Node000024"><a xlink:title=" ">
<path fill="none" stroke="#63b8ff" d="M1147.39,-101.96C1139.9,-92.72 1130.88,-81.6 1124.78,-74.09"/>
<polygon fill="#63b8ff" stroke="#63b8ff" points="1144.7,-104.19 1153.71,-109.75 1150.13,-99.78 1144.7,-104.19"/>
</a>
</g>
</g>
<!-- Node26&#45;&gt;Node2 -->
<g id="edge47_Node000026_Node000002" class="edge">
<title>Node26&#45;&gt;Node2</title>
<g id="a_edge47_Node000026_Node000002"><a xlink:title=" ">
<path fill="none" stroke="#63b8ff" d="M2045.14,-164.71C2089.82,-157.82 2140.08,-146.43 2153.81,-129 2159.04,-122.37 2159.33,-116.39 2153.81,-110 2080.26,-24.78 1241.34,-12.45 1053.83,-10.76"/>
<polygon fill="#63b8ff" stroke="#63b8ff" points="2044.5,-161.27 2035.12,-166.2 2045.53,-168.19 2044.5,-161.27"/>
</a>
</g>
</g>
<!-- Node26&#45;&gt;Node17 -->
<g id="edge48_Node000026_Node000017" class="edge">
<title>Node26&#45;&gt;Node17</title>
<g id="a_edge48_Node000026_Node000017"><a xlink:title=" ">
<path fill="none" stroke="#63b8ff" d="M1936.12,-161.55C1909.2,-151.71 1871.65,-137.98 1847.54,-129.17"/>
<polygon fill="#63b8ff" stroke="#63b8ff" points="1934.92,-164.84 1945.52,-164.98 1937.33,-158.26 1934.92,-164.84"/>
</a>
</g>
</g>
<!-- Node27 -->
<g id="Node000027" class="node">
<title>Node27</title>
<g id="a_Node000027"><a xlink:href="DirektTabPanel_8cpp.html" target="_top" xlink:title=" ">
<polygon fill="white" stroke="#666666" points="2344.31,-129 2201.31,-129 2201.31,-110 2344.31,-110 2344.31,-129"/>
<text text-anchor="middle" x="2272.81" y="-117" font-family="Helvetica,sans-Serif" font-size="10.00">layout/DirektTabPanel.cpp</text>
</a>
</g>
</g>
<!-- Node26&#45;&gt;Node27 -->
<g id="edge49_Node000026_Node000027" class="edge">
<title>Node26&#45;&gt;Node27</title>
<g id="a_edge49_Node000026_Node000027"><a xlink:title=" ">
<path fill="none" stroke="#63b8ff" d="M2027.62,-163.25C2084.7,-153.3 2170.35,-138.36 2223.84,-129.04"/>
<polygon fill="#63b8ff" stroke="#63b8ff" points="2026.91,-159.82 2017.66,-164.98 2028.11,-166.72 2026.91,-159.82"/>
</a>
</g>
</g>
<!-- Node28&#45;&gt;Node2 -->
<g id="edge51_Node000028_Node000002" class="edge">
<title>Node28&#45;&gt;Node2</title>
<g id="a_edge51_Node000028_Node000002"><a xlink:title=" ">
<path fill="none" stroke="#63b8ff" d="M1648.38,-157.66C1661.43,-143.99 1675.04,-124.26 1662.81,-110 1583.21,-17.19 1179.86,-10.13 1054.23,-10.21"/>
<polygon fill="#63b8ff" stroke="#63b8ff" points="1645.66,-155.43 1640.96,-164.92 1650.55,-160.43 1645.66,-155.43"/>
</a>
</g>
</g>
<!-- Node28&#45;&gt;Node5 -->
<g id="edge52_Node000028_Node000005" class="edge">
<title>Node28&#45;&gt;Node5</title>
<g id="a_edge52_Node000028_Node000005"><a xlink:title=" ">
<path fill="none" stroke="#63b8ff" d="M1642.53,-156.02C1650.46,-141.82 1657.54,-122.22 1645.81,-110 1611.93,-74.7 814.6,-77.76 765.81,-74 762.81,-73.77 759.74,-73.51 756.64,-73.23"/>
<polygon fill="#63b8ff" stroke="#63b8ff" points="1639.38,-154.47 1637.13,-164.82 1645.34,-158.13 1639.38,-154.47"/>
</a>
</g>
</g>
<!-- Node28&#45;&gt;Node17 -->
<g id="edge53_Node000028_Node000017" class="edge">
<title>Node28&#45;&gt;Node17</title>
<g id="a_edge53_Node000028_Node000017"><a xlink:title=" ">
<path fill="none" stroke="#63b8ff" d="M1671.56,-162.31C1707.67,-152.39 1759.65,-138.12 1792.56,-129.08"/>
<polygon fill="#63b8ff" stroke="#63b8ff" points="1670.54,-158.96 1661.82,-164.98 1672.39,-165.71 1670.54,-158.96"/>
</a>
</g>
</g>
<!-- Node29 -->
<g id="Node000029" class="node">
<title>Node29</title>
<g id="a_Node000029"><a xlink:href="DirektLookAndFeel_8cpp.html" target="_top" xlink:title=" ">
<polygon fill="white" stroke="#666666" points="1636.81,-129 1472.81,-129 1472.81,-110 1636.81,-110 1636.81,-129"/>
<text text-anchor="middle" x="1554.81" y="-117" font-family="Helvetica,sans-Serif" font-size="10.00">theme/DirektLookAndFeel.cpp</text>
</a>
</g>
</g>
<!-- Node28&#45;&gt;Node29 -->
<g id="edge54_Node000028_Node000029" class="edge">
<title>Node28&#45;&gt;Node29</title>
<g id="a_edge54_Node000028_Node000029"><a xlink:title=" ">
<path fill="none" stroke="#63b8ff" d="M1610.24,-159.15C1596.5,-149.57 1578.89,-137.29 1567.25,-129.17"/>
<polygon fill="#63b8ff" stroke="#63b8ff" points="1608.4,-162.14 1618.6,-164.98 1612.4,-156.39 1608.4,-162.14"/>
</a>
</g>
</g>
</g>
</svg>
