<?xml version="1.0" encoding="UTF-8" standalone="no"?>
<!DOCTYPE svg PUBLIC "-//W3C//DTD SVG 1.1//EN"
 "http://www.w3.org/Graphics/SVG/1.1/DTD/svg11.dtd">
<!-- Generated by graphviz version 2.43.0 (0)
 -->
<!-- Title: core/DirektComponentRegistry.cpp Pages: 1 -->
<svg width="1861pt" height="203pt"
 viewBox="0.00 0.00 1861.10 203.00" xmlns="http://www.w3.org/2000/svg" xmlns:xlink="http://www.w3.org/1999/xlink">
<g id="graph0" class="graph" transform="scale(1 1) rotate(0) translate(4 199)">
<title>core/DirektComponentRegistry.cpp</title>
<!-- Node1 -->
<g id="Node000001" class="node">
<title>Node1</title>
<g id="a_Node000001"><a xlink:title=" ">
<polygon fill="#999999" stroke="#666666" points="1200.1,-195 1014.1,-195 1014.1,-176 1200.1,-176 1200.1,-195"/>
<text text-anchor="middle" x="1107.1" y="-183" font-family="Helvetica,sans-Serif" font-size="10.00">core/DirektComponentRegistry.cpp</text>
</a>
</g>
</g>
<!-- Node2 -->
<g id="Node000002" class="node">
<title>Node2</title>
<g id="a_Node000002"><a xlink:href="DirektComponentRegistry_8h.html" target="_top" xlink:title=" ">
<polygon fill="white" stroke="#666666" points="387.6,-140 212.6,-140 212.6,-121 387.6,-121 387.6,-140"/>
<text text-anchor="middle" x="300.1" y="-128" font-family="Helvetica,sans-Serif" font-size="10.00">core/DirektComponentRegistry.h</text>
</a>
</g>
</g>
<!-- Node1&#45;&gt;Node2 -->
<g id="edge1_Node000001_Node000002" class="edge">
<title>Node1&#45;&gt;Node2</title>
<g id="a_edge1_Node000001_Node000002"><a xlink:title=" ">
<path fill="none" stroke="#63b8ff" d="M1013.74,-178.37C859.87,-168.26 554.49,-148.21 397.82,-137.92"/>
<polygon fill="#63b8ff" stroke="#63b8ff" points="397.93,-134.42 387.72,-137.25 397.47,-141.4 397.93,-134.42"/>
</a>
</g>
</g>
<!-- Node13 -->
<g id="Node000013" class="node">
<title>Node13</title>
<g id="a_Node000013"><a xlink:href="DirektComboBox_8h.html" target="_top" xlink:title=" ">
<polygon fill="white" stroke="#666666" points="1004.6,-85 853.6,-85 853.6,-66 1004.6,-66 1004.6,-85"/>
<text text-anchor="middle" x="929.1" y="-73" font-family="Helvetica,sans-Serif" font-size="10.00">controls/DirektComboBox.h</text>
</a>
</g>
</g>
<!-- Node1&#45;&gt;Node13 -->
<g id="edge18_Node000001_Node000013" class="edge">
<title>Node1&#45;&gt;Node13</title>
<g id="a_edge18_Node000001_Node000013"><a xlink:title=" ">
<path fill="none" stroke="#63b8ff" d="M1013.83,-179.08C955.34,-173.5 887.63,-162.31 869.1,-140 854.03,-121.85 879.43,-102.31 901.69,-89.77"/>
<polygon fill="#63b8ff" stroke="#63b8ff" points="903.42,-92.81 910.59,-85.01 900.12,-86.64 903.42,-92.81"/>
</a>
</g>
</g>
<!-- Node14 -->
<g id="Node000014" class="node">
<title>Node14</title>
<g id="a_Node000014"><a xlink:href="DirektKnob_8h.html" target="_top" xlink:title=" ">
<polygon fill="white" stroke="#666666" points="688.1,-85 566.1,-85 566.1,-66 688.1,-66 688.1,-85"/>
<text text-anchor="middle" x="627.1" y="-73" font-family="Helvetica,sans-Serif" font-size="10.00">controls/DirektKnob.h</text>
</a>
</g>
</g>
<!-- Node1&#45;&gt;Node14 -->
<g id="edge21_Node000001_Node000014" class="edge">
<title>Node1&#45;&gt;Node14</title>
<g id="a_edge21_Node000001_Node000014"><a xlink:title=" ">
<path fill="none" stroke="#63b8ff" d="M1030.27,-175.98C972.31,-168.72 891.1,-156.78 821.1,-140 762.74,-126 696.69,-102.73 658.67,-88.59"/>
<polygon fill="#63b8ff" stroke="#63b8ff" points="659.76,-85.26 649.17,-85.03 657.3,-91.81 659.76,-85.26"/>
</a>
</g>
</g>
<!-- Node16 -->
<g id="Node000016" class="node">
<title>Node16</title>
<g id="a_Node000016"><a xlink:href="DirektMacroControl_8h.html" target="_top" xlink:title=" ">
<polygon fill="white" stroke="#666666" points="1224.6,-85 1061.6,-85 1061.6,-66 1224.6,-66 1224.6,-85"/>
<text text-anchor="middle" x="1143.1" y="-73" font-family="Helvetica,sans-Serif" font-size="10.00">controls/DirektMacroControl.h</text>
</a>
</g>
</g>
<!-- Node1&#45;&gt;Node16 -->
<g id="edge25_Node000001_Node000016" class="edge">
<title>Node1&#45;&gt;Node16</title>
<g id="a_edge25_Node000001_Node000016"><a xlink:title=" ">
<path fill="none" stroke="#63b8ff" d="M1098.89,-175.64C1088.37,-163.16 1072.55,-139.8 1082.1,-121 1088.87,-107.68 1101.7,-97.41 1113.85,-90.1"/>
<polygon fill="#63b8ff" stroke="#63b8ff" points="1115.85,-92.99 1122.91,-85.09 1112.46,-86.87 1115.85,-92.99"/>
</a>
</g>
</g>
<!-- Node17 -->
<g id="Node000017" class="node">
<title>Node17</title>
<g id="a_Node000017"><a xlink:href="DirektToggle_8h.html" target="_top" xlink:title=" ">
<polygon fill="white" stroke="#666666" points="835.6,-85 706.6,-85 706.6,-66 835.6,-66 835.6,-85"/>
<text text-anchor="middle" x="771.1" y="-73" font-family="Helvetica,sans-Serif" font-size="10.00">controls/DirektToggle.h</text>
</a>
</g>
</g>
<!-- Node1&#45;&gt;Node17 -->
<g id="edge29_Node000001_Node000017" class="edge">
<title>Node1&#45;&gt;Node17</title>
<g id="a_edge29_Node000001_Node000017"><a xlink:title=" ">
<path fill="none" stroke="#63b8ff" d="M1014.01,-177.51C966.52,-171.54 908.69,-160.48 860.1,-140 832.4,-128.32 804.91,-106.79 787.97,-92.06"/>
<polygon fill="#63b8ff" stroke="#63b8ff" points="789.92,-89.11 780.13,-85.07 785.27,-94.34 789.92,-89.11"/>
</a>
</g>
</g>
<!-- Node18 -->
<g id="Node000018" class="node">
<title>Node18</title>
<g id="a_Node000018"><a xlink:href="DirektLabel_8h.html" target="_top" xlink:title=" ">
<polygon fill="white" stroke="#666666" points="1853.1,-140 1733.1,-140 1733.1,-121 1853.1,-121 1853.1,-140"/>
<text text-anchor="middle" x="1793.1" y="-128" font-family="Helvetica,sans-Serif" font-size="10.00">display/DirektLabel.h</text>
</a>
</g>
</g>
<!-- Node1&#45;&gt;Node18 -->
<g id="edge32_Node000001_Node000018" class="edge">
<title>Node1&#45;&gt;Node18</title>
<g id="a_edge32_Node000001_Node000018"><a xlink:title=" ">
<path fill="none" stroke="#63b8ff" d="M1200.26,-179.25C1319.11,-172.23 1531.25,-158.58 1722.93,-140.07"/>
<polygon fill="#63b8ff" stroke="#63b8ff" points="1723.3,-143.55 1732.91,-139.1 1722.62,-136.58 1723.3,-143.55"/>
</a>
</g>
</g>
<!-- Node19 -->
<g id="Node000019" class="node">
<title>Node19</title>
<g id="a_Node000019"><a xlink:href="DirektColours_8h.html" target="_top" xlink:title=" ">
<polygon fill="white" stroke="#666666" points="1598.6,-85 1471.6,-85 1471.6,-66 1598.6,-66 1598.6,-85"/>
<text text-anchor="middle" x="1535.1" y="-73" font-family="Helvetica,sans-Serif" font-size="10.00">theme/DirektColours.h</text>
</a>
</g>
</g>
<!-- Node1&#45;&gt;Node19 -->
<g id="edge51_Node000001_Node000019" class="edge">
<title>Node1&#45;&gt;Node19</title>
<g id="a_edge51_Node000001_Node000019"><a xlink:title=" ">
<path fill="none" stroke="#63b8ff" d="M1200.23,-179.76C1313.41,-173.18 1492.33,-159.79 1516.1,-140 1529.08,-129.19 1533.43,-109.91 1534.77,-95.42"/>
<polygon fill="#63b8ff" stroke="#63b8ff" points="1538.28,-95.24 1535.31,-85.08 1531.29,-94.88 1538.28,-95.24"/>
</a>
</g>
</g>
<!-- Node20 -->
<g id="Node000020" class="node">
<title>Node20</title>
<g id="a_Node000020"><a xlink:href="DirektMeter_8h.html" target="_top" xlink:title=" ">
<polygon fill="white" stroke="#666666" points="1213.1,-140 1091.1,-140 1091.1,-121 1213.1,-121 1213.1,-140"/>
<text text-anchor="middle" x="1152.1" y="-128" font-family="Helvetica,sans-Serif" font-size="10.00">display/DirektMeter.h</text>
</a>
</g>
</g>
<!-- Node1&#45;&gt;Node20 -->
<g id="edge36_Node000001_Node000020" class="edge">
<title>Node1&#45;&gt;Node20</title>
<g id="a_edge36_Node000001_Node000020"><a xlink:title=" ">
<path fill="none" stroke="#63b8ff" d="M1114.53,-175.75C1120.96,-168.18 1130.41,-157.05 1138.23,-147.84"/>
<polygon fill="#63b8ff" stroke="#63b8ff" points="1141.01,-149.98 1144.81,-140.09 1135.67,-145.45 1141.01,-149.98"/>
</a>
</g>
</g>
<!-- Node21 -->
<g id="Node000021" class="node">
<title>Node21</title>
<g id="a_Node000021"><a xlink:href="DirektFlexContainer_8h.html" target="_top" xlink:title=" ">
<polygon fill="white" stroke="#666666" points="1034.6,-140 877.6,-140 877.6,-121 1034.6,-121 1034.6,-140"/>
<text text-anchor="middle" x="956.1" y="-128" font-family="Helvetica,sans-Serif" font-size="10.00">layout/DirektFlexContainer.h</text>
</a>
</g>
</g>
<!-- Node1&#45;&gt;Node21 -->
<g id="edge40_Node000001_Node000021" class="edge">
<title>Node1&#45;&gt;Node21</title>
<g id="a_edge40_Node000001_Node000021"><a xlink:title=" ">
<path fill="none" stroke="#63b8ff" d="M1082.84,-175.98C1057.79,-167.19 1018.47,-153.39 990.27,-143.49"/>
<polygon fill="#63b8ff" stroke="#63b8ff" points="991.4,-140.18 980.81,-140.17 989.08,-146.78 991.4,-140.18"/>
</a>
</g>
</g>
<!-- Node22 -->
<g id="Node000022" class="node">
<title>Node22</title>
<g id="a_Node000022"><a xlink:href="DirektSection_8h.html" target="_top" xlink:title=" ">
<polygon fill="white" stroke="#666666" points="1506.6,-140 1381.6,-140 1381.6,-121 1506.6,-121 1506.6,-140"/>
<text text-anchor="middle" x="1444.1" y="-128" font-family="Helvetica,sans-Serif" font-size="10.00">layout/DirektSection.h</text>
</a>
</g>
</g>
<!-- Node1&#45;&gt;Node22 -->
<g id="edge44_Node000001_Node000022" class="edge">
<title>Node1&#45;&gt;Node22</title>
<g id="a_edge44_Node000001_Node000022"><a xlink:title=" ">
<path fill="none" stroke="#63b8ff" d="M1161.25,-175.98C1220.73,-166.63 1316.21,-151.61 1379.55,-141.65"/>
<polygon fill="#63b8ff" stroke="#63b8ff" points="1380.48,-145.05 1389.81,-140.04 1379.39,-138.13 1380.48,-145.05"/>
</a>
</g>
</g>
<!-- Node23 -->
<g id="Node000023" class="node">
<title>Node23</title>
<g id="a_Node000023"><a xlink:href="DirektTabPanel_8h.html" target="_top" xlink:title=" ">
<polygon fill="white" stroke="#666666" points="1363.1,-140 1231.1,-140 1231.1,-121 1363.1,-121 1363.1,-140"/>
<text text-anchor="middle" x="1297.1" y="-128" font-family="Helvetica,sans-Serif" font-size="10.00">layout/DirektTabPanel.h</text>
</a>
</g>
</g>
<!-- Node1&#45;&gt;Node23 -->
<g id="edge47_Node000001_Node000023" class="edge">
<title>Node1&#45;&gt;Node23</title>
<g id="a_edge47_Node000001_Node000023"><a xlink:title=" ">
<path fill="none" stroke="#63b8ff" d="M1137.63,-175.98C1169.81,-167.01 1220.66,-152.82 1256.27,-142.89"/>
<polygon fill="#63b8ff" stroke="#63b8ff" points="1257.65,-146.14 1266.34,-140.08 1255.76,-139.4 1257.65,-146.14"/>
</a>
</g>
</g>
<!-- Node24 -->
<g id="Node000024" class="node">
<title>Node24</title>
<g id="a_Node000024"><a xlink:href="DirektLookAndFeel_8h.html" target="_top" xlink:title=" ">
<polygon fill="white" stroke="#666666" points="1715.1,-140 1563.1,-140 1563.1,-121 1715.1,-121 1715.1,-140"/>
<text text-anchor="middle" x="1639.1" y="-128" font-family="Helvetica,sans-Serif" font-size="10.00">theme/DirektLookAndFeel.h</text>
</a>
</g>
</g>
<!-- Node1&#45;&gt;Node24 -->
<g id="edge52_Node000001_Node000024" class="edge">
<title>Node1&#45;&gt;Node24</title>
<g id="a_edge52_Node000001_Node000024"><a xlink:title=" ">
<path fill="none" stroke="#63b8ff" d="M1192.58,-175.98C1291.54,-166.13 1453.62,-149.98 1552.9,-140.09"/>
<polygon fill="#63b8ff" stroke="#63b8ff" points="1553.29,-143.57 1562.9,-139.09 1552.6,-136.6 1553.29,-143.57"/>
</a>
</g>
</g>
<!-- Node3 -->
<g id="Node000003" class="node">
<title>Node3</title>
<g id="a_Node000003"><a xlink:title=" ">
<polygon fill="#e0e0e0" stroke="#999999" points="826.6,-30 687.6,-30 687.6,0 826.6,0 826.6,-30"/>
<text text-anchor="start" x="695.6" y="-18" font-family="Helvetica,sans-Serif" font-size="10.00">juce_audio_processors</text>
<text text-anchor="middle" x="757.1" y="-7" font-family="Helvetica,sans-Serif" font-size="10.00">/juce_audio_processors.h</text>
</a>
</g>
</g>
<!-- Node2&#45;&gt;Node3 -->
<g id="edge2_Node000002_Node000003" class="edge">
<title>Node2&#45;&gt;Node3</title>
<g id="a_edge2_Node000002_Node000003"><a xlink:title=" ">
<path fill="none" stroke="#63b8ff" d="M300.04,-120.9C300.44,-106.96 303.45,-79.6 320.1,-66 379.63,-17.37 587.86,-39.72 664.1,-30 668.5,-29.44 673.02,-28.84 677.57,-28.22"/>
<polygon fill="#63b8ff" stroke="#63b8ff" points="678.16,-31.67 687.58,-26.82 677.19,-24.73 678.16,-31.67"/>
</a>
</g>
</g>
<!-- Node4 -->
<g id="Node000004" class="node">
<title>Node4</title>
<g id="a_Node000004"><a xlink:title=" ">
<polygon fill="#e0e0e0" stroke="#999999" points="1349.1,-30 1233.1,-30 1233.1,0 1349.1,0 1349.1,-30"/>
<text text-anchor="start" x="1241.1" y="-18" font-family="Helvetica,sans-Serif" font-size="10.00">juce_gui_basics/juce</text>
<text text-anchor="middle" x="1291.1" y="-7" font-family="Helvetica,sans-Serif" font-size="10.00">_gui_basics.h</text>
</a>
</g>
</g>
<!-- Node2&#45;&gt;Node4 -->
<g id="edge3_Node000002_Node000004" class="edge">
<title>Node2&#45;&gt;Node4</title>
<g id="a_edge3_Node000002_Node000004"><a xlink:title=" ">
<path fill="none" stroke="#63b8ff" d="M387.68,-129.34C605.53,-128.37 1159.7,-122.23 1234.1,-85 1253.85,-75.12 1269.24,-54.95 1279.02,-38.95"/>
<polygon fill="#63b8ff" stroke="#63b8ff" points="1282.15,-40.54 1284.12,-30.13 1276.09,-37.03 1282.15,-40.54"/>
</a>
</g>
</g>
<!-- Node5 -->
<g id="Node000005" class="node">
<title>Node5</title>
<g id="a_Node000005"><a xlink:title=" ">
<polygon fill="#e0e0e0" stroke="#999999" points="110.6,-85 45.6,-85 45.6,-66 110.6,-66 110.6,-85"/>
<text text-anchor="middle" x="78.1" y="-73" font-family="Helvetica,sans-Serif" font-size="10.00">functional</text>
</a>
</g>
</g>
<!-- Node2&#45;&gt;Node5 -->
<g id="edge4_Node000002_Node000005" class="edge">
<title>Node2&#45;&gt;Node5</title>
<g id="a_edge4_Node000002_Node000005"><a xlink:title=" ">
<path fill="none" stroke="#63b8ff" d="M264.44,-120.98C225.26,-111.63 162.37,-96.62 120.65,-86.66"/>
<polygon fill="#63b8ff" stroke="#63b8ff" points="121.33,-83.22 110.79,-84.3 119.7,-90.03 121.33,-83.22"/>
</a>
</g>
</g>
<!-- Node6 -->
<g id="Node000006" class="node">
<title>Node6</title>
<g id="a_Node000006"><a xlink:title=" ">
<polygon fill="#e0e0e0" stroke="#999999" points="219.1,-24.5 181.1,-24.5 181.1,-5.5 219.1,-5.5 219.1,-24.5"/>
<text text-anchor="middle" x="200.1" y="-12.5" font-family="Helvetica,sans-Serif" font-size="10.00">map</text>
</a>
</g>
</g>
<!-- Node2&#45;&gt;Node6 -->
<g id="edge5_Node000002_Node000006" class="edge">
<title>Node2&#45;&gt;Node6</title>
<g id="a_edge5_Node000002_Node000006"><a xlink:title=" ">
<path fill="none" stroke="#63b8ff" d="M212.37,-128.23C136.47,-125.06 34.95,-115.1 9.1,-85 -36.93,-31.39 106.16,-19.43 170.48,-16.76"/>
<polygon fill="#63b8ff" stroke="#63b8ff" points="170.93,-20.25 180.8,-16.39 170.68,-13.26 170.93,-20.25"/>
</a>
</g>
</g>
<!-- Node7 -->
<g id="Node000007" class="node">
<title>Node7</title>
<g id="a_Node000007"><a xlink:title=" ">
<polygon fill="#e0e0e0" stroke="#999999" points="326.1,-24.5 268.1,-24.5 268.1,-5.5 326.1,-5.5 326.1,-24.5"/>
<text text-anchor="middle" x="297.1" y="-12.5" font-family="Helvetica,sans-Serif" font-size="10.00">memory</text>
</a>
</g>
</g>
<!-- Node2&#45;&gt;Node7 -->
<g id="edge6_Node000002_Node000007" class="edge">
<title>Node2&#45;&gt;Node7</title>
<g id="a_edge6_Node000002_Node000007"><a xlink:title=" ">
<path fill="none" stroke="#63b8ff" d="M212.36,-126.56C144.51,-122.21 58.5,-111.49 36.1,-85 -4.67,-36.78 -58.92,-86.02 228.1,-30 237.81,-28.11 248.27,-26.01 258.04,-24.03"/>
<polygon fill="#63b8ff" stroke="#63b8ff" points="258.81,-27.45 267.91,-22.02 257.42,-20.59 258.81,-27.45"/>
</a>
</g>
</g>
<!-- Node8 -->
<g id="Node000008" class="node">
<title>Node8</title>
<g id="a_Node000008"><a xlink:title=" ">
<polygon fill="#e0e0e0" stroke="#999999" points="1056.6,-24.5 1009.6,-24.5 1009.6,-5.5 1056.6,-5.5 1056.6,-24.5"/>
<text text-anchor="middle" x="1033.1" y="-12.5" font-family="Helvetica,sans-Serif" font-size="10.00">vector</text>
</a>
</g>
</g>
<!-- Node2&#45;&gt;Node8 -->
<g id="edge7_Node000002_Node000008" class="edge">
<title>Node2&#45;&gt;Node8</title>
<g id="a_edge7_Node000002_Node000008"><a xlink:title=" ">
<path fill="none" stroke="#63b8ff" d="M335.15,-120.93C371.62,-111.99 430.38,-97.58 481.1,-85 514.9,-76.62 522.82,-72.06 557.1,-66 721.22,-37.01 920.35,-22.76 998.9,-17.94"/>
<polygon fill="#63b8ff" stroke="#63b8ff" points="999.39,-21.42 1009.16,-17.32 998.97,-14.43 999.39,-21.42"/>
</a>
</g>
</g>
<!-- Node9 -->
<g id="Node000009" class="node">
<title>Node9</title>
<g id="a_Node000009"><a xlink:href="DirektDescriptors_8h.html" target="_top" xlink:title=" ">
<polygon fill="white" stroke="#666666" points="471.6,-85 328.6,-85 328.6,-66 471.6,-66 471.6,-85"/>
<text text-anchor="middle" x="400.1" y="-73" font-family="Helvetica,sans-Serif" font-size="10.00">config/DirektDescriptors.h</text>
</a>
</g>
</g>
<!-- Node2&#45;&gt;Node9 -->
<g id="edge8_Node000002_Node000009" class="edge">
<title>Node2&#45;&gt;Node9</title>
<g id="a_edge8_Node000002_Node000009"><a xlink:title=" ">
<path fill="none" stroke="#63b8ff" d="M316.17,-120.98C331.97,-112.61 356.32,-99.7 374.73,-89.95"/>
<polygon fill="#63b8ff" stroke="#63b8ff" points="376.55,-92.95 383.74,-85.17 373.27,-86.76 376.55,-92.95"/>
</a>
</g>
</g>
<!-- Node11 -->
<g id="Node000011" class="node">
<title>Node11</title>
<g id="a_Node000011"><a xlink:href="DirektBuildContext_8h.html" target="_top" xlink:title=" ">
<polygon fill="white" stroke="#666666" points="271.6,-85 128.6,-85 128.6,-66 271.6,-66 271.6,-85"/>
<text text-anchor="middle" x="200.1" y="-73" font-family="Helvetica,sans-Serif" font-size="10.00">core/DirektBuildContext.h</text>
</a>
</g>
</g>
<!-- Node2&#45;&gt;Node11 -->
<g id="edge14_Node000002_Node000011" class="edge">
<title>Node2&#45;&gt;Node11</title>
<g id="a_edge14_Node000002_Node000011"><a xlink:title=" ">
<path fill="none" stroke="#63b8ff" d="M284.04,-120.98C268.24,-112.61 243.89,-99.7 225.47,-89.95"/>
<polygon fill="#63b8ff" stroke="#63b8ff" points="226.94,-86.76 216.46,-85.17 223.66,-92.95 226.94,-86.76"/>
</a>
</g>
</g>
<!-- Node9&#45;&gt;Node4 -->
<g id="edge9_Node000009_Node000004" class="edge">
<title>Node9&#45;&gt;Node4</title>
<g id="a_edge9_Node000009_Node000004"><a xlink:title=" ">
<path fill="none" stroke="#63b8ff" d="M471.89,-69.79C640.22,-58.73 1058.55,-31.27 1223.09,-20.47"/>
<polygon fill="#63b8ff" stroke="#63b8ff" points="1223.34,-23.96 1233.08,-19.81 1222.88,-16.97 1223.34,-23.96"/>
</a>
</g>
</g>
<!-- Node9&#45;&gt;Node6 -->
<g id="edge10_Node000009_Node000006" class="edge">
<title>Node9&#45;&gt;Node6</title>
<g id="a_edge10_Node000009_Node000006"><a xlink:title=" ">
<path fill="none" stroke="#63b8ff" d="M371.02,-65.99C333.09,-54.9 267.12,-35.6 229.19,-24.51"/>
<polygon fill="#63b8ff" stroke="#63b8ff" points="229.86,-21.06 219.28,-21.61 227.9,-27.78 229.86,-21.06"/>
</a>
</g>
</g>
<!-- Node9&#45;&gt;Node7 -->
<g id="edge11_Node000009_Node000007" class="edge">
<title>Node9&#45;&gt;Node7</title>
<g id="a_edge11_Node000009_Node000007"><a xlink:title=" ">
<path fill="none" stroke="#63b8ff" d="M384.91,-65.87C368.09,-56.32 340.78,-40.81 321.08,-29.62"/>
<polygon fill="#63b8ff" stroke="#63b8ff" points="322.79,-26.56 312.36,-24.67 319.33,-32.65 322.79,-26.56"/>
</a>
</g>
</g>
<!-- Node9&#45;&gt;Node8 -->
<g id="edge13_Node000009_Node000008" class="edge">
<title>Node9&#45;&gt;Node8</title>
<g id="a_edge13_Node000009_Node000008"><a xlink:title=" ">
<path fill="none" stroke="#63b8ff" d="M471.9,-67.36C476.7,-66.9 481.47,-66.44 486.1,-66 680.24,-47.53 913.28,-26.66 999.17,-19.01"/>
<polygon fill="#63b8ff" stroke="#63b8ff" points="999.72,-22.48 1009.37,-18.11 999.1,-15.51 999.72,-22.48"/>
</a>
</g>
</g>
<!-- Node10 -->
<g id="Node000010" class="node">
<title>Node10</title>
<g id="a_Node000010"><a xlink:title=" ">
<polygon fill="#e0e0e0" stroke="#999999" points="425.6,-24.5 374.6,-24.5 374.6,-5.5 425.6,-5.5 425.6,-24.5"/>
<text text-anchor="middle" x="400.1" y="-12.5" font-family="Helvetica,sans-Serif" font-size="10.00">variant</text>
</a>
</g>
</g>
<!-- Node9&#45;&gt;Node10 -->
<g id="edge12_Node000009_Node000010" class="edge">
<title>Node9&#45;&gt;Node10</title>
<g id="a_edge12_Node000009_Node000010"><a xlink:title=" ">
<path fill="none" stroke="#63b8ff" d="M400.1,-65.87C400.1,-57.75 400.1,-45.31 400.1,-34.89"/>
<polygon fill="#63b8ff" stroke="#63b8ff" points="403.6,-34.67 400.1,-24.67 396.6,-34.67 403.6,-34.67"/>
</a>
</g>
</g>
<!-- Node11&#45;&gt;Node3 -->
<g id="edge15_Node000011_Node000003" class="edge">
<title>Node11&#45;&gt;Node3</title>
<g id="a_edge15_Node000011_Node000003"><a xlink:title=" ">
<path fill="none" stroke="#63b8ff" d="M271.9,-67.38C276.71,-66.91 281.47,-66.45 286.1,-66 454.07,-49.7 496.6,-50.57 664.1,-30 668.51,-29.46 673.02,-28.88 677.58,-28.26"/>
<polygon fill="#63b8ff" stroke="#63b8ff" points="678.16,-31.72 687.59,-26.89 677.2,-24.78 678.16,-31.72"/>
</a>
</g>
</g>
<!-- Node11&#45;&gt;Node6 -->
<g id="edge17_Node000011_Node000006" class="edge">
<title>Node11&#45;&gt;Node6</title>
<g id="a_edge17_Node000011_Node000006"><a xlink:title=" ">
<path fill="none" stroke="#63b8ff" d="M200.1,-65.87C200.1,-57.75 200.1,-45.31 200.1,-34.89"/>
<polygon fill="#63b8ff" stroke="#63b8ff" points="203.6,-34.67 200.1,-24.67 196.6,-34.67 203.6,-34.67"/>
</a>
</g>
</g>
<!-- Node12 -->
<g id="Node000012" class="node">
<title>Node12</title>
<g id="a_Node000012"><a xlink:title=" ">
<polygon fill="#e0e0e0" stroke="#999999" points="529.1,-24.5 479.1,-24.5 479.1,-5.5 529.1,-5.5 529.1,-24.5"/>
<text text-anchor="middle" x="504.1" y="-12.5" font-family="Helvetica,sans-Serif" font-size="10.00">atomic</text>
</a>
</g>
</g>
<!-- Node11&#45;&gt;Node12 -->
<g id="edge16_Node000011_Node000012" class="edge">
<title>Node11&#45;&gt;Node12</title>
<g id="a_edge16_Node000011_Node000012"><a xlink:title=" ">
<path fill="none" stroke="#63b8ff" d="M246.07,-65.98C293.47,-57.15 369.5,-42.87 435.1,-30 446.1,-27.84 458.07,-25.43 468.91,-23.23"/>
<polygon fill="#63b8ff" stroke="#63b8ff" points="469.79,-26.63 478.88,-21.2 468.39,-19.77 469.79,-26.63"/>
</a>
</g>
</g>
<!-- Node13&#45;&gt;Node3 -->
<g id="edge19_Node000013_Node000003" class="edge">
<title>Node13&#45;&gt;Node3</title>
<g id="a_edge19_Node000013_Node000003"><a xlink:title=" ">
<path fill="none" stroke="#63b8ff" d="M904.09,-65.99C879.02,-57.46 839.68,-44.09 808.01,-33.32"/>
<polygon fill="#63b8ff" stroke="#63b8ff" points="809.05,-29.97 798.45,-30.06 806.8,-36.6 809.05,-29.97"/>
</a>
</g>
</g>
<!-- Node13&#45;&gt;Node4 -->
<g id="edge20_Node000013_Node000004" class="edge">
<title>Node13&#45;&gt;Node4</title>
<g id="a_edge20_Node000013_Node000004"><a xlink:title=" ">
<path fill="none" stroke="#63b8ff" d="M981.74,-65.99C1045.47,-55.69 1152.96,-38.33 1222.96,-27.01"/>
<polygon fill="#63b8ff" stroke="#63b8ff" points="1223.69,-30.44 1233.01,-25.39 1222.58,-23.53 1223.69,-30.44"/>
</a>
</g>
</g>
<!-- Node14&#45;&gt;Node3 -->
<g id="edge22_Node000014_Node000003" class="edge">
<title>Node14&#45;&gt;Node3</title>
<g id="a_edge22_Node000014_Node000003"><a xlink:title=" ">
<path fill="none" stroke="#63b8ff" d="M646.01,-65.99C664.39,-57.72 692.9,-44.89 716.44,-34.3"/>
<polygon fill="#63b8ff" stroke="#63b8ff" points="718.17,-37.36 725.85,-30.06 715.29,-30.98 718.17,-37.36"/>
</a>
</g>
</g>
<!-- Node14&#45;&gt;Node4 -->
<g id="edge23_Node000014_Node000004" class="edge">
<title>Node14&#45;&gt;Node4</title>
<g id="a_edge23_Node000014_Node000004"><a xlink:title=" ">
<path fill="none" stroke="#63b8ff" d="M688.28,-67.04C691.6,-66.68 694.89,-66.33 698.1,-66 887.98,-46.64 1112.61,-29.18 1222.97,-20.97"/>
<polygon fill="#63b8ff" stroke="#63b8ff" points="1223.25,-24.45 1232.96,-20.22 1222.73,-17.47 1223.25,-24.45"/>
</a>
</g>
</g>
<!-- Node15 -->
<g id="Node000015" class="node">
<title>Node15</title>
<g id="a_Node000015"><a xlink:title=" ">
<polygon fill="#e0e0e0" stroke="#999999" points="655.1,-24.5 599.1,-24.5 599.1,-5.5 655.1,-5.5 655.1,-24.5"/>
<text text-anchor="middle" x="627.1" y="-12.5" font-family="Helvetica,sans-Serif" font-size="10.00">optional</text>
</a>
</g>
</g>
<!-- Node14&#45;&gt;Node15 -->
<g id="edge24_Node000014_Node000015" class="edge">
<title>Node14&#45;&gt;Node15</title>
<g id="a_edge24_Node000014_Node000015"><a xlink:title=" ">
<path fill="none" stroke="#63b8ff" d="M627.1,-65.87C627.1,-57.75 627.1,-45.31 627.1,-34.89"/>
<polygon fill="#63b8ff" stroke="#63b8ff" points="630.6,-34.67 627.1,-24.67 623.6,-34.67 630.6,-34.67"/>
</a>
</g>
</g>
<!-- Node16&#45;&gt;Node3 -->
<g id="edge26_Node000016_Node000003" class="edge">
<title>Node16&#45;&gt;Node3</title>
<g id="a_edge26_Node000016_Node000003"><a xlink:title=" ">
<path fill="none" stroke="#63b8ff" d="M1086.98,-65.99C1021.17,-56.02 911.64,-39.42 836.99,-28.11"/>
<polygon fill="#63b8ff" stroke="#63b8ff" points="837.11,-24.59 826.7,-26.55 836.06,-31.51 837.11,-24.59"/>
</a>
</g>
</g>
<!-- Node16&#45;&gt;Node4 -->
<g id="edge27_Node000016_Node000004" class="edge">
<title>Node16&#45;&gt;Node4</title>
<g id="a_edge27_Node000016_Node000004"><a xlink:title=" ">
<path fill="none" stroke="#63b8ff" d="M1164.62,-65.99C1185.83,-57.61 1218.88,-44.55 1245.88,-33.87"/>
<polygon fill="#63b8ff" stroke="#63b8ff" points="1247.51,-37 1255.52,-30.06 1244.94,-30.49 1247.51,-37"/>
</a>
</g>
</g>
<!-- Node16&#45;&gt;Node8 -->
<g id="edge28_Node000016_Node000008" class="edge">
<title>Node16&#45;&gt;Node8</title>
<g id="a_edge28_Node000016_Node000008"><a xlink:title=" ">
<path fill="none" stroke="#63b8ff" d="M1126.87,-65.87C1108.84,-56.28 1079.49,-40.67 1058.42,-29.47"/>
<polygon fill="#63b8ff" stroke="#63b8ff" points="1059.87,-26.27 1049.4,-24.67 1056.59,-32.45 1059.87,-26.27"/>
</a>
</g>
</g>
<!-- Node17&#45;&gt;Node3 -->
<g id="edge30_Node000017_Node000003" class="edge">
<title>Node17&#45;&gt;Node3</title>
<g id="a_edge30_Node000017_Node000003"><a xlink:title=" ">
<path fill="none" stroke="#63b8ff" d="M769.04,-65.87C767.4,-59.03 765.03,-49.14 762.84,-39.97"/>
<polygon fill="#63b8ff" stroke="#63b8ff" points="766.21,-39.03 760.48,-30.11 759.41,-40.65 766.21,-39.03"/>
</a>
</g>
</g>
<!-- Node17&#45;&gt;Node4 -->
<g id="edge31_Node000017_Node000004" class="edge">
<title>Node17&#45;&gt;Node4</title>
<g id="a_edge31_Node000017_Node000004"><a xlink:title=" ">
<path fill="none" stroke="#63b8ff" d="M835.68,-67.07C838.86,-66.71 842.02,-66.35 845.1,-66 978.96,-50.81 1135.46,-33.33 1222.95,-23.58"/>
<polygon fill="#63b8ff" stroke="#63b8ff" points="1223.46,-27.05 1233.01,-22.46 1222.68,-20.09 1223.46,-27.05"/>
</a>
</g>
</g>
<!-- Node18&#45;&gt;Node4 -->
<g id="edge33_Node000018_Node000004" class="edge">
<title>Node18&#45;&gt;Node4</title>
<g id="a_edge33_Node000018_Node000004"><a xlink:title=" ">
<path fill="none" stroke="#63b8ff" d="M1774.86,-120.88C1745.04,-107.16 1683.72,-80.42 1629.1,-66 1537.45,-41.8 1428.52,-28.33 1359.6,-21.62"/>
<polygon fill="#63b8ff" stroke="#63b8ff" points="1359.59,-18.11 1349.31,-20.64 1358.93,-25.08 1359.59,-18.11"/>
</a>
</g>
</g>
<!-- Node18&#45;&gt;Node19 -->
<g id="edge34_Node000018_Node000019" class="edge">
<title>Node18&#45;&gt;Node19</title>
<g id="a_edge34_Node000018_Node000019"><a xlink:title=" ">
<path fill="none" stroke="#63b8ff" d="M1751.65,-120.98C1706.84,-111.78 1635.33,-97.09 1586.86,-87.13"/>
<polygon fill="#63b8ff" stroke="#63b8ff" points="1587.38,-83.67 1576.88,-85.08 1585.97,-90.52 1587.38,-83.67"/>
</a>
</g>
</g>
<!-- Node19&#45;&gt;Node4 -->
<g id="edge35_Node000019_Node000004" class="edge">
<title>Node19&#45;&gt;Node4</title>
<g id="a_edge35_Node000019_Node000004"><a xlink:title=" ">
<path fill="none" stroke="#63b8ff" d="M1499.62,-65.99C1462.93,-57.2 1404.72,-43.24 1359.11,-32.31"/>
<polygon fill="#63b8ff" stroke="#63b8ff" points="1359.83,-28.88 1349.29,-29.95 1358.2,-35.69 1359.83,-28.88"/>
</a>
</g>
</g>
<!-- Node20&#45;&gt;Node4 -->
<g id="edge37_Node000020_Node000004" class="edge">
<title>Node20&#45;&gt;Node4</title>
<g id="a_edge37_Node000020_Node000004"><a xlink:title=" ">
<path fill="none" stroke="#63b8ff" d="M1205.46,-120.94C1244.59,-113.44 1292.94,-101.21 1305.1,-85 1314.88,-71.97 1310.69,-53.81 1304.42,-39.39"/>
<polygon fill="#63b8ff" stroke="#63b8ff" points="1307.42,-37.57 1299.89,-30.12 1301.13,-40.64 1307.42,-37.57"/>
</a>
</g>
</g>
<!-- Node20&#45;&gt;Node12 -->
<g id="edge38_Node000020_Node000012" class="edge">
<title>Node20&#45;&gt;Node12</title>
<g id="a_edge38_Node000020_Node000012"><a xlink:title=" ">
<path fill="none" stroke="#63b8ff" d="M1090.99,-124.64C1075.68,-123.44 1059.29,-122.16 1044.1,-121 935.9,-112.74 652.61,-136.53 557.1,-85 536.19,-73.71 520.96,-50.24 512.33,-33.82"/>
<polygon fill="#63b8ff" stroke="#63b8ff" points="515.38,-32.09 507.82,-24.68 509.11,-35.19 515.38,-32.09"/>
</a>
</g>
</g>
<!-- Node20&#45;&gt;Node19 -->
<g id="edge39_Node000020_Node000019" class="edge">
<title>Node20&#45;&gt;Node19</title>
<g id="a_edge39_Node000020_Node000019"><a xlink:title=" ">
<path fill="none" stroke="#63b8ff" d="M1213.21,-121.04C1281.39,-111.61 1391.56,-96.36 1463.66,-86.39"/>
<polygon fill="#63b8ff" stroke="#63b8ff" points="1464.15,-89.85 1473.58,-85.01 1463.19,-82.92 1464.15,-89.85"/>
</a>
</g>
</g>
<!-- Node21&#45;&gt;Node4 -->
<g id="edge41_Node000021_Node000004" class="edge">
<title>Node21&#45;&gt;Node4</title>
<g id="a_edge41_Node000021_Node000004"><a xlink:title=" ">
<path fill="none" stroke="#63b8ff" d="M1034.82,-122.5C1121.01,-114.18 1249.42,-99.57 1267.1,-85 1280.34,-74.1 1286.29,-55.47 1288.96,-40.31"/>
<polygon fill="#63b8ff" stroke="#63b8ff" points="1292.47,-40.44 1290.38,-30.05 1285.54,-39.48 1292.47,-40.44"/>
</a>
</g>
</g>
<!-- Node21&#45;&gt;Node8 -->
<g id="edge42_Node000021_Node000008" class="edge">
<title>Node21&#45;&gt;Node8</title>
<g id="a_edge42_Node000021_Node000008"><a xlink:title=" ">
<path fill="none" stroke="#63b8ff" d="M972.5,-120.9C985.63,-113.19 1003.54,-100.69 1014.1,-85 1024.28,-69.89 1029.03,-49.45 1031.23,-34.75"/>
<polygon fill="#63b8ff" stroke="#63b8ff" points="1034.71,-35.16 1032.47,-24.8 1027.76,-34.3 1034.71,-35.16"/>
</a>
</g>
</g>
<!-- Node21&#45;&gt;Node9 -->
<g id="edge43_Node000021_Node000009" class="edge">
<title>Node21&#45;&gt;Node9</title>
<g id="a_edge43_Node000021_Node000009"><a xlink:title=" ">
<path fill="none" stroke="#63b8ff" d="M877.33,-121.99C772.56,-112 588.27,-94.44 481.96,-84.3"/>
<polygon fill="#63b8ff" stroke="#63b8ff" points="482.21,-80.81 471.93,-83.35 481.55,-87.78 482.21,-80.81"/>
</a>
</g>
</g>
<!-- Node22&#45;&gt;Node4 -->
<g id="edge45_Node000022_Node000004" class="edge">
<title>Node22&#45;&gt;Node4</title>
<g id="a_edge45_Node000022_Node000004"><a xlink:title=" ">
<path fill="none" stroke="#63b8ff" d="M1439.28,-120.63C1431.63,-107.28 1415.6,-81.89 1396.1,-66 1379.91,-52.8 1359.66,-42.1 1341.27,-34.04"/>
<polygon fill="#63b8ff" stroke="#63b8ff" points="1342.43,-30.73 1331.85,-30.07 1339.71,-37.18 1342.43,-30.73"/>
</a>
</g>
</g>
<!-- Node22&#45;&gt;Node19 -->
<g id="edge46_Node000022_Node000019" class="edge">
<title>Node22&#45;&gt;Node19</title>
<g id="a_edge46_Node000022_Node000019"><a xlink:title=" ">
<path fill="none" stroke="#63b8ff" d="M1458.72,-120.98C1472.97,-112.69 1494.86,-99.94 1511.55,-90.22"/>
<polygon fill="#63b8ff" stroke="#63b8ff" points="1513.34,-93.23 1520.22,-85.17 1509.81,-87.18 1513.34,-93.23"/>
</a>
</g>
</g>
<!-- Node23&#45;&gt;Node4 -->
<g id="edge48_Node000023_Node000004" class="edge">
<title>Node23&#45;&gt;Node4</title>
<g id="a_edge48_Node000023_Node000004"><a xlink:title=" ">
<path fill="none" stroke="#63b8ff" d="M1327.2,-120.99C1357.08,-110.86 1396.4,-92 1381.1,-66 1373.07,-52.35 1359.82,-42.16 1345.93,-34.67"/>
<polygon fill="#63b8ff" stroke="#63b8ff" points="1347.26,-31.43 1336.75,-30.13 1344.16,-37.7 1347.26,-31.43"/>
</a>
</g>
</g>
<!-- Node23&#45;&gt;Node8 -->
<g id="edge49_Node000023_Node000008" class="edge">
<title>Node23&#45;&gt;Node8</title>
<g id="a_edge49_Node000023_Node000008"><a xlink:title=" ">
<path fill="none" stroke="#63b8ff" d="M1290.85,-120.61C1280.63,-106.74 1258.95,-80.11 1234.1,-66 1180.46,-35.53 1108.44,-23.44 1066.77,-18.79"/>
<polygon fill="#63b8ff" stroke="#63b8ff" points="1066.92,-15.28 1056.61,-17.73 1066.19,-22.24 1066.92,-15.28"/>
</a>
</g>
</g>
<!-- Node23&#45;&gt;Node19 -->
<g id="edge50_Node000023_Node000019" class="edge">
<title>Node23&#45;&gt;Node19</title>
<g id="a_edge50_Node000023_Node000019"><a xlink:title=" ">
<path fill="none" stroke="#63b8ff" d="M1335.34,-120.98C1376.51,-111.82 1442.1,-97.21 1486.8,-87.26"/>
<polygon fill="#63b8ff" stroke="#63b8ff" points="1487.56,-90.67 1496.57,-85.08 1486.04,-83.84 1487.56,-90.67"/>
</a>
</g>
</g>
<!-- Node24&#45;&gt;Node4 -->
<g id="edge53_Node000024_Node000004" class="edge">
<title>Node24&#45;&gt;Node4</title>
<g id="a_edge53_Node000024_Node000004"><a xlink:title=" ">
<path fill="none" stroke="#63b8ff" d="M1637.53,-120.9C1634.5,-106.94 1626.45,-79.56 1608.1,-66 1569.7,-37.61 1440.6,-24.82 1359.47,-19.47"/>
<polygon fill="#63b8ff" stroke="#63b8ff" points="1359.54,-15.97 1349.34,-18.83 1359.1,-22.95 1359.54,-15.97"/>
</a>
</g>
</g>
<!-- Node24&#45;&gt;Node19 -->
<g id="edge54_Node000024_Node000019" class="edge">
<title>Node24&#45;&gt;Node19</title>
<g id="a_edge54_Node000024_Node000019"><a xlink:title=" ">
<path fill="none" stroke="#63b8ff" d="M1622.39,-120.98C1605.89,-112.57 1580.41,-99.59 1561.22,-89.81"/>
<polygon fill="#63b8ff" stroke="#63b8ff" points="1562.62,-86.59 1552.12,-85.17 1559.44,-92.83 1562.62,-86.59"/>
</a>
</g>
</g>
</g>
</svg>
