<?xml version="1.0" encoding="UTF-8" standalone="no"?>
<!DOCTYPE svg PUBLIC "-//W3C//DTD SVG 1.1//EN"
 "http://www.w3.org/Graphics/SVG/1.1/DTD/svg11.dtd">
<!-- Generated by graphviz version 2.43.0 (0)
 -->
<!-- Title: layout/DirektSection.h Pages: 1 -->
<svg width="308pt" height="148pt"
 viewBox="0.00 0.00 308.46 148.00" xmlns="http://www.w3.org/2000/svg" xmlns:xlink="http://www.w3.org/1999/xlink">
<g id="graph0" class="graph" transform="scale(1 1) rotate(0) translate(4 144)">
<title>layout/DirektSection.h</title>
<!-- Node1 -->
<g id="Node000001" class="node">
<title>Node1</title>
<g id="a_Node000001"><a xlink:title=" ">
<polygon fill="#999999" stroke="#666666" points="148.46,-140 23.46,-140 23.46,-121 148.46,-121 148.46,-140"/>
<text text-anchor="middle" x="85.96" y="-128" font-family="Helvetica,sans-Serif" font-size="10.00">layout/DirektSection.h</text>
</a>
</g>
</g>
<!-- Node2 -->
<g id="Node000002" class="node">
<title>Node2</title>
<g id="a_Node000002"><a xlink:title=" ">
<polygon fill="#e0e0e0" stroke="#999999" points="168.96,-30 52.96,-30 52.96,0 168.96,0 168.96,-30"/>
<text text-anchor="start" x="60.96" y="-18" font-family="Helvetica,sans-Serif" font-size="10.00">juce_gui_basics/juce</text>
<text text-anchor="middle" x="110.96" y="-7" font-family="Helvetica,sans-Serif" font-size="10.00">_gui_basics.h</text>
</a>
</g>
</g>
<!-- Node1&#45;&gt;Node2 -->
<g id="edge1_Node000001_Node000002" class="edge">
<title>Node1&#45;&gt;Node2</title>
<g id="a_edge1_Node000001_Node000002"><a xlink:title=" ">
<path fill="none" stroke="#63b8ff" d="M57,-120.92C27.39,-110.54 -12.14,-91.29 3.96,-66 13.21,-51.47 27.91,-41.09 43.49,-33.7"/>
<polygon fill="#63b8ff" stroke="#63b8ff" points="44.95,-36.88 52.73,-29.69 42.16,-30.46 44.95,-36.88"/>
</a>
</g>
</g>
<!-- Node3 -->
<g id="Node000003" class="node">
<title>Node3</title>
<g id="a_Node000003"><a xlink:title=" ">
<polygon fill="#e0e0e0" stroke="#999999" points="78.46,-85 13.46,-85 13.46,-66 78.46,-66 78.46,-85"/>
<text text-anchor="middle" x="45.96" y="-73" font-family="Helvetica,sans-Serif" font-size="10.00">functional</text>
</a>
</g>
</g>
<!-- Node1&#45;&gt;Node3 -->
<g id="edge2_Node000001_Node000003" class="edge">
<title>Node1&#45;&gt;Node3</title>
<g id="a_edge2_Node000001_Node000003"><a xlink:title=" ">
<path fill="none" stroke="#63b8ff" d="M79.35,-120.75C73.7,-113.26 65.41,-102.28 58.51,-93.13"/>
<polygon fill="#63b8ff" stroke="#63b8ff" points="61.26,-90.96 52.44,-85.09 55.67,-95.18 61.26,-90.96"/>
</a>
</g>
</g>
<!-- Node4 -->
<g id="Node000004" class="node">
<title>Node4</title>
<g id="a_Node000004"><a xlink:title=" ">
<polygon fill="#e0e0e0" stroke="#999999" points="154.96,-85 96.96,-85 96.96,-66 154.96,-66 154.96,-85"/>
<text text-anchor="middle" x="125.96" y="-73" font-family="Helvetica,sans-Serif" font-size="10.00">memory</text>
</a>
</g>
</g>
<!-- Node1&#45;&gt;Node4 -->
<g id="edge3_Node000001_Node000004" class="edge">
<title>Node1&#45;&gt;Node4</title>
<g id="a_edge3_Node000001_Node000004"><a xlink:title=" ">
<path fill="none" stroke="#63b8ff" d="M92.56,-120.75C98.21,-113.26 106.5,-102.28 113.41,-93.13"/>
<polygon fill="#63b8ff" stroke="#63b8ff" points="116.25,-95.18 119.48,-85.09 110.66,-90.96 116.25,-95.18"/>
</a>
</g>
</g>
<!-- Node5 -->
<g id="Node000005" class="node">
<title>Node5</title>
<g id="a_Node000005"><a xlink:href="DirektColours_8h.html" target="_top" xlink:title=" ">
<polygon fill="white" stroke="#666666" points="300.46,-85 173.46,-85 173.46,-66 300.46,-66 300.46,-85"/>
<text text-anchor="middle" x="236.96" y="-73" font-family="Helvetica,sans-Serif" font-size="10.00">theme/DirektColours.h</text>
</a>
</g>
</g>
<!-- Node1&#45;&gt;Node5 -->
<g id="edge4_Node000001_Node000005" class="edge">
<title>Node1&#45;&gt;Node5</title>
<g id="a_edge4_Node000001_Node000005"><a xlink:title=" ">
<path fill="none" stroke="#63b8ff" d="M110.22,-120.98C135.28,-112.19 174.59,-98.39 202.79,-88.49"/>
<polygon fill="#63b8ff" stroke="#63b8ff" points="203.98,-91.78 212.26,-85.17 201.66,-85.18 203.98,-91.78"/>
</a>
</g>
</g>
<!-- Node5&#45;&gt;Node2 -->
<g id="edge5_Node000005_Node000002" class="edge">
<title>Node5&#45;&gt;Node2</title>
<g id="a_edge5_Node000005_Node000002"><a xlink:title=" ">
<path fill="none" stroke="#63b8ff" d="M218.64,-65.99C200.88,-57.75 173.37,-44.98 150.6,-34.4"/>
<polygon fill="#63b8ff" stroke="#63b8ff" points="152.04,-31.21 141.5,-30.18 149.09,-37.56 152.04,-31.21"/>
</a>
</g>
</g>
</g>
</svg>
