<?xml version="1.0" encoding="UTF-8" standalone="no"?>
<!DOCTYPE svg PUBLIC "-//W3C//DTD SVG 1.1//EN"
 "http://www.w3.org/Graphics/SVG/1.1/DTD/svg11.dtd">
<!-- Generated by graphviz version 2.43.0 (0)
 -->
<!-- Title: display/DirektClipIndicator.h Pages: 1 -->
<svg width="256pt" height="148pt"
 viewBox="0.00 0.00 256.00 148.00" xmlns="http://www.w3.org/2000/svg" xmlns:xlink="http://www.w3.org/1999/xlink">
<g id="graph0" class="graph" transform="scale(1 1) rotate(0) translate(4 144)">
<title>display/DirektClipIndicator.h</title>
<!-- Node1 -->
<g id="Node000001" class="node">
<title>Node1</title>
<g id="a_Node000001"><a xlink:title=" ">
<polygon fill="#999999" stroke="#666666" points="155,-140 0,-140 0,-121 155,-121 155,-140"/>
<text text-anchor="middle" x="77.5" y="-128" font-family="Helvetica,sans-Serif" font-size="10.00">display/DirektClipIndicator.h</text>
</a>
</g>
</g>
<!-- Node2 -->
<g id="Node000002" class="node">
<title>Node2</title>
<g id="a_Node000002"><a xlink:title=" ">
<polygon fill="#e0e0e0" stroke="#999999" points="162.5,-30 46.5,-30 46.5,0 162.5,0 162.5,-30"/>
<text text-anchor="start" x="54.5" y="-18" font-family="Helvetica,sans-Serif" font-size="10.00">juce_gui_basics/juce</text>
<text text-anchor="middle" x="104.5" y="-7" font-family="Helvetica,sans-Serif" font-size="10.00">_gui_basics.h</text>
</a>
</g>
</g>
<!-- Node1&#45;&gt;Node2 -->
<g id="edge1_Node000001_Node000002" class="edge">
<title>Node1&#45;&gt;Node2</title>
<g id="a_edge1_Node000001_Node000002"><a xlink:title=" ">
<path fill="none" stroke="#63b8ff" d="M66.86,-120.6C53.69,-108.45 34.08,-85.89 43.5,-66 49.19,-53.99 59.33,-43.9 69.73,-36"/>
<polygon fill="#63b8ff" stroke="#63b8ff" points="71.89,-38.76 78.05,-30.14 67.86,-33.04 71.89,-38.76"/>
</a>
</g>
</g>
<!-- Node3 -->
<g id="Node000003" class="node">
<title>Node3</title>
<g id="a_Node000003"><a xlink:title=" ">
<polygon fill="#e0e0e0" stroke="#999999" points="102.5,-85 52.5,-85 52.5,-66 102.5,-66 102.5,-85"/>
<text text-anchor="middle" x="77.5" y="-73" font-family="Helvetica,sans-Serif" font-size="10.00">atomic</text>
</a>
</g>
</g>
<!-- Node1&#45;&gt;Node3 -->
<g id="edge2_Node000001_Node000003" class="edge">
<title>Node1&#45;&gt;Node3</title>
<g id="a_edge2_Node000001_Node000003"><a xlink:title=" ">
<path fill="none" stroke="#63b8ff" d="M77.5,-120.75C77.5,-113.8 77.5,-103.85 77.5,-95.13"/>
<polygon fill="#63b8ff" stroke="#63b8ff" points="81,-95.09 77.5,-85.09 74,-95.09 81,-95.09"/>
</a>
</g>
</g>
<!-- Node4 -->
<g id="Node000004" class="node">
<title>Node4</title>
<g id="a_Node000004"><a xlink:href="DirektColours_8h.html" target="_top" xlink:title=" ">
<polygon fill="white" stroke="#666666" points="248,-85 121,-85 121,-66 248,-66 248,-85"/>
<text text-anchor="middle" x="184.5" y="-73" font-family="Helvetica,sans-Serif" font-size="10.00">theme/DirektColours.h</text>
</a>
</g>
</g>
<!-- Node1&#45;&gt;Node4 -->
<g id="edge3_Node000001_Node000004" class="edge">
<title>Node1&#45;&gt;Node4</title>
<g id="a_edge3_Node000001_Node000004"><a xlink:title=" ">
<path fill="none" stroke="#63b8ff" d="M94.69,-120.98C111.75,-112.54 138.13,-99.47 157.9,-89.68"/>
<polygon fill="#63b8ff" stroke="#63b8ff" points="159.59,-92.75 167,-85.17 156.48,-86.47 159.59,-92.75"/>
</a>
</g>
</g>
<!-- Node4&#45;&gt;Node2 -->
<g id="edge4_Node000004_Node000002" class="edge">
<title>Node4&#45;&gt;Node2</title>
<g id="a_edge4_Node000004_Node000002"><a xlink:title=" ">
<path fill="none" stroke="#63b8ff" d="M172.7,-65.87C162.04,-58.08 145.96,-46.32 132.09,-36.17"/>
<polygon fill="#63b8ff" stroke="#63b8ff" points="133.94,-33.19 123.8,-30.11 129.81,-38.84 133.94,-33.19"/>
</a>
</g>
</g>
</g>
</svg>
