<?xml version="1.0" encoding="UTF-8" standalone="no"?>
<!DOCTYPE svg PUBLIC "-//W3C//DTD SVG 1.1//EN"
 "http://www.w3.org/Graphics/SVG/1.1/DTD/svg11.dtd">
<!-- Generated by graphviz version 2.43.0 (0)
 -->
<!-- Title: chrome/DirektHeader.cpp Pages: 1 -->
<svg width="421pt" height="214pt"
 viewBox="0.00 0.00 421.35 214.00" xmlns="http://www.w3.org/2000/svg" xmlns:xlink="http://www.w3.org/1999/xlink">

<svg id="main" version="1.1" xmlns="http://www.w3.org/2000/svg" xmlns:xlink="http://www.w3.org/1999/xlink" xml:space="preserve" onload="init(evt)">
<style type="text/css"><![CDATA[
.node, .edge {opacity: 0.7;}
.node.selected, .edge.selected {opacity: 1;}
.edge:hover path { stroke: red; }
.edge:hover polygon { stroke: red; fill: red; }
]]></style>
<script type="application/ecmascript" xlink:href="svg.min.js"/>
<svg id="graph" class="graph">
<g id="graph0" class="graph" transform="scale(1 1) rotate(0) translate(4 210)">
<title>chrome/DirektHeader.cpp</title>
<!-- Node1 -->
<g id="Node000001" class="node">
<title>Node1</title>
<g id="a_Node000001"><a xlink:title=" ">
<polygon fill="#999999" stroke="#666666" points="306.35,-206 165.35,-206 165.35,-187 306.35,-187 306.35,-206"/>
<text text-anchor="middle" x="235.85" y="-194" font-family="Helvetica,sans-Serif" font-size="10.00">chrome/DirektHeader.cpp</text>
</a>
</g>
</g>
<!-- Node2 -->
<g id="Node000002" class="node">
<title>Node2</title>
<g id="a_Node000002"><a xlink:href="DirektHeader_8h.html" target="_top" xlink:title=" ">
<polygon fill="white" stroke="#666666" points="194.85,-151 64.85,-151 64.85,-132 194.85,-132 194.85,-151"/>
<text text-anchor="middle" x="129.85" y="-139" font-family="Helvetica,sans-Serif" font-size="10.00">chrome/DirektHeader.h</text>
</a>
</g>
</g>
<!-- Node1&#45;&gt;Node2 -->
<g id="edge1_Node000001_Node000002" class="edge">
<title>Node1&#45;&gt;Node2</title>
<g id="a_edge1_Node000001_Node000002"><a xlink:title=" ">
<path fill="none" stroke="#63b8ff" d="M218.82,-186.98C201.92,-178.54 175.78,-165.47 156.2,-155.68"/>
<polygon fill="#63b8ff" stroke="#63b8ff" points="157.7,-152.51 147.19,-151.17 154.57,-158.77 157.7,-152.51"/>
</a>
</g>
</g>
<!-- Node7 -->
<g id="Node000007" class="node">
<title>Node7</title>
<g id="a_Node000007"><a xlink:title=" ">
<polygon fill="#e0e0e0" stroke="#999999" points="258.35,-151 213.35,-151 213.35,-132 258.35,-132 258.35,-151"/>
<text text-anchor="middle" x="235.85" y="-139" font-family="Helvetica,sans-Serif" font-size="10.00">utility</text>
</a>
</g>
</g>
<!-- Node1&#45;&gt;Node7 -->
<g id="edge7_Node000001_Node000007" class="edge">
<title>Node1&#45;&gt;Node7</title>
<g id="a_edge7_Node000001_Node000007"><a xlink:title=" ">
<path fill="none" stroke="#63b8ff" d="M235.85,-186.75C235.85,-179.8 235.85,-169.85 235.85,-161.13"/>
<polygon fill="#63b8ff" stroke="#63b8ff" points="239.35,-161.09 235.85,-151.09 232.35,-161.09 239.35,-161.09"/>
</a>
</g>
</g>
<!-- Node8 -->
<g id="Node000008" class="node">
<title>Node8</title>
<g id="a_Node000008"><a xlink:href="PresetManager_8h.html" target="_top" xlink:title=" ">
<polygon fill="white" stroke="#666666" points="413.35,-151 276.35,-151 276.35,-132 413.35,-132 413.35,-151"/>
<text text-anchor="middle" x="344.85" y="-139" font-family="Helvetica,sans-Serif" font-size="10.00">Service/PresetManager.h</text>
</a>
</g>
</g>
<!-- Node1&#45;&gt;Node8 -->
<g id="edge8_Node000001_Node000008" class="edge">
<title>Node1&#45;&gt;Node8</title>
<g id="a_edge8_Node000001_Node000008"><a xlink:title=" ">
<path fill="none" stroke="#63b8ff" d="M253.36,-186.98C270.82,-178.5 297.86,-165.35 318.02,-155.54"/>
<polygon fill="#63b8ff" stroke="#63b8ff" points="319.55,-158.69 327.02,-151.17 316.49,-152.4 319.55,-158.69"/>
</a>
</g>
</g>
<!-- Node3 -->
<g id="Node000003" class="node">
<title>Node3</title>
<g id="a_Node000003"><a xlink:title=" ">
<polygon fill="#e0e0e0" stroke="#999999" points="382.35,-96 243.35,-96 243.35,-66 382.35,-66 382.35,-96"/>
<text text-anchor="start" x="251.35" y="-84" font-family="Helvetica,sans-Serif" font-size="10.00">juce_audio_processors</text>
<text text-anchor="middle" x="312.85" y="-73" font-family="Helvetica,sans-Serif" font-size="10.00">/juce_audio_processors.h</text>
</a>
</g>
</g>
<!-- Node2&#45;&gt;Node3 -->
<g id="edge2_Node000002_Node000003" class="edge">
<title>Node2&#45;&gt;Node3</title>
<g id="a_edge2_Node000002_Node000003"><a xlink:title=" ">
<path fill="none" stroke="#63b8ff" d="M156.46,-131.99C183.25,-123.43 225.35,-109.97 259.12,-99.18"/>
<polygon fill="#63b8ff" stroke="#63b8ff" points="260.39,-102.44 268.85,-96.06 258.26,-95.78 260.39,-102.44"/>
</a>
</g>
</g>
<!-- Node4 -->
<g id="Node000004" class="node">
<title>Node4</title>
<g id="a_Node000004"><a xlink:title=" ">
<polygon fill="#e0e0e0" stroke="#999999" points="219.85,-30 103.85,-30 103.85,0 219.85,0 219.85,-30"/>
<text text-anchor="start" x="111.85" y="-18" font-family="Helvetica,sans-Serif" font-size="10.00">juce_gui_basics/juce</text>
<text text-anchor="middle" x="161.85" y="-7" font-family="Helvetica,sans-Serif" font-size="10.00">_gui_basics.h</text>
</a>
</g>
</g>
<!-- Node2&#45;&gt;Node4 -->
<g id="edge3_Node000002_Node000004" class="edge">
<title>Node2&#45;&gt;Node4</title>
<g id="a_edge3_Node000002_Node000004"><a xlink:title=" ">
<path fill="none" stroke="#63b8ff" d="M64.77,-132.55C42.34,-126.34 19.47,-115.36 5.85,-96 -1.82,-85.1 -2.01,-76.77 5.85,-66 25.89,-38.53 61.24,-25.81 93.22,-20.06"/>
<polygon fill="#63b8ff" stroke="#63b8ff" points="94.14,-23.46 103.47,-18.43 93.04,-16.55 94.14,-23.46"/>
</a>
</g>
</g>
<!-- Node5 -->
<g id="Node000005" class="node">
<title>Node5</title>
<g id="a_Node000005"><a xlink:title=" ">
<polygon fill="#e0e0e0" stroke="#999999" points="80.35,-90.5 15.35,-90.5 15.35,-71.5 80.35,-71.5 80.35,-90.5"/>
<text text-anchor="middle" x="47.85" y="-78.5" font-family="Helvetica,sans-Serif" font-size="10.00">functional</text>
</a>
</g>
</g>
<!-- Node2&#45;&gt;Node5 -->
<g id="edge4_Node000002_Node000005" class="edge">
<title>Node2&#45;&gt;Node5</title>
<g id="a_edge4_Node000002_Node000005"><a xlink:title=" ">
<path fill="none" stroke="#63b8ff" d="M117.75,-131.87C104.79,-122.62 83.99,-107.78 68.44,-96.69"/>
<polygon fill="#63b8ff" stroke="#63b8ff" points="70.17,-93.63 60,-90.67 66.1,-99.32 70.17,-93.63"/>
</a>
</g>
</g>
<!-- Node6 -->
<g id="Node000006" class="node">
<title>Node6</title>
<g id="a_Node000006"><a xlink:href="DirektColours_8h.html" target="_top" xlink:title=" ">
<polygon fill="white" stroke="#666666" points="225.35,-90.5 98.35,-90.5 98.35,-71.5 225.35,-71.5 225.35,-90.5"/>
<text text-anchor="middle" x="161.85" y="-78.5" font-family="Helvetica,sans-Serif" font-size="10.00">theme/DirektColours.h</text>
</a>
</g>
</g>
<!-- Node2&#45;&gt;Node6 -->
<g id="edge5_Node000002_Node000006" class="edge">
<title>Node2&#45;&gt;Node6</title>
<g id="a_edge5_Node000002_Node000006"><a xlink:title=" ">
<path fill="none" stroke="#63b8ff" d="M134.57,-131.87C139.2,-123.4 146.4,-110.24 152.24,-99.57"/>
<polygon fill="#63b8ff" stroke="#63b8ff" points="155.38,-101.12 157.11,-90.67 149.24,-97.76 155.38,-101.12"/>
</a>
</g>
</g>
<!-- Node6&#45;&gt;Node4 -->
<g id="edge6_Node000006_Node000004" class="edge">
<title>Node6&#45;&gt;Node4</title>
<g id="a_edge6_Node000006_Node000004"><a xlink:title=" ">
<path fill="none" stroke="#63b8ff" d="M161.85,-71.37C161.85,-63.49 161.85,-51.45 161.85,-40.6"/>
<polygon fill="#63b8ff" stroke="#63b8ff" points="165.35,-40.36 161.85,-30.36 158.35,-40.36 165.35,-40.36"/>
</a>
</g>
</g>
<!-- Node8&#45;&gt;Node3 -->
<g id="edge9_Node000008_Node000003" class="edge">
<title>Node8&#45;&gt;Node3</title>
<g id="a_edge9_Node000008_Node000003"><a xlink:title=" ">
<path fill="none" stroke="#63b8ff" d="M340.13,-131.87C336.27,-124.81 330.63,-114.5 325.47,-105.08"/>
<polygon fill="#63b8ff" stroke="#63b8ff" points="328.44,-103.21 320.57,-96.11 322.3,-106.57 328.44,-103.21"/>
</a>
</g>
</g>
<!-- Node8&#45;&gt;Node4 -->
<g id="edge10_Node000008_Node000004" class="edge">
<title>Node8&#45;&gt;Node4</title>
<g id="a_edge10_Node000008_Node000004"><a xlink:title=" ">
<path fill="none" stroke="#63b8ff" d="M357.47,-131.8C376.8,-117.44 409.7,-88.15 391.85,-66 371.82,-41.15 290.59,-28.01 230.31,-21.54"/>
<polygon fill="#63b8ff" stroke="#63b8ff" points="230.38,-18.03 220.08,-20.48 229.66,-24.99 230.38,-18.03"/>
</a>
</g>
</g>
</g>
</svg>
</svg>

<style type='text/css'>
<![CDATA[
[data-mouse-over-selected='false'] { opacity: 0.7; }
[data-mouse-over-selected='true']  { opacity: 1.0; }
]]>
</style>
<script type="application/ecmascript"><![CDATA[
document.addEventListener('DOMContentLoaded', (event) => {
  highlightEdges();
  highlightAdjacentNodes();
});
]]></script>
</svg>
