<?xml version="1.0" encoding="UTF-8" standalone="no"?>
<!DOCTYPE svg PUBLIC "-//W3C//DTD SVG 1.1//EN"
 "http://www.w3.org/Graphics/SVG/1.1/DTD/svg11.dtd">
<!-- Generated by graphviz version 2.43.0 (0)
 -->
<!-- Title: core/DirektBaseEditor.h Pages: 1 -->
<svg width="2458pt" height="269pt"
 viewBox="0.00 0.00 2458.47 269.00" xmlns="http://www.w3.org/2000/svg" xmlns:xlink="http://www.w3.org/1999/xlink">
<g id="graph0" class="graph" transform="scale(1 1) rotate(0) translate(4 265)">
<title>core/DirektBaseEditor.h</title>
<!-- Node1 -->
<g id="Node000001" class="node">
<title>Node1</title>
<g id="a_Node000001"><a xlink:title=" ">
<polygon fill="#999999" stroke="#666666" points="999.47,-261 868.47,-261 868.47,-242 999.47,-242 999.47,-261"/>
<text text-anchor="middle" x="933.97" y="-249" font-family="Helvetica,sans-Serif" font-size="10.00">core/DirektBaseEditor.h</text>
</a>
</g>
</g>
<!-- Node2 -->
<g id="Node000002" class="node">
<title>Node2</title>
<g id="a_Node000002"><a xlink:title=" ">
<polygon fill="#e0e0e0" stroke="#999999" points="1606.47,-96 1467.47,-96 1467.47,-66 1606.47,-66 1606.47,-96"/>
<text text-anchor="start" x="1475.47" y="-84" font-family="Helvetica,sans-Serif" font-size="10.00">juce_audio_processors</text>
<text text-anchor="middle" x="1536.97" y="-73" font-family="Helvetica,sans-Serif" font-size="10.00">/juce_audio_processors.h</text>
</a>
</g>
</g>
<!-- Node1&#45;&gt;Node2 -->
<g id="edge1_Node000001_Node000002" class="edge">
<title>Node1&#45;&gt;Node2</title>
<g id="a_edge1_Node000001_Node000002"><a xlink:title=" ">
<path fill="none" stroke="#63b8ff" d="M999.86,-244.19C1126.66,-231.12 1399.24,-198.33 1479.97,-151 1498.8,-139.96 1514.12,-120.27 1524.12,-104.74"/>
<polygon fill="#63b8ff" stroke="#63b8ff" points="1527.13,-106.53 1529.38,-96.17 1521.16,-102.87 1527.13,-106.53"/>
</a>
</g>
</g>
<!-- Node3 -->
<g id="Node000003" class="node">
<title>Node3</title>
<g id="a_Node000003"><a xlink:title=" ">
<polygon fill="#e0e0e0" stroke="#999999" points="991.97,-30 875.97,-30 875.97,0 991.97,0 991.97,-30"/>
<text text-anchor="start" x="883.97" y="-18" font-family="Helvetica,sans-Serif" font-size="10.00">juce_gui_basics/juce</text>
<text text-anchor="middle" x="933.97" y="-7" font-family="Helvetica,sans-Serif" font-size="10.00">_gui_basics.h</text>
</a>
</g>
</g>
<!-- Node1&#45;&gt;Node3 -->
<g id="edge2_Node000001_Node000003" class="edge">
<title>Node1&#45;&gt;Node3</title>
<g id="a_edge2_Node000001_Node000003"><a xlink:title=" ">
<path fill="none" stroke="#63b8ff" d="M868.17,-248.45C667.68,-241.51 74.77,-215.65 19.97,-151 -14.68,-110.12 -25.09,-113.74 179.97,-66 309.3,-35.89 705.55,-22.14 865.73,-17.7"/>
<polygon fill="#63b8ff" stroke="#63b8ff" points="866.03,-21.19 875.93,-17.42 865.84,-14.19 866.03,-21.19"/>
</a>
</g>
</g>
<!-- Node4 -->
<g id="Node000004" class="node">
<title>Node4</title>
<g id="a_Node000004"><a xlink:href="DirektFooter_8h.html" target="_top" xlink:title=" ">
<polygon fill="white" stroke="#666666" points="507.47,-151 382.47,-151 382.47,-132 507.47,-132 507.47,-151"/>
<text text-anchor="middle" x="444.97" y="-139" font-family="Helvetica,sans-Serif" font-size="10.00">chrome/DirektFooter.h</text>
</a>
</g>
</g>
<!-- Node1&#45;&gt;Node4 -->
<g id="edge3_Node000001_Node000004" class="edge">
<title>Node1&#45;&gt;Node4</title>
<g id="a_edge3_Node000001_Node000004"><a xlink:title=" ">
<path fill="none" stroke="#63b8ff" d="M868.42,-242.67C811.36,-235.24 726.64,-222.73 653.97,-206 591.15,-191.54 519.61,-168.28 478.63,-154.29"/>
<polygon fill="#63b8ff" stroke="#63b8ff" points="479.73,-150.97 469.13,-151.03 477.45,-157.59 479.73,-150.97"/>
</a>
</g>
</g>
<!-- Node5 -->
<g id="Node000005" class="node">
<title>Node5</title>
<g id="a_Node000005"><a xlink:href="DirektColours_8h.html" target="_top" xlink:title=" ">
<polygon fill="white" stroke="#666666" points="769.47,-90.5 642.47,-90.5 642.47,-71.5 769.47,-71.5 769.47,-90.5"/>
<text text-anchor="middle" x="705.97" y="-78.5" font-family="Helvetica,sans-Serif" font-size="10.00">theme/DirektColours.h</text>
</a>
</g>
</g>
<!-- Node1&#45;&gt;Node5 -->
<g id="edge65_Node000001_Node000005" class="edge">
<title>Node1&#45;&gt;Node5</title>
<g id="a_edge65_Node000001_Node000005"><a xlink:title=" ">
<path fill="none" stroke="#63b8ff" d="M893.5,-241.98C846.16,-229.9 768.73,-203.2 724.97,-151 713.14,-136.89 708.64,-115.99 706.95,-100.89"/>
<polygon fill="#63b8ff" stroke="#63b8ff" points="710.42,-100.37 706.13,-90.68 703.44,-100.93 710.42,-100.37"/>
</a>
</g>
</g>
<!-- Node6 -->
<g id="Node000006" class="node">
<title>Node6</title>
<g id="a_Node000006"><a xlink:href="DirektHeader_8h.html" target="_top" xlink:title=" ">
<polygon fill="white" stroke="#666666" points="1182.97,-151 1052.97,-151 1052.97,-132 1182.97,-132 1182.97,-151"/>
<text text-anchor="middle" x="1117.97" y="-139" font-family="Helvetica,sans-Serif" font-size="10.00">chrome/DirektHeader.h</text>
</a>
</g>
</g>
<!-- Node1&#45;&gt;Node6 -->
<g id="edge7_Node000001_Node000006" class="edge">
<title>Node1&#45;&gt;Node6</title>
<g id="a_edge7_Node000001_Node000006"><a xlink:title=" ">
<path fill="none" stroke="#63b8ff" d="M948.72,-241.84C980.56,-223.16 1055.96,-178.9 1094.47,-156.3"/>
<polygon fill="#63b8ff" stroke="#63b8ff" points="1096.56,-159.13 1103.41,-151.05 1093.01,-153.09 1096.56,-159.13"/>
</a>
</g>
</g>
<!-- Node8 -->
<g id="Node000008" class="node">
<title>Node8</title>
<g id="a_Node000008"><a xlink:href="DirektPopupPanel_8h.html" target="_top" xlink:title=" ">
<polygon fill="white" stroke="#666666" points="677.97,-151 525.97,-151 525.97,-132 677.97,-132 677.97,-151"/>
<text text-anchor="middle" x="601.97" y="-139" font-family="Helvetica,sans-Serif" font-size="10.00">chrome/DirektPopupPanel.h</text>
</a>
</g>
</g>
<!-- Node1&#45;&gt;Node8 -->
<g id="edge12_Node000001_Node000008" class="edge">
<title>Node1&#45;&gt;Node8</title>
<g id="a_edge12_Node000001_Node000008"><a xlink:title=" ">
<path fill="none" stroke="#63b8ff" d="M868.36,-246.12C818.4,-240.99 748.77,-229.89 691.97,-206 664.05,-194.26 636.23,-172.74 619.07,-158.03"/>
<polygon fill="#63b8ff" stroke="#63b8ff" points="620.95,-155.02 611.13,-151.05 616.33,-160.28 620.95,-155.02"/>
</a>
</g>
</g>
<!-- Node9 -->
<g id="Node000009" class="node">
<title>Node9</title>
<g id="a_Node000009"><a xlink:href="DirektPresetBrowser_8h.html" target="_top" xlink:title=" ">
<polygon fill="white" stroke="#666666" points="364.47,-151 199.47,-151 199.47,-132 364.47,-132 364.47,-151"/>
<text text-anchor="middle" x="281.97" y="-139" font-family="Helvetica,sans-Serif" font-size="10.00">chrome/DirektPresetBrowser.h</text>
</a>
</g>
</g>
<!-- Node1&#45;&gt;Node9 -->
<g id="edge15_Node000001_Node000009" class="edge">
<title>Node1&#45;&gt;Node9</title>
<g id="a_edge15_Node000001_Node000009"><a xlink:title=" ">
<path fill="none" stroke="#63b8ff" d="M868.35,-243.89C797.28,-236.35 680.71,-222.85 580.97,-206 490.64,-190.74 386.17,-167.19 327.71,-153.46"/>
<polygon fill="#63b8ff" stroke="#63b8ff" points="328.22,-149.99 317.69,-151.1 326.62,-156.8 328.22,-149.99"/>
</a>
</g>
</g>
<!-- Node11 -->
<g id="Node000011" class="node">
<title>Node11</title>
<g id="a_Node000011"><a xlink:href="DirektConfig_8h.html" target="_top" xlink:title=" ">
<polygon fill="white" stroke="#666666" points="853.47,-151 734.47,-151 734.47,-132 853.47,-132 853.47,-151"/>
<text text-anchor="middle" x="793.97" y="-139" font-family="Helvetica,sans-Serif" font-size="10.00">config/DirektConfig.h</text>
</a>
</g>
</g>
<!-- Node1&#45;&gt;Node11 -->
<g id="edge20_Node000001_Node000011" class="edge">
<title>Node1&#45;&gt;Node11</title>
<g id="a_edge20_Node000001_Node000011"><a xlink:title=" ">
<path fill="none" stroke="#63b8ff" d="M922.52,-241.66C898.5,-223.14 842.68,-180.08 813.13,-157.28"/>
<polygon fill="#63b8ff" stroke="#63b8ff" points="815.25,-154.5 805.2,-151.16 810.98,-160.04 815.25,-154.5"/>
</a>
</g>
</g>
<!-- Node12 -->
<g id="Node000012" class="node">
<title>Node12</title>
<g id="a_Node000012"><a xlink:href="DirektDescriptors_8h.html" target="_top" xlink:title=" ">
<polygon fill="white" stroke="#666666" points="2212.47,-151 2069.47,-151 2069.47,-132 2212.47,-132 2212.47,-151"/>
<text text-anchor="middle" x="2140.97" y="-139" font-family="Helvetica,sans-Serif" font-size="10.00">config/DirektDescriptors.h</text>
</a>
</g>
</g>
<!-- Node1&#45;&gt;Node12 -->
<g id="edge23_Node000001_Node000012" class="edge">
<title>Node1&#45;&gt;Node12</title>
<g id="a_edge23_Node000001_Node000012"><a xlink:title=" ">
<path fill="none" stroke="#63b8ff" d="M999.69,-250.14C1242.51,-248.54 2077.37,-240.53 2121.97,-206 2135.46,-195.56 2139.7,-175.92 2140.88,-161.24"/>
<polygon fill="#63b8ff" stroke="#63b8ff" points="2144.37,-161.34 2141.28,-151.21 2137.38,-161.06 2144.37,-161.34"/>
</a>
</g>
</g>
<!-- Node17 -->
<g id="Node000017" class="node">
<title>Node17</title>
<g id="a_Node000017"><a xlink:href="DirektAutoLayout_8h.html" target="_top" xlink:title=" ">
<polygon fill="white" stroke="#666666" points="1662.47,-206 1527.47,-206 1527.47,-187 1662.47,-187 1662.47,-206"/>
<text text-anchor="middle" x="1594.97" y="-194" font-family="Helvetica,sans-Serif" font-size="10.00">core/DirektAutoLayout.h</text>
</a>
</g>
</g>
<!-- Node1&#45;&gt;Node17 -->
<g id="edge29_Node000001_Node000017" class="edge">
<title>Node1&#45;&gt;Node17</title>
<g id="a_edge29_Node000001_Node000017"><a xlink:title=" ">
<path fill="none" stroke="#63b8ff" d="M999.58,-246.03C1106.97,-238.58 1326.96,-222.79 1512.97,-206 1514.44,-205.87 1515.93,-205.73 1517.42,-205.59"/>
<polygon fill="#63b8ff" stroke="#63b8ff" points="1517.79,-209.07 1527.42,-204.65 1517.13,-202.11 1517.79,-209.07"/>
</a>
</g>
</g>
<!-- Node22 -->
<g id="Node000022" class="node">
<title>Node22</title>
<g id="a_Node000022"><a xlink:href="DirektSection_8h.html" target="_top" xlink:title=" ">
<polygon fill="white" stroke="#666666" points="996.47,-151 871.47,-151 871.47,-132 996.47,-132 996.47,-151"/>
<text text-anchor="middle" x="933.97" y="-139" font-family="Helvetica,sans-Serif" font-size="10.00">layout/DirektSection.h</text>
</a>
</g>
</g>
<!-- Node1&#45;&gt;Node22 -->
<g id="edge64_Node000001_Node000022" class="edge">
<title>Node1&#45;&gt;Node22</title>
<g id="a_edge64_Node000001_Node000022"><a xlink:title=" ">
<path fill="none" stroke="#63b8ff" d="M933.97,-241.66C933.97,-224.17 933.97,-184.8 933.97,-161.27"/>
<polygon fill="#63b8ff" stroke="#63b8ff" points="937.47,-161.16 933.97,-151.16 930.47,-161.16 937.47,-161.16"/>
</a>
</g>
</g>
<!-- Node23 -->
<g id="Node000023" class="node">
<title>Node23</title>
<g id="a_Node000023"><a xlink:href="DirektBuildContext_8h.html" target="_top" xlink:title=" ">
<polygon fill="white" stroke="#666666" points="2450.47,-151 2307.47,-151 2307.47,-132 2450.47,-132 2450.47,-151"/>
<text text-anchor="middle" x="2378.97" y="-139" font-family="Helvetica,sans-Serif" font-size="10.00">core/DirektBuildContext.h</text>
</a>
</g>
</g>
<!-- Node1&#45;&gt;Node23 -->
<g id="edge48_Node000001_Node000023" class="edge">
<title>Node1&#45;&gt;Node23</title>
<g id="a_edge48_Node000001_Node000023"><a xlink:title=" ">
<path fill="none" stroke="#63b8ff" d="M999.84,-250.02C1218.46,-248.14 1918.88,-239.56 2141.97,-206 2215.6,-194.93 2299.16,-169.37 2344.78,-154.27"/>
<polygon fill="#63b8ff" stroke="#63b8ff" points="2346.08,-157.53 2354.45,-151.04 2343.86,-150.89 2346.08,-157.53"/>
</a>
</g>
</g>
<!-- Node25 -->
<g id="Node000025" class="node">
<title>Node25</title>
<g id="a_Node000025"><a xlink:href="DirektComponentRegistry_8h.html" target="_top" xlink:title=" ">
<polygon fill="white" stroke="#666666" points="2112.47,-206 1937.47,-206 1937.47,-187 2112.47,-187 2112.47,-206"/>
<text text-anchor="middle" x="2024.97" y="-194" font-family="Helvetica,sans-Serif" font-size="10.00">core/DirektComponentRegistry.h</text>
</a>
</g>
</g>
<!-- Node1&#45;&gt;Node25 -->
<g id="edge52_Node000001_Node000025" class="edge">
<title>Node1&#45;&gt;Node25</title>
<g id="a_edge52_Node000001_Node000025"><a xlink:title=" ">
<path fill="none" stroke="#63b8ff" d="M999.76,-247.3C1184.45,-238.33 1708.44,-212.88 1927.17,-202.25"/>
<polygon fill="#63b8ff" stroke="#63b8ff" points="1927.54,-205.74 1937.35,-201.76 1927.2,-198.75 1927.54,-205.74"/>
</a>
</g>
</g>
<!-- Node26 -->
<g id="Node000026" class="node">
<title>Node26</title>
<g id="a_Node000026"><a xlink:href="DirektParameterHistory_8h.html" target="_top" xlink:title=" ">
<polygon fill="white" stroke="#666666" points="1974.97,-151 1810.97,-151 1810.97,-132 1974.97,-132 1974.97,-151"/>
<text text-anchor="middle" x="1892.97" y="-139" font-family="Helvetica,sans-Serif" font-size="10.00">core/DirektParameterHistory.h</text>
</a>
</g>
</g>
<!-- Node1&#45;&gt;Node26 -->
<g id="edge61_Node000001_Node000026" class="edge">
<title>Node1&#45;&gt;Node26</title>
<g id="a_edge61_Node000001_Node000026"><a xlink:title=" ">
<path fill="none" stroke="#63b8ff" d="M999.68,-251.35C1129.28,-251.96 1426.55,-248.13 1671.97,-206 1740.09,-194.31 1817.14,-169.39 1859.9,-154.48"/>
<polygon fill="#63b8ff" stroke="#63b8ff" points="1861.23,-157.72 1869.5,-151.1 1858.9,-151.12 1861.23,-157.72"/>
</a>
</g>
</g>
<!-- Node27 -->
<g id="Node000027" class="node">
<title>Node27</title>
<g id="a_Node000027"><a xlink:href="DirektLookAndFeel_8h.html" target="_top" xlink:title=" ">
<polygon fill="white" stroke="#666666" points="180.97,-151 28.97,-151 28.97,-132 180.97,-132 180.97,-151"/>
<text text-anchor="middle" x="104.97" y="-139" font-family="Helvetica,sans-Serif" font-size="10.00">theme/DirektLookAndFeel.h</text>
</a>
</g>
</g>
<!-- Node1&#45;&gt;Node27 -->
<g id="edge66_Node000001_Node000027" class="edge">
<title>Node1&#45;&gt;Node27</title>
<g id="a_edge66_Node000001_Node000027"><a xlink:title=" ">
<path fill="none" stroke="#63b8ff" d="M868.11,-245.56C779.3,-238.55 616.34,-224.51 477.97,-206 364.1,-190.77 231.72,-166.71 159.27,-153"/>
<polygon fill="#63b8ff" stroke="#63b8ff" points="159.51,-149.48 149.03,-151.05 158.2,-156.35 159.51,-149.48"/>
</a>
</g>
</g>
<!-- Node4&#45;&gt;Node3 -->
<g id="edge4_Node000004_Node000003" class="edge">
<title>Node4&#45;&gt;Node3</title>
<g id="a_edge4_Node000004_Node000003"><a xlink:title=" ">
<path fill="none" stroke="#63b8ff" d="M460.25,-131.83C488.61,-116.13 551.73,-83.05 608.97,-66 695.31,-40.28 798.7,-27.27 865.32,-21.07"/>
<polygon fill="#63b8ff" stroke="#63b8ff" points="866.04,-24.52 875.68,-20.14 865.41,-17.55 866.04,-24.52"/>
</a>
</g>
</g>
<!-- Node4&#45;&gt;Node5 -->
<g id="edge5_Node000004_Node000005" class="edge">
<title>Node4&#45;&gt;Node5</title>
<g id="a_edge5_Node000004_Node000005"><a xlink:title=" ">
<path fill="none" stroke="#63b8ff" d="M482.92,-131.99C529.22,-121.62 607.53,-104.07 657.97,-92.76"/>
<polygon fill="#63b8ff" stroke="#63b8ff" points="658.98,-96.12 667.97,-90.52 657.45,-89.29 658.98,-96.12"/>
</a>
</g>
</g>
<!-- Node5&#45;&gt;Node3 -->
<g id="edge6_Node000005_Node000003" class="edge">
<title>Node5&#45;&gt;Node3</title>
<g id="a_edge6_Node000005_Node000003"><a xlink:title=" ">
<path fill="none" stroke="#63b8ff" d="M736.72,-71.37C771.75,-61.54 829.85,-45.23 873.94,-32.85"/>
<polygon fill="#63b8ff" stroke="#63b8ff" points="875,-36.19 883.69,-30.12 873.11,-29.45 875,-36.19"/>
</a>
</g>
</g>
<!-- Node6&#45;&gt;Node2 -->
<g id="edge8_Node000006_Node000002" class="edge">
<title>Node6&#45;&gt;Node2</title>
<g id="a_edge8_Node000006_Node000002"><a xlink:title=" ">
<path fill="none" stroke="#63b8ff" d="M1183.26,-132.06C1249.68,-123.38 1355.57,-109.29 1446.97,-96 1450.36,-95.51 1453.82,-95 1457.31,-94.48"/>
<polygon fill="#63b8ff" stroke="#63b8ff" points="1457.85,-97.94 1467.22,-92.99 1456.81,-91.01 1457.85,-97.94"/>
</a>
</g>
</g>
<!-- Node6&#45;&gt;Node3 -->
<g id="edge9_Node000006_Node000003" class="edge">
<title>Node6&#45;&gt;Node3</title>
<g id="a_edge9_Node000006_Node000003"><a xlink:title=" ">
<path fill="none" stroke="#63b8ff" d="M1112.06,-131.54C1101.58,-116.25 1078.35,-84.96 1051.97,-66 1033.18,-52.49 1010.18,-41.7 989.49,-33.66"/>
<polygon fill="#63b8ff" stroke="#63b8ff" points="990.45,-30.28 979.86,-30.04 987.99,-36.83 990.45,-30.28"/>
</a>
</g>
</g>
<!-- Node6&#45;&gt;Node5 -->
<g id="edge11_Node000006_Node000005" class="edge">
<title>Node6&#45;&gt;Node5</title>
<g id="a_edge11_Node000006_Node000005"><a xlink:title=" ">
<path fill="none" stroke="#63b8ff" d="M1058.06,-131.99C983.31,-121.38 855.67,-103.26 776.34,-91.99"/>
<polygon fill="#63b8ff" stroke="#63b8ff" points="776.35,-88.46 765.95,-90.52 775.36,-95.39 776.35,-88.46"/>
</a>
</g>
</g>
<!-- Node7 -->
<g id="Node000007" class="node">
<title>Node7</title>
<g id="a_Node000007"><a xlink:title=" ">
<polygon fill="#e0e0e0" stroke="#999999" points="1042.47,-90.5 977.47,-90.5 977.47,-71.5 1042.47,-71.5 1042.47,-90.5"/>
<text text-anchor="middle" x="1009.97" y="-78.5" font-family="Helvetica,sans-Serif" font-size="10.00">functional</text>
</a>
</g>
</g>
<!-- Node6&#45;&gt;Node7 -->
<g id="edge10_Node000006_Node000007" class="edge">
<title>Node6&#45;&gt;Node7</title>
<g id="a_edge10_Node000006_Node000007"><a xlink:title=" ">
<path fill="none" stroke="#63b8ff" d="M1102.04,-131.87C1084.33,-122.28 1055.51,-106.67 1034.83,-95.47"/>
<polygon fill="#63b8ff" stroke="#63b8ff" points="1036.43,-92.35 1025.97,-90.67 1033.1,-98.51 1036.43,-92.35"/>
</a>
</g>
</g>
<!-- Node8&#45;&gt;Node3 -->
<g id="edge13_Node000008_Node000003" class="edge">
<title>Node8&#45;&gt;Node3</title>
<g id="a_edge13_Node000008_Node000003"><a xlink:title=" ">
<path fill="none" stroke="#63b8ff" d="M602.86,-131.99C605,-116.26 611.9,-82.71 632.97,-66 668.07,-38.16 788.21,-25.28 865.67,-19.75"/>
<polygon fill="#63b8ff" stroke="#63b8ff" points="866.1,-23.22 875.84,-19.04 865.62,-16.24 866.1,-23.22"/>
</a>
</g>
</g>
<!-- Node8&#45;&gt;Node5 -->
<g id="edge14_Node000008_Node000005" class="edge">
<title>Node8&#45;&gt;Node5</title>
<g id="a_edge14_Node000008_Node000005"><a xlink:title=" ">
<path fill="none" stroke="#63b8ff" d="M617.32,-131.87C634.29,-122.32 661.87,-106.81 681.76,-95.62"/>
<polygon fill="#63b8ff" stroke="#63b8ff" points="683.56,-98.62 690.56,-90.67 680.13,-92.52 683.56,-98.62"/>
</a>
</g>
</g>
<!-- Node9&#45;&gt;Node3 -->
<g id="edge16_Node000009_Node000003" class="edge">
<title>Node9&#45;&gt;Node3</title>
<g id="a_edge16_Node000009_Node000003"><a xlink:title=" ">
<path fill="none" stroke="#63b8ff" d="M305.77,-131.96C349.82,-116.49 447.31,-83.75 531.97,-66 647.98,-41.68 785.48,-27.71 865.89,-21"/>
<polygon fill="#63b8ff" stroke="#63b8ff" points="866.21,-24.49 875.89,-20.18 865.64,-17.51 866.21,-24.49"/>
</a>
</g>
</g>
<!-- Node9&#45;&gt;Node5 -->
<g id="edge19_Node000009_Node000005" class="edge">
<title>Node9&#45;&gt;Node5</title>
<g id="a_edge19_Node000009_Node000005"><a xlink:title=" ">
<path fill="none" stroke="#63b8ff" d="M343.63,-131.99C420.72,-121.36 552.45,-103.18 634.06,-91.92"/>
<polygon fill="#63b8ff" stroke="#63b8ff" points="634.82,-95.35 644.24,-90.52 633.86,-88.42 634.82,-95.35"/>
</a>
</g>
</g>
<!-- Node9&#45;&gt;Node7 -->
<g id="edge17_Node000009_Node000007" class="edge">
<title>Node9&#45;&gt;Node7</title>
<g id="a_edge17_Node000009_Node000007"><a xlink:title=" ">
<path fill="none" stroke="#63b8ff" d="M364.79,-132.71C367.55,-132.47 370.28,-132.23 372.97,-132 596.56,-112.78 864.57,-92.71 967.16,-85.14"/>
<polygon fill="#63b8ff" stroke="#63b8ff" points="967.42,-88.63 977.14,-84.4 966.91,-81.65 967.42,-88.63"/>
</a>
</g>
</g>
<!-- Node10 -->
<g id="Node000010" class="node">
<title>Node10</title>
<g id="a_Node000010"><a xlink:title=" ">
<polygon fill="#e0e0e0" stroke="#999999" points="297.97,-90.5 265.97,-90.5 265.97,-71.5 297.97,-71.5 297.97,-90.5"/>
<text text-anchor="middle" x="281.97" y="-78.5" font-family="Helvetica,sans-Serif" font-size="10.00">set</text>
</a>
</g>
</g>
<!-- Node9&#45;&gt;Node10 -->
<g id="edge18_Node000009_Node000010" class="edge">
<title>Node9&#45;&gt;Node10</title>
<g id="a_edge18_Node000009_Node000010"><a xlink:title=" ">
<path fill="none" stroke="#63b8ff" d="M281.97,-131.87C281.97,-123.75 281.97,-111.31 281.97,-100.89"/>
<polygon fill="#63b8ff" stroke="#63b8ff" points="285.47,-100.67 281.97,-90.67 278.47,-100.67 285.47,-100.67"/>
</a>
</g>
</g>
<!-- Node11&#45;&gt;Node3 -->
<g id="edge21_Node000011_Node000003" class="edge">
<title>Node11&#45;&gt;Node3</title>
<g id="a_edge21_Node000011_Node000003"><a xlink:title=" ">
<path fill="none" stroke="#63b8ff" d="M803.59,-131.94C825.37,-112.58 878.96,-64.92 910.24,-37.11"/>
<polygon fill="#63b8ff" stroke="#63b8ff" points="912.9,-39.42 918.05,-30.16 908.25,-34.19 912.9,-39.42"/>
</a>
</g>
</g>
<!-- Node11&#45;&gt;Node5 -->
<g id="edge22_Node000011_Node000005" class="edge">
<title>Node11&#45;&gt;Node5</title>
<g id="a_edge22_Node000011_Node000005"><a xlink:title=" ">
<path fill="none" stroke="#63b8ff" d="M780.99,-131.87C766.95,-122.54 744.34,-107.51 727.61,-96.38"/>
<polygon fill="#63b8ff" stroke="#63b8ff" points="729.28,-93.29 719.01,-90.67 725.4,-99.12 729.28,-93.29"/>
</a>
</g>
</g>
<!-- Node12&#45;&gt;Node3 -->
<g id="edge24_Node000012_Node000003" class="edge">
<title>Node12&#45;&gt;Node3</title>
<g id="a_edge24_Node000012_Node000003"><a xlink:title=" ">
<path fill="none" stroke="#63b8ff" d="M2136.17,-131.53C2126.76,-115.04 2104.17,-80.26 2073.97,-66 1977.32,-20.37 1233.48,-16.14 1002.3,-15.94"/>
<polygon fill="#63b8ff" stroke="#63b8ff" points="1002.01,-12.44 992.01,-15.93 1002.01,-19.44 1002.01,-12.44"/>
</a>
</g>
</g>
<!-- Node13 -->
<g id="Node000013" class="node">
<title>Node13</title>
<g id="a_Node000013"><a xlink:title=" ">
<polygon fill="#e0e0e0" stroke="#999999" points="2306.97,-90.5 2268.97,-90.5 2268.97,-71.5 2306.97,-71.5 2306.97,-90.5"/>
<text text-anchor="middle" x="2287.97" y="-78.5" font-family="Helvetica,sans-Serif" font-size="10.00">map</text>
</a>
</g>
</g>
<!-- Node12&#45;&gt;Node13 -->
<g id="edge25_Node000012_Node000013" class="edge">
<title>Node12&#45;&gt;Node13</title>
<g id="a_edge25_Node000012_Node000013"><a xlink:title=" ">
<path fill="none" stroke="#63b8ff" d="M2162.35,-131.99C2187.99,-121.79 2231.07,-104.64 2259.51,-93.33"/>
<polygon fill="#63b8ff" stroke="#63b8ff" points="2260.91,-96.54 2268.91,-89.59 2258.32,-90.03 2260.91,-96.54"/>
</a>
</g>
</g>
<!-- Node14 -->
<g id="Node000014" class="node">
<title>Node14</title>
<g id="a_Node000014"><a xlink:title=" ">
<polygon fill="#e0e0e0" stroke="#999999" points="1998.97,-90.5 1940.97,-90.5 1940.97,-71.5 1998.97,-71.5 1998.97,-90.5"/>
<text text-anchor="middle" x="1969.97" y="-78.5" font-family="Helvetica,sans-Serif" font-size="10.00">memory</text>
</a>
</g>
</g>
<!-- Node12&#45;&gt;Node14 -->
<g id="edge26_Node000012_Node000014" class="edge">
<title>Node12&#45;&gt;Node14</title>
<g id="a_edge26_Node000012_Node000014"><a xlink:title=" ">
<path fill="none" stroke="#63b8ff" d="M2115.12,-131.95C2088.47,-123.1 2045.75,-108.8 2008.97,-96 2007.09,-95.34 2005.15,-94.67 2003.2,-93.98"/>
<polygon fill="#63b8ff" stroke="#63b8ff" points="2004.05,-90.57 1993.46,-90.51 2001.71,-97.16 2004.05,-90.57"/>
</a>
</g>
</g>
<!-- Node15 -->
<g id="Node000015" class="node">
<title>Node15</title>
<g id="a_Node000015"><a xlink:title=" ">
<polygon fill="#e0e0e0" stroke="#999999" points="2172.47,-90.5 2121.47,-90.5 2121.47,-71.5 2172.47,-71.5 2172.47,-90.5"/>
<text text-anchor="middle" x="2146.97" y="-78.5" font-family="Helvetica,sans-Serif" font-size="10.00">variant</text>
</a>
</g>
</g>
<!-- Node12&#45;&gt;Node15 -->
<g id="edge27_Node000012_Node000015" class="edge">
<title>Node12&#45;&gt;Node15</title>
<g id="a_edge27_Node000012_Node000015"><a xlink:title=" ">
<path fill="none" stroke="#63b8ff" d="M2141.86,-131.87C2142.69,-123.75 2143.97,-111.31 2145.04,-100.89"/>
<polygon fill="#63b8ff" stroke="#63b8ff" points="2148.54,-100.97 2146.08,-90.67 2141.58,-100.26 2148.54,-100.97"/>
</a>
</g>
</g>
<!-- Node16 -->
<g id="Node000016" class="node">
<title>Node16</title>
<g id="a_Node000016"><a xlink:title=" ">
<polygon fill="#e0e0e0" stroke="#999999" points="2064.47,-90.5 2017.47,-90.5 2017.47,-71.5 2064.47,-71.5 2064.47,-90.5"/>
<text text-anchor="middle" x="2040.97" y="-78.5" font-family="Helvetica,sans-Serif" font-size="10.00">vector</text>
</a>
</g>
</g>
<!-- Node12&#45;&gt;Node16 -->
<g id="edge28_Node000012_Node000016" class="edge">
<title>Node12&#45;&gt;Node16</title>
<g id="a_edge28_Node000012_Node000016"><a xlink:title=" ">
<path fill="none" stroke="#63b8ff" d="M2126.22,-131.87C2109.97,-122.36 2083.62,-106.95 2064.51,-95.77"/>
<polygon fill="#63b8ff" stroke="#63b8ff" points="2066.19,-92.7 2055.79,-90.67 2062.65,-98.74 2066.19,-92.7"/>
</a>
</g>
</g>
<!-- Node17&#45;&gt;Node2 -->
<g id="edge30_Node000017_Node000002" class="edge">
<title>Node17&#45;&gt;Node2</title>
<g id="a_edge30_Node000017_Node000002"><a xlink:title=" ">
<path fill="none" stroke="#63b8ff" d="M1585.55,-186.82C1576.96,-178.42 1564.49,-164.95 1556.97,-151 1549.45,-137.05 1544.47,-119.96 1541.36,-106.27"/>
<polygon fill="#63b8ff" stroke="#63b8ff" points="1544.72,-105.23 1539.25,-96.15 1537.87,-106.66 1544.72,-105.23"/>
</a>
</g>
</g>
<!-- Node17&#45;&gt;Node3 -->
<g id="edge31_Node000017_Node000003" class="edge">
<title>Node17&#45;&gt;Node3</title>
<g id="a_edge31_Node000017_Node000003"><a xlink:title=" ">
<path fill="none" stroke="#63b8ff" d="M1636.33,-186.94C1670.57,-178.91 1715.27,-165.94 1725.97,-151 1763.05,-99.25 1729.34,-100 1638.97,-66 1523.76,-22.65 1156.09,-16.54 1002.46,-15.92"/>
<polygon fill="#63b8ff" stroke="#63b8ff" points="1002.22,-12.42 992.21,-15.89 1002.2,-19.42 1002.22,-12.42"/>
</a>
</g>
</g>
<!-- Node17&#45;&gt;Node12 -->
<g id="edge32_Node000017_Node000012" class="edge">
<title>Node17&#45;&gt;Node12</title>
<g id="a_edge32_Node000017_Node000012"><a xlink:title=" ">
<path fill="none" stroke="#63b8ff" d="M1662.74,-188.92C1763.18,-179.17 1951.24,-160.92 2059.19,-150.44"/>
<polygon fill="#63b8ff" stroke="#63b8ff" points="2059.77,-153.9 2069.38,-149.45 2059.09,-146.93 2059.77,-153.9"/>
</a>
</g>
</g>
<!-- Node18 -->
<g id="Node000018" class="node">
<title>Node18</title>
<g id="a_Node000018"><a xlink:href="DirektComboBox_8h.html" target="_top" xlink:title=" ">
<polygon fill="white" stroke="#666666" points="1716.47,-151 1565.47,-151 1565.47,-132 1716.47,-132 1716.47,-151"/>
<text text-anchor="middle" x="1640.97" y="-139" font-family="Helvetica,sans-Serif" font-size="10.00">controls/DirektComboBox.h</text>
</a>
</g>
</g>
<!-- Node17&#45;&gt;Node18 -->
<g id="edge33_Node000017_Node000018" class="edge">
<title>Node17&#45;&gt;Node18</title>
<g id="a_edge33_Node000017_Node000018"><a xlink:title=" ">
<path fill="none" stroke="#63b8ff" d="M1602.57,-186.75C1609.13,-179.18 1618.8,-168.05 1626.79,-158.84"/>
<polygon fill="#63b8ff" stroke="#63b8ff" points="1629.61,-160.94 1633.52,-151.09 1624.32,-156.35 1629.61,-160.94"/>
</a>
</g>
</g>
<!-- Node19 -->
<g id="Node000019" class="node">
<title>Node19</title>
<g id="a_Node000019"><a xlink:href="DirektKnob_8h.html" target="_top" xlink:title=" ">
<polygon fill="white" stroke="#666666" points="1470.97,-151 1348.97,-151 1348.97,-132 1470.97,-132 1470.97,-151"/>
<text text-anchor="middle" x="1409.97" y="-139" font-family="Helvetica,sans-Serif" font-size="10.00">controls/DirektKnob.h</text>
</a>
</g>
</g>
<!-- Node17&#45;&gt;Node19 -->
<g id="edge36_Node000017_Node000019" class="edge">
<title>Node17&#45;&gt;Node19</title>
<g id="a_edge36_Node000017_Node000019"><a xlink:title=" ">
<path fill="none" stroke="#63b8ff" d="M1565.25,-186.98C1533.92,-178.01 1484.4,-163.82 1449.73,-153.89"/>
<polygon fill="#63b8ff" stroke="#63b8ff" points="1450.51,-150.47 1439.93,-151.08 1448.58,-157.2 1450.51,-150.47"/>
</a>
</g>
</g>
<!-- Node21 -->
<g id="Node000021" class="node">
<title>Node21</title>
<g id="a_Node000021"><a xlink:href="DirektToggle_8h.html" target="_top" xlink:title=" ">
<polygon fill="white" stroke="#666666" points="1330.47,-151 1201.47,-151 1201.47,-132 1330.47,-132 1330.47,-151"/>
<text text-anchor="middle" x="1265.97" y="-139" font-family="Helvetica,sans-Serif" font-size="10.00">controls/DirektToggle.h</text>
</a>
</g>
</g>
<!-- Node17&#45;&gt;Node21 -->
<g id="edge40_Node000017_Node000021" class="edge">
<title>Node17&#45;&gt;Node21</title>
<g id="a_edge40_Node000017_Node000021"><a xlink:title=" ">
<path fill="none" stroke="#63b8ff" d="M1542.11,-186.98C1484.04,-177.63 1390.82,-162.61 1329,-152.65"/>
<polygon fill="#63b8ff" stroke="#63b8ff" points="1329.4,-149.17 1318.97,-151.04 1328.29,-156.08 1329.4,-149.17"/>
</a>
</g>
</g>
<!-- Node17&#45;&gt;Node22 -->
<g id="edge43_Node000017_Node000022" class="edge">
<title>Node17&#45;&gt;Node22</title>
<g id="a_edge43_Node000017_Node000022"><a xlink:title=" ">
<path fill="none" stroke="#63b8ff" d="M1527.47,-191.1C1418.65,-183.85 1197.77,-168.42 1010.97,-151 1009.51,-150.86 1008.03,-150.72 1006.54,-150.58"/>
<polygon fill="#63b8ff" stroke="#63b8ff" points="1006.87,-147.09 996.57,-149.59 1006.17,-154.06 1006.87,-147.09"/>
</a>
</g>
</g>
<!-- Node18&#45;&gt;Node2 -->
<g id="edge34_Node000018_Node000002" class="edge">
<title>Node18&#45;&gt;Node2</title>
<g id="a_edge34_Node000018_Node000002"><a xlink:title=" ">
<path fill="none" stroke="#63b8ff" d="M1625.63,-131.87C1611.25,-123.78 1589.28,-111.42 1570.8,-101.03"/>
<polygon fill="#63b8ff" stroke="#63b8ff" points="1572.5,-97.97 1562.06,-96.11 1569.06,-104.07 1572.5,-97.97"/>
</a>
</g>
</g>
<!-- Node18&#45;&gt;Node3 -->
<g id="edge35_Node000018_Node000003" class="edge">
<title>Node18&#45;&gt;Node3</title>
<g id="a_edge35_Node000018_Node000003"><a xlink:title=" ">
<path fill="none" stroke="#63b8ff" d="M1640.95,-131.87C1640.38,-115.94 1636.66,-82.06 1615.97,-66 1568.28,-28.98 1165.81,-19.22 1002.46,-16.78"/>
<polygon fill="#63b8ff" stroke="#63b8ff" points="1002.1,-13.27 992.05,-16.63 1002,-20.27 1002.1,-13.27"/>
</a>
</g>
</g>
<!-- Node19&#45;&gt;Node2 -->
<g id="edge37_Node000019_Node000002" class="edge">
<title>Node19&#45;&gt;Node2</title>
<g id="a_edge37_Node000019_Node000002"><a xlink:title=" ">
<path fill="none" stroke="#63b8ff" d="M1428.44,-131.99C1446.34,-123.75 1474.07,-110.98 1497.02,-100.4"/>
<polygon fill="#63b8ff" stroke="#63b8ff" points="1498.58,-103.54 1506.19,-96.18 1495.65,-97.18 1498.58,-103.54"/>
</a>
</g>
</g>
<!-- Node19&#45;&gt;Node3 -->
<g id="edge38_Node000019_Node000003" class="edge">
<title>Node19&#45;&gt;Node3</title>
<g id="a_edge38_Node000019_Node000003"><a xlink:title=" ">
<path fill="none" stroke="#63b8ff" d="M1378.86,-131.95C1327.66,-117.92 1222.38,-89.25 1132.97,-66 1089.14,-54.6 1039.76,-42.19 1001.16,-32.59"/>
<polygon fill="#63b8ff" stroke="#63b8ff" points="1001.63,-29.1 991.08,-30.08 999.94,-35.89 1001.63,-29.1"/>
</a>
</g>
</g>
<!-- Node20 -->
<g id="Node000020" class="node">
<title>Node20</title>
<g id="a_Node000020"><a xlink:title=" ">
<polygon fill="#e0e0e0" stroke="#999999" points="1437.97,-90.5 1381.97,-90.5 1381.97,-71.5 1437.97,-71.5 1437.97,-90.5"/>
<text text-anchor="middle" x="1409.97" y="-78.5" font-family="Helvetica,sans-Serif" font-size="10.00">optional</text>
</a>
</g>
</g>
<!-- Node19&#45;&gt;Node20 -->
<g id="edge39_Node000019_Node000020" class="edge">
<title>Node19&#45;&gt;Node20</title>
<g id="a_edge39_Node000019_Node000020"><a xlink:title=" ">
<path fill="none" stroke="#63b8ff" d="M1409.97,-131.87C1409.97,-123.75 1409.97,-111.31 1409.97,-100.89"/>
<polygon fill="#63b8ff" stroke="#63b8ff" points="1413.47,-100.67 1409.97,-90.67 1406.47,-100.67 1413.47,-100.67"/>
</a>
</g>
</g>
<!-- Node21&#45;&gt;Node2 -->
<g id="edge41_Node000021_Node000002" class="edge">
<title>Node21&#45;&gt;Node2</title>
<g id="a_edge41_Node000021_Node000002"><a xlink:title=" ">
<path fill="none" stroke="#63b8ff" d="M1305.38,-131.99C1346.32,-123.16 1411.38,-109.11 1462.13,-98.16"/>
<polygon fill="#63b8ff" stroke="#63b8ff" points="1463.05,-101.54 1472.08,-96.01 1461.57,-94.7 1463.05,-101.54"/>
</a>
</g>
</g>
<!-- Node21&#45;&gt;Node3 -->
<g id="edge42_Node000021_Node000003" class="edge">
<title>Node21&#45;&gt;Node3</title>
<g id="a_edge42_Node000021_Node000003"><a xlink:title=" ">
<path fill="none" stroke="#63b8ff" d="M1245.86,-131.98C1212.03,-117.74 1141.51,-88.47 1080.97,-66 1050,-54.51 1014.99,-42.56 986.91,-33.23"/>
<polygon fill="#63b8ff" stroke="#63b8ff" points="987.88,-29.86 977.29,-30.04 985.68,-36.5 987.88,-29.86"/>
</a>
</g>
</g>
<!-- Node22&#45;&gt;Node3 -->
<g id="edge44_Node000022_Node000003" class="edge">
<title>Node22&#45;&gt;Node3</title>
<g id="a_edge44_Node000022_Node000003"><a xlink:title=" ">
<path fill="none" stroke="#63b8ff" d="M933.97,-131.94C933.97,-113.32 933.97,-68.53 933.97,-40.39"/>
<polygon fill="#63b8ff" stroke="#63b8ff" points="937.47,-40.16 933.97,-30.16 930.47,-40.16 937.47,-40.16"/>
</a>
</g>
</g>
<!-- Node22&#45;&gt;Node5 -->
<g id="edge47_Node000022_Node000005" class="edge">
<title>Node22&#45;&gt;Node5</title>
<g id="a_edge47_Node000022_Node000005"><a xlink:title=" ">
<path fill="none" stroke="#63b8ff" d="M900.82,-131.99C860.72,-121.7 793.11,-104.36 749.02,-93.04"/>
<polygon fill="#63b8ff" stroke="#63b8ff" points="749.72,-89.61 739.17,-90.52 747.98,-96.39 749.72,-89.61"/>
</a>
</g>
</g>
<!-- Node22&#45;&gt;Node7 -->
<g id="edge45_Node000022_Node000007" class="edge">
<title>Node22&#45;&gt;Node7</title>
<g id="a_edge45_Node000022_Node000007"><a xlink:title=" ">
<path fill="none" stroke="#63b8ff" d="M945.19,-131.87C957.09,-122.71 976.11,-108.06 990.48,-97.01"/>
<polygon fill="#63b8ff" stroke="#63b8ff" points="992.92,-99.54 998.71,-90.67 988.65,-93.99 992.92,-99.54"/>
</a>
</g>
</g>
<!-- Node22&#45;&gt;Node14 -->
<g id="edge46_Node000022_Node000014" class="edge">
<title>Node22&#45;&gt;Node14</title>
<g id="a_edge46_Node000022_Node000014"><a xlink:title=" ">
<path fill="none" stroke="#63b8ff" d="M996.49,-135.42C1012,-134.22 1028.59,-133.01 1043.97,-132 1387.35,-109.47 1802.86,-89.71 1930.67,-83.8"/>
<polygon fill="#63b8ff" stroke="#63b8ff" points="1930.94,-87.29 1940.76,-83.33 1930.61,-80.29 1930.94,-87.29"/>
</a>
</g>
</g>
<!-- Node23&#45;&gt;Node2 -->
<g id="edge49_Node000023_Node000002" class="edge">
<title>Node23&#45;&gt;Node2</title>
<g id="a_edge49_Node000023_Node000002"><a xlink:title=" ">
<path fill="none" stroke="#63b8ff" d="M2307.18,-135.51C2150.69,-124.64 1779.78,-98.87 1616.49,-87.52"/>
<polygon fill="#63b8ff" stroke="#63b8ff" points="1616.72,-84.03 1606.51,-86.83 1616.24,-91.02 1616.72,-84.03"/>
</a>
</g>
</g>
<!-- Node23&#45;&gt;Node13 -->
<g id="edge51_Node000023_Node000013" class="edge">
<title>Node23&#45;&gt;Node13</title>
<g id="a_edge51_Node000023_Node000013"><a xlink:title=" ">
<path fill="none" stroke="#63b8ff" d="M2365.54,-131.87C2350.89,-122.45 2327.22,-107.23 2309.87,-96.08"/>
<polygon fill="#63b8ff" stroke="#63b8ff" points="2311.76,-93.13 2301.45,-90.67 2307.97,-99.02 2311.76,-93.13"/>
</a>
</g>
</g>
<!-- Node24 -->
<g id="Node000024" class="node">
<title>Node24</title>
<g id="a_Node000024"><a xlink:title=" ">
<polygon fill="#e0e0e0" stroke="#999999" points="2403.97,-90.5 2353.97,-90.5 2353.97,-71.5 2403.97,-71.5 2403.97,-90.5"/>
<text text-anchor="middle" x="2378.97" y="-78.5" font-family="Helvetica,sans-Serif" font-size="10.00">atomic</text>
</a>
</g>
</g>
<!-- Node23&#45;&gt;Node24 -->
<g id="edge50_Node000023_Node000024" class="edge">
<title>Node23&#45;&gt;Node24</title>
<g id="a_edge50_Node000023_Node000024"><a xlink:title=" ">
<path fill="none" stroke="#63b8ff" d="M2378.97,-131.87C2378.97,-123.75 2378.97,-111.31 2378.97,-100.89"/>
<polygon fill="#63b8ff" stroke="#63b8ff" points="2382.47,-100.67 2378.97,-90.67 2375.47,-100.67 2382.47,-100.67"/>
</a>
</g>
</g>
<!-- Node25&#45;&gt;Node2 -->
<g id="edge53_Node000025_Node000002" class="edge">
<title>Node25&#45;&gt;Node2</title>
<g id="a_edge53_Node000025_Node000002"><a xlink:title=" ">
<path fill="none" stroke="#63b8ff" d="M1978.25,-186.99C1933.01,-178.56 1862.57,-164.92 1801.97,-151 1763.74,-142.22 1664.68,-116.08 1599.1,-98.62"/>
<polygon fill="#63b8ff" stroke="#63b8ff" points="1599.84,-95.2 1589.28,-96 1598.04,-101.96 1599.84,-95.2"/>
</a>
</g>
</g>
<!-- Node25&#45;&gt;Node3 -->
<g id="edge54_Node000025_Node000003" class="edge">
<title>Node25&#45;&gt;Node3</title>
<g id="a_edge54_Node000025_Node000003"><a xlink:title=" ">
<path fill="none" stroke="#63b8ff" d="M2108.95,-186.98C2155.8,-180.3 2207.55,-169.04 2221.97,-151 2246.18,-120.71 2222.6,-89.97 2181.97,-66 2130.91,-35.88 1256.13,-20.73 1002.42,-16.96"/>
<polygon fill="#63b8ff" stroke="#63b8ff" points="1002.28,-13.45 992.23,-16.81 1002.18,-20.45 1002.28,-13.45"/>
</a>
</g>
</g>
<!-- Node25&#45;&gt;Node7 -->
<g id="edge55_Node000025_Node000007" class="edge">
<title>Node25&#45;&gt;Node7</title>
<g id="a_edge55_Node000025_Node000007"><a xlink:title=" ">
<path fill="none" stroke="#63b8ff" d="M1937.25,-192.7C1700.07,-184.98 1062.54,-163.14 1043.97,-151 1026.72,-139.72 1017.91,-116.95 1013.63,-100.65"/>
<polygon fill="#63b8ff" stroke="#63b8ff" points="1016.98,-99.6 1011.35,-90.62 1010.16,-101.15 1016.98,-99.6"/>
</a>
</g>
</g>
<!-- Node25&#45;&gt;Node12 -->
<g id="edge59_Node000025_Node000012" class="edge">
<title>Node25&#45;&gt;Node12</title>
<g id="a_edge59_Node000025_Node000012"><a xlink:title=" ">
<path fill="none" stroke="#63b8ff" d="M2043.61,-186.98C2062.27,-178.46 2091.22,-165.23 2112.71,-155.41"/>
<polygon fill="#63b8ff" stroke="#63b8ff" points="2114.35,-158.51 2122,-151.17 2111.45,-152.14 2114.35,-158.51"/>
</a>
</g>
</g>
<!-- Node25&#45;&gt;Node13 -->
<g id="edge56_Node000025_Node000013" class="edge">
<title>Node25&#45;&gt;Node13</title>
<g id="a_edge56_Node000025_Node000013"><a xlink:title=" ">
<path fill="none" stroke="#63b8ff" d="M2110.87,-186.98C2166.48,-179.96 2232.57,-168.31 2254.97,-151 2271.02,-138.6 2279.67,-116.43 2284.03,-100.57"/>
<polygon fill="#63b8ff" stroke="#63b8ff" points="2287.45,-101.33 2286.41,-90.79 2280.64,-99.68 2287.45,-101.33"/>
</a>
</g>
</g>
<!-- Node25&#45;&gt;Node14 -->
<g id="edge57_Node000025_Node000014" class="edge">
<title>Node25&#45;&gt;Node14</title>
<g id="a_edge57_Node000025_Node000014"><a xlink:title=" ">
<path fill="none" stroke="#63b8ff" d="M2020.84,-186.97C2011.88,-168.48 1990.52,-124.4 1978.52,-99.64"/>
<polygon fill="#63b8ff" stroke="#63b8ff" points="1981.66,-98.1 1974.15,-90.63 1975.37,-101.16 1981.66,-98.1"/>
</a>
</g>
</g>
<!-- Node25&#45;&gt;Node16 -->
<g id="edge58_Node000025_Node000016" class="edge">
<title>Node25&#45;&gt;Node16</title>
<g id="a_edge58_Node000025_Node000016"><a xlink:title=" ">
<path fill="none" stroke="#63b8ff" d="M2026.17,-186.97C2028.75,-168.73 2034.83,-125.57 2038.34,-100.64"/>
<polygon fill="#63b8ff" stroke="#63b8ff" points="2041.83,-101.02 2039.76,-90.63 2034.89,-100.04 2041.83,-101.02"/>
</a>
</g>
</g>
<!-- Node25&#45;&gt;Node23 -->
<g id="edge60_Node000025_Node000023" class="edge">
<title>Node25&#45;&gt;Node23</title>
<g id="a_edge60_Node000025_Node000023"><a xlink:title=" ">
<path fill="none" stroke="#63b8ff" d="M2081.85,-186.98C2144.59,-177.59 2245.46,-162.49 2311.98,-152.53"/>
<polygon fill="#63b8ff" stroke="#63b8ff" points="2312.57,-155.98 2321.94,-151.04 2311.54,-149.06 2312.57,-155.98"/>
</a>
</g>
</g>
<!-- Node26&#45;&gt;Node2 -->
<g id="edge62_Node000026_Node000002" class="edge">
<title>Node26&#45;&gt;Node2</title>
<g id="a_edge62_Node000026_Node000002"><a xlink:title=" ">
<path fill="none" stroke="#63b8ff" d="M1841.21,-131.99C1782.21,-122.3 1685.08,-106.34 1616.46,-95.06"/>
<polygon fill="#63b8ff" stroke="#63b8ff" points="1616.99,-91.6 1606.56,-93.43 1615.86,-98.51 1616.99,-91.6"/>
</a>
</g>
</g>
<!-- Node26&#45;&gt;Node16 -->
<g id="edge63_Node000026_Node000016" class="edge">
<title>Node26&#45;&gt;Node16</title>
<g id="a_edge63_Node000026_Node000016"><a xlink:title=" ">
<path fill="none" stroke="#63b8ff" d="M1915.97,-131.85C1939.24,-123.04 1976.23,-108.87 2007.97,-96 2009.17,-95.51 2010.4,-95.01 2011.63,-94.51"/>
<polygon fill="#63b8ff" stroke="#63b8ff" points="2013.24,-97.63 2021.12,-90.54 2010.54,-91.17 2013.24,-97.63"/>
</a>
</g>
</g>
<!-- Node27&#45;&gt;Node3 -->
<g id="edge67_Node000027_Node000003" class="edge">
<title>Node27&#45;&gt;Node3</title>
<g id="a_edge67_Node000027_Node000003"><a xlink:title=" ">
<path fill="none" stroke="#63b8ff" d="M118.11,-131.88C143.64,-115.65 202.23,-80.84 256.97,-66 370.28,-35.28 717.22,-22.1 865.55,-17.76"/>
<polygon fill="#63b8ff" stroke="#63b8ff" points="865.99,-21.24 875.88,-17.46 865.79,-14.25 865.99,-21.24"/>
</a>
</g>
</g>
<!-- Node27&#45;&gt;Node5 -->
<g id="edge68_Node000027_Node000005" class="edge">
<title>Node27&#45;&gt;Node5</title>
<g id="a_edge68_Node000027_Node000005"><a xlink:title=" ">
<path fill="none" stroke="#63b8ff" d="M181.43,-132.84C184.31,-132.56 187.17,-132.28 189.97,-132 347.58,-116.48 532.3,-98.68 632.41,-89.06"/>
<polygon fill="#63b8ff" stroke="#63b8ff" points="632.8,-92.54 642.42,-88.1 632.13,-85.57 632.8,-92.54"/>
</a>
</g>
</g>
</g>
</svg>
