<?xml version="1.0" encoding="UTF-8" standalone="no"?>
<!DOCTYPE svg PUBLIC "-//W3C//DTD SVG 1.1//EN"
 "http://www.w3.org/Graphics/SVG/1.1/DTD/svg11.dtd">
<!-- Generated by graphviz version 2.43.0 (0)
 -->
<!-- Title: controls/DirektComboBox.h Pages: 1 -->
<svg width="545pt" height="258pt"
 viewBox="0.00 0.00 545.22 258.00" xmlns="http://www.w3.org/2000/svg" xmlns:xlink="http://www.w3.org/1999/xlink">
<g id="graph0" class="graph" transform="scale(1 1) rotate(0) translate(4 254)">
<title>controls/DirektComboBox.h</title>
<!-- Node1 -->
<g id="Node000001" class="node">
<title>Node1</title>
<g id="a_Node000001"><a xlink:title=" ">
<polygon fill="#999999" stroke="#666666" points="256.72,-250 105.72,-250 105.72,-231 256.72,-231 256.72,-250"/>
<text text-anchor="middle" x="181.22" y="-238" font-family="Helvetica,sans-Serif" font-size="10.00">controls/DirektComboBox.h</text>
</a>
</g>
</g>
<!-- Node2 -->
<g id="Node000002" class="node">
<title>Node2</title>
<g id="a_Node000002"><a xlink:href="DirektDSP_8h.html" target="_top" xlink:title=" ">
<polygon fill="white" stroke="#666666" points="132.22,-85 58.22,-85 58.22,-66 132.22,-66 132.22,-85"/>
<text text-anchor="middle" x="95.22" y="-73" font-family="Helvetica,sans-Serif" font-size="10.00">DirektDSP.h</text>
</a>
</g>
</g>
<!-- Node1&#45;&gt;Node2 -->
<g id="edge1_Node000001_Node000002" class="edge">
<title>Node1&#45;&gt;Node2</title>
<g id="a_edge1_Node000001_Node000002"><a xlink:title=" ">
<path fill="none" stroke="#63b8ff" d="M105.1,-229.24C64.54,-222.04 20.51,-210.85 8.22,-195 -23.06,-154.66 47.64,-105.02 80.06,-85.24"/>
<polygon fill="#63b8ff" stroke="#63b8ff" points="104.59,-232.7 115.04,-230.94 105.77,-225.8 104.59,-232.7"/>
</a>
</g>
</g>
<!-- Node4 -->
<g id="Node000004" class="node">
<title>Node4</title>
<g id="a_Node000004"><a xlink:href="DirektComboBox_8cpp.html" target="_top" xlink:title=" ">
<polygon fill="white" stroke="#666666" points="179.22,-195 17.22,-195 17.22,-176 179.22,-176 179.22,-195"/>
<text text-anchor="middle" x="98.22" y="-183" font-family="Helvetica,sans-Serif" font-size="10.00">controls/DirektComboBox.cpp</text>
</a>
</g>
</g>
<!-- Node1&#45;&gt;Node4 -->
<g id="edge3_Node000001_Node000004" class="edge">
<title>Node1&#45;&gt;Node4</title>
<g id="a_edge3_Node000001_Node000004"><a xlink:title=" ">
<path fill="none" stroke="#63b8ff" d="M159.18,-225.42C144.11,-215.81 124.63,-203.37 111.8,-195.17"/>
<polygon fill="#63b8ff" stroke="#63b8ff" points="157.57,-228.55 167.88,-230.98 161.34,-222.65 157.57,-228.55"/>
</a>
</g>
</g>
<!-- Node5 -->
<g id="Node000005" class="node">
<title>Node5</title>
<g id="a_Node000005"><a xlink:href="DirektAutoLayout_8h.html" target="_top" xlink:title=" ">
<polygon fill="white" stroke="#666666" points="332.72,-195 197.72,-195 197.72,-176 332.72,-176 332.72,-195"/>
<text text-anchor="middle" x="265.22" y="-183" font-family="Helvetica,sans-Serif" font-size="10.00">core/DirektAutoLayout.h</text>
</a>
</g>
</g>
<!-- Node1&#45;&gt;Node5 -->
<g id="edge4_Node000001_Node000005" class="edge">
<title>Node1&#45;&gt;Node5</title>
<g id="a_edge4_Node000001_Node000005"><a xlink:title=" ">
<path fill="none" stroke="#63b8ff" d="M203.53,-225.42C218.77,-215.81 238.49,-203.37 251.48,-195.17"/>
<polygon fill="#63b8ff" stroke="#63b8ff" points="201.31,-222.69 194.72,-230.98 205.04,-228.61 201.31,-222.69"/>
</a>
</g>
</g>
<!-- Node9 -->
<g id="Node000009" class="node">
<title>Node9</title>
<g id="a_Node000009"><a xlink:href="DirektComponentRegistry_8cpp.html" target="_top" xlink:title=" ">
<polygon fill="white" stroke="#666666" points="537.22,-195 351.22,-195 351.22,-176 537.22,-176 537.22,-195"/>
<text text-anchor="middle" x="444.22" y="-183" font-family="Helvetica,sans-Serif" font-size="10.00">core/DirektComponentRegistry.cpp</text>
</a>
</g>
</g>
<!-- Node1&#45;&gt;Node9 -->
<g id="edge10_Node000001_Node000009" class="edge">
<title>Node1&#45;&gt;Node9</title>
<g id="a_edge10_Node000001_Node000009"><a xlink:title=" ">
<path fill="none" stroke="#63b8ff" d="M233.31,-229C282.61,-219.07 355.72,-204.33 401.63,-195.08"/>
<polygon fill="#63b8ff" stroke="#63b8ff" points="232.59,-225.58 223.48,-230.98 233.97,-232.44 232.59,-225.58"/>
</a>
</g>
</g>
<!-- Node3 -->
<g id="Node000003" class="node">
<title>Node3</title>
<g id="a_Node000003"><a xlink:href="StandaloneTestProcessor_8cpp.html" target="_top" xlink:title=" ">
<polygon fill="white" stroke="#666666" points="175.72,-30 14.72,-30 14.72,0 175.72,0 175.72,-30"/>
<text text-anchor="start" x="22.72" y="-18" font-family="Helvetica,sans-Serif" font-size="10.00">examples/StandaloneTest</text>
<text text-anchor="middle" x="95.22" y="-7" font-family="Helvetica,sans-Serif" font-size="10.00">/StandaloneTestProcessor.cpp</text>
</a>
</g>
</g>
<!-- Node2&#45;&gt;Node3 -->
<g id="edge2_Node000002_Node000003" class="edge">
<title>Node2&#45;&gt;Node3</title>
<g id="a_edge2_Node000002_Node000003"><a xlink:title=" ">
<path fill="none" stroke="#63b8ff" d="M95.22,-55.65C95.22,-47.36 95.22,-37.78 95.22,-30.11"/>
<polygon fill="#63b8ff" stroke="#63b8ff" points="91.72,-55.87 95.22,-65.87 98.72,-55.87 91.72,-55.87"/>
</a>
</g>
</g>
<!-- Node5&#45;&gt;Node2 -->
<g id="edge5_Node000005_Node000002" class="edge">
<title>Node5&#45;&gt;Node2</title>
<g id="a_edge5_Node000005_Node000002"><a xlink:title=" ">
<path fill="none" stroke="#63b8ff" d="M208.9,-173.74C171.86,-165.6 127.81,-153.53 114.22,-140 99.22,-125.06 95.97,-98.79 95.32,-85.2"/>
<polygon fill="#63b8ff" stroke="#63b8ff" points="208.62,-177.26 219.13,-175.93 210.09,-170.41 208.62,-177.26"/>
</a>
</g>
</g>
<!-- Node6 -->
<g id="Node000006" class="node">
<title>Node6</title>
<g id="a_Node000006"><a xlink:href="DirektAutoLayout_8cpp.html" target="_top" xlink:title=" ">
<polygon fill="white" stroke="#666666" points="269.22,-140 123.22,-140 123.22,-121 269.22,-121 269.22,-140"/>
<text text-anchor="middle" x="196.22" y="-128" font-family="Helvetica,sans-Serif" font-size="10.00">core/DirektAutoLayout.cpp</text>
</a>
</g>
</g>
<!-- Node5&#45;&gt;Node6 -->
<g id="edge6_Node000005_Node000006" class="edge">
<title>Node5&#45;&gt;Node6</title>
<g id="a_edge6_Node000005_Node000006"><a xlink:title=" ">
<path fill="none" stroke="#63b8ff" d="M246.18,-169.88C233.76,-160.34 217.98,-148.21 207.51,-140.17"/>
<polygon fill="#63b8ff" stroke="#63b8ff" points="244.07,-172.67 254.13,-175.98 248.34,-167.12 244.07,-172.67"/>
</a>
</g>
</g>
<!-- Node7 -->
<g id="Node000007" class="node">
<title>Node7</title>
<g id="a_Node000007"><a xlink:href="DirektBaseEditor_8h.html" target="_top" xlink:title=" ">
<polygon fill="white" stroke="#666666" points="418.72,-140 287.72,-140 287.72,-121 418.72,-121 418.72,-140"/>
<text text-anchor="middle" x="353.22" y="-128" font-family="Helvetica,sans-Serif" font-size="10.00">core/DirektBaseEditor.h</text>
</a>
</g>
</g>
<!-- Node5&#45;&gt;Node7 -->
<g id="edge7_Node000005_Node000007" class="edge">
<title>Node5&#45;&gt;Node7</title>
<g id="a_edge7_Node000005_Node000007"><a xlink:title=" ">
<path fill="none" stroke="#63b8ff" d="M288.14,-170.7C304.17,-161.04 325.09,-148.44 338.82,-140.17"/>
<polygon fill="#63b8ff" stroke="#63b8ff" points="286.12,-167.83 279.36,-175.98 289.73,-173.82 286.12,-167.83"/>
</a>
</g>
</g>
<!-- Node7&#45;&gt;Node2 -->
<g id="edge8_Node000007_Node000002" class="edge">
<title>Node7&#45;&gt;Node2</title>
<g id="a_edge8_Node000007_Node000002"><a xlink:title=" ">
<path fill="none" stroke="#63b8ff" d="M301.79,-118.94C251.74,-108.65 176.9,-93.28 132.38,-84.13"/>
<polygon fill="#63b8ff" stroke="#63b8ff" points="301.27,-122.4 311.77,-120.98 302.68,-115.54 301.27,-122.4"/>
</a>
</g>
</g>
<!-- Node8 -->
<g id="Node000008" class="node">
<title>Node8</title>
<g id="a_Node000008"><a xlink:href="DirektBaseEditor_8cpp.html" target="_top" xlink:title=" ">
<polygon fill="white" stroke="#666666" points="424.72,-85 281.72,-85 281.72,-66 424.72,-66 424.72,-85"/>
<text text-anchor="middle" x="353.22" y="-73" font-family="Helvetica,sans-Serif" font-size="10.00">core/DirektBaseEditor.cpp</text>
</a>
</g>
</g>
<!-- Node7&#45;&gt;Node8 -->
<g id="edge9_Node000007_Node000008" class="edge">
<title>Node7&#45;&gt;Node8</title>
<g id="a_edge9_Node000007_Node000008"><a xlink:title=" ">
<path fill="none" stroke="#63b8ff" d="M353.22,-110.66C353.22,-101.93 353.22,-91.99 353.22,-85.09"/>
<polygon fill="#63b8ff" stroke="#63b8ff" points="349.72,-110.75 353.22,-120.75 356.72,-110.75 349.72,-110.75"/>
</a>
</g>
</g>
</g>
</svg>
