<?xml version="1.0" encoding="UTF-8" standalone="no"?>
<!DOCTYPE svg PUBLIC "-//W3C//DTD SVG 1.1//EN"
 "http://www.w3.org/Graphics/SVG/1.1/DTD/svg11.dtd">
<!-- Generated by graphviz version 2.43.0 (0)
 -->
<!-- Title: chrome/DirektPresetBrowser.cpp Pages: 1 -->
<svg width="534pt" height="214pt"
 viewBox="0.00 0.00 534.41 214.00" xmlns="http://www.w3.org/2000/svg" xmlns:xlink="http://www.w3.org/1999/xlink">
<g id="graph0" class="graph" transform="scale(1 1) rotate(0) translate(4 210)">
<title>chrome/DirektPresetBrowser.cpp</title>
<!-- Node1 -->
<g id="Node000001" class="node">
<title>Node1</title>
<g id="a_Node000001"><a xlink:title=" ">
<polygon fill="#999999" stroke="#666666" points="351.91,-206 175.91,-206 175.91,-187 351.91,-187 351.91,-206"/>
<text text-anchor="middle" x="263.91" y="-194" font-family="Helvetica,sans-Serif" font-size="10.00">chrome/DirektPresetBrowser.cpp</text>
</a>
</g>
</g>
<!-- Node2 -->
<g id="Node000002" class="node">
<title>Node2</title>
<g id="a_Node000002"><a xlink:href="DirektPresetBrowser_8h.html" target="_top" xlink:title=" ">
<polygon fill="white" stroke="#666666" points="177.41,-151 12.41,-151 12.41,-132 177.41,-132 177.41,-151"/>
<text text-anchor="middle" x="94.91" y="-139" font-family="Helvetica,sans-Serif" font-size="10.00">chrome/DirektPresetBrowser.h</text>
</a>
</g>
</g>
<!-- Node1&#45;&gt;Node2 -->
<g id="edge1_Node000001_Node000002" class="edge">
<title>Node1&#45;&gt;Node2</title>
<g id="a_edge1_Node000001_Node000002"><a xlink:title=" ">
<path fill="none" stroke="#63b8ff" d="M236.75,-186.98C208.38,-178.09 163.67,-164.07 132.05,-154.15"/>
<polygon fill="#63b8ff" stroke="#63b8ff" points="132.86,-150.73 122.27,-151.08 130.77,-157.41 132.86,-150.73"/>
</a>
</g>
</g>
<!-- Node7 -->
<g id="Node000007" class="node">
<title>Node7</title>
<g id="a_Node000007"><a xlink:title=" ">
<polygon fill="#e0e0e0" stroke="#999999" points="259.91,-151 195.91,-151 195.91,-132 259.91,-132 259.91,-151"/>
<text text-anchor="middle" x="227.91" y="-139" font-family="Helvetica,sans-Serif" font-size="10.00">algorithm</text>
</a>
</g>
</g>
<!-- Node1&#45;&gt;Node7 -->
<g id="edge7_Node000001_Node000007" class="edge">
<title>Node1&#45;&gt;Node7</title>
<g id="a_edge7_Node000001_Node000007"><a xlink:title=" ">
<path fill="none" stroke="#63b8ff" d="M257.96,-186.75C252.93,-179.34 245.57,-168.5 239.39,-159.41"/>
<polygon fill="#63b8ff" stroke="#63b8ff" points="242.26,-157.39 233.74,-151.09 236.46,-161.33 242.26,-157.39"/>
</a>
</g>
</g>
<!-- Node8 -->
<g id="Node000008" class="node">
<title>Node8</title>
<g id="a_Node000008"><a xlink:title=" ">
<polygon fill="#e0e0e0" stroke="#999999" points="323.41,-151 278.41,-151 278.41,-132 323.41,-132 323.41,-151"/>
<text text-anchor="middle" x="300.91" y="-139" font-family="Helvetica,sans-Serif" font-size="10.00">utility</text>
</a>
</g>
</g>
<!-- Node1&#45;&gt;Node8 -->
<g id="edge8_Node000001_Node000008" class="edge">
<title>Node1&#45;&gt;Node8</title>
<g id="a_edge8_Node000001_Node000008"><a xlink:title=" ">
<path fill="none" stroke="#63b8ff" d="M270.02,-186.75C275.19,-179.34 282.75,-168.5 289.1,-159.41"/>
<polygon fill="#63b8ff" stroke="#63b8ff" points="292.06,-161.29 294.91,-151.09 286.32,-157.29 292.06,-161.29"/>
</a>
</g>
</g>
<!-- Node9 -->
<g id="Node000009" class="node">
<title>Node9</title>
<g id="a_Node000009"><a xlink:href="PresetManager_8h.html" target="_top" xlink:title=" ">
<polygon fill="white" stroke="#666666" points="478.41,-151 341.41,-151 341.41,-132 478.41,-132 478.41,-151"/>
<text text-anchor="middle" x="409.91" y="-139" font-family="Helvetica,sans-Serif" font-size="10.00">Service/PresetManager.h</text>
</a>
</g>
</g>
<!-- Node1&#45;&gt;Node9 -->
<g id="edge9_Node000001_Node000009" class="edge">
<title>Node1&#45;&gt;Node9</title>
<g id="a_edge9_Node000001_Node000009"><a xlink:title=" ">
<path fill="none" stroke="#63b8ff" d="M287.36,-186.98C311.49,-178.23 349.27,-164.51 376.51,-154.62"/>
<polygon fill="#63b8ff" stroke="#63b8ff" points="377.82,-157.87 386.02,-151.17 375.43,-151.29 377.82,-157.87"/>
</a>
</g>
</g>
<!-- Node3 -->
<g id="Node000003" class="node">
<title>Node3</title>
<g id="a_Node000003"><a xlink:title=" ">
<polygon fill="#e0e0e0" stroke="#999999" points="324.91,-30 208.91,-30 208.91,0 324.91,0 324.91,-30"/>
<text text-anchor="start" x="216.91" y="-18" font-family="Helvetica,sans-Serif" font-size="10.00">juce_gui_basics/juce</text>
<text text-anchor="middle" x="266.91" y="-7" font-family="Helvetica,sans-Serif" font-size="10.00">_gui_basics.h</text>
</a>
</g>
</g>
<!-- Node2&#45;&gt;Node3 -->
<g id="edge2_Node000002_Node000003" class="edge">
<title>Node2&#45;&gt;Node3</title>
<g id="a_edge2_Node000002_Node000003"><a xlink:title=" ">
<path fill="none" stroke="#63b8ff" d="M57.76,-131.9C38.75,-125.41 17.26,-114.37 5.91,-96 -1.1,-84.66 -2.59,-76.28 5.91,-66 29.88,-37 129.28,-24.65 198.24,-19.52"/>
<polygon fill="#63b8ff" stroke="#63b8ff" points="198.88,-22.98 208.61,-18.78 198.39,-16 198.88,-22.98"/>
</a>
</g>
</g>
<!-- Node4 -->
<g id="Node000004" class="node">
<title>Node4</title>
<g id="a_Node000004"><a xlink:title=" ">
<polygon fill="#e0e0e0" stroke="#999999" points="80.41,-90.5 15.41,-90.5 15.41,-71.5 80.41,-71.5 80.41,-90.5"/>
<text text-anchor="middle" x="47.91" y="-78.5" font-family="Helvetica,sans-Serif" font-size="10.00">functional</text>
</a>
</g>
</g>
<!-- Node2&#45;&gt;Node4 -->
<g id="edge3_Node000002_Node000004" class="edge">
<title>Node2&#45;&gt;Node4</title>
<g id="a_edge3_Node000002_Node000004"><a xlink:title=" ">
<path fill="none" stroke="#63b8ff" d="M87.97,-131.87C80.96,-123.14 69.95,-109.43 61.24,-98.59"/>
<polygon fill="#63b8ff" stroke="#63b8ff" points="63.86,-96.27 54.87,-90.67 58.41,-100.66 63.86,-96.27"/>
</a>
</g>
</g>
<!-- Node5 -->
<g id="Node000005" class="node">
<title>Node5</title>
<g id="a_Node000005"><a xlink:title=" ">
<polygon fill="#e0e0e0" stroke="#999999" points="184.91,-90.5 98.91,-90.5 98.91,-71.5 184.91,-71.5 184.91,-90.5"/>
<text text-anchor="middle" x="141.91" y="-78.5" font-family="Helvetica,sans-Serif" font-size="10.00">unordered_set</text>
</a>
</g>
</g>
<!-- Node2&#45;&gt;Node5 -->
<g id="edge4_Node000002_Node000005" class="edge">
<title>Node2&#45;&gt;Node5</title>
<g id="a_edge4_Node000002_Node000005"><a xlink:title=" ">
<path fill="none" stroke="#63b8ff" d="M101.84,-131.87C108.85,-123.14 119.87,-109.43 128.58,-98.59"/>
<polygon fill="#63b8ff" stroke="#63b8ff" points="131.41,-100.66 134.94,-90.67 125.95,-96.27 131.41,-100.66"/>
</a>
</g>
</g>
<!-- Node6 -->
<g id="Node000006" class="node">
<title>Node6</title>
<g id="a_Node000006"><a xlink:href="DirektColours_8h.html" target="_top" xlink:title=" ">
<polygon fill="white" stroke="#666666" points="330.41,-90.5 203.41,-90.5 203.41,-71.5 330.41,-71.5 330.41,-90.5"/>
<text text-anchor="middle" x="266.91" y="-78.5" font-family="Helvetica,sans-Serif" font-size="10.00">theme/DirektColours.h</text>
</a>
</g>
</g>
<!-- Node2&#45;&gt;Node6 -->
<g id="edge5_Node000002_Node000006" class="edge">
<title>Node2&#45;&gt;Node6</title>
<g id="a_edge5_Node000002_Node000006"><a xlink:title=" ">
<path fill="none" stroke="#63b8ff" d="M119.92,-131.99C149.47,-121.94 198.82,-105.16 232.1,-93.84"/>
<polygon fill="#63b8ff" stroke="#63b8ff" points="233.53,-97.05 241.87,-90.52 231.27,-90.42 233.53,-97.05"/>
</a>
</g>
</g>
<!-- Node6&#45;&gt;Node3 -->
<g id="edge6_Node000006_Node000003" class="edge">
<title>Node6&#45;&gt;Node3</title>
<g id="a_edge6_Node000006_Node000003"><a xlink:title=" ">
<path fill="none" stroke="#63b8ff" d="M266.91,-71.37C266.91,-63.49 266.91,-51.45 266.91,-40.6"/>
<polygon fill="#63b8ff" stroke="#63b8ff" points="270.41,-40.36 266.91,-30.36 263.41,-40.36 270.41,-40.36"/>
</a>
</g>
</g>
<!-- Node9&#45;&gt;Node3 -->
<g id="edge11_Node000009_Node000003" class="edge">
<title>Node9&#45;&gt;Node3</title>
<g id="a_edge11_Node000009_Node000003"><a xlink:title=" ">
<path fill="none" stroke="#63b8ff" d="M402.55,-131.68C390.19,-117.15 364.15,-87.62 338.91,-66 326.32,-55.22 311.42,-44.57 298.45,-35.88"/>
<polygon fill="#63b8ff" stroke="#63b8ff" points="300.1,-32.78 289.82,-30.21 296.25,-38.63 300.1,-32.78"/>
</a>
</g>
</g>
<!-- Node10 -->
<g id="Node000010" class="node">
<title>Node10</title>
<g id="a_Node000010"><a xlink:title=" ">
<polygon fill="#e0e0e0" stroke="#999999" points="526.41,-96 387.41,-96 387.41,-66 526.41,-66 526.41,-96"/>
<text text-anchor="start" x="395.41" y="-84" font-family="Helvetica,sans-Serif" font-size="10.00">juce_audio_processors</text>
<text text-anchor="middle" x="456.91" y="-73" font-family="Helvetica,sans-Serif" font-size="10.00">/juce_audio_processors.h</text>
</a>
</g>
</g>
<!-- Node9&#45;&gt;Node10 -->
<g id="edge10_Node000009_Node000010" class="edge">
<title>Node9&#45;&gt;Node10</title>
<g id="a_edge10_Node000009_Node000010"><a xlink:title=" ">
<path fill="none" stroke="#63b8ff" d="M416.84,-131.87C422.69,-124.59 431.32,-113.85 439.07,-104.2"/>
<polygon fill="#63b8ff" stroke="#63b8ff" points="442.03,-106.1 445.57,-96.11 436.58,-101.72 442.03,-106.1"/>
</a>
</g>
</g>
</g>
</svg>
