<?xml version="1.0" encoding="UTF-8" standalone="no"?>
<!DOCTYPE svg PUBLIC "-//W3C//DTD SVG 1.1//EN"
 "http://www.w3.org/Graphics/SVG/1.1/DTD/svg11.dtd">
<!-- Generated by graphviz version 2.43.0 (0)
 -->
<!-- Title: chrome/DirektFooter.h Pages: 1 -->
<svg width="313pt" height="137pt"
 viewBox="0.00 0.00 312.71 137.00" xmlns="http://www.w3.org/2000/svg" xmlns:xlink="http://www.w3.org/1999/xlink">

<svg id="main" version="1.1" xmlns="http://www.w3.org/2000/svg" xmlns:xlink="http://www.w3.org/1999/xlink" xml:space="preserve" onload="init(evt)">
<style type="text/css"><![CDATA[
.node, .edge {opacity: 0.7;}
.node.selected, .edge.selected {opacity: 1;}
.edge:hover path { stroke: red; }
.edge:hover polygon { stroke: red; fill: red; }
]]></style>
<script type="application/ecmascript" xlink:href="svg.min.js"/>
<svg id="graph" class="graph">
<g id="graph0" class="graph" transform="scale(1 1) rotate(0) translate(4 133)">
<title>chrome/DirektFooter.h</title>
<!-- Node1 -->
<g id="Node000001" class="node">
<title>Node1</title>
<g id="a_Node000001"><a xlink:title=" ">
<polygon fill="#999999" stroke="#666666" points="143.71,-129 18.71,-129 18.71,-110 143.71,-110 143.71,-129"/>
<text text-anchor="middle" x="81.21" y="-117" font-family="Helvetica,sans-Serif" font-size="10.00">chrome/DirektFooter.h</text>
</a>
</g>
</g>
<!-- Node2 -->
<g id="Node000002" class="node">
<title>Node2</title>
<g id="a_Node000002"><a xlink:href="DirektDSP_8h.html" target="_top" xlink:title=" ">
<polygon fill="white" stroke="#666666" points="82.21,-19 8.21,-19 8.21,0 82.21,0 82.21,-19"/>
<text text-anchor="middle" x="45.21" y="-7" font-family="Helvetica,sans-Serif" font-size="10.00">DirektDSP.h</text>
</a>
</g>
</g>
<!-- Node1&#45;&gt;Node2 -->
<g id="edge1_Node000001_Node000002" class="edge">
<title>Node1&#45;&gt;Node2</title>
<g id="a_edge1_Node000001_Node000002"><a xlink:title=" ">
<path fill="none" stroke="#63b8ff" d="M42.08,-105.89C27.18,-98.96 11.75,-88.71 3.21,-74 -8.54,-53.77 16.04,-31.16 32.32,-19.13"/>
<polygon fill="#63b8ff" stroke="#63b8ff" points="41.13,-109.29 51.71,-109.97 43.87,-102.85 41.13,-109.29"/>
</a>
</g>
</g>
<!-- Node3 -->
<g id="Node000003" class="node">
<title>Node3</title>
<g id="a_Node000003"><a xlink:href="DirektFooter_8cpp.html" target="_top" xlink:title=" ">
<polygon fill="white" stroke="#666666" points="149.71,-74 12.71,-74 12.71,-55 149.71,-55 149.71,-74"/>
<text text-anchor="middle" x="81.21" y="-62" font-family="Helvetica,sans-Serif" font-size="10.00">chrome/DirektFooter.cpp</text>
</a>
</g>
</g>
<!-- Node1&#45;&gt;Node3 -->
<g id="edge2_Node000001_Node000003" class="edge">
<title>Node1&#45;&gt;Node3</title>
<g id="a_edge2_Node000001_Node000003"><a xlink:title=" ">
<path fill="none" stroke="#63b8ff" d="M81.21,-99.66C81.21,-90.93 81.21,-80.99 81.21,-74.09"/>
<polygon fill="#63b8ff" stroke="#63b8ff" points="77.71,-99.75 81.21,-109.75 84.71,-99.75 77.71,-99.75"/>
</a>
</g>
</g>
<!-- Node4 -->
<g id="Node000004" class="node">
<title>Node4</title>
<g id="a_Node000004"><a xlink:href="DirektBaseEditor_8h.html" target="_top" xlink:title=" ">
<polygon fill="white" stroke="#666666" points="298.71,-74 167.71,-74 167.71,-55 298.71,-55 298.71,-74"/>
<text text-anchor="middle" x="233.21" y="-62" font-family="Helvetica,sans-Serif" font-size="10.00">core/DirektBaseEditor.h</text>
</a>
</g>
</g>
<!-- Node1&#45;&gt;Node4 -->
<g id="edge3_Node000001_Node000004" class="edge">
<title>Node1&#45;&gt;Node4</title>
<g id="a_edge3_Node000001_Node000004"><a xlink:title=" ">
<path fill="none" stroke="#63b8ff" d="M115.14,-106.67C143.48,-96.79 183.23,-82.93 208.6,-74.08"/>
<polygon fill="#63b8ff" stroke="#63b8ff" points="113.92,-103.39 105.63,-109.98 116.23,-110 113.92,-103.39"/>
</a>
</g>
</g>
<!-- Node4&#45;&gt;Node2 -->
<g id="edge4_Node000004_Node000002" class="edge">
<title>Node4&#45;&gt;Node2</title>
<g id="a_edge4_Node000004_Node000002"><a xlink:title=" ">
<path fill="none" stroke="#63b8ff" d="M193.07,-52.18C157.91,-42.27 107.58,-28.08 75.65,-19.08"/>
<polygon fill="#63b8ff" stroke="#63b8ff" points="192.43,-55.64 203.01,-54.98 194.33,-48.9 192.43,-55.64"/>
</a>
</g>
</g>
<!-- Node5 -->
<g id="Node000005" class="node">
<title>Node5</title>
<g id="a_Node000005"><a xlink:href="DirektBaseEditor_8cpp.html" target="_top" xlink:title=" ">
<polygon fill="white" stroke="#666666" points="304.71,-19 161.71,-19 161.71,0 304.71,0 304.71,-19"/>
<text text-anchor="middle" x="233.21" y="-7" font-family="Helvetica,sans-Serif" font-size="10.00">core/DirektBaseEditor.cpp</text>
</a>
</g>
</g>
<!-- Node4&#45;&gt;Node5 -->
<g id="edge5_Node000004_Node000005" class="edge">
<title>Node4&#45;&gt;Node5</title>
<g id="a_edge5_Node000004_Node000005"><a xlink:title=" ">
<path fill="none" stroke="#63b8ff" d="M233.21,-44.66C233.21,-35.93 233.21,-25.99 233.21,-19.09"/>
<polygon fill="#63b8ff" stroke="#63b8ff" points="229.71,-44.75 233.21,-54.75 236.71,-44.75 229.71,-44.75"/>
</a>
</g>
</g>
</g>
</svg>
</svg>

<style type='text/css'>
<![CDATA[
[data-mouse-over-selected='false'] { opacity: 0.7; }
[data-mouse-over-selected='true']  { opacity: 1.0; }
]]>
</style>
<script type="application/ecmascript"><![CDATA[
document.addEventListener('DOMContentLoaded', (event) => {
  highlightEdges();
  highlightAdjacentNodes();
});
]]></script>
</svg>
