<?xml version="1.0" encoding="UTF-8" standalone="no"?>
<!DOCTYPE svg PUBLIC "-//W3C//DTD SVG 1.1//EN"
 "http://www.w3.org/Graphics/SVG/1.1/DTD/svg11.dtd">
<!-- Generated by graphviz version 2.43.0 (0)
 -->
<!-- Title: layout/DirektSection.h Pages: 1 -->
<!--zoomable 192 -->

<svg id="main" version="1.1" xmlns="http://www.w3.org/2000/svg" xmlns:xlink="http://www.w3.org/1999/xlink" xml:space="preserve" onload="init(evt)">
<style type="text/css"><![CDATA[
.node, .edge {opacity: 0.7;}
.node.selected, .edge.selected {opacity: 1;}
.edge:hover path { stroke: red; }
.edge:hover polygon { stroke: red; fill: red; }
]]></style>

<defs>
  <circle id="rim" cx="0" cy="0" r="7"/>
  <circle id="rim2" cx="0" cy="0" r="3.5"/>
  <g id="zoomPlus">
    <use xlink:href="#rim" fill="#404040"><set attributeName="fill" to="#808080" begin="zoomplus.mouseover" end="zoomplus.mouseout"/></use>
    <path d="M-4,0h8M0,-4v8" fill="none" stroke="white" stroke-width="1.5" pointer-events="none"/>
  </g>
  <g id="zoomMin">
    <use xlink:href="#rim" fill="#404040"><set attributeName="fill" to="#808080" begin="zoomminus.mouseover" end="zoomminus.mouseout"/></use>
    <path d="M-4,0h8" fill="none" stroke="white" stroke-width="1.5" pointer-events="none"/>
  </g>
  <g id="arrowUp" transform="translate(30 24)">
    <use xlink:href="#rim"/>
    <path pointer-events="none" fill="none" stroke="white" stroke-width="1.5" d="M0,-3.0v7 M-2.5,-0.5L0,-3.0L2.5,-0.5"/>
  </g>
  <g id="arrowRight" transform="rotate(90) translate(36 -43)">
    <use xlink:href="#rim"/>
    <path pointer-events="none" fill="none" stroke="white" stroke-width="1.5" d="M0,-3.0v7 M-2.5,-0.5L0,-3.0L2.5,-0.5"/>
  </g>
  <g id="arrowDown" transform="rotate(180) translate(-30 -48)">
    <use xlink:href="#rim"/>
    <path pointer-events="none" fill="none" stroke="white" stroke-width="1.5" d="M0,-3.0v7 M-2.5,-0.5L0,-3.0L2.5,-0.5"/>
  </g>
  <g id="arrowLeft" transform="rotate(270) translate(-36 17)">
    <use xlink:href="#rim"/>
    <path pointer-events="none" fill="none" stroke="white" stroke-width="1.5" d="M0,-3.0v7 M-2.5,-0.5L0,-3.0L2.5,-0.5"/>
  </g>
  <g id="resetDef">
    <use xlink:href="#rim2" fill="#404040"><set attributeName="fill" to="#808080" begin="reset.mouseover" end="reset.mouseout"/></use>
  </g>
</defs>
<script type="application/ecmascript">
var viewWidth = 798;
var viewHeight = 192;
var sectionId = 'dynsection-1';
</script>
<script type="application/ecmascript" xlink:href="svg.min.js"/>
<svg id="graph" class="graph">
<g id="viewport">
<title>layout/DirektSection.h</title>
<!-- Node1 -->
<g id="Node000001" class="node">
<title>Node1</title>
<g id="a_Node000001"><a xlink:title=" ">
<polygon fill="#999999" stroke="#666666" points="356.5,-184 231.5,-184 231.5,-165 356.5,-165 356.5,-184"/>
<text text-anchor="middle" x="294" y="-172" font-family="Helvetica,sans-Serif" font-size="10.00">layout/DirektSection.h</text>
</a>
</g>
</g>
<!-- Node2 -->
<g id="Node000002" class="node">
<title>Node2</title>
<g id="a_Node000002"><a xlink:href="DirektDSP_8h.html" target="_top" xlink:title=" ">
<polygon fill="white" stroke="#666666" points="74,-19 0,-19 0,0 74,0 74,-19"/>
<text text-anchor="middle" x="37" y="-7" font-family="Helvetica,sans-Serif" font-size="10.00">DirektDSP.h</text>
</a>
</g>
</g>
<!-- Node1&#45;&gt;Node2 -->
<g id="edge1_Node000001_Node000002" class="edge">
<title>Node1&#45;&gt;Node2</title>
<g id="a_edge1_Node000001_Node000002"><a xlink:title=" ">
<path fill="none" stroke="#63b8ff" d="M221.27,-167.54C162.09,-161.29 84.62,-149.45 61,-129 28.31,-100.7 32.69,-41.21 35.65,-19.06"/>
<polygon fill="#63b8ff" stroke="#63b8ff" points="221.05,-171.04 231.35,-168.57 221.76,-164.07 221.05,-171.04"/>
</a>
</g>
</g>
<!-- Node3 -->
<g id="Node000003" class="node">
<title>Node3</title>
<g id="a_Node000003"><a xlink:href="DirektAutoLayout_8h.html" target="_top" xlink:title=" ">
<polygon fill="white" stroke="#666666" points="205.5,-129 70.5,-129 70.5,-110 205.5,-110 205.5,-129"/>
<text text-anchor="middle" x="138" y="-117" font-family="Helvetica,sans-Serif" font-size="10.00">core/DirektAutoLayout.h</text>
</a>
</g>
</g>
<!-- Node1&#45;&gt;Node3 -->
<g id="edge2_Node000001_Node000003" class="edge">
<title>Node1&#45;&gt;Node3</title>
<g id="a_edge2_Node000001_Node000003"><a xlink:title=" ">
<path fill="none" stroke="#63b8ff" d="M259.18,-161.67C230.09,-151.79 189.3,-137.93 163.26,-129.08"/>
<polygon fill="#63b8ff" stroke="#63b8ff" points="258.34,-165.08 268.94,-164.98 260.59,-158.45 258.34,-165.08"/>
</a>
</g>
</g>
<!-- Node5 -->
<g id="Node000005" class="node">
<title>Node5</title>
<g id="a_Node000005"><a xlink:href="DirektBaseEditor_8h.html" target="_top" xlink:title=" ">
<polygon fill="white" stroke="#666666" points="360.5,-74 229.5,-74 229.5,-55 360.5,-55 360.5,-74"/>
<text text-anchor="middle" x="295" y="-62" font-family="Helvetica,sans-Serif" font-size="10.00">core/DirektBaseEditor.h</text>
</a>
</g>
</g>
<!-- Node1&#45;&gt;Node5 -->
<g id="edge8_Node000001_Node000005" class="edge">
<title>Node1&#45;&gt;Node5</title>
<g id="a_edge8_Node000001_Node000005"><a xlink:title=" ">
<path fill="none" stroke="#63b8ff" d="M273.96,-158.34C260.31,-146.03 245.91,-127.84 253,-110 258.96,-94.99 272.65,-82.12 282.79,-74.14"/>
<polygon fill="#63b8ff" stroke="#63b8ff" points="271.83,-161.12 281.74,-164.86 276.32,-155.75 271.83,-161.12"/>
</a>
</g>
</g>
<!-- Node7 -->
<g id="Node000007" class="node">
<title>Node7</title>
<g id="a_Node000007"><a xlink:href="DirektComponentRegistry_8cpp.html" target="_top" xlink:title=" ">
<polygon fill="white" stroke="#666666" points="448,-129 262,-129 262,-110 448,-110 448,-129"/>
<text text-anchor="middle" x="355" y="-117" font-family="Helvetica,sans-Serif" font-size="10.00">core/DirektComponentRegistry.cpp</text>
</a>
</g>
</g>
<!-- Node1&#45;&gt;Node7 -->
<g id="edge9_Node000001_Node000007" class="edge">
<title>Node1&#45;&gt;Node7</title>
<g id="a_edge9_Node000001_Node000007"><a xlink:title=" ">
<path fill="none" stroke="#63b8ff" d="M311.47,-158.32C322.34,-148.87 335.94,-137.06 345.02,-129.17"/>
<polygon fill="#63b8ff" stroke="#63b8ff" points="309.05,-155.78 303.8,-164.98 313.65,-161.07 309.05,-155.78"/>
</a>
</g>
</g>
<!-- Node8 -->
<g id="Node000008" class="node">
<title>Node8</title>
<g id="a_Node000008"><a xlink:href="DirektFlexContainer_8cpp.html" target="_top" xlink:title=" ">
<polygon fill="white" stroke="#666666" points="634,-129 466,-129 466,-110 634,-110 634,-129"/>
<text text-anchor="middle" x="550" y="-117" font-family="Helvetica,sans-Serif" font-size="10.00">layout/DirektFlexContainer.cpp</text>
</a>
</g>
</g>
<!-- Node1&#45;&gt;Node8 -->
<g id="edge10_Node000001_Node000008" class="edge">
<title>Node1&#45;&gt;Node8</title>
<g id="a_edge10_Node000001_Node000008"><a xlink:title=" ">
<path fill="none" stroke="#63b8ff" d="M345,-162.94C392.99,-153.01 463.95,-138.31 508.55,-129.08"/>
<polygon fill="#63b8ff" stroke="#63b8ff" points="344.21,-159.53 335.13,-164.98 345.63,-166.38 344.21,-159.53"/>
</a>
</g>
</g>
<!-- Node9 -->
<g id="Node000009" class="node">
<title>Node9</title>
<g id="a_Node000009"><a xlink:href="DirektSection_8cpp.html" target="_top" xlink:title=" ">
<polygon fill="white" stroke="#666666" points="789.5,-129 652.5,-129 652.5,-110 789.5,-110 789.5,-129"/>
<text text-anchor="middle" x="721" y="-117" font-family="Helvetica,sans-Serif" font-size="10.00">layout/DirektSection.cpp</text>
</a>
</g>
</g>
<!-- Node1&#45;&gt;Node9 -->
<g id="edge11_Node000001_Node000009" class="edge">
<title>Node1&#45;&gt;Node9</title>
<g id="a_edge11_Node000001_Node000009"><a xlink:title=" ">
<path fill="none" stroke="#63b8ff" d="M366.53,-164.5C446.42,-154.58 573.93,-138.75 652.27,-129.03"/>
<polygon fill="#63b8ff" stroke="#63b8ff" points="366.04,-161.03 356.55,-165.74 366.9,-167.98 366.04,-161.03"/>
</a>
</g>
</g>
<!-- Node3&#45;&gt;Node2 -->
<g id="edge3_Node000003_Node000002" class="edge">
<title>Node3&#45;&gt;Node2</title>
<g id="a_edge3_Node000003_Node000002"><a xlink:title=" ">
<path fill="none" stroke="#63b8ff" d="M101.16,-105.9C85.26,-98.78 67.67,-88.37 56,-74 42.8,-57.74 38.76,-32.51 37.54,-19.28"/>
<polygon fill="#63b8ff" stroke="#63b8ff" points="100.2,-109.29 110.78,-109.91 102.9,-102.83 100.2,-109.29"/>
</a>
</g>
</g>
<!-- Node4 -->
<g id="Node000004" class="node">
<title>Node4</title>
<g id="a_Node000004"><a xlink:href="DirektAutoLayout_8cpp.html" target="_top" xlink:title=" ">
<polygon fill="white" stroke="#666666" points="211,-74 65,-74 65,-55 211,-55 211,-74"/>
<text text-anchor="middle" x="138" y="-62" font-family="Helvetica,sans-Serif" font-size="10.00">core/DirektAutoLayout.cpp</text>
</a>
</g>
</g>
<!-- Node3&#45;&gt;Node4 -->
<g id="edge4_Node000003_Node000004" class="edge">
<title>Node3&#45;&gt;Node4</title>
<g id="a_edge4_Node000003_Node000004"><a xlink:title=" ">
<path fill="none" stroke="#63b8ff" d="M138,-99.66C138,-90.93 138,-80.99 138,-74.09"/>
<polygon fill="#63b8ff" stroke="#63b8ff" points="134.5,-99.75 138,-109.75 141.5,-99.75 134.5,-99.75"/>
</a>
</g>
</g>
<!-- Node3&#45;&gt;Node5 -->
<g id="edge5_Node000003_Node000005" class="edge">
<title>Node3&#45;&gt;Node5</title>
<g id="a_edge5_Node000003_Node000005"><a xlink:title=" ">
<path fill="none" stroke="#63b8ff" d="M173.05,-106.67C202.32,-96.79 243.37,-82.93 269.58,-74.08"/>
<polygon fill="#63b8ff" stroke="#63b8ff" points="171.58,-103.47 163.22,-109.98 173.82,-110.1 171.58,-103.47"/>
</a>
</g>
</g>
<!-- Node5&#45;&gt;Node2 -->
<g id="edge6_Node000005_Node000002" class="edge">
<title>Node5&#45;&gt;Node2</title>
<g id="a_edge6_Node000005_Node000002"><a xlink:title=" ">
<path fill="none" stroke="#63b8ff" d="M243.57,-52.94C193.52,-42.65 118.69,-27.28 74.16,-18.13"/>
<polygon fill="#63b8ff" stroke="#63b8ff" points="243.05,-56.4 253.55,-54.98 244.46,-49.54 243.05,-56.4"/>
</a>
</g>
</g>
<!-- Node6 -->
<g id="Node000006" class="node">
<title>Node6</title>
<g id="a_Node000006"><a xlink:href="DirektBaseEditor_8cpp.html" target="_top" xlink:title=" ">
<polygon fill="white" stroke="#666666" points="366.5,-19 223.5,-19 223.5,0 366.5,0 366.5,-19"/>
<text text-anchor="middle" x="295" y="-7" font-family="Helvetica,sans-Serif" font-size="10.00">core/DirektBaseEditor.cpp</text>
</a>
</g>
</g>
<!-- Node5&#45;&gt;Node6 -->
<g id="edge7_Node000005_Node000006" class="edge">
<title>Node5&#45;&gt;Node6</title>
<g id="a_edge7_Node000005_Node000006"><a xlink:title=" ">
<path fill="none" stroke="#63b8ff" d="M295,-44.66C295,-35.93 295,-25.99 295,-19.09"/>
<polygon fill="#63b8ff" stroke="#63b8ff" points="291.5,-44.75 295,-54.75 298.5,-44.75 291.5,-44.75"/>
</a>
</g>
</g>
</g>
</svg>

<g id="navigator" transform="translate(0 0)" fill="#404254">
  <rect fill="#f2f5e9" fill-opacity="0.5" stroke="#606060" stroke-width=".5" x="0" y="0" width="60" height="60"/>
  <use id="zoomplus" xlink:href="#zoomPlus" x="17" y="9" onmousedown="handleZoom(evt,'in')"/>
  <use id="zoomminus" xlink:href="#zoomMin" x="42" y="9" onmousedown="handleZoom(evt,'out')"/>
  <use id="reset" xlink:href="#resetDef" x="30" y="36" onmousedown="handleReset()"/>
   <use id="arrowup" xlink:href="#arrowUp" x="0" y="0" onmousedown="handlePan(0,-1)"/>
  <use id="arrowright" xlink:href="#arrowRight" x="0" y="0" onmousedown="handlePan(1,0)"/>
  <use id="arrowdown" xlink:href="#arrowDown" x="0" y="0" onmousedown="handlePan(0,1)"/>
  <use id="arrowleft" xlink:href="#arrowLeft" x="0" y="0" onmousedown="handlePan(-1,0)"/>
</g>
<svg viewBox="0 0 15 15" width="100%" height="30px" preserveAspectRatio="xMaxYMin meet">
 <g id="arrow_out" transform="scale(0.3 0.3)">
  <a xlink:href="DirektSection_8h__dep__incl_org.svg" target="_base">
   <rect id="button" ry="5" rx="5" y="6" x="6" height="38" width="38"
        fill="#f2f5e9" fill-opacity="0.5" stroke="#606060" stroke-width="1.0"/>
   <path id="arrow"
     d="M 11.500037,31.436501 C 11.940474,20.09759 22.043105,11.32322 32.158766,21.979434 L 37.068811,17.246167 C 37.068811,17.246167 37.088388,32 37.088388,32 L 22.160133,31.978069 C 22.160133,31.978069 26.997745,27.140456 26.997745,27.140456 C 18.528582,18.264221 13.291696,25.230495 11.500037,31.436501 z"
     style="fill:#404040;"/>
  </a>
 </g>
</svg>

<style type='text/css'>
<![CDATA[
[data-mouse-over-selected='false'] { opacity: 0.7; }
[data-mouse-over-selected='true']  { opacity: 1.0; }
]]>
</style>
<script type="application/ecmascript"><![CDATA[
document.addEventListener('DOMContentLoaded', (event) => {
  highlightEdges();
  highlightAdjacentNodes();
});
]]></script>
</svg>
