<?xml version="1.0" encoding="UTF-8" standalone="no"?>
<!DOCTYPE svg PUBLIC "-//W3C//DTD SVG 1.1//EN"
 "http://www.w3.org/Graphics/SVG/1.1/DTD/svg11.dtd">
<!-- Generated by graphviz version 2.43.0 (0)
 -->
<!-- Title: core/DirektComponentRegistry.cpp Pages: 1 -->
<svg width="2651pt" height="280pt"
 viewBox="0.00 0.00 2650.50 280.00" xmlns="http://www.w3.org/2000/svg" xmlns:xlink="http://www.w3.org/1999/xlink">
<g id="graph0" class="graph" transform="scale(1 1) rotate(0) translate(4 276)">
<title>core/DirektComponentRegistry.cpp</title>
<!-- Node1 -->
<g id="Node000001" class="node">
<title>Node1</title>
<g id="a_Node000001"><a xlink:title=" ">
<polygon fill="#999999" stroke="#666666" points="1675.5,-272 1489.5,-272 1489.5,-253 1675.5,-253 1675.5,-272"/>
<text text-anchor="middle" x="1582.5" y="-260" font-family="Helvetica,sans-Serif" font-size="10.00">core/DirektComponentRegistry.cpp</text>
</a>
</g>
</g>
<!-- Node2 -->
<g id="Node000002" class="node">
<title>Node2</title>
<g id="a_Node000002"><a xlink:href="DirektComponentRegistry_8h.html" target="_top" xlink:title=" ">
<polygon fill="white" stroke="#666666" points="1338,-211.5 1163,-211.5 1163,-192.5 1338,-192.5 1338,-211.5"/>
<text text-anchor="middle" x="1250.5" y="-199.5" font-family="Helvetica,sans-Serif" font-size="10.00">core/DirektComponentRegistry.h</text>
</a>
</g>
</g>
<!-- Node1&#45;&gt;Node2 -->
<g id="edge1_Node000001_Node000002" class="edge">
<title>Node1&#45;&gt;Node2</title>
<g id="a_edge1_Node000001_Node000002"><a xlink:title=" ">
<path fill="none" stroke="#63b8ff" d="M1534.22,-252.99C1474.48,-242.47 1372.81,-224.55 1308.78,-213.27"/>
<polygon fill="#63b8ff" stroke="#63b8ff" points="1309.29,-209.81 1298.83,-211.52 1308.07,-216.7 1309.29,-209.81"/>
</a>
</g>
</g>
<!-- Node13 -->
<g id="Node000013" class="node">
<title>Node13</title>
<g id="a_Node000013"><a xlink:href="DirektABCompare_8h.html" target="_top" xlink:title=" ">
<polygon fill="white" stroke="#666666" points="324,-151 169,-151 169,-132 324,-132 324,-151"/>
<text text-anchor="middle" x="246.5" y="-139" font-family="Helvetica,sans-Serif" font-size="10.00">controls/DirektABCompare.h</text>
</a>
</g>
</g>
<!-- Node1&#45;&gt;Node13 -->
<g id="edge18_Node000001_Node000013" class="edge">
<title>Node1&#45;&gt;Node13</title>
<g id="a_edge18_Node000001_Node000013"><a xlink:title=" ">
<path fill="none" stroke="#63b8ff" d="M1489.25,-260.76C1261.44,-258.45 681.29,-249.46 490.5,-217 411.79,-203.61 322.94,-172.13 277.26,-154.68"/>
<polygon fill="#63b8ff" stroke="#63b8ff" points="278.51,-151.42 267.92,-151.08 275.99,-157.95 278.51,-151.42"/>
</a>
</g>
</g>
<!-- Node15 -->
<g id="Node000015" class="node">
<title>Node15</title>
<g id="a_Node000015"><a xlink:href="DirektComboBox_8h.html" target="_top" xlink:title=" ">
<polygon fill="white" stroke="#666666" points="151,-151 0,-151 0,-132 151,-132 151,-151"/>
<text text-anchor="middle" x="75.5" y="-139" font-family="Helvetica,sans-Serif" font-size="10.00">controls/DirektComboBox.h</text>
</a>
</g>
</g>
<!-- Node1&#45;&gt;Node15 -->
<g id="edge22_Node000001_Node000015" class="edge">
<title>Node1&#45;&gt;Node15</title>
<g id="a_edge22_Node000001_Node000015"><a xlink:title=" ">
<path fill="none" stroke="#63b8ff" d="M1489.19,-260.6C1244.21,-257.84 586.81,-247.7 371.5,-217 275.94,-203.37 166.5,-171.42 111.32,-154.12"/>
<polygon fill="#63b8ff" stroke="#63b8ff" points="112.25,-150.74 101.66,-151.06 110.14,-157.42 112.25,-150.74"/>
</a>
</g>
</g>
<!-- Node16 -->
<g id="Node000016" class="node">
<title>Node16</title>
<g id="a_Node000016"><a xlink:href="DirektKnob_8h.html" target="_top" xlink:title=" ">
<polygon fill="white" stroke="#666666" points="464.5,-151 342.5,-151 342.5,-132 464.5,-132 464.5,-151"/>
<text text-anchor="middle" x="403.5" y="-139" font-family="Helvetica,sans-Serif" font-size="10.00">controls/DirektKnob.h</text>
</a>
</g>
</g>
<!-- Node1&#45;&gt;Node16 -->
<g id="edge25_Node000001_Node000016" class="edge">
<title>Node1&#45;&gt;Node16</title>
<g id="a_edge25_Node000001_Node000016"><a xlink:title=" ">
<path fill="none" stroke="#63b8ff" d="M1489.37,-261.63C1274.48,-261.25 749.26,-256.2 577.5,-217 521.22,-204.16 460.25,-173.86 427.53,-156.11"/>
<polygon fill="#63b8ff" stroke="#63b8ff" points="429.14,-153.01 418.69,-151.25 425.77,-159.14 429.14,-153.01"/>
</a>
</g>
</g>
<!-- Node18 -->
<g id="Node000018" class="node">
<title>Node18</title>
<g id="a_Node000018"><a xlink:href="DirektMacroControl_8h.html" target="_top" xlink:title=" ">
<polygon fill="white" stroke="#666666" points="908,-151 745,-151 745,-132 908,-132 908,-151"/>
<text text-anchor="middle" x="826.5" y="-139" font-family="Helvetica,sans-Serif" font-size="10.00">controls/DirektMacroControl.h</text>
</a>
</g>
</g>
<!-- Node1&#45;&gt;Node18 -->
<g id="edge29_Node000001_Node000018" class="edge">
<title>Node1&#45;&gt;Node18</title>
<g id="a_edge29_Node000001_Node000018"><a xlink:title=" ">
<path fill="none" stroke="#63b8ff" d="M1489.4,-255.05C1402.41,-248.26 1269.12,-235.91 1154.5,-217 1050.53,-199.85 930.16,-169.86 868.17,-153.65"/>
<polygon fill="#63b8ff" stroke="#63b8ff" points="868.93,-150.24 858.37,-151.08 867.16,-157.01 868.93,-150.24"/>
</a>
</g>
</g>
<!-- Node19 -->
<g id="Node000019" class="node">
<title>Node19</title>
<g id="a_Node000019"><a xlink:href="DirektToggle_8h.html" target="_top" xlink:title=" ">
<polygon fill="white" stroke="#666666" points="612,-151 483,-151 483,-132 612,-132 612,-151"/>
<text text-anchor="middle" x="547.5" y="-139" font-family="Helvetica,sans-Serif" font-size="10.00">controls/DirektToggle.h</text>
</a>
</g>
</g>
<!-- Node1&#45;&gt;Node19 -->
<g id="edge33_Node000001_Node000019" class="edge">
<title>Node1&#45;&gt;Node19</title>
<g id="a_edge33_Node000001_Node000019"><a xlink:title=" ">
<path fill="none" stroke="#63b8ff" d="M1489.37,-261.13C1262.93,-259.67 696.29,-252.47 618.5,-217 591.92,-204.88 570.33,-177.85 558.2,-159.9"/>
<polygon fill="#63b8ff" stroke="#63b8ff" points="561.11,-157.96 552.74,-151.47 555.24,-161.77 561.11,-157.96"/>
</a>
</g>
</g>
<!-- Node20 -->
<g id="Node000020" class="node">
<title>Node20</title>
<g id="a_Node000020"><a xlink:href="DirektClipIndicator_8h.html" target="_top" xlink:title=" ">
<polygon fill="white" stroke="#666666" points="2354,-151 2199,-151 2199,-132 2354,-132 2354,-151"/>
<text text-anchor="middle" x="2276.5" y="-139" font-family="Helvetica,sans-Serif" font-size="10.00">display/DirektClipIndicator.h</text>
</a>
</g>
</g>
<!-- Node1&#45;&gt;Node20 -->
<g id="edge36_Node000001_Node000020" class="edge">
<title>Node1&#45;&gt;Node20</title>
<g id="a_edge36_Node000001_Node000020"><a xlink:title=" ">
<path fill="none" stroke="#63b8ff" d="M1675.52,-261.36C1820.87,-260.03 2094.5,-252.66 2184.5,-217 2216.03,-204.51 2245.13,-177.17 2261.84,-159.31"/>
<polygon fill="#63b8ff" stroke="#63b8ff" points="2264.88,-161.17 2269,-151.42 2259.69,-156.47 2264.88,-161.17"/>
</a>
</g>
</g>
<!-- Node21 -->
<g id="Node000021" class="node">
<title>Node21</title>
<g id="a_Node000021"><a xlink:href="DirektColours_8h.html" target="_top" xlink:title=" ">
<polygon fill="white" stroke="#666666" points="2130,-90.5 2003,-90.5 2003,-71.5 2130,-71.5 2130,-90.5"/>
<text text-anchor="middle" x="2066.5" y="-78.5" font-family="Helvetica,sans-Serif" font-size="10.00">theme/DirektColours.h</text>
</a>
</g>
</g>
<!-- Node1&#45;&gt;Node21 -->
<g id="edge72_Node000001_Node000021" class="edge">
<title>Node1&#45;&gt;Node21</title>
<g id="a_edge72_Node000001_Node000021"><a xlink:title=" ">
<path fill="none" stroke="#63b8ff" d="M1675.65,-257.88C1822.04,-249.94 2095.12,-225.31 2151.5,-151 2169.54,-127.23 2133.48,-106.66 2102.89,-94.31"/>
<polygon fill="#63b8ff" stroke="#63b8ff" points="2103.82,-90.92 2093.23,-90.59 2101.31,-97.45 2103.82,-90.92"/>
</a>
</g>
</g>
<!-- Node22 -->
<g id="Node000022" class="node">
<title>Node22</title>
<g id="a_Node000022"><a xlink:href="DirektLabel_8h.html" target="_top" xlink:title=" ">
<polygon fill="white" stroke="#666666" points="2642.5,-151 2522.5,-151 2522.5,-132 2642.5,-132 2642.5,-151"/>
<text text-anchor="middle" x="2582.5" y="-139" font-family="Helvetica,sans-Serif" font-size="10.00">display/DirektLabel.h</text>
</a>
</g>
</g>
<!-- Node1&#45;&gt;Node22 -->
<g id="edge41_Node000001_Node000022" class="edge">
<title>Node1&#45;&gt;Node22</title>
<g id="a_edge41_Node000001_Node000022"><a xlink:title=" ">
<path fill="none" stroke="#63b8ff" d="M1675.62,-261.03C1810.94,-259.13 2069.45,-250.88 2286.5,-217 2381.38,-202.19 2490.26,-171.01 2545.77,-154.07"/>
<polygon fill="#63b8ff" stroke="#63b8ff" points="2546.97,-157.36 2555.5,-151.07 2544.92,-150.67 2546.97,-157.36"/>
</a>
</g>
</g>
<!-- Node23 -->
<g id="Node000023" class="node">
<title>Node23</title>
<g id="a_Node000023"><a xlink:href="DirektMeter_8h.html" target="_top" xlink:title=" ">
<polygon fill="white" stroke="#666666" points="1714.5,-151 1592.5,-151 1592.5,-132 1714.5,-132 1714.5,-151"/>
<text text-anchor="middle" x="1653.5" y="-139" font-family="Helvetica,sans-Serif" font-size="10.00">display/DirektMeter.h</text>
</a>
</g>
</g>
<!-- Node1&#45;&gt;Node23 -->
<g id="edge44_Node000001_Node000023" class="edge">
<title>Node1&#45;&gt;Node23</title>
<g id="a_edge44_Node000001_Node000023"><a xlink:title=" ">
<path fill="none" stroke="#63b8ff" d="M1589.52,-252.94C1596.53,-244.19 1607.39,-230.08 1615.5,-217 1627.06,-198.35 1638.21,-175.76 1645.41,-160.38"/>
<polygon fill="#63b8ff" stroke="#63b8ff" points="1648.72,-161.56 1649.72,-151.02 1642.36,-158.64 1648.72,-161.56"/>
</a>
</g>
</g>
<!-- Node24 -->
<g id="Node000024" class="node">
<title>Node24</title>
<g id="a_Node000024"><a xlink:href="DirektStereoMeter_8h.html" target="_top" xlink:title=" ">
<polygon fill="white" stroke="#666666" points="1819,-211.5 1666,-211.5 1666,-192.5 1819,-192.5 1819,-211.5"/>
<text text-anchor="middle" x="1742.5" y="-199.5" font-family="Helvetica,sans-Serif" font-size="10.00">display/DirektStereoMeter.h</text>
</a>
</g>
</g>
<!-- Node1&#45;&gt;Node24 -->
<g id="edge48_Node000001_Node000024" class="edge">
<title>Node1&#45;&gt;Node24</title>
<g id="a_edge48_Node000001_Node000024"><a xlink:title=" ">
<path fill="none" stroke="#63b8ff" d="M1605.77,-252.99C1633.14,-242.99 1678.77,-226.3 1709.72,-214.99"/>
<polygon fill="#63b8ff" stroke="#63b8ff" points="1711.02,-218.24 1719.21,-211.52 1708.61,-211.66 1711.02,-218.24"/>
</a>
</g>
</g>
<!-- Node25 -->
<g id="Node000025" class="node">
<title>Node25</title>
<g id="a_Node000025"><a xlink:href="DirektFlexContainer_8h.html" target="_top" xlink:title=" ">
<polygon fill="white" stroke="#666666" points="1606,-211.5 1449,-211.5 1449,-192.5 1606,-192.5 1606,-211.5"/>
<text text-anchor="middle" x="1527.5" y="-199.5" font-family="Helvetica,sans-Serif" font-size="10.00">layout/DirektFlexContainer.h</text>
</a>
</g>
</g>
<!-- Node1&#45;&gt;Node25 -->
<g id="edge53_Node000001_Node000025" class="edge">
<title>Node1&#45;&gt;Node25</title>
<g id="a_edge53_Node000001_Node000025"><a xlink:title=" ">
<path fill="none" stroke="#63b8ff" d="M1574.38,-252.87C1566.1,-244.05 1553.03,-230.16 1542.8,-219.27"/>
<polygon fill="#63b8ff" stroke="#63b8ff" points="1545.05,-216.56 1535.65,-211.67 1539.95,-221.35 1545.05,-216.56"/>
</a>
</g>
</g>
<!-- Node26 -->
<g id="Node000026" class="node">
<title>Node26</title>
<g id="a_Node000026"><a xlink:href="DirektModuleBypassSoloStrip_8h.html" target="_top" xlink:title=" ">
<polygon fill="white" stroke="#666666" points="779.5,-217 627.5,-217 627.5,-187 779.5,-187 779.5,-217"/>
<text text-anchor="start" x="635.5" y="-205" font-family="Helvetica,sans-Serif" font-size="10.00">layout/DirektModuleBypass</text>
<text text-anchor="middle" x="703.5" y="-194" font-family="Helvetica,sans-Serif" font-size="10.00">SoloStrip.h</text>
</a>
</g>
</g>
<!-- Node1&#45;&gt;Node26 -->
<g id="edge57_Node000001_Node000026" class="edge">
<title>Node1&#45;&gt;Node26</title>
<g id="a_edge57_Node000001_Node000026"><a xlink:title=" ">
<path fill="none" stroke="#63b8ff" d="M1489.26,-255.29C1317.99,-243.9 955.66,-219.78 789.75,-208.74"/>
<polygon fill="#63b8ff" stroke="#63b8ff" points="789.8,-205.24 779.59,-208.06 789.33,-212.22 789.8,-205.24"/>
</a>
</g>
</g>
<!-- Node27 -->
<g id="Node000027" class="node">
<title>Node27</title>
<g id="a_Node000027"><a xlink:href="DirektSection_8h.html" target="_top" xlink:title=" ">
<polygon fill="white" stroke="#666666" points="1934,-151 1809,-151 1809,-132 1934,-132 1934,-151"/>
<text text-anchor="middle" x="1871.5" y="-139" font-family="Helvetica,sans-Serif" font-size="10.00">layout/DirektSection.h</text>
</a>
</g>
</g>
<!-- Node1&#45;&gt;Node27 -->
<g id="edge63_Node000001_Node000027" class="edge">
<title>Node1&#45;&gt;Node27</title>
<g id="a_edge63_Node000001_Node000027"><a xlink:title=" ">
<path fill="none" stroke="#63b8ff" d="M1674.22,-252.99C1733.43,-245.99 1803.83,-234.36 1828.5,-217 1847.92,-203.34 1859.8,-177.91 1866.02,-160.6"/>
<polygon fill="#63b8ff" stroke="#63b8ff" points="1869.36,-161.64 1869.18,-151.05 1862.72,-159.44 1869.36,-161.64"/>
</a>
</g>
</g>
<!-- Node28 -->
<g id="Node000028" class="node">
<title>Node28</title>
<g id="a_Node000028"><a xlink:href="DirektTabPanel_8h.html" target="_top" xlink:title=" ">
<polygon fill="white" stroke="#666666" points="2504.5,-151 2372.5,-151 2372.5,-132 2504.5,-132 2504.5,-151"/>
<text text-anchor="middle" x="2438.5" y="-139" font-family="Helvetica,sans-Serif" font-size="10.00">layout/DirektTabPanel.h</text>
</a>
</g>
</g>
<!-- Node1&#45;&gt;Node28 -->
<g id="edge68_Node000001_Node000028" class="edge">
<title>Node1&#45;&gt;Node28</title>
<g id="a_edge68_Node000001_Node000028"><a xlink:title=" ">
<path fill="none" stroke="#63b8ff" d="M1675.75,-258C1827.18,-251.81 2119.87,-237.61 2221.5,-217 2291.1,-202.88 2369.01,-172.29 2409.9,-155.02"/>
<polygon fill="#63b8ff" stroke="#63b8ff" points="2411.41,-158.18 2419.23,-151.04 2408.66,-151.75 2411.41,-158.18"/>
</a>
</g>
</g>
<!-- Node29 -->
<g id="Node000029" class="node">
<title>Node29</title>
<g id="a_Node000029"><a xlink:href="DirektLookAndFeel_8h.html" target="_top" xlink:title=" ">
<polygon fill="white" stroke="#666666" points="2142.5,-151 1990.5,-151 1990.5,-132 2142.5,-132 2142.5,-151"/>
<text text-anchor="middle" x="2066.5" y="-139" font-family="Helvetica,sans-Serif" font-size="10.00">theme/DirektLookAndFeel.h</text>
</a>
</g>
</g>
<!-- Node1&#45;&gt;Node29 -->
<g id="edge73_Node000001_Node000029" class="edge">
<title>Node1&#45;&gt;Node29</title>
<g id="a_edge73_Node000001_Node000029"><a xlink:title=" ">
<path fill="none" stroke="#63b8ff" d="M1656.53,-252.96C1711.64,-245.75 1788.43,-233.87 1854.5,-217 1921.02,-200.01 1996.27,-171.17 2036.81,-154.8"/>
<polygon fill="#63b8ff" stroke="#63b8ff" points="2038.16,-158.03 2046.11,-151.02 2035.53,-151.55 2038.16,-158.03"/>
</a>
</g>
</g>
<!-- Node3 -->
<g id="Node000003" class="node">
<title>Node3</title>
<g id="a_Node000003"><a xlink:title=" ">
<polygon fill="#e0e0e0" stroke="#999999" points="666,-96 527,-96 527,-66 666,-66 666,-96"/>
<text text-anchor="start" x="535" y="-84" font-family="Helvetica,sans-Serif" font-size="10.00">juce_audio_processors</text>
<text text-anchor="middle" x="596.5" y="-73" font-family="Helvetica,sans-Serif" font-size="10.00">/juce_audio_processors.h</text>
</a>
</g>
</g>
<!-- Node2&#45;&gt;Node3 -->
<g id="edge2_Node000002_Node000003" class="edge">
<title>Node2&#45;&gt;Node3</title>
<g id="a_edge2_Node000002_Node000003"><a xlink:title=" ">
<path fill="none" stroke="#63b8ff" d="M1204.88,-192.44C1154.32,-182.84 1070.43,-166.57 998.5,-151 962.36,-143.18 953.79,-139.07 917.5,-132 835.79,-116.08 741.59,-101.89 676.47,-92.74"/>
<polygon fill="#63b8ff" stroke="#63b8ff" points="676.66,-89.23 666.27,-91.31 675.69,-96.16 676.66,-89.23"/>
</a>
</g>
</g>
<!-- Node4 -->
<g id="Node000004" class="node">
<title>Node4</title>
<g id="a_Node000004"><a xlink:title=" ">
<polygon fill="#e0e0e0" stroke="#999999" points="1610.5,-30 1494.5,-30 1494.5,0 1610.5,0 1610.5,-30"/>
<text text-anchor="start" x="1502.5" y="-18" font-family="Helvetica,sans-Serif" font-size="10.00">juce_gui_basics/juce</text>
<text text-anchor="middle" x="1552.5" y="-7" font-family="Helvetica,sans-Serif" font-size="10.00">_gui_basics.h</text>
</a>
</g>
</g>
<!-- Node2&#45;&gt;Node4 -->
<g id="edge3_Node000002_Node000004" class="edge">
<title>Node2&#45;&gt;Node4</title>
<g id="a_edge3_Node000002_Node000004"><a xlink:title=" ">
<path fill="none" stroke="#63b8ff" d="M1162.8,-199.81C1105.05,-194.76 1043.2,-178.76 1061.5,-132 1076.06,-94.8 1086.89,-84.1 1122.5,-66 1184.1,-34.69 1379.05,-22.56 1484.01,-18.21"/>
<polygon fill="#63b8ff" stroke="#63b8ff" points="1484.33,-21.7 1494.19,-17.81 1484.05,-14.71 1484.33,-21.7"/>
</a>
</g>
</g>
<!-- Node5 -->
<g id="Node000005" class="node">
<title>Node5</title>
<g id="a_Node000005"><a xlink:title=" ">
<polygon fill="#e0e0e0" stroke="#999999" points="1684,-90.5 1619,-90.5 1619,-71.5 1684,-71.5 1684,-90.5"/>
<text text-anchor="middle" x="1651.5" y="-78.5" font-family="Helvetica,sans-Serif" font-size="10.00">functional</text>
</a>
</g>
</g>
<!-- Node2&#45;&gt;Node5 -->
<g id="edge4_Node000002_Node000005" class="edge">
<title>Node2&#45;&gt;Node5</title>
<g id="a_edge4_Node000002_Node000005"><a xlink:title=" ">
<path fill="none" stroke="#63b8ff" d="M1296.28,-192.46C1340.92,-183.69 1410.51,-168.82 1469.5,-151 1524.5,-134.38 1586.72,-109.4 1622.31,-94.5"/>
<polygon fill="#63b8ff" stroke="#63b8ff" points="1623.76,-97.69 1631.61,-90.58 1621.04,-91.24 1623.76,-97.69"/>
</a>
</g>
</g>
<!-- Node6 -->
<g id="Node000006" class="node">
<title>Node6</title>
<g id="a_Node000006"><a xlink:title=" ">
<polygon fill="#e0e0e0" stroke="#999999" points="1169.5,-90.5 1131.5,-90.5 1131.5,-71.5 1169.5,-71.5 1169.5,-90.5"/>
<text text-anchor="middle" x="1150.5" y="-78.5" font-family="Helvetica,sans-Serif" font-size="10.00">map</text>
</a>
</g>
</g>
<!-- Node2&#45;&gt;Node6 -->
<g id="edge5_Node000002_Node000006" class="edge">
<title>Node2&#45;&gt;Node6</title>
<g id="a_edge5_Node000002_Node000006"><a xlink:title=" ">
<path fill="none" stroke="#63b8ff" d="M1191.51,-192.42C1144.88,-184.3 1085.27,-170.43 1070.5,-151 1051.95,-126.6 1091.71,-104.65 1121.55,-92.35"/>
<polygon fill="#63b8ff" stroke="#63b8ff" points="1123.17,-95.48 1131.2,-88.56 1120.61,-88.96 1123.17,-95.48"/>
</a>
</g>
</g>
<!-- Node7 -->
<g id="Node000007" class="node">
<title>Node7</title>
<g id="a_Node000007"><a xlink:title=" ">
<polygon fill="#e0e0e0" stroke="#999999" points="1283.5,-90.5 1225.5,-90.5 1225.5,-71.5 1283.5,-71.5 1283.5,-90.5"/>
<text text-anchor="middle" x="1254.5" y="-78.5" font-family="Helvetica,sans-Serif" font-size="10.00">memory</text>
</a>
</g>
</g>
<!-- Node2&#45;&gt;Node7 -->
<g id="edge6_Node000002_Node000007" class="edge">
<title>Node2&#45;&gt;Node7</title>
<g id="a_edge6_Node000002_Node000007"><a xlink:title=" ">
<path fill="none" stroke="#63b8ff" d="M1250.79,-192.44C1251.43,-173.41 1252.98,-127.19 1253.86,-100.97"/>
<polygon fill="#63b8ff" stroke="#63b8ff" points="1257.37,-100.91 1254.2,-90.8 1250.37,-100.68 1257.37,-100.91"/>
</a>
</g>
</g>
<!-- Node8 -->
<g id="Node000008" class="node">
<title>Node8</title>
<g id="a_Node000008"><a xlink:title=" ">
<polygon fill="#e0e0e0" stroke="#999999" points="1356,-90.5 1309,-90.5 1309,-71.5 1356,-71.5 1356,-90.5"/>
<text text-anchor="middle" x="1332.5" y="-78.5" font-family="Helvetica,sans-Serif" font-size="10.00">vector</text>
</a>
</g>
</g>
<!-- Node2&#45;&gt;Node8 -->
<g id="edge7_Node000002_Node000008" class="edge">
<title>Node2&#45;&gt;Node8</title>
<g id="a_edge7_Node000002_Node000008"><a xlink:title=" ">
<path fill="none" stroke="#63b8ff" d="M1256.4,-192.44C1269.81,-172.98 1302.8,-125.1 1320.62,-99.24"/>
<polygon fill="#63b8ff" stroke="#63b8ff" points="1323.64,-101.02 1326.43,-90.8 1317.88,-97.05 1323.64,-101.02"/>
</a>
</g>
</g>
<!-- Node9 -->
<g id="Node000009" class="node">
<title>Node9</title>
<g id="a_Node000009"><a xlink:href="DirektDescriptors_8h.html" target="_top" xlink:title=" ">
<polygon fill="white" stroke="#666666" points="1460,-151 1317,-151 1317,-132 1460,-132 1460,-151"/>
<text text-anchor="middle" x="1388.5" y="-139" font-family="Helvetica,sans-Serif" font-size="10.00">config/DirektDescriptors.h</text>
</a>
</g>
</g>
<!-- Node2&#45;&gt;Node9 -->
<g id="edge8_Node000002_Node000009" class="edge">
<title>Node2&#45;&gt;Node9</title>
<g id="a_edge8_Node000002_Node000009"><a xlink:title=" ">
<path fill="none" stroke="#63b8ff" d="M1270.57,-192.49C1293.87,-182.62 1332.51,-166.23 1359.18,-154.93"/>
<polygon fill="#63b8ff" stroke="#63b8ff" points="1360.57,-158.14 1368.41,-151.02 1357.84,-151.7 1360.57,-158.14"/>
</a>
</g>
</g>
<!-- Node11 -->
<g id="Node000011" class="node">
<title>Node11</title>
<g id="a_Node000011"><a xlink:href="DirektBuildContext_8h.html" target="_top" xlink:title=" ">
<polygon fill="white" stroke="#666666" points="1222,-151 1079,-151 1079,-132 1222,-132 1222,-151"/>
<text text-anchor="middle" x="1150.5" y="-139" font-family="Helvetica,sans-Serif" font-size="10.00">core/DirektBuildContext.h</text>
</a>
</g>
</g>
<!-- Node2&#45;&gt;Node11 -->
<g id="edge14_Node000002_Node000011" class="edge">
<title>Node2&#45;&gt;Node11</title>
<g id="a_edge14_Node000002_Node000011"><a xlink:title=" ">
<path fill="none" stroke="#63b8ff" d="M1235.74,-192.37C1219.5,-182.86 1193.15,-167.45 1174.04,-156.27"/>
<polygon fill="#63b8ff" stroke="#63b8ff" points="1175.71,-153.2 1165.32,-151.17 1172.18,-159.24 1175.71,-153.2"/>
</a>
</g>
</g>
<!-- Node9&#45;&gt;Node4 -->
<g id="edge9_Node000009_Node000004" class="edge">
<title>Node9&#45;&gt;Node4</title>
<g id="a_edge9_Node000009_Node000004"><a xlink:title=" ">
<path fill="none" stroke="#63b8ff" d="M1388.35,-131.91C1388.55,-116.64 1391.17,-84.63 1408.5,-66 1428.25,-44.78 1457.46,-32.56 1484.43,-25.53"/>
<polygon fill="#63b8ff" stroke="#63b8ff" points="1485.34,-28.91 1494.24,-23.17 1483.7,-22.11 1485.34,-28.91"/>
</a>
</g>
</g>
<!-- Node9&#45;&gt;Node6 -->
<g id="edge10_Node000009_Node000006" class="edge">
<title>Node9&#45;&gt;Node6</title>
<g id="a_edge10_Node000009_Node000006"><a xlink:title=" ">
<path fill="none" stroke="#63b8ff" d="M1353.89,-131.99C1306.75,-120.41 1223.19,-99.87 1179.29,-89.08"/>
<polygon fill="#63b8ff" stroke="#63b8ff" points="1180.08,-85.67 1169.53,-86.68 1178.41,-92.46 1180.08,-85.67"/>
</a>
</g>
</g>
<!-- Node9&#45;&gt;Node7 -->
<g id="edge11_Node000009_Node000007" class="edge">
<title>Node9&#45;&gt;Node7</title>
<g id="a_edge11_Node000009_Node000007"><a xlink:title=" ">
<path fill="none" stroke="#63b8ff" d="M1369.02,-131.99C1346.49,-122.16 1309.19,-105.88 1283.31,-94.58"/>
<polygon fill="#63b8ff" stroke="#63b8ff" points="1284.57,-91.31 1274.01,-90.52 1281.77,-97.73 1284.57,-91.31"/>
</a>
</g>
</g>
<!-- Node9&#45;&gt;Node8 -->
<g id="edge13_Node000009_Node000008" class="edge">
<title>Node9&#45;&gt;Node8</title>
<g id="a_edge13_Node000009_Node000008"><a xlink:title=" ">
<path fill="none" stroke="#63b8ff" d="M1380.24,-131.87C1371.72,-122.97 1358.24,-108.89 1347.77,-97.95"/>
<polygon fill="#63b8ff" stroke="#63b8ff" points="1350.24,-95.47 1340.8,-90.67 1345.18,-100.31 1350.24,-95.47"/>
</a>
</g>
</g>
<!-- Node10 -->
<g id="Node000010" class="node">
<title>Node10</title>
<g id="a_Node000010"><a xlink:title=" ">
<polygon fill="#e0e0e0" stroke="#999999" points="1468,-90.5 1417,-90.5 1417,-71.5 1468,-71.5 1468,-90.5"/>
<text text-anchor="middle" x="1442.5" y="-78.5" font-family="Helvetica,sans-Serif" font-size="10.00">variant</text>
</a>
</g>
</g>
<!-- Node9&#45;&gt;Node10 -->
<g id="edge12_Node000009_Node000010" class="edge">
<title>Node9&#45;&gt;Node10</title>
<g id="a_edge12_Node000009_Node000010"><a xlink:title=" ">
<path fill="none" stroke="#63b8ff" d="M1396.47,-131.87C1404.6,-123.05 1417.43,-109.16 1427.48,-98.27"/>
<polygon fill="#63b8ff" stroke="#63b8ff" points="1430.29,-100.39 1434.5,-90.67 1425.14,-95.64 1430.29,-100.39"/>
</a>
</g>
</g>
<!-- Node11&#45;&gt;Node3 -->
<g id="edge15_Node000011_Node000003" class="edge">
<title>Node11&#45;&gt;Node3</title>
<g id="a_edge15_Node000011_Node000003"><a xlink:title=" ">
<path fill="none" stroke="#63b8ff" d="M1078.93,-132.94C975.36,-122.01 784.31,-101.83 676.32,-90.43"/>
<polygon fill="#63b8ff" stroke="#63b8ff" points="676.44,-86.92 666.13,-89.35 675.71,-93.88 676.44,-86.92"/>
</a>
</g>
</g>
<!-- Node11&#45;&gt;Node6 -->
<g id="edge17_Node000011_Node000006" class="edge">
<title>Node11&#45;&gt;Node6</title>
<g id="a_edge17_Node000011_Node000006"><a xlink:title=" ">
<path fill="none" stroke="#63b8ff" d="M1150.5,-131.87C1150.5,-123.75 1150.5,-111.31 1150.5,-100.89"/>
<polygon fill="#63b8ff" stroke="#63b8ff" points="1154,-100.67 1150.5,-90.67 1147,-100.67 1154,-100.67"/>
</a>
</g>
</g>
<!-- Node12 -->
<g id="Node000012" class="node">
<title>Node12</title>
<g id="a_Node000012"><a xlink:title=" ">
<polygon fill="#e0e0e0" stroke="#999999" points="1752.5,-90.5 1702.5,-90.5 1702.5,-71.5 1752.5,-71.5 1752.5,-90.5"/>
<text text-anchor="middle" x="1727.5" y="-78.5" font-family="Helvetica,sans-Serif" font-size="10.00">atomic</text>
</a>
</g>
</g>
<!-- Node11&#45;&gt;Node12 -->
<g id="edge16_Node000011_Node000012" class="edge">
<title>Node11&#45;&gt;Node12</title>
<g id="a_edge16_Node000011_Node000012"><a xlink:title=" ">
<path fill="none" stroke="#63b8ff" d="M1222.24,-135.86C1359.32,-126.81 1648.84,-106.75 1693.5,-96 1695.67,-95.48 1697.88,-94.84 1700.08,-94.12"/>
<polygon fill="#63b8ff" stroke="#63b8ff" points="1701.34,-97.39 1709.49,-90.62 1698.9,-90.82 1701.34,-97.39"/>
</a>
</g>
</g>
<!-- Node13&#45;&gt;Node3 -->
<g id="edge19_Node000013_Node000003" class="edge">
<title>Node13&#45;&gt;Node3</title>
<g id="a_edge19_Node000013_Node000003"><a xlink:title=" ">
<path fill="none" stroke="#63b8ff" d="M297.39,-131.99C354.92,-122.38 449.31,-106.6 516.67,-95.34"/>
<polygon fill="#63b8ff" stroke="#63b8ff" points="517.53,-98.75 526.82,-93.65 516.38,-91.84 517.53,-98.75"/>
</a>
</g>
</g>
<!-- Node13&#45;&gt;Node4 -->
<g id="edge20_Node000013_Node000004" class="edge">
<title>Node13&#45;&gt;Node4</title>
<g id="a_edge20_Node000013_Node000004"><a xlink:title=" ">
<path fill="none" stroke="#63b8ff" d="M258.56,-131.98C282.52,-115.59 338.42,-80.05 391.5,-66 496.83,-38.11 1251.21,-21.68 1484.16,-17.24"/>
<polygon fill="#63b8ff" stroke="#63b8ff" points="1484.27,-20.73 1494.2,-17.05 1484.14,-13.74 1484.27,-20.73"/>
</a>
</g>
</g>
<!-- Node14 -->
<g id="Node000014" class="node">
<title>Node14</title>
<g id="a_Node000014"><a xlink:title=" ">
<polygon fill="#e0e0e0" stroke="#999999" points="267.5,-90.5 225.5,-90.5 225.5,-71.5 267.5,-71.5 267.5,-90.5"/>
<text text-anchor="middle" x="246.5" y="-78.5" font-family="Helvetica,sans-Serif" font-size="10.00">array</text>
</a>
</g>
</g>
<!-- Node13&#45;&gt;Node14 -->
<g id="edge21_Node000013_Node000014" class="edge">
<title>Node13&#45;&gt;Node14</title>
<g id="a_edge21_Node000013_Node000014"><a xlink:title=" ">
<path fill="none" stroke="#63b8ff" d="M246.5,-131.87C246.5,-123.75 246.5,-111.31 246.5,-100.89"/>
<polygon fill="#63b8ff" stroke="#63b8ff" points="250,-100.67 246.5,-90.67 243,-100.67 250,-100.67"/>
</a>
</g>
</g>
<!-- Node15&#45;&gt;Node3 -->
<g id="edge23_Node000015_Node000003" class="edge">
<title>Node15&#45;&gt;Node3</title>
<g id="a_edge23_Node000015_Node000003"><a xlink:title=" ">
<path fill="none" stroke="#63b8ff" d="M151.1,-132.39C232.29,-123.62 365.06,-109.15 479.5,-96 491.61,-94.61 504.42,-93.11 516.94,-91.62"/>
<polygon fill="#63b8ff" stroke="#63b8ff" points="517.4,-95.09 526.91,-90.44 516.57,-88.14 517.4,-95.09"/>
</a>
</g>
</g>
<!-- Node15&#45;&gt;Node4 -->
<g id="edge24_Node000015_Node000004" class="edge">
<title>Node15&#45;&gt;Node4</title>
<g id="a_edge24_Node000015_Node000004"><a xlink:title=" ">
<path fill="none" stroke="#63b8ff" d="M87.18,-131.95C110.4,-115.52 164.62,-79.9 216.5,-66 339.16,-33.14 1228.41,-19.92 1483.98,-16.78"/>
<polygon fill="#63b8ff" stroke="#63b8ff" points="1484.28,-20.27 1494.24,-16.65 1484.2,-13.27 1484.28,-20.27"/>
</a>
</g>
</g>
<!-- Node16&#45;&gt;Node3 -->
<g id="edge26_Node000016_Node000003" class="edge">
<title>Node16&#45;&gt;Node3</title>
<g id="a_edge26_Node000016_Node000003"><a xlink:title=" ">
<path fill="none" stroke="#63b8ff" d="M431.56,-131.99C459.95,-123.39 504.6,-109.86 540.29,-99.04"/>
<polygon fill="#63b8ff" stroke="#63b8ff" points="541.55,-102.31 550.1,-96.06 539.51,-95.62 541.55,-102.31"/>
</a>
</g>
</g>
<!-- Node16&#45;&gt;Node4 -->
<g id="edge27_Node000016_Node000004" class="edge">
<title>Node16&#45;&gt;Node4</title>
<g id="a_edge27_Node000016_Node000004"><a xlink:title=" ">
<path fill="none" stroke="#63b8ff" d="M400.39,-131.69C395.51,-116.08 388.26,-83.53 405.5,-66 443.45,-27.41 1243.07,-18.31 1484.24,-16.44"/>
<polygon fill="#63b8ff" stroke="#63b8ff" points="1484.31,-19.94 1494.28,-16.36 1484.26,-12.94 1484.31,-19.94"/>
</a>
</g>
</g>
<!-- Node17 -->
<g id="Node000017" class="node">
<title>Node17</title>
<g id="a_Node000017"><a xlink:title=" ">
<polygon fill="#e0e0e0" stroke="#999999" points="470.5,-90.5 414.5,-90.5 414.5,-71.5 470.5,-71.5 470.5,-90.5"/>
<text text-anchor="middle" x="442.5" y="-78.5" font-family="Helvetica,sans-Serif" font-size="10.00">optional</text>
</a>
</g>
</g>
<!-- Node16&#45;&gt;Node17 -->
<g id="edge28_Node000016_Node000017" class="edge">
<title>Node16&#45;&gt;Node17</title>
<g id="a_edge28_Node000016_Node000017"><a xlink:title=" ">
<path fill="none" stroke="#63b8ff" d="M409.25,-131.87C414.96,-123.31 423.85,-109.97 431.01,-99.24"/>
<polygon fill="#63b8ff" stroke="#63b8ff" points="434.09,-100.93 436.72,-90.67 428.26,-97.05 434.09,-100.93"/>
</a>
</g>
</g>
<!-- Node18&#45;&gt;Node3 -->
<g id="edge30_Node000018_Node000003" class="edge">
<title>Node18&#45;&gt;Node3</title>
<g id="a_edge30_Node000018_Node000003"><a xlink:title=" ">
<path fill="none" stroke="#63b8ff" d="M793.06,-131.99C758.73,-123.26 704.42,-109.45 661.58,-98.55"/>
<polygon fill="#63b8ff" stroke="#63b8ff" points="662.35,-95.14 651.8,-96.06 660.62,-101.92 662.35,-95.14"/>
</a>
</g>
</g>
<!-- Node18&#45;&gt;Node4 -->
<g id="edge31_Node000018_Node000004" class="edge">
<title>Node18&#45;&gt;Node4</title>
<g id="a_edge31_Node000018_Node000004"><a xlink:title=" ">
<path fill="none" stroke="#63b8ff" d="M842.02,-131.75C871.48,-115.62 937.95,-81.42 998.5,-66 1169.45,-22.46 1378.5,-15.6 1484.25,-15.24"/>
<polygon fill="#63b8ff" stroke="#63b8ff" points="1484.47,-18.74 1494.46,-15.23 1484.46,-11.74 1484.47,-18.74"/>
</a>
</g>
</g>
<!-- Node18&#45;&gt;Node8 -->
<g id="edge32_Node000018_Node000008" class="edge">
<title>Node18&#45;&gt;Node8</title>
<g id="a_edge32_Node000018_Node000008"><a xlink:title=" ">
<path fill="none" stroke="#63b8ff" d="M908.09,-133.22C1036.73,-121.68 1274.06,-100.05 1292.5,-96 1295.49,-95.34 1298.57,-94.53 1301.63,-93.63"/>
<polygon fill="#63b8ff" stroke="#63b8ff" points="1302.75,-96.94 1311.19,-90.53 1300.59,-90.28 1302.75,-96.94"/>
</a>
</g>
</g>
<!-- Node19&#45;&gt;Node3 -->
<g id="edge34_Node000019_Node000003" class="edge">
<title>Node19&#45;&gt;Node3</title>
<g id="a_edge34_Node000019_Node000003"><a xlink:title=" ">
<path fill="none" stroke="#63b8ff" d="M554.73,-131.87C560.89,-124.52 570,-113.63 578.15,-103.91"/>
<polygon fill="#63b8ff" stroke="#63b8ff" points="580.94,-106.03 584.68,-96.11 575.57,-101.53 580.94,-106.03"/>
</a>
</g>
</g>
<!-- Node19&#45;&gt;Node4 -->
<g id="edge35_Node000019_Node000004" class="edge">
<title>Node19&#45;&gt;Node4</title>
<g id="a_edge35_Node000019_Node000004"><a xlink:title=" ">
<path fill="none" stroke="#63b8ff" d="M538.45,-131.54C524.07,-116.26 499.42,-84.98 517.5,-66 550.86,-30.99 1258.66,-19.51 1484.15,-16.74"/>
<polygon fill="#63b8ff" stroke="#63b8ff" points="1484.24,-20.24 1494.2,-16.62 1484.15,-13.24 1484.24,-20.24"/>
</a>
</g>
</g>
<!-- Node20&#45;&gt;Node4 -->
<g id="edge37_Node000020_Node000004" class="edge">
<title>Node20&#45;&gt;Node4</title>
<g id="a_edge37_Node000020_Node000004"><a xlink:title=" ">
<path fill="none" stroke="#63b8ff" d="M2264.79,-131.91C2242,-115.74 2189.55,-81.02 2139.5,-66 2044.14,-37.39 1754.35,-23.38 1620.99,-18.31"/>
<polygon fill="#63b8ff" stroke="#63b8ff" points="1621.02,-14.81 1610.9,-17.93 1620.76,-21.8 1621.02,-14.81"/>
</a>
</g>
</g>
<!-- Node20&#45;&gt;Node12 -->
<g id="edge38_Node000020_Node000012" class="edge">
<title>Node20&#45;&gt;Node12</title>
<g id="a_edge38_Node000020_Node000012"><a xlink:title=" ">
<path fill="none" stroke="#63b8ff" d="M2198.72,-132.21C2077.89,-119.34 1849.94,-95.05 1762.69,-85.75"/>
<polygon fill="#63b8ff" stroke="#63b8ff" points="1762.84,-82.25 1752.53,-84.67 1762.1,-89.21 1762.84,-82.25"/>
</a>
</g>
</g>
<!-- Node20&#45;&gt;Node21 -->
<g id="edge39_Node000020_Node000021" class="edge">
<title>Node20&#45;&gt;Node21</title>
<g id="a_edge39_Node000020_Node000021"><a xlink:title=" ">
<path fill="none" stroke="#63b8ff" d="M2245.96,-131.99C2209.26,-121.77 2147.55,-104.58 2106.92,-93.26"/>
<polygon fill="#63b8ff" stroke="#63b8ff" points="2107.65,-89.83 2097.07,-90.52 2105.77,-96.57 2107.65,-89.83"/>
</a>
</g>
</g>
<!-- Node21&#45;&gt;Node4 -->
<g id="edge40_Node000021_Node000004" class="edge">
<title>Node21&#45;&gt;Node4</title>
<g id="a_edge40_Node000021_Node000004"><a xlink:title=" ">
<path fill="none" stroke="#63b8ff" d="M2002.81,-71.86C1987.64,-69.93 1971.49,-67.88 1956.5,-66 1838.48,-51.19 1701.03,-34.24 1620.7,-24.37"/>
<polygon fill="#63b8ff" stroke="#63b8ff" points="1621.07,-20.89 1610.71,-23.14 1620.21,-27.83 1621.07,-20.89"/>
</a>
</g>
</g>
<!-- Node22&#45;&gt;Node4 -->
<g id="edge42_Node000022_Node000004" class="edge">
<title>Node22&#45;&gt;Node4</title>
<g id="a_edge42_Node000022_Node000004"><a xlink:title=" ">
<path fill="none" stroke="#63b8ff" d="M2552.52,-131.93C2495.83,-116.09 2368.78,-82.36 2259.5,-66 2026.91,-31.17 1747.54,-20.48 1620.89,-17.3"/>
<polygon fill="#63b8ff" stroke="#63b8ff" points="1620.65,-13.79 1610.57,-17.04 1620.48,-20.79 1620.65,-13.79"/>
</a>
</g>
</g>
<!-- Node22&#45;&gt;Node21 -->
<g id="edge43_Node000022_Node000021" class="edge">
<title>Node22&#45;&gt;Node21</title>
<g id="a_edge43_Node000022_Node000021"><a xlink:title=" ">
<path fill="none" stroke="#63b8ff" d="M2522.29,-133.04C2519.32,-132.69 2516.38,-132.34 2513.5,-132 2382.07,-116.55 2228.76,-99.65 2140.14,-89.98"/>
<polygon fill="#63b8ff" stroke="#63b8ff" points="2140.51,-86.5 2130.19,-88.9 2139.75,-93.46 2140.51,-86.5"/>
</a>
</g>
</g>
<!-- Node23&#45;&gt;Node4 -->
<g id="edge45_Node000023_Node000004" class="edge">
<title>Node23&#45;&gt;Node4</title>
<g id="a_edge45_Node000023_Node000004"><a xlink:title=" ">
<path fill="none" stroke="#63b8ff" d="M1644.55,-131.98C1635.58,-123.26 1621.54,-109.17 1610.5,-96 1594.88,-77.37 1578.77,-54.84 1567.51,-38.45"/>
<polygon fill="#63b8ff" stroke="#63b8ff" points="1570.3,-36.33 1561.78,-30.03 1564.52,-40.27 1570.3,-36.33"/>
</a>
</g>
</g>
<!-- Node23&#45;&gt;Node12 -->
<g id="edge46_Node000023_Node000012" class="edge">
<title>Node23&#45;&gt;Node12</title>
<g id="a_edge46_Node000023_Node000012"><a xlink:title=" ">
<path fill="none" stroke="#63b8ff" d="M1664.42,-131.87C1676.01,-122.71 1694.53,-108.06 1708.52,-97.01"/>
<polygon fill="#63b8ff" stroke="#63b8ff" points="1710.86,-99.61 1716.54,-90.67 1706.52,-94.12 1710.86,-99.61"/>
</a>
</g>
</g>
<!-- Node23&#45;&gt;Node21 -->
<g id="edge47_Node000023_Node000021" class="edge">
<title>Node23&#45;&gt;Node21</title>
<g id="a_edge47_Node000023_Node000021"><a xlink:title=" ">
<path fill="none" stroke="#63b8ff" d="M1713.55,-131.99C1788.64,-121.36 1916.96,-103.18 1996.45,-91.92"/>
<polygon fill="#63b8ff" stroke="#63b8ff" points="1996.96,-95.38 2006.37,-90.52 1995.98,-88.45 1996.96,-95.38"/>
</a>
</g>
</g>
<!-- Node24&#45;&gt;Node4 -->
<g id="edge49_Node000024_Node000004" class="edge">
<title>Node24&#45;&gt;Node4</title>
<g id="a_edge49_Node000024_Node000004"><a xlink:title=" ">
<path fill="none" stroke="#63b8ff" d="M1747.66,-192.28C1760.69,-168.99 1791.85,-104.46 1761.5,-66 1744.1,-43.95 1674.89,-30.54 1620.82,-23.24"/>
<polygon fill="#63b8ff" stroke="#63b8ff" points="1620.94,-19.73 1610.57,-21.9 1620.03,-26.67 1620.94,-19.73"/>
</a>
</g>
</g>
<!-- Node24&#45;&gt;Node12 -->
<g id="edge50_Node000024_Node000012" class="edge">
<title>Node24&#45;&gt;Node12</title>
<g id="a_edge50_Node000024_Node000012"><a xlink:title=" ">
<path fill="none" stroke="#63b8ff" d="M1741.42,-192.44C1739.02,-173.41 1733.2,-127.19 1729.89,-100.97"/>
<polygon fill="#63b8ff" stroke="#63b8ff" points="1733.33,-100.29 1728.61,-90.8 1726.39,-101.16 1733.33,-100.29"/>
</a>
</g>
</g>
<!-- Node24&#45;&gt;Node21 -->
<g id="edge52_Node000024_Node000021" class="edge">
<title>Node24&#45;&gt;Node21</title>
<g id="a_edge52_Node000024_Node000021"><a xlink:title=" ">
<path fill="none" stroke="#63b8ff" d="M1792.39,-192.45C1833.77,-184.45 1893.69,-170.75 1943.5,-151 1963.42,-143.1 2013.61,-113.74 2043.36,-95.96"/>
<polygon fill="#63b8ff" stroke="#63b8ff" points="2045.46,-98.79 2052.24,-90.64 2041.86,-92.78 2045.46,-98.79"/>
</a>
</g>
</g>
<!-- Node24&#45;&gt;Node23 -->
<g id="edge51_Node000024_Node000023" class="edge">
<title>Node24&#45;&gt;Node23</title>
<g id="a_edge51_Node000024_Node000023"><a xlink:title=" ">
<path fill="none" stroke="#63b8ff" d="M1729.37,-192.37C1715.17,-183.04 1692.3,-168.01 1675.38,-156.88"/>
<polygon fill="#63b8ff" stroke="#63b8ff" points="1676.97,-153.74 1666.69,-151.17 1673.12,-159.58 1676.97,-153.74"/>
</a>
</g>
</g>
<!-- Node25&#45;&gt;Node4 -->
<g id="edge54_Node000025_Node000004" class="edge">
<title>Node25&#45;&gt;Node4</title>
<g id="a_edge54_Node000025_Node000004"><a xlink:title=" ">
<path fill="none" stroke="#63b8ff" d="M1528.71,-192.08C1532.39,-164.78 1543.62,-81.73 1549.23,-40.2"/>
<polygon fill="#63b8ff" stroke="#63b8ff" points="1552.72,-40.5 1550.59,-30.12 1545.78,-39.56 1552.72,-40.5"/>
</a>
</g>
</g>
<!-- Node25&#45;&gt;Node8 -->
<g id="edge55_Node000025_Node000008" class="edge">
<title>Node25&#45;&gt;Node8</title>
<g id="a_edge55_Node000025_Node000008"><a xlink:title=" ">
<path fill="none" stroke="#63b8ff" d="M1522.21,-192.09C1513.16,-177.55 1493.34,-148.7 1469.5,-132 1437.77,-109.79 1395.05,-96.27 1365.8,-88.98"/>
<polygon fill="#63b8ff" stroke="#63b8ff" points="1366.59,-85.57 1356.05,-86.66 1364.97,-92.38 1366.59,-85.57"/>
</a>
</g>
</g>
<!-- Node25&#45;&gt;Node9 -->
<g id="edge56_Node000025_Node000009" class="edge">
<title>Node25&#45;&gt;Node9</title>
<g id="a_edge56_Node000025_Node000009"><a xlink:title=" ">
<path fill="none" stroke="#63b8ff" d="M1507.29,-192.49C1483.82,-182.62 1444.89,-166.23 1418.04,-154.93"/>
<polygon fill="#63b8ff" stroke="#63b8ff" points="1419.31,-151.67 1408.74,-151.02 1416.6,-158.12 1419.31,-151.67"/>
</a>
</g>
</g>
<!-- Node26&#45;&gt;Node3 -->
<g id="edge58_Node000026_Node000003" class="edge">
<title>Node26&#45;&gt;Node3</title>
<g id="a_edge58_Node000026_Node000003"><a xlink:title=" ">
<path fill="none" stroke="#63b8ff" d="M690.81,-186.88C672.3,-166.31 637.77,-127.9 616.02,-103.71"/>
<polygon fill="#63b8ff" stroke="#63b8ff" points="618.47,-101.2 609.18,-96.1 613.26,-105.88 618.47,-101.2"/>
</a>
</g>
</g>
<!-- Node26&#45;&gt;Node4 -->
<g id="edge59_Node000026_Node000004" class="edge">
<title>Node26&#45;&gt;Node4</title>
<g id="a_edge59_Node000026_Node000004"><a xlink:title=" ">
<path fill="none" stroke="#63b8ff" d="M702.01,-186.81C701.22,-171.48 702.42,-147.22 715.5,-132 775.68,-61.97 822.01,-84.4 912.5,-66 1117.64,-24.28 1366.29,-16.87 1484.16,-15.87"/>
<polygon fill="#63b8ff" stroke="#63b8ff" points="1484.5,-19.37 1494.47,-15.8 1484.45,-12.37 1484.5,-19.37"/>
</a>
</g>
</g>
<!-- Node26&#45;&gt;Node7 -->
<g id="edge60_Node000026_Node000007" class="edge">
<title>Node26&#45;&gt;Node7</title>
<g id="a_edge60_Node000026_Node000007"><a xlink:title=" ">
<path fill="none" stroke="#63b8ff" d="M705.94,-186.92C709.56,-170.72 718.02,-144.73 736.5,-132 817.67,-76.11 1080.81,-108.94 1178.5,-96 1190.54,-94.41 1203.56,-92.19 1215.37,-89.99"/>
<polygon fill="#63b8ff" stroke="#63b8ff" points="1216.21,-93.39 1225.38,-88.08 1214.9,-86.52 1216.21,-93.39"/>
</a>
</g>
</g>
<!-- Node26&#45;&gt;Node8 -->
<g id="edge61_Node000026_Node000008" class="edge">
<title>Node26&#45;&gt;Node8</title>
<g id="a_edge61_Node000026_Node000008"><a xlink:title=" ">
<path fill="none" stroke="#63b8ff" d="M775.13,-186.98C849.03,-172.65 967.68,-150 1070.5,-132 1168.96,-114.76 1195.62,-120.61 1292.5,-96 1295.15,-95.33 1297.87,-94.55 1300.59,-93.73"/>
<polygon fill="#63b8ff" stroke="#63b8ff" points="1301.87,-96.99 1310.29,-90.55 1299.69,-90.34 1301.87,-96.99"/>
</a>
</g>
</g>
<!-- Node26&#45;&gt;Node19 -->
<g id="edge62_Node000026_Node000019" class="edge">
<title>Node26&#45;&gt;Node19</title>
<g id="a_edge62_Node000026_Node000019"><a xlink:title=" ">
<path fill="none" stroke="#63b8ff" d="M666.13,-186.99C639.87,-177.14 605.09,-164.1 579.98,-154.68"/>
<polygon fill="#63b8ff" stroke="#63b8ff" points="581.13,-151.37 570.54,-151.14 578.67,-157.93 581.13,-151.37"/>
</a>
</g>
</g>
<!-- Node27&#45;&gt;Node4 -->
<g id="edge64_Node000027_Node000004" class="edge">
<title>Node27&#45;&gt;Node4</title>
<g id="a_edge64_Node000027_Node000004"><a xlink:title=" ">
<path fill="none" stroke="#63b8ff" d="M1865.39,-131.99C1853.6,-116.25 1826.07,-82.69 1794.5,-66 1740.3,-37.35 1671.2,-25.1 1620.73,-19.88"/>
<polygon fill="#63b8ff" stroke="#63b8ff" points="1620.86,-16.37 1610.57,-18.89 1620.19,-23.34 1620.86,-16.37"/>
</a>
</g>
</g>
<!-- Node27&#45;&gt;Node5 -->
<g id="edge65_Node000027_Node000005" class="edge">
<title>Node27&#45;&gt;Node5</title>
<g id="a_edge65_Node000027_Node000005"><a xlink:title=" ">
<path fill="none" stroke="#63b8ff" d="M1833.77,-131.96C1797.59,-123.55 1741.52,-109.98 1693.5,-96 1691.05,-95.29 1688.52,-94.52 1685.99,-93.73"/>
<polygon fill="#63b8ff" stroke="#63b8ff" points="1686.87,-90.34 1676.27,-90.61 1684.72,-97 1686.87,-90.34"/>
</a>
</g>
</g>
<!-- Node27&#45;&gt;Node7 -->
<g id="edge66_Node000027_Node000007" class="edge">
<title>Node27&#45;&gt;Node7</title>
<g id="a_edge66_Node000027_Node000007"><a xlink:title=" ">
<path fill="none" stroke="#63b8ff" d="M1808.76,-136.38C1670.79,-127.22 1349.38,-105.23 1300.5,-96 1296.64,-95.27 1292.65,-94.34 1288.7,-93.3"/>
<polygon fill="#63b8ff" stroke="#63b8ff" points="1289.66,-89.93 1279.08,-90.56 1287.74,-96.67 1289.66,-89.93"/>
</a>
</g>
</g>
<!-- Node27&#45;&gt;Node21 -->
<g id="edge67_Node000027_Node000021" class="edge">
<title>Node27&#45;&gt;Node21</title>
<g id="a_edge67_Node000027_Node000021"><a xlink:title=" ">
<path fill="none" stroke="#63b8ff" d="M1899.85,-131.99C1933.79,-121.81 1990.76,-104.72 2028.49,-93.4"/>
<polygon fill="#63b8ff" stroke="#63b8ff" points="2029.54,-96.74 2038.11,-90.52 2027.53,-90.04 2029.54,-96.74"/>
</a>
</g>
</g>
<!-- Node28&#45;&gt;Node4 -->
<g id="edge69_Node000028_Node000004" class="edge">
<title>Node28&#45;&gt;Node4</title>
<g id="a_edge69_Node000028_Node000004"><a xlink:title=" ">
<path fill="none" stroke="#63b8ff" d="M2415.62,-131.97C2371.83,-116.06 2272.85,-81.99 2186.5,-66 1983.11,-28.34 1737.86,-19.02 1620.95,-16.73"/>
<polygon fill="#63b8ff" stroke="#63b8ff" points="1620.78,-13.23 1610.72,-16.55 1620.66,-20.23 1620.78,-13.23"/>
</a>
</g>
</g>
<!-- Node28&#45;&gt;Node8 -->
<g id="edge70_Node000028_Node000008" class="edge">
<title>Node28&#45;&gt;Node8</title>
<g id="a_edge70_Node000028_Node000008"><a xlink:title=" ">
<path fill="none" stroke="#63b8ff" d="M2372.27,-132.72C2369.31,-132.46 2366.37,-132.22 2363.5,-132 1939.96,-100.06 1830.68,-142.6 1408.5,-96 1394.61,-94.47 1379.44,-91.86 1366.34,-89.32"/>
<polygon fill="#63b8ff" stroke="#63b8ff" points="1366.82,-85.84 1356.33,-87.3 1365.44,-92.71 1366.82,-85.84"/>
</a>
</g>
</g>
<!-- Node28&#45;&gt;Node21 -->
<g id="edge71_Node000028_Node000021" class="edge">
<title>Node28&#45;&gt;Node21</title>
<g id="a_edge71_Node000028_Node000021"><a xlink:title=" ">
<path fill="none" stroke="#63b8ff" d="M2384.41,-131.99C2317.19,-121.42 2202.6,-103.4 2130.91,-92.13"/>
<polygon fill="#63b8ff" stroke="#63b8ff" points="2131.08,-88.61 2120.66,-90.52 2129.99,-95.53 2131.08,-88.61"/>
</a>
</g>
</g>
<!-- Node29&#45;&gt;Node4 -->
<g id="edge74_Node000029_Node000004" class="edge">
<title>Node29&#45;&gt;Node4</title>
<g id="a_edge74_Node000029_Node000004"><a xlink:title=" ">
<path fill="none" stroke="#63b8ff" d="M2042.35,-131.89C1999.52,-116.87 1907.27,-85.61 1827.5,-66 1757.74,-48.85 1676.7,-34.82 1620.76,-26.03"/>
<polygon fill="#63b8ff" stroke="#63b8ff" points="1621.03,-22.53 1610.61,-24.45 1619.95,-29.45 1621.03,-22.53"/>
</a>
</g>
</g>
<!-- Node29&#45;&gt;Node21 -->
<g id="edge75_Node000029_Node000021" class="edge">
<title>Node29&#45;&gt;Node21</title>
<g id="a_edge75_Node000029_Node000021"><a xlink:title=" ">
<path fill="none" stroke="#63b8ff" d="M2066.5,-131.87C2066.5,-123.75 2066.5,-111.31 2066.5,-100.89"/>
<polygon fill="#63b8ff" stroke="#63b8ff" points="2070,-100.67 2066.5,-90.67 2063,-100.67 2070,-100.67"/>
</a>
</g>
</g>
</g>
</svg>
