<?xml version="1.0" encoding="UTF-8" standalone="no"?>
<!DOCTYPE svg PUBLIC "-//W3C//DTD SVG 1.1//EN"
 "http://www.w3.org/Graphics/SVG/1.1/DTD/svg11.dtd">
<!-- Generated by graphviz version 2.43.0 (0)
 -->
<!-- Title: core/DirektBaseEditor.cpp Pages: 1 -->
<svg width="2598pt" height="324pt"
 viewBox="0.00 0.00 2598.34 324.00" xmlns="http://www.w3.org/2000/svg" xmlns:xlink="http://www.w3.org/1999/xlink">
<g id="graph0" class="graph" transform="scale(1 1) rotate(0) translate(4 320)">
<title>core/DirektBaseEditor.cpp</title>
<!-- Node1 -->
<g id="Node000001" class="node">
<title>Node1</title>
<g id="a_Node000001"><a xlink:title=" ">
<polygon fill="#999999" stroke="#666666" points="895.5,-316 752.5,-316 752.5,-297 895.5,-297 895.5,-316"/>
<text text-anchor="middle" x="824" y="-304" font-family="Helvetica,sans-Serif" font-size="10.00">core/DirektBaseEditor.cpp</text>
</a>
</g>
</g>
<!-- Node2 -->
<g id="Node000002" class="node">
<title>Node2</title>
<g id="a_Node000002"><a xlink:href="DirektBaseEditor_8h.html" target="_top" xlink:title=" ">
<polygon fill="white" stroke="#666666" points="1213.5,-261 1082.5,-261 1082.5,-242 1213.5,-242 1213.5,-261"/>
<text text-anchor="middle" x="1148" y="-249" font-family="Helvetica,sans-Serif" font-size="10.00">core/DirektBaseEditor.h</text>
</a>
</g>
</g>
<!-- Node1&#45;&gt;Node2 -->
<g id="edge1_Node000001_Node000002" class="edge">
<title>Node1&#45;&gt;Node2</title>
<g id="a_edge1_Node000001_Node000002"><a xlink:title=" ">
<path fill="none" stroke="#63b8ff" d="M876.06,-296.98C933.24,-287.63 1025.04,-272.61 1085.93,-262.65"/>
<polygon fill="#63b8ff" stroke="#63b8ff" points="1086.5,-266.11 1095.8,-261.04 1085.37,-259.2 1086.5,-266.11"/>
</a>
</g>
</g>
<!-- Node29 -->
<g id="Node000029" class="node">
<title>Node29</title>
<g id="a_Node000029"><a xlink:href="DirektMeter_8h.html" target="_top" xlink:title=" ">
<polygon fill="white" stroke="#666666" points="965,-151 843,-151 843,-132 965,-132 965,-151"/>
<text text-anchor="middle" x="904" y="-139" font-family="Helvetica,sans-Serif" font-size="10.00">display/DirektMeter.h</text>
</a>
</g>
</g>
<!-- Node1&#45;&gt;Node29 -->
<g id="edge69_Node000001_Node000029" class="edge">
<title>Node1&#45;&gt;Node29</title>
<g id="a_edge69_Node000001_Node000029"><a xlink:title=" ">
<path fill="none" stroke="#63b8ff" d="M828.3,-296.74C840.94,-270.98 878.17,-195.13 895.25,-160.33"/>
<polygon fill="#63b8ff" stroke="#63b8ff" points="898.41,-161.83 899.68,-151.31 892.13,-158.74 898.41,-161.83"/>
</a>
</g>
</g>
<!-- Node3 -->
<g id="Node000003" class="node">
<title>Node3</title>
<g id="a_Node000003"><a xlink:title=" ">
<polygon fill="#e0e0e0" stroke="#999999" points="1790.5,-96 1651.5,-96 1651.5,-66 1790.5,-66 1790.5,-96"/>
<text text-anchor="start" x="1659.5" y="-84" font-family="Helvetica,sans-Serif" font-size="10.00">juce_audio_processors</text>
<text text-anchor="middle" x="1721" y="-73" font-family="Helvetica,sans-Serif" font-size="10.00">/juce_audio_processors.h</text>
</a>
</g>
</g>
<!-- Node2&#45;&gt;Node3 -->
<g id="edge2_Node000002_Node000003" class="edge">
<title>Node2&#45;&gt;Node3</title>
<g id="a_edge2_Node000002_Node000003"><a xlink:title=" ">
<path fill="none" stroke="#63b8ff" d="M1213.56,-249.14C1338.48,-245.89 1605.93,-235.62 1693,-206 1735.6,-191.51 1756.5,-190.53 1778,-151 1787.83,-132.94 1772.26,-115.11 1754.93,-102.1"/>
<polygon fill="#63b8ff" stroke="#63b8ff" points="1756.58,-98.99 1746.38,-96.12 1752.57,-104.72 1756.58,-98.99"/>
</a>
</g>
</g>
<!-- Node4 -->
<g id="Node000004" class="node">
<title>Node4</title>
<g id="a_Node000004"><a xlink:title=" ">
<polygon fill="#e0e0e0" stroke="#999999" points="1230,-30 1114,-30 1114,0 1230,0 1230,-30"/>
<text text-anchor="start" x="1122" y="-18" font-family="Helvetica,sans-Serif" font-size="10.00">juce_gui_basics/juce</text>
<text text-anchor="middle" x="1172" y="-7" font-family="Helvetica,sans-Serif" font-size="10.00">_gui_basics.h</text>
</a>
</g>
</g>
<!-- Node2&#45;&gt;Node4 -->
<g id="edge3_Node000002_Node000004" class="edge">
<title>Node2&#45;&gt;Node4</title>
<g id="a_edge3_Node000002_Node000004"><a xlink:title=" ">
<path fill="none" stroke="#63b8ff" d="M1213.8,-250.72C1439.03,-251.1 2177.96,-248.94 2411,-206 2485.36,-192.3 2528.02,-212.51 2572,-151 2593.97,-120.27 2598.23,-93.19 2572,-66 2525.34,-17.64 1515.59,-15.52 1240.61,-15.84"/>
<polygon fill="#63b8ff" stroke="#63b8ff" points="1240.37,-12.34 1230.37,-15.85 1240.38,-19.34 1240.37,-12.34"/>
</a>
</g>
</g>
<!-- Node5 -->
<g id="Node000005" class="node">
<title>Node5</title>
<g id="a_Node000005"><a xlink:href="DirektFooter_8h.html" target="_top" xlink:title=" ">
<polygon fill="white" stroke="#666666" points="478.5,-151 353.5,-151 353.5,-132 478.5,-132 478.5,-151"/>
<text text-anchor="middle" x="416" y="-139" font-family="Helvetica,sans-Serif" font-size="10.00">chrome/DirektFooter.h</text>
</a>
</g>
</g>
<!-- Node2&#45;&gt;Node5 -->
<g id="edge4_Node000002_Node000005" class="edge">
<title>Node2&#45;&gt;Node5</title>
<g id="a_edge4_Node000002_Node000005"><a xlink:title=" ">
<path fill="none" stroke="#63b8ff" d="M1082.17,-249.32C982.42,-246.54 787.42,-237.22 625,-206 560.97,-193.69 488.68,-169.27 448.1,-154.56"/>
<polygon fill="#63b8ff" stroke="#63b8ff" points="449.09,-151.2 438.49,-151.05 446.68,-157.77 449.09,-151.2"/>
</a>
</g>
</g>
<!-- Node6 -->
<g id="Node000006" class="node">
<title>Node6</title>
<g id="a_Node000006"><a xlink:href="DirektColours_8h.html" target="_top" xlink:title=" ">
<polygon fill="white" stroke="#666666" points="764.5,-90.5 637.5,-90.5 637.5,-71.5 764.5,-71.5 764.5,-90.5"/>
<text text-anchor="middle" x="701" y="-78.5" font-family="Helvetica,sans-Serif" font-size="10.00">theme/DirektColours.h</text>
</a>
</g>
</g>
<!-- Node2&#45;&gt;Node6 -->
<g id="edge65_Node000002_Node000006" class="edge">
<title>Node2&#45;&gt;Node6</title>
<g id="a_edge65_Node000002_Node000006"><a xlink:title=" ">
<path fill="none" stroke="#63b8ff" d="M1082.36,-245.97C968.81,-236.6 743.31,-210.78 696,-151 684.84,-136.9 688.44,-115.7 693.36,-100.53"/>
<polygon fill="#63b8ff" stroke="#63b8ff" points="696.79,-101.32 696.97,-90.73 690.23,-98.9 696.79,-101.32"/>
</a>
</g>
</g>
<!-- Node7 -->
<g id="Node000007" class="node">
<title>Node7</title>
<g id="a_Node000007"><a xlink:href="DirektHeader_8h.html" target="_top" xlink:title=" ">
<polygon fill="white" stroke="#666666" points="1113,-151 983,-151 983,-132 1113,-132 1113,-151"/>
<text text-anchor="middle" x="1048" y="-139" font-family="Helvetica,sans-Serif" font-size="10.00">chrome/DirektHeader.h</text>
</a>
</g>
</g>
<!-- Node2&#45;&gt;Node7 -->
<g id="edge8_Node000002_Node000007" class="edge">
<title>Node2&#45;&gt;Node7</title>
<g id="a_edge8_Node000002_Node000007"><a xlink:title=" ">
<path fill="none" stroke="#63b8ff" d="M1139.82,-241.66C1123.03,-223.54 1084.49,-181.91 1063.07,-158.77"/>
<polygon fill="#63b8ff" stroke="#63b8ff" points="1065.38,-156.12 1056.02,-151.16 1060.24,-160.87 1065.38,-156.12"/>
</a>
</g>
</g>
<!-- Node9 -->
<g id="Node000009" class="node">
<title>Node9</title>
<g id="a_Node000009"><a xlink:href="DirektPopupPanel_8h.html" target="_top" xlink:title=" ">
<polygon fill="white" stroke="#666666" points="649,-151 497,-151 497,-132 649,-132 649,-151"/>
<text text-anchor="middle" x="573" y="-139" font-family="Helvetica,sans-Serif" font-size="10.00">chrome/DirektPopupPanel.h</text>
</a>
</g>
</g>
<!-- Node2&#45;&gt;Node9 -->
<g id="edge13_Node000002_Node000009" class="edge">
<title>Node2&#45;&gt;Node9</title>
<g id="a_edge13_Node000002_Node000009"><a xlink:title=" ">
<path fill="none" stroke="#63b8ff" d="M1082.49,-248.67C968.42,-244.8 738.28,-233.73 663,-206 634.32,-195.43 606.37,-173.31 589.41,-158.17"/>
<polygon fill="#63b8ff" stroke="#63b8ff" points="591.76,-155.57 582.02,-151.39 587.02,-160.73 591.76,-155.57"/>
</a>
</g>
</g>
<!-- Node10 -->
<g id="Node000010" class="node">
<title>Node10</title>
<g id="a_Node000010"><a xlink:href="DirektPresetBrowser_8h.html" target="_top" xlink:title=" ">
<polygon fill="white" stroke="#666666" points="335.5,-151 170.5,-151 170.5,-132 335.5,-132 335.5,-151"/>
<text text-anchor="middle" x="253" y="-139" font-family="Helvetica,sans-Serif" font-size="10.00">chrome/DirektPresetBrowser.h</text>
</a>
</g>
</g>
<!-- Node2&#45;&gt;Node10 -->
<g id="edge16_Node000002_Node000010" class="edge">
<title>Node2&#45;&gt;Node10</title>
<g id="a_edge16_Node000002_Node000010"><a xlink:title=" ">
<path fill="none" stroke="#63b8ff" d="M1082.2,-248.64C971.15,-244.83 739.7,-234.01 546,-206 455.8,-192.96 351.91,-168.05 295.26,-153.61"/>
<polygon fill="#63b8ff" stroke="#63b8ff" points="295.81,-150.13 285.25,-151.04 294.07,-156.91 295.81,-150.13"/>
</a>
</g>
</g>
<!-- Node12 -->
<g id="Node000012" class="node">
<title>Node12</title>
<g id="a_Node000012"><a xlink:href="DirektConfig_8h.html" target="_top" xlink:title=" ">
<polygon fill="white" stroke="#666666" points="824.5,-151 705.5,-151 705.5,-132 824.5,-132 824.5,-151"/>
<text text-anchor="middle" x="765" y="-139" font-family="Helvetica,sans-Serif" font-size="10.00">config/DirektConfig.h</text>
</a>
</g>
</g>
<!-- Node2&#45;&gt;Node12 -->
<g id="edge21_Node000002_Node000012" class="edge">
<title>Node2&#45;&gt;Node12</title>
<g id="a_edge21_Node000002_Node000012"><a xlink:title=" ">
<path fill="none" stroke="#63b8ff" d="M1117.63,-241.94C1049.05,-222.6 882.22,-175.55 805.19,-153.83"/>
<polygon fill="#63b8ff" stroke="#63b8ff" points="805.95,-150.41 795.38,-151.07 804.05,-157.15 805.95,-150.41"/>
</a>
</g>
</g>
<!-- Node13 -->
<g id="Node000013" class="node">
<title>Node13</title>
<g id="a_Node000013"><a xlink:href="DirektDescriptors_8h.html" target="_top" xlink:title=" ">
<polygon fill="white" stroke="#666666" points="2562.5,-151 2419.5,-151 2419.5,-132 2562.5,-132 2562.5,-151"/>
<text text-anchor="middle" x="2491" y="-139" font-family="Helvetica,sans-Serif" font-size="10.00">config/DirektDescriptors.h</text>
</a>
</g>
</g>
<!-- Node2&#45;&gt;Node13 -->
<g id="edge24_Node000002_Node000013" class="edge">
<title>Node2&#45;&gt;Node13</title>
<g id="a_edge24_Node000002_Node000013"><a xlink:title=" ">
<path fill="none" stroke="#63b8ff" d="M1213.62,-249.87C1451.71,-247.35 2262.03,-236.6 2374,-206 2410.84,-195.93 2448.86,-172.41 2471.2,-156.99"/>
<polygon fill="#63b8ff" stroke="#63b8ff" points="2473.34,-159.76 2479.49,-151.14 2469.3,-154.04 2473.34,-159.76"/>
</a>
</g>
</g>
<!-- Node18 -->
<g id="Node000018" class="node">
<title>Node18</title>
<g id="a_Node000018"><a xlink:href="DirektAutoLayout_8h.html" target="_top" xlink:title=" ">
<polygon fill="white" stroke="#666666" points="1683.5,-206 1548.5,-206 1548.5,-187 1683.5,-187 1683.5,-206"/>
<text text-anchor="middle" x="1616" y="-194" font-family="Helvetica,sans-Serif" font-size="10.00">core/DirektAutoLayout.h</text>
</a>
</g>
</g>
<!-- Node2&#45;&gt;Node18 -->
<g id="edge30_Node000002_Node000018" class="edge">
<title>Node2&#45;&gt;Node18</title>
<g id="a_edge30_Node000002_Node000018"><a xlink:title=" ">
<path fill="none" stroke="#63b8ff" d="M1213.57,-243.07C1298.8,-233.42 1447.44,-216.59 1538.26,-206.3"/>
<polygon fill="#63b8ff" stroke="#63b8ff" points="1538.68,-209.78 1548.22,-205.18 1537.89,-202.82 1538.68,-209.78"/>
</a>
</g>
</g>
<!-- Node23 -->
<g id="Node000023" class="node">
<title>Node23</title>
<g id="a_Node000023"><a xlink:href="DirektSection_8h.html" target="_top" xlink:title=" ">
<polygon fill="white" stroke="#666666" points="1256.5,-151 1131.5,-151 1131.5,-132 1256.5,-132 1256.5,-151"/>
<text text-anchor="middle" x="1194" y="-139" font-family="Helvetica,sans-Serif" font-size="10.00">layout/DirektSection.h</text>
</a>
</g>
</g>
<!-- Node2&#45;&gt;Node23 -->
<g id="edge64_Node000002_Node000023" class="edge">
<title>Node2&#45;&gt;Node23</title>
<g id="a_edge64_Node000002_Node000023"><a xlink:title=" ">
<path fill="none" stroke="#63b8ff" d="M1151.76,-241.66C1159.28,-224.01 1176.29,-184.09 1186.28,-160.64"/>
<polygon fill="#63b8ff" stroke="#63b8ff" points="1189.61,-161.73 1190.31,-151.16 1183.17,-158.99 1189.61,-161.73"/>
</a>
</g>
</g>
<!-- Node24 -->
<g id="Node000024" class="node">
<title>Node24</title>
<g id="a_Node000024"><a xlink:href="DirektBuildContext_8h.html" target="_top" xlink:title=" ">
<polygon fill="white" stroke="#666666" points="2028.5,-151 1885.5,-151 1885.5,-132 2028.5,-132 2028.5,-151"/>
<text text-anchor="middle" x="1957" y="-139" font-family="Helvetica,sans-Serif" font-size="10.00">core/DirektBuildContext.h</text>
</a>
</g>
</g>
<!-- Node2&#45;&gt;Node24 -->
<g id="edge48_Node000002_Node000024" class="edge">
<title>Node2&#45;&gt;Node24</title>
<g id="a_edge48_Node000002_Node000024"><a xlink:title=" ">
<path fill="none" stroke="#63b8ff" d="M1213.57,-251.18C1368.13,-252.03 1751.26,-249.54 1871,-206 1898.92,-195.85 1925.56,-173.56 1941.59,-158.28"/>
<polygon fill="#63b8ff" stroke="#63b8ff" points="1944.28,-160.54 1948.96,-151.04 1939.38,-155.55 1944.28,-160.54"/>
</a>
</g>
</g>
<!-- Node26 -->
<g id="Node000026" class="node">
<title>Node26</title>
<g id="a_Node000026"><a xlink:href="DirektComponentRegistry_8h.html" target="_top" xlink:title=" ">
<polygon fill="white" stroke="#666666" points="2364.5,-206 2189.5,-206 2189.5,-187 2364.5,-187 2364.5,-206"/>
<text text-anchor="middle" x="2277" y="-194" font-family="Helvetica,sans-Serif" font-size="10.00">core/DirektComponentRegistry.h</text>
</a>
</g>
</g>
<!-- Node2&#45;&gt;Node26 -->
<g id="edge52_Node000002_Node000026" class="edge">
<title>Node2&#45;&gt;Node26</title>
<g id="a_edge52_Node000002_Node000026"><a xlink:title=" ">
<path fill="none" stroke="#63b8ff" d="M1213.58,-247.42C1403.38,-238.51 1953.99,-212.66 2179.22,-202.09"/>
<polygon fill="#63b8ff" stroke="#63b8ff" points="2179.55,-205.58 2189.38,-201.61 2179.22,-198.59 2179.55,-205.58"/>
</a>
</g>
</g>
<!-- Node27 -->
<g id="Node000027" class="node">
<title>Node27</title>
<g id="a_Node000027"><a xlink:href="DirektParameterHistory_8h.html" target="_top" xlink:title=" ">
<polygon fill="white" stroke="#666666" points="2211,-151 2047,-151 2047,-132 2211,-132 2211,-151"/>
<text text-anchor="middle" x="2129" y="-139" font-family="Helvetica,sans-Serif" font-size="10.00">core/DirektParameterHistory.h</text>
</a>
</g>
</g>
<!-- Node2&#45;&gt;Node27 -->
<g id="edge61_Node000002_Node000027" class="edge">
<title>Node2&#45;&gt;Node27</title>
<g id="a_edge61_Node000002_Node000027"><a xlink:title=" ">
<path fill="none" stroke="#63b8ff" d="M1213.74,-251.29C1345.23,-251.83 1649.6,-247.95 1901,-206 1971.31,-194.27 2051.04,-169.27 2095.12,-154.38"/>
<polygon fill="#63b8ff" stroke="#63b8ff" points="2096.42,-157.64 2104.76,-151.1 2094.16,-151.01 2096.42,-157.64"/>
</a>
</g>
</g>
<!-- Node28 -->
<g id="Node000028" class="node">
<title>Node28</title>
<g id="a_Node000028"><a xlink:href="DirektLookAndFeel_8h.html" target="_top" xlink:title=" ">
<polygon fill="white" stroke="#666666" points="152,-151 0,-151 0,-132 152,-132 152,-151"/>
<text text-anchor="middle" x="76" y="-139" font-family="Helvetica,sans-Serif" font-size="10.00">theme/DirektLookAndFeel.h</text>
</a>
</g>
</g>
<!-- Node2&#45;&gt;Node28 -->
<g id="edge66_Node000002_Node000028" class="edge">
<title>Node2&#45;&gt;Node28</title>
<g id="a_edge66_Node000002_Node000028"><a xlink:title=" ">
<path fill="none" stroke="#63b8ff" d="M1082.1,-248.83C956.31,-245.1 673.42,-234.1 437,-206 325.2,-192.71 195.52,-167.46 126.06,-153.13"/>
<polygon fill="#63b8ff" stroke="#63b8ff" points="126.35,-149.62 115.85,-151.01 124.93,-156.47 126.35,-149.62"/>
</a>
</g>
</g>
<!-- Node5&#45;&gt;Node4 -->
<g id="edge5_Node000005_Node000004" class="edge">
<title>Node5&#45;&gt;Node4</title>
<g id="a_edge5_Node000005_Node000004"><a xlink:title=" ">
<path fill="none" stroke="#63b8ff" d="M431.63,-131.99C461.93,-115.95 531.22,-81.45 594,-66 774.02,-21.69 993.97,-15.25 1103.37,-15.13"/>
<polygon fill="#63b8ff" stroke="#63b8ff" points="1103.61,-18.63 1113.61,-15.14 1103.61,-11.63 1103.61,-18.63"/>
</a>
</g>
</g>
<!-- Node5&#45;&gt;Node6 -->
<g id="edge6_Node000005_Node000006" class="edge">
<title>Node5&#45;&gt;Node6</title>
<g id="a_edge6_Node000005_Node000006"><a xlink:title=" ">
<path fill="none" stroke="#63b8ff" d="M457.44,-131.99C508.31,-121.55 594.57,-103.85 649.61,-92.55"/>
<polygon fill="#63b8ff" stroke="#63b8ff" points="650.42,-95.96 659.51,-90.52 649.01,-89.1 650.42,-95.96"/>
</a>
</g>
</g>
<!-- Node6&#45;&gt;Node4 -->
<g id="edge7_Node000006_Node000004" class="edge">
<title>Node6&#45;&gt;Node4</title>
<g id="a_edge7_Node000006_Node000004"><a xlink:title=" ">
<path fill="none" stroke="#63b8ff" d="M764.03,-71.44C852.46,-59.42 1012.71,-37.64 1103.83,-25.26"/>
<polygon fill="#63b8ff" stroke="#63b8ff" points="1104.34,-28.73 1113.78,-23.91 1103.4,-21.79 1104.34,-28.73"/>
</a>
</g>
</g>
<!-- Node7&#45;&gt;Node3 -->
<g id="edge9_Node000007_Node000003" class="edge">
<title>Node7&#45;&gt;Node3</title>
<g id="a_edge9_Node000007_Node000003"><a xlink:title=" ">
<path fill="none" stroke="#63b8ff" d="M1113.03,-132.98C1116.4,-132.63 1119.74,-132.31 1123,-132 1336.43,-111.93 1390.63,-116.74 1604,-96 1616.13,-94.82 1628.95,-93.43 1641.48,-92"/>
<polygon fill="#63b8ff" stroke="#63b8ff" points="1641.93,-95.47 1651.45,-90.84 1641.12,-88.52 1641.93,-95.47"/>
</a>
</g>
</g>
<!-- Node7&#45;&gt;Node4 -->
<g id="edge10_Node000007_Node000004" class="edge">
<title>Node7&#45;&gt;Node4</title>
<g id="a_edge10_Node000007_Node000004"><a xlink:title=" ">
<path fill="none" stroke="#63b8ff" d="M1056.52,-131.94C1075.73,-112.66 1122.87,-65.33 1150.62,-37.46"/>
<polygon fill="#63b8ff" stroke="#63b8ff" points="1153.32,-39.72 1157.9,-30.16 1148.36,-34.78 1153.32,-39.72"/>
</a>
</g>
</g>
<!-- Node7&#45;&gt;Node6 -->
<g id="edge12_Node000007_Node000006" class="edge">
<title>Node7&#45;&gt;Node6</title>
<g id="a_edge12_Node000007_Node000006"><a xlink:title=" ">
<path fill="none" stroke="#63b8ff" d="M997.54,-131.99C934.97,-121.44 828.39,-103.48 761.5,-92.2"/>
<polygon fill="#63b8ff" stroke="#63b8ff" points="761.96,-88.73 751.52,-90.52 760.8,-95.63 761.96,-88.73"/>
</a>
</g>
</g>
<!-- Node8 -->
<g id="Node000008" class="node">
<title>Node8</title>
<g id="a_Node000008"><a xlink:title=" ">
<polygon fill="#e0e0e0" stroke="#999999" points="1080.5,-90.5 1015.5,-90.5 1015.5,-71.5 1080.5,-71.5 1080.5,-90.5"/>
<text text-anchor="middle" x="1048" y="-78.5" font-family="Helvetica,sans-Serif" font-size="10.00">functional</text>
</a>
</g>
</g>
<!-- Node7&#45;&gt;Node8 -->
<g id="edge11_Node000007_Node000008" class="edge">
<title>Node7&#45;&gt;Node8</title>
<g id="a_edge11_Node000007_Node000008"><a xlink:title=" ">
<path fill="none" stroke="#63b8ff" d="M1048,-131.87C1048,-123.75 1048,-111.31 1048,-100.89"/>
<polygon fill="#63b8ff" stroke="#63b8ff" points="1051.5,-100.67 1048,-90.67 1044.5,-100.67 1051.5,-100.67"/>
</a>
</g>
</g>
<!-- Node9&#45;&gt;Node4 -->
<g id="edge14_Node000009_Node000004" class="edge">
<title>Node9&#45;&gt;Node4</title>
<g id="a_edge14_Node000009_Node000004"><a xlink:title=" ">
<path fill="none" stroke="#63b8ff" d="M576.55,-131.7C583.62,-115.48 601.11,-81.16 628,-66 707.74,-21.06 976.5,-15.46 1103.91,-15.43"/>
<polygon fill="#63b8ff" stroke="#63b8ff" points="1103.94,-18.93 1113.94,-15.44 1103.95,-11.93 1103.94,-18.93"/>
</a>
</g>
</g>
<!-- Node9&#45;&gt;Node6 -->
<g id="edge15_Node000009_Node000006" class="edge">
<title>Node9&#45;&gt;Node6</title>
<g id="a_edge15_Node000009_Node000006"><a xlink:title=" ">
<path fill="none" stroke="#63b8ff" d="M591.61,-131.99C613.04,-122.2 648.44,-106.02 673.15,-94.73"/>
<polygon fill="#63b8ff" stroke="#63b8ff" points="674.72,-97.86 682.37,-90.52 671.82,-91.49 674.72,-97.86"/>
</a>
</g>
</g>
<!-- Node10&#45;&gt;Node4 -->
<g id="edge17_Node000010_Node000004" class="edge">
<title>Node10&#45;&gt;Node4</title>
<g id="a_edge17_Node000010_Node000004"><a xlink:title=" ">
<path fill="none" stroke="#63b8ff" d="M275.97,-131.95C319.93,-115.98 419.29,-81.84 506,-66 721.57,-26.63 981.83,-18.14 1103.31,-16.39"/>
<polygon fill="#63b8ff" stroke="#63b8ff" points="1103.62,-19.89 1113.57,-16.25 1103.52,-12.89 1103.62,-19.89"/>
</a>
</g>
</g>
<!-- Node10&#45;&gt;Node6 -->
<g id="edge20_Node000010_Node000006" class="edge">
<title>Node10&#45;&gt;Node6</title>
<g id="a_edge20_Node000010_Node000006"><a xlink:title=" ">
<path fill="none" stroke="#63b8ff" d="M318.14,-131.99C400.31,-121.26 541.24,-102.86 627.27,-91.63"/>
<polygon fill="#63b8ff" stroke="#63b8ff" points="627.77,-95.09 637.23,-90.33 626.86,-88.15 627.77,-95.09"/>
</a>
</g>
</g>
<!-- Node10&#45;&gt;Node8 -->
<g id="edge18_Node000010_Node000008" class="edge">
<title>Node10&#45;&gt;Node8</title>
<g id="a_edge18_Node000010_Node000008"><a xlink:title=" ">
<path fill="none" stroke="#63b8ff" d="M335.82,-132.69C338.58,-132.45 341.31,-132.22 344,-132 594.5,-111.41 895.58,-91.71 1005.33,-84.7"/>
<polygon fill="#63b8ff" stroke="#63b8ff" points="1005.59,-88.19 1015.35,-84.06 1005.15,-81.2 1005.59,-88.19"/>
</a>
</g>
</g>
<!-- Node11 -->
<g id="Node000011" class="node">
<title>Node11</title>
<g id="a_Node000011"><a xlink:title=" ">
<polygon fill="#e0e0e0" stroke="#999999" points="296,-90.5 210,-90.5 210,-71.5 296,-71.5 296,-90.5"/>
<text text-anchor="middle" x="253" y="-78.5" font-family="Helvetica,sans-Serif" font-size="10.00">unordered_set</text>
</a>
</g>
</g>
<!-- Node10&#45;&gt;Node11 -->
<g id="edge19_Node000010_Node000011" class="edge">
<title>Node10&#45;&gt;Node11</title>
<g id="a_edge19_Node000010_Node000011"><a xlink:title=" ">
<path fill="none" stroke="#63b8ff" d="M253,-131.87C253,-123.75 253,-111.31 253,-100.89"/>
<polygon fill="#63b8ff" stroke="#63b8ff" points="256.5,-100.67 253,-90.67 249.5,-100.67 256.5,-100.67"/>
</a>
</g>
</g>
<!-- Node12&#45;&gt;Node4 -->
<g id="edge22_Node000012_Node000004" class="edge">
<title>Node12&#45;&gt;Node4</title>
<g id="a_edge22_Node000012_Node000004"><a xlink:title=" ">
<path fill="none" stroke="#63b8ff" d="M784.09,-131.93C817.95,-116.97 891.03,-85.79 955,-66 1004.17,-50.79 1060.88,-37.87 1104,-28.98"/>
<polygon fill="#63b8ff" stroke="#63b8ff" points="1104.72,-32.41 1113.82,-26.98 1103.32,-25.55 1104.72,-32.41"/>
</a>
</g>
</g>
<!-- Node12&#45;&gt;Node6 -->
<g id="edge23_Node000012_Node000006" class="edge">
<title>Node12&#45;&gt;Node6</title>
<g id="a_edge23_Node000012_Node000006"><a xlink:title=" ">
<path fill="none" stroke="#63b8ff" d="M755.56,-131.87C745.73,-122.88 730.11,-108.61 718.11,-97.64"/>
<polygon fill="#63b8ff" stroke="#63b8ff" points="720.22,-94.83 710.48,-90.67 715.5,-100 720.22,-94.83"/>
</a>
</g>
</g>
<!-- Node13&#45;&gt;Node4 -->
<g id="edge25_Node000013_Node000004" class="edge">
<title>Node13&#45;&gt;Node4</title>
<g id="a_edge25_Node000013_Node000004"><a xlink:title=" ">
<path fill="none" stroke="#63b8ff" d="M2490.78,-131.78C2489.85,-115.7 2485.33,-81.58 2464,-66 2414.28,-29.68 1500.45,-18.89 1240.47,-16.55"/>
<polygon fill="#63b8ff" stroke="#63b8ff" points="1240.44,-13.05 1230.41,-16.46 1240.37,-20.05 1240.44,-13.05"/>
</a>
</g>
</g>
<!-- Node14 -->
<g id="Node000014" class="node">
<title>Node14</title>
<g id="a_Node000014"><a xlink:title=" ">
<polygon fill="#e0e0e0" stroke="#999999" points="2389,-90.5 2351,-90.5 2351,-71.5 2389,-71.5 2389,-90.5"/>
<text text-anchor="middle" x="2370" y="-78.5" font-family="Helvetica,sans-Serif" font-size="10.00">map</text>
</a>
</g>
</g>
<!-- Node13&#45;&gt;Node14 -->
<g id="edge26_Node000013_Node000014" class="edge">
<title>Node13&#45;&gt;Node14</title>
<g id="a_edge26_Node000013_Node000014"><a xlink:title=" ">
<path fill="none" stroke="#63b8ff" d="M2473.41,-131.99C2453.24,-122.25 2419.98,-106.16 2396.64,-94.88"/>
<polygon fill="#63b8ff" stroke="#63b8ff" points="2398.14,-91.72 2387.62,-90.52 2395.1,-98.02 2398.14,-91.72"/>
</a>
</g>
</g>
<!-- Node15 -->
<g id="Node000015" class="node">
<title>Node15</title>
<g id="a_Node000015"><a xlink:title=" ">
<polygon fill="#e0e0e0" stroke="#999999" points="2333,-90.5 2275,-90.5 2275,-71.5 2333,-71.5 2333,-90.5"/>
<text text-anchor="middle" x="2304" y="-78.5" font-family="Helvetica,sans-Serif" font-size="10.00">memory</text>
</a>
</g>
</g>
<!-- Node13&#45;&gt;Node15 -->
<g id="edge27_Node000013_Node000015" class="edge">
<title>Node13&#45;&gt;Node15</title>
<g id="a_edge27_Node000013_Node000015"><a xlink:title=" ">
<path fill="none" stroke="#63b8ff" d="M2460.29,-131.94C2430.04,-123.36 2382.6,-109.53 2342,-96 2340.1,-95.37 2338.15,-94.7 2336.19,-94.02"/>
<polygon fill="#63b8ff" stroke="#63b8ff" points="2337.02,-90.6 2326.42,-90.53 2334.66,-97.19 2337.02,-90.6"/>
</a>
</g>
</g>
<!-- Node16 -->
<g id="Node000016" class="node">
<title>Node16</title>
<g id="a_Node000016"><a xlink:title=" ">
<polygon fill="#e0e0e0" stroke="#999999" points="2562.5,-90.5 2511.5,-90.5 2511.5,-71.5 2562.5,-71.5 2562.5,-90.5"/>
<text text-anchor="middle" x="2537" y="-78.5" font-family="Helvetica,sans-Serif" font-size="10.00">variant</text>
</a>
</g>
</g>
<!-- Node13&#45;&gt;Node16 -->
<g id="edge28_Node000013_Node000016" class="edge">
<title>Node13&#45;&gt;Node16</title>
<g id="a_edge28_Node000013_Node000016"><a xlink:title=" ">
<path fill="none" stroke="#63b8ff" d="M2497.79,-131.87C2504.65,-123.14 2515.43,-109.43 2523.95,-98.59"/>
<polygon fill="#63b8ff" stroke="#63b8ff" points="2526.75,-100.69 2530.18,-90.67 2521.25,-96.36 2526.75,-100.69"/>
</a>
</g>
</g>
<!-- Node17 -->
<g id="Node000017" class="node">
<title>Node17</title>
<g id="a_Node000017"><a xlink:title=" ">
<polygon fill="#e0e0e0" stroke="#999999" points="2454.5,-90.5 2407.5,-90.5 2407.5,-71.5 2454.5,-71.5 2454.5,-90.5"/>
<text text-anchor="middle" x="2431" y="-78.5" font-family="Helvetica,sans-Serif" font-size="10.00">vector</text>
</a>
</g>
</g>
<!-- Node13&#45;&gt;Node17 -->
<g id="edge29_Node000013_Node000017" class="edge">
<title>Node13&#45;&gt;Node17</title>
<g id="a_edge29_Node000013_Node000017"><a xlink:title=" ">
<path fill="none" stroke="#63b8ff" d="M2482.15,-131.87C2473.02,-122.97 2458.58,-108.89 2447.36,-97.95"/>
<polygon fill="#63b8ff" stroke="#63b8ff" points="2449.49,-95.14 2439.89,-90.67 2444.61,-100.15 2449.49,-95.14"/>
</a>
</g>
</g>
<!-- Node18&#45;&gt;Node3 -->
<g id="edge31_Node000018_Node000003" class="edge">
<title>Node18&#45;&gt;Node3</title>
<g id="a_edge31_Node000018_Node000003"><a xlink:title=" ">
<path fill="none" stroke="#63b8ff" d="M1683.58,-192.16C1712.56,-186.96 1743.86,-175.49 1762,-151 1773.37,-135.65 1760.8,-116.95 1746.68,-102.89"/>
<polygon fill="#63b8ff" stroke="#63b8ff" points="1748.97,-100.25 1739.26,-96.01 1744.21,-105.38 1748.97,-100.25"/>
</a>
</g>
</g>
<!-- Node18&#45;&gt;Node4 -->
<g id="edge32_Node000018_Node000004" class="edge">
<title>Node18&#45;&gt;Node4</title>
<g id="a_edge32_Node000018_Node000004"><a xlink:title=" ">
<path fill="none" stroke="#63b8ff" d="M1683.69,-190.71C1715.6,-185.27 1752.23,-174.03 1778,-151 1807.1,-125 1826.48,-94.67 1800,-66 1762.64,-25.55 1395.48,-17.8 1240.48,-16.33"/>
<polygon fill="#63b8ff" stroke="#63b8ff" points="1240.17,-12.83 1230.14,-16.24 1240.11,-19.83 1240.17,-12.83"/>
</a>
</g>
</g>
<!-- Node18&#45;&gt;Node13 -->
<g id="edge33_Node000018_Node000013" class="edge">
<title>Node18&#45;&gt;Node13</title>
<g id="a_edge33_Node000018_Node000013"><a xlink:title=" ">
<path fill="none" stroke="#63b8ff" d="M1683.57,-191.41C1842.16,-181.8 2237.75,-157.84 2409.39,-147.44"/>
<polygon fill="#63b8ff" stroke="#63b8ff" points="2409.61,-150.94 2419.38,-146.84 2409.19,-143.95 2409.61,-150.94"/>
</a>
</g>
</g>
<!-- Node19 -->
<g id="Node000019" class="node">
<title>Node19</title>
<g id="a_Node000019"><a xlink:href="DirektComboBox_8h.html" target="_top" xlink:title=" ">
<polygon fill="white" stroke="#666666" points="1464.5,-151 1313.5,-151 1313.5,-132 1464.5,-132 1464.5,-151"/>
<text text-anchor="middle" x="1389" y="-139" font-family="Helvetica,sans-Serif" font-size="10.00">controls/DirektComboBox.h</text>
</a>
</g>
</g>
<!-- Node18&#45;&gt;Node19 -->
<g id="edge34_Node000018_Node000019" class="edge">
<title>Node18&#45;&gt;Node19</title>
<g id="a_edge34_Node000018_Node000019"><a xlink:title=" ">
<path fill="none" stroke="#63b8ff" d="M1579.53,-186.98C1540.43,-177.86 1478.23,-163.33 1435.61,-153.38"/>
<polygon fill="#63b8ff" stroke="#63b8ff" points="1436.29,-149.95 1425.76,-151.08 1434.7,-156.76 1436.29,-149.95"/>
</a>
</g>
</g>
<!-- Node20 -->
<g id="Node000020" class="node">
<title>Node20</title>
<g id="a_Node000020"><a xlink:href="DirektKnob_8h.html" target="_top" xlink:title=" ">
<polygon fill="white" stroke="#666666" points="1605,-151 1483,-151 1483,-132 1605,-132 1605,-151"/>
<text text-anchor="middle" x="1544" y="-139" font-family="Helvetica,sans-Serif" font-size="10.00">controls/DirektKnob.h</text>
</a>
</g>
</g>
<!-- Node18&#45;&gt;Node20 -->
<g id="edge37_Node000018_Node000020" class="edge">
<title>Node18&#45;&gt;Node20</title>
<g id="a_edge37_Node000018_Node000020"><a xlink:title=" ">
<path fill="none" stroke="#63b8ff" d="M1604.43,-186.98C1593.58,-179 1577.12,-166.88 1564.12,-157.31"/>
<polygon fill="#63b8ff" stroke="#63b8ff" points="1565.91,-154.28 1555.78,-151.17 1561.76,-159.92 1565.91,-154.28"/>
</a>
</g>
</g>
<!-- Node22 -->
<g id="Node000022" class="node">
<title>Node22</title>
<g id="a_Node000022"><a xlink:href="DirektToggle_8h.html" target="_top" xlink:title=" ">
<polygon fill="white" stroke="#666666" points="1752.5,-151 1623.5,-151 1623.5,-132 1752.5,-132 1752.5,-151"/>
<text text-anchor="middle" x="1688" y="-139" font-family="Helvetica,sans-Serif" font-size="10.00">controls/DirektToggle.h</text>
</a>
</g>
</g>
<!-- Node18&#45;&gt;Node22 -->
<g id="edge41_Node000018_Node000022" class="edge">
<title>Node18&#45;&gt;Node22</title>
<g id="a_edge41_Node000018_Node000022"><a xlink:title=" ">
<path fill="none" stroke="#63b8ff" d="M1627.57,-186.98C1638.42,-179 1654.88,-166.88 1667.88,-157.31"/>
<polygon fill="#63b8ff" stroke="#63b8ff" points="1670.24,-159.92 1676.22,-151.17 1666.09,-154.28 1670.24,-159.92"/>
</a>
</g>
</g>
<!-- Node18&#45;&gt;Node23 -->
<g id="edge44_Node000018_Node000023" class="edge">
<title>Node18&#45;&gt;Node23</title>
<g id="a_edge44_Node000018_Node000023"><a xlink:title=" ">
<path fill="none" stroke="#63b8ff" d="M1548.2,-186.98C1471.27,-177.32 1346.26,-161.62 1267.18,-151.69"/>
<polygon fill="#63b8ff" stroke="#63b8ff" points="1267.17,-148.16 1256.81,-150.39 1266.3,-155.11 1267.17,-148.16"/>
</a>
</g>
</g>
<!-- Node19&#45;&gt;Node3 -->
<g id="edge35_Node000019_Node000003" class="edge">
<title>Node19&#45;&gt;Node3</title>
<g id="a_edge35_Node000019_Node000003"><a xlink:title=" ">
<path fill="none" stroke="#63b8ff" d="M1437.28,-131.99C1490.71,-122.58 1577.67,-107.26 1641.25,-96.05"/>
<polygon fill="#63b8ff" stroke="#63b8ff" points="1642,-99.47 1651.25,-94.29 1640.79,-92.58 1642,-99.47"/>
</a>
</g>
</g>
<!-- Node19&#45;&gt;Node4 -->
<g id="edge36_Node000019_Node000004" class="edge">
<title>Node19&#45;&gt;Node4</title>
<g id="a_edge36_Node000019_Node000004"><a xlink:title=" ">
<path fill="none" stroke="#63b8ff" d="M1374.08,-131.94C1339.54,-112.12 1253.35,-62.67 1205.44,-35.19"/>
<polygon fill="#63b8ff" stroke="#63b8ff" points="1207.1,-32.1 1196.68,-30.16 1203.61,-38.17 1207.1,-32.1"/>
</a>
</g>
</g>
<!-- Node20&#45;&gt;Node3 -->
<g id="edge38_Node000020_Node000003" class="edge">
<title>Node20&#45;&gt;Node3</title>
<g id="a_edge38_Node000020_Node000003"><a xlink:title=" ">
<path fill="none" stroke="#63b8ff" d="M1569.74,-131.99C1595.54,-123.46 1636.02,-110.09 1668.61,-99.32"/>
<polygon fill="#63b8ff" stroke="#63b8ff" points="1670.05,-102.53 1678.45,-96.06 1667.85,-95.88 1670.05,-102.53"/>
</a>
</g>
</g>
<!-- Node20&#45;&gt;Node4 -->
<g id="edge39_Node000020_Node000004" class="edge">
<title>Node20&#45;&gt;Node4</title>
<g id="a_edge39_Node000020_Node000004"><a xlink:title=" ">
<path fill="none" stroke="#63b8ff" d="M1518.43,-131.94C1457.9,-111.69 1304.88,-60.47 1223.98,-33.4"/>
<polygon fill="#63b8ff" stroke="#63b8ff" points="1224.6,-29.91 1214.01,-30.06 1222.38,-36.55 1224.6,-29.91"/>
</a>
</g>
</g>
<!-- Node21 -->
<g id="Node000021" class="node">
<title>Node21</title>
<g id="a_Node000021"><a xlink:title=" ">
<polygon fill="#e0e0e0" stroke="#999999" points="1527,-90.5 1471,-90.5 1471,-71.5 1527,-71.5 1527,-90.5"/>
<text text-anchor="middle" x="1499" y="-78.5" font-family="Helvetica,sans-Serif" font-size="10.00">optional</text>
</a>
</g>
</g>
<!-- Node20&#45;&gt;Node21 -->
<g id="edge40_Node000020_Node000021" class="edge">
<title>Node20&#45;&gt;Node21</title>
<g id="a_edge40_Node000020_Node000021"><a xlink:title=" ">
<path fill="none" stroke="#63b8ff" d="M1537.36,-131.87C1530.71,-123.23 1520.31,-109.7 1512.01,-98.92"/>
<polygon fill="#63b8ff" stroke="#63b8ff" points="1514.54,-96.46 1505.67,-90.67 1508.99,-100.73 1514.54,-96.46"/>
</a>
</g>
</g>
<!-- Node22&#45;&gt;Node3 -->
<g id="edge42_Node000022_Node000003" class="edge">
<title>Node22&#45;&gt;Node3</title>
<g id="a_edge42_Node000022_Node000003"><a xlink:title=" ">
<path fill="none" stroke="#63b8ff" d="M1692.87,-131.87C1696.85,-124.81 1702.67,-114.5 1707.98,-105.08"/>
<polygon fill="#63b8ff" stroke="#63b8ff" points="1711.17,-106.54 1713.04,-96.11 1705.08,-103.1 1711.17,-106.54"/>
</a>
</g>
</g>
<!-- Node22&#45;&gt;Node4 -->
<g id="edge43_Node000022_Node000004" class="edge">
<title>Node22&#45;&gt;Node4</title>
<g id="a_edge43_Node000022_Node000004"><a xlink:title=" ">
<path fill="none" stroke="#63b8ff" d="M1679.73,-131.97C1662.23,-114.13 1621.62,-73.88 1604,-66 1540.63,-37.67 1345.42,-24.24 1240.46,-18.92"/>
<polygon fill="#63b8ff" stroke="#63b8ff" points="1240.44,-15.42 1230.28,-18.42 1240.09,-22.41 1240.44,-15.42"/>
</a>
</g>
</g>
<!-- Node23&#45;&gt;Node4 -->
<g id="edge45_Node000023_Node000004" class="edge">
<title>Node23&#45;&gt;Node4</title>
<g id="a_edge45_Node000023_Node000004"><a xlink:title=" ">
<path fill="none" stroke="#63b8ff" d="M1192.49,-131.94C1189.18,-113.24 1181.21,-68.13 1176.24,-40.01"/>
<polygon fill="#63b8ff" stroke="#63b8ff" points="1179.69,-39.4 1174.5,-30.16 1172.8,-40.62 1179.69,-39.4"/>
</a>
</g>
</g>
<!-- Node23&#45;&gt;Node6 -->
<g id="edge47_Node000023_Node000006" class="edge">
<title>Node23&#45;&gt;Node6</title>
<g id="a_edge47_Node000023_Node000006"><a xlink:title=" ">
<path fill="none" stroke="#63b8ff" d="M1131.31,-133.06C1040.26,-122.26 871.75,-102.26 774.82,-90.76"/>
<polygon fill="#63b8ff" stroke="#63b8ff" points="775.15,-87.27 764.81,-89.57 774.33,-94.23 775.15,-87.27"/>
</a>
</g>
</g>
<!-- Node23&#45;&gt;Node15 -->
<g id="edge46_Node000023_Node000015" class="edge">
<title>Node23&#45;&gt;Node15</title>
<g id="a_edge46_Node000023_Node000015"><a xlink:title=" ">
<path fill="none" stroke="#63b8ff" d="M1256.5,-135.42C1272.32,-134.22 1289.28,-133 1305,-132 1678.33,-108.37 2130.73,-89.1 2264.79,-83.59"/>
<polygon fill="#63b8ff" stroke="#63b8ff" points="2265.12,-87.08 2274.97,-83.17 2264.84,-80.08 2265.12,-87.08"/>
</a>
</g>
</g>
<!-- Node24&#45;&gt;Node3 -->
<g id="edge49_Node000024_Node000003" class="edge">
<title>Node24&#45;&gt;Node3</title>
<g id="a_edge49_Node000024_Node000003"><a xlink:title=" ">
<path fill="none" stroke="#63b8ff" d="M1922.68,-131.99C1887.38,-123.24 1831.5,-109.39 1787.5,-98.48"/>
<polygon fill="#63b8ff" stroke="#63b8ff" points="1788.29,-95.07 1777.74,-96.06 1786.6,-101.87 1788.29,-95.07"/>
</a>
</g>
</g>
<!-- Node24&#45;&gt;Node14 -->
<g id="edge51_Node000024_Node000014" class="edge">
<title>Node24&#45;&gt;Node14</title>
<g id="a_edge51_Node000024_Node000014"><a xlink:title=" ">
<path fill="none" stroke="#63b8ff" d="M2028.59,-132.87C2135.81,-121.36 2327.21,-100.4 2342,-96 2343.26,-95.62 2344.53,-95.2 2345.8,-94.73"/>
<polygon fill="#63b8ff" stroke="#63b8ff" points="2347.54,-97.79 2355.28,-90.56 2344.72,-91.38 2347.54,-97.79"/>
</a>
</g>
</g>
<!-- Node25 -->
<g id="Node000025" class="node">
<title>Node25</title>
<g id="a_Node000025"><a xlink:title=" ">
<polygon fill="#e0e0e0" stroke="#999999" points="1595,-90.5 1545,-90.5 1545,-71.5 1595,-71.5 1595,-90.5"/>
<text text-anchor="middle" x="1570" y="-78.5" font-family="Helvetica,sans-Serif" font-size="10.00">atomic</text>
</a>
</g>
</g>
<!-- Node24&#45;&gt;Node25 -->
<g id="edge50_Node000024_Node000025" class="edge">
<title>Node24&#45;&gt;Node25</title>
<g id="a_edge50_Node000024_Node000025"><a xlink:title=" ">
<path fill="none" stroke="#63b8ff" d="M1890.09,-131.98C1826.42,-123.64 1727.99,-110.16 1643,-96 1630.69,-93.95 1617.27,-91.45 1605.33,-89.14"/>
<polygon fill="#63b8ff" stroke="#63b8ff" points="1605.77,-85.65 1595.28,-87.16 1604.42,-92.52 1605.77,-85.65"/>
</a>
</g>
</g>
<!-- Node26&#45;&gt;Node3 -->
<g id="edge53_Node000026_Node000003" class="edge">
<title>Node26&#45;&gt;Node3</title>
<g id="a_edge53_Node000026_Node000003"><a xlink:title=" ">
<path fill="none" stroke="#63b8ff" d="M2272.06,-186.65C2263.53,-172.34 2244.57,-144.47 2220,-132 2148.63,-95.79 1922.45,-85.8 1800.6,-83.05"/>
<polygon fill="#63b8ff" stroke="#63b8ff" points="1800.64,-79.55 1790.57,-82.83 1800.49,-86.55 1800.64,-79.55"/>
</a>
</g>
</g>
<!-- Node26&#45;&gt;Node4 -->
<g id="edge54_Node000026_Node000004" class="edge">
<title>Node26&#45;&gt;Node4</title>
<g id="a_edge54_Node000026_Node000004"><a xlink:title=" ">
<path fill="none" stroke="#63b8ff" d="M2275.43,-186.89C2272.41,-172.93 2264.37,-145.54 2246,-132 2164.96,-72.27 1464.33,-31.13 1240.46,-19.42"/>
<polygon fill="#63b8ff" stroke="#63b8ff" points="1240.33,-15.91 1230.16,-18.88 1239.97,-22.9 1240.33,-15.91"/>
</a>
</g>
</g>
<!-- Node26&#45;&gt;Node8 -->
<g id="edge55_Node000026_Node000008" class="edge">
<title>Node26&#45;&gt;Node8</title>
<g id="a_edge55_Node000026_Node000008"><a xlink:title=" ">
<path fill="none" stroke="#63b8ff" d="M2189.49,-193.52C1966.62,-188.19 1389.25,-172.47 1305,-151 1286.32,-146.24 1284.18,-138.42 1266,-132 1206.72,-111.07 1135.24,-96.62 1090.69,-88.82"/>
<polygon fill="#63b8ff" stroke="#63b8ff" points="1091.24,-85.36 1080.79,-87.12 1090.05,-92.26 1091.24,-85.36"/>
</a>
</g>
</g>
<!-- Node26&#45;&gt;Node13 -->
<g id="edge59_Node000026_Node000013" class="edge">
<title>Node26&#45;&gt;Node13</title>
<g id="a_edge59_Node000026_Node000013"><a xlink:title=" ">
<path fill="none" stroke="#63b8ff" d="M2311.38,-186.98C2348.09,-177.89 2406.38,-163.46 2446.55,-153.51"/>
<polygon fill="#63b8ff" stroke="#63b8ff" points="2447.48,-156.88 2456.35,-151.08 2445.8,-150.09 2447.48,-156.88"/>
</a>
</g>
</g>
<!-- Node26&#45;&gt;Node14 -->
<g id="edge56_Node000026_Node000014" class="edge">
<title>Node26&#45;&gt;Node14</title>
<g id="a_edge56_Node000026_Node000014"><a xlink:title=" ">
<path fill="none" stroke="#63b8ff" d="M2283.99,-186.97C2299.34,-168.24 2336.22,-123.22 2356.35,-98.66"/>
<polygon fill="#63b8ff" stroke="#63b8ff" points="2359.3,-100.58 2362.93,-90.63 2353.88,-96.15 2359.3,-100.58"/>
</a>
</g>
</g>
<!-- Node26&#45;&gt;Node15 -->
<g id="edge57_Node000026_Node000015" class="edge">
<title>Node26&#45;&gt;Node15</title>
<g id="a_edge57_Node000026_Node000015"><a xlink:title=" ">
<path fill="none" stroke="#63b8ff" d="M2280.1,-186.72C2283.17,-177.81 2287.85,-163.57 2291,-151 2295.21,-134.19 2298.76,-114.76 2301.07,-100.82"/>
<polygon fill="#63b8ff" stroke="#63b8ff" points="2304.59,-101 2302.72,-90.57 2297.68,-99.89 2304.59,-101"/>
</a>
</g>
</g>
<!-- Node26&#45;&gt;Node17 -->
<g id="edge58_Node000026_Node000017" class="edge">
<title>Node26&#45;&gt;Node17</title>
<g id="a_edge58_Node000026_Node000017"><a xlink:title=" ">
<path fill="none" stroke="#63b8ff" d="M2288.58,-186.97C2314.66,-167.74 2378.31,-120.83 2410.96,-96.77"/>
<polygon fill="#63b8ff" stroke="#63b8ff" points="2413.32,-99.38 2419.29,-90.63 2409.16,-93.75 2413.32,-99.38"/>
</a>
</g>
</g>
<!-- Node26&#45;&gt;Node24 -->
<g id="edge60_Node000026_Node000024" class="edge">
<title>Node26&#45;&gt;Node24</title>
<g id="a_edge60_Node000026_Node000024"><a xlink:title=" ">
<path fill="none" stroke="#63b8ff" d="M2225.59,-186.98C2169.22,-177.65 2078.81,-162.67 2018.67,-152.71"/>
<polygon fill="#63b8ff" stroke="#63b8ff" points="2018.99,-149.22 2008.55,-151.04 2017.84,-156.13 2018.99,-149.22"/>
</a>
</g>
</g>
<!-- Node27&#45;&gt;Node3 -->
<g id="edge62_Node000027_Node000003" class="edge">
<title>Node27&#45;&gt;Node3</title>
<g id="a_edge62_Node000027_Node000003"><a xlink:title=" ">
<path fill="none" stroke="#63b8ff" d="M2069.67,-131.99C1998.67,-121.81 1879.5,-104.73 1800.56,-93.41"/>
<polygon fill="#63b8ff" stroke="#63b8ff" points="1801.05,-89.94 1790.65,-91.99 1800.06,-96.87 1801.05,-89.94"/>
</a>
</g>
</g>
<!-- Node27&#45;&gt;Node17 -->
<g id="edge63_Node000027_Node000017" class="edge">
<title>Node27&#45;&gt;Node17</title>
<g id="a_edge63_Node000027_Node000017"><a xlink:title=" ">
<path fill="none" stroke="#63b8ff" d="M2211.05,-132.05C2264.92,-125.26 2336.52,-113.85 2398,-96 2399.68,-95.51 2401.4,-94.96 2403.11,-94.37"/>
<polygon fill="#63b8ff" stroke="#63b8ff" points="2404.71,-97.5 2412.78,-90.64 2402.19,-90.97 2404.71,-97.5"/>
</a>
</g>
</g>
<!-- Node28&#45;&gt;Node4 -->
<g id="edge67_Node000028_Node000004" class="edge">
<title>Node28&#45;&gt;Node4</title>
<g id="a_edge67_Node000028_Node000004"><a xlink:title=" ">
<path fill="none" stroke="#63b8ff" d="M86.51,-131.76C106.99,-115.31 154.34,-80.15 201,-66 286.68,-40.01 897.3,-22.76 1103.89,-17.61"/>
<polygon fill="#63b8ff" stroke="#63b8ff" points="1104.09,-21.11 1114,-17.36 1103.92,-14.11 1104.09,-21.11"/>
</a>
</g>
</g>
<!-- Node28&#45;&gt;Node6 -->
<g id="edge68_Node000028_Node000006" class="edge">
<title>Node28&#45;&gt;Node6</title>
<g id="a_edge68_Node000028_Node000006"><a xlink:title=" ">
<path fill="none" stroke="#63b8ff" d="M152.45,-132.83C155.34,-132.55 158.2,-132.27 161,-132 327.66,-115.95 523.34,-98.07 627.31,-88.65"/>
<polygon fill="#63b8ff" stroke="#63b8ff" points="627.75,-92.13 637.39,-87.74 627.12,-85.15 627.75,-92.13"/>
</a>
</g>
</g>
<!-- Node29&#45;&gt;Node4 -->
<g id="edge70_Node000029_Node000004" class="edge">
<title>Node29&#45;&gt;Node4</title>
<g id="a_edge70_Node000029_Node000004"><a xlink:title=" ">
<path fill="none" stroke="#63b8ff" d="M913.52,-131.91C930.89,-116.64 969.43,-84.62 1007,-66 1037.49,-50.89 1073.44,-39.33 1103.99,-31.16"/>
<polygon fill="#63b8ff" stroke="#63b8ff" points="1104.92,-34.54 1113.71,-28.63 1103.15,-27.77 1104.92,-34.54"/>
</a>
</g>
</g>
<!-- Node29&#45;&gt;Node6 -->
<g id="edge72_Node000029_Node000006" class="edge">
<title>Node29&#45;&gt;Node6</title>
<g id="a_edge72_Node000029_Node000006"><a xlink:title=" ">
<path fill="none" stroke="#63b8ff" d="M874.48,-131.99C839.08,-121.79 779.6,-104.65 740.32,-93.33"/>
<polygon fill="#63b8ff" stroke="#63b8ff" points="741.13,-89.92 730.55,-90.52 739.19,-96.65 741.13,-89.92"/>
</a>
</g>
</g>
<!-- Node29&#45;&gt;Node25 -->
<g id="edge71_Node000029_Node000025" class="edge">
<title>Node29&#45;&gt;Node25</title>
<g id="a_edge71_Node000029_Node000025"><a xlink:title=" ">
<path fill="none" stroke="#63b8ff" d="M965.06,-132.88C968.08,-132.57 971.07,-132.27 974,-132 1223.22,-108.91 1292.15,-152.4 1536,-96 1538.22,-95.49 1540.49,-94.84 1542.74,-94.12"/>
<polygon fill="#63b8ff" stroke="#63b8ff" points="1544.21,-97.3 1552.36,-90.54 1541.77,-90.74 1544.21,-97.3"/>
</a>
</g>
</g>
</g>
</svg>
