<?xml version="1.0" encoding="UTF-8" standalone="no"?>
<!DOCTYPE svg PUBLIC "-//W3C//DTD SVG 1.1//EN"
 "http://www.w3.org/Graphics/SVG/1.1/DTD/svg11.dtd">
<!-- Generated by graphviz version 2.43.0 (0)
 -->
<!-- Title: layout/DirektFlexContainer.cpp Pages: 1 -->
<svg width="545pt" height="203pt"
 viewBox="0.00 0.00 545.00 203.00" xmlns="http://www.w3.org/2000/svg" xmlns:xlink="http://www.w3.org/1999/xlink">
<g id="graph0" class="graph" transform="scale(1 1) rotate(0) translate(4 199)">
<title>layout/DirektFlexContainer.cpp</title>
<!-- Node1 -->
<g id="Node000001" class="node">
<title>Node1</title>
<g id="a_Node000001"><a xlink:title=" ">
<polygon fill="#999999" stroke="#666666" points="320.5,-195 152.5,-195 152.5,-176 320.5,-176 320.5,-195"/>
<text text-anchor="middle" x="236.5" y="-183" font-family="Helvetica,sans-Serif" font-size="10.00">layout/DirektFlexContainer.cpp</text>
</a>
</g>
</g>
<!-- Node2 -->
<g id="Node000002" class="node">
<title>Node2</title>
<g id="a_Node000002"><a xlink:href="DirektFlexContainer_8h.html" target="_top" xlink:title=" ">
<polygon fill="white" stroke="#666666" points="236,-140 79,-140 79,-121 236,-121 236,-140"/>
<text text-anchor="middle" x="157.5" y="-128" font-family="Helvetica,sans-Serif" font-size="10.00">layout/DirektFlexContainer.h</text>
</a>
</g>
</g>
<!-- Node1&#45;&gt;Node2 -->
<g id="edge1_Node000001_Node000002" class="edge">
<title>Node1&#45;&gt;Node2</title>
<g id="a_edge1_Node000001_Node000002"><a xlink:title=" ">
<path fill="none" stroke="#63b8ff" d="M223.81,-175.98C211.67,-167.84 193.14,-155.41 178.75,-145.76"/>
<polygon fill="#63b8ff" stroke="#63b8ff" points="180.68,-142.84 170.42,-140.17 176.78,-148.65 180.68,-142.84"/>
</a>
</g>
</g>
<!-- Node9 -->
<g id="Node000009" class="node">
<title>Node9</title>
<g id="a_Node000009"><a xlink:href="DirektSection_8h.html" target="_top" xlink:title=" ">
<polygon fill="white" stroke="#666666" points="414,-140 289,-140 289,-121 414,-121 414,-140"/>
<text text-anchor="middle" x="351.5" y="-128" font-family="Helvetica,sans-Serif" font-size="10.00">layout/DirektSection.h</text>
</a>
</g>
</g>
<!-- Node1&#45;&gt;Node9 -->
<g id="edge10_Node000001_Node000009" class="edge">
<title>Node1&#45;&gt;Node9</title>
<g id="a_edge10_Node000001_Node000009"><a xlink:title=" ">
<path fill="none" stroke="#63b8ff" d="M254.98,-175.98C273.48,-167.46 302.18,-154.23 323.48,-144.41"/>
<polygon fill="#63b8ff" stroke="#63b8ff" points="325.07,-147.53 332.69,-140.17 322.14,-141.18 325.07,-147.53"/>
</a>
</g>
</g>
<!-- Node3 -->
<g id="Node000003" class="node">
<title>Node3</title>
<g id="a_Node000003"><a xlink:title=" ">
<polygon fill="#e0e0e0" stroke="#999999" points="396.5,-30 280.5,-30 280.5,0 396.5,0 396.5,-30"/>
<text text-anchor="start" x="288.5" y="-18" font-family="Helvetica,sans-Serif" font-size="10.00">juce_gui_basics/juce</text>
<text text-anchor="middle" x="338.5" y="-7" font-family="Helvetica,sans-Serif" font-size="10.00">_gui_basics.h</text>
</a>
</g>
</g>
<!-- Node2&#45;&gt;Node3 -->
<g id="edge2_Node000002_Node000003" class="edge">
<title>Node2&#45;&gt;Node3</title>
<g id="a_edge2_Node000002_Node000003"><a xlink:title=" ">
<path fill="none" stroke="#63b8ff" d="M171.1,-120.97C199.84,-102.95 267.37,-60.6 307.32,-35.55"/>
<polygon fill="#63b8ff" stroke="#63b8ff" points="309.27,-38.46 315.89,-30.18 305.55,-32.53 309.27,-38.46"/>
</a>
</g>
</g>
<!-- Node4 -->
<g id="Node000004" class="node">
<title>Node4</title>
<g id="a_Node000004"><a xlink:title=" ">
<polygon fill="#e0e0e0" stroke="#999999" points="47,-24.5 0,-24.5 0,-5.5 47,-5.5 47,-24.5"/>
<text text-anchor="middle" x="23.5" y="-12.5" font-family="Helvetica,sans-Serif" font-size="10.00">vector</text>
</a>
</g>
</g>
<!-- Node2&#45;&gt;Node4 -->
<g id="edge3_Node000002_Node000004" class="edge">
<title>Node2&#45;&gt;Node4</title>
<g id="a_edge3_Node000002_Node000004"><a xlink:title=" ">
<path fill="none" stroke="#63b8ff" d="M105.49,-120.99C82.58,-114.69 57.13,-103.8 40.5,-85 28.38,-71.31 24.6,-50.34 23.56,-35.11"/>
<polygon fill="#63b8ff" stroke="#63b8ff" points="27.05,-34.68 23.21,-24.8 20.05,-34.91 27.05,-34.68"/>
</a>
</g>
</g>
<!-- Node5 -->
<g id="Node000005" class="node">
<title>Node5</title>
<g id="a_Node000005"><a xlink:href="DirektDescriptors_8h.html" target="_top" xlink:title=" ">
<polygon fill="white" stroke="#666666" points="193,-85 50,-85 50,-66 193,-66 193,-85"/>
<text text-anchor="middle" x="121.5" y="-73" font-family="Helvetica,sans-Serif" font-size="10.00">config/DirektDescriptors.h</text>
</a>
</g>
</g>
<!-- Node2&#45;&gt;Node5 -->
<g id="edge4_Node000002_Node000005" class="edge">
<title>Node2&#45;&gt;Node5</title>
<g id="a_edge4_Node000002_Node000005"><a xlink:title=" ">
<path fill="none" stroke="#63b8ff" d="M151.56,-120.75C146.52,-113.34 139.16,-102.5 132.99,-93.41"/>
<polygon fill="#63b8ff" stroke="#63b8ff" points="135.85,-91.39 127.33,-85.09 130.06,-95.33 135.85,-91.39"/>
</a>
</g>
</g>
<!-- Node5&#45;&gt;Node3 -->
<g id="edge5_Node000005_Node000003" class="edge">
<title>Node5&#45;&gt;Node3</title>
<g id="a_edge5_Node000005_Node000003"><a xlink:title=" ">
<path fill="none" stroke="#63b8ff" d="M153.05,-65.99C185.31,-57.3 236.25,-43.57 276.58,-32.69"/>
<polygon fill="#63b8ff" stroke="#63b8ff" points="277.59,-36.05 286.33,-30.06 275.76,-29.29 277.59,-36.05"/>
</a>
</g>
</g>
<!-- Node5&#45;&gt;Node4 -->
<g id="edge9_Node000005_Node000004" class="edge">
<title>Node5&#45;&gt;Node4</title>
<g id="a_edge9_Node000005_Node000004"><a xlink:title=" ">
<path fill="none" stroke="#63b8ff" d="M107.04,-65.87C91.19,-56.41 65.53,-41.09 46.82,-29.92"/>
<polygon fill="#63b8ff" stroke="#63b8ff" points="48.4,-26.79 38.02,-24.67 44.81,-32.8 48.4,-26.79"/>
</a>
</g>
</g>
<!-- Node6 -->
<g id="Node000006" class="node">
<title>Node6</title>
<g id="a_Node000006"><a xlink:title=" ">
<polygon fill="#e0e0e0" stroke="#999999" points="173.5,-24.5 135.5,-24.5 135.5,-5.5 173.5,-5.5 173.5,-24.5"/>
<text text-anchor="middle" x="154.5" y="-12.5" font-family="Helvetica,sans-Serif" font-size="10.00">map</text>
</a>
</g>
</g>
<!-- Node5&#45;&gt;Node6 -->
<g id="edge6_Node000005_Node000006" class="edge">
<title>Node5&#45;&gt;Node6</title>
<g id="a_edge6_Node000005_Node000006"><a xlink:title=" ">
<path fill="none" stroke="#63b8ff" d="M126.37,-65.87C131.15,-57.4 138.57,-44.24 144.59,-33.57"/>
<polygon fill="#63b8ff" stroke="#63b8ff" points="147.75,-35.1 149.61,-24.67 141.65,-31.66 147.75,-35.1"/>
</a>
</g>
</g>
<!-- Node7 -->
<g id="Node000007" class="node">
<title>Node7</title>
<g id="a_Node000007"><a xlink:title=" ">
<polygon fill="#e0e0e0" stroke="#999999" points="249.5,-24.5 191.5,-24.5 191.5,-5.5 249.5,-5.5 249.5,-24.5"/>
<text text-anchor="middle" x="220.5" y="-12.5" font-family="Helvetica,sans-Serif" font-size="10.00">memory</text>
</a>
</g>
</g>
<!-- Node5&#45;&gt;Node7 -->
<g id="edge7_Node000005_Node000007" class="edge">
<title>Node5&#45;&gt;Node7</title>
<g id="a_edge7_Node000005_Node000007"><a xlink:title=" ">
<path fill="none" stroke="#63b8ff" d="M136.11,-65.87C152.19,-56.36 178.28,-40.95 197.2,-29.77"/>
<polygon fill="#63b8ff" stroke="#63b8ff" points="199,-32.77 205.83,-24.67 195.44,-26.74 199,-32.77"/>
</a>
</g>
</g>
<!-- Node8 -->
<g id="Node000008" class="node">
<title>Node8</title>
<g id="a_Node000008"><a xlink:title=" ">
<polygon fill="#e0e0e0" stroke="#999999" points="117,-24.5 66,-24.5 66,-5.5 117,-5.5 117,-24.5"/>
<text text-anchor="middle" x="91.5" y="-12.5" font-family="Helvetica,sans-Serif" font-size="10.00">variant</text>
</a>
</g>
</g>
<!-- Node5&#45;&gt;Node8 -->
<g id="edge8_Node000005_Node000008" class="edge">
<title>Node5&#45;&gt;Node8</title>
<g id="a_edge8_Node000005_Node000008"><a xlink:title=" ">
<path fill="none" stroke="#63b8ff" d="M117.07,-65.87C112.73,-57.4 105.98,-44.24 100.51,-33.57"/>
<polygon fill="#63b8ff" stroke="#63b8ff" points="103.62,-31.97 95.94,-24.67 97.39,-35.16 103.62,-31.97"/>
</a>
</g>
</g>
<!-- Node9&#45;&gt;Node3 -->
<g id="edge11_Node000009_Node000003" class="edge">
<title>Node9&#45;&gt;Node3</title>
<g id="a_edge11_Node000009_Node000003"><a xlink:title=" ">
<path fill="none" stroke="#63b8ff" d="M376.44,-120.82C402.74,-110.16 438.57,-90.46 424.5,-66 416.73,-52.49 403.75,-42.29 390.2,-34.75"/>
<polygon fill="#63b8ff" stroke="#63b8ff" points="391.76,-31.62 381.27,-30.17 388.57,-37.85 391.76,-31.62"/>
</a>
</g>
</g>
<!-- Node9&#45;&gt;Node7 -->
<g id="edge13_Node000009_Node000007" class="edge">
<title>Node9&#45;&gt;Node7</title>
<g id="a_edge13_Node000009_Node000007"><a xlink:title=" ">
<path fill="none" stroke="#63b8ff" d="M333.92,-120.87C318.44,-112.8 295.73,-99.8 278.5,-85 260.41,-69.46 243.31,-47.98 232.42,-33.13"/>
<polygon fill="#63b8ff" stroke="#63b8ff" points="235.17,-30.95 226.5,-24.85 229.48,-35.02 235.17,-30.95"/>
</a>
</g>
</g>
<!-- Node10 -->
<g id="Node000010" class="node">
<title>Node10</title>
<g id="a_Node000010"><a xlink:title=" ">
<polygon fill="#e0e0e0" stroke="#999999" points="537,-85 472,-85 472,-66 537,-66 537,-85"/>
<text text-anchor="middle" x="504.5" y="-73" font-family="Helvetica,sans-Serif" font-size="10.00">functional</text>
</a>
</g>
</g>
<!-- Node9&#45;&gt;Node10 -->
<g id="edge12_Node000009_Node000010" class="edge">
<title>Node9&#45;&gt;Node10</title>
<g id="a_edge12_Node000009_Node000010"><a xlink:title=" ">
<path fill="none" stroke="#63b8ff" d="M376.08,-120.98C401.55,-112.16 441.54,-98.31 470.13,-88.41"/>
<polygon fill="#63b8ff" stroke="#63b8ff" points="471.42,-91.66 479.73,-85.08 469.13,-85.05 471.42,-91.66"/>
</a>
</g>
</g>
<!-- Node11 -->
<g id="Node000011" class="node">
<title>Node11</title>
<g id="a_Node000011"><a xlink:href="DirektColours_8h.html" target="_top" xlink:title=" ">
<polygon fill="white" stroke="#666666" points="415,-85 288,-85 288,-66 415,-66 415,-85"/>
<text text-anchor="middle" x="351.5" y="-73" font-family="Helvetica,sans-Serif" font-size="10.00">theme/DirektColours.h</text>
</a>
</g>
</g>
<!-- Node9&#45;&gt;Node11 -->
<g id="edge14_Node000009_Node000011" class="edge">
<title>Node9&#45;&gt;Node11</title>
<g id="a_edge14_Node000009_Node000011"><a xlink:title=" ">
<path fill="none" stroke="#63b8ff" d="M351.5,-120.75C351.5,-113.8 351.5,-103.85 351.5,-95.13"/>
<polygon fill="#63b8ff" stroke="#63b8ff" points="355,-95.09 351.5,-85.09 348,-95.09 355,-95.09"/>
</a>
</g>
</g>
<!-- Node11&#45;&gt;Node3 -->
<g id="edge15_Node000011_Node000003" class="edge">
<title>Node11&#45;&gt;Node3</title>
<g id="a_edge15_Node000011_Node000003"><a xlink:title=" ">
<path fill="none" stroke="#63b8ff" d="M349.58,-65.87C348.06,-59.03 345.86,-49.14 343.83,-39.97"/>
<polygon fill="#63b8ff" stroke="#63b8ff" points="347.22,-39.12 341.64,-30.11 340.39,-40.64 347.22,-39.12"/>
</a>
</g>
</g>
</g>
</svg>
