<?xml version="1.0" encoding="UTF-8" standalone="no"?>
<!DOCTYPE svg PUBLIC "-//W3C//DTD SVG 1.1//EN"
 "http://www.w3.org/Graphics/SVG/1.1/DTD/svg11.dtd">
<!-- Generated by graphviz version 2.43.0 (0)
 -->
<!-- Title: core/DirektBaseEditor.cpp Pages: 1 -->
<!--zoomable 324 -->

<svg id="main" version="1.1" xmlns="http://www.w3.org/2000/svg" xmlns:xlink="http://www.w3.org/1999/xlink" xml:space="preserve" onload="init(evt)">
<style type="text/css"><![CDATA[
.node, .edge {opacity: 0.7;}
.node.selected, .edge.selected {opacity: 1;}
.edge:hover path { stroke: red; }
.edge:hover polygon { stroke: red; fill: red; }
]]></style>

<defs>
  <circle id="rim" cx="0" cy="0" r="7"/>
  <circle id="rim2" cx="0" cy="0" r="3.5"/>
  <g id="zoomPlus">
    <use xlink:href="#rim" fill="#404040"><set attributeName="fill" to="#808080" begin="zoomplus.mouseover" end="zoomplus.mouseout"/></use>
    <path d="M-4,0h8M0,-4v8" fill="none" stroke="white" stroke-width="1.5" pointer-events="none"/>
  </g>
  <g id="zoomMin">
    <use xlink:href="#rim" fill="#404040"><set attributeName="fill" to="#808080" begin="zoomminus.mouseover" end="zoomminus.mouseout"/></use>
    <path d="M-4,0h8" fill="none" stroke="white" stroke-width="1.5" pointer-events="none"/>
  </g>
  <g id="arrowUp" transform="translate(30 24)">
    <use xlink:href="#rim"/>
    <path pointer-events="none" fill="none" stroke="white" stroke-width="1.5" d="M0,-3.0v7 M-2.5,-0.5L0,-3.0L2.5,-0.5"/>
  </g>
  <g id="arrowRight" transform="rotate(90) translate(36 -43)">
    <use xlink:href="#rim"/>
    <path pointer-events="none" fill="none" stroke="white" stroke-width="1.5" d="M0,-3.0v7 M-2.5,-0.5L0,-3.0L2.5,-0.5"/>
  </g>
  <g id="arrowDown" transform="rotate(180) translate(-30 -48)">
    <use xlink:href="#rim"/>
    <path pointer-events="none" fill="none" stroke="white" stroke-width="1.5" d="M0,-3.0v7 M-2.5,-0.5L0,-3.0L2.5,-0.5"/>
  </g>
  <g id="arrowLeft" transform="rotate(270) translate(-36 17)">
    <use xlink:href="#rim"/>
    <path pointer-events="none" fill="none" stroke="white" stroke-width="1.5" d="M0,-3.0v7 M-2.5,-0.5L0,-3.0L2.5,-0.5"/>
  </g>
  <g id="resetDef">
    <use xlink:href="#rim2" fill="#404040"><set attributeName="fill" to="#808080" begin="reset.mouseover" end="reset.mouseout"/></use>
  </g>
</defs>
<script type="application/ecmascript">
var viewWidth = 2432;
var viewHeight = 324;
var sectionId = 'dynsection-0';
</script>
<script type="application/ecmascript" xlink:href="svg.min.js"/>
<svg id="graph" class="graph">
<g id="viewport">
<title>core/DirektBaseEditor.cpp</title>
<!-- Node1 -->
<g id="Node000001" class="node">
<title>Node1</title>
<g id="a_Node000001"><a xlink:title=" ">
<polygon fill="#999999" stroke="#666666" points="1304.58,-316 1161.58,-316 1161.58,-297 1304.58,-297 1304.58,-316"/>
<text text-anchor="middle" x="1233.08" y="-304" font-family="Helvetica,sans-Serif" font-size="10.00">core/DirektBaseEditor.cpp</text>
</a>
</g>
</g>
<!-- Node2 -->
<g id="Node000002" class="node">
<title>Node2</title>
<g id="a_Node000002"><a xlink:href="DirektBaseEditor_8h.html" target="_top" xlink:title=" ">
<polygon fill="white" stroke="#666666" points="971.58,-261 840.58,-261 840.58,-242 971.58,-242 971.58,-261"/>
<text text-anchor="middle" x="906.08" y="-249" font-family="Helvetica,sans-Serif" font-size="10.00">core/DirektBaseEditor.h</text>
</a>
</g>
</g>
<!-- Node1&#45;&gt;Node2 -->
<g id="edge1_Node000001_Node000002" class="edge">
<title>Node1&#45;&gt;Node2</title>
<g id="a_edge1_Node000001_Node000002"><a xlink:title=" ">
<path fill="none" stroke="#63b8ff" d="M1180.54,-296.98C1122.82,-287.63 1030.17,-272.61 968.72,-262.65"/>
<polygon fill="#63b8ff" stroke="#63b8ff" points="969.19,-259.18 958.76,-261.04 968.07,-266.09 969.19,-259.18"/>
</a>
</g>
</g>
<!-- Node27 -->
<g id="Node000027" class="node">
<title>Node27</title>
<g id="a_Node000027"><a xlink:href="DirektMeter_8h.html" target="_top" xlink:title=" ">
<polygon fill="white" stroke="#666666" points="1927.08,-151 1805.08,-151 1805.08,-132 1927.08,-132 1927.08,-151"/>
<text text-anchor="middle" x="1866.08" y="-139" font-family="Helvetica,sans-Serif" font-size="10.00">display/DirektMeter.h</text>
</a>
</g>
</g>
<!-- Node1&#45;&gt;Node27 -->
<g id="edge64_Node000001_Node000027" class="edge">
<title>Node1&#45;&gt;Node27</title>
<g id="a_edge64_Node000001_Node000027"><a xlink:title=" ">
<path fill="none" stroke="#63b8ff" d="M1266.22,-296.97C1372.38,-269.63 1704.03,-184.23 1823.03,-153.58"/>
<polygon fill="#63b8ff" stroke="#63b8ff" points="1824.07,-156.93 1832.88,-151.05 1822.33,-150.15 1824.07,-156.93"/>
</a>
</g>
</g>
<!-- Node3 -->
<g id="Node000003" class="node">
<title>Node3</title>
<g id="a_Node000003"><a xlink:title=" ">
<polygon fill="#e0e0e0" stroke="#999999" points="1562.58,-96 1423.58,-96 1423.58,-66 1562.58,-66 1562.58,-96"/>
<text text-anchor="start" x="1431.58" y="-84" font-family="Helvetica,sans-Serif" font-size="10.00">juce_audio_processors</text>
<text text-anchor="middle" x="1493.08" y="-73" font-family="Helvetica,sans-Serif" font-size="10.00">/juce_audio_processors.h</text>
</a>
</g>
</g>
<!-- Node2&#45;&gt;Node3 -->
<g id="edge2_Node000002_Node000003" class="edge">
<title>Node2&#45;&gt;Node3</title>
<g id="a_edge2_Node000002_Node000003"><a xlink:title=" ">
<path fill="none" stroke="#63b8ff" d="M925.48,-241.96C974.67,-220.59 1108.64,-164.23 1225.08,-132 1287.43,-114.74 1359.6,-101.66 1413.33,-93.21"/>
<polygon fill="#63b8ff" stroke="#63b8ff" points="1414.14,-96.63 1423.48,-91.64 1413.07,-89.71 1414.14,-96.63"/>
</a>
</g>
</g>
<!-- Node4 -->
<g id="Node000004" class="node">
<title>Node4</title>
<g id="a_Node000004"><a xlink:title=" ">
<polygon fill="#e0e0e0" stroke="#999999" points="1062.08,-30 946.08,-30 946.08,0 1062.08,0 1062.08,-30"/>
<text text-anchor="start" x="954.08" y="-18" font-family="Helvetica,sans-Serif" font-size="10.00">juce_gui_basics/juce</text>
<text text-anchor="middle" x="1004.08" y="-7" font-family="Helvetica,sans-Serif" font-size="10.00">_gui_basics.h</text>
</a>
</g>
</g>
<!-- Node2&#45;&gt;Node4 -->
<g id="edge3_Node000002_Node000004" class="edge">
<title>Node2&#45;&gt;Node4</title>
<g id="a_edge3_Node000002_Node000004"><a xlink:title=" ">
<path fill="none" stroke="#63b8ff" d="M840.5,-247.67C732.08,-242.51 508.77,-229.84 321.08,-206 181.41,-188.26 -58.58,-253.19 13.08,-132 44.06,-79.61 74.58,-82.83 133.08,-66 283.36,-22.77 757.89,-16.75 935.81,-16.04"/>
<polygon fill="#63b8ff" stroke="#63b8ff" points="935.85,-19.54 945.83,-16 935.82,-12.54 935.85,-19.54"/>
</a>
</g>
</g>
<!-- Node5 -->
<g id="Node000005" class="node">
<title>Node5</title>
<g id="a_Node000005"><a xlink:href="DirektFooter_8h.html" target="_top" xlink:title=" ">
<polygon fill="white" stroke="#666666" points="638.58,-151 513.58,-151 513.58,-132 638.58,-132 638.58,-151"/>
<text text-anchor="middle" x="576.08" y="-139" font-family="Helvetica,sans-Serif" font-size="10.00">chrome/DirektFooter.h</text>
</a>
</g>
</g>
<!-- Node2&#45;&gt;Node5 -->
<g id="edge4_Node000002_Node000005" class="edge">
<title>Node2&#45;&gt;Node5</title>
<g id="a_edge4_Node000002_Node000005"><a xlink:title=" ">
<path fill="none" stroke="#63b8ff" d="M840.46,-248.13C787.71,-244.11 712.82,-233.53 653.08,-206 628.38,-194.62 605.03,-173.33 590.65,-158.55"/>
<polygon fill="#63b8ff" stroke="#63b8ff" points="593.04,-155.99 583.64,-151.12 587.95,-160.8 593.04,-155.99"/>
</a>
</g>
</g>
<!-- Node6 -->
<g id="Node000006" class="node">
<title>Node6</title>
<g id="a_Node000006"><a xlink:href="DirektColours_8h.html" target="_top" xlink:title=" ">
<polygon fill="white" stroke="#666666" points="731.58,-90.5 604.58,-90.5 604.58,-71.5 731.58,-71.5 731.58,-90.5"/>
<text text-anchor="middle" x="668.08" y="-78.5" font-family="Helvetica,sans-Serif" font-size="10.00">theme/DirektColours.h</text>
</a>
</g>
</g>
<!-- Node2&#45;&gt;Node6 -->
<g id="edge60_Node000002_Node000006" class="edge">
<title>Node2&#45;&gt;Node6</title>
<g id="a_edge60_Node000002_Node000006"><a xlink:title=" ">
<path fill="none" stroke="#63b8ff" d="M860.26,-241.98C810.12,-230.24 730.94,-204.19 686.08,-151 674.25,-136.97 670.08,-116.06 668.67,-100.93"/>
<polygon fill="#63b8ff" stroke="#63b8ff" points="672.15,-100.48 668.05,-90.71 665.16,-100.9 672.15,-100.48"/>
</a>
</g>
</g>
<!-- Node7 -->
<g id="Node000007" class="node">
<title>Node7</title>
<g id="a_Node000007"><a xlink:href="DirektHeader_8h.html" target="_top" xlink:title=" ">
<polygon fill="white" stroke="#666666" points="825.08,-151 695.08,-151 695.08,-132 825.08,-132 825.08,-151"/>
<text text-anchor="middle" x="760.08" y="-139" font-family="Helvetica,sans-Serif" font-size="10.00">chrome/DirektHeader.h</text>
</a>
</g>
</g>
<!-- Node2&#45;&gt;Node7 -->
<g id="edge8_Node000002_Node000007" class="edge">
<title>Node2&#45;&gt;Node7</title>
<g id="a_edge8_Node000002_Node000007"><a xlink:title=" ">
<path fill="none" stroke="#63b8ff" d="M894.38,-241.84C869.5,-223.44 811.08,-180.23 780.14,-157.34"/>
<polygon fill="#63b8ff" stroke="#63b8ff" points="781.96,-154.33 771.83,-151.2 777.79,-159.96 781.96,-154.33"/>
</a>
</g>
</g>
<!-- Node9 -->
<g id="Node000009" class="node">
<title>Node9</title>
<g id="a_Node000009"><a xlink:href="DirektPopupPanel_8h.html" target="_top" xlink:title=" ">
<polygon fill="white" stroke="#666666" points="1139.08,-151 987.08,-151 987.08,-132 1139.08,-132 1139.08,-151"/>
<text text-anchor="middle" x="1063.08" y="-139" font-family="Helvetica,sans-Serif" font-size="10.00">chrome/DirektPopupPanel.h</text>
</a>
</g>
</g>
<!-- Node2&#45;&gt;Node9 -->
<g id="edge13_Node000002_Node000009" class="edge">
<title>Node2&#45;&gt;Node9</title>
<g id="a_edge13_Node000002_Node000009"><a xlink:title=" ">
<path fill="none" stroke="#63b8ff" d="M918.66,-241.84C945.53,-223.36 1008.77,-179.86 1041.93,-157.05"/>
<polygon fill="#63b8ff" stroke="#63b8ff" points="1044.18,-159.75 1050.44,-151.2 1040.21,-153.98 1044.18,-159.75"/>
</a>
</g>
</g>
<!-- Node10 -->
<g id="Node000010" class="node">
<title>Node10</title>
<g id="a_Node000010"><a xlink:href="DirektPresetBrowser_8h.html" target="_top" xlink:title=" ">
<polygon fill="white" stroke="#666666" points="324.58,-151 159.58,-151 159.58,-132 324.58,-132 324.58,-151"/>
<text text-anchor="middle" x="242.08" y="-139" font-family="Helvetica,sans-Serif" font-size="10.00">chrome/DirektPresetBrowser.h</text>
</a>
</g>
</g>
<!-- Node2&#45;&gt;Node10 -->
<g id="edge16_Node000002_Node000010" class="edge">
<title>Node2&#45;&gt;Node10</title>
<g id="a_edge16_Node000002_Node000010"><a xlink:title=" ">
<path fill="none" stroke="#63b8ff" d="M840.38,-243.9C768.59,-236.32 650.29,-222.75 549.08,-206 456.19,-190.63 348.65,-167.04 288.68,-153.35"/>
<polygon fill="#63b8ff" stroke="#63b8ff" points="289.29,-149.9 278.76,-151.08 287.73,-156.72 289.29,-149.9"/>
</a>
</g>
</g>
<!-- Node12 -->
<g id="Node000012" class="node">
<title>Node12</title>
<g id="a_Node000012"><a xlink:href="DirektConfig_8h.html" target="_top" xlink:title=" ">
<polygon fill="white" stroke="#666666" points="141.58,-151 22.58,-151 22.58,-132 141.58,-132 141.58,-151"/>
<text text-anchor="middle" x="82.08" y="-139" font-family="Helvetica,sans-Serif" font-size="10.00">config/DirektConfig.h</text>
</a>
</g>
</g>
<!-- Node2&#45;&gt;Node12 -->
<g id="edge21_Node000002_Node000012" class="edge">
<title>Node2&#45;&gt;Node12</title>
<g id="a_edge21_Node000002_Node000012"><a xlink:title=" ">
<path fill="none" stroke="#63b8ff" d="M840.48,-245.79C750.75,-238.99 584.81,-225.09 444.08,-206 333.34,-190.98 204.69,-166.79 134.47,-153.01"/>
<polygon fill="#63b8ff" stroke="#63b8ff" points="135.03,-149.55 124.54,-151.05 133.68,-156.42 135.03,-149.55"/>
</a>
</g>
</g>
<!-- Node13 -->
<g id="Node000013" class="node">
<title>Node13</title>
<g id="a_Node000013"><a xlink:href="DirektDescriptors_8h.html" target="_top" xlink:title=" ">
<polygon fill="white" stroke="#666666" points="2326.58,-151 2183.58,-151 2183.58,-132 2326.58,-132 2326.58,-151"/>
<text text-anchor="middle" x="2255.08" y="-139" font-family="Helvetica,sans-Serif" font-size="10.00">config/DirektDescriptors.h</text>
</a>
</g>
</g>
<!-- Node2&#45;&gt;Node13 -->
<g id="edge24_Node000002_Node000013" class="edge">
<title>Node2&#45;&gt;Node13</title>
<g id="a_edge24_Node000002_Node000013"><a xlink:title=" ">
<path fill="none" stroke="#63b8ff" d="M971.85,-249.95C1229.64,-247.57 2159.63,-236.87 2214.08,-206 2231.33,-196.22 2242.5,-175.86 2248.76,-160.82"/>
<polygon fill="#63b8ff" stroke="#63b8ff" points="2252.04,-162.04 2252.32,-151.45 2245.5,-159.55 2252.04,-162.04"/>
</a>
</g>
</g>
<!-- Node18 -->
<g id="Node000018" class="node">
<title>Node18</title>
<g id="a_Node000018"><a xlink:href="DirektAutoLayout_8h.html" target="_top" xlink:title=" ">
<polygon fill="white" stroke="#666666" points="1575.58,-206 1440.58,-206 1440.58,-187 1575.58,-187 1575.58,-206"/>
<text text-anchor="middle" x="1508.08" y="-194" font-family="Helvetica,sans-Serif" font-size="10.00">core/DirektAutoLayout.h</text>
</a>
</g>
</g>
<!-- Node2&#45;&gt;Node18 -->
<g id="edge30_Node000002_Node000018" class="edge">
<title>Node2&#45;&gt;Node18</title>
<g id="a_edge30_Node000002_Node000018"><a xlink:title=" ">
<path fill="none" stroke="#63b8ff" d="M971.65,-244.73C1083.43,-234.89 1310.37,-214.91 1430.1,-204.37"/>
<polygon fill="#63b8ff" stroke="#63b8ff" points="1430.63,-207.83 1440.29,-203.47 1430.02,-200.86 1430.63,-207.83"/>
</a>
</g>
</g>
<!-- Node22 -->
<g id="Node000022" class="node">
<title>Node22</title>
<g id="a_Node000022"><a xlink:href="DirektSection_8h.html" target="_top" xlink:title=" ">
<polygon fill="white" stroke="#666666" points="968.58,-151 843.58,-151 843.58,-132 968.58,-132 968.58,-151"/>
<text text-anchor="middle" x="906.08" y="-139" font-family="Helvetica,sans-Serif" font-size="10.00">layout/DirektSection.h</text>
</a>
</g>
</g>
<!-- Node2&#45;&gt;Node22 -->
<g id="edge59_Node000002_Node000022" class="edge">
<title>Node2&#45;&gt;Node22</title>
<g id="a_edge59_Node000002_Node000022"><a xlink:title=" ">
<path fill="none" stroke="#63b8ff" d="M906.08,-241.66C906.08,-224.17 906.08,-184.8 906.08,-161.27"/>
<polygon fill="#63b8ff" stroke="#63b8ff" points="909.58,-161.16 906.08,-151.16 902.58,-161.16 909.58,-161.16"/>
</a>
</g>
</g>
<!-- Node23 -->
<g id="Node000023" class="node">
<title>Node23</title>
<g id="a_Node000023"><a xlink:href="DirektBuildContext_8h.html" target="_top" xlink:title=" ">
<polygon fill="white" stroke="#666666" points="2088.58,-151 1945.58,-151 1945.58,-132 2088.58,-132 2088.58,-151"/>
<text text-anchor="middle" x="2017.08" y="-139" font-family="Helvetica,sans-Serif" font-size="10.00">core/DirektBuildContext.h</text>
</a>
</g>
</g>
<!-- Node2&#45;&gt;Node23 -->
<g id="edge46_Node000002_Node000023" class="edge">
<title>Node2&#45;&gt;Node23</title>
<g id="a_edge46_Node000002_Node000023"><a xlink:title=" ">
<path fill="none" stroke="#63b8ff" d="M971.77,-247.95C1093.17,-242.86 1360.7,-229.8 1585.08,-206 1718.95,-191.8 1874.98,-166.74 1958,-152.72"/>
<polygon fill="#63b8ff" stroke="#63b8ff" points="1958.73,-156.15 1968,-151.03 1957.56,-149.25 1958.73,-156.15"/>
</a>
</g>
</g>
<!-- Node25 -->
<g id="Node000025" class="node">
<title>Node25</title>
<g id="a_Node000025"><a xlink:href="DirektComponentRegistry_8h.html" target="_top" xlink:title=" ">
<polygon fill="white" stroke="#666666" points="2204.58,-206 2029.58,-206 2029.58,-187 2204.58,-187 2204.58,-206"/>
<text text-anchor="middle" x="2117.08" y="-194" font-family="Helvetica,sans-Serif" font-size="10.00">core/DirektComponentRegistry.h</text>
</a>
</g>
</g>
<!-- Node2&#45;&gt;Node25 -->
<g id="edge50_Node000002_Node000025" class="edge">
<title>Node2&#45;&gt;Node25</title>
<g id="a_edge50_Node000002_Node000025"><a xlink:title=" ">
<path fill="none" stroke="#63b8ff" d="M971.62,-247.63C1172.47,-238.84 1780.29,-212.24 2019.17,-201.78"/>
<polygon fill="#63b8ff" stroke="#63b8ff" points="2019.4,-205.28 2029.23,-201.34 2019.09,-198.29 2019.4,-205.28"/>
</a>
</g>
</g>
<!-- Node26 -->
<g id="Node000026" class="node">
<title>Node26</title>
<g id="a_Node000026"><a xlink:href="DirektLookAndFeel_8h.html" target="_top" xlink:title=" ">
<polygon fill="white" stroke="#666666" points="495.08,-151 343.08,-151 343.08,-132 495.08,-132 495.08,-151"/>
<text text-anchor="middle" x="419.08" y="-139" font-family="Helvetica,sans-Serif" font-size="10.00">theme/DirektLookAndFeel.h</text>
</a>
</g>
</g>
<!-- Node2&#45;&gt;Node26 -->
<g id="edge61_Node000002_Node000026" class="edge">
<title>Node2&#45;&gt;Node26</title>
<g id="a_edge61_Node000002_Node000026"><a xlink:title=" ">
<path fill="none" stroke="#63b8ff" d="M840.56,-243.25C782.03,-236.09 694.18,-223.63 619.08,-206 559.05,-191.9 490.96,-168.69 451.72,-154.57"/>
<polygon fill="#63b8ff" stroke="#63b8ff" points="452.75,-151.22 442.15,-151.11 450.36,-157.8 452.75,-151.22"/>
</a>
</g>
</g>
<!-- Node5&#45;&gt;Node4 -->
<g id="edge5_Node000005_Node000004" class="edge">
<title>Node5&#45;&gt;Node4</title>
<g id="a_edge5_Node000005_Node000004"><a xlink:title=" ">
<path fill="none" stroke="#63b8ff" d="M575.43,-131.79C574.78,-116.02 575.93,-82.84 595.08,-66 644.28,-22.72 832.54,-15.78 935.61,-15.33"/>
<polygon fill="#63b8ff" stroke="#63b8ff" points="935.93,-18.83 945.92,-15.31 935.92,-11.83 935.93,-18.83"/>
</a>
</g>
</g>
<!-- Node5&#45;&gt;Node6 -->
<g id="edge6_Node000005_Node000006" class="edge">
<title>Node5&#45;&gt;Node6</title>
<g id="a_edge6_Node000005_Node000006"><a xlink:title=" ">
<path fill="none" stroke="#63b8ff" d="M589.65,-131.87C604.46,-122.45 628.4,-107.23 645.94,-96.08"/>
<polygon fill="#63b8ff" stroke="#63b8ff" points="647.89,-98.99 654.45,-90.67 644.13,-93.08 647.89,-98.99"/>
</a>
</g>
</g>
<!-- Node6&#45;&gt;Node4 -->
<g id="edge7_Node000006_Node000004" class="edge">
<title>Node6&#45;&gt;Node4</title>
<g id="a_edge7_Node000006_Node000004"><a xlink:title=" ">
<path fill="none" stroke="#63b8ff" d="M712.47,-71.47C721.91,-69.66 731.82,-67.77 741.08,-66 807.23,-53.37 882.76,-39.02 935.86,-28.94"/>
<polygon fill="#63b8ff" stroke="#63b8ff" points="936.66,-32.35 945.84,-27.04 935.36,-25.47 936.66,-32.35"/>
</a>
</g>
</g>
<!-- Node7&#45;&gt;Node3 -->
<g id="edge9_Node000007_Node000003" class="edge">
<title>Node7&#45;&gt;Node3</title>
<g id="a_edge9_Node000007_Node000003"><a xlink:title=" ">
<path fill="none" stroke="#63b8ff" d="M825.1,-132.98C828.48,-132.64 831.82,-132.31 835.08,-132 1043.36,-112.29 1289.32,-95.26 1413.21,-87.11"/>
<polygon fill="#63b8ff" stroke="#63b8ff" points="1413.62,-90.59 1423.37,-86.45 1413.16,-83.61 1413.62,-90.59"/>
</a>
</g>
</g>
<!-- Node7&#45;&gt;Node4 -->
<g id="edge10_Node000007_Node000004" class="edge">
<title>Node7&#45;&gt;Node4</title>
<g id="a_edge10_Node000007_Node000004"><a xlink:title=" ">
<path fill="none" stroke="#63b8ff" d="M776.85,-131.94C815.85,-112.04 913.41,-62.26 967.14,-34.85"/>
<polygon fill="#63b8ff" stroke="#63b8ff" points="969.01,-37.82 976.33,-30.16 965.83,-31.59 969.01,-37.82"/>
</a>
</g>
</g>
<!-- Node7&#45;&gt;Node6 -->
<g id="edge12_Node000007_Node000006" class="edge">
<title>Node7&#45;&gt;Node6</title>
<g id="a_edge12_Node000007_Node000006"><a xlink:title=" ">
<path fill="none" stroke="#63b8ff" d="M746.5,-131.87C731.69,-122.45 707.75,-107.23 690.21,-96.08"/>
<polygon fill="#63b8ff" stroke="#63b8ff" points="692.02,-93.08 681.71,-90.67 688.27,-98.99 692.02,-93.08"/>
</a>
</g>
</g>
<!-- Node8 -->
<g id="Node000008" class="node">
<title>Node8</title>
<g id="a_Node000008"><a xlink:title=" ">
<polygon fill="#e0e0e0" stroke="#999999" points="814.58,-90.5 749.58,-90.5 749.58,-71.5 814.58,-71.5 814.58,-90.5"/>
<text text-anchor="middle" x="782.08" y="-78.5" font-family="Helvetica,sans-Serif" font-size="10.00">functional</text>
</a>
</g>
</g>
<!-- Node7&#45;&gt;Node8 -->
<g id="edge11_Node000007_Node000008" class="edge">
<title>Node7&#45;&gt;Node8</title>
<g id="a_edge11_Node000007_Node000008"><a xlink:title=" ">
<path fill="none" stroke="#63b8ff" d="M763.32,-131.87C766.44,-123.57 771.26,-110.78 775.22,-100.22"/>
<polygon fill="#63b8ff" stroke="#63b8ff" points="778.57,-101.26 778.82,-90.67 772.02,-98.8 778.57,-101.26"/>
</a>
</g>
</g>
<!-- Node9&#45;&gt;Node4 -->
<g id="edge14_Node000009_Node000004" class="edge">
<title>Node9&#45;&gt;Node4</title>
<g id="a_edge14_Node000009_Node000004"><a xlink:title=" ">
<path fill="none" stroke="#63b8ff" d="M1059.02,-131.94C1050.08,-113.07 1028.41,-67.34 1015.11,-39.28"/>
<polygon fill="#63b8ff" stroke="#63b8ff" points="1018.23,-37.7 1010.79,-30.16 1011.91,-40.7 1018.23,-37.7"/>
</a>
</g>
</g>
<!-- Node9&#45;&gt;Node6 -->
<g id="edge15_Node000009_Node000006" class="edge">
<title>Node9&#45;&gt;Node6</title>
<g id="a_edge15_Node000009_Node000006"><a xlink:title=" ">
<path fill="none" stroke="#63b8ff" d="M993.83,-131.99C928.51,-123.71 827.94,-110.32 741.08,-96 734.4,-94.9 727.4,-93.66 720.49,-92.39"/>
<polygon fill="#63b8ff" stroke="#63b8ff" points="720.95,-88.92 710.47,-90.52 719.66,-95.8 720.95,-88.92"/>
</a>
</g>
</g>
<!-- Node10&#45;&gt;Node4 -->
<g id="edge17_Node000010_Node000004" class="edge">
<title>Node10&#45;&gt;Node4</title>
<g id="a_edge17_Node000010_Node000004"><a xlink:title=" ">
<path fill="none" stroke="#63b8ff" d="M265.97,-131.89C310.69,-116.15 410.37,-82.79 497.08,-66 652.23,-35.96 837.79,-23.49 935.72,-18.71"/>
<polygon fill="#63b8ff" stroke="#63b8ff" points="935.96,-22.2 945.78,-18.23 935.63,-15.21 935.96,-22.2"/>
</a>
</g>
</g>
<!-- Node10&#45;&gt;Node6 -->
<g id="edge20_Node000010_Node000006" class="edge">
<title>Node10&#45;&gt;Node6</title>
<g id="a_edge20_Node000010_Node000006"><a xlink:title=" ">
<path fill="none" stroke="#63b8ff" d="M304.02,-131.99C381.55,-121.35 514.1,-103.14 596.07,-91.89"/>
<polygon fill="#63b8ff" stroke="#63b8ff" points="596.63,-95.34 606.06,-90.52 595.68,-88.41 596.63,-95.34"/>
</a>
</g>
</g>
<!-- Node10&#45;&gt;Node8 -->
<g id="edge18_Node000010_Node000008" class="edge">
<title>Node10&#45;&gt;Node8</title>
<g id="a_edge18_Node000010_Node000008"><a xlink:title=" ">
<path fill="none" stroke="#63b8ff" d="M324.83,-132.84C327.95,-132.55 331.04,-132.27 334.08,-132 514.93,-115.65 563.42,-133.61 741.08,-96 744.14,-95.35 747.3,-94.54 750.43,-93.64"/>
<polygon fill="#63b8ff" stroke="#63b8ff" points="751.74,-96.9 760.22,-90.55 749.63,-90.22 751.74,-96.9"/>
</a>
</g>
</g>
<!-- Node11 -->
<g id="Node000011" class="node">
<title>Node11</title>
<g id="a_Node000011"><a xlink:title=" ">
<polygon fill="#e0e0e0" stroke="#999999" points="285.08,-90.5 199.08,-90.5 199.08,-71.5 285.08,-71.5 285.08,-90.5"/>
<text text-anchor="middle" x="242.08" y="-78.5" font-family="Helvetica,sans-Serif" font-size="10.00">unordered_set</text>
</a>
</g>
</g>
<!-- Node10&#45;&gt;Node11 -->
<g id="edge19_Node000010_Node000011" class="edge">
<title>Node10&#45;&gt;Node11</title>
<g id="a_edge19_Node000010_Node000011"><a xlink:title=" ">
<path fill="none" stroke="#63b8ff" d="M242.08,-131.87C242.08,-123.75 242.08,-111.31 242.08,-100.89"/>
<polygon fill="#63b8ff" stroke="#63b8ff" points="245.58,-100.67 242.08,-90.67 238.58,-100.67 245.58,-100.67"/>
</a>
</g>
</g>
<!-- Node12&#45;&gt;Node4 -->
<g id="edge22_Node000012_Node000004" class="edge">
<title>Node12&#45;&gt;Node4</title>
<g id="a_edge22_Node000012_Node000004"><a xlink:title=" ">
<path fill="none" stroke="#63b8ff" d="M90.93,-131.79C108.24,-115.41 148.52,-80.35 190.08,-66 327.13,-18.66 765.92,-15.06 935.91,-15.52"/>
<polygon fill="#63b8ff" stroke="#63b8ff" points="935.97,-19.02 945.98,-15.55 935.99,-12.02 935.97,-19.02"/>
</a>
</g>
</g>
<!-- Node12&#45;&gt;Node6 -->
<g id="edge23_Node000012_Node000006" class="edge">
<title>Node12&#45;&gt;Node6</title>
<g id="a_edge23_Node000012_Node000006"><a xlink:title=" ">
<path fill="none" stroke="#63b8ff" d="M141.77,-132.94C144.58,-132.62 147.36,-132.3 150.08,-132 308.09,-114.5 493.6,-97.44 594.17,-88.48"/>
<polygon fill="#63b8ff" stroke="#63b8ff" points="594.57,-91.95 604.22,-87.58 593.95,-84.98 594.57,-91.95"/>
</a>
</g>
</g>
<!-- Node13&#45;&gt;Node4 -->
<g id="edge25_Node000013_Node000004" class="edge">
<title>Node13&#45;&gt;Node4</title>
<g id="a_edge25_Node000013_Node000004"><a xlink:title=" ">
<path fill="none" stroke="#63b8ff" d="M2248.17,-131.88C2233.51,-113.87 2199.32,-73.3 2183.08,-66 2081.92,-20.53 1308.41,-16.21 1072.3,-15.96"/>
<polygon fill="#63b8ff" stroke="#63b8ff" points="1072.13,-12.46 1062.13,-15.95 1072.12,-19.46 1072.13,-12.46"/>
</a>
</g>
</g>
<!-- Node14 -->
<g id="Node000014" class="node">
<title>Node14</title>
<g id="a_Node000014"><a xlink:title=" ">
<polygon fill="#e0e0e0" stroke="#999999" points="2174.08,-90.5 2136.08,-90.5 2136.08,-71.5 2174.08,-71.5 2174.08,-90.5"/>
<text text-anchor="middle" x="2155.08" y="-78.5" font-family="Helvetica,sans-Serif" font-size="10.00">map</text>
</a>
</g>
</g>
<!-- Node13&#45;&gt;Node14 -->
<g id="edge26_Node000013_Node000014" class="edge">
<title>Node13&#45;&gt;Node14</title>
<g id="a_edge26_Node000013_Node000014"><a xlink:title=" ">
<path fill="none" stroke="#63b8ff" d="M2240.32,-131.87C2224.07,-122.36 2197.72,-106.95 2178.62,-95.77"/>
<polygon fill="#63b8ff" stroke="#63b8ff" points="2180.29,-92.7 2169.89,-90.67 2176.76,-98.74 2180.29,-92.7"/>
</a>
</g>
</g>
<!-- Node15 -->
<g id="Node000015" class="node">
<title>Node15</title>
<g id="a_Node000015"><a xlink:title=" ">
<polygon fill="#e0e0e0" stroke="#999999" points="2358.08,-90.5 2300.08,-90.5 2300.08,-71.5 2358.08,-71.5 2358.08,-90.5"/>
<text text-anchor="middle" x="2329.08" y="-78.5" font-family="Helvetica,sans-Serif" font-size="10.00">memory</text>
</a>
</g>
</g>
<!-- Node13&#45;&gt;Node15 -->
<g id="edge27_Node000013_Node000015" class="edge">
<title>Node13&#45;&gt;Node15</title>
<g id="a_edge27_Node000013_Node000015"><a xlink:title=" ">
<path fill="none" stroke="#63b8ff" d="M2266,-131.87C2277.58,-122.71 2296.11,-108.06 2310.1,-97.01"/>
<polygon fill="#63b8ff" stroke="#63b8ff" points="2312.44,-99.61 2318.11,-90.67 2308.1,-94.12 2312.44,-99.61"/>
</a>
</g>
</g>
<!-- Node16 -->
<g id="Node000016" class="node">
<title>Node16</title>
<g id="a_Node000016"><a xlink:title=" ">
<polygon fill="#e0e0e0" stroke="#999999" points="2281.58,-90.5 2230.58,-90.5 2230.58,-71.5 2281.58,-71.5 2281.58,-90.5"/>
<text text-anchor="middle" x="2256.08" y="-78.5" font-family="Helvetica,sans-Serif" font-size="10.00">variant</text>
</a>
</g>
</g>
<!-- Node13&#45;&gt;Node16 -->
<g id="edge28_Node000013_Node000016" class="edge">
<title>Node13&#45;&gt;Node16</title>
<g id="a_edge28_Node000013_Node000016"><a xlink:title=" ">
<path fill="none" stroke="#63b8ff" d="M2255.23,-131.87C2255.36,-123.75 2255.58,-111.31 2255.75,-100.89"/>
<polygon fill="#63b8ff" stroke="#63b8ff" points="2259.26,-100.73 2255.93,-90.67 2252.26,-100.61 2259.26,-100.73"/>
</a>
</g>
</g>
<!-- Node17 -->
<g id="Node000017" class="node">
<title>Node17</title>
<g id="a_Node000017"><a xlink:title=" ">
<polygon fill="#e0e0e0" stroke="#999999" points="2423.58,-90.5 2376.58,-90.5 2376.58,-71.5 2423.58,-71.5 2423.58,-90.5"/>
<text text-anchor="middle" x="2400.08" y="-78.5" font-family="Helvetica,sans-Serif" font-size="10.00">vector</text>
</a>
</g>
</g>
<!-- Node13&#45;&gt;Node17 -->
<g id="edge29_Node000013_Node000017" class="edge">
<title>Node13&#45;&gt;Node17</title>
<g id="a_edge29_Node000013_Node000017"><a xlink:title=" ">
<path fill="none" stroke="#63b8ff" d="M2277.03,-131.95C2299.65,-123.1 2335.92,-108.8 2367.08,-96 2368.28,-95.51 2369.5,-95 2370.73,-94.49"/>
<polygon fill="#63b8ff" stroke="#63b8ff" points="2372.35,-97.61 2380.22,-90.51 2369.64,-91.15 2372.35,-97.61"/>
</a>
</g>
</g>
<!-- Node18&#45;&gt;Node3 -->
<g id="edge31_Node000018_Node000003" class="edge">
<title>Node18&#45;&gt;Node3</title>
<g id="a_edge31_Node000018_Node000003"><a xlink:title=" ">
<path fill="none" stroke="#63b8ff" d="M1515.84,-186.97C1525.86,-174.87 1541.22,-151.97 1534.08,-132 1530.3,-121.43 1523.21,-111.48 1515.98,-103.29"/>
<polygon fill="#63b8ff" stroke="#63b8ff" points="1518.52,-100.88 1509.11,-96.01 1513.43,-105.68 1518.52,-100.88"/>
</a>
</g>
</g>
<!-- Node18&#45;&gt;Node4 -->
<g id="edge32_Node000018_Node000004" class="edge">
<title>Node18&#45;&gt;Node4</title>
<g id="a_edge32_Node000018_Node000004"><a xlink:title=" ">
<path fill="none" stroke="#63b8ff" d="M1575.69,-190.42C1630.7,-184.72 1702.06,-173.19 1720.08,-151 1725.4,-144.44 1724.31,-139.31 1720.08,-132 1690.55,-81 1661.34,-83.53 1605.08,-66 1507.41,-35.57 1208.67,-22.46 1072.73,-17.96"/>
<polygon fill="#63b8ff" stroke="#63b8ff" points="1072.55,-14.46 1062.44,-17.63 1072.32,-21.45 1072.55,-14.46"/>
</a>
</g>
</g>
<!-- Node18&#45;&gt;Node13 -->
<g id="edge33_Node000018_Node000013" class="edge">
<title>Node18&#45;&gt;Node13</title>
<g id="a_edge33_Node000018_Node000013"><a xlink:title=" ">
<path fill="none" stroke="#63b8ff" d="M1575.69,-190.7C1713.08,-180.95 2024.47,-158.86 2173.12,-148.32"/>
<polygon fill="#63b8ff" stroke="#63b8ff" points="2173.81,-151.77 2183.54,-147.58 2173.31,-144.79 2173.81,-151.77"/>
</a>
</g>
</g>
<!-- Node19 -->
<g id="Node000019" class="node">
<title>Node19</title>
<g id="a_Node000019"><a xlink:href="DirektComboBox_8h.html" target="_top" xlink:title=" ">
<polygon fill="white" stroke="#666666" points="1384.58,-151 1233.58,-151 1233.58,-132 1384.58,-132 1384.58,-151"/>
<text text-anchor="middle" x="1309.08" y="-139" font-family="Helvetica,sans-Serif" font-size="10.00">controls/DirektComboBox.h</text>
</a>
</g>
</g>
<!-- Node18&#45;&gt;Node19 -->
<g id="edge34_Node000018_Node000019" class="edge">
<title>Node18&#45;&gt;Node19</title>
<g id="a_edge34_Node000018_Node000019"><a xlink:title=" ">
<path fill="none" stroke="#63b8ff" d="M1476.1,-186.98C1442.26,-177.97 1388.68,-163.7 1351.37,-153.76"/>
<polygon fill="#63b8ff" stroke="#63b8ff" points="1351.86,-150.27 1341.3,-151.08 1350.06,-157.04 1351.86,-150.27"/>
</a>
</g>
</g>
<!-- Node20 -->
<g id="Node000020" class="node">
<title>Node20</title>
<g id="a_Node000020"><a xlink:href="DirektKnob_8h.html" target="_top" xlink:title=" ">
<polygon fill="white" stroke="#666666" points="1525.08,-151 1403.08,-151 1403.08,-132 1525.08,-132 1525.08,-151"/>
<text text-anchor="middle" x="1464.08" y="-139" font-family="Helvetica,sans-Serif" font-size="10.00">controls/DirektKnob.h</text>
</a>
</g>
</g>
<!-- Node18&#45;&gt;Node20 -->
<g id="edge37_Node000018_Node000020" class="edge">
<title>Node18&#45;&gt;Node20</title>
<g id="a_edge37_Node000018_Node000020"><a xlink:title=" ">
<path fill="none" stroke="#63b8ff" d="M1500.81,-186.75C1494.53,-179.18 1485.29,-168.05 1477.65,-158.84"/>
<polygon fill="#63b8ff" stroke="#63b8ff" points="1480.29,-156.55 1471.21,-151.09 1474.9,-161.02 1480.29,-156.55"/>
</a>
</g>
</g>
<!-- Node21 -->
<g id="Node000021" class="node">
<title>Node21</title>
<g id="a_Node000021"><a xlink:href="DirektToggle_8h.html" target="_top" xlink:title=" ">
<polygon fill="white" stroke="#666666" points="1710.58,-151 1581.58,-151 1581.58,-132 1710.58,-132 1710.58,-151"/>
<text text-anchor="middle" x="1646.08" y="-139" font-family="Helvetica,sans-Serif" font-size="10.00">controls/DirektToggle.h</text>
</a>
</g>
</g>
<!-- Node18&#45;&gt;Node21 -->
<g id="edge40_Node000018_Node000021" class="edge">
<title>Node18&#45;&gt;Node21</title>
<g id="a_edge40_Node000018_Node000021"><a xlink:title=" ">
<path fill="none" stroke="#63b8ff" d="M1530.25,-186.98C1552.85,-178.3 1588.14,-164.75 1613.83,-154.88"/>
<polygon fill="#63b8ff" stroke="#63b8ff" points="1615.42,-158.02 1623.5,-151.17 1612.91,-151.49 1615.42,-158.02"/>
</a>
</g>
</g>
<!-- Node18&#45;&gt;Node22 -->
<g id="edge43_Node000018_Node000022" class="edge">
<title>Node18&#45;&gt;Node22</title>
<g id="a_edge43_Node000018_Node000022"><a xlink:title=" ">
<path fill="none" stroke="#63b8ff" d="M1440.24,-190.54C1341.29,-183.14 1151.31,-168.32 978.91,-151.05"/>
<polygon fill="#63b8ff" stroke="#63b8ff" points="979.19,-147.56 968.89,-150.04 978.49,-154.53 979.19,-147.56"/>
</a>
</g>
</g>
<!-- Node19&#45;&gt;Node3 -->
<g id="edge35_Node000019_Node000003" class="edge">
<title>Node19&#45;&gt;Node3</title>
<g id="a_edge35_Node000019_Node000003"><a xlink:title=" ">
<path fill="none" stroke="#63b8ff" d="M1335.83,-131.99C1362.78,-123.43 1405.1,-109.97 1439.05,-99.18"/>
<polygon fill="#63b8ff" stroke="#63b8ff" points="1440.37,-102.43 1448.84,-96.06 1438.25,-95.76 1440.37,-102.43"/>
</a>
</g>
</g>
<!-- Node19&#45;&gt;Node4 -->
<g id="edge36_Node000019_Node000004" class="edge">
<title>Node19&#45;&gt;Node4</title>
<g id="a_edge36_Node000019_Node000004"><a xlink:title=" ">
<path fill="none" stroke="#63b8ff" d="M1288.11,-131.94C1238.86,-111.84 1114.88,-61.23 1048.18,-34"/>
<polygon fill="#63b8ff" stroke="#63b8ff" points="1049.35,-30.7 1038.77,-30.16 1046.7,-37.18 1049.35,-30.7"/>
</a>
</g>
</g>
<!-- Node20&#45;&gt;Node3 -->
<g id="edge38_Node000020_Node000003" class="edge">
<title>Node20&#45;&gt;Node3</title>
<g id="a_edge38_Node000020_Node000003"><a xlink:title=" ">
<path fill="none" stroke="#63b8ff" d="M1468.36,-131.87C1471.85,-124.81 1476.97,-114.5 1481.64,-105.08"/>
<polygon fill="#63b8ff" stroke="#63b8ff" points="1484.77,-106.63 1486.08,-96.11 1478.5,-103.52 1484.77,-106.63"/>
</a>
</g>
</g>
<!-- Node20&#45;&gt;Node4 -->
<g id="edge39_Node000020_Node000004" class="edge">
<title>Node20&#45;&gt;Node4</title>
<g id="a_edge39_Node000020_Node000004"><a xlink:title=" ">
<path fill="none" stroke="#63b8ff" d="M1432.46,-131.94C1357,-111.52 1165.3,-59.64 1065.93,-32.74"/>
<polygon fill="#63b8ff" stroke="#63b8ff" points="1066.59,-29.29 1056.02,-30.06 1064.76,-36.05 1066.59,-29.29"/>
</a>
</g>
</g>
<!-- Node21&#45;&gt;Node3 -->
<g id="edge41_Node000021_Node000003" class="edge">
<title>Node21&#45;&gt;Node3</title>
<g id="a_edge41_Node000021_Node000003"><a xlink:title=" ">
<path fill="none" stroke="#63b8ff" d="M1623.83,-131.99C1601.81,-123.57 1567.44,-110.43 1539.46,-99.73"/>
<polygon fill="#63b8ff" stroke="#63b8ff" points="1540.45,-96.37 1529.86,-96.06 1537.95,-102.9 1540.45,-96.37"/>
</a>
</g>
</g>
<!-- Node21&#45;&gt;Node4 -->
<g id="edge42_Node000021_Node000004" class="edge">
<title>Node21&#45;&gt;Node4</title>
<g id="a_edge42_Node000021_Node000004"><a xlink:title=" ">
<path fill="none" stroke="#63b8ff" d="M1640.46,-131.64C1629.55,-115.33 1603.77,-80.85 1572.08,-66 1485.13,-25.25 1203.78,-17.55 1072.6,-16.21"/>
<polygon fill="#63b8ff" stroke="#63b8ff" points="1072.31,-12.7 1062.28,-16.11 1072.24,-19.7 1072.31,-12.7"/>
</a>
</g>
</g>
<!-- Node22&#45;&gt;Node4 -->
<g id="edge44_Node000022_Node000004" class="edge">
<title>Node22&#45;&gt;Node4</title>
<g id="a_edge44_Node000022_Node000004"><a xlink:title=" ">
<path fill="none" stroke="#63b8ff" d="M912.81,-131.94C927.86,-112.82 964.62,-66.13 986.62,-38.18"/>
<polygon fill="#63b8ff" stroke="#63b8ff" points="989.5,-40.18 992.93,-30.16 984,-35.85 989.5,-40.18"/>
</a>
</g>
</g>
<!-- Node22&#45;&gt;Node6 -->
<g id="edge45_Node000022_Node000006" class="edge">
<title>Node22&#45;&gt;Node6</title>
<g id="a_edge45_Node000022_Node000006"><a xlink:title=" ">
<path fill="none" stroke="#63b8ff" d="M871.47,-131.99C829.52,-121.68 758.74,-104.28 712.72,-92.97"/>
<polygon fill="#63b8ff" stroke="#63b8ff" points="713.27,-89.5 702.73,-90.52 711.6,-96.3 713.27,-89.5"/>
</a>
</g>
</g>
<!-- Node23&#45;&gt;Node3 -->
<g id="edge47_Node000023_Node000003" class="edge">
<title>Node23&#45;&gt;Node3</title>
<g id="a_edge47_Node000023_Node000003"><a xlink:title=" ">
<path fill="none" stroke="#63b8ff" d="M1945.32,-132.49C1847.9,-121.61 1674.34,-102.24 1572.91,-90.91"/>
<polygon fill="#63b8ff" stroke="#63b8ff" points="1573.05,-87.41 1562.72,-89.78 1572.27,-94.36 1573.05,-87.41"/>
</a>
</g>
</g>
<!-- Node23&#45;&gt;Node14 -->
<g id="edge49_Node000023_Node000014" class="edge">
<title>Node23&#45;&gt;Node14</title>
<g id="a_edge49_Node000023_Node000014"><a xlink:title=" ">
<path fill="none" stroke="#63b8ff" d="M2037.14,-131.99C2060.71,-122 2099.97,-105.36 2126.66,-94.04"/>
<polygon fill="#63b8ff" stroke="#63b8ff" points="2128.04,-97.26 2135.88,-90.14 2125.3,-90.82 2128.04,-97.26"/>
</a>
</g>
</g>
<!-- Node24 -->
<g id="Node000024" class="node">
<title>Node24</title>
<g id="a_Node000024"><a xlink:title=" ">
<polygon fill="#e0e0e0" stroke="#999999" points="1993.08,-90.5 1943.08,-90.5 1943.08,-71.5 1993.08,-71.5 1993.08,-90.5"/>
<text text-anchor="middle" x="1968.08" y="-78.5" font-family="Helvetica,sans-Serif" font-size="10.00">atomic</text>
</a>
</g>
</g>
<!-- Node23&#45;&gt;Node24 -->
<g id="edge48_Node000023_Node000024" class="edge">
<title>Node23&#45;&gt;Node24</title>
<g id="a_edge48_Node000023_Node000024"><a xlink:title=" ">
<path fill="none" stroke="#63b8ff" d="M2009.85,-131.87C2002.54,-123.14 1991.05,-109.43 1981.98,-98.59"/>
<polygon fill="#63b8ff" stroke="#63b8ff" points="1984.44,-96.09 1975.34,-90.67 1979.08,-100.58 1984.44,-96.09"/>
</a>
</g>
</g>
<!-- Node25&#45;&gt;Node3 -->
<g id="edge51_Node000025_Node000003" class="edge">
<title>Node25&#45;&gt;Node3</title>
<g id="a_edge51_Node000025_Node000003"><a xlink:title=" ">
<path fill="none" stroke="#63b8ff" d="M2038.53,-186.99C1973.3,-179.36 1878.24,-166.92 1796.08,-151 1761.9,-144.38 1753.97,-139.97 1720.08,-132 1669.86,-120.19 1613.19,-107.71 1569.04,-98.17"/>
<polygon fill="#63b8ff" stroke="#63b8ff" points="1569.76,-94.75 1559.24,-96.06 1568.28,-101.59 1569.76,-94.75"/>
</a>
</g>
</g>
<!-- Node25&#45;&gt;Node4 -->
<g id="edge52_Node000025_Node000004" class="edge">
<title>Node25&#45;&gt;Node4</title>
<g id="a_edge52_Node000025_Node000004"><a xlink:title=" ">
<path fill="none" stroke="#63b8ff" d="M2116.32,-186.89C2114.81,-173.88 2110.41,-148.93 2098.08,-132 2067.59,-90.15 2051.13,-82.59 2002.08,-66 1914.67,-36.43 1283.18,-21.48 1072.38,-17.27"/>
<polygon fill="#63b8ff" stroke="#63b8ff" points="1072.43,-13.77 1062.36,-17.07 1072.29,-20.77 1072.43,-13.77"/>
</a>
</g>
</g>
<!-- Node25&#45;&gt;Node8 -->
<g id="edge53_Node000025_Node000008" class="edge">
<title>Node25&#45;&gt;Node8</title>
<g id="a_edge53_Node000025_Node000008"><a xlink:title=" ">
<path fill="none" stroke="#63b8ff" d="M2029.36,-193.27C1836.05,-188 1378.39,-173.53 1225.08,-151 1190.2,-145.88 1182.7,-138.62 1148.08,-132 1031.84,-109.78 893.01,-93.62 824.55,-86.32"/>
<polygon fill="#63b8ff" stroke="#63b8ff" points="824.89,-82.84 814.58,-85.27 824.16,-89.8 824.89,-82.84"/>
</a>
</g>
</g>
<!-- Node25&#45;&gt;Node13 -->
<g id="edge57_Node000025_Node000013" class="edge">
<title>Node25&#45;&gt;Node13</title>
<g id="a_edge57_Node000025_Node000013"><a xlink:title=" ">
<path fill="none" stroke="#63b8ff" d="M2139.25,-186.98C2161.85,-178.3 2197.14,-164.75 2222.83,-154.88"/>
<polygon fill="#63b8ff" stroke="#63b8ff" points="2224.42,-158.02 2232.5,-151.17 2221.91,-151.49 2224.42,-158.02"/>
</a>
</g>
</g>
<!-- Node25&#45;&gt;Node14 -->
<g id="edge54_Node000025_Node000014" class="edge">
<title>Node25&#45;&gt;Node14</title>
<g id="a_edge54_Node000025_Node000014"><a xlink:title=" ">
<path fill="none" stroke="#63b8ff" d="M2119.93,-186.97C2126.07,-168.65 2140.62,-125.18 2148.95,-100.31"/>
<polygon fill="#63b8ff" stroke="#63b8ff" points="2152.33,-101.22 2152.19,-90.63 2145.69,-99 2152.33,-101.22"/>
</a>
</g>
</g>
<!-- Node25&#45;&gt;Node15 -->
<g id="edge55_Node000025_Node000015" class="edge">
<title>Node25&#45;&gt;Node15</title>
<g id="a_edge55_Node000025_Node000015"><a xlink:title=" ">
<path fill="none" stroke="#63b8ff" d="M2204.73,-188.87C2258.17,-182.79 2319.32,-171.5 2336.08,-151 2347.59,-136.91 2343.07,-115.41 2337.44,-100.16"/>
<polygon fill="#63b8ff" stroke="#63b8ff" points="2340.61,-98.66 2333.54,-90.77 2334.14,-101.34 2340.61,-98.66"/>
</a>
</g>
</g>
<!-- Node25&#45;&gt;Node17 -->
<g id="edge56_Node000025_Node000017" class="edge">
<title>Node25&#45;&gt;Node17</title>
<g id="a_edge56_Node000025_Node000017"><a xlink:title=" ">
<path fill="none" stroke="#63b8ff" d="M2197.44,-186.99C2255.43,-179.63 2327.79,-167.56 2353.08,-151 2371.78,-138.76 2385.01,-116.22 2392.57,-100.24"/>
<polygon fill="#63b8ff" stroke="#63b8ff" points="2395.87,-101.42 2396.72,-90.86 2389.47,-98.59 2395.87,-101.42"/>
</a>
</g>
</g>
<!-- Node25&#45;&gt;Node23 -->
<g id="edge58_Node000025_Node000023" class="edge">
<title>Node25&#45;&gt;Node23</title>
<g id="a_edge58_Node000025_Node000023"><a xlink:title=" ">
<path fill="none" stroke="#63b8ff" d="M2101.01,-186.98C2085.21,-178.61 2060.86,-165.7 2042.45,-155.95"/>
<polygon fill="#63b8ff" stroke="#63b8ff" points="2043.91,-152.76 2033.44,-151.17 2040.63,-158.95 2043.91,-152.76"/>
</a>
</g>
</g>
<!-- Node26&#45;&gt;Node4 -->
<g id="edge62_Node000026_Node000004" class="edge">
<title>Node26&#45;&gt;Node4</title>
<g id="a_edge62_Node000026_Node000004"><a xlink:title=" ">
<path fill="none" stroke="#63b8ff" d="M433.17,-131.86C459.93,-115.9 520.4,-81.99 576.08,-66 699.59,-30.53 850.04,-20.15 935.67,-17.16"/>
<polygon fill="#63b8ff" stroke="#63b8ff" points="935.91,-20.65 945.79,-16.83 935.68,-13.65 935.91,-20.65"/>
</a>
</g>
</g>
<!-- Node26&#45;&gt;Node6 -->
<g id="edge63_Node000026_Node000006" class="edge">
<title>Node26&#45;&gt;Node6</title>
<g id="a_edge63_Node000026_Node000006"><a xlink:title=" ">
<path fill="none" stroke="#63b8ff" d="M455.28,-131.99C499.36,-121.64 573.85,-104.14 621.98,-92.83"/>
<polygon fill="#63b8ff" stroke="#63b8ff" points="622.89,-96.21 631.83,-90.52 621.29,-89.4 622.89,-96.21"/>
</a>
</g>
</g>
<!-- Node27&#45;&gt;Node4 -->
<g id="edge65_Node000027_Node000004" class="edge">
<title>Node27&#45;&gt;Node4</title>
<g id="a_edge65_Node000027_Node000004"><a xlink:title=" ">
<path fill="none" stroke="#63b8ff" d="M1856.72,-131.81C1838.46,-115.47 1796.06,-80.47 1753.08,-66 1628.07,-23.91 1232.43,-17.12 1072.32,-16.12"/>
<polygon fill="#63b8ff" stroke="#63b8ff" points="1072.14,-12.62 1062.12,-16.07 1072.1,-19.62 1072.14,-12.62"/>
</a>
</g>
</g>
<!-- Node27&#45;&gt;Node6 -->
<g id="edge67_Node000027_Node000006" class="edge">
<title>Node27&#45;&gt;Node6</title>
<g id="a_edge67_Node000027_Node000006"><a xlink:title=" ">
<path fill="none" stroke="#63b8ff" d="M1805,-136.65C1778.85,-135.08 1747.98,-133.32 1720.08,-132 1285.16,-111.35 1173.7,-145.15 741.08,-96 733.06,-95.09 724.59,-93.79 716.39,-92.34"/>
<polygon fill="#63b8ff" stroke="#63b8ff" points="717.02,-88.9 706.55,-90.52 715.75,-95.78 717.02,-88.9"/>
</a>
</g>
</g>
<!-- Node27&#45;&gt;Node24 -->
<g id="edge66_Node000027_Node000024" class="edge">
<title>Node27&#45;&gt;Node24</title>
<g id="a_edge66_Node000027_Node000024"><a xlink:title=" ">
<path fill="none" stroke="#63b8ff" d="M1881.13,-131.87C1897.7,-122.36 1924.58,-106.95 1944.07,-95.77"/>
<polygon fill="#63b8ff" stroke="#63b8ff" points="1946.03,-98.68 1952.97,-90.67 1942.55,-92.61 1946.03,-98.68"/>
</a>
</g>
</g>
</g>
</svg>

<g id="navigator" transform="translate(0 0)" fill="#404254">
  <rect fill="#f2f5e9" fill-opacity="0.5" stroke="#606060" stroke-width=".5" x="0" y="0" width="60" height="60"/>
  <use id="zoomplus" xlink:href="#zoomPlus" x="17" y="9" onmousedown="handleZoom(evt,'in')"/>
  <use id="zoomminus" xlink:href="#zoomMin" x="42" y="9" onmousedown="handleZoom(evt,'out')"/>
  <use id="reset" xlink:href="#resetDef" x="30" y="36" onmousedown="handleReset()"/>
   <use id="arrowup" xlink:href="#arrowUp" x="0" y="0" onmousedown="handlePan(0,-1)"/>
  <use id="arrowright" xlink:href="#arrowRight" x="0" y="0" onmousedown="handlePan(1,0)"/>
  <use id="arrowdown" xlink:href="#arrowDown" x="0" y="0" onmousedown="handlePan(0,1)"/>
  <use id="arrowleft" xlink:href="#arrowLeft" x="0" y="0" onmousedown="handlePan(-1,0)"/>
</g>
<svg viewBox="0 0 15 15" width="100%" height="30px" preserveAspectRatio="xMaxYMin meet">
 <g id="arrow_out" transform="scale(0.3 0.3)">
  <a xlink:href="DirektBaseEditor_8cpp__incl_org.svg" target="_base">
   <rect id="button" ry="5" rx="5" y="6" x="6" height="38" width="38"
        fill="#f2f5e9" fill-opacity="0.5" stroke="#606060" stroke-width="1.0"/>
   <path id="arrow"
     d="M 11.500037,31.436501 C 11.940474,20.09759 22.043105,11.32322 32.158766,21.979434 L 37.068811,17.246167 C 37.068811,17.246167 37.088388,32 37.088388,32 L 22.160133,31.978069 C 22.160133,31.978069 26.997745,27.140456 26.997745,27.140456 C 18.528582,18.264221 13.291696,25.230495 11.500037,31.436501 z"
     style="fill:#404040;"/>
  </a>
 </g>
</svg>

<style type='text/css'>
<![CDATA[
[data-mouse-over-selected='false'] { opacity: 0.7; }
[data-mouse-over-selected='true']  { opacity: 1.0; }
]]>
</style>
<script type="application/ecmascript"><![CDATA[
document.addEventListener('DOMContentLoaded', (event) => {
  highlightEdges();
  highlightAdjacentNodes();
});
]]></script>
</svg>
