<?xml version="1.0" encoding="UTF-8" standalone="no"?>
<!DOCTYPE svg PUBLIC "-//W3C//DTD SVG 1.1//EN"
 "http://www.w3.org/Graphics/SVG/1.1/DTD/svg11.dtd">
<!-- Generated by graphviz version 2.43.0 (0)
 -->
<!-- Title: core/DirektBaseEditor.h Pages: 1 -->
<!--zoomable 269 -->

<svg id="main" version="1.1" xmlns="http://www.w3.org/2000/svg" xmlns:xlink="http://www.w3.org/1999/xlink" xml:space="preserve" onload="init(evt)">
<style type="text/css"><![CDATA[
.node, .edge {opacity: 0.7;}
.node.selected, .edge.selected {opacity: 1;}
.edge:hover path { stroke: red; }
.edge:hover polygon { stroke: red; fill: red; }
]]></style>

<defs>
  <circle id="rim" cx="0" cy="0" r="7"/>
  <circle id="rim2" cx="0" cy="0" r="3.5"/>
  <g id="zoomPlus">
    <use xlink:href="#rim" fill="#404040"><set attributeName="fill" to="#808080" begin="zoomplus.mouseover" end="zoomplus.mouseout"/></use>
    <path d="M-4,0h8M0,-4v8" fill="none" stroke="white" stroke-width="1.5" pointer-events="none"/>
  </g>
  <g id="zoomMin">
    <use xlink:href="#rim" fill="#404040"><set attributeName="fill" to="#808080" begin="zoomminus.mouseover" end="zoomminus.mouseout"/></use>
    <path d="M-4,0h8" fill="none" stroke="white" stroke-width="1.5" pointer-events="none"/>
  </g>
  <g id="arrowUp" transform="translate(30 24)">
    <use xlink:href="#rim"/>
    <path pointer-events="none" fill="none" stroke="white" stroke-width="1.5" d="M0,-3.0v7 M-2.5,-0.5L0,-3.0L2.5,-0.5"/>
  </g>
  <g id="arrowRight" transform="rotate(90) translate(36 -43)">
    <use xlink:href="#rim"/>
    <path pointer-events="none" fill="none" stroke="white" stroke-width="1.5" d="M0,-3.0v7 M-2.5,-0.5L0,-3.0L2.5,-0.5"/>
  </g>
  <g id="arrowDown" transform="rotate(180) translate(-30 -48)">
    <use xlink:href="#rim"/>
    <path pointer-events="none" fill="none" stroke="white" stroke-width="1.5" d="M0,-3.0v7 M-2.5,-0.5L0,-3.0L2.5,-0.5"/>
  </g>
  <g id="arrowLeft" transform="rotate(270) translate(-36 17)">
    <use xlink:href="#rim"/>
    <path pointer-events="none" fill="none" stroke="white" stroke-width="1.5" d="M0,-3.0v7 M-2.5,-0.5L0,-3.0L2.5,-0.5"/>
  </g>
  <g id="resetDef">
    <use xlink:href="#rim2" fill="#404040"><set attributeName="fill" to="#808080" begin="reset.mouseover" end="reset.mouseout"/></use>
  </g>
</defs>
<script type="application/ecmascript">
var viewWidth = 2259;
var viewHeight = 269;
var sectionId = 'dynsection-0';
</script>
<script type="application/ecmascript" xlink:href="svg.min.js"/>
<svg id="graph" class="graph">
<g id="viewport">
<title>core/DirektBaseEditor.h</title>
<!-- Node1 -->
<g id="Node000001" class="node">
<title>Node1</title>
<g id="a_Node000001"><a xlink:title=" ">
<polygon fill="#999999" stroke="#666666" points="1270.48,-261 1139.48,-261 1139.48,-242 1270.48,-242 1270.48,-261"/>
<text text-anchor="middle" x="1204.98" y="-249" font-family="Helvetica,sans-Serif" font-size="10.00">core/DirektBaseEditor.h</text>
</a>
</g>
</g>
<!-- Node2 -->
<g id="Node000002" class="node">
<title>Node2</title>
<g id="a_Node000002"><a xlink:title=" ">
<polygon fill="#e0e0e0" stroke="#999999" points="583.48,-96 444.48,-96 444.48,-66 583.48,-66 583.48,-96"/>
<text text-anchor="start" x="452.48" y="-84" font-family="Helvetica,sans-Serif" font-size="10.00">juce_audio_processors</text>
<text text-anchor="middle" x="513.98" y="-73" font-family="Helvetica,sans-Serif" font-size="10.00">/juce_audio_processors.h</text>
</a>
</g>
</g>
<!-- Node1&#45;&gt;Node2 -->
<g id="edge1_Node000001_Node000002" class="edge">
<title>Node1&#45;&gt;Node2</title>
<g id="a_edge1_Node000001_Node000002"><a xlink:title=" ">
<path fill="none" stroke="#63b8ff" d="M1139.26,-247.44C993.92,-239.59 650.64,-214.64 555.98,-151 539.94,-140.22 529,-121.05 522.32,-105.65"/>
<polygon fill="#63b8ff" stroke="#63b8ff" points="525.5,-104.17 518.53,-96.19 519,-106.78 525.5,-104.17"/>
</a>
</g>
</g>
<!-- Node3 -->
<g id="Node000003" class="node">
<title>Node3</title>
<g id="a_Node000003"><a xlink:title=" ">
<polygon fill="#e0e0e0" stroke="#999999" points="1030.98,-30 914.98,-30 914.98,0 1030.98,0 1030.98,-30"/>
<text text-anchor="start" x="922.98" y="-18" font-family="Helvetica,sans-Serif" font-size="10.00">juce_gui_basics/juce</text>
<text text-anchor="middle" x="972.98" y="-7" font-family="Helvetica,sans-Serif" font-size="10.00">_gui_basics.h</text>
</a>
</g>
</g>
<!-- Node1&#45;&gt;Node3 -->
<g id="edge2_Node000001_Node000003" class="edge">
<title>Node1&#45;&gt;Node3</title>
<g id="a_edge2_Node000001_Node000003"><a xlink:title=" ">
<path fill="none" stroke="#63b8ff" d="M1139.12,-250.3C899.49,-248.87 84.22,-237.62 10.98,-151 -14.1,-121.33 6.81,-92.48 50.98,-66 123.58,-22.48 703.94,-16.74 904.83,-16.06"/>
<polygon fill="#63b8ff" stroke="#63b8ff" points="904.98,-19.56 914.96,-16.03 904.95,-12.56 904.98,-19.56"/>
</a>
</g>
</g>
<!-- Node4 -->
<g id="Node000004" class="node">
<title>Node4</title>
<g id="a_Node000004"><a xlink:href="DirektFooter_8h.html" target="_top" xlink:title=" ">
<polygon fill="white" stroke="#666666" points="1384.48,-151 1259.48,-151 1259.48,-132 1384.48,-132 1384.48,-151"/>
<text text-anchor="middle" x="1321.98" y="-139" font-family="Helvetica,sans-Serif" font-size="10.00">chrome/DirektFooter.h</text>
</a>
</g>
</g>
<!-- Node1&#45;&gt;Node4 -->
<g id="edge3_Node000001_Node000004" class="edge">
<title>Node1&#45;&gt;Node4</title>
<g id="a_edge3_Node000001_Node000004"><a xlink:title=" ">
<path fill="none" stroke="#63b8ff" d="M1214.56,-241.66C1234.37,-223.38 1280.08,-181.18 1305.01,-158.17"/>
<polygon fill="#63b8ff" stroke="#63b8ff" points="1307.63,-160.51 1312.6,-151.16 1302.88,-155.37 1307.63,-160.51"/>
</a>
</g>
</g>
<!-- Node5 -->
<g id="Node000005" class="node">
<title>Node5</title>
<g id="a_Node000005"><a xlink:href="DirektColours_8h.html" target="_top" xlink:title=" ">
<polygon fill="white" stroke="#666666" points="1190.48,-90.5 1063.48,-90.5 1063.48,-71.5 1190.48,-71.5 1190.48,-90.5"/>
<text text-anchor="middle" x="1126.98" y="-78.5" font-family="Helvetica,sans-Serif" font-size="10.00">theme/DirektColours.h</text>
</a>
</g>
</g>
<!-- Node1&#45;&gt;Node5 -->
<g id="edge59_Node000001_Node000005" class="edge">
<title>Node1&#45;&gt;Node5</title>
<g id="a_edge59_Node000001_Node000005"><a xlink:title=" ">
<path fill="none" stroke="#63b8ff" d="M1208.54,-241.73C1216.34,-221.03 1232.65,-168.14 1211.98,-132 1201.87,-114.32 1182.8,-102.27 1165.28,-94.44"/>
<polygon fill="#63b8ff" stroke="#63b8ff" points="1166.35,-91.1 1155.78,-90.52 1163.68,-97.57 1166.35,-91.1"/>
</a>
</g>
</g>
<!-- Node6 -->
<g id="Node000006" class="node">
<title>Node6</title>
<g id="a_Node000006"><a xlink:href="DirektHeader_8h.html" target="_top" xlink:title=" ">
<polygon fill="white" stroke="#666666" points="1532.98,-151 1402.98,-151 1402.98,-132 1532.98,-132 1532.98,-151"/>
<text text-anchor="middle" x="1467.98" y="-139" font-family="Helvetica,sans-Serif" font-size="10.00">chrome/DirektHeader.h</text>
</a>
</g>
</g>
<!-- Node1&#45;&gt;Node6 -->
<g id="edge7_Node000001_Node000006" class="edge">
<title>Node1&#45;&gt;Node6</title>
<g id="a_edge7_Node000001_Node000006"><a xlink:title=" ">
<path fill="none" stroke="#63b8ff" d="M1226.06,-241.84C1272.53,-222.76 1383.95,-177.01 1437.81,-154.89"/>
<polygon fill="#63b8ff" stroke="#63b8ff" points="1439.25,-158.08 1447.17,-151.05 1436.59,-151.61 1439.25,-158.08"/>
</a>
</g>
</g>
<!-- Node8 -->
<g id="Node000008" class="node">
<title>Node8</title>
<g id="a_Node000008"><a xlink:href="DirektPopupPanel_8h.html" target="_top" xlink:title=" ">
<polygon fill="white" stroke="#666666" points="894.98,-151 742.98,-151 742.98,-132 894.98,-132 894.98,-151"/>
<text text-anchor="middle" x="818.98" y="-139" font-family="Helvetica,sans-Serif" font-size="10.00">chrome/DirektPopupPanel.h</text>
</a>
</g>
</g>
<!-- Node1&#45;&gt;Node8 -->
<g id="edge12_Node000001_Node000008" class="edge">
<title>Node1&#45;&gt;Node8</title>
<g id="a_edge12_Node000001_Node000008"><a xlink:title=" ">
<path fill="none" stroke="#63b8ff" d="M1174.37,-241.94C1105.26,-222.6 937.12,-175.55 859.49,-153.83"/>
<polygon fill="#63b8ff" stroke="#63b8ff" points="860.17,-150.39 849.6,-151.07 858.28,-157.13 860.17,-150.39"/>
</a>
</g>
</g>
<!-- Node9 -->
<g id="Node000009" class="node">
<title>Node9</title>
<g id="a_Node000009"><a xlink:href="DirektPresetBrowser_8h.html" target="_top" xlink:title=" ">
<polygon fill="white" stroke="#666666" points="1716.48,-151 1551.48,-151 1551.48,-132 1716.48,-132 1716.48,-151"/>
<text text-anchor="middle" x="1633.98" y="-139" font-family="Helvetica,sans-Serif" font-size="10.00">chrome/DirektPresetBrowser.h</text>
</a>
</g>
</g>
<!-- Node1&#45;&gt;Node9 -->
<g id="edge15_Node000001_Node000009" class="edge">
<title>Node1&#45;&gt;Node9</title>
<g id="a_edge15_Node000001_Node000009"><a xlink:title=" ">
<path fill="none" stroke="#63b8ff" d="M1239,-241.94C1316.13,-222.52 1504.22,-175.17 1590.02,-153.57"/>
<polygon fill="#63b8ff" stroke="#63b8ff" points="1591.12,-156.9 1599.96,-151.07 1589.41,-150.11 1591.12,-156.9"/>
</a>
</g>
</g>
<!-- Node11 -->
<g id="Node000011" class="node">
<title>Node11</title>
<g id="a_Node000011"><a xlink:href="DirektConfig_8h.html" target="_top" xlink:title=" ">
<polygon fill="white" stroke="#666666" points="1032.48,-151 913.48,-151 913.48,-132 1032.48,-132 1032.48,-151"/>
<text text-anchor="middle" x="972.98" y="-139" font-family="Helvetica,sans-Serif" font-size="10.00">config/DirektConfig.h</text>
</a>
</g>
</g>
<!-- Node1&#45;&gt;Node11 -->
<g id="edge20_Node000001_Node000011" class="edge">
<title>Node1&#45;&gt;Node11</title>
<g id="a_edge20_Node000001_Node000011"><a xlink:title=" ">
<path fill="none" stroke="#63b8ff" d="M1186.39,-241.84C1145.65,-222.88 1048.34,-177.58 1000.49,-155.31"/>
<polygon fill="#63b8ff" stroke="#63b8ff" points="1001.89,-152.09 991.34,-151.05 998.93,-158.44 1001.89,-152.09"/>
</a>
</g>
</g>
<!-- Node12 -->
<g id="Node000012" class="node">
<title>Node12</title>
<g id="a_Node000012"><a xlink:href="DirektDescriptors_8h.html" target="_top" xlink:title=" ">
<polygon fill="white" stroke="#666666" points="2154.48,-151 2011.48,-151 2011.48,-132 2154.48,-132 2154.48,-151"/>
<text text-anchor="middle" x="2082.98" y="-139" font-family="Helvetica,sans-Serif" font-size="10.00">config/DirektDescriptors.h</text>
</a>
</g>
</g>
<!-- Node1&#45;&gt;Node12 -->
<g id="edge23_Node000001_Node000012" class="edge">
<title>Node1&#45;&gt;Node12</title>
<g id="a_edge23_Node000001_Node000012"><a xlink:title=" ">
<path fill="none" stroke="#63b8ff" d="M1270.61,-250.41C1456.24,-249.7 1975.97,-244.26 2041.98,-206 2058.98,-196.15 2070.11,-176.11 2076.43,-161.17"/>
<polygon fill="#63b8ff" stroke="#63b8ff" points="2079.87,-161.99 2080.2,-151.4 2073.34,-159.47 2079.87,-161.99"/>
</a>
</g>
</g>
<!-- Node17 -->
<g id="Node000017" class="node">
<title>Node17</title>
<g id="a_Node000017"><a xlink:href="DirektAutoLayout_8h.html" target="_top" xlink:title=" ">
<polygon fill="white" stroke="#666666" points="481.48,-206 346.48,-206 346.48,-187 481.48,-187 481.48,-206"/>
<text text-anchor="middle" x="413.98" y="-194" font-family="Helvetica,sans-Serif" font-size="10.00">core/DirektAutoLayout.h</text>
</a>
</g>
</g>
<!-- Node1&#45;&gt;Node17 -->
<g id="edge29_Node000001_Node000017" class="edge">
<title>Node1&#45;&gt;Node17</title>
<g id="a_edge29_Node000001_Node000017"><a xlink:title=" ">
<path fill="none" stroke="#63b8ff" d="M1139.22,-246.58C1017.01,-239.23 746.63,-222.6 518.98,-206 510.24,-205.36 501.08,-204.67 491.98,-203.95"/>
<polygon fill="#63b8ff" stroke="#63b8ff" points="491.99,-200.44 481.75,-203.15 491.44,-207.42 491.99,-200.44"/>
</a>
</g>
</g>
<!-- Node21 -->
<g id="Node000021" class="node">
<title>Node21</title>
<g id="a_Node000021"><a xlink:href="DirektSection_8h.html" target="_top" xlink:title=" ">
<polygon fill="white" stroke="#666666" points="724.48,-151 599.48,-151 599.48,-132 724.48,-132 724.48,-151"/>
<text text-anchor="middle" x="661.98" y="-139" font-family="Helvetica,sans-Serif" font-size="10.00">layout/DirektSection.h</text>
</a>
</g>
</g>
<!-- Node1&#45;&gt;Node21 -->
<g id="edge58_Node000001_Node000021" class="edge">
<title>Node1&#45;&gt;Node21</title>
<g id="a_edge58_Node000001_Node000021"><a xlink:title=" ">
<path fill="none" stroke="#63b8ff" d="M1161.92,-241.94C1063.5,-222.36 822.35,-174.4 715.01,-153.05"/>
<polygon fill="#63b8ff" stroke="#63b8ff" points="715.54,-149.58 705.05,-151.07 714.17,-156.45 715.54,-149.58"/>
</a>
</g>
</g>
<!-- Node22 -->
<g id="Node000022" class="node">
<title>Node22</title>
<g id="a_Node000022"><a xlink:href="DirektBuildContext_8h.html" target="_top" xlink:title=" ">
<polygon fill="white" stroke="#666666" points="1916.48,-151 1773.48,-151 1773.48,-132 1916.48,-132 1916.48,-151"/>
<text text-anchor="middle" x="1844.98" y="-139" font-family="Helvetica,sans-Serif" font-size="10.00">core/DirektBuildContext.h</text>
</a>
</g>
</g>
<!-- Node1&#45;&gt;Node22 -->
<g id="edge45_Node000001_Node000022" class="edge">
<title>Node1&#45;&gt;Node22</title>
<g id="a_edge45_Node000001_Node000022"><a xlink:title=" ">
<path fill="none" stroke="#63b8ff" d="M1255.47,-241.98C1371.89,-222.34 1658.77,-173.92 1784.4,-152.72"/>
<polygon fill="#63b8ff" stroke="#63b8ff" points="1785.33,-156.12 1794.61,-151 1784.17,-149.21 1785.33,-156.12"/>
</a>
</g>
</g>
<!-- Node24 -->
<g id="Node000024" class="node">
<title>Node24</title>
<g id="a_Node000024"><a xlink:href="DirektComponentRegistry_8h.html" target="_top" xlink:title=" ">
<polygon fill="white" stroke="#666666" points="2032.48,-206 1857.48,-206 1857.48,-187 2032.48,-187 2032.48,-206"/>
<text text-anchor="middle" x="1944.98" y="-194" font-family="Helvetica,sans-Serif" font-size="10.00">core/DirektComponentRegistry.h</text>
</a>
</g>
</g>
<!-- Node1&#45;&gt;Node24 -->
<g id="edge49_Node000001_Node000024" class="edge">
<title>Node1&#45;&gt;Node24</title>
<g id="a_edge49_Node000001_Node000024"><a xlink:title=" ">
<path fill="none" stroke="#63b8ff" d="M1270.65,-245.8C1401.18,-236.45 1693.85,-215.49 1847.13,-204.51"/>
<polygon fill="#63b8ff" stroke="#63b8ff" points="1847.75,-207.97 1857.47,-203.77 1847.25,-200.99 1847.75,-207.97"/>
</a>
</g>
</g>
<!-- Node25 -->
<g id="Node000025" class="node">
<title>Node25</title>
<g id="a_Node000025"><a xlink:href="DirektLookAndFeel_8h.html" target="_top" xlink:title=" ">
<polygon fill="white" stroke="#666666" points="1202.98,-151 1050.98,-151 1050.98,-132 1202.98,-132 1202.98,-151"/>
<text text-anchor="middle" x="1126.98" y="-139" font-family="Helvetica,sans-Serif" font-size="10.00">theme/DirektLookAndFeel.h</text>
</a>
</g>
</g>
<!-- Node1&#45;&gt;Node25 -->
<g id="edge60_Node000001_Node000025" class="edge">
<title>Node1&#45;&gt;Node25</title>
<g id="a_edge60_Node000001_Node000025"><a xlink:title=" ">
<path fill="none" stroke="#63b8ff" d="M1198.6,-241.66C1185.62,-223.69 1155.97,-182.64 1139.18,-159.38"/>
<polygon fill="#63b8ff" stroke="#63b8ff" points="1141.93,-157.22 1133.24,-151.16 1136.25,-161.31 1141.93,-157.22"/>
</a>
</g>
</g>
<!-- Node4&#45;&gt;Node3 -->
<g id="edge4_Node000004_Node000003" class="edge">
<title>Node4&#45;&gt;Node3</title>
<g id="a_edge4_Node000004_Node000003"><a xlink:title=" ">
<path fill="none" stroke="#63b8ff" d="M1310.78,-131.96C1289.93,-116.48 1243.25,-83.74 1198.98,-66 1148.01,-45.57 1087.05,-32.7 1041.3,-25.15"/>
<polygon fill="#63b8ff" stroke="#63b8ff" points="1041.61,-21.65 1031.19,-23.52 1040.5,-28.57 1041.61,-21.65"/>
</a>
</g>
</g>
<!-- Node4&#45;&gt;Node5 -->
<g id="edge5_Node000004_Node000005" class="edge">
<title>Node4&#45;&gt;Node5</title>
<g id="a_edge5_Node000004_Node000005"><a xlink:title=" ">
<path fill="none" stroke="#63b8ff" d="M1293.63,-131.99C1259.69,-121.81 1202.72,-104.72 1165,-93.4"/>
<polygon fill="#63b8ff" stroke="#63b8ff" points="1165.96,-90.04 1155.37,-90.52 1163.94,-96.74 1165.96,-90.04"/>
</a>
</g>
</g>
<!-- Node5&#45;&gt;Node3 -->
<g id="edge6_Node000005_Node000003" class="edge">
<title>Node5&#45;&gt;Node3</title>
<g id="a_edge6_Node000005_Node000003"><a xlink:title=" ">
<path fill="none" stroke="#63b8ff" d="M1106.21,-71.37C1083.25,-61.82 1045.61,-46.18 1016.18,-33.95"/>
<polygon fill="#63b8ff" stroke="#63b8ff" points="1017.53,-30.72 1006.95,-30.12 1014.84,-37.19 1017.53,-30.72"/>
</a>
</g>
</g>
<!-- Node6&#45;&gt;Node2 -->
<g id="edge8_Node000006_Node000002" class="edge">
<title>Node6&#45;&gt;Node2</title>
<g id="a_edge8_Node000006_Node000002"><a xlink:title=" ">
<path fill="none" stroke="#63b8ff" d="M1402.96,-132.91C1399.59,-132.58 1396.25,-132.28 1392.98,-132 1098.94,-106.99 748.48,-91.27 593.93,-85.05"/>
<polygon fill="#63b8ff" stroke="#63b8ff" points="593.72,-81.54 583.59,-84.63 593.44,-88.53 593.72,-81.54"/>
</a>
</g>
</g>
<!-- Node6&#45;&gt;Node3 -->
<g id="edge9_Node000006_Node000003" class="edge">
<title>Node6&#45;&gt;Node3</title>
<g id="a_edge9_Node000006_Node000003"><a xlink:title=" ">
<path fill="none" stroke="#63b8ff" d="M1445.51,-131.97C1405.22,-116.93 1317.82,-85.45 1241.98,-66 1174.41,-48.67 1095.84,-34.77 1041.13,-26.06"/>
<polygon fill="#63b8ff" stroke="#63b8ff" points="1041.62,-22.6 1031.2,-24.5 1040.53,-29.51 1041.62,-22.6"/>
</a>
</g>
</g>
<!-- Node6&#45;&gt;Node5 -->
<g id="edge11_Node000006_Node000005" class="edge">
<title>Node6&#45;&gt;Node5</title>
<g id="a_edge11_Node000006_Node000005"><a xlink:title=" ">
<path fill="none" stroke="#63b8ff" d="M1418.4,-131.99C1357.03,-121.47 1252.6,-103.55 1186.84,-92.27"/>
<polygon fill="#63b8ff" stroke="#63b8ff" points="1187.08,-88.76 1176.63,-90.52 1185.89,-95.66 1187.08,-88.76"/>
</a>
</g>
</g>
<!-- Node7 -->
<g id="Node000007" class="node">
<title>Node7</title>
<g id="a_Node000007"><a xlink:title=" ">
<polygon fill="#e0e0e0" stroke="#999999" points="1619.48,-90.5 1554.48,-90.5 1554.48,-71.5 1619.48,-71.5 1619.48,-90.5"/>
<text text-anchor="middle" x="1586.98" y="-78.5" font-family="Helvetica,sans-Serif" font-size="10.00">functional</text>
</a>
</g>
</g>
<!-- Node6&#45;&gt;Node7 -->
<g id="edge10_Node000006_Node000007" class="edge">
<title>Node6&#45;&gt;Node7</title>
<g id="a_edge10_Node000006_Node000007"><a xlink:title=" ">
<path fill="none" stroke="#63b8ff" d="M1485.29,-131.99C1505.03,-122.29 1537.54,-106.31 1560.48,-95.03"/>
<polygon fill="#63b8ff" stroke="#63b8ff" points="1562.23,-98.07 1569.66,-90.52 1559.14,-91.79 1562.23,-98.07"/>
</a>
</g>
</g>
<!-- Node8&#45;&gt;Node3 -->
<g id="edge13_Node000008_Node000003" class="edge">
<title>Node8&#45;&gt;Node3</title>
<g id="a_edge13_Node000008_Node000003"><a xlink:title=" ">
<path fill="none" stroke="#63b8ff" d="M829.57,-131.94C853.62,-112.49 912.97,-64.51 947.31,-36.75"/>
<polygon fill="#63b8ff" stroke="#63b8ff" points="949.89,-39.17 955.47,-30.16 945.49,-33.73 949.89,-39.17"/>
</a>
</g>
</g>
<!-- Node8&#45;&gt;Node5 -->
<g id="edge14_Node000008_Node000005" class="edge">
<title>Node8&#45;&gt;Node5</title>
<g id="a_edge14_Node000008_Node000005"><a xlink:title=" ">
<path fill="none" stroke="#63b8ff" d="M863.77,-131.99C918.97,-121.51 1012.74,-103.7 1072.19,-92.41"/>
<polygon fill="#63b8ff" stroke="#63b8ff" points="1072.97,-95.82 1082.14,-90.52 1071.67,-88.94 1072.97,-95.82"/>
</a>
</g>
</g>
<!-- Node9&#45;&gt;Node3 -->
<g id="edge16_Node000009_Node000003" class="edge">
<title>Node9&#45;&gt;Node3</title>
<g id="a_edge16_Node000009_Node000003"><a xlink:title=" ">
<path fill="none" stroke="#63b8ff" d="M1600.27,-131.93C1541.15,-117.11 1414.84,-86.33 1306.98,-66 1215.46,-48.75 1108.92,-33.66 1041.24,-24.68"/>
<polygon fill="#63b8ff" stroke="#63b8ff" points="1041.5,-21.19 1031.13,-23.35 1040.59,-28.13 1041.5,-21.19"/>
</a>
</g>
</g>
<!-- Node9&#45;&gt;Node5 -->
<g id="edge19_Node000009_Node000005" class="edge">
<title>Node9&#45;&gt;Node5</title>
<g id="a_edge19_Node000009_Node000005"><a xlink:title=" ">
<path fill="none" stroke="#63b8ff" d="M1560.26,-131.99C1464.11,-120.9 1296.86,-101.6 1200.7,-90.51"/>
<polygon fill="#63b8ff" stroke="#63b8ff" points="1201.1,-87.03 1190.77,-89.36 1200.3,-93.98 1201.1,-87.03"/>
</a>
</g>
</g>
<!-- Node9&#45;&gt;Node7 -->
<g id="edge17_Node000009_Node000007" class="edge">
<title>Node9&#45;&gt;Node7</title>
<g id="a_edge17_Node000009_Node000007"><a xlink:title=" ">
<path fill="none" stroke="#63b8ff" d="M1627.05,-131.87C1620.04,-123.14 1609.02,-109.43 1600.31,-98.59"/>
<polygon fill="#63b8ff" stroke="#63b8ff" points="1602.94,-96.27 1593.95,-90.67 1597.48,-100.66 1602.94,-96.27"/>
</a>
</g>
</g>
<!-- Node10 -->
<g id="Node000010" class="node">
<title>Node10</title>
<g id="a_Node000010"><a xlink:title=" ">
<polygon fill="#e0e0e0" stroke="#999999" points="1723.98,-90.5 1637.98,-90.5 1637.98,-71.5 1723.98,-71.5 1723.98,-90.5"/>
<text text-anchor="middle" x="1680.98" y="-78.5" font-family="Helvetica,sans-Serif" font-size="10.00">unordered_set</text>
</a>
</g>
</g>
<!-- Node9&#45;&gt;Node10 -->
<g id="edge18_Node000009_Node000010" class="edge">
<title>Node9&#45;&gt;Node10</title>
<g id="a_edge18_Node000009_Node000010"><a xlink:title=" ">
<path fill="none" stroke="#63b8ff" d="M1640.92,-131.87C1647.93,-123.14 1658.94,-109.43 1667.65,-98.59"/>
<polygon fill="#63b8ff" stroke="#63b8ff" points="1670.48,-100.66 1674.02,-90.67 1665.03,-96.27 1670.48,-100.66"/>
</a>
</g>
</g>
<!-- Node11&#45;&gt;Node3 -->
<g id="edge21_Node000011_Node000003" class="edge">
<title>Node11&#45;&gt;Node3</title>
<g id="a_edge21_Node000011_Node000003"><a xlink:title=" ">
<path fill="none" stroke="#63b8ff" d="M972.98,-131.94C972.98,-113.32 972.98,-68.53 972.98,-40.39"/>
<polygon fill="#63b8ff" stroke="#63b8ff" points="976.48,-40.16 972.98,-30.16 969.48,-40.16 976.48,-40.16"/>
</a>
</g>
</g>
<!-- Node11&#45;&gt;Node5 -->
<g id="edge22_Node000011_Node000005" class="edge">
<title>Node11&#45;&gt;Node5</title>
<g id="a_edge22_Node000011_Node000005"><a xlink:title=" ">
<path fill="none" stroke="#63b8ff" d="M995.38,-131.99C1021.61,-122.03 1065.26,-105.45 1095.04,-94.13"/>
<polygon fill="#63b8ff" stroke="#63b8ff" points="1096.46,-97.34 1104.56,-90.52 1093.97,-90.8 1096.46,-97.34"/>
</a>
</g>
</g>
<!-- Node12&#45;&gt;Node3 -->
<g id="edge24_Node000012_Node000003" class="edge">
<title>Node12&#45;&gt;Node3</title>
<g id="a_edge24_Node000012_Node000003"><a xlink:title=" ">
<path fill="none" stroke="#63b8ff" d="M2076.07,-131.89C2061.4,-113.9 2027.2,-73.35 2010.98,-66 1923.16,-26.22 1258.35,-18.01 1041.3,-16.39"/>
<polygon fill="#63b8ff" stroke="#63b8ff" points="1041.02,-12.88 1031,-16.31 1040.97,-19.88 1041.02,-12.88"/>
</a>
</g>
</g>
<!-- Node13 -->
<g id="Node000013" class="node">
<title>Node13</title>
<g id="a_Node000013"><a xlink:title=" ">
<polygon fill="#e0e0e0" stroke="#999999" points="2001.98,-90.5 1963.98,-90.5 1963.98,-71.5 2001.98,-71.5 2001.98,-90.5"/>
<text text-anchor="middle" x="1982.98" y="-78.5" font-family="Helvetica,sans-Serif" font-size="10.00">map</text>
</a>
</g>
</g>
<!-- Node12&#45;&gt;Node13 -->
<g id="edge25_Node000012_Node000013" class="edge">
<title>Node12&#45;&gt;Node13</title>
<g id="a_edge25_Node000012_Node000013"><a xlink:title=" ">
<path fill="none" stroke="#63b8ff" d="M2068.23,-131.87C2051.98,-122.36 2025.63,-106.95 2006.52,-95.77"/>
<polygon fill="#63b8ff" stroke="#63b8ff" points="2008.2,-92.7 1997.8,-90.67 2004.66,-98.74 2008.2,-92.7"/>
</a>
</g>
</g>
<!-- Node14 -->
<g id="Node000014" class="node">
<title>Node14</title>
<g id="a_Node000014"><a xlink:title=" ">
<polygon fill="#e0e0e0" stroke="#999999" points="2185.98,-90.5 2127.98,-90.5 2127.98,-71.5 2185.98,-71.5 2185.98,-90.5"/>
<text text-anchor="middle" x="2156.98" y="-78.5" font-family="Helvetica,sans-Serif" font-size="10.00">memory</text>
</a>
</g>
</g>
<!-- Node12&#45;&gt;Node14 -->
<g id="edge26_Node000012_Node000014" class="edge">
<title>Node12&#45;&gt;Node14</title>
<g id="a_edge26_Node000012_Node000014"><a xlink:title=" ">
<path fill="none" stroke="#63b8ff" d="M2093.9,-131.87C2105.49,-122.71 2124.02,-108.06 2138,-97.01"/>
<polygon fill="#63b8ff" stroke="#63b8ff" points="2140.35,-99.61 2146.02,-90.67 2136,-94.12 2140.35,-99.61"/>
</a>
</g>
</g>
<!-- Node15 -->
<g id="Node000015" class="node">
<title>Node15</title>
<g id="a_Node000015"><a xlink:title=" ">
<polygon fill="#e0e0e0" stroke="#999999" points="2109.48,-90.5 2058.48,-90.5 2058.48,-71.5 2109.48,-71.5 2109.48,-90.5"/>
<text text-anchor="middle" x="2083.98" y="-78.5" font-family="Helvetica,sans-Serif" font-size="10.00">variant</text>
</a>
</g>
</g>
<!-- Node12&#45;&gt;Node15 -->
<g id="edge27_Node000012_Node000015" class="edge">
<title>Node12&#45;&gt;Node15</title>
<g id="a_edge27_Node000012_Node000015"><a xlink:title=" ">
<path fill="none" stroke="#63b8ff" d="M2083.13,-131.87C2083.27,-123.75 2083.48,-111.31 2083.66,-100.89"/>
<polygon fill="#63b8ff" stroke="#63b8ff" points="2087.16,-100.73 2083.83,-90.67 2080.16,-100.61 2087.16,-100.73"/>
</a>
</g>
</g>
<!-- Node16 -->
<g id="Node000016" class="node">
<title>Node16</title>
<g id="a_Node000016"><a xlink:title=" ">
<polygon fill="#e0e0e0" stroke="#999999" points="2251.48,-90.5 2204.48,-90.5 2204.48,-71.5 2251.48,-71.5 2251.48,-90.5"/>
<text text-anchor="middle" x="2227.98" y="-78.5" font-family="Helvetica,sans-Serif" font-size="10.00">vector</text>
</a>
</g>
</g>
<!-- Node12&#45;&gt;Node16 -->
<g id="edge28_Node000012_Node000016" class="edge">
<title>Node12&#45;&gt;Node16</title>
<g id="a_edge28_Node000012_Node000016"><a xlink:title=" ">
<path fill="none" stroke="#63b8ff" d="M2104.93,-131.95C2127.56,-123.1 2163.82,-108.8 2194.98,-96 2196.18,-95.51 2197.4,-95 2198.64,-94.49"/>
<polygon fill="#63b8ff" stroke="#63b8ff" points="2200.25,-97.61 2208.12,-90.51 2197.55,-91.15 2200.25,-97.61"/>
</a>
</g>
</g>
<!-- Node17&#45;&gt;Node2 -->
<g id="edge30_Node000017_Node000002" class="edge">
<title>Node17&#45;&gt;Node2</title>
<g id="a_edge30_Node000017_Node000002"><a xlink:title=" ">
<path fill="none" stroke="#63b8ff" d="M429.18,-186.96C442.46,-178.95 461.65,-165.98 474.98,-151 487.1,-137.39 497.12,-119.39 503.97,-105.19"/>
<polygon fill="#63b8ff" stroke="#63b8ff" points="507.17,-106.62 508.19,-96.07 500.81,-103.68 507.17,-106.62"/>
</a>
</g>
</g>
<!-- Node17&#45;&gt;Node3 -->
<g id="edge31_Node000017_Node000003" class="edge">
<title>Node17&#45;&gt;Node3</title>
<g id="a_edge31_Node000017_Node000003"><a xlink:title=" ">
<path fill="none" stroke="#63b8ff" d="M346.47,-195.79C223.78,-194.98 -19.72,-186.61 18.98,-132 70.19,-59.75 120.22,-83.71 206.98,-66 339.38,-38.97 742.71,-23.39 904.64,-18.08"/>
<polygon fill="#63b8ff" stroke="#63b8ff" points="905.07,-21.57 914.95,-17.74 904.84,-14.57 905.07,-21.57"/>
</a>
</g>
</g>
<!-- Node17&#45;&gt;Node12 -->
<g id="edge32_Node000017_Node000012" class="edge">
<title>Node17&#45;&gt;Node12</title>
<g id="a_edge32_Node000017_Node000012"><a xlink:title=" ">
<path fill="none" stroke="#63b8ff" d="M481.82,-194.1C694.68,-189.58 1368.42,-174.29 1925.98,-151 1950.32,-149.98 1976.78,-148.64 2000.91,-147.33"/>
<polygon fill="#63b8ff" stroke="#63b8ff" points="2001.3,-150.81 2011.09,-146.77 2000.92,-143.82 2001.3,-150.81"/>
</a>
</g>
</g>
<!-- Node18 -->
<g id="Node000018" class="node">
<title>Node18</title>
<g id="a_Node000018"><a xlink:href="DirektComboBox_8h.html" target="_top" xlink:title=" ">
<polygon fill="white" stroke="#666666" points="466.48,-151 315.48,-151 315.48,-132 466.48,-132 466.48,-151"/>
<text text-anchor="middle" x="390.98" y="-139" font-family="Helvetica,sans-Serif" font-size="10.00">controls/DirektComboBox.h</text>
</a>
</g>
</g>
<!-- Node17&#45;&gt;Node18 -->
<g id="edge33_Node000017_Node000018" class="edge">
<title>Node17&#45;&gt;Node18</title>
<g id="a_edge33_Node000017_Node000018"><a xlink:title=" ">
<path fill="none" stroke="#63b8ff" d="M410.19,-186.75C407.07,-179.57 402.56,-169.18 398.69,-160.27"/>
<polygon fill="#63b8ff" stroke="#63b8ff" points="401.9,-158.87 394.71,-151.09 395.48,-161.66 401.9,-158.87"/>
</a>
</g>
</g>
<!-- Node19 -->
<g id="Node000019" class="node">
<title>Node19</title>
<g id="a_Node000019"><a xlink:href="DirektKnob_8h.html" target="_top" xlink:title=" ">
<polygon fill="white" stroke="#666666" points="149.98,-151 27.98,-151 27.98,-132 149.98,-132 149.98,-151"/>
<text text-anchor="middle" x="88.98" y="-139" font-family="Helvetica,sans-Serif" font-size="10.00">controls/DirektKnob.h</text>
</a>
</g>
</g>
<!-- Node17&#45;&gt;Node19 -->
<g id="edge36_Node000017_Node000019" class="edge">
<title>Node17&#45;&gt;Node19</title>
<g id="a_edge36_Node000017_Node000019"><a xlink:title=" ">
<path fill="none" stroke="#63b8ff" d="M361.77,-186.98C304.4,-177.63 212.32,-162.61 151.24,-152.65"/>
<polygon fill="#63b8ff" stroke="#63b8ff" points="151.77,-149.19 141.34,-151.04 150.65,-156.1 151.77,-149.19"/>
</a>
</g>
</g>
<!-- Node20 -->
<g id="Node000020" class="node">
<title>Node20</title>
<g id="a_Node000020"><a xlink:href="DirektToggle_8h.html" target="_top" xlink:title=" ">
<polygon fill="white" stroke="#666666" points="297.48,-151 168.48,-151 168.48,-132 297.48,-132 297.48,-151"/>
<text text-anchor="middle" x="232.98" y="-139" font-family="Helvetica,sans-Serif" font-size="10.00">controls/DirektToggle.h</text>
</a>
</g>
</g>
<!-- Node17&#45;&gt;Node20 -->
<g id="edge39_Node000017_Node000020" class="edge">
<title>Node17&#45;&gt;Node20</title>
<g id="a_edge39_Node000017_Node000020"><a xlink:title=" ">
<path fill="none" stroke="#63b8ff" d="M384.9,-186.98C354.38,-178.05 306.22,-163.94 272.32,-154.02"/>
<polygon fill="#63b8ff" stroke="#63b8ff" points="272.87,-150.53 262.29,-151.08 270.91,-157.25 272.87,-150.53"/>
</a>
</g>
</g>
<!-- Node17&#45;&gt;Node21 -->
<g id="edge42_Node000017_Node000021" class="edge">
<title>Node17&#45;&gt;Node21</title>
<g id="a_edge42_Node000017_Node000021"><a xlink:title=" ">
<path fill="none" stroke="#63b8ff" d="M453.83,-186.98C496.82,-177.8 565.35,-163.15 611.94,-153.19"/>
<polygon fill="#63b8ff" stroke="#63b8ff" points="612.78,-156.59 621.83,-151.08 611.31,-149.75 612.78,-156.59"/>
</a>
</g>
</g>
<!-- Node18&#45;&gt;Node2 -->
<g id="edge34_Node000018_Node000002" class="edge">
<title>Node18&#45;&gt;Node2</title>
<g id="a_edge34_Node000018_Node000002"><a xlink:title=" ">
<path fill="none" stroke="#63b8ff" d="M408.87,-131.99C426.13,-123.79 452.82,-111.09 474.99,-100.55"/>
<polygon fill="#63b8ff" stroke="#63b8ff" points="476.65,-103.63 484.17,-96.18 473.64,-97.31 476.65,-103.63"/>
</a>
</g>
</g>
<!-- Node18&#45;&gt;Node3 -->
<g id="edge35_Node000018_Node000003" class="edge">
<title>Node18&#45;&gt;Node3</title>
<g id="a_edge35_Node000018_Node000003"><a xlink:title=" ">
<path fill="none" stroke="#63b8ff" d="M393.29,-131.75C398.05,-115.63 410.62,-81.44 434.98,-66 473.78,-41.4 768.24,-25.17 904.36,-18.91"/>
<polygon fill="#63b8ff" stroke="#63b8ff" points="904.84,-22.39 914.67,-18.44 904.52,-15.4 904.84,-22.39"/>
</a>
</g>
</g>
<!-- Node19&#45;&gt;Node2 -->
<g id="edge37_Node000019_Node000002" class="edge">
<title>Node19&#45;&gt;Node2</title>
<g id="a_edge37_Node000019_Node000002"><a xlink:title=" ">
<path fill="none" stroke="#63b8ff" d="M150.33,-132.06C225.14,-121.76 351.76,-104.33 434.11,-92.99"/>
<polygon fill="#63b8ff" stroke="#63b8ff" points="434.75,-96.44 444.18,-91.61 433.79,-89.51 434.75,-96.44"/>
</a>
</g>
</g>
<!-- Node19&#45;&gt;Node3 -->
<g id="edge38_Node000019_Node000003" class="edge">
<title>Node19&#45;&gt;Node3</title>
<g id="a_edge38_Node000019_Node000003"><a xlink:title=" ">
<path fill="none" stroke="#63b8ff" d="M109.78,-131.91C149.61,-115.88 239.71,-81.64 318.98,-66 529.58,-24.45 784.64,-16.98 904.49,-15.93"/>
<polygon fill="#63b8ff" stroke="#63b8ff" points="904.65,-19.43 914.62,-15.85 904.59,-12.43 904.65,-19.43"/>
</a>
</g>
</g>
<!-- Node20&#45;&gt;Node2 -->
<g id="edge40_Node000020_Node000002" class="edge">
<title>Node20&#45;&gt;Node2</title>
<g id="a_edge40_Node000020_Node000002"><a xlink:title=" ">
<path fill="none" stroke="#63b8ff" d="M273.84,-131.99C316.39,-123.14 384.04,-109.05 436.71,-98.09"/>
<polygon fill="#63b8ff" stroke="#63b8ff" points="437.62,-101.47 446.7,-96.01 436.19,-94.62 437.62,-101.47"/>
</a>
</g>
</g>
<!-- Node20&#45;&gt;Node3 -->
<g id="edge41_Node000020_Node000003" class="edge">
<title>Node20&#45;&gt;Node3</title>
<g id="a_edge41_Node000020_Node000003"><a xlink:title=" ">
<path fill="none" stroke="#63b8ff" d="M248.05,-131.99C277.26,-115.94 344.1,-81.43 404.98,-66 581.14,-21.34 796.74,-15.02 904.62,-15.02"/>
<polygon fill="#63b8ff" stroke="#63b8ff" points="904.72,-18.52 914.72,-15.04 904.73,-11.52 904.72,-18.52"/>
</a>
</g>
</g>
<!-- Node21&#45;&gt;Node3 -->
<g id="edge43_Node000021_Node000003" class="edge">
<title>Node21&#45;&gt;Node3</title>
<g id="a_edge43_Node000021_Node000003"><a xlink:title=" ">
<path fill="none" stroke="#63b8ff" d="M683.36,-131.94C733.65,-111.81 860.33,-61.1 928.28,-33.9"/>
<polygon fill="#63b8ff" stroke="#63b8ff" points="929.88,-37.02 937.86,-30.06 927.28,-30.53 929.88,-37.02"/>
</a>
</g>
</g>
<!-- Node21&#45;&gt;Node5 -->
<g id="edge44_Node000021_Node000005" class="edge">
<title>Node21&#45;&gt;Node5</title>
<g id="a_edge44_Node000021_Node000005"><a xlink:title=" ">
<path fill="none" stroke="#63b8ff" d="M724.7,-132.61C810.12,-121.86 962.77,-102.66 1053.47,-91.25"/>
<polygon fill="#63b8ff" stroke="#63b8ff" points="1053.92,-94.72 1063.41,-90 1053.05,-87.77 1053.92,-94.72"/>
</a>
</g>
</g>
<!-- Node22&#45;&gt;Node2 -->
<g id="edge46_Node000022_Node000002" class="edge">
<title>Node22&#45;&gt;Node2</title>
<g id="a_edge46_Node000022_Node000002"><a xlink:title=" ">
<path fill="none" stroke="#63b8ff" d="M1773.27,-135.03C1757.69,-133.94 1741.29,-132.86 1725.98,-132 1299.42,-107.97 787.8,-90.63 593.81,-84.46"/>
<polygon fill="#63b8ff" stroke="#63b8ff" points="593.81,-80.96 583.7,-84.14 593.59,-87.96 593.81,-80.96"/>
</a>
</g>
</g>
<!-- Node22&#45;&gt;Node13 -->
<g id="edge48_Node000022_Node000013" class="edge">
<title>Node22&#45;&gt;Node13</title>
<g id="a_edge48_Node000022_Node000013"><a xlink:title=" ">
<path fill="none" stroke="#63b8ff" d="M1865.05,-131.99C1888.62,-122 1927.88,-105.36 1954.57,-94.04"/>
<polygon fill="#63b8ff" stroke="#63b8ff" points="1955.94,-97.26 1963.78,-90.14 1953.21,-90.82 1955.94,-97.26"/>
</a>
</g>
</g>
<!-- Node23 -->
<g id="Node000023" class="node">
<title>Node23</title>
<g id="a_Node000023"><a xlink:title=" ">
<polygon fill="#e0e0e0" stroke="#999999" points="1869.98,-90.5 1819.98,-90.5 1819.98,-71.5 1869.98,-71.5 1869.98,-90.5"/>
<text text-anchor="middle" x="1844.98" y="-78.5" font-family="Helvetica,sans-Serif" font-size="10.00">atomic</text>
</a>
</g>
</g>
<!-- Node22&#45;&gt;Node23 -->
<g id="edge47_Node000022_Node000023" class="edge">
<title>Node22&#45;&gt;Node23</title>
<g id="a_edge47_Node000022_Node000023"><a xlink:title=" ">
<path fill="none" stroke="#63b8ff" d="M1844.98,-131.87C1844.98,-123.75 1844.98,-111.31 1844.98,-100.89"/>
<polygon fill="#63b8ff" stroke="#63b8ff" points="1848.48,-100.67 1844.98,-90.67 1841.48,-100.67 1848.48,-100.67"/>
</a>
</g>
</g>
<!-- Node24&#45;&gt;Node2 -->
<g id="edge50_Node000024_Node000002" class="edge">
<title>Node24&#45;&gt;Node2</title>
<g id="a_edge50_Node000024_Node000002"><a xlink:title=" ">
<path fill="none" stroke="#63b8ff" d="M1857.38,-194.28C1566.63,-190.03 648.68,-174.78 589.98,-151 566.07,-141.31 544.9,-120.52 531.02,-104.27"/>
<polygon fill="#63b8ff" stroke="#63b8ff" points="533.5,-101.78 524.44,-96.28 528.09,-106.22 533.5,-101.78"/>
</a>
</g>
</g>
<!-- Node24&#45;&gt;Node3 -->
<g id="edge51_Node000024_Node000003" class="edge">
<title>Node24&#45;&gt;Node3</title>
<g id="a_edge51_Node000024_Node000003"><a xlink:title=" ">
<path fill="none" stroke="#63b8ff" d="M1943.85,-186.94C1940.08,-162.33 1925.4,-91.57 1878.98,-66 1806.3,-25.96 1239.47,-17.96 1041.19,-16.38"/>
<polygon fill="#63b8ff" stroke="#63b8ff" points="1041.21,-12.88 1031.19,-16.3 1041.16,-19.88 1041.21,-12.88"/>
</a>
</g>
</g>
<!-- Node24&#45;&gt;Node7 -->
<g id="edge52_Node000024_Node000007" class="edge">
<title>Node24&#45;&gt;Node7</title>
<g id="a_edge52_Node000024_Node000007"><a xlink:title=" ">
<path fill="none" stroke="#63b8ff" d="M1899.07,-186.94C1862.22,-179.41 1809.47,-167.13 1764.98,-151 1746.86,-144.43 1743.75,-139.5 1725.98,-132 1706.79,-123.9 1655.98,-105.94 1621.41,-93.9"/>
<polygon fill="#63b8ff" stroke="#63b8ff" points="1622.28,-90.5 1611.69,-90.53 1619.99,-97.12 1622.28,-90.5"/>
</a>
</g>
</g>
<!-- Node24&#45;&gt;Node12 -->
<g id="edge56_Node000024_Node000012" class="edge">
<title>Node24&#45;&gt;Node12</title>
<g id="a_edge56_Node000024_Node000012"><a xlink:title=" ">
<path fill="none" stroke="#63b8ff" d="M1967.16,-186.98C1989.76,-178.3 2025.05,-164.75 2050.74,-154.88"/>
<polygon fill="#63b8ff" stroke="#63b8ff" points="2052.33,-158.02 2060.41,-151.17 2049.82,-151.49 2052.33,-158.02"/>
</a>
</g>
</g>
<!-- Node24&#45;&gt;Node13 -->
<g id="edge53_Node000024_Node000013" class="edge">
<title>Node24&#45;&gt;Node13</title>
<g id="a_edge53_Node000024_Node000013"><a xlink:title=" ">
<path fill="none" stroke="#63b8ff" d="M1947.84,-186.97C1953.97,-168.65 1968.53,-125.18 1976.85,-100.31"/>
<polygon fill="#63b8ff" stroke="#63b8ff" points="1980.24,-101.22 1980.09,-90.63 1973.6,-99 1980.24,-101.22"/>
</a>
</g>
</g>
<!-- Node24&#45;&gt;Node14 -->
<g id="edge54_Node000024_Node000014" class="edge">
<title>Node24&#45;&gt;Node14</title>
<g id="a_edge54_Node000024_Node000014"><a xlink:title=" ">
<path fill="none" stroke="#63b8ff" d="M2032.64,-188.87C2086.08,-182.79 2147.23,-171.5 2163.98,-151 2175.5,-136.91 2170.98,-115.41 2165.34,-100.16"/>
<polygon fill="#63b8ff" stroke="#63b8ff" points="2168.51,-98.66 2161.45,-90.77 2162.05,-101.34 2168.51,-98.66"/>
</a>
</g>
</g>
<!-- Node24&#45;&gt;Node16 -->
<g id="edge55_Node000024_Node000016" class="edge">
<title>Node24&#45;&gt;Node16</title>
<g id="a_edge55_Node000024_Node000016"><a xlink:title=" ">
<path fill="none" stroke="#63b8ff" d="M2025.35,-186.99C2083.34,-179.63 2155.69,-167.56 2180.98,-151 2199.69,-138.76 2212.91,-116.22 2220.47,-100.24"/>
<polygon fill="#63b8ff" stroke="#63b8ff" points="2223.78,-101.42 2224.62,-90.86 2217.38,-98.59 2223.78,-101.42"/>
</a>
</g>
</g>
<!-- Node24&#45;&gt;Node22 -->
<g id="edge57_Node000024_Node000022" class="edge">
<title>Node24&#45;&gt;Node22</title>
<g id="a_edge57_Node000024_Node000022"><a xlink:title=" ">
<path fill="none" stroke="#63b8ff" d="M1928.92,-186.98C1913.12,-178.61 1888.77,-165.7 1870.35,-155.95"/>
<polygon fill="#63b8ff" stroke="#63b8ff" points="1871.82,-152.76 1861.34,-151.17 1868.54,-158.95 1871.82,-152.76"/>
</a>
</g>
</g>
<!-- Node25&#45;&gt;Node3 -->
<g id="edge61_Node000025_Node000003" class="edge">
<title>Node25&#45;&gt;Node3</title>
<g id="a_edge61_Node000025_Node000003"><a xlink:title=" ">
<path fill="none" stroke="#63b8ff" d="M1110.62,-131.96C1095.34,-123.66 1072.23,-110.26 1053.98,-96 1031.23,-78.22 1008.07,-54.68 992.37,-37.74"/>
<polygon fill="#63b8ff" stroke="#63b8ff" points="994.63,-35.03 985.3,-30.01 989.47,-39.76 994.63,-35.03"/>
</a>
</g>
</g>
<!-- Node25&#45;&gt;Node5 -->
<g id="edge62_Node000025_Node000005" class="edge">
<title>Node25&#45;&gt;Node5</title>
<g id="a_edge62_Node000025_Node000005"><a xlink:title=" ">
<path fill="none" stroke="#63b8ff" d="M1126.98,-131.87C1126.98,-123.75 1126.98,-111.31 1126.98,-100.89"/>
<polygon fill="#63b8ff" stroke="#63b8ff" points="1130.48,-100.67 1126.98,-90.67 1123.48,-100.67 1130.48,-100.67"/>
</a>
</g>
</g>
</g>
</svg>

<g id="navigator" transform="translate(0 0)" fill="#404254">
  <rect fill="#f2f5e9" fill-opacity="0.5" stroke="#606060" stroke-width=".5" x="0" y="0" width="60" height="60"/>
  <use id="zoomplus" xlink:href="#zoomPlus" x="17" y="9" onmousedown="handleZoom(evt,'in')"/>
  <use id="zoomminus" xlink:href="#zoomMin" x="42" y="9" onmousedown="handleZoom(evt,'out')"/>
  <use id="reset" xlink:href="#resetDef" x="30" y="36" onmousedown="handleReset()"/>
   <use id="arrowup" xlink:href="#arrowUp" x="0" y="0" onmousedown="handlePan(0,-1)"/>
  <use id="arrowright" xlink:href="#arrowRight" x="0" y="0" onmousedown="handlePan(1,0)"/>
  <use id="arrowdown" xlink:href="#arrowDown" x="0" y="0" onmousedown="handlePan(0,1)"/>
  <use id="arrowleft" xlink:href="#arrowLeft" x="0" y="0" onmousedown="handlePan(-1,0)"/>
</g>
<svg viewBox="0 0 15 15" width="100%" height="30px" preserveAspectRatio="xMaxYMin meet">
 <g id="arrow_out" transform="scale(0.3 0.3)">
  <a xlink:href="DirektBaseEditor_8h__incl_org.svg" target="_base">
   <rect id="button" ry="5" rx="5" y="6" x="6" height="38" width="38"
        fill="#f2f5e9" fill-opacity="0.5" stroke="#606060" stroke-width="1.0"/>
   <path id="arrow"
     d="M 11.500037,31.436501 C 11.940474,20.09759 22.043105,11.32322 32.158766,21.979434 L 37.068811,17.246167 C 37.068811,17.246167 37.088388,32 37.088388,32 L 22.160133,31.978069 C 22.160133,31.978069 26.997745,27.140456 26.997745,27.140456 C 18.528582,18.264221 13.291696,25.230495 11.500037,31.436501 z"
     style="fill:#404040;"/>
  </a>
 </g>
</svg>

<style type='text/css'>
<![CDATA[
[data-mouse-over-selected='false'] { opacity: 0.7; }
[data-mouse-over-selected='true']  { opacity: 1.0; }
]]>
</style>
<script type="application/ecmascript"><![CDATA[
document.addEventListener('DOMContentLoaded', (event) => {
  highlightEdges();
  highlightAdjacentNodes();
});
]]></script>
</svg>
