<?xml version="1.0" encoding="UTF-8" standalone="no"?>
<!DOCTYPE svg PUBLIC "-//W3C//DTD SVG 1.1//EN"
 "http://www.w3.org/Graphics/SVG/1.1/DTD/svg11.dtd">
<!-- Generated by graphviz version 2.43.0 (0)
 -->
<!-- Title: Graphical Class Hierarchy Pages: 1 -->
<svg width="363pt" height="631pt"
 viewBox="0.00 0.00 363.00 631.00" xmlns="http://www.w3.org/2000/svg" xmlns:xlink="http://www.w3.org/1999/xlink">
<g id="graph0" class="graph" transform="scale(1 1) rotate(0) translate(4 627)">
<title>Graphical Class Hierarchy</title>
<!-- Node0 -->
<g id="Node000000" class="node">
<title>Node0</title>
<g id="a_Node000000"><a xlink:title=" ">
<polygon fill="#e0e0e0" stroke="#999999" points="146,-623 0,-623 0,-604 146,-604 146,-623"/>
<text text-anchor="middle" x="73" y="-611" font-family="Helvetica,sans-Serif" font-size="10.00">juce::AudioProcessorEditor</text>
</a>
</g>
</g>
<!-- Node1 -->
<g id="Node000001" class="node">
<title>Node1</title>
<g id="a_Node000001"><a xlink:href="classDirektDSP_1_1DirektBaseEditor.html" target="_top" xlink:title=" ">
<polygon fill="white" stroke="#666666" points="346,-623 191,-623 191,-604 346,-604 346,-623"/>
<text text-anchor="middle" x="268.5" y="-611" font-family="Helvetica,sans-Serif" font-size="10.00">DirektDSP::DirektBaseEditor</text>
</a>
</g>
</g>
<!-- Node0&#45;&gt;Node1 -->
<g id="edge2_Node000000_Node000001" class="edge">
<title>Node0&#45;&gt;Node1</title>
<g id="a_edge2_Node000000_Node000001"><a xlink:title=" ">
<path fill="none" stroke="#63b8ff" d="M156.09,-613.5C167.62,-613.5 179.43,-613.5 190.85,-613.5"/>
<polygon fill="#63b8ff" stroke="#63b8ff" points="156.05,-610 146.05,-613.5 156.05,-617 156.05,-610"/>
</a>
</g>
</g>
<!-- Node4 -->
<g id="Node000004" class="node">
<title>Node4</title>
<g id="a_Node000004"><a xlink:title=" ">
<polygon fill="#e0e0e0" stroke="#999999" points="122.5,-306 23.5,-306 23.5,-287 122.5,-287 122.5,-306"/>
<text text-anchor="middle" x="73" y="-294" font-family="Helvetica,sans-Serif" font-size="10.00">juce::Component</text>
</a>
</g>
</g>
<!-- Node5 -->
<g id="Node000005" class="node">
<title>Node5</title>
<g id="a_Node000005"><a xlink:href="classDirektDSP_1_1DirektABCompare.html" target="_top" xlink:title="A/B compare control that stores two APVTS snapshots and lets the user switch between them.">
<polygon fill="white" stroke="#666666" points="348.5,-512 188.5,-512 188.5,-493 348.5,-493 348.5,-512"/>
<text text-anchor="middle" x="268.5" y="-500" font-family="Helvetica,sans-Serif" font-size="10.00">DirektDSP::DirektABCompare</text>
</a>
</g>
</g>
<!-- Node4&#45;&gt;Node5 -->
<g id="edge3_Node000004_Node000005" class="edge">
<title>Node4&#45;&gt;Node5</title>
<g id="a_edge3_Node000004_Node000005"><a xlink:title=" ">
<path fill="none" stroke="#63b8ff" d="M79.47,-316.06C91.32,-354.59 123.12,-440.31 182,-483.5 187.27,-487.37 193.19,-490.47 199.38,-492.96"/>
<polygon fill="#63b8ff" stroke="#63b8ff" points="82.73,-314.72 76.54,-306.12 76.01,-316.7 82.73,-314.72"/>
</a>
</g>
</g>
<!-- Node3 -->
<g id="Node000003" class="node">
<title>Node3</title>
<g id="a_Node000003"><a xlink:href="classDirektDSP_1_1DirektClipIndicator.html" target="_top" xlink:title="A small LED indicator that lights red when the signal has clipped (&gt;= 0 dBFS).">
<polygon fill="white" stroke="#666666" points="350.5,-549 186.5,-549 186.5,-530 350.5,-530 350.5,-549"/>
<text text-anchor="middle" x="268.5" y="-537" font-family="Helvetica,sans-Serif" font-size="10.00">DirektDSP::DirektClipIndicator</text>
</a>
</g>
</g>
<!-- Node4&#45;&gt;Node3 -->
<g id="edge4_Node000004_Node000003" class="edge">
<title>Node4&#45;&gt;Node3</title>
<g id="a_edge4_Node000004_Node000003"><a xlink:title=" ">
<path fill="none" stroke="#63b8ff" d="M77.39,-316.05C86.11,-360.18 113.64,-467.85 182,-521.5 186.3,-524.87 191.07,-527.65 196.11,-529.94"/>
<polygon fill="#63b8ff" stroke="#63b8ff" points="80.79,-315.24 75.52,-306.05 73.91,-316.52 80.79,-315.24"/>
</a>
</g>
</g>
<!-- Node7 -->
<g id="Node000007" class="node">
<title>Node7</title>
<g id="a_Node000007"><a xlink:href="classDirektDSP_1_1DirektComboBox.html" target="_top" xlink:title=" ">
<polygon fill="white" stroke="#666666" points="346,-19 191,-19 191,0 346,0 346,-19"/>
<text text-anchor="middle" x="268.5" y="-7" font-family="Helvetica,sans-Serif" font-size="10.00">DirektDSP::DirektComboBox</text>
</a>
</g>
</g>
<!-- Node4&#45;&gt;Node7 -->
<g id="edge5_Node000004_Node000007" class="edge">
<title>Node4&#45;&gt;Node7</title>
<g id="a_edge5_Node000004_Node000007"><a xlink:title=" ">
<path fill="none" stroke="#63b8ff" d="M75.74,-276.64C81.25,-226.46 102.97,-93.83 182,-27.5 185.95,-24.18 190.36,-21.43 195.04,-19.15"/>
<polygon fill="#63b8ff" stroke="#63b8ff" points="72.24,-276.5 74.73,-286.8 79.2,-277.2 72.24,-276.5"/>
</a>
</g>
</g>
<!-- Node8 -->
<g id="Node000008" class="node">
<title>Node8</title>
<g id="a_Node000008"><a xlink:href="classDirektDSP_1_1DirektFlexContainer.html" target="_top" xlink:title=" ">
<polygon fill="white" stroke="#666666" points="353.5,-475 183.5,-475 183.5,-456 353.5,-456 353.5,-475"/>
<text text-anchor="middle" x="268.5" y="-463" font-family="Helvetica,sans-Serif" font-size="10.00">DirektDSP::DirektFlexContainer</text>
</a>
</g>
</g>
<!-- Node4&#45;&gt;Node8 -->
<g id="edge6_Node000004_Node000008" class="edge">
<title>Node4&#45;&gt;Node8</title>
<g id="a_edge6_Node000004_Node000008"><a xlink:title=" ">
<path fill="none" stroke="#63b8ff" d="M82.01,-315.3C96.78,-347.56 131.47,-413.2 182,-446.5 187.84,-450.35 194.34,-453.43 201.08,-455.89"/>
<polygon fill="#63b8ff" stroke="#63b8ff" points="85.18,-313.8 77.92,-306.08 78.78,-316.64 85.18,-313.8"/>
</a>
</g>
</g>
<!-- Node9 -->
<g id="Node000009" class="node">
<title>Node9</title>
<g id="a_Node000009"><a xlink:href="classDirektDSP_1_1DirektFooter.html" target="_top" xlink:title=" ">
<polygon fill="white" stroke="#666666" points="335,-438 202,-438 202,-419 335,-419 335,-438"/>
<text text-anchor="middle" x="268.5" y="-426" font-family="Helvetica,sans-Serif" font-size="10.00">DirektDSP::DirektFooter</text>
</a>
</g>
</g>
<!-- Node4&#45;&gt;Node9 -->
<g id="edge7_Node000004_Node000009" class="edge">
<title>Node4&#45;&gt;Node9</title>
<g id="a_edge7_Node000004_Node000009"><a xlink:title=" ">
<path fill="none" stroke="#63b8ff" d="M85.95,-314.54C103.74,-339.9 139.68,-385.64 182,-409.5 188.89,-413.38 196.51,-416.47 204.27,-418.93"/>
<polygon fill="#63b8ff" stroke="#63b8ff" points="88.77,-312.47 80.23,-306.2 83,-316.43 88.77,-312.47"/>
</a>
</g>
</g>
<!-- Node10 -->
<g id="Node000010" class="node">
<title>Node10</title>
<g id="a_Node000010"><a xlink:href="classDirektDSP_1_1DirektHeader.html" target="_top" xlink:title=" ">
<polygon fill="white" stroke="#666666" points="337,-401 200,-401 200,-382 337,-382 337,-401"/>
<text text-anchor="middle" x="268.5" y="-389" font-family="Helvetica,sans-Serif" font-size="10.00">DirektDSP::DirektHeader</text>
</a>
</g>
</g>
<!-- Node4&#45;&gt;Node10 -->
<g id="edge8_Node000004_Node000010" class="edge">
<title>Node4&#45;&gt;Node10</title>
<g id="a_edge8_Node000004_Node000010"><a xlink:title=" ">
<path fill="none" stroke="#63b8ff" d="M92.03,-312.61C112.43,-329.98 147.35,-357.19 182,-372.5 190.76,-376.37 200.39,-379.49 209.93,-381.99"/>
<polygon fill="#63b8ff" stroke="#63b8ff" points="94.31,-309.96 84.47,-306.05 89.73,-315.25 94.31,-309.96"/>
</a>
</g>
</g>
<!-- Node11 -->
<g id="Node000011" class="node">
<title>Node11</title>
<g id="a_Node000011"><a xlink:href="classDirektDSP_1_1DirektKnob.html" target="_top" xlink:title=" ">
<polygon fill="white" stroke="#666666" points="332,-364 205,-364 205,-345 332,-345 332,-364"/>
<text text-anchor="middle" x="268.5" y="-352" font-family="Helvetica,sans-Serif" font-size="10.00">DirektDSP::DirektKnob</text>
</a>
</g>
</g>
<!-- Node4&#45;&gt;Node11 -->
<g id="edge9_Node000004_Node000011" class="edge">
<title>Node4&#45;&gt;Node11</title>
<g id="a_edge9_Node000004_Node000011"><a xlink:title=" ">
<path fill="none" stroke="#63b8ff" d="M107.23,-309.75C128.41,-317.88 156.55,-328.11 182,-335.5 193.97,-338.98 207.05,-342.18 219.29,-344.92"/>
<polygon fill="#63b8ff" stroke="#63b8ff" points="108.32,-306.42 97.73,-306.06 105.79,-312.94 108.32,-306.42"/>
</a>
</g>
</g>
<!-- Node12 -->
<g id="Node000012" class="node">
<title>Node12</title>
<g id="a_Node000012"><a xlink:href="classDirektDSP_1_1DirektMacroControl.html" target="_top" xlink:title="One macro knob that drives multiple parameters.">
<polygon fill="white" stroke="#666666" points="352,-327 185,-327 185,-308 352,-308 352,-327"/>
<text text-anchor="middle" x="268.5" y="-315" font-family="Helvetica,sans-Serif" font-size="10.00">DirektDSP::DirektMacroControl</text>
</a>
</g>
</g>
<!-- Node4&#45;&gt;Node12 -->
<g id="edge10_Node000004_Node000012" class="edge">
<title>Node4&#45;&gt;Node12</title>
<g id="a_edge10_Node000004_Node000012"><a xlink:title=" ">
<path fill="none" stroke="#63b8ff" d="M132.79,-302.88C149.19,-304.66 167.31,-306.63 184.81,-308.53"/>
<polygon fill="#63b8ff" stroke="#63b8ff" points="133.15,-299.4 122.83,-301.8 132.39,-306.36 133.15,-299.4"/>
</a>
</g>
</g>
<!-- Node13 -->
<g id="Node000013" class="node">
<title>Node13</title>
<g id="a_Node000013"><a xlink:href="classDirektDSP_1_1DirektMeter.html" target="_top" xlink:title=" ">
<polygon fill="white" stroke="#666666" points="334,-586 203,-586 203,-567 334,-567 334,-586"/>
<text text-anchor="middle" x="268.5" y="-574" font-family="Helvetica,sans-Serif" font-size="10.00">DirektDSP::DirektMeter</text>
</a>
</g>
</g>
<!-- Node4&#45;&gt;Node13 -->
<g id="edge11_Node000004_Node000013" class="edge">
<title>Node4&#45;&gt;Node13</title>
<g id="a_edge11_Node000004_Node000013"><a xlink:title=" ">
<path fill="none" stroke="#63b8ff" d="M80.74,-315.71C101.13,-373.34 161.96,-541.84 182,-558.5 188.07,-563.54 195.19,-567.28 202.7,-570.03"/>
<polygon fill="#63b8ff" stroke="#63b8ff" points="83.95,-314.28 77.33,-306.02 77.35,-316.61 83.95,-314.28"/>
</a>
</g>
</g>
<!-- Node14 -->
<g id="Node000014" class="node">
<title>Node14</title>
<g id="a_Node000014"><a xlink:href="classDirektDSP_1_1DirektModuleBypassSoloStrip.html" target="_top" xlink:title="Compact bypass and solo toggles for a module section title bar.">
<polygon fill="white" stroke="#666666" points="355,-289.5 182,-289.5 182,-259.5 355,-259.5 355,-289.5"/>
<text text-anchor="start" x="190" y="-277.5" font-family="Helvetica,sans-Serif" font-size="10.00">DirektDSP::DirektModuleBypass</text>
<text text-anchor="middle" x="268.5" y="-266.5" font-family="Helvetica,sans-Serif" font-size="10.00">SoloStrip</text>
</a>
</g>
</g>
<!-- Node4&#45;&gt;Node14 -->
<g id="edge12_Node000004_Node000014" class="edge">
<title>Node4&#45;&gt;Node14</title>
<g id="a_edge12_Node000004_Node000014"><a xlink:title=" ">
<path fill="none" stroke="#63b8ff" d="M133.19,-289.77C148.54,-288.03 165.37,-286.11 181.78,-284.25"/>
<polygon fill="#63b8ff" stroke="#63b8ff" points="132.37,-286.34 122.83,-290.95 133.16,-293.3 132.37,-286.34"/>
</a>
</g>
</g>
<!-- Node15 -->
<g id="Node000015" class="node">
<title>Node15</title>
<g id="a_Node000015"><a xlink:href="classDirektDSP_1_1DirektPopupPanel.html" target="_top" xlink:title=" ">
<polygon fill="white" stroke="#666666" points="347.5,-241 189.5,-241 189.5,-222 347.5,-222 347.5,-241"/>
<text text-anchor="middle" x="268.5" y="-229" font-family="Helvetica,sans-Serif" font-size="10.00">DirektDSP::DirektPopupPanel</text>
</a>
</g>
</g>
<!-- Node4&#45;&gt;Node15 -->
<g id="edge13_Node000004_Node000015" class="edge">
<title>Node4&#45;&gt;Node15</title>
<g id="a_edge13_Node000004_Node000015"><a xlink:title=" ">
<path fill="none" stroke="#63b8ff" d="M102.68,-282.57C124.14,-272.57 154.4,-259.36 182,-250.5 193.29,-246.87 205.64,-243.69 217.35,-241.02"/>
<polygon fill="#63b8ff" stroke="#63b8ff" points="101.04,-279.47 93.49,-286.91 104.03,-285.8 101.04,-279.47"/>
</a>
</g>
</g>
<!-- Node16 -->
<g id="Node000016" class="node">
<title>Node16</title>
<g id="a_Node000016"><a xlink:href="classDirektDSP_1_1DirektPresetBrowser.html" target="_top" xlink:title=" ">
<polygon fill="white" stroke="#666666" points="355,-204 182,-204 182,-185 355,-185 355,-204"/>
<text text-anchor="middle" x="268.5" y="-192" font-family="Helvetica,sans-Serif" font-size="10.00">DirektDSP::DirektPresetBrowser</text>
</a>
</g>
</g>
<!-- Node4&#45;&gt;Node16 -->
<g id="edge14_Node000004_Node000016" class="edge">
<title>Node4&#45;&gt;Node16</title>
<g id="a_edge14_Node000004_Node000016"><a xlink:title=" ">
<path fill="none" stroke="#63b8ff" d="M90.41,-279.76C110.29,-260.5 145.64,-229.37 182,-212.5 189.29,-209.12 197.23,-206.36 205.23,-204.12"/>
<polygon fill="#63b8ff" stroke="#63b8ff" points="87.76,-277.45 83.12,-286.97 92.69,-282.43 87.76,-277.45"/>
</a>
</g>
</g>
<!-- Node17 -->
<g id="Node000017" class="node">
<title>Node17</title>
<g id="a_Node000017"><a xlink:href="classDirektDSP_1_1DirektSection.html" target="_top" xlink:title=" ">
<polygon fill="white" stroke="#666666" points="337.5,-167 199.5,-167 199.5,-148 337.5,-148 337.5,-167"/>
<text text-anchor="middle" x="268.5" y="-155" font-family="Helvetica,sans-Serif" font-size="10.00">DirektDSP::DirektSection</text>
</a>
</g>
</g>
<!-- Node4&#45;&gt;Node17 -->
<g id="edge15_Node000004_Node000017" class="edge">
<title>Node4&#45;&gt;Node17</title>
<g id="a_edge15_Node000004_Node000017"><a xlink:title=" ">
<path fill="none" stroke="#63b8ff" d="M85.08,-277.91C102.25,-250.84 137.94,-201.01 182,-175.5 187.91,-172.08 194.38,-169.31 201.04,-167.06"/>
<polygon fill="#63b8ff" stroke="#63b8ff" points="81.88,-276.42 79.61,-286.77 87.84,-280.1 81.88,-276.42"/>
</a>
</g>
</g>
<!-- Node18 -->
<g id="Node000018" class="node">
<title>Node18</title>
<g id="a_Node000018"><a xlink:href="classDirektDSP_1_1DirektStereoMeter.html" target="_top" xlink:title="A stereo meter pair (L + R) laid out side&#45;by&#45;side (vertical) or stacked top&#45;to&#45;bottom (horizontal ori...">
<polygon fill="white" stroke="#666666" points="349.5,-130 187.5,-130 187.5,-111 349.5,-111 349.5,-130"/>
<text text-anchor="middle" x="268.5" y="-118" font-family="Helvetica,sans-Serif" font-size="10.00">DirektDSP::DirektStereoMeter</text>
</a>
</g>
</g>
<!-- Node4&#45;&gt;Node18 -->
<g id="edge16_Node000004_Node000018" class="edge">
<title>Node4&#45;&gt;Node18</title>
<g id="a_edge16_Node000004_Node000018"><a xlink:title=" ">
<path fill="none" stroke="#63b8ff" d="M81.48,-277.13C95.63,-243.25 129.66,-173.5 182,-138.5 187.04,-135.13 192.6,-132.37 198.38,-130.12"/>
<polygon fill="#63b8ff" stroke="#63b8ff" points="78.08,-276.2 77.59,-286.79 84.58,-278.82 78.08,-276.2"/>
</a>
</g>
</g>
<!-- Node19 -->
<g id="Node000019" class="node">
<title>Node19</title>
<g id="a_Node000019"><a xlink:href="classDirektDSP_1_1DirektTabPanel.html" target="_top" xlink:title=" ">
<polygon fill="white" stroke="#666666" points="341,-93 196,-93 196,-74 341,-74 341,-93"/>
<text text-anchor="middle" x="268.5" y="-81" font-family="Helvetica,sans-Serif" font-size="10.00">DirektDSP::DirektTabPanel</text>
</a>
</g>
</g>
<!-- Node4&#45;&gt;Node19 -->
<g id="edge17_Node000004_Node000019" class="edge">
<title>Node4&#45;&gt;Node19</title>
<g id="a_edge17_Node000004_Node000019"><a xlink:title=" ">
<path fill="none" stroke="#63b8ff" d="M78.87,-277.13C89.93,-237.41 120.83,-146.69 182,-101.5 186.51,-98.17 191.51,-95.42 196.75,-93.16"/>
<polygon fill="#63b8ff" stroke="#63b8ff" points="75.46,-276.34 76.27,-286.9 82.23,-278.14 75.46,-276.34"/>
</a>
</g>
</g>
<!-- Node20 -->
<g id="Node000020" class="node">
<title>Node20</title>
<g id="a_Node000020"><a xlink:href="classDirektDSP_1_1DirektToggle.html" target="_top" xlink:title=" ">
<polygon fill="white" stroke="#666666" points="335.5,-56 201.5,-56 201.5,-37 335.5,-37 335.5,-56"/>
<text text-anchor="middle" x="268.5" y="-44" font-family="Helvetica,sans-Serif" font-size="10.00">DirektDSP::DirektToggle</text>
</a>
</g>
</g>
<!-- Node4&#45;&gt;Node20 -->
<g id="edge18_Node000004_Node000020" class="edge">
<title>Node4&#45;&gt;Node20</title>
<g id="a_edge18_Node000004_Node000020"><a xlink:title=" ">
<path fill="none" stroke="#63b8ff" d="M77.13,-276.65C85.38,-231.35 112.09,-120.04 182,-64.5 187.7,-59.97 194.27,-56.51 201.18,-53.87"/>
<polygon fill="#63b8ff" stroke="#63b8ff" points="73.66,-276.22 75.42,-286.66 80.56,-277.4 73.66,-276.22"/>
</a>
</g>
</g>
<!-- Node6 -->
<g id="Node000006" class="node">
<title>Node6</title>
<g id="a_Node000006"><a xlink:title=" ">
<polygon fill="#e0e0e0" stroke="#999999" points="145,-530 1,-530 1,-511 145,-511 145,-530"/>
<text text-anchor="middle" x="73" y="-518" font-family="Helvetica,sans-Serif" font-size="10.00">juce::SettableTooltipClient</text>
</a>
</g>
</g>
<!-- Node6&#45;&gt;Node5 -->
<g id="edge19_Node000006_Node000005" class="edge">
<title>Node6&#45;&gt;Node5</title>
<g id="a_edge19_Node000006_Node000005"><a xlink:title=" ">
<path fill="none" stroke="#63b8ff" d="M155.19,-512.95C166.13,-511.93 177.35,-510.89 188.27,-509.87"/>
<polygon fill="#63b8ff" stroke="#63b8ff" points="154.86,-509.46 145.23,-513.87 155.51,-516.43 154.86,-509.46"/>
</a>
</g>
</g>
<!-- Node6&#45;&gt;Node3 -->
<g id="edge20_Node000006_Node000003" class="edge">
<title>Node6&#45;&gt;Node3</title>
<g id="a_edge20_Node000006_Node000003"><a xlink:title=" ">
<path fill="none" stroke="#63b8ff" d="M155.36,-528.49C165.59,-529.49 176.06,-530.52 186.29,-531.53"/>
<polygon fill="#63b8ff" stroke="#63b8ff" points="155.52,-524.99 145.23,-527.49 154.84,-531.95 155.52,-524.99"/>
</a>
</g>
</g>
<!-- Node2 -->
<g id="Node000002" class="node">
<title>Node2</title>
<g id="a_Node000002"><a xlink:title=" ">
<polygon fill="#e0e0e0" stroke="#999999" points="108.5,-586 37.5,-586 37.5,-567 108.5,-567 108.5,-586"/>
<text text-anchor="middle" x="73" y="-574" font-family="Helvetica,sans-Serif" font-size="10.00">juce::Timer</text>
</a>
</g>
</g>
<!-- Node2&#45;&gt;Node1 -->
<g id="edge21_Node000002_Node000001" class="edge">
<title>Node2&#45;&gt;Node1</title>
<g id="a_edge21_Node000002_Node000001"><a xlink:title=" ">
<path fill="none" stroke="#8b1a1a" d="M118.63,-585.03C148.19,-590.69 186.99,-598.11 217.57,-603.95"/>
<polygon fill="#8b1a1a" stroke="#8b1a1a" points="119.07,-581.56 108.59,-583.11 117.76,-588.43 119.07,-581.56"/>
</a>
</g>
</g>
<!-- Node2&#45;&gt;Node3 -->
<g id="edge22_Node000002_Node000003" class="edge">
<title>Node2&#45;&gt;Node3</title>
<g id="a_edge22_Node000002_Node000003"><a xlink:title=" ">
<path fill="none" stroke="#8b1a1a" d="M118.63,-567.97C148.19,-562.31 186.99,-554.89 217.57,-549.05"/>
<polygon fill="#8b1a1a" stroke="#8b1a1a" points="117.76,-564.57 108.59,-569.89 119.07,-571.44 117.76,-564.57"/>
</a>
</g>
</g>
<!-- Node2&#45;&gt;Node13 -->
<g id="edge23_Node000002_Node000013" class="edge">
<title>Node2&#45;&gt;Node13</title>
<g id="a_edge23_Node000002_Node000013"><a xlink:title=" ">
<path fill="none" stroke="#8b1a1a" d="M118.84,-576.5C143.74,-576.5 175.16,-576.5 202.7,-576.5"/>
<polygon fill="#8b1a1a" stroke="#8b1a1a" points="118.59,-573 108.59,-576.5 118.59,-580 118.59,-573"/>
</a>
</g>
</g>
</g>
</svg>
