<?xml version="1.0" encoding="UTF-8" standalone="no"?>
<!DOCTYPE svg PUBLIC "-//W3C//DTD SVG 1.1//EN"
 "http://www.w3.org/Graphics/SVG/1.1/DTD/svg11.dtd">
<!-- Generated by graphviz version 2.43.0 (0)
 -->
<!-- Title: Graphical Class Hierarchy Pages: 1 -->
<svg width="316pt" height="483pt"
 viewBox="0.00 0.00 316.00 483.00" xmlns="http://www.w3.org/2000/svg" xmlns:xlink="http://www.w3.org/1999/xlink">
<g id="graph0" class="graph" transform="scale(1 1) rotate(0) translate(4 479)">
<title>Graphical Class Hierarchy</title>
<!-- Node0 -->
<g id="Node000000" class="node">
<title>Node0</title>
<g id="a_Node000000"><a xlink:title=" ">
<polygon fill="#e0e0e0" stroke="#999999" points="99,-247 0,-247 0,-228 99,-228 99,-247"/>
<text text-anchor="middle" x="49.5" y="-235" font-family="Helvetica,sans-Serif" font-size="10.00">juce::Component</text>
</a>
</g>
</g>
<!-- Node1 -->
<g id="Node000001" class="node">
<title>Node1</title>
<g id="a_Node000001"><a xlink:href="classDirektDSP_1_1DirektComboBox.html" target="_top" xlink:title=" ">
<polygon fill="white" stroke="#666666" points="299,-475 144,-475 144,-456 299,-456 299,-475"/>
<text text-anchor="middle" x="221.5" y="-463" font-family="Helvetica,sans-Serif" font-size="10.00">DirektDSP::DirektComboBox</text>
</a>
</g>
</g>
<!-- Node0&#45;&gt;Node1 -->
<g id="edge2_Node000000_Node000001" class="edge">
<title>Node0&#45;&gt;Node1</title>
<g id="a_edge2_Node000000_Node000001"><a xlink:title=" ">
<path fill="none" stroke="#63b8ff" d="M52.38,-257.34C57.46,-299.36 75.42,-397.53 135,-447.5 138.95,-450.81 143.36,-453.57 148.04,-455.85"/>
<polygon fill="#63b8ff" stroke="#63b8ff" points="55.84,-256.85 51.28,-247.28 48.88,-257.6 55.84,-256.85"/>
</a>
</g>
</g>
<!-- Node2 -->
<g id="Node000002" class="node">
<title>Node2</title>
<g id="a_Node000002"><a xlink:href="classDirektDSP_1_1DirektFlexContainer.html" target="_top" xlink:title=" ">
<polygon fill="white" stroke="#666666" points="306.5,-438 136.5,-438 136.5,-419 306.5,-419 306.5,-438"/>
<text text-anchor="middle" x="221.5" y="-426" font-family="Helvetica,sans-Serif" font-size="10.00">DirektDSP::DirektFlexContainer</text>
</a>
</g>
</g>
<!-- Node0&#45;&gt;Node2 -->
<g id="edge3_Node000000_Node000002" class="edge">
<title>Node0&#45;&gt;Node2</title>
<g id="a_edge3_Node000000_Node000002"><a xlink:title=" ">
<path fill="none" stroke="#63b8ff" d="M54.2,-257.06C62.13,-293.36 84.34,-371.03 135,-410.5 139.31,-413.86 144.09,-416.63 149.14,-418.9"/>
<polygon fill="#63b8ff" stroke="#63b8ff" points="57.61,-256.31 52.18,-247.21 50.76,-257.71 57.61,-256.31"/>
</a>
</g>
</g>
<!-- Node3 -->
<g id="Node000003" class="node">
<title>Node3</title>
<g id="a_Node000003"><a xlink:href="classDirektDSP_1_1DirektFooter.html" target="_top" xlink:title=" ">
<polygon fill="white" stroke="#666666" points="288,-401 155,-401 155,-382 288,-382 288,-401"/>
<text text-anchor="middle" x="221.5" y="-389" font-family="Helvetica,sans-Serif" font-size="10.00">DirektDSP::DirektFooter</text>
</a>
</g>
</g>
<!-- Node0&#45;&gt;Node3 -->
<g id="edge4_Node000000_Node000003" class="edge">
<title>Node0&#45;&gt;Node3</title>
<g id="a_edge4_Node000000_Node000003"><a xlink:title=" ">
<path fill="none" stroke="#63b8ff" d="M56.95,-257.02C67.93,-287.06 93.23,-344.24 135,-373.5 140.96,-377.68 147.7,-380.92 154.7,-383.44"/>
<polygon fill="#63b8ff" stroke="#63b8ff" points="60.15,-255.56 53.54,-247.28 53.54,-257.87 60.15,-255.56"/>
</a>
</g>
</g>
<!-- Node4 -->
<g id="Node000004" class="node">
<title>Node4</title>
<g id="a_Node000004"><a xlink:href="classDirektDSP_1_1DirektHeader.html" target="_top" xlink:title=" ">
<polygon fill="white" stroke="#666666" points="290,-364 153,-364 153,-345 290,-345 290,-364"/>
<text text-anchor="middle" x="221.5" y="-352" font-family="Helvetica,sans-Serif" font-size="10.00">DirektDSP::DirektHeader</text>
</a>
</g>
</g>
<!-- Node0&#45;&gt;Node4 -->
<g id="edge5_Node000000_Node000004" class="edge">
<title>Node0&#45;&gt;Node4</title>
<g id="a_edge5_Node000000_Node000004"><a xlink:title=" ">
<path fill="none" stroke="#63b8ff" d="M60.94,-255.92C74.81,-278.62 101.51,-316.61 135,-336.5 140.74,-339.91 147.03,-342.68 153.52,-344.92"/>
<polygon fill="#63b8ff" stroke="#63b8ff" points="63.9,-254.06 55.8,-247.23 57.87,-257.62 63.9,-254.06"/>
</a>
</g>
</g>
<!-- Node5 -->
<g id="Node000005" class="node">
<title>Node5</title>
<g id="a_Node000005"><a xlink:href="classDirektDSP_1_1DirektKnob.html" target="_top" xlink:title=" ">
<polygon fill="white" stroke="#666666" points="285,-327 158,-327 158,-308 285,-308 285,-327"/>
<text text-anchor="middle" x="221.5" y="-315" font-family="Helvetica,sans-Serif" font-size="10.00">DirektDSP::DirektKnob</text>
</a>
</g>
</g>
<!-- Node0&#45;&gt;Node5 -->
<g id="edge6_Node000000_Node000005" class="edge">
<title>Node0&#45;&gt;Node5</title>
<g id="a_edge6_Node000000_Node000005"><a xlink:title=" ">
<path fill="none" stroke="#63b8ff" d="M68.1,-253.94C84.27,-268.14 109.54,-288.12 135,-299.5 142.62,-302.9 150.91,-305.68 159.23,-307.93"/>
<polygon fill="#63b8ff" stroke="#63b8ff" points="70.29,-251.2 60.51,-247.12 65.61,-256.41 70.29,-251.2"/>
</a>
</g>
</g>
<!-- Node6 -->
<g id="Node000006" class="node">
<title>Node6</title>
<g id="a_Node000006"><a xlink:href="classDirektDSP_1_1DirektMacroControl.html" target="_top" xlink:title="One macro knob that drives multiple parameters.">
<polygon fill="white" stroke="#666666" points="305,-290 138,-290 138,-271 305,-271 305,-290"/>
<text text-anchor="middle" x="221.5" y="-278" font-family="Helvetica,sans-Serif" font-size="10.00">DirektDSP::DirektMacroControl</text>
</a>
</g>
</g>
<!-- Node0&#45;&gt;Node6 -->
<g id="edge7_Node000000_Node000006" class="edge">
<title>Node0&#45;&gt;Node6</title>
<g id="a_edge7_Node000000_Node000006"><a xlink:title=" ">
<path fill="none" stroke="#63b8ff" d="M92.48,-249.94C106.01,-253.81 121.1,-257.98 135,-261.5 147.97,-264.78 162.13,-268.05 175.12,-270.93"/>
<polygon fill="#63b8ff" stroke="#63b8ff" points="93.06,-246.47 82.48,-247.06 91.12,-253.19 93.06,-246.47"/>
</a>
</g>
</g>
<!-- Node7 -->
<g id="Node000007" class="node">
<title>Node7</title>
<g id="a_Node000007"><a xlink:href="classDirektDSP_1_1DirektMeter.html" target="_top" xlink:title=" ">
<polygon fill="white" stroke="#666666" points="287,-19 156,-19 156,0 287,0 287,-19"/>
<text text-anchor="middle" x="221.5" y="-7" font-family="Helvetica,sans-Serif" font-size="10.00">DirektDSP::DirektMeter</text>
</a>
</g>
</g>
<!-- Node0&#45;&gt;Node7 -->
<g id="edge8_Node000000_Node000007" class="edge">
<title>Node0&#45;&gt;Node7</title>
<g id="a_edge8_Node000000_Node000007"><a xlink:title=" ">
<path fill="none" stroke="#63b8ff" d="M52.38,-217.66C57.46,-175.64 75.42,-77.47 135,-27.5 141.04,-22.43 148.16,-18.68 155.66,-15.92"/>
<polygon fill="#63b8ff" stroke="#63b8ff" points="48.88,-217.4 51.28,-227.72 55.84,-218.15 48.88,-217.4"/>
</a>
</g>
</g>
<!-- Node9 -->
<g id="Node000009" class="node">
<title>Node9</title>
<g id="a_Node000009"><a xlink:href="classDirektDSP_1_1DirektModuleBypassSoloStrip.html" target="_top" xlink:title="Compact bypass and solo toggles for a module section title bar.">
<polygon fill="white" stroke="#666666" points="308,-252.5 135,-252.5 135,-222.5 308,-222.5 308,-252.5"/>
<text text-anchor="start" x="143" y="-240.5" font-family="Helvetica,sans-Serif" font-size="10.00">DirektDSP::DirektModuleBypass</text>
<text text-anchor="middle" x="221.5" y="-229.5" font-family="Helvetica,sans-Serif" font-size="10.00">SoloStrip</text>
</a>
</g>
</g>
<!-- Node0&#45;&gt;Node9 -->
<g id="edge9_Node000000_Node000009" class="edge">
<title>Node0&#45;&gt;Node9</title>
<g id="a_edge9_Node000000_Node000009"><a xlink:title=" ">
<path fill="none" stroke="#63b8ff" d="M109.42,-237.5C117.66,-237.5 126.25,-237.5 134.85,-237.5"/>
<polygon fill="#63b8ff" stroke="#63b8ff" points="109.22,-234 99.22,-237.5 109.22,-241 109.22,-234"/>
</a>
</g>
</g>
<!-- Node10 -->
<g id="Node000010" class="node">
<title>Node10</title>
<g id="a_Node000010"><a xlink:href="classDirektDSP_1_1DirektPopupPanel.html" target="_top" xlink:title=" ">
<polygon fill="white" stroke="#666666" points="300.5,-204 142.5,-204 142.5,-185 300.5,-185 300.5,-204"/>
<text text-anchor="middle" x="221.5" y="-192" font-family="Helvetica,sans-Serif" font-size="10.00">DirektDSP::DirektPopupPanel</text>
</a>
</g>
</g>
<!-- Node0&#45;&gt;Node10 -->
<g id="edge10_Node000000_Node000010" class="edge">
<title>Node0&#45;&gt;Node10</title>
<g id="a_edge10_Node000000_Node000010"><a xlink:title=" ">
<path fill="none" stroke="#63b8ff" d="M92.48,-225.06C106.01,-221.19 121.1,-217.02 135,-213.5 147.97,-210.22 162.13,-206.95 175.12,-204.07"/>
<polygon fill="#63b8ff" stroke="#63b8ff" points="91.12,-221.81 82.48,-227.94 93.06,-228.53 91.12,-221.81"/>
</a>
</g>
</g>
<!-- Node11 -->
<g id="Node000011" class="node">
<title>Node11</title>
<g id="a_Node000011"><a xlink:href="classDirektDSP_1_1DirektPresetBrowser.html" target="_top" xlink:title=" ">
<polygon fill="white" stroke="#666666" points="308,-167 135,-167 135,-148 308,-148 308,-167"/>
<text text-anchor="middle" x="221.5" y="-155" font-family="Helvetica,sans-Serif" font-size="10.00">DirektDSP::DirektPresetBrowser</text>
</a>
</g>
</g>
<!-- Node0&#45;&gt;Node11 -->
<g id="edge11_Node000000_Node000011" class="edge">
<title>Node0&#45;&gt;Node11</title>
<g id="a_edge11_Node000000_Node000011"><a xlink:title=" ">
<path fill="none" stroke="#63b8ff" d="M68.45,-221.17C84.68,-207.27 109.84,-187.8 135,-176.5 143.6,-172.64 153.05,-169.53 162.43,-167.04"/>
<polygon fill="#63b8ff" stroke="#63b8ff" points="66.03,-218.64 60.82,-227.86 70.64,-223.9 66.03,-218.64"/>
</a>
</g>
</g>
<!-- Node12 -->
<g id="Node000012" class="node">
<title>Node12</title>
<g id="a_Node000012"><a xlink:href="classDirektDSP_1_1DirektSection.html" target="_top" xlink:title=" ">
<polygon fill="white" stroke="#666666" points="290.5,-130 152.5,-130 152.5,-111 290.5,-111 290.5,-130"/>
<text text-anchor="middle" x="221.5" y="-118" font-family="Helvetica,sans-Serif" font-size="10.00">DirektDSP::DirektSection</text>
</a>
</g>
</g>
<!-- Node0&#45;&gt;Node12 -->
<g id="edge12_Node000000_Node000012" class="edge">
<title>Node0&#45;&gt;Node12</title>
<g id="a_edge12_Node000000_Node000012"><a xlink:title=" ">
<path fill="none" stroke="#63b8ff" d="M61.02,-219.32C74.98,-196.92 101.76,-159.37 135,-139.5 141.53,-135.6 148.76,-132.5 156.19,-130.03"/>
<polygon fill="#63b8ff" stroke="#63b8ff" points="58.01,-217.53 55.84,-227.9 64.01,-221.15 58.01,-217.53"/>
</a>
</g>
</g>
<!-- Node13 -->
<g id="Node000013" class="node">
<title>Node13</title>
<g id="a_Node000013"><a xlink:href="classDirektDSP_1_1DirektTabPanel.html" target="_top" xlink:title=" ">
<polygon fill="white" stroke="#666666" points="294,-93 149,-93 149,-74 294,-74 294,-93"/>
<text text-anchor="middle" x="221.5" y="-81" font-family="Helvetica,sans-Serif" font-size="10.00">DirektDSP::DirektTabPanel</text>
</a>
</g>
</g>
<!-- Node0&#45;&gt;Node13 -->
<g id="edge13_Node000000_Node000013" class="edge">
<title>Node0&#45;&gt;Node13</title>
<g id="a_edge13_Node000000_Node000013"><a xlink:title=" ">
<path fill="none" stroke="#63b8ff" d="M57.03,-218.18C68.12,-188.43 93.57,-131.77 135,-102.5 140.46,-98.64 146.58,-95.54 152.95,-93.07"/>
<polygon fill="#63b8ff" stroke="#63b8ff" points="53.65,-217.23 53.59,-227.82 60.24,-219.58 53.65,-217.23"/>
</a>
</g>
</g>
<!-- Node14 -->
<g id="Node000014" class="node">
<title>Node14</title>
<g id="a_Node000014"><a xlink:href="classDirektDSP_1_1DirektToggle.html" target="_top" xlink:title=" ">
<polygon fill="white" stroke="#666666" points="288.5,-56 154.5,-56 154.5,-37 288.5,-37 288.5,-56"/>
<text text-anchor="middle" x="221.5" y="-44" font-family="Helvetica,sans-Serif" font-size="10.00">DirektDSP::DirektToggle</text>
</a>
</g>
</g>
<!-- Node0&#45;&gt;Node14 -->
<g id="edge14_Node000000_Node000014" class="edge">
<title>Node0&#45;&gt;Node14</title>
<g id="a_edge14_Node000000_Node000014"><a xlink:title=" ">
<path fill="none" stroke="#63b8ff" d="M54.38,-217.63C62.53,-181.43 84.97,-104.84 135,-65.5 140.74,-60.99 147.33,-57.5 154.25,-54.81"/>
<polygon fill="#63b8ff" stroke="#63b8ff" points="50.86,-217.36 52.22,-227.87 57.71,-218.81 50.86,-217.36"/>
</a>
</g>
</g>
<!-- Node8 -->
<g id="Node000008" class="node">
<title>Node8</title>
<g id="a_Node000008"><a xlink:title=" ">
<polygon fill="#e0e0e0" stroke="#999999" points="85,-19 14,-19 14,0 85,0 85,-19"/>
<text text-anchor="middle" x="49.5" y="-7" font-family="Helvetica,sans-Serif" font-size="10.00">juce::Timer</text>
</a>
</g>
</g>
<!-- Node8&#45;&gt;Node7 -->
<g id="edge15_Node000008_Node000007" class="edge">
<title>Node8&#45;&gt;Node7</title>
<g id="a_edge15_Node000008_Node000007"><a xlink:title=" ">
<path fill="none" stroke="#8b1a1a" d="M95.49,-9.5C113.97,-9.5 135.71,-9.5 155.83,-9.5"/>
<polygon fill="#8b1a1a" stroke="#8b1a1a" points="95.31,-6 85.31,-9.5 95.31,-13 95.31,-6"/>
</a>
</g>
</g>
</g>
</svg>
