<?xml version="1.0" encoding="UTF-8" standalone="no"?>
<!DOCTYPE svg PUBLIC "-//W3C//DTD SVG 1.1//EN"
 "http://www.w3.org/Graphics/SVG/1.1/DTD/svg11.dtd">
<!-- Generated by graphviz version 2.43.0 (0)
 -->
<!-- Title: Graphical Class Hierarchy Pages: 1 -->
<svg width="316pt" height="434pt"
 viewBox="0.00 0.00 316.00 434.00" xmlns="http://www.w3.org/2000/svg" xmlns:xlink="http://www.w3.org/1999/xlink">
<g id="graph0" class="graph" transform="scale(1 1) rotate(0) translate(4 430)">
<title>Graphical Class Hierarchy</title>
<!-- Node0 -->
<g id="Node000000" class="node">
<title>Node0</title>
<g id="a_Node000000"><a xlink:title=" ">
<polygon fill="#e0e0e0" stroke="#999999" points="99,-222 0,-222 0,-203 99,-203 99,-222"/>
<text text-anchor="middle" x="49.5" y="-210" font-family="Helvetica,sans-Serif" font-size="10.00">juce::Component</text>
</a>
</g>
</g>
<!-- Node1 -->
<g id="Node000001" class="node">
<title>Node1</title>
<g id="a_Node000001"><a xlink:href="classDirektDSP_1_1DirektComboBox.html" target="_top" xlink:title=" ">
<polygon fill="white" stroke="#666666" points="299,-426 144,-426 144,-407 299,-407 299,-426"/>
<text text-anchor="middle" x="221.5" y="-414" font-family="Helvetica,sans-Serif" font-size="10.00">DirektDSP::DirektComboBox</text>
</a>
</g>
</g>
<!-- Node0&#45;&gt;Node1 -->
<g id="edge2_Node000000_Node000001" class="edge">
<title>Node0&#45;&gt;Node1</title>
<g id="a_edge2_Node000000_Node000001"><a xlink:title=" ">
<path fill="none" stroke="#63b8ff" d="M53.44,-231.91C60.31,-270.16 81.11,-355.28 135,-398.5 139.14,-401.82 143.75,-404.57 148.62,-406.84"/>
<polygon fill="#63b8ff" stroke="#63b8ff" points="56.89,-231.33 51.8,-222.04 49.99,-232.48 56.89,-231.33"/>
</a>
</g>
</g>
<!-- Node2 -->
<g id="Node000002" class="node">
<title>Node2</title>
<g id="a_Node000002"><a xlink:href="classDirektDSP_1_1DirektFlexContainer.html" target="_top" xlink:title=" ">
<polygon fill="white" stroke="#666666" points="306.5,-389 136.5,-389 136.5,-370 306.5,-370 306.5,-389"/>
<text text-anchor="middle" x="221.5" y="-377" font-family="Helvetica,sans-Serif" font-size="10.00">DirektDSP::DirektFlexContainer</text>
</a>
</g>
</g>
<!-- Node0&#45;&gt;Node2 -->
<g id="edge3_Node000000_Node000002" class="edge">
<title>Node0&#45;&gt;Node2</title>
<g id="a_edge3_Node000000_Node000002"><a xlink:title=" ">
<path fill="none" stroke="#63b8ff" d="M55.83,-232.01C65.72,-264.34 90.11,-328.69 135,-361.5 139.65,-364.9 144.81,-367.69 150.22,-369.97"/>
<polygon fill="#63b8ff" stroke="#63b8ff" points="59.08,-230.64 52.92,-222.01 52.35,-232.59 59.08,-230.64"/>
</a>
</g>
</g>
<!-- Node3 -->
<g id="Node000003" class="node">
<title>Node3</title>
<g id="a_Node000003"><a xlink:href="classDirektDSP_1_1DirektFooter.html" target="_top" xlink:title=" ">
<polygon fill="white" stroke="#666666" points="288,-352 155,-352 155,-333 288,-333 288,-352"/>
<text text-anchor="middle" x="221.5" y="-340" font-family="Helvetica,sans-Serif" font-size="10.00">DirektDSP::DirektFooter</text>
</a>
</g>
</g>
<!-- Node0&#45;&gt;Node3 -->
<g id="edge4_Node000000_Node000003" class="edge">
<title>Node0&#45;&gt;Node3</title>
<g id="a_edge4_Node000000_Node000003"><a xlink:title=" ">
<path fill="none" stroke="#63b8ff" d="M59.35,-231.46C72.25,-256.86 98.68,-301.43 135,-324.5 141.02,-328.32 147.71,-331.35 154.62,-333.74"/>
<polygon fill="#63b8ff" stroke="#63b8ff" points="62.34,-229.6 54.8,-222.15 56.05,-232.67 62.34,-229.6"/>
</a>
</g>
</g>
<!-- Node4 -->
<g id="Node000004" class="node">
<title>Node4</title>
<g id="a_Node000004"><a xlink:href="classDirektDSP_1_1DirektHeader.html" target="_top" xlink:title=" ">
<polygon fill="white" stroke="#666666" points="290,-315 153,-315 153,-296 290,-296 290,-315"/>
<text text-anchor="middle" x="221.5" y="-303" font-family="Helvetica,sans-Serif" font-size="10.00">DirektDSP::DirektHeader</text>
</a>
</g>
</g>
<!-- Node0&#45;&gt;Node4 -->
<g id="edge5_Node000000_Node000004" class="edge">
<title>Node0&#45;&gt;Node4</title>
<g id="a_edge5_Node000000_Node000004"><a xlink:title=" ">
<path fill="none" stroke="#63b8ff" d="M64.96,-229.77C80.46,-247.11 106.7,-273.24 135,-287.5 141.77,-290.91 149.16,-293.68 156.67,-295.92"/>
<polygon fill="#63b8ff" stroke="#63b8ff" points="67.45,-227.3 58.25,-222.05 62.17,-231.89 67.45,-227.3"/>
</a>
</g>
</g>
<!-- Node5 -->
<g id="Node000005" class="node">
<title>Node5</title>
<g id="a_Node000005"><a xlink:href="classDirektDSP_1_1DirektKnob.html" target="_top" xlink:title=" ">
<polygon fill="white" stroke="#666666" points="285,-278 158,-278 158,-259 285,-259 285,-278"/>
<text text-anchor="middle" x="221.5" y="-266" font-family="Helvetica,sans-Serif" font-size="10.00">DirektDSP::DirektKnob</text>
</a>
</g>
</g>
<!-- Node0&#45;&gt;Node5 -->
<g id="edge6_Node000000_Node000005" class="edge">
<title>Node0&#45;&gt;Node5</title>
<g id="a_edge6_Node000000_Node000005"><a xlink:title=" ">
<path fill="none" stroke="#63b8ff" d="M78.25,-226.8C94.45,-234.69 115.5,-244.14 135,-250.5 144.95,-253.74 155.75,-256.55 166.22,-258.91"/>
<polygon fill="#63b8ff" stroke="#63b8ff" points="79.35,-223.44 68.84,-222.13 76.24,-229.71 79.35,-223.44"/>
</a>
</g>
</g>
<!-- Node6 -->
<g id="Node000006" class="node">
<title>Node6</title>
<g id="a_Node000006"><a xlink:href="classDirektDSP_1_1DirektMacroControl.html" target="_top" xlink:title="One macro knob that drives multiple parameters.">
<polygon fill="white" stroke="#666666" points="305,-241 138,-241 138,-222 305,-222 305,-241"/>
<text text-anchor="middle" x="221.5" y="-229" font-family="Helvetica,sans-Serif" font-size="10.00">DirektDSP::DirektMacroControl</text>
</a>
</g>
</g>
<!-- Node0&#45;&gt;Node6 -->
<g id="edge7_Node000000_Node000006" class="edge">
<title>Node0&#45;&gt;Node6</title>
<g id="a_edge7_Node000000_Node000006"><a xlink:title=" ">
<path fill="none" stroke="#63b8ff" d="M109.36,-219.08C118.53,-220.1 128.16,-221.18 137.75,-222.25"/>
<polygon fill="#63b8ff" stroke="#63b8ff" points="109.54,-215.58 99.22,-217.94 108.76,-222.53 109.54,-215.58"/>
</a>
</g>
</g>
<!-- Node7 -->
<g id="Node000007" class="node">
<title>Node7</title>
<g id="a_Node000007"><a xlink:href="classDirektDSP_1_1DirektMeter.html" target="_top" xlink:title=" ">
<polygon fill="white" stroke="#666666" points="287,-19 156,-19 156,0 287,0 287,-19"/>
<text text-anchor="middle" x="221.5" y="-7" font-family="Helvetica,sans-Serif" font-size="10.00">DirektDSP::DirektMeter</text>
</a>
</g>
</g>
<!-- Node0&#45;&gt;Node7 -->
<g id="edge8_Node000000_Node000007" class="edge">
<title>Node0&#45;&gt;Node7</title>
<g id="a_edge8_Node000000_Node000007"><a xlink:title=" ">
<path fill="none" stroke="#63b8ff" d="M53.74,-192.32C60.99,-154.09 82.22,-71.14 135,-28.5 141.15,-23.53 148.33,-19.8 155.87,-17"/>
<polygon fill="#63b8ff" stroke="#63b8ff" points="50.21,-192.2 51.92,-202.65 57.1,-193.41 50.21,-192.2"/>
</a>
</g>
</g>
<!-- Node9 -->
<g id="Node000009" class="node">
<title>Node9</title>
<g id="a_Node000009"><a xlink:href="classDirektDSP_1_1DirektPopupPanel.html" target="_top" xlink:title=" ">
<polygon fill="white" stroke="#666666" points="300.5,-204 142.5,-204 142.5,-185 300.5,-185 300.5,-204"/>
<text text-anchor="middle" x="221.5" y="-192" font-family="Helvetica,sans-Serif" font-size="10.00">DirektDSP::DirektPopupPanel</text>
</a>
</g>
</g>
<!-- Node0&#45;&gt;Node9 -->
<g id="edge9_Node000000_Node000009" class="edge">
<title>Node0&#45;&gt;Node9</title>
<g id="a_edge9_Node000000_Node000009"><a xlink:title=" ">
<path fill="none" stroke="#63b8ff" d="M109.22,-206.28C119.87,-205.15 131.14,-203.96 142.25,-202.79"/>
<polygon fill="#63b8ff" stroke="#63b8ff" points="108.79,-202.81 99.22,-207.34 109.53,-209.77 108.79,-202.81"/>
</a>
</g>
</g>
<!-- Node10 -->
<g id="Node000010" class="node">
<title>Node10</title>
<g id="a_Node000010"><a xlink:href="classDirektDSP_1_1DirektPresetBrowser.html" target="_top" xlink:title=" ">
<polygon fill="white" stroke="#666666" points="308,-167 135,-167 135,-148 308,-148 308,-167"/>
<text text-anchor="middle" x="221.5" y="-155" font-family="Helvetica,sans-Serif" font-size="10.00">DirektDSP::DirektPresetBrowser</text>
</a>
</g>
</g>
<!-- Node0&#45;&gt;Node10 -->
<g id="edge10_Node000000_Node000010" class="edge">
<title>Node0&#45;&gt;Node10</title>
<g id="a_edge10_Node000000_Node000010"><a xlink:title=" ">
<path fill="none" stroke="#63b8ff" d="M79.63,-198.52C95.69,-191.21 116.14,-182.56 135,-176.5 146.29,-172.87 158.64,-169.69 170.35,-167.02"/>
<polygon fill="#63b8ff" stroke="#63b8ff" points="77.86,-195.48 70.25,-202.86 80.8,-201.83 77.86,-195.48"/>
</a>
</g>
</g>
<!-- Node11 -->
<g id="Node000011" class="node">
<title>Node11</title>
<g id="a_Node000011"><a xlink:href="classDirektDSP_1_1DirektSection.html" target="_top" xlink:title=" ">
<polygon fill="white" stroke="#666666" points="290.5,-130 152.5,-130 152.5,-111 290.5,-111 290.5,-130"/>
<text text-anchor="middle" x="221.5" y="-118" font-family="Helvetica,sans-Serif" font-size="10.00">DirektDSP::DirektSection</text>
</a>
</g>
</g>
<!-- Node0&#45;&gt;Node11 -->
<g id="edge11_Node000000_Node000011" class="edge">
<title>Node0&#45;&gt;Node11</title>
<g id="a_edge11_Node000000_Node000011"><a xlink:title=" ">
<path fill="none" stroke="#63b8ff" d="M65.34,-195.5C80.98,-178.68 107.16,-153.49 135,-139.5 142.74,-135.61 151.28,-132.51 159.87,-130.04"/>
<polygon fill="#63b8ff" stroke="#63b8ff" points="62.67,-193.23 58.55,-203 67.85,-197.93 62.67,-193.23"/>
</a>
</g>
</g>
<!-- Node12 -->
<g id="Node000012" class="node">
<title>Node12</title>
<g id="a_Node000012"><a xlink:href="classDirektDSP_1_1DirektTabPanel.html" target="_top" xlink:title=" ">
<polygon fill="white" stroke="#666666" points="294,-93 149,-93 149,-74 294,-74 294,-93"/>
<text text-anchor="middle" x="221.5" y="-81" font-family="Helvetica,sans-Serif" font-size="10.00">DirektDSP::DirektTabPanel</text>
</a>
</g>
</g>
<!-- Node0&#45;&gt;Node12 -->
<g id="edge12_Node000000_Node000012" class="edge">
<title>Node0&#45;&gt;Node12</title>
<g id="a_edge12_Node000000_Node000012"><a xlink:title=" ">
<path fill="none" stroke="#63b8ff" d="M59.67,-193.57C72.79,-168.62 99.3,-125.24 135,-102.5 141.03,-98.66 147.72,-95.59 154.64,-93.14"/>
<polygon fill="#63b8ff" stroke="#63b8ff" points="56.43,-192.22 55.03,-202.73 62.67,-195.39 56.43,-192.22"/>
</a>
</g>
</g>
<!-- Node13 -->
<g id="Node000013" class="node">
<title>Node13</title>
<g id="a_Node000013"><a xlink:href="classDirektDSP_1_1DirektToggle.html" target="_top" xlink:title=" ">
<polygon fill="white" stroke="#666666" points="288.5,-56 154.5,-56 154.5,-37 288.5,-37 288.5,-56"/>
<text text-anchor="middle" x="221.5" y="-44" font-family="Helvetica,sans-Serif" font-size="10.00">DirektDSP::DirektToggle</text>
</a>
</g>
</g>
<!-- Node0&#45;&gt;Node13 -->
<g id="edge13_Node000000_Node000013" class="edge">
<title>Node0&#45;&gt;Node13</title>
<g id="a_edge13_Node000000_Node000013"><a xlink:title=" ">
<path fill="none" stroke="#63b8ff" d="M56.09,-192.84C66.25,-160.88 90.87,-97.94 135,-65.5 140.76,-61.27 147.28,-57.95 154.1,-55.35"/>
<polygon fill="#63b8ff" stroke="#63b8ff" points="52.64,-192.17 53.09,-202.76 59.34,-194.2 52.64,-192.17"/>
</a>
</g>
</g>
<!-- Node8 -->
<g id="Node000008" class="node">
<title>Node8</title>
<g id="a_Node000008"><a xlink:title=" ">
<polygon fill="#e0e0e0" stroke="#999999" points="85,-19 14,-19 14,0 85,0 85,-19"/>
<text text-anchor="middle" x="49.5" y="-7" font-family="Helvetica,sans-Serif" font-size="10.00">juce::Timer</text>
</a>
</g>
</g>
<!-- Node8&#45;&gt;Node7 -->
<g id="edge14_Node000008_Node000007" class="edge">
<title>Node8&#45;&gt;Node7</title>
<g id="a_edge14_Node000008_Node000007"><a xlink:title=" ">
<path fill="none" stroke="#8b1a1a" d="M95.49,-9.5C113.97,-9.5 135.71,-9.5 155.83,-9.5"/>
<polygon fill="#8b1a1a" stroke="#8b1a1a" points="95.31,-6 85.31,-9.5 95.31,-13 95.31,-6"/>
</a>
</g>
</g>
</g>
</svg>
