<?xml version="1.0" encoding="UTF-8" standalone="no"?>
<!DOCTYPE svg PUBLIC "-//W3C//DTD SVG 1.1//EN"
 "http://www.w3.org/Graphics/SVG/1.1/DTD/svg11.dtd">
<!-- Generated by graphviz version 2.43.0 (0)
 -->
<!-- Title: Graphical Class Hierarchy Pages: 1 -->
<svg width="361pt" height="594pt"
 viewBox="0.00 0.00 361.00 593.50" xmlns="http://www.w3.org/2000/svg" xmlns:xlink="http://www.w3.org/1999/xlink">
<g id="graph0" class="graph" transform="scale(1 1) rotate(0) translate(4 589.5)">
<title>Graphical Class Hierarchy</title>
<!-- Node0 -->
<g id="Node000000" class="node">
<title>Node0</title>
<g id="a_Node000000"><a xlink:title=" ">
<polygon fill="#e0e0e0" stroke="#999999" points="121.5,-308.5 22.5,-308.5 22.5,-289.5 121.5,-289.5 121.5,-308.5"/>
<text text-anchor="middle" x="72" y="-296.5" font-family="Helvetica,sans-Serif" font-size="10.00">juce::Component</text>
</a>
</g>
</g>
<!-- Node1 -->
<g id="Node000001" class="node">
<title>Node1</title>
<g id="a_Node000001"><a xlink:href="classDirektDSP_1_1DirektABCompare.html" target="_top" xlink:title="A/B compare control that stores two APVTS snapshots and lets the user switch between them.">
<polygon fill="white" stroke="#666666" points="346.5,-289.5 186.5,-289.5 186.5,-270.5 346.5,-270.5 346.5,-289.5"/>
<text text-anchor="middle" x="266.5" y="-277.5" font-family="Helvetica,sans-Serif" font-size="10.00">DirektDSP::DirektABCompare</text>
</a>
</g>
</g>
<!-- Node0&#45;&gt;Node1 -->
<g id="edge2_Node000000_Node000001" class="edge">
<title>Node0&#45;&gt;Node1</title>
<g id="a_edge2_Node000000_Node000001"><a xlink:title=" ">
<path fill="none" stroke="#63b8ff" d="M131.97,-293.18C149.09,-291.49 168.08,-289.62 186.23,-287.82"/>
<polygon fill="#63b8ff" stroke="#63b8ff" points="131.18,-289.74 121.58,-294.21 131.87,-296.71 131.18,-289.74"/>
</a>
</g>
</g>
<!-- Node2 -->
<g id="Node000002" class="node">
<title>Node2</title>
<g id="a_Node000002"><a xlink:href="classDirektDSP_1_1DirektClipIndicator.html" target="_top" xlink:title="A small LED indicator that lights red when the signal has clipped (&gt;= 0 dBFS).">
<polygon fill="white" stroke="#666666" points="348.5,-585.5 184.5,-585.5 184.5,-566.5 348.5,-566.5 348.5,-585.5"/>
<text text-anchor="middle" x="266.5" y="-573.5" font-family="Helvetica,sans-Serif" font-size="10.00">DirektDSP::DirektClipIndicator</text>
</a>
</g>
</g>
<!-- Node0&#45;&gt;Node2 -->
<g id="edge3_Node000000_Node000002" class="edge">
<title>Node0&#45;&gt;Node2</title>
<g id="a_edge3_Node000000_Node000002"><a xlink:title=" ">
<path fill="none" stroke="#63b8ff" d="M74.99,-318.77C81.01,-367.6 103.61,-494.53 180,-558 183.97,-561.3 188.39,-564.03 193.07,-566.3"/>
<polygon fill="#63b8ff" stroke="#63b8ff" points="78.44,-318.15 73.84,-308.61 71.49,-318.94 78.44,-318.15"/>
</a>
</g>
</g>
<!-- Node6 -->
<g id="Node000006" class="node">
<title>Node6</title>
<g id="a_Node000006"><a xlink:href="classDirektDSP_1_1DirektComboBox.html" target="_top" xlink:title=" ">
<polygon fill="white" stroke="#666666" points="344,-252.5 189,-252.5 189,-233.5 344,-233.5 344,-252.5"/>
<text text-anchor="middle" x="266.5" y="-240.5" font-family="Helvetica,sans-Serif" font-size="10.00">DirektDSP::DirektComboBox</text>
</a>
</g>
</g>
<!-- Node0&#45;&gt;Node6 -->
<g id="edge4_Node000000_Node000006" class="edge">
<title>Node0&#45;&gt;Node6</title>
<g id="a_edge4_Node000000_Node000006"><a xlink:title=" ">
<path fill="none" stroke="#63b8ff" d="M106.32,-285.87C127.25,-277.95 154.94,-268.05 180,-261 191.1,-257.88 203.14,-255.02 214.59,-252.55"/>
<polygon fill="#63b8ff" stroke="#63b8ff" points="105.01,-282.62 96.93,-289.46 107.52,-289.16 105.01,-282.62"/>
</a>
</g>
</g>
<!-- Node7 -->
<g id="Node000007" class="node">
<title>Node7</title>
<g id="a_Node000007"><a xlink:href="classDirektDSP_1_1DirektFlexContainer.html" target="_top" xlink:title=" ">
<polygon fill="white" stroke="#666666" points="351.5,-215.5 181.5,-215.5 181.5,-196.5 351.5,-196.5 351.5,-215.5"/>
<text text-anchor="middle" x="266.5" y="-203.5" font-family="Helvetica,sans-Serif" font-size="10.00">DirektDSP::DirektFlexContainer</text>
</a>
</g>
</g>
<!-- Node0&#45;&gt;Node7 -->
<g id="edge5_Node000000_Node000007" class="edge">
<title>Node0&#45;&gt;Node7</title>
<g id="a_edge5_Node000000_Node000007"><a xlink:title=" ">
<path fill="none" stroke="#63b8ff" d="M91.44,-282.52C111.71,-265.3 145.95,-238.78 180,-224 187.79,-220.62 196.27,-217.85 204.75,-215.6"/>
<polygon fill="#63b8ff" stroke="#63b8ff" points="88.92,-280.08 83.65,-289.27 93.5,-285.37 88.92,-280.08"/>
</a>
</g>
</g>
<!-- Node8 -->
<g id="Node000008" class="node">
<title>Node8</title>
<g id="a_Node000008"><a xlink:href="classDirektDSP_1_1DirektFooter.html" target="_top" xlink:title=" ">
<polygon fill="white" stroke="#666666" points="333,-178.5 200,-178.5 200,-159.5 333,-159.5 333,-178.5"/>
<text text-anchor="middle" x="266.5" y="-166.5" font-family="Helvetica,sans-Serif" font-size="10.00">DirektDSP::DirektFooter</text>
</a>
</g>
</g>
<!-- Node0&#45;&gt;Node8 -->
<g id="edge6_Node000000_Node000008" class="edge">
<title>Node0&#45;&gt;Node8</title>
<g id="a_edge6_Node000000_Node000008"><a xlink:title=" ">
<path fill="none" stroke="#63b8ff" d="M84.8,-281.06C102.38,-255.85 137.94,-210.41 180,-187 186.1,-183.61 192.76,-180.85 199.6,-178.62"/>
<polygon fill="#63b8ff" stroke="#63b8ff" points="81.89,-279.12 79.15,-289.35 87.67,-283.05 81.89,-279.12"/>
</a>
</g>
</g>
<!-- Node9 -->
<g id="Node000009" class="node">
<title>Node9</title>
<g id="a_Node000009"><a xlink:href="classDirektDSP_1_1DirektHeader.html" target="_top" xlink:title=" ">
<polygon fill="white" stroke="#666666" points="335,-141.5 198,-141.5 198,-122.5 335,-122.5 335,-141.5"/>
<text text-anchor="middle" x="266.5" y="-129.5" font-family="Helvetica,sans-Serif" font-size="10.00">DirektDSP::DirektHeader</text>
</a>
</g>
</g>
<!-- Node0&#45;&gt;Node9 -->
<g id="edge7_Node000000_Node000009" class="edge">
<title>Node0&#45;&gt;Node9</title>
<g id="a_edge7_Node000000_Node000009"><a xlink:title=" ">
<path fill="none" stroke="#63b8ff" d="M80.88,-280.27C95.44,-248.14 129.69,-182.8 180,-150 185.46,-146.44 191.5,-143.56 197.77,-141.25"/>
<polygon fill="#63b8ff" stroke="#63b8ff" points="77.67,-278.89 76.86,-289.45 84.08,-281.7 77.67,-278.89"/>
</a>
</g>
</g>
<!-- Node10 -->
<g id="Node000010" class="node">
<title>Node10</title>
<g id="a_Node000010"><a xlink:href="classDirektDSP_1_1DirektKnob.html" target="_top" xlink:title=" ">
<polygon fill="white" stroke="#666666" points="330,-104.5 203,-104.5 203,-85.5 330,-85.5 330,-104.5"/>
<text text-anchor="middle" x="266.5" y="-92.5" font-family="Helvetica,sans-Serif" font-size="10.00">DirektDSP::DirektKnob</text>
</a>
</g>
</g>
<!-- Node0&#45;&gt;Node10 -->
<g id="edge8_Node000000_Node000010" class="edge">
<title>Node0&#45;&gt;Node10</title>
<g id="a_edge8_Node000000_Node000010"><a xlink:title=" ">
<path fill="none" stroke="#63b8ff" d="M78.36,-279.49C89.98,-241.06 121.29,-155.64 180,-113 186.75,-108.1 194.55,-104.47 202.63,-101.8"/>
<polygon fill="#63b8ff" stroke="#63b8ff" points="74.91,-278.83 75.49,-289.41 81.63,-280.77 74.91,-278.83"/>
</a>
</g>
</g>
<!-- Node11 -->
<g id="Node000011" class="node">
<title>Node11</title>
<g id="a_Node000011"><a xlink:href="classDirektDSP_1_1DirektMacroControl.html" target="_top" xlink:title="One macro knob that drives multiple parameters.">
<polygon fill="white" stroke="#666666" points="350,-67.5 183,-67.5 183,-48.5 350,-48.5 350,-67.5"/>
<text text-anchor="middle" x="266.5" y="-55.5" font-family="Helvetica,sans-Serif" font-size="10.00">DirektDSP::DirektMacroControl</text>
</a>
</g>
</g>
<!-- Node0&#45;&gt;Node11 -->
<g id="edge9_Node000000_Node000011" class="edge">
<title>Node0&#45;&gt;Node11</title>
<g id="a_edge9_Node000000_Node000011"><a xlink:title=" ">
<path fill="none" stroke="#63b8ff" d="M76.47,-279.02C85.24,-234.91 112.57,-128.93 180,-76 184.3,-72.63 189.07,-69.85 194.11,-67.56"/>
<polygon fill="#63b8ff" stroke="#63b8ff" points="72.99,-278.58 74.59,-289.06 79.87,-279.87 72.99,-278.58"/>
</a>
</g>
</g>
<!-- Node5 -->
<g id="Node000005" class="node">
<title>Node5</title>
<g id="a_Node000005"><a xlink:href="classDirektDSP_1_1DirektMeter.html" target="_top" xlink:title=" ">
<polygon fill="white" stroke="#666666" points="332,-548.5 201,-548.5 201,-529.5 332,-529.5 332,-548.5"/>
<text text-anchor="middle" x="266.5" y="-536.5" font-family="Helvetica,sans-Serif" font-size="10.00">DirektDSP::DirektMeter</text>
</a>
</g>
</g>
<!-- Node0&#45;&gt;Node5 -->
<g id="edge10_Node000000_Node000005" class="edge">
<title>Node0&#45;&gt;Node5</title>
<g id="a_edge10_Node000000_Node000005"><a xlink:title=" ">
<path fill="none" stroke="#63b8ff" d="M76.57,-318.75C85.54,-362.37 113.26,-467.2 180,-520 186.2,-524.91 193.41,-528.6 200.96,-531.38"/>
<polygon fill="#63b8ff" stroke="#63b8ff" points="79.99,-317.98 74.64,-308.83 73.12,-319.31 79.99,-317.98"/>
</a>
</g>
</g>
<!-- Node12 -->
<g id="Node000012" class="node">
<title>Node12</title>
<g id="a_Node000012"><a xlink:href="classDirektDSP_1_1DirektModuleBypassSoloStrip.html" target="_top" xlink:title="Compact bypass and solo toggles for a module section title bar.">
<polygon fill="white" stroke="#666666" points="353,-30 180,-30 180,0 353,0 353,-30"/>
<text text-anchor="start" x="188" y="-18" font-family="Helvetica,sans-Serif" font-size="10.00">DirektDSP::DirektModuleBypass</text>
<text text-anchor="middle" x="266.5" y="-7" font-family="Helvetica,sans-Serif" font-size="10.00">SoloStrip</text>
</a>
</g>
</g>
<!-- Node0&#45;&gt;Node12 -->
<g id="edge11_Node000000_Node000012" class="edge">
<title>Node0&#45;&gt;Node12</title>
<g id="a_edge11_Node000000_Node000012"><a xlink:title=" ">
<path fill="none" stroke="#63b8ff" d="M75.27,-279.13C81.91,-230.58 105.72,-105.08 180,-39 183.8,-35.62 188.04,-32.71 192.55,-30.21"/>
<polygon fill="#63b8ff" stroke="#63b8ff" points="71.78,-278.9 73.99,-289.26 78.72,-279.77 71.78,-278.9"/>
</a>
</g>
</g>
<!-- Node13 -->
<g id="Node000013" class="node">
<title>Node13</title>
<g id="a_Node000013"><a xlink:href="classDirektDSP_1_1DirektPopupPanel.html" target="_top" xlink:title=" ">
<polygon fill="white" stroke="#666666" points="345.5,-511.5 187.5,-511.5 187.5,-492.5 345.5,-492.5 345.5,-511.5"/>
<text text-anchor="middle" x="266.5" y="-499.5" font-family="Helvetica,sans-Serif" font-size="10.00">DirektDSP::DirektPopupPanel</text>
</a>
</g>
</g>
<!-- Node0&#45;&gt;Node13 -->
<g id="edge12_Node000000_Node000013" class="edge">
<title>Node0&#45;&gt;Node13</title>
<g id="a_edge12_Node000000_Node000013"><a xlink:title=" ">
<path fill="none" stroke="#63b8ff" d="M78.63,-318.78C90.57,-356.95 122.17,-440.72 180,-483 185.28,-486.86 191.2,-489.96 197.39,-492.44"/>
<polygon fill="#63b8ff" stroke="#63b8ff" points="81.89,-317.47 75.66,-308.9 75.19,-319.48 81.89,-317.47"/>
</a>
</g>
</g>
<!-- Node14 -->
<g id="Node000014" class="node">
<title>Node14</title>
<g id="a_Node000014"><a xlink:href="classDirektDSP_1_1DirektPresetBrowser.html" target="_top" xlink:title=" ">
<polygon fill="white" stroke="#666666" points="353,-474.5 180,-474.5 180,-455.5 353,-455.5 353,-474.5"/>
<text text-anchor="middle" x="266.5" y="-462.5" font-family="Helvetica,sans-Serif" font-size="10.00">DirektDSP::DirektPresetBrowser</text>
</a>
</g>
</g>
<!-- Node0&#45;&gt;Node14 -->
<g id="edge13_Node000000_Node000014" class="edge">
<title>Node0&#45;&gt;Node14</title>
<g id="a_edge13_Node000000_Node000014"><a xlink:title=" ">
<path fill="none" stroke="#63b8ff" d="M81.4,-318.29C96.34,-350.21 130.66,-413.67 180,-446 185.85,-449.83 192.36,-452.9 199.1,-455.36"/>
<polygon fill="#63b8ff" stroke="#63b8ff" points="84.4,-316.43 77.08,-308.77 78.02,-319.32 84.4,-316.43"/>
</a>
</g>
</g>
<!-- Node15 -->
<g id="Node000015" class="node">
<title>Node15</title>
<g id="a_Node000015"><a xlink:href="classDirektDSP_1_1DirektSection.html" target="_top" xlink:title=" ">
<polygon fill="white" stroke="#666666" points="335.5,-437.5 197.5,-437.5 197.5,-418.5 335.5,-418.5 335.5,-437.5"/>
<text text-anchor="middle" x="266.5" y="-425.5" font-family="Helvetica,sans-Serif" font-size="10.00">DirektDSP::DirektSection</text>
</a>
</g>
</g>
<!-- Node0&#45;&gt;Node15 -->
<g id="edge14_Node000000_Node000015" class="edge">
<title>Node0&#45;&gt;Node15</title>
<g id="a_edge14_Node000000_Node000015"><a xlink:title=" ">
<path fill="none" stroke="#63b8ff" d="M85.41,-317.25C103.3,-342.06 138.74,-385.98 180,-409 186.9,-412.85 194.53,-415.92 202.3,-418.37"/>
<polygon fill="#63b8ff" stroke="#63b8ff" points="88.06,-314.93 79.44,-308.76 82.33,-318.95 88.06,-314.93"/>
</a>
</g>
</g>
<!-- Node16 -->
<g id="Node000016" class="node">
<title>Node16</title>
<g id="a_Node000016"><a xlink:href="classDirektDSP_1_1DirektStereoMeter.html" target="_top" xlink:title="A stereo meter pair (L + R) laid out side&#45;by&#45;side (vertical) or stacked top&#45;to&#45;bottom (horizontal ori...">
<polygon fill="white" stroke="#666666" points="347.5,-400.5 185.5,-400.5 185.5,-381.5 347.5,-381.5 347.5,-400.5"/>
<text text-anchor="middle" x="266.5" y="-388.5" font-family="Helvetica,sans-Serif" font-size="10.00">DirektDSP::DirektStereoMeter</text>
</a>
</g>
</g>
<!-- Node0&#45;&gt;Node16 -->
<g id="edge15_Node000000_Node000016" class="edge">
<title>Node0&#45;&gt;Node16</title>
<g id="a_edge15_Node000000_Node000016"><a xlink:title=" ">
<path fill="none" stroke="#63b8ff" d="M91.88,-315.21C112.29,-331.9 146.42,-357.46 180,-372 188.93,-375.87 198.74,-378.99 208.43,-381.5"/>
<polygon fill="#63b8ff" stroke="#63b8ff" points="93.94,-312.37 84.02,-308.66 89.46,-317.75 93.94,-312.37"/>
</a>
</g>
</g>
<!-- Node17 -->
<g id="Node000017" class="node">
<title>Node17</title>
<g id="a_Node000017"><a xlink:href="classDirektDSP_1_1DirektTabPanel.html" target="_top" xlink:title=" ">
<polygon fill="white" stroke="#666666" points="339,-363.5 194,-363.5 194,-344.5 339,-344.5 339,-363.5"/>
<text text-anchor="middle" x="266.5" y="-351.5" font-family="Helvetica,sans-Serif" font-size="10.00">DirektDSP::DirektTabPanel</text>
</a>
</g>
</g>
<!-- Node0&#45;&gt;Node17 -->
<g id="edge16_Node000000_Node000017" class="edge">
<title>Node0&#45;&gt;Node17</title>
<g id="a_edge16_Node000000_Node000017"><a xlink:title=" ">
<path fill="none" stroke="#63b8ff" d="M108.35,-311.94C129.06,-319.26 155.82,-328.27 180,-335 192.3,-338.43 205.74,-341.65 218.24,-344.44"/>
<polygon fill="#63b8ff" stroke="#63b8ff" points="109.3,-308.57 98.71,-308.5 106.95,-315.16 109.3,-308.57"/>
</a>
</g>
</g>
<!-- Node18 -->
<g id="Node000018" class="node">
<title>Node18</title>
<g id="a_Node000018"><a xlink:href="classDirektDSP_1_1DirektToggle.html" target="_top" xlink:title=" ">
<polygon fill="white" stroke="#666666" points="333.5,-326.5 199.5,-326.5 199.5,-307.5 333.5,-307.5 333.5,-326.5"/>
<text text-anchor="middle" x="266.5" y="-314.5" font-family="Helvetica,sans-Serif" font-size="10.00">DirektDSP::DirektToggle</text>
</a>
</g>
</g>
<!-- Node0&#45;&gt;Node18 -->
<g id="edge17_Node000000_Node000018" class="edge">
<title>Node0&#45;&gt;Node18</title>
<g id="a_edge17_Node000000_Node000018"><a xlink:title=" ">
<path fill="none" stroke="#63b8ff" d="M131.82,-304.5C153.21,-306.5 177.52,-308.77 199.49,-310.83"/>
<polygon fill="#63b8ff" stroke="#63b8ff" points="131.86,-300.99 121.58,-303.54 131.21,-307.96 131.86,-300.99"/>
</a>
</g>
</g>
<!-- Node3 -->
<g id="Node000003" class="node">
<title>Node3</title>
<g id="a_Node000003"><a xlink:title=" ">
<polygon fill="#e0e0e0" stroke="#999999" points="144,-585.5 0,-585.5 0,-566.5 144,-566.5 144,-585.5"/>
<text text-anchor="middle" x="72" y="-573.5" font-family="Helvetica,sans-Serif" font-size="10.00">juce::SettableTooltipClient</text>
</a>
</g>
</g>
<!-- Node3&#45;&gt;Node2 -->
<g id="edge18_Node000003_Node000002" class="edge">
<title>Node3&#45;&gt;Node2</title>
<g id="a_edge18_Node000003_Node000002"><a xlink:title=" ">
<path fill="none" stroke="#63b8ff" d="M154.35,-576C164.25,-576 174.37,-576 184.27,-576"/>
<polygon fill="#63b8ff" stroke="#63b8ff" points="154.13,-572.5 144.13,-576 154.13,-579.5 154.13,-572.5"/>
</a>
</g>
</g>
<!-- Node4 -->
<g id="Node000004" class="node">
<title>Node4</title>
<g id="a_Node000004"><a xlink:title=" ">
<polygon fill="#e0e0e0" stroke="#999999" points="107.5,-548.5 36.5,-548.5 36.5,-529.5 107.5,-529.5 107.5,-548.5"/>
<text text-anchor="middle" x="72" y="-536.5" font-family="Helvetica,sans-Serif" font-size="10.00">juce::Timer</text>
</a>
</g>
</g>
<!-- Node4&#45;&gt;Node2 -->
<g id="edge19_Node000004_Node000002" class="edge">
<title>Node4&#45;&gt;Node2</title>
<g id="a_edge19_Node000004_Node000002"><a xlink:title=" ">
<path fill="none" stroke="#8b1a1a" d="M117.86,-547.62C147.28,-553.28 185.75,-560.67 216.05,-566.5"/>
<polygon fill="#8b1a1a" stroke="#8b1a1a" points="118.34,-544.15 107.86,-545.7 117.02,-551.03 118.34,-544.15"/>
</a>
</g>
</g>
<!-- Node4&#45;&gt;Node5 -->
<g id="edge20_Node000004_Node000005" class="edge">
<title>Node4&#45;&gt;Node5</title>
<g id="a_edge20_Node000004_Node000005"><a xlink:title=" ">
<path fill="none" stroke="#8b1a1a" d="M118.02,-539C142.69,-539 173.71,-539 200.93,-539"/>
<polygon fill="#8b1a1a" stroke="#8b1a1a" points="117.86,-535.5 107.86,-539 117.86,-542.5 117.86,-535.5"/>
</a>
</g>
</g>
</g>
</svg>
