<?xml version="1.0" encoding="UTF-8" standalone="no"?>
<!DOCTYPE svg PUBLIC "-//W3C//DTD SVG 1.1//EN"
 "http://www.w3.org/Graphics/SVG/1.1/DTD/svg11.dtd">
<!-- Generated by graphviz version 2.43.0 (0)
 -->
<!-- Title: Graphical Class Hierarchy Pages: 1 -->
<svg width="363pt" height="631pt"
 viewBox="0.00 0.00 363.00 631.00" xmlns="http://www.w3.org/2000/svg" xmlns:xlink="http://www.w3.org/1999/xlink">
<g id="graph0" class="graph" transform="scale(1 1) rotate(0) translate(4 627)">
<title>Graphical Class Hierarchy</title>
<!-- Node0 -->
<g id="Node000000" class="node">
<title>Node0</title>
<g id="a_Node000000"><a xlink:title=" ">
<polygon fill="#e0e0e0" stroke="#999999" points="146,-623 0,-623 0,-604 146,-604 146,-623"/>
<text text-anchor="middle" x="73" y="-611" font-family="Helvetica,sans-Serif" font-size="10.00">juce::AudioProcessorEditor</text>
</a>
</g>
</g>
<!-- Node1 -->
<g id="Node000001" class="node">
<title>Node1</title>
<g id="a_Node000001"><a xlink:href="classDirektDSP_1_1DirektBaseEditor.html" target="_top" xlink:title=" ">
<polygon fill="white" stroke="#666666" points="346,-623 191,-623 191,-604 346,-604 346,-623"/>
<text text-anchor="middle" x="268.5" y="-611" font-family="Helvetica,sans-Serif" font-size="10.00">DirektDSP::DirektBaseEditor</text>
</a>
</g>
</g>
<!-- Node0&#45;&gt;Node1 -->
<g id="edge1_Node000000_Node000001" class="edge">
<title>Node0&#45;&gt;Node1</title>
<g id="a_edge1_Node000000_Node000001"><a xlink:title=" ">
<path fill="none" stroke="#63b8ff" d="M156.09,-613.5C167.62,-613.5 179.43,-613.5 190.85,-613.5"/>
<polygon fill="#63b8ff" stroke="#63b8ff" points="156.05,-610 146.05,-613.5 156.05,-617 156.05,-610"/>
</a>
</g>
</g>
<!-- Node4 -->
<g id="Node000004" class="node">
<title>Node4</title>
<g id="a_Node000004"><a xlink:title=" ">
<polygon fill="#e0e0e0" stroke="#999999" points="122.5,-297 23.5,-297 23.5,-278 122.5,-278 122.5,-297"/>
<text text-anchor="middle" x="73" y="-285" font-family="Helvetica,sans-Serif" font-size="10.00">juce::Component</text>
</a>
</g>
</g>
<!-- Node5 -->
<g id="Node000005" class="node">
<title>Node5</title>
<g id="a_Node000005"><a xlink:href="classDirektDSP_1_1DirektABCompare.html" target="_top" xlink:title="A/B compare control that stores two APVTS snapshots and lets the user switch between them.">
<polygon fill="white" stroke="#666666" points="348.5,-167 188.5,-167 188.5,-148 348.5,-148 348.5,-167"/>
<text text-anchor="middle" x="268.5" y="-155" font-family="Helvetica,sans-Serif" font-size="10.00">DirektDSP::DirektABCompare</text>
</a>
</g>
</g>
<!-- Node4&#45;&gt;Node5 -->
<g id="edge2_Node000004_Node000005" class="edge">
<title>Node4&#45;&gt;Node5</title>
<g id="a_edge2_Node000004_Node000005"><a xlink:title=" ">
<path fill="none" stroke="#63b8ff" d="M85.95,-269.56C103.74,-244.35 139.69,-198.92 182,-175.5 188.1,-172.12 194.78,-169.37 201.61,-167.14"/>
<polygon fill="#63b8ff" stroke="#63b8ff" points="83.03,-267.63 80.24,-277.85 88.79,-271.6 83.03,-267.63"/>
</a>
</g>
</g>
<!-- Node3 -->
<g id="Node000003" class="node">
<title>Node3</title>
<g id="a_Node000003"><a xlink:href="classDirektDSP_1_1DirektClipIndicator.html" target="_top" xlink:title="A small LED indicator that lights red when the signal has clipped (&gt;= 0 dBFS).">
<polygon fill="white" stroke="#666666" points="350.5,-586 186.5,-586 186.5,-567 350.5,-567 350.5,-586"/>
<text text-anchor="middle" x="268.5" y="-574" font-family="Helvetica,sans-Serif" font-size="10.00">DirektDSP::DirektClipIndicator</text>
</a>
</g>
</g>
<!-- Node4&#45;&gt;Node3 -->
<g id="edge3_Node000004_Node000003" class="edge">
<title>Node4&#45;&gt;Node3</title>
<g id="a_edge3_Node000004_Node000003"><a xlink:title=" ">
<path fill="none" stroke="#63b8ff" d="M75.65,-307.16C80.99,-357.44 102.37,-491.49 182,-558.5 185.95,-561.82 190.35,-564.58 195.03,-566.86"/>
<polygon fill="#63b8ff" stroke="#63b8ff" points="79.12,-306.62 74.68,-297 72.15,-307.29 79.12,-306.62"/>
</a>
</g>
</g>
<!-- Node6 -->
<g id="Node000006" class="node">
<title>Node6</title>
<g id="a_Node000006"><a xlink:href="classDirektDSP_1_1DirektComboBox.html" target="_top" xlink:title=" ">
<polygon fill="white" stroke="#666666" points="346,-130 191,-130 191,-111 346,-111 346,-130"/>
<text text-anchor="middle" x="268.5" y="-118" font-family="Helvetica,sans-Serif" font-size="10.00">DirektDSP::DirektComboBox</text>
</a>
</g>
</g>
<!-- Node4&#45;&gt;Node6 -->
<g id="edge4_Node000004_Node000006" class="edge">
<title>Node4&#45;&gt;Node6</title>
<g id="a_edge4_Node000004_Node000006"><a xlink:title=" ">
<path fill="none" stroke="#63b8ff" d="M82.01,-268.77C96.77,-236.63 131.45,-171.29 182,-138.5 187.22,-135.11 192.96,-132.35 198.92,-130.1"/>
<polygon fill="#63b8ff" stroke="#63b8ff" points="78.79,-267.39 77.92,-277.95 85.18,-270.24 78.79,-267.39"/>
</a>
</g>
</g>
<!-- Node7 -->
<g id="Node000007" class="node">
<title>Node7</title>
<g id="a_Node000007"><a xlink:href="classDirektDSP_1_1DirektFlexContainer.html" target="_top" xlink:title=" ">
<polygon fill="white" stroke="#666666" points="353.5,-93 183.5,-93 183.5,-74 353.5,-74 353.5,-93"/>
<text text-anchor="middle" x="268.5" y="-81" font-family="Helvetica,sans-Serif" font-size="10.00">DirektDSP::DirektFlexContainer</text>
</a>
</g>
</g>
<!-- Node4&#45;&gt;Node7 -->
<g id="edge5_Node000004_Node000007" class="edge">
<title>Node4&#45;&gt;Node7</title>
<g id="a_edge5_Node000004_Node000007"><a xlink:title=" ">
<path fill="none" stroke="#63b8ff" d="M79.46,-267.98C91.29,-229.56 123.07,-144.12 182,-101.5 186.67,-98.12 191.84,-95.35 197.25,-93.08"/>
<polygon fill="#63b8ff" stroke="#63b8ff" points="76.01,-267.32 76.54,-277.9 82.73,-269.3 76.01,-267.32"/>
</a>
</g>
</g>
<!-- Node8 -->
<g id="Node000008" class="node">
<title>Node8</title>
<g id="a_Node000008"><a xlink:href="classDirektDSP_1_1DirektFooter.html" target="_top" xlink:title=" ">
<polygon fill="white" stroke="#666666" points="335,-56 202,-56 202,-37 335,-37 335,-56"/>
<text text-anchor="middle" x="268.5" y="-44" font-family="Helvetica,sans-Serif" font-size="10.00">DirektDSP::DirektFooter</text>
</a>
</g>
</g>
<!-- Node4&#45;&gt;Node8 -->
<g id="edge6_Node000004_Node000008" class="edge">
<title>Node4&#45;&gt;Node8</title>
<g id="a_edge6_Node000004_Node000008"><a xlink:title=" ">
<path fill="none" stroke="#63b8ff" d="M77.56,-267.51C86.54,-223.39 114.35,-117.4 182,-64.5 187.86,-59.92 194.6,-56.44 201.68,-53.79"/>
<polygon fill="#63b8ff" stroke="#63b8ff" points="74.09,-267.07 75.64,-277.55 80.96,-268.39 74.09,-267.07"/>
</a>
</g>
</g>
<!-- Node9 -->
<g id="Node000009" class="node">
<title>Node9</title>
<g id="a_Node000009"><a xlink:href="classDirektDSP_1_1DirektHeader.html" target="_top" xlink:title=" ">
<polygon fill="white" stroke="#666666" points="337,-19 200,-19 200,0 337,0 337,-19"/>
<text text-anchor="middle" x="268.5" y="-7" font-family="Helvetica,sans-Serif" font-size="10.00">DirektDSP::DirektHeader</text>
</a>
</g>
</g>
<!-- Node4&#45;&gt;Node9 -->
<g id="edge7_Node000004_Node000009" class="edge">
<title>Node4&#45;&gt;Node9</title>
<g id="a_edge7_Node000004_Node000009"><a xlink:title=" ">
<path fill="none" stroke="#63b8ff" d="M76.04,-267.65C82.21,-218.63 105.19,-91.19 182,-27.5 187.25,-23.14 193.3,-19.76 199.71,-17.15"/>
<polygon fill="#63b8ff" stroke="#63b8ff" points="72.54,-267.52 74.87,-277.86 79.49,-268.32 72.54,-267.52"/>
</a>
</g>
</g>
<!-- Node10 -->
<g id="Node000010" class="node">
<title>Node10</title>
<g id="a_Node000010"><a xlink:href="classDirektDSP_1_1DirektKnob.html" target="_top" xlink:title=" ">
<polygon fill="white" stroke="#666666" points="332,-512 205,-512 205,-493 332,-493 332,-512"/>
<text text-anchor="middle" x="268.5" y="-500" font-family="Helvetica,sans-Serif" font-size="10.00">DirektDSP::DirektKnob</text>
</a>
</g>
</g>
<!-- Node4&#45;&gt;Node10 -->
<g id="edge8_Node000004_Node000010" class="edge">
<title>Node4&#45;&gt;Node10</title>
<g id="a_edge8_Node000004_Node000010"><a xlink:title=" ">
<path fill="none" stroke="#63b8ff" d="M78.88,-306.91C89.96,-346.72 120.89,-437.72 182,-483.5 188.82,-488.61 196.74,-492.39 204.96,-495.18"/>
<polygon fill="#63b8ff" stroke="#63b8ff" points="82.23,-305.88 76.28,-297.12 75.47,-307.68 82.23,-305.88"/>
</a>
</g>
</g>
<!-- Node11 -->
<g id="Node000011" class="node">
<title>Node11</title>
<g id="a_Node000011"><a xlink:href="classDirektDSP_1_1DirektMacroControl.html" target="_top" xlink:title="One macro knob that drives multiple parameters.">
<polygon fill="white" stroke="#666666" points="352,-475 185,-475 185,-456 352,-456 352,-475"/>
<text text-anchor="middle" x="268.5" y="-463" font-family="Helvetica,sans-Serif" font-size="10.00">DirektDSP::DirektMacroControl</text>
</a>
</g>
</g>
<!-- Node4&#45;&gt;Node11 -->
<g id="edge9_Node000004_Node000011" class="edge">
<title>Node4&#45;&gt;Node11</title>
<g id="a_edge9_Node000004_Node000011"><a xlink:title=" ">
<path fill="none" stroke="#63b8ff" d="M81.49,-306.93C95.64,-340.93 129.68,-410.98 182,-446.5 187.66,-450.34 193.97,-453.42 200.53,-455.89"/>
<polygon fill="#63b8ff" stroke="#63b8ff" points="84.57,-305.22 77.59,-297.24 78.08,-307.83 84.57,-305.22"/>
</a>
</g>
</g>
<!-- Node12 -->
<g id="Node000012" class="node">
<title>Node12</title>
<g id="a_Node000012"><a xlink:href="classDirektDSP_1_1DirektMeter.html" target="_top" xlink:title=" ">
<polygon fill="white" stroke="#666666" points="334,-549 203,-549 203,-530 334,-530 334,-549"/>
<text text-anchor="middle" x="268.5" y="-537" font-family="Helvetica,sans-Serif" font-size="10.00">DirektDSP::DirektMeter</text>
</a>
</g>
</g>
<!-- Node4&#45;&gt;Node12 -->
<g id="edge10_Node000004_Node000012" class="edge">
<title>Node4&#45;&gt;Node12</title>
<g id="a_edge10_Node000004_Node000012"><a xlink:title=" ">
<path fill="none" stroke="#63b8ff" d="M77.08,-307.52C85.21,-353.19 111.68,-465.45 182,-521.5 188.17,-526.42 195.36,-530.08 202.9,-532.79"/>
<polygon fill="#63b8ff" stroke="#63b8ff" points="80.49,-306.7 75.39,-297.42 73.59,-307.86 80.49,-306.7"/>
</a>
</g>
</g>
<!-- Node13 -->
<g id="Node000013" class="node">
<title>Node13</title>
<g id="a_Node000013"><a xlink:href="classDirektDSP_1_1DirektModuleBypassSoloStrip.html" target="_top" xlink:title="Compact bypass and solo toggles for a module section title bar.">
<polygon fill="white" stroke="#666666" points="355,-437.5 182,-437.5 182,-407.5 355,-407.5 355,-437.5"/>
<text text-anchor="start" x="190" y="-425.5" font-family="Helvetica,sans-Serif" font-size="10.00">DirektDSP::DirektModuleBypass</text>
<text text-anchor="middle" x="268.5" y="-414.5" font-family="Helvetica,sans-Serif" font-size="10.00">SoloStrip</text>
</a>
</g>
</g>
<!-- Node4&#45;&gt;Node13 -->
<g id="edge11_Node000004_Node000013" class="edge">
<title>Node4&#45;&gt;Node13</title>
<g id="a_edge11_Node000004_Node000013"><a xlink:title=" ">
<path fill="none" stroke="#63b8ff" d="M86.79,-305.37C105.15,-329.73 141.28,-373.12 182,-397.5 188.37,-401.31 195.36,-404.58 202.5,-407.36"/>
<polygon fill="#63b8ff" stroke="#63b8ff" points="89.4,-303.01 80.65,-297.04 83.77,-307.17 89.4,-303.01"/>
</a>
</g>
</g>
<!-- Node14 -->
<g id="Node000014" class="node">
<title>Node14</title>
<g id="a_Node000014"><a xlink:href="classDirektDSP_1_1DirektPopupPanel.html" target="_top" xlink:title=" ">
<polygon fill="white" stroke="#666666" points="347.5,-389 189.5,-389 189.5,-370 347.5,-370 347.5,-389"/>
<text text-anchor="middle" x="268.5" y="-377" font-family="Helvetica,sans-Serif" font-size="10.00">DirektDSP::DirektPopupPanel</text>
</a>
</g>
</g>
<!-- Node4&#45;&gt;Node14 -->
<g id="edge12_Node000004_Node000014" class="edge">
<title>Node4&#45;&gt;Node14</title>
<g id="a_edge12_Node000004_Node000014"><a xlink:title=" ">
<path fill="none" stroke="#63b8ff" d="M93.08,-303.7C113.7,-320.39 148.17,-345.94 182,-360.5 190.94,-364.35 200.75,-367.46 210.44,-369.96"/>
<polygon fill="#63b8ff" stroke="#63b8ff" points="95.08,-300.81 85.14,-297.16 90.63,-306.22 95.08,-300.81"/>
</a>
</g>
</g>
<!-- Node15 -->
<g id="Node000015" class="node">
<title>Node15</title>
<g id="a_Node000015"><a xlink:href="classDirektDSP_1_1DirektPresetBrowser.html" target="_top" xlink:title=" ">
<polygon fill="white" stroke="#666666" points="355,-352 182,-352 182,-333 355,-333 355,-352"/>
<text text-anchor="middle" x="268.5" y="-340" font-family="Helvetica,sans-Serif" font-size="10.00">DirektDSP::DirektPresetBrowser</text>
</a>
</g>
</g>
<!-- Node4&#45;&gt;Node15 -->
<g id="edge13_Node000004_Node000015" class="edge">
<title>Node4&#45;&gt;Node15</title>
<g id="a_edge13_Node000004_Node000015"><a xlink:title=" ">
<path fill="none" stroke="#63b8ff" d="M109.83,-300.48C130.72,-307.78 157.66,-316.76 182,-323.5 194.31,-326.91 207.75,-330.13 220.25,-332.91"/>
<polygon fill="#63b8ff" stroke="#63b8ff" points="110.99,-297.17 100.4,-297.15 108.66,-303.77 110.99,-297.17"/>
</a>
</g>
</g>
<!-- Node16 -->
<g id="Node000016" class="node">
<title>Node16</title>
<g id="a_Node000016"><a xlink:href="classDirektDSP_1_1DirektSection.html" target="_top" xlink:title=" ">
<polygon fill="white" stroke="#666666" points="337.5,-315 199.5,-315 199.5,-296 337.5,-296 337.5,-315"/>
<text text-anchor="middle" x="268.5" y="-303" font-family="Helvetica,sans-Serif" font-size="10.00">DirektDSP::DirektSection</text>
</a>
</g>
</g>
<!-- Node4&#45;&gt;Node16 -->
<g id="edge14_Node000004_Node000016" class="edge">
<title>Node4&#45;&gt;Node16</title>
<g id="a_edge14_Node000004_Node000016"><a xlink:title=" ">
<path fill="none" stroke="#63b8ff" d="M132.87,-292.98C153.85,-294.93 177.64,-297.14 199.32,-299.16"/>
<polygon fill="#63b8ff" stroke="#63b8ff" points="133.11,-289.48 122.83,-292.04 132.46,-296.45 133.11,-289.48"/>
</a>
</g>
</g>
<!-- Node17 -->
<g id="Node000017" class="node">
<title>Node17</title>
<g id="a_Node000017"><a xlink:href="classDirektDSP_1_1DirektStereoMeter.html" target="_top" xlink:title="A stereo meter pair (L + R) laid out side&#45;by&#45;side (vertical) or stacked top&#45;to&#45;bottom (horizontal ori...">
<polygon fill="white" stroke="#666666" points="349.5,-278 187.5,-278 187.5,-259 349.5,-259 349.5,-278"/>
<text text-anchor="middle" x="268.5" y="-266" font-family="Helvetica,sans-Serif" font-size="10.00">DirektDSP::DirektStereoMeter</text>
</a>
</g>
</g>
<!-- Node4&#45;&gt;Node17 -->
<g id="edge15_Node000004_Node000017" class="edge">
<title>Node4&#45;&gt;Node17</title>
<g id="a_edge15_Node000004_Node000017"><a xlink:title=" ">
<path fill="none" stroke="#63b8ff" d="M133.22,-281.69C150.33,-280.01 169.29,-278.14 187.44,-276.36"/>
<polygon fill="#63b8ff" stroke="#63b8ff" points="132.44,-278.24 122.83,-282.71 133.12,-285.21 132.44,-278.24"/>
</a>
</g>
</g>
<!-- Node18 -->
<g id="Node000018" class="node">
<title>Node18</title>
<g id="a_Node000018"><a xlink:href="classDirektDSP_1_1DirektTabPanel.html" target="_top" xlink:title=" ">
<polygon fill="white" stroke="#666666" points="341,-241 196,-241 196,-222 341,-222 341,-241"/>
<text text-anchor="middle" x="268.5" y="-229" font-family="Helvetica,sans-Serif" font-size="10.00">DirektDSP::DirektTabPanel</text>
</a>
</g>
</g>
<!-- Node4&#45;&gt;Node18 -->
<g id="edge16_Node000004_Node000018" class="edge">
<title>Node4&#45;&gt;Node18</title>
<g id="a_edge16_Node000004_Node000018"><a xlink:title=" ">
<path fill="none" stroke="#63b8ff" d="M107.65,-274.38C128.77,-266.47 156.72,-256.58 182,-249.5 193.1,-246.39 205.15,-243.54 216.6,-241.07"/>
<polygon fill="#63b8ff" stroke="#63b8ff" points="106.27,-271.16 98.16,-277.98 108.75,-277.71 106.27,-271.16"/>
</a>
</g>
</g>
<!-- Node19 -->
<g id="Node000019" class="node">
<title>Node19</title>
<g id="a_Node000019"><a xlink:href="classDirektDSP_1_1DirektToggle.html" target="_top" xlink:title=" ">
<polygon fill="white" stroke="#666666" points="335.5,-204 201.5,-204 201.5,-185 335.5,-185 335.5,-204"/>
<text text-anchor="middle" x="268.5" y="-192" font-family="Helvetica,sans-Serif" font-size="10.00">DirektDSP::DirektToggle</text>
</a>
</g>
</g>
<!-- Node4&#45;&gt;Node19 -->
<g id="edge17_Node000004_Node000019" class="edge">
<title>Node4&#45;&gt;Node19</title>
<g id="a_edge17_Node000004_Node000019"><a xlink:title=" ">
<path fill="none" stroke="#63b8ff" d="M92.37,-271.26C112.82,-254.05 147.55,-227.36 182,-212.5 189.94,-209.08 198.58,-206.28 207.22,-204.01"/>
<polygon fill="#63b8ff" stroke="#63b8ff" points="90.08,-268.61 84.77,-277.78 94.64,-273.93 90.08,-268.61"/>
</a>
</g>
</g>
<!-- Node20 -->
<g id="Node000020" class="node">
<title>Node20</title>
<g id="a_Node000020"><a xlink:title=" ">
<polygon fill="#e0e0e0" stroke="#999999" points="145,-586 1,-586 1,-567 145,-567 145,-586"/>
<text text-anchor="middle" x="73" y="-574" font-family="Helvetica,sans-Serif" font-size="10.00">juce::SettableTooltipClient</text>
</a>
</g>
</g>
<!-- Node20&#45;&gt;Node3 -->
<g id="edge18_Node000020_Node000003" class="edge">
<title>Node20&#45;&gt;Node3</title>
<g id="a_edge18_Node000020_Node000003"><a xlink:title=" ">
<path fill="none" stroke="#63b8ff" d="M155.36,-576.5C165.59,-576.5 176.06,-576.5 186.29,-576.5"/>
<polygon fill="#63b8ff" stroke="#63b8ff" points="155.23,-573 145.23,-576.5 155.23,-580 155.23,-573"/>
</a>
</g>
</g>
<!-- Node2 -->
<g id="Node000002" class="node">
<title>Node2</title>
<g id="a_Node000002"><a xlink:title=" ">
<polygon fill="#e0e0e0" stroke="#999999" points="108.5,-549 37.5,-549 37.5,-530 108.5,-530 108.5,-549"/>
<text text-anchor="middle" x="73" y="-537" font-family="Helvetica,sans-Serif" font-size="10.00">juce::Timer</text>
</a>
</g>
</g>
<!-- Node2&#45;&gt;Node1 -->
<g id="edge19_Node000002_Node000001" class="edge">
<title>Node2&#45;&gt;Node1</title>
<g id="a_edge19_Node000002_Node000001"><a xlink:title=" ">
<path fill="none" stroke="#8b1a1a" d="M118.54,-547.23C127.99,-549.96 137.63,-553.61 146,-558.5 165.81,-570.07 161.9,-584.43 182,-595.5 188.25,-598.94 195.08,-601.72 202.08,-603.97"/>
<polygon fill="#8b1a1a" stroke="#8b1a1a" points="119.38,-543.84 108.82,-544.72 117.63,-550.61 119.38,-543.84"/>
</a>
</g>
</g>
<!-- Node2&#45;&gt;Node3 -->
<g id="edge20_Node000002_Node000003" class="edge">
<title>Node2&#45;&gt;Node3</title>
<g id="a_edge20_Node000002_Node000003"><a xlink:title=" ">
<path fill="none" stroke="#8b1a1a" d="M118.63,-548.03C148.19,-553.69 186.99,-561.11 217.57,-566.95"/>
<polygon fill="#8b1a1a" stroke="#8b1a1a" points="119.07,-544.56 108.59,-546.11 117.76,-551.43 119.07,-544.56"/>
</a>
</g>
</g>
<!-- Node2&#45;&gt;Node12 -->
<g id="edge21_Node000002_Node000012" class="edge">
<title>Node2&#45;&gt;Node12</title>
<g id="a_edge21_Node000002_Node000012"><a xlink:title=" ">
<path fill="none" stroke="#8b1a1a" d="M118.84,-539.5C143.74,-539.5 175.16,-539.5 202.7,-539.5"/>
<polygon fill="#8b1a1a" stroke="#8b1a1a" points="118.59,-536 108.59,-539.5 118.59,-543 118.59,-536"/>
</a>
</g>
</g>
</g>
</svg>
