<?xml version="1.0" encoding="UTF-8" standalone="no"?>
<!DOCTYPE svg PUBLIC "-//W3C//DTD SVG 1.1//EN"
 "http://www.w3.org/Graphics/SVG/1.1/DTD/svg11.dtd">
<!-- Generated by graphviz version 2.43.0 (0)
 -->
<!-- Title: Graphical Class Hierarchy Pages: 1 -->
<svg width="316pt" height="397pt"
 viewBox="0.00 0.00 316.00 397.00" xmlns="http://www.w3.org/2000/svg" xmlns:xlink="http://www.w3.org/1999/xlink">
<g id="graph0" class="graph" transform="scale(1 1) rotate(0) translate(4 393)">
<title>Graphical Class Hierarchy</title>
<!-- Node0 -->
<g id="Node000000" class="node">
<title>Node0</title>
<g id="a_Node000000"><a xlink:title=" ">
<polygon fill="#e0e0e0" stroke="#999999" points="99,-204 0,-204 0,-185 99,-185 99,-204"/>
<text text-anchor="middle" x="49.5" y="-192" font-family="Helvetica,sans-Serif" font-size="10.00">juce::Component</text>
</a>
</g>
</g>
<!-- Node1 -->
<g id="Node000001" class="node">
<title>Node1</title>
<g id="a_Node000001"><a xlink:href="classDirektDSP_1_1DirektComboBox.html" target="_top" xlink:title=" ">
<polygon fill="white" stroke="#666666" points="299,-389 144,-389 144,-370 299,-370 299,-389"/>
<text text-anchor="middle" x="221.5" y="-377" font-family="Helvetica,sans-Serif" font-size="10.00">DirektDSP::DirektComboBox</text>
</a>
</g>
</g>
<!-- Node0&#45;&gt;Node1 -->
<g id="edge2_Node000000_Node000001" class="edge">
<title>Node0&#45;&gt;Node1</title>
<g id="a_edge2_Node000000_Node000001"><a xlink:title=" ">
<path fill="none" stroke="#63b8ff" d="M54.64,-214.36C63.11,-249.81 85.94,-323.82 135,-361.5 139.33,-364.83 144.13,-367.57 149.19,-369.84"/>
<polygon fill="#63b8ff" stroke="#63b8ff" points="57.98,-213.28 52.37,-204.3 51.15,-214.82 57.98,-213.28"/>
</a>
</g>
</g>
<!-- Node2 -->
<g id="Node000002" class="node">
<title>Node2</title>
<g id="a_Node000002"><a xlink:href="classDirektDSP_1_1DirektFlexContainer.html" target="_top" xlink:title=" ">
<polygon fill="white" stroke="#666666" points="306.5,-352 136.5,-352 136.5,-333 306.5,-333 306.5,-352"/>
<text text-anchor="middle" x="221.5" y="-340" font-family="Helvetica,sans-Serif" font-size="10.00">DirektDSP::DirektFlexContainer</text>
</a>
</g>
</g>
<!-- Node0&#45;&gt;Node2 -->
<g id="edge3_Node000000_Node000002" class="edge">
<title>Node0&#45;&gt;Node2</title>
<g id="a_edge3_Node000000_Node000002"><a xlink:title=" ">
<path fill="none" stroke="#63b8ff" d="M57.36,-213.59C68.77,-242.44 94.46,-296.71 135,-324.5 139.88,-327.85 145.26,-330.59 150.87,-332.84"/>
<polygon fill="#63b8ff" stroke="#63b8ff" points="60.62,-212.32 53.81,-204.21 54.08,-214.8 60.62,-212.32"/>
</a>
</g>
</g>
<!-- Node3 -->
<g id="Node000003" class="node">
<title>Node3</title>
<g id="a_Node000003"><a xlink:href="classDirektDSP_1_1DirektFooter.html" target="_top" xlink:title=" ">
<polygon fill="white" stroke="#666666" points="288,-315 155,-315 155,-296 288,-296 288,-315"/>
<text text-anchor="middle" x="221.5" y="-303" font-family="Helvetica,sans-Serif" font-size="10.00">DirektDSP::DirektFooter</text>
</a>
</g>
</g>
<!-- Node0&#45;&gt;Node3 -->
<g id="edge4_Node000000_Node000003" class="edge">
<title>Node0&#45;&gt;Node3</title>
<g id="a_edge4_Node000000_Node000003"><a xlink:title=" ">
<path fill="none" stroke="#63b8ff" d="M61.84,-212.74C76.16,-234.16 102.85,-269.08 135,-287.5 141.19,-291.04 147.98,-293.89 154.96,-296.19"/>
<polygon fill="#63b8ff" stroke="#63b8ff" points="64.7,-210.71 56.32,-204.22 58.82,-214.52 64.7,-210.71"/>
</a>
</g>
</g>
<!-- Node4 -->
<g id="Node000004" class="node">
<title>Node4</title>
<g id="a_Node000004"><a xlink:href="classDirektDSP_1_1DirektHeader.html" target="_top" xlink:title=" ">
<polygon fill="white" stroke="#666666" points="290,-278 153,-278 153,-259 290,-259 290,-278"/>
<text text-anchor="middle" x="221.5" y="-266" font-family="Helvetica,sans-Serif" font-size="10.00">DirektDSP::DirektHeader</text>
</a>
</g>
</g>
<!-- Node0&#45;&gt;Node4 -->
<g id="edge5_Node000000_Node000004" class="edge">
<title>Node0&#45;&gt;Node4</title>
<g id="a_edge5_Node000000_Node000004"><a xlink:title=" ">
<path fill="none" stroke="#63b8ff" d="M70.21,-210.71C86.6,-223.38 111.03,-240.47 135,-250.5 143.12,-253.9 151.94,-256.68 160.74,-258.95"/>
<polygon fill="#63b8ff" stroke="#63b8ff" points="72,-207.66 61.99,-204.2 67.66,-213.15 72,-207.66"/>
</a>
</g>
</g>
<!-- Node5 -->
<g id="Node000005" class="node">
<title>Node5</title>
<g id="a_Node000005"><a xlink:href="classDirektDSP_1_1DirektKnob.html" target="_top" xlink:title=" ">
<polygon fill="white" stroke="#666666" points="285,-241 158,-241 158,-222 285,-222 285,-241"/>
<text text-anchor="middle" x="221.5" y="-229" font-family="Helvetica,sans-Serif" font-size="10.00">DirektDSP::DirektKnob</text>
</a>
</g>
</g>
<!-- Node0&#45;&gt;Node5 -->
<g id="edge6_Node000000_Node000005" class="edge">
<title>Node0&#45;&gt;Node5</title>
<g id="a_edge6_Node000000_Node000005"><a xlink:title=" ">
<path fill="none" stroke="#63b8ff" d="M102.66,-206.35C113.35,-208.74 124.53,-211.22 135,-213.5 147.9,-216.31 161.9,-219.29 174.77,-221.99"/>
<polygon fill="#63b8ff" stroke="#63b8ff" points="103.12,-202.86 92.6,-204.08 101.59,-209.69 103.12,-202.86"/>
</a>
</g>
</g>
<!-- Node6 -->
<g id="Node000006" class="node">
<title>Node6</title>
<g id="a_Node000006"><a xlink:href="classDirektDSP_1_1DirektMeter.html" target="_top" xlink:title=" ">
<polygon fill="white" stroke="#666666" points="287,-19 156,-19 156,0 287,0 287,-19"/>
<text text-anchor="middle" x="221.5" y="-7" font-family="Helvetica,sans-Serif" font-size="10.00">DirektDSP::DirektMeter</text>
</a>
</g>
</g>
<!-- Node0&#45;&gt;Node6 -->
<g id="edge7_Node000000_Node000006" class="edge">
<title>Node0&#45;&gt;Node6</title>
<g id="a_edge7_Node000000_Node000006"><a xlink:title=" ">
<path fill="none" stroke="#63b8ff" d="M54.72,-174.81C63.32,-139.65 86.33,-66.22 135,-28.5 141.13,-23.75 148.21,-20.14 155.62,-17.4"/>
<polygon fill="#63b8ff" stroke="#63b8ff" points="51.25,-174.26 52.42,-184.79 58.07,-175.83 51.25,-174.26"/>
</a>
</g>
</g>
<!-- Node8 -->
<g id="Node000008" class="node">
<title>Node8</title>
<g id="a_Node000008"><a xlink:href="classDirektDSP_1_1DirektPopupPanel.html" target="_top" xlink:title=" ">
<polygon fill="white" stroke="#666666" points="300.5,-204 142.5,-204 142.5,-185 300.5,-185 300.5,-204"/>
<text text-anchor="middle" x="221.5" y="-192" font-family="Helvetica,sans-Serif" font-size="10.00">DirektDSP::DirektPopupPanel</text>
</a>
</g>
</g>
<!-- Node0&#45;&gt;Node8 -->
<g id="edge8_Node000000_Node000008" class="edge">
<title>Node0&#45;&gt;Node8</title>
<g id="a_edge8_Node000000_Node000008"><a xlink:title=" ">
<path fill="none" stroke="#63b8ff" d="M109.22,-194.5C119.87,-194.5 131.14,-194.5 142.25,-194.5"/>
<polygon fill="#63b8ff" stroke="#63b8ff" points="109.22,-191 99.22,-194.5 109.22,-198 109.22,-191"/>
</a>
</g>
</g>
<!-- Node9 -->
<g id="Node000009" class="node">
<title>Node9</title>
<g id="a_Node000009"><a xlink:href="classDirektDSP_1_1DirektPresetBrowser.html" target="_top" xlink:title=" ">
<polygon fill="white" stroke="#666666" points="308,-167 135,-167 135,-148 308,-148 308,-167"/>
<text text-anchor="middle" x="221.5" y="-155" font-family="Helvetica,sans-Serif" font-size="10.00">DirektDSP::DirektPresetBrowser</text>
</a>
</g>
</g>
<!-- Node0&#45;&gt;Node9 -->
<g id="edge9_Node000000_Node000009" class="edge">
<title>Node0&#45;&gt;Node9</title>
<g id="a_edge9_Node000000_Node000009"><a xlink:title=" ">
<path fill="none" stroke="#63b8ff" d="M104.35,-182.78C127.63,-177.71 154.53,-171.86 176.57,-167.06"/>
<polygon fill="#63b8ff" stroke="#63b8ff" points="103.31,-179.42 94.28,-184.97 104.79,-186.26 103.31,-179.42"/>
</a>
</g>
</g>
<!-- Node10 -->
<g id="Node000010" class="node">
<title>Node10</title>
<g id="a_Node000010"><a xlink:href="classDirektDSP_1_1DirektSection.html" target="_top" xlink:title=" ">
<polygon fill="white" stroke="#666666" points="290.5,-130 152.5,-130 152.5,-111 290.5,-111 290.5,-130"/>
<text text-anchor="middle" x="221.5" y="-118" font-family="Helvetica,sans-Serif" font-size="10.00">DirektDSP::DirektSection</text>
</a>
</g>
</g>
<!-- Node0&#45;&gt;Node10 -->
<g id="edge10_Node000000_Node000010" class="edge">
<title>Node0&#45;&gt;Node10</title>
<g id="a_edge10_Node000000_Node000010"><a xlink:title=" ">
<path fill="none" stroke="#63b8ff" d="M70.57,-178.45C87,-166.08 111.31,-149.46 135,-139.5 144.11,-135.67 154.11,-132.56 163.95,-130.05"/>
<polygon fill="#63b8ff" stroke="#63b8ff" points="68.1,-175.94 62.31,-184.82 72.37,-181.49 68.1,-175.94"/>
</a>
</g>
</g>
<!-- Node11 -->
<g id="Node000011" class="node">
<title>Node11</title>
<g id="a_Node000011"><a xlink:href="classDirektDSP_1_1DirektTabPanel.html" target="_top" xlink:title=" ">
<polygon fill="white" stroke="#666666" points="294,-93 149,-93 149,-74 294,-74 294,-93"/>
<text text-anchor="middle" x="221.5" y="-81" font-family="Helvetica,sans-Serif" font-size="10.00">DirektDSP::DirektTabPanel</text>
</a>
</g>
</g>
<!-- Node0&#45;&gt;Node11 -->
<g id="edge11_Node000000_Node000011" class="edge">
<title>Node0&#45;&gt;Node11</title>
<g id="a_edge11_Node000000_Node000011"><a xlink:title=" ">
<path fill="none" stroke="#63b8ff" d="M61.92,-176.51C76.32,-155.39 103.09,-120.91 135,-102.5 141.72,-98.62 149.15,-95.54 156.75,-93.08"/>
<polygon fill="#63b8ff" stroke="#63b8ff" points="58.96,-174.65 56.37,-184.92 64.8,-178.51 58.96,-174.65"/>
</a>
</g>
</g>
<!-- Node12 -->
<g id="Node000012" class="node">
<title>Node12</title>
<g id="a_Node000012"><a xlink:href="classDirektDSP_1_1DirektToggle.html" target="_top" xlink:title=" ">
<polygon fill="white" stroke="#666666" points="288.5,-56 154.5,-56 154.5,-37 288.5,-37 288.5,-56"/>
<text text-anchor="middle" x="221.5" y="-44" font-family="Helvetica,sans-Serif" font-size="10.00">DirektDSP::DirektToggle</text>
</a>
</g>
</g>
<!-- Node0&#45;&gt;Node12 -->
<g id="edge12_Node000000_Node000012" class="edge">
<title>Node0&#45;&gt;Node12</title>
<g id="a_edge12_Node000000_Node000012"><a xlink:title=" ">
<path fill="none" stroke="#63b8ff" d="M57.59,-175.23C69.18,-146.59 94.97,-93.17 135,-65.5 140.88,-61.44 147.48,-58.22 154.34,-55.69"/>
<polygon fill="#63b8ff" stroke="#63b8ff" points="54.2,-174.31 53.85,-184.9 60.73,-176.84 54.2,-174.31"/>
</a>
</g>
</g>
<!-- Node7 -->
<g id="Node000007" class="node">
<title>Node7</title>
<g id="a_Node000007"><a xlink:title=" ">
<polygon fill="#e0e0e0" stroke="#999999" points="85,-19 14,-19 14,0 85,0 85,-19"/>
<text text-anchor="middle" x="49.5" y="-7" font-family="Helvetica,sans-Serif" font-size="10.00">juce::Timer</text>
</a>
</g>
</g>
<!-- Node7&#45;&gt;Node6 -->
<g id="edge13_Node000007_Node000006" class="edge">
<title>Node7&#45;&gt;Node6</title>
<g id="a_edge13_Node000007_Node000006"><a xlink:title=" ">
<path fill="none" stroke="#8b1a1a" d="M95.49,-9.5C113.97,-9.5 135.71,-9.5 155.83,-9.5"/>
<polygon fill="#8b1a1a" stroke="#8b1a1a" points="95.31,-6 85.31,-9.5 95.31,-13 95.31,-6"/>
</a>
</g>
</g>
</g>
</svg>
