<?xml version="1.0" encoding="UTF-8" standalone="no"?>
<!DOCTYPE svg PUBLIC "-//W3C//DTD SVG 1.1//EN"
 "http://www.w3.org/Graphics/SVG/1.1/DTD/svg11.dtd">
<!-- Generated by graphviz version 2.43.0 (0)
 -->
<!-- Title: Graphical Class Hierarchy Pages: 1 -->
<svg width="361pt" height="557pt"
 viewBox="0.00 0.00 361.00 556.50" xmlns="http://www.w3.org/2000/svg" xmlns:xlink="http://www.w3.org/1999/xlink">
<g id="graph0" class="graph" transform="scale(1 1) rotate(0) translate(4 552.5)">
<title>Graphical Class Hierarchy</title>
<!-- Node0 -->
<g id="Node000000" class="node">
<title>Node0</title>
<g id="a_Node000000"><a xlink:title=" ">
<polygon fill="#e0e0e0" stroke="#999999" points="121.5,-289.5 22.5,-289.5 22.5,-270.5 121.5,-270.5 121.5,-289.5"/>
<text text-anchor="middle" x="72" y="-277.5" font-family="Helvetica,sans-Serif" font-size="10.00">juce::Component</text>
</a>
</g>
</g>
<!-- Node1 -->
<g id="Node000001" class="node">
<title>Node1</title>
<g id="a_Node000001"><a xlink:href="classDirektDSP_1_1DirektClipIndicator.html" target="_top" xlink:title="A small LED indicator that lights red when the signal has clipped (&gt;= 0 dBFS).">
<polygon fill="white" stroke="#666666" points="348.5,-548.5 184.5,-548.5 184.5,-529.5 348.5,-529.5 348.5,-548.5"/>
<text text-anchor="middle" x="266.5" y="-536.5" font-family="Helvetica,sans-Serif" font-size="10.00">DirektDSP::DirektClipIndicator</text>
</a>
</g>
</g>
<!-- Node0&#45;&gt;Node1 -->
<g id="edge2_Node000000_Node000001" class="edge">
<title>Node0&#45;&gt;Node1</title>
<g id="a_edge2_Node000000_Node000001"><a xlink:title=" ">
<path fill="none" stroke="#63b8ff" d="M75.64,-299.66C82.97,-346.04 108,-462.75 180,-521 184.13,-524.34 188.72,-527.1 193.59,-529.38"/>
<polygon fill="#63b8ff" stroke="#63b8ff" points="79.1,-299.08 74.17,-289.7 72.17,-300.1 79.1,-299.08"/>
</a>
</g>
</g>
<!-- Node5 -->
<g id="Node000005" class="node">
<title>Node5</title>
<g id="a_Node000005"><a xlink:href="classDirektDSP_1_1DirektComboBox.html" target="_top" xlink:title=" ">
<polygon fill="white" stroke="#666666" points="344,-252.5 189,-252.5 189,-233.5 344,-233.5 344,-252.5"/>
<text text-anchor="middle" x="266.5" y="-240.5" font-family="Helvetica,sans-Serif" font-size="10.00">DirektDSP::DirektComboBox</text>
</a>
</g>
</g>
<!-- Node0&#45;&gt;Node5 -->
<g id="edge3_Node000000_Node000005" class="edge">
<title>Node0&#45;&gt;Node5</title>
<g id="a_edge3_Node000000_Node000005"><a xlink:title=" ">
<path fill="none" stroke="#63b8ff" d="M131.65,-268.73C158.59,-263.55 190.2,-257.47 215.93,-252.53"/>
<polygon fill="#63b8ff" stroke="#63b8ff" points="130.74,-265.34 121.58,-270.66 132.06,-272.21 130.74,-265.34"/>
</a>
</g>
</g>
<!-- Node6 -->
<g id="Node000006" class="node">
<title>Node6</title>
<g id="a_Node000006"><a xlink:href="classDirektDSP_1_1DirektFlexContainer.html" target="_top" xlink:title=" ">
<polygon fill="white" stroke="#666666" points="351.5,-215.5 181.5,-215.5 181.5,-196.5 351.5,-196.5 351.5,-215.5"/>
<text text-anchor="middle" x="266.5" y="-203.5" font-family="Helvetica,sans-Serif" font-size="10.00">DirektDSP::DirektFlexContainer</text>
</a>
</g>
</g>
<!-- Node0&#45;&gt;Node6 -->
<g id="edge4_Node000000_Node000006" class="edge">
<title>Node0&#45;&gt;Node6</title>
<g id="a_edge4_Node000000_Node000006"><a xlink:title=" ">
<path fill="none" stroke="#63b8ff" d="M96.6,-265.23C117.72,-252.6 149.92,-234.8 180,-224 189.28,-220.67 199.36,-217.87 209.23,-215.54"/>
<polygon fill="#63b8ff" stroke="#63b8ff" points="94.72,-262.27 87.99,-270.45 98.35,-268.26 94.72,-262.27"/>
</a>
</g>
</g>
<!-- Node7 -->
<g id="Node000007" class="node">
<title>Node7</title>
<g id="a_Node000007"><a xlink:href="classDirektDSP_1_1DirektFooter.html" target="_top" xlink:title=" ">
<polygon fill="white" stroke="#666666" points="333,-178.5 200,-178.5 200,-159.5 333,-159.5 333,-178.5"/>
<text text-anchor="middle" x="266.5" y="-166.5" font-family="Helvetica,sans-Serif" font-size="10.00">DirektDSP::DirektFooter</text>
</a>
</g>
</g>
<!-- Node0&#45;&gt;Node7 -->
<g id="edge5_Node000000_Node000007" class="edge">
<title>Node0&#45;&gt;Node7</title>
<g id="a_edge5_Node000000_Node000007"><a xlink:title=" ">
<path fill="none" stroke="#63b8ff" d="M87.71,-262.68C106.76,-241.41 142.06,-205.87 180,-187 186.93,-183.56 194.49,-180.77 202.15,-178.51"/>
<polygon fill="#63b8ff" stroke="#63b8ff" points="84.97,-260.49 81.01,-270.32 90.23,-265.1 84.97,-260.49"/>
</a>
</g>
</g>
<!-- Node8 -->
<g id="Node000008" class="node">
<title>Node8</title>
<g id="a_Node000008"><a xlink:href="classDirektDSP_1_1DirektHeader.html" target="_top" xlink:title=" ">
<polygon fill="white" stroke="#666666" points="335,-141.5 198,-141.5 198,-122.5 335,-122.5 335,-141.5"/>
<text text-anchor="middle" x="266.5" y="-129.5" font-family="Helvetica,sans-Serif" font-size="10.00">DirektDSP::DirektHeader</text>
</a>
</g>
</g>
<!-- Node0&#45;&gt;Node8 -->
<g id="edge6_Node000000_Node000008" class="edge">
<title>Node0&#45;&gt;Node8</title>
<g id="a_edge6_Node000000_Node000008"><a xlink:title=" ">
<path fill="none" stroke="#63b8ff" d="M82.88,-261.26C99.09,-232.47 134.16,-177.78 180,-150 185.58,-146.62 191.7,-143.87 198.01,-141.63"/>
<polygon fill="#63b8ff" stroke="#63b8ff" points="79.68,-259.82 77.95,-270.28 85.82,-263.18 79.68,-259.82"/>
</a>
</g>
</g>
<!-- Node9 -->
<g id="Node000009" class="node">
<title>Node9</title>
<g id="a_Node000009"><a xlink:href="classDirektDSP_1_1DirektKnob.html" target="_top" xlink:title=" ">
<polygon fill="white" stroke="#666666" points="330,-104.5 203,-104.5 203,-85.5 330,-85.5 330,-104.5"/>
<text text-anchor="middle" x="266.5" y="-92.5" font-family="Helvetica,sans-Serif" font-size="10.00">DirektDSP::DirektKnob</text>
</a>
</g>
</g>
<!-- Node0&#45;&gt;Node9 -->
<g id="edge7_Node000000_Node000009" class="edge">
<title>Node0&#45;&gt;Node9</title>
<g id="a_edge7_Node000000_Node000009"><a xlink:title=" ">
<path fill="none" stroke="#63b8ff" d="M79.68,-260.52C92.88,-225.11 125.81,-150.41 180,-113 186.87,-108.26 194.73,-104.73 202.84,-102.1"/>
<polygon fill="#63b8ff" stroke="#63b8ff" points="76.3,-259.57 76.21,-270.16 82.89,-261.93 76.3,-259.57"/>
</a>
</g>
</g>
<!-- Node10 -->
<g id="Node000010" class="node">
<title>Node10</title>
<g id="a_Node000010"><a xlink:href="classDirektDSP_1_1DirektMacroControl.html" target="_top" xlink:title="One macro knob that drives multiple parameters.">
<polygon fill="white" stroke="#666666" points="350,-67.5 183,-67.5 183,-48.5 350,-48.5 350,-67.5"/>
<text text-anchor="middle" x="266.5" y="-55.5" font-family="Helvetica,sans-Serif" font-size="10.00">DirektDSP::DirektMacroControl</text>
</a>
</g>
</g>
<!-- Node0&#45;&gt;Node10 -->
<g id="edge8_Node000000_Node000010" class="edge">
<title>Node0&#45;&gt;Node10</title>
<g id="a_edge8_Node000000_Node000010"><a xlink:title=" ">
<path fill="none" stroke="#63b8ff" d="M77.28,-260.6C87.42,-219.54 116.89,-123.74 180,-76 184.48,-72.61 189.44,-69.83 194.67,-67.55"/>
<polygon fill="#63b8ff" stroke="#63b8ff" points="73.85,-259.9 74.97,-270.43 80.67,-261.5 73.85,-259.9"/>
</a>
</g>
</g>
<!-- Node4 -->
<g id="Node000004" class="node">
<title>Node4</title>
<g id="a_Node000004"><a xlink:href="classDirektDSP_1_1DirektMeter.html" target="_top" xlink:title=" ">
<polygon fill="white" stroke="#666666" points="332,-511.5 201,-511.5 201,-492.5 332,-492.5 332,-511.5"/>
<text text-anchor="middle" x="266.5" y="-499.5" font-family="Helvetica,sans-Serif" font-size="10.00">DirektDSP::DirektMeter</text>
</a>
</g>
</g>
<!-- Node0&#45;&gt;Node4 -->
<g id="edge9_Node000000_Node000004" class="edge">
<title>Node0&#45;&gt;Node4</title>
<g id="a_edge9_Node000000_Node000004"><a xlink:title=" ">
<path fill="none" stroke="#63b8ff" d="M77.5,-299.82C87.9,-340.89 117.64,-435.38 180,-483 186.16,-487.71 193.26,-491.29 200.68,-494.02"/>
<polygon fill="#63b8ff" stroke="#63b8ff" points="80.87,-298.85 75.12,-289.95 74.06,-300.49 80.87,-298.85"/>
</a>
</g>
</g>
<!-- Node11 -->
<g id="Node000011" class="node">
<title>Node11</title>
<g id="a_Node000011"><a xlink:href="classDirektDSP_1_1DirektModuleBypassSoloStrip.html" target="_top" xlink:title="Compact bypass and solo toggles for a module section title bar.">
<polygon fill="white" stroke="#666666" points="353,-30 180,-30 180,0 353,0 353,-30"/>
<text text-anchor="start" x="188" y="-18" font-family="Helvetica,sans-Serif" font-size="10.00">DirektDSP::DirektModuleBypass</text>
<text text-anchor="middle" x="266.5" y="-7" font-family="Helvetica,sans-Serif" font-size="10.00">SoloStrip</text>
</a>
</g>
</g>
<!-- Node0&#45;&gt;Node11 -->
<g id="edge10_Node000000_Node000011" class="edge">
<title>Node0&#45;&gt;Node11</title>
<g id="a_edge10_Node000000_Node000011"><a xlink:title=" ">
<path fill="none" stroke="#63b8ff" d="M75.95,-260.36C83.91,-214.45 110.11,-99.48 180,-39 183.96,-35.57 188.38,-32.63 193.07,-30.1"/>
<polygon fill="#63b8ff" stroke="#63b8ff" points="72.46,-260.03 74.31,-270.46 79.37,-261.16 72.46,-260.03"/>
</a>
</g>
</g>
<!-- Node12 -->
<g id="Node000012" class="node">
<title>Node12</title>
<g id="a_Node000012"><a xlink:href="classDirektDSP_1_1DirektPopupPanel.html" target="_top" xlink:title=" ">
<polygon fill="white" stroke="#666666" points="345.5,-474.5 187.5,-474.5 187.5,-455.5 345.5,-455.5 345.5,-474.5"/>
<text text-anchor="middle" x="266.5" y="-462.5" font-family="Helvetica,sans-Serif" font-size="10.00">DirektDSP::DirektPopupPanel</text>
</a>
</g>
</g>
<!-- Node0&#45;&gt;Node12 -->
<g id="edge11_Node000000_Node000012" class="edge">
<title>Node0&#45;&gt;Node12</title>
<g id="a_edge11_Node000000_Node000012"><a xlink:title=" ">
<path fill="none" stroke="#63b8ff" d="M79.75,-299.31C93.07,-334.42 126.2,-408.52 180,-446 185.49,-449.82 191.62,-452.9 198,-455.36"/>
<polygon fill="#63b8ff" stroke="#63b8ff" points="82.98,-297.94 76.25,-289.75 76.4,-300.34 82.98,-297.94"/>
</a>
</g>
</g>
<!-- Node13 -->
<g id="Node000013" class="node">
<title>Node13</title>
<g id="a_Node000013"><a xlink:href="classDirektDSP_1_1DirektPresetBrowser.html" target="_top" xlink:title=" ">
<polygon fill="white" stroke="#666666" points="353,-437.5 180,-437.5 180,-418.5 353,-418.5 353,-437.5"/>
<text text-anchor="middle" x="266.5" y="-425.5" font-family="Helvetica,sans-Serif" font-size="10.00">DirektDSP::DirektPresetBrowser</text>
</a>
</g>
</g>
<!-- Node0&#45;&gt;Node13 -->
<g id="edge12_Node000000_Node000013" class="edge">
<title>Node0&#45;&gt;Node13</title>
<g id="a_edge12_Node000000_Node000013"><a xlink:title=" ">
<path fill="none" stroke="#63b8ff" d="M82.95,-298.54C99.26,-327.02 134.47,-381.18 180,-409 186.36,-412.88 193.41,-415.98 200.67,-418.44"/>
<polygon fill="#63b8ff" stroke="#63b8ff" points="85.91,-296.65 77.99,-289.62 79.79,-300.06 85.91,-296.65"/>
</a>
</g>
</g>
<!-- Node14 -->
<g id="Node000014" class="node">
<title>Node14</title>
<g id="a_Node000014"><a xlink:href="classDirektDSP_1_1DirektSection.html" target="_top" xlink:title=" ">
<polygon fill="white" stroke="#666666" points="335.5,-400.5 197.5,-400.5 197.5,-381.5 335.5,-381.5 335.5,-400.5"/>
<text text-anchor="middle" x="266.5" y="-388.5" font-family="Helvetica,sans-Serif" font-size="10.00">DirektDSP::DirektSection</text>
</a>
</g>
</g>
<!-- Node0&#45;&gt;Node14 -->
<g id="edge13_Node000000_Node000014" class="edge">
<title>Node0&#45;&gt;Node14</title>
<g id="a_edge13_Node000000_Node000014"><a xlink:title=" ">
<path fill="none" stroke="#63b8ff" d="M87.78,-297.07C106.91,-318.02 142.29,-353.11 180,-372 187.75,-375.88 196.29,-378.98 204.88,-381.44"/>
<polygon fill="#63b8ff" stroke="#63b8ff" points="90.33,-294.66 81.06,-289.54 85.11,-299.33 90.33,-294.66"/>
</a>
</g>
</g>
<!-- Node15 -->
<g id="Node000015" class="node">
<title>Node15</title>
<g id="a_Node000015"><a xlink:href="classDirektDSP_1_1DirektStereoMeter.html" target="_top" xlink:title="A stereo meter pair (L + R) laid out side&#45;by&#45;side (vertical) or stacked top&#45;to&#45;bottom (horizontal ori...">
<polygon fill="white" stroke="#666666" points="347.5,-363.5 185.5,-363.5 185.5,-344.5 347.5,-344.5 347.5,-363.5"/>
<text text-anchor="middle" x="266.5" y="-351.5" font-family="Helvetica,sans-Serif" font-size="10.00">DirektDSP::DirektStereoMeter</text>
</a>
</g>
</g>
<!-- Node0&#45;&gt;Node15 -->
<g id="edge14_Node000000_Node000015" class="edge">
<title>Node0&#45;&gt;Node15</title>
<g id="a_edge14_Node000000_Node000015"><a xlink:title=" ">
<path fill="none" stroke="#63b8ff" d="M97.03,-294.62C118.2,-306.94 150.23,-324.24 180,-335 190.3,-338.72 201.56,-341.85 212.44,-344.43"/>
<polygon fill="#63b8ff" stroke="#63b8ff" points="98.77,-291.59 88.38,-289.51 95.21,-297.61 98.77,-291.59"/>
</a>
</g>
</g>
<!-- Node16 -->
<g id="Node000016" class="node">
<title>Node16</title>
<g id="a_Node000016"><a xlink:href="classDirektDSP_1_1DirektTabPanel.html" target="_top" xlink:title=" ">
<polygon fill="white" stroke="#666666" points="339,-326.5 194,-326.5 194,-307.5 339,-307.5 339,-326.5"/>
<text text-anchor="middle" x="266.5" y="-314.5" font-family="Helvetica,sans-Serif" font-size="10.00">DirektDSP::DirektTabPanel</text>
</a>
</g>
</g>
<!-- Node0&#45;&gt;Node16 -->
<g id="edge15_Node000000_Node000016" class="edge">
<title>Node0&#45;&gt;Node16</title>
<g id="a_edge15_Node000000_Node000016"><a xlink:title=" ">
<path fill="none" stroke="#63b8ff" d="M131.65,-291.27C158.59,-296.45 190.2,-302.53 215.93,-307.47"/>
<polygon fill="#63b8ff" stroke="#63b8ff" points="132.06,-287.79 121.58,-289.34 130.74,-294.66 132.06,-287.79"/>
</a>
</g>
</g>
<!-- Node17 -->
<g id="Node000017" class="node">
<title>Node17</title>
<g id="a_Node000017"><a xlink:href="classDirektDSP_1_1DirektToggle.html" target="_top" xlink:title=" ">
<polygon fill="white" stroke="#666666" points="333.5,-289.5 199.5,-289.5 199.5,-270.5 333.5,-270.5 333.5,-289.5"/>
<text text-anchor="middle" x="266.5" y="-277.5" font-family="Helvetica,sans-Serif" font-size="10.00">DirektDSP::DirektToggle</text>
</a>
</g>
</g>
<!-- Node0&#45;&gt;Node17 -->
<g id="edge16_Node000000_Node000017" class="edge">
<title>Node0&#45;&gt;Node17</title>
<g id="a_edge16_Node000000_Node000017"><a xlink:title=" ">
<path fill="none" stroke="#63b8ff" d="M131.82,-280C153.21,-280 177.52,-280 199.49,-280"/>
<polygon fill="#63b8ff" stroke="#63b8ff" points="131.58,-276.5 121.58,-280 131.58,-283.5 131.58,-276.5"/>
</a>
</g>
</g>
<!-- Node2 -->
<g id="Node000002" class="node">
<title>Node2</title>
<g id="a_Node000002"><a xlink:title=" ">
<polygon fill="#e0e0e0" stroke="#999999" points="144,-548.5 0,-548.5 0,-529.5 144,-529.5 144,-548.5"/>
<text text-anchor="middle" x="72" y="-536.5" font-family="Helvetica,sans-Serif" font-size="10.00">juce::SettableTooltipClient</text>
</a>
</g>
</g>
<!-- Node2&#45;&gt;Node1 -->
<g id="edge17_Node000002_Node000001" class="edge">
<title>Node2&#45;&gt;Node1</title>
<g id="a_edge17_Node000002_Node000001"><a xlink:title=" ">
<path fill="none" stroke="#63b8ff" d="M154.35,-539C164.25,-539 174.37,-539 184.27,-539"/>
<polygon fill="#63b8ff" stroke="#63b8ff" points="154.13,-535.5 144.13,-539 154.13,-542.5 154.13,-535.5"/>
</a>
</g>
</g>
<!-- Node3 -->
<g id="Node000003" class="node">
<title>Node3</title>
<g id="a_Node000003"><a xlink:title=" ">
<polygon fill="#e0e0e0" stroke="#999999" points="107.5,-511.5 36.5,-511.5 36.5,-492.5 107.5,-492.5 107.5,-511.5"/>
<text text-anchor="middle" x="72" y="-499.5" font-family="Helvetica,sans-Serif" font-size="10.00">juce::Timer</text>
</a>
</g>
</g>
<!-- Node3&#45;&gt;Node1 -->
<g id="edge18_Node000003_Node000001" class="edge">
<title>Node3&#45;&gt;Node1</title>
<g id="a_edge18_Node000003_Node000001"><a xlink:title=" ">
<path fill="none" stroke="#8b1a1a" d="M117.86,-510.62C147.28,-516.28 185.75,-523.67 216.05,-529.5"/>
<polygon fill="#8b1a1a" stroke="#8b1a1a" points="118.34,-507.15 107.86,-508.7 117.02,-514.03 118.34,-507.15"/>
</a>
</g>
</g>
<!-- Node3&#45;&gt;Node4 -->
<g id="edge19_Node000003_Node000004" class="edge">
<title>Node3&#45;&gt;Node4</title>
<g id="a_edge19_Node000003_Node000004"><a xlink:title=" ">
<path fill="none" stroke="#8b1a1a" d="M118.02,-502C142.69,-502 173.71,-502 200.93,-502"/>
<polygon fill="#8b1a1a" stroke="#8b1a1a" points="117.86,-498.5 107.86,-502 117.86,-505.5 117.86,-498.5"/>
</a>
</g>
</g>
</g>
</svg>
