<?xml version="1.0" encoding="UTF-8" standalone="no"?>
<!DOCTYPE svg PUBLIC "-//W3C//DTD SVG 1.1//EN"
 "http://www.w3.org/Graphics/SVG/1.1/DTD/svg11.dtd">
<!-- Generated by graphviz version 2.43.0 (0)
 -->
<!-- Title: Service/PresetManager.h Pages: 1 -->
<svg width="601pt" height="159pt"
 viewBox="0.00 0.00 601.00 159.00" xmlns="http://www.w3.org/2000/svg" xmlns:xlink="http://www.w3.org/1999/xlink">
<g id="graph0" class="graph" transform="scale(1 1) rotate(0) translate(4 155)">
<title>Service/PresetManager.h</title>
<!-- Node1 -->
<g id="Node000001" class="node">
<title>Node1</title>
<g id="a_Node000001"><a xlink:title=" ">
<polygon fill="#999999" stroke="#666666" points="316,-151 179,-151 179,-132 316,-132 316,-151"/>
<text text-anchor="middle" x="247.5" y="-139" font-family="Helvetica,sans-Serif" font-size="10.00">Service/PresetManager.h</text>
</a>
</g>
</g>
<!-- Node2 -->
<g id="Node000002" class="node">
<title>Node2</title>
<g id="a_Node000002"><a xlink:href="DirektHeader_8cpp.html" target="_top" xlink:title=" ">
<polygon fill="white" stroke="#666666" points="141,-90.5 0,-90.5 0,-71.5 141,-71.5 141,-90.5"/>
<text text-anchor="middle" x="70.5" y="-78.5" font-family="Helvetica,sans-Serif" font-size="10.00">chrome/DirektHeader.cpp</text>
</a>
</g>
</g>
<!-- Node1&#45;&gt;Node2 -->
<g id="edge1_Node000001_Node000002" class="edge">
<title>Node1&#45;&gt;Node2</title>
<g id="a_edge1_Node000001_Node000002"><a xlink:title=" ">
<path fill="none" stroke="#63b8ff" d="M212.15,-128.82C177.92,-117.5 126.83,-100.62 96.27,-90.52"/>
<polygon fill="#63b8ff" stroke="#63b8ff" points="211.17,-132.18 221.76,-131.99 213.37,-125.53 211.17,-132.18"/>
</a>
</g>
</g>
<!-- Node3 -->
<g id="Node000003" class="node">
<title>Node3</title>
<g id="a_Node000003"><a xlink:href="DirektPresetBrowser_8cpp.html" target="_top" xlink:title=" ">
<polygon fill="white" stroke="#666666" points="335.5,-90.5 159.5,-90.5 159.5,-71.5 335.5,-71.5 335.5,-90.5"/>
<text text-anchor="middle" x="247.5" y="-78.5" font-family="Helvetica,sans-Serif" font-size="10.00">chrome/DirektPresetBrowser.cpp</text>
</a>
</g>
</g>
<!-- Node1&#45;&gt;Node3 -->
<g id="edge2_Node000001_Node000003" class="edge">
<title>Node1&#45;&gt;Node3</title>
<g id="a_edge2_Node000001_Node000003"><a xlink:title=" ">
<path fill="none" stroke="#63b8ff" d="M247.5,-121.66C247.5,-111.24 247.5,-98.8 247.5,-90.67"/>
<polygon fill="#63b8ff" stroke="#63b8ff" points="244,-121.87 247.5,-131.87 251,-121.87 244,-121.87"/>
</a>
</g>
</g>
<!-- Node4 -->
<g id="Node000004" class="node">
<title>Node4</title>
<g id="a_Node000004"><a xlink:href="StandaloneTestProcessor_8h.html" target="_top" xlink:title=" ">
<polygon fill="white" stroke="#666666" points="502,-96 353,-96 353,-66 502,-66 502,-96"/>
<text text-anchor="start" x="361" y="-84" font-family="Helvetica,sans-Serif" font-size="10.00">examples/StandaloneTest</text>
<text text-anchor="middle" x="427.5" y="-73" font-family="Helvetica,sans-Serif" font-size="10.00">/StandaloneTestProcessor.h</text>
</a>
</g>
</g>
<!-- Node1&#45;&gt;Node4 -->
<g id="edge3_Node000001_Node000004" class="edge">
<title>Node1&#45;&gt;Node4</title>
<g id="a_edge3_Node000001_Node000004"><a xlink:title=" ">
<path fill="none" stroke="#63b8ff" d="M283.41,-128.83C312.43,-119.4 353.39,-106.09 384.23,-96.06"/>
<polygon fill="#63b8ff" stroke="#63b8ff" points="282.1,-125.57 273.67,-131.99 284.27,-132.23 282.1,-125.57"/>
</a>
</g>
</g>
<!-- Node5 -->
<g id="Node000005" class="node">
<title>Node5</title>
<g id="a_Node000005"><a xlink:href="Main_8cpp.html" target="_top" xlink:title=" ">
<polygon fill="white" stroke="#666666" points="413.5,-30 271.5,-30 271.5,0 413.5,0 413.5,-30"/>
<text text-anchor="start" x="279.5" y="-18" font-family="Helvetica,sans-Serif" font-size="10.00">examples/StandaloneTest</text>
<text text-anchor="middle" x="342.5" y="-7" font-family="Helvetica,sans-Serif" font-size="10.00">/Main.cpp</text>
</a>
</g>
</g>
<!-- Node4&#45;&gt;Node5 -->
<g id="edge4_Node000004_Node000005" class="edge">
<title>Node4&#45;&gt;Node5</title>
<g id="a_edge4_Node000004_Node000005"><a xlink:title=" ">
<path fill="none" stroke="#63b8ff" d="M400.61,-59.75C387.83,-50.13 372.86,-38.86 361.31,-30.16"/>
<polygon fill="#63b8ff" stroke="#63b8ff" points="398.54,-62.58 408.64,-65.8 402.75,-56.99 398.54,-62.58"/>
</a>
</g>
</g>
<!-- Node6 -->
<g id="Node000006" class="node">
<title>Node6</title>
<g id="a_Node000006"><a xlink:href="StandaloneTestProcessor_8cpp.html" target="_top" xlink:title=" ">
<polygon fill="white" stroke="#666666" points="593,-30 432,-30 432,0 593,0 593,-30"/>
<text text-anchor="start" x="440" y="-18" font-family="Helvetica,sans-Serif" font-size="10.00">examples/StandaloneTest</text>
<text text-anchor="middle" x="512.5" y="-7" font-family="Helvetica,sans-Serif" font-size="10.00">/StandaloneTestProcessor.cpp</text>
</a>
</g>
</g>
<!-- Node4&#45;&gt;Node6 -->
<g id="edge5_Node000004_Node000006" class="edge">
<title>Node4&#45;&gt;Node6</title>
<g id="a_edge5_Node000004_Node000006"><a xlink:title=" ">
<path fill="none" stroke="#63b8ff" d="M454.39,-59.75C467.17,-50.13 482.14,-38.86 493.69,-30.16"/>
<polygon fill="#63b8ff" stroke="#63b8ff" points="452.25,-56.99 446.36,-65.8 456.46,-62.58 452.25,-56.99"/>
</a>
</g>
</g>
</g>
</svg>
