<?xml version="1.0" encoding="UTF-8" standalone="no"?>
<!DOCTYPE svg PUBLIC "-//W3C//DTD SVG 1.1//EN"
 "http://www.w3.org/Graphics/SVG/1.1/DTD/svg11.dtd">
<!-- Generated by graphviz version 2.43.0 (0)
 -->
<!-- Title: examples/StandaloneTest/StandaloneTestProcessor.h Pages: 1 -->
<svg width="290pt" height="159pt"
 viewBox="0.00 0.00 290.00 159.00" xmlns="http://www.w3.org/2000/svg" xmlns:xlink="http://www.w3.org/1999/xlink">
<g id="graph0" class="graph" transform="scale(1 1) rotate(0) translate(4 155)">
<title>examples/StandaloneTest/StandaloneTestProcessor.h</title>
<!-- Node1 -->
<g id="Node000001" class="node">
<title>Node1</title>
<g id="a_Node000001"><a xlink:title=" ">
<polygon fill="#999999" stroke="#666666" points="152.5,-151 3.5,-151 3.5,-121 152.5,-121 152.5,-151"/>
<text text-anchor="start" x="11.5" y="-139" font-family="Helvetica,sans-Serif" font-size="10.00">examples/StandaloneTest</text>
<text text-anchor="middle" x="78" y="-128" font-family="Helvetica,sans-Serif" font-size="10.00">/StandaloneTestProcessor.h</text>
</a>
</g>
</g>
<!-- Node2 -->
<g id="Node000002" class="node">
<title>Node2</title>
<g id="a_Node000002"><a xlink:title=" ">
<polygon fill="#e0e0e0" stroke="#999999" points="50,-85 0,-85 0,-66 50,-66 50,-85"/>
<text text-anchor="middle" x="25" y="-73" font-family="Helvetica,sans-Serif" font-size="10.00">atomic</text>
</a>
</g>
</g>
<!-- Node1&#45;&gt;Node2 -->
<g id="edge1_Node000001_Node000002" class="edge">
<title>Node1&#45;&gt;Node2</title>
<g id="a_edge1_Node000001_Node000002"><a xlink:title=" ">
<path fill="none" stroke="#63b8ff" d="M65.17,-120.84C57.48,-112.35 47.67,-101.52 39.67,-92.69"/>
<polygon fill="#63b8ff" stroke="#63b8ff" points="42.25,-90.33 32.94,-85.27 37.06,-95.03 42.25,-90.33"/>
</a>
</g>
</g>
<!-- Node3 -->
<g id="Node000003" class="node">
<title>Node3</title>
<g id="a_Node000003"><a xlink:title=" ">
<polygon fill="#e0e0e0" stroke="#999999" points="147.5,-30 8.5,-30 8.5,0 147.5,0 147.5,-30"/>
<text text-anchor="start" x="16.5" y="-18" font-family="Helvetica,sans-Serif" font-size="10.00">juce_audio_processors</text>
<text text-anchor="middle" x="78" y="-7" font-family="Helvetica,sans-Serif" font-size="10.00">/juce_audio_processors.h</text>
</a>
</g>
</g>
<!-- Node1&#45;&gt;Node3 -->
<g id="edge2_Node000001_Node000003" class="edge">
<title>Node1&#45;&gt;Node3</title>
<g id="a_edge2_Node000001_Node000003"><a xlink:title=" ">
<path fill="none" stroke="#63b8ff" d="M78,-120.88C78,-101.02 78,-64.55 78,-40.29"/>
<polygon fill="#63b8ff" stroke="#63b8ff" points="81.5,-40.1 78,-30.1 74.5,-40.1 81.5,-40.1"/>
</a>
</g>
</g>
<!-- Node4 -->
<g id="Node000004" class="node">
<title>Node4</title>
<g id="a_Node000004"><a xlink:href="PresetManager_8h.html" target="_top" xlink:title=" ">
<polygon fill="white" stroke="#666666" points="243.5,-85 106.5,-85 106.5,-66 243.5,-66 243.5,-85"/>
<text text-anchor="middle" x="175" y="-73" font-family="Helvetica,sans-Serif" font-size="10.00">Service/PresetManager.h</text>
</a>
</g>
</g>
<!-- Node1&#45;&gt;Node4 -->
<g id="edge3_Node000001_Node000004" class="edge">
<title>Node1&#45;&gt;Node4</title>
<g id="a_edge3_Node000001_Node000004"><a xlink:title=" ">
<path fill="none" stroke="#63b8ff" d="M101.48,-120.84C116.8,-111.6 136.71,-99.59 151.95,-90.4"/>
<polygon fill="#63b8ff" stroke="#63b8ff" points="153.99,-93.26 160.75,-85.09 150.38,-87.26 153.99,-93.26"/>
</a>
</g>
</g>
<!-- Node4&#45;&gt;Node3 -->
<g id="edge4_Node000004_Node000003" class="edge">
<title>Node4&#45;&gt;Node3</title>
<g id="a_edge4_Node000004_Node000003"><a xlink:title=" ">
<path fill="none" stroke="#63b8ff" d="M160.69,-65.87C147.4,-57.86 127.16,-45.65 110.03,-35.31"/>
<polygon fill="#63b8ff" stroke="#63b8ff" points="111.77,-32.28 101.4,-30.11 108.16,-38.28 111.77,-32.28"/>
</a>
</g>
</g>
<!-- Node5 -->
<g id="Node000005" class="node">
<title>Node5</title>
<g id="a_Node000005"><a xlink:title=" ">
<polygon fill="#e0e0e0" stroke="#999999" points="282,-30 166,-30 166,0 282,0 282,-30"/>
<text text-anchor="start" x="174" y="-18" font-family="Helvetica,sans-Serif" font-size="10.00">juce_gui_basics/juce</text>
<text text-anchor="middle" x="224" y="-7" font-family="Helvetica,sans-Serif" font-size="10.00">_gui_basics.h</text>
</a>
</g>
</g>
<!-- Node4&#45;&gt;Node5 -->
<g id="edge5_Node000004_Node000005" class="edge">
<title>Node4&#45;&gt;Node5</title>
<g id="a_edge5_Node000004_Node000005"><a xlink:title=" ">
<path fill="none" stroke="#63b8ff" d="M182.23,-65.87C188.39,-58.52 197.5,-47.63 205.65,-37.91"/>
<polygon fill="#63b8ff" stroke="#63b8ff" points="208.44,-40.03 212.18,-30.11 203.07,-35.53 208.44,-40.03"/>
</a>
</g>
</g>
</g>
</svg>
