<?xml version="1.0" encoding="UTF-8" standalone="no"?>
<!DOCTYPE svg PUBLIC "-//W3C//DTD SVG 1.1//EN"
 "http://www.w3.org/Graphics/SVG/1.1/DTD/svg11.dtd">
<!-- Generated by graphviz version 2.43.0 (0)
 -->
<!-- Title: DirektDSP::TabDesc Pages: 1 -->
<svg width="834pt" height="104pt"
 viewBox="0.00 0.00 834.00 104.00" xmlns="http://www.w3.org/2000/svg" xmlns:xlink="http://www.w3.org/1999/xlink">
<g id="graph0" class="graph" transform="scale(1 1) rotate(0) translate(4 100)">
<title>DirektDSP::TabDesc</title>
<!-- Node1 -->
<g id="Node000001" class="node">
<title>Node1</title>
<g id="a_Node000001"><a xlink:title=" ">
<polygon fill="#999999" stroke="#666666" points="826,-57.5 713,-57.5 713,-38.5 826,-38.5 826,-57.5"/>
<text text-anchor="middle" x="769.5" y="-45.5" font-family="Helvetica,sans-Serif" font-size="10.00">DirektDSP::TabDesc</text>
</a>
</g>
</g>
<!-- Node2 -->
<g id="Node000002" class="node">
<title>Node2</title>
<g id="a_Node000002"><a xlink:title=" ">
<polygon fill="white" stroke="#666666" points="637,-57.5 449,-57.5 449,-38.5 637,-38.5 637,-57.5"/>
<text text-anchor="middle" x="543" y="-45.5" font-family="Helvetica,sans-Serif" font-size="10.00">std::unique_ptr&lt; NodeDescriptor &gt;</text>
</a>
</g>
</g>
<!-- Node2&#45;&gt;Node1 -->
<g id="edge1_Node000001_Node000002" class="edge">
<title>Node2&#45;&gt;Node1</title>
<g id="a_edge1_Node000001_Node000002"><a xlink:title=" ">
<path fill="none" stroke="#9a32cd" stroke-dasharray="5,2" d="M647.54,-48C670.02,-48 692.97,-48 712.75,-48"/>
<polygon fill="#9a32cd" stroke="#9a32cd" points="647.26,-44.5 637.26,-48 647.26,-51.5 647.26,-44.5"/>
</a>
</g>
<text text-anchor="middle" x="675" y="-51" font-family="Helvetica,sans-Serif" font-size="10.00" fill="grey"> content</text>
</g>
<!-- Node3 -->
<g id="Node000003" class="node">
<title>Node3</title>
<g id="a_Node000003"><a xlink:href="structDirektDSP_1_1NodeDescriptor.html" target="_top" xlink:title=" ">
<polygon fill="white" stroke="#666666" points="396,-57.5 248,-57.5 248,-38.5 396,-38.5 396,-57.5"/>
<text text-anchor="middle" x="322" y="-45.5" font-family="Helvetica,sans-Serif" font-size="10.00">DirektDSP::NodeDescriptor</text>
</a>
</g>
</g>
<!-- Node3&#45;&gt;Node2 -->
<g id="edge2_Node000002_Node000003" class="edge">
<title>Node3&#45;&gt;Node2</title>
<g id="a_edge2_Node000002_Node000003"><a xlink:title=" ">
<path fill="none" stroke="#9a32cd" stroke-dasharray="5,2" d="M406.27,-48C420.23,-48 434.79,-48 448.98,-48"/>
<polygon fill="#9a32cd" stroke="#9a32cd" points="406.23,-44.5 396.23,-48 406.23,-51.5 406.23,-44.5"/>
</a>
</g>
<text text-anchor="middle" x="422.5" y="-51" font-family="Helvetica,sans-Serif" font-size="10.00" fill="grey"> ptr</text>
</g>
<!-- Node4 -->
<g id="Node000004" class="node">
<title>Node4</title>
<g id="a_Node000004"><a xlink:title=" ">
<polygon fill="white" stroke="#666666" points="211,-96 0,-96 0,0 211,0 211,-96"/>
<text text-anchor="start" x="8" y="-84" font-family="Helvetica,sans-Serif" font-size="10.00">std::variant&lt; KnobDesc,</text>
<text text-anchor="start" x="8" y="-73" font-family="Helvetica,sans-Serif" font-size="10.00"> ToggleDesc, ComboBoxDesc,</text>
<text text-anchor="start" x="8" y="-62" font-family="Helvetica,sans-Serif" font-size="10.00"> SliderDesc, ButtonDesc,</text>
<text text-anchor="start" x="8" y="-51" font-family="Helvetica,sans-Serif" font-size="10.00"> RadioGroupDesc, XYPadDesc,</text>
<text text-anchor="start" x="8" y="-40" font-family="Helvetica,sans-Serif" font-size="10.00"> MacroDesc, MeterDesc, LabelDesc,</text>
<text text-anchor="start" x="8" y="-29" font-family="Helvetica,sans-Serif" font-size="10.00"> SpacerDesc, DividerDesc, SectionDesc,</text>
<text text-anchor="start" x="8" y="-18" font-family="Helvetica,sans-Serif" font-size="10.00"> HBoxDesc, VBoxDesc, TabPanelDesc,</text>
<text text-anchor="middle" x="105.5" y="-7" font-family="Helvetica,sans-Serif" font-size="10.00"> CustomDesc &gt;</text>
</a>
</g>
</g>
<!-- Node4&#45;&gt;Node3 -->
<g id="edge3_Node000003_Node000004" class="edge">
<title>Node4&#45;&gt;Node3</title>
<g id="a_edge3_Node000003_Node000004"><a xlink:title=" ">
<path fill="none" stroke="#63b8ff" d="M221.35,-48C230.3,-48 239.17,-48 247.73,-48"/>
<polygon fill="#63b8ff" stroke="#63b8ff" points="221.24,-44.5 211.24,-48 221.24,-51.5 221.24,-44.5"/>
</a>
</g>
</g>
</g>
</svg>
