<?xml version="1.0" encoding="UTF-8" standalone="no"?>
<!DOCTYPE svg PUBLIC "-//W3C//DTD SVG 1.1//EN"
 "http://www.w3.org/Graphics/SVG/1.1/DTD/svg11.dtd">
<!-- Generated by graphviz version 2.43.0 (0)
 -->
<!-- Title: DirektDSP::BuildContext Pages: 1 -->
<svg width="896pt" height="129pt"
 viewBox="0.00 0.00 896.00 128.50" xmlns="http://www.w3.org/2000/svg" xmlns:xlink="http://www.w3.org/1999/xlink">
<g id="graph0" class="graph" transform="scale(1 1) rotate(0) translate(4 124.5)">
<title>DirektDSP::BuildContext</title>
<!-- Node1 -->
<g id="Node000001" class="node">
<title>Node1</title>
<g id="a_Node000001"><a xlink:title=" ">
<polygon fill="#999999" stroke="#666666" points="888,-72.5 753,-72.5 753,-53.5 888,-53.5 888,-72.5"/>
<text text-anchor="middle" x="820.5" y="-60.5" font-family="Helvetica,sans-Serif" font-size="10.00">DirektDSP::BuildContext</text>
</a>
</g>
</g>
<!-- Node2 -->
<g id="Node000002" class="node">
<title>Node2</title>
<g id="a_Node000002"><a xlink:href="classDirektDSP_1_1DirektLookAndFeel.html" target="_top" xlink:title=" ">
<polygon fill="white" stroke="#666666" points="625.5,-118.5 461.5,-118.5 461.5,-99.5 625.5,-99.5 625.5,-118.5"/>
<text text-anchor="middle" x="543.5" y="-106.5" font-family="Helvetica,sans-Serif" font-size="10.00">DirektDSP::DirektLookAndFeel</text>
</a>
</g>
</g>
<!-- Node2&#45;&gt;Node1 -->
<g id="edge1_Node000001_Node000002" class="edge">
<title>Node2&#45;&gt;Node1</title>
<g id="a_edge1_Node000001_Node000002"><a xlink:title=" ">
<path fill="none" stroke="#9a32cd" stroke-dasharray="5,2" d="M614.52,-97.85C650.54,-92.06 695.14,-84.78 735,-78 745.14,-76.28 755.95,-74.39 766.33,-72.56"/>
<polygon fill="#9a32cd" stroke="#9a32cd" points="613.91,-94.4 604.6,-99.45 615.02,-101.32 613.91,-94.4"/>
</a>
</g>
<text text-anchor="middle" x="690" y="-95" font-family="Helvetica,sans-Serif" font-size="10.00" fill="grey"> lookAndFeel</text>
</g>
<!-- Node3 -->
<g id="Node000003" class="node">
<title>Node3</title>
<g id="a_Node000003"><a xlink:title=" ">
<polygon fill="white" stroke="#666666" points="367.5,-120.5 244.5,-120.5 244.5,-101.5 367.5,-101.5 367.5,-120.5"/>
<text text-anchor="middle" x="306" y="-108.5" font-family="Helvetica,sans-Serif" font-size="10.00">juce::LookAndFeel_V4</text>
</a>
</g>
</g>
<!-- Node3&#45;&gt;Node2 -->
<g id="edge2_Node000002_Node000003" class="edge">
<title>Node3&#45;&gt;Node2</title>
<g id="a_edge2_Node000002_Node000003"><a xlink:title=" ">
<path fill="none" stroke="#63b8ff" d="M377.89,-110.4C404.13,-110.18 434.09,-109.92 461.19,-109.69"/>
<polygon fill="#63b8ff" stroke="#63b8ff" points="377.62,-106.9 367.65,-110.48 377.68,-113.9 377.62,-106.9"/>
</a>
</g>
</g>
<!-- Node4 -->
<g id="Node000004" class="node">
<title>Node4</title>
<g id="a_Node000004"><a xlink:href="classDirektDSP_1_1DirektParameterHistory.html" target="_top" xlink:title="Maintains undo/redo history for APVTS parameter edits.">
<polygon fill="white" stroke="#666666" points="619.5,-78 467.5,-78 467.5,-48 619.5,-48 619.5,-78"/>
<text text-anchor="start" x="475.5" y="-66" font-family="Helvetica,sans-Serif" font-size="10.00">DirektDSP::DirektParameter</text>
<text text-anchor="middle" x="543.5" y="-55" font-family="Helvetica,sans-Serif" font-size="10.00">History</text>
</a>
</g>
</g>
<!-- Node4&#45;&gt;Node1 -->
<g id="edge3_Node000001_Node000004" class="edge">
<title>Node4&#45;&gt;Node1</title>
<g id="a_edge3_Node000001_Node000004"><a xlink:title=" ">
<path fill="none" stroke="#9a32cd" stroke-dasharray="5,2" d="M629.83,-63C669.46,-63 715.89,-63 752.89,-63"/>
<polygon fill="#9a32cd" stroke="#9a32cd" points="629.64,-59.5 619.64,-63 629.64,-66.5 629.64,-59.5"/>
</a>
</g>
<text text-anchor="middle" x="690" y="-66" font-family="Helvetica,sans-Serif" font-size="10.00" fill="grey"> parameterHistory</text>
</g>
<!-- Node5 -->
<g id="Node000005" class="node">
<title>Node5</title>
<g id="a_Node000005"><a xlink:title=" ">
<polygon fill="white" stroke="#666666" points="375,-83.5 237,-83.5 237,-42.5 375,-42.5 375,-83.5"/>
<text text-anchor="start" x="245" y="-71.5" font-family="Helvetica,sans-Serif" font-size="10.00">std::vector&lt; DirektDSP</text>
<text text-anchor="start" x="245" y="-60.5" font-family="Helvetica,sans-Serif" font-size="10.00">::DirektParameterHistory</text>
<text text-anchor="middle" x="306" y="-49.5" font-family="Helvetica,sans-Serif" font-size="10.00">::ParameterChange &gt;</text>
</a>
</g>
</g>
<!-- Node5&#45;&gt;Node4 -->
<g id="edge4_Node000004_Node000005" class="edge">
<title>Node5&#45;&gt;Node4</title>
<g id="a_edge4_Node000004_Node000005"><a xlink:title=" ">
<path fill="none" stroke="#9a32cd" stroke-dasharray="5,2" d="M385.43,-63C411.75,-63 441.02,-63 467.11,-63"/>
<polygon fill="#9a32cd" stroke="#9a32cd" points="385.12,-59.5 375.12,-63 385.12,-66.5 385.12,-59.5"/>
</a>
</g>
<text text-anchor="middle" x="417.5" y="-66" font-family="Helvetica,sans-Serif" font-size="10.00" fill="grey"> history</text>
</g>
<!-- Node6 -->
<g id="Node000006" class="node">
<title>Node6</title>
<g id="a_Node000006"><a xlink:href="structDirektDSP_1_1DirektParameterHistory_1_1ParameterChange.html" target="_top" xlink:title=" ">
<polygon fill="white" stroke="#666666" points="152,-78 0,-78 0,-48 152,-48 152,-78"/>
<text text-anchor="start" x="8" y="-66" font-family="Helvetica,sans-Serif" font-size="10.00">DirektDSP::DirektParameter</text>
<text text-anchor="middle" x="76" y="-55" font-family="Helvetica,sans-Serif" font-size="10.00">History::ParameterChange</text>
</a>
</g>
</g>
<!-- Node6&#45;&gt;Node5 -->
<g id="edge5_Node000005_Node000006" class="edge">
<title>Node6&#45;&gt;Node5</title>
<g id="a_edge5_Node000005_Node000006"><a xlink:title=" ">
<path fill="none" stroke="#9a32cd" stroke-dasharray="5,2" d="M162.32,-63C186.88,-63 213.33,-63 236.72,-63"/>
<polygon fill="#9a32cd" stroke="#9a32cd" points="162.29,-59.5 152.29,-63 162.29,-66.5 162.29,-59.5"/>
</a>
</g>
<text text-anchor="middle" x="194.5" y="-66" font-family="Helvetica,sans-Serif" font-size="10.00" fill="grey"> elements</text>
</g>
<!-- Node7 -->
<g id="Node000007" class="node">
<title>Node7</title>
<g id="a_Node000007"><a xlink:title=" ">
<polygon fill="white" stroke="#666666" points="627,-30 460,-30 460,0 627,0 627,-30"/>
<text text-anchor="start" x="468" y="-18" font-family="Helvetica,sans-Serif" font-size="10.00">std::map&lt; juce::String,</text>
<text text-anchor="middle" x="543.5" y="-7" font-family="Helvetica,sans-Serif" font-size="10.00"> const std::atomic&lt; float &gt; * &gt;</text>
</a>
</g>
</g>
<!-- Node7&#45;&gt;Node1 -->
<g id="edge6_Node000001_Node000007" class="edge">
<title>Node7&#45;&gt;Node1</title>
<g id="a_edge6_Node000001_Node000007"><a xlink:title=" ">
<path fill="none" stroke="#9a32cd" stroke-dasharray="5,2" d="M637,-30.94C668.14,-36.33 703.08,-42.4 735,-48 744.98,-49.75 755.62,-51.63 765.86,-53.44"/>
<polygon fill="#9a32cd" stroke="#9a32cd" points="637.48,-27.48 627.03,-29.22 636.29,-34.37 637.48,-27.48"/>
</a>
</g>
<text text-anchor="middle" x="690" y="-51" font-family="Helvetica,sans-Serif" font-size="10.00" fill="grey"> meterSources</text>
</g>
<!-- Node8 -->
<g id="Node000008" class="node">
<title>Node8</title>
<g id="a_Node000008"><a xlink:title=" ">
<polygon fill="white" stroke="#666666" points="364,-24.5 248,-24.5 248,-5.5 364,-5.5 364,-24.5"/>
<text text-anchor="middle" x="306" y="-12.5" font-family="Helvetica,sans-Serif" font-size="10.00">std::atomic&lt; float &gt;</text>
</a>
</g>
</g>
<!-- Node8&#45;&gt;Node7 -->
<g id="edge7_Node000007_Node000008" class="edge">
<title>Node8&#45;&gt;Node7</title>
<g id="a_edge7_Node000007_Node000008"><a xlink:title=" ">
<path fill="none" stroke="#9a32cd" stroke-dasharray="5,2" d="M374.01,-15C400.7,-15 431.68,-15 459.75,-15"/>
<polygon fill="#9a32cd" stroke="#9a32cd" points="374.01,-11.5 364.01,-15 374.01,-18.5 374.01,-11.5"/>
</a>
</g>
<text text-anchor="middle" x="417.5" y="-18" font-family="Helvetica,sans-Serif" font-size="10.00" fill="grey"> elements</text>
</g>
</g>
</svg>
