<?xml version="1.0" encoding="UTF-8" standalone="no"?>
<!DOCTYPE svg PUBLIC "-//W3C//DTD SVG 1.1//EN"
 "http://www.w3.org/Graphics/SVG/1.1/DTD/svg11.dtd">
<!-- Generated by graphviz version 2.43.0 (0)
 -->
<!-- Title: DirektDSP::BuiltSection Pages: 1 -->
<svg width="936pt" height="138pt"
 viewBox="0.00 0.00 936.00 137.50" xmlns="http://www.w3.org/2000/svg" xmlns:xlink="http://www.w3.org/1999/xlink">
<g id="graph0" class="graph" transform="scale(1 1) rotate(0) translate(4 133.5)">
<title>DirektDSP::BuiltSection</title>
<!-- Node1 -->
<g id="Node000001" class="node">
<title>Node1</title>
<g id="a_Node000001"><a xlink:title=" ">
<polygon fill="#999999" stroke="#666666" points="928,-56.5 797,-56.5 797,-37.5 928,-37.5 928,-56.5"/>
<text text-anchor="middle" x="862.5" y="-44.5" font-family="Helvetica,sans-Serif" font-size="10.00">DirektDSP::BuiltSection</text>
</a>
</g>
</g>
<!-- Node2 -->
<g id="Node000002" class="node">
<title>Node2</title>
<g id="a_Node000002"><a xlink:title=" ">
<polygon fill="white" stroke="#666666" points="722,-89 572,-89 572,-59 722,-59 722,-89"/>
<text text-anchor="start" x="580" y="-77" font-family="Helvetica,sans-Serif" font-size="10.00">std::unique_ptr&lt; DirektDSP</text>
<text text-anchor="middle" x="647" y="-66" font-family="Helvetica,sans-Serif" font-size="10.00">::DirektSection &gt;</text>
</a>
</g>
</g>
<!-- Node2&#45;&gt;Node1 -->
<g id="edge1_Node000001_Node000002" class="edge">
<title>Node2&#45;&gt;Node1</title>
<g id="a_edge1_Node000001_Node000002"><a xlink:title=" ">
<path fill="none" stroke="#9a32cd" stroke-dasharray="5,2" d="M732.18,-63.35C753.68,-60.64 776.46,-57.75 796.81,-55.18"/>
<polygon fill="#9a32cd" stroke="#9a32cd" points="731.55,-59.91 722.07,-64.63 732.43,-66.85 731.55,-59.91"/>
</a>
</g>
<text text-anchor="middle" x="759.5" y="-65" font-family="Helvetica,sans-Serif" font-size="10.00" fill="grey"> section</text>
</g>
<!-- Node3 -->
<g id="Node000003" class="node">
<title>Node3</title>
<g id="a_Node000003"><a xlink:href="classDirektDSP_1_1DirektSection.html" target="_top" xlink:title=" ">
<polygon fill="white" stroke="#666666" points="384,-85.5 246,-85.5 246,-66.5 384,-66.5 384,-85.5"/>
<text text-anchor="middle" x="315" y="-73.5" font-family="Helvetica,sans-Serif" font-size="10.00">DirektDSP::DirektSection</text>
</a>
</g>
</g>
<!-- Node3&#45;&gt;Node2 -->
<g id="edge2_Node000002_Node000003" class="edge">
<title>Node3&#45;&gt;Node2</title>
<g id="a_edge2_Node000002_Node000003"><a xlink:title=" ">
<path fill="none" stroke="#9a32cd" stroke-dasharray="5,2" d="M394.55,-75.52C448.33,-75.2 519.19,-74.77 571.97,-74.45"/>
<polygon fill="#9a32cd" stroke="#9a32cd" points="394.35,-72.02 384.38,-75.59 394.4,-79.02 394.35,-72.02"/>
</a>
</g>
<text text-anchor="middle" x="478" y="-78" font-family="Helvetica,sans-Serif" font-size="10.00" fill="grey"> ptr</text>
</g>
<!-- Node4 -->
<g id="Node000004" class="node">
<title>Node4</title>
<g id="a_Node000004"><a xlink:title=" ">
<polygon fill="white" stroke="#666666" points="110,-129.5 11,-129.5 11,-110.5 110,-110.5 110,-129.5"/>
<text text-anchor="middle" x="60.5" y="-117.5" font-family="Helvetica,sans-Serif" font-size="10.00">juce::Component</text>
</a>
</g>
</g>
<!-- Node4&#45;&gt;Node3 -->
<g id="edge3_Node000003_Node000004" class="edge">
<title>Node4&#45;&gt;Node3</title>
<g id="a_edge3_Node000003_Node000004"><a xlink:title=" ">
<path fill="none" stroke="#63b8ff" d="M120.36,-109.75C152.22,-104.2 192.27,-97.23 228,-91 238.15,-89.23 248.98,-87.34 259.41,-85.52"/>
<polygon fill="#63b8ff" stroke="#63b8ff" points="119.56,-106.34 110.31,-111.5 120.77,-113.23 119.56,-106.34"/>
</a>
</g>
</g>
<!-- Node5 -->
<g id="Node000005" class="node">
<title>Node5</title>
<g id="a_Node000005"><a xlink:title=" ">
<polygon fill="white" stroke="#666666" points="113.5,-92 7.5,-92 7.5,-62 113.5,-62 113.5,-92"/>
<text text-anchor="start" x="15.5" y="-80" font-family="Helvetica,sans-Serif" font-size="10.00">std::vector&lt; juce::</text>
<text text-anchor="middle" x="60.5" y="-69" font-family="Helvetica,sans-Serif" font-size="10.00">Component * &gt;</text>
</a>
</g>
</g>
<!-- Node5&#45;&gt;Node3 -->
<g id="edge4_Node000003_Node000005" class="edge">
<title>Node5&#45;&gt;Node3</title>
<g id="a_edge4_Node000003_Node000005"><a xlink:title=" ">
<path fill="none" stroke="#9a32cd" stroke-dasharray="5,2" d="M123.67,-76.75C160.69,-76.61 207.71,-76.42 245.75,-76.27"/>
<polygon fill="#9a32cd" stroke="#9a32cd" points="123.5,-73.25 113.51,-76.79 123.53,-80.25 123.5,-73.25"/>
</a>
</g>
<text text-anchor="middle" x="183.5" y="-79" font-family="Helvetica,sans-Serif" font-size="10.00" fill="grey"> controls</text>
</g>
<!-- Node6 -->
<g id="Node000006" class="node">
<title>Node6</title>
<g id="a_Node000006"><a xlink:title=" ">
<polygon fill="white" stroke="#666666" points="121,-34 0,-34 0,-4 121,-4 121,-34"/>
<text text-anchor="start" x="8" y="-22" font-family="Helvetica,sans-Serif" font-size="10.00">std::unique_ptr&lt; juce</text>
<text text-anchor="middle" x="60.5" y="-11" font-family="Helvetica,sans-Serif" font-size="10.00">::Component &gt;</text>
</a>
</g>
</g>
<!-- Node6&#45;&gt;Node3 -->
<g id="edge5_Node000003_Node000006" class="edge">
<title>Node6&#45;&gt;Node3</title>
<g id="a_edge5_Node000003_Node000006"><a xlink:title=" ">
<path fill="none" stroke="#9a32cd" stroke-dasharray="5,2" d="M131.04,-34.7C176.16,-44.88 233.5,-57.83 271.85,-66.48"/>
<polygon fill="#9a32cd" stroke="#9a32cd" points="131.54,-31.22 121.02,-32.44 130,-38.05 131.54,-31.22"/>
</a>
</g>
<text text-anchor="middle" x="183.5" y="-59" font-family="Helvetica,sans-Serif" font-size="10.00" fill="grey"> titleBarAccessory</text>
</g>
<!-- Node7 -->
<g id="Node000007" class="node">
<title>Node7</title>
<g id="a_Node000007"><a xlink:title=" ">
<polygon fill="white" stroke="#666666" points="554,-30 402,-30 402,0 554,0 554,-30"/>
<text text-anchor="start" x="410" y="-18" font-family="Helvetica,sans-Serif" font-size="10.00">std::vector&lt; std::unique</text>
<text text-anchor="middle" x="478" y="-7" font-family="Helvetica,sans-Serif" font-size="10.00">_ptr&lt; juce::Component &gt; &gt;</text>
</a>
</g>
</g>
<!-- Node6&#45;&gt;Node7 -->
<g id="edge7_Node000007_Node000006" class="edge">
<title>Node6&#45;&gt;Node7</title>
<g id="a_edge7_Node000007_Node000006"><a xlink:title=" ">
<path fill="none" stroke="#9a32cd" stroke-dasharray="5,2" d="M131.3,-18.33C206.21,-17.61 324.79,-16.47 401.74,-15.72"/>
<polygon fill="#9a32cd" stroke="#9a32cd" points="131,-14.83 121.03,-18.43 131.06,-21.83 131,-14.83"/>
</a>
</g>
<text text-anchor="middle" x="183.5" y="-22" font-family="Helvetica,sans-Serif" font-size="10.00" fill="grey"> elements</text>
</g>
<!-- Node7&#45;&gt;Node1 -->
<g id="edge6_Node000001_Node000007" class="edge">
<title>Node7&#45;&gt;Node1</title>
<g id="a_edge6_Node000001_Node000007"><a xlink:title=" ">
<path fill="none" stroke="#9a32cd" stroke-dasharray="5,2" d="M564.27,-22.13C634.56,-28.01 732.76,-36.23 796.74,-41.58"/>
<polygon fill="#9a32cd" stroke="#9a32cd" points="564.37,-18.63 554.11,-21.28 563.79,-25.61 564.37,-18.63"/>
</a>
</g>
<text text-anchor="middle" x="647" y="-39" font-family="Helvetica,sans-Serif" font-size="10.00" fill="grey"> controls</text>
</g>
</g>
</svg>
