<?xml version="1.0" encoding="UTF-8" standalone="no"?>
<!DOCTYPE svg PUBLIC "-//W3C//DTD SVG 1.1//EN"
 "http://www.w3.org/Graphics/SVG/1.1/DTD/svg11.dtd">
<!-- Generated by graphviz version 2.43.0 (0)
 -->
<!-- Title: DirektDSP::ToggleDesc Pages: 1 -->
<svg width="136pt" height="159pt"
 viewBox="0.00 0.00 136.00 159.00" xmlns="http://www.w3.org/2000/svg" xmlns:xlink="http://www.w3.org/1999/xlink">
<g id="graph0" class="graph" transform="scale(1 1) rotate(0) translate(4 155)">
<title>DirektDSP::ToggleDesc</title>
<!-- Node1 -->
<g id="Node000001" class="node">
<title>Node1</title>
<g id="a_Node000001"><a xlink:title=" ">
<polygon fill="#999999" stroke="#666666" points="128,-19 0,-19 0,0 128,0 128,-19"/>
<text text-anchor="middle" x="64" y="-7" font-family="Helvetica,sans-Serif" font-size="10.00">DirektDSP::ToggleDesc</text>
</a>
</g>
</g>
<!-- Node2 -->
<g id="Node000002" class="node">
<title>Node2</title>
<g id="a_Node000002"><a xlink:href="structDirektDSP_1_1NodeProps.html" target="_top" xlink:title=" ">
<polygon fill="white" stroke="#666666" points="126.5,-85 1.5,-85 1.5,-66 126.5,-66 126.5,-85"/>
<text text-anchor="middle" x="64" y="-73" font-family="Helvetica,sans-Serif" font-size="10.00">DirektDSP::NodeProps</text>
</a>
</g>
</g>
<!-- Node2&#45;&gt;Node1 -->
<g id="edge1_Node000001_Node000002" class="edge">
<title>Node2&#45;&gt;Node1</title>
<g id="a_edge1_Node000001_Node000002"><a xlink:title=" ">
<path fill="none" stroke="#9a32cd" stroke-dasharray="5,2" d="M64,-55.58C64,-43.63 64,-28.72 64,-19.41"/>
<polygon fill="#9a32cd" stroke="#9a32cd" points="60.5,-55.87 64,-65.87 67.5,-55.87 60.5,-55.87"/>
</a>
</g>
<text text-anchor="middle" x="79.5" y="-40" font-family="Helvetica,sans-Serif" font-size="10.00" fill="grey"> props</text>
</g>
<!-- Node3 -->
<g id="Node000003" class="node">
<title>Node3</title>
<g id="a_Node000003"><a xlink:href="structDirektDSP_1_1SizeHint.html" target="_top" xlink:title=" ">
<polygon fill="white" stroke="#666666" points="120.5,-151 7.5,-151 7.5,-132 120.5,-132 120.5,-151"/>
<text text-anchor="middle" x="64" y="-139" font-family="Helvetica,sans-Serif" font-size="10.00">DirektDSP::SizeHint</text>
</a>
</g>
</g>
<!-- Node3&#45;&gt;Node2 -->
<g id="edge2_Node000002_Node000003" class="edge">
<title>Node3&#45;&gt;Node2</title>
<g id="a_edge2_Node000002_Node000003"><a xlink:title=" ">
<path fill="none" stroke="#9a32cd" stroke-dasharray="5,2" d="M64,-121.58C64,-109.63 64,-94.72 64,-85.41"/>
<polygon fill="#9a32cd" stroke="#9a32cd" points="60.5,-121.87 64,-131.87 67.5,-121.87 60.5,-121.87"/>
</a>
</g>
<text text-anchor="middle" x="75.5" y="-106" font-family="Helvetica,sans-Serif" font-size="10.00" fill="grey"> size</text>
</g>
</g>
</svg>
