<?xml version="1.0" encoding="UTF-8" standalone="no"?>
<!DOCTYPE svg PUBLIC "-//W3C//DTD SVG 1.1//EN"
 "http://www.w3.org/Graphics/SVG/1.1/DTD/svg11.dtd">
<!-- Generated by graphviz version 2.43.0 (0)
 -->
<!-- Title: DirektDSP::BuiltNode Pages: 1 -->
<svg width="598pt" height="71pt"
 viewBox="0.00 0.00 598.00 71.00" xmlns="http://www.w3.org/2000/svg" xmlns:xlink="http://www.w3.org/1999/xlink">
<g id="graph0" class="graph" transform="scale(1 1) rotate(0) translate(4 67)">
<title>DirektDSP::BuiltNode</title>
<!-- Node1 -->
<g id="Node000001" class="node">
<title>Node1</title>
<g id="a_Node000001"><a xlink:title=" ">
<polygon fill="#999999" stroke="#666666" points="590,-56.5 470,-56.5 470,-37.5 590,-37.5 590,-56.5"/>
<text text-anchor="middle" x="530" y="-44.5" font-family="Helvetica,sans-Serif" font-size="10.00">DirektDSP::BuiltNode</text>
</a>
</g>
</g>
<!-- Node2 -->
<g id="Node000002" class="node">
<title>Node2</title>
<g id="a_Node000002"><a xlink:title=" ">
<polygon fill="white" stroke="#666666" points="121,-56 0,-56 0,-26 121,-26 121,-56"/>
<text text-anchor="start" x="8" y="-44" font-family="Helvetica,sans-Serif" font-size="10.00">std::unique_ptr&lt; juce</text>
<text text-anchor="middle" x="60.5" y="-33" font-family="Helvetica,sans-Serif" font-size="10.00">::Component &gt;</text>
</a>
</g>
</g>
<!-- Node2&#45;&gt;Node1 -->
<g id="edge1_Node000001_Node000002" class="edge">
<title>Node2&#45;&gt;Node1</title>
<g id="a_edge1_Node000001_Node000002"><a xlink:title=" ">
<path fill="none" stroke="#9a32cd" stroke-dasharray="5,2" d="M131.28,-45.64C133.89,-45.77 136.47,-45.89 139,-46 278,-51.95 312.92,-54.61 452,-51 457.75,-50.85 463.75,-50.64 469.74,-50.39"/>
<polygon fill="#9a32cd" stroke="#9a32cd" points="131.32,-42.14 121.15,-45.11 130.95,-49.13 131.32,-42.14"/>
</a>
</g>
<text text-anchor="middle" x="282" y="-55" font-family="Helvetica,sans-Serif" font-size="10.00" fill="grey"> component</text>
</g>
<!-- Node3 -->
<g id="Node000003" class="node">
<title>Node3</title>
<g id="a_Node000003"><a xlink:title=" ">
<polygon fill="white" stroke="#666666" points="358,-30 206,-30 206,0 358,0 358,-30"/>
<text text-anchor="start" x="214" y="-18" font-family="Helvetica,sans-Serif" font-size="10.00">std::vector&lt; std::unique</text>
<text text-anchor="middle" x="282" y="-7" font-family="Helvetica,sans-Serif" font-size="10.00">_ptr&lt; juce::Component &gt; &gt;</text>
</a>
</g>
</g>
<!-- Node2&#45;&gt;Node3 -->
<g id="edge3_Node000003_Node000002" class="edge">
<title>Node2&#45;&gt;Node3</title>
<g id="a_edge3_Node000003_Node000002"><a xlink:title=" ">
<path fill="none" stroke="#9a32cd" stroke-dasharray="5,2" d="M131.16,-32.75C154.86,-29.94 181.47,-26.79 205.6,-23.93"/>
<polygon fill="#9a32cd" stroke="#9a32cd" points="130.71,-29.28 121.19,-33.93 131.53,-36.23 130.71,-29.28"/>
</a>
</g>
<text text-anchor="middle" x="163.5" y="-34" font-family="Helvetica,sans-Serif" font-size="10.00" fill="grey"> elements</text>
</g>
<!-- Node3&#45;&gt;Node1 -->
<g id="edge2_Node000001_Node000003" class="edge">
<title>Node3&#45;&gt;Node1</title>
<g id="a_edge2_Node000001_Node000003"><a xlink:title=" ">
<path fill="none" stroke="#9a32cd" stroke-dasharray="5,2" d="M368.4,-26.11C401.89,-30.47 439.51,-35.36 469.91,-39.31"/>
<polygon fill="#9a32cd" stroke="#9a32cd" points="368.51,-22.59 358.14,-24.77 367.61,-29.54 368.51,-22.59"/>
</a>
</g>
<text text-anchor="middle" x="414" y="-39" font-family="Helvetica,sans-Serif" font-size="10.00" fill="grey"> ownedChildren</text>
</g>
</g>
</svg>
