<?xml version="1.0" encoding="UTF-8" standalone="no"?>
<!DOCTYPE svg PUBLIC "-//W3C//DTD SVG 1.1//EN"
 "http://www.w3.org/Graphics/SVG/1.1/DTD/svg11.dtd">
<!-- Generated by graphviz version 2.43.0 (0)
 -->
<!-- Title: DirektDSP::TabDesc Pages: 1 -->
<svg width="890pt" height="104pt"
 viewBox="0.00 0.00 890.00 104.00" xmlns="http://www.w3.org/2000/svg" xmlns:xlink="http://www.w3.org/1999/xlink">
<g id="graph0" class="graph" transform="scale(1 1) rotate(0) translate(4 100)">
<title>DirektDSP::TabDesc</title>
<!-- Node1 -->
<g id="Node000001" class="node">
<title>Node1</title>
<g id="a_Node000001"><a xlink:title=" ">
<polygon fill="#999999" stroke="#666666" points="882,-57.5 769,-57.5 769,-38.5 882,-38.5 882,-57.5"/>
<text text-anchor="middle" x="825.5" y="-45.5" font-family="Helvetica,sans-Serif" font-size="10.00">DirektDSP::TabDesc</text>
</a>
</g>
</g>
<!-- Node2 -->
<g id="Node000002" class="node">
<title>Node2</title>
<g id="a_Node000002"><a xlink:title=" ">
<polygon fill="white" stroke="#666666" points="693,-57.5 505,-57.5 505,-38.5 693,-38.5 693,-57.5"/>
<text text-anchor="middle" x="599" y="-45.5" font-family="Helvetica,sans-Serif" font-size="10.00">std::unique_ptr&lt; NodeDescriptor &gt;</text>
</a>
</g>
</g>
<!-- Node2&#45;&gt;Node1 -->
<g id="edge1_Node000001_Node000002" class="edge">
<title>Node2&#45;&gt;Node1</title>
<g id="a_edge1_Node000001_Node000002"><a xlink:title=" ">
<path fill="none" stroke="#9a32cd" stroke-dasharray="5,2" d="M703.54,-48C726.02,-48 748.97,-48 768.75,-48"/>
<polygon fill="#9a32cd" stroke="#9a32cd" points="703.26,-44.5 693.26,-48 703.26,-51.5 703.26,-44.5"/>
</a>
</g>
<text text-anchor="middle" x="731" y="-51" font-family="Helvetica,sans-Serif" font-size="10.00" fill="grey"> content</text>
</g>
<!-- Node3 -->
<g id="Node000003" class="node">
<title>Node3</title>
<g id="a_Node000003"><a xlink:href="structDirektDSP_1_1NodeDescriptor.html" target="_top" xlink:title=" ">
<polygon fill="white" stroke="#666666" points="452,-57.5 304,-57.5 304,-38.5 452,-38.5 452,-57.5"/>
<text text-anchor="middle" x="378" y="-45.5" font-family="Helvetica,sans-Serif" font-size="10.00">DirektDSP::NodeDescriptor</text>
</a>
</g>
</g>
<!-- Node3&#45;&gt;Node2 -->
<g id="edge2_Node000002_Node000003" class="edge">
<title>Node3&#45;&gt;Node2</title>
<g id="a_edge2_Node000002_Node000003"><a xlink:title=" ">
<path fill="none" stroke="#9a32cd" stroke-dasharray="5,2" d="M462.27,-48C476.23,-48 490.79,-48 504.98,-48"/>
<polygon fill="#9a32cd" stroke="#9a32cd" points="462.23,-44.5 452.23,-48 462.23,-51.5 462.23,-44.5"/>
</a>
</g>
<text text-anchor="middle" x="478.5" y="-51" font-family="Helvetica,sans-Serif" font-size="10.00" fill="grey"> ptr</text>
</g>
<!-- Node4 -->
<g id="Node000004" class="node">
<title>Node4</title>
<g id="a_Node000004"><a xlink:title=" ">
<polygon fill="white" stroke="#666666" points="267,-96 0,-96 0,0 267,0 267,-96"/>
<text text-anchor="start" x="8" y="-84" font-family="Helvetica,sans-Serif" font-size="10.00">std::variant&lt; KnobDesc,</text>
<text text-anchor="start" x="8" y="-73" font-family="Helvetica,sans-Serif" font-size="10.00"> ToggleDesc, ComboBoxDesc,</text>
<text text-anchor="start" x="8" y="-62" font-family="Helvetica,sans-Serif" font-size="10.00"> MacroDesc, SliderDesc, ButtonDesc,</text>
<text text-anchor="start" x="8" y="-51" font-family="Helvetica,sans-Serif" font-size="10.00"> RadioGroupDesc, XYPadDesc, MeterDesc,</text>
<text text-anchor="start" x="8" y="-40" font-family="Helvetica,sans-Serif" font-size="10.00"> StereoMeterDesc, ClipIndicatorDesc,</text>
<text text-anchor="start" x="8" y="-29" font-family="Helvetica,sans-Serif" font-size="10.00"> LabelDesc, SpacerDesc, DividerDesc,</text>
<text text-anchor="start" x="8" y="-18" font-family="Helvetica,sans-Serif" font-size="10.00"> SectionDesc, HBoxDesc, VBoxDesc, TabPanelDesc,</text>
<text text-anchor="middle" x="133.5" y="-7" font-family="Helvetica,sans-Serif" font-size="10.00"> CustomDesc &gt;</text>
</a>
</g>
</g>
<!-- Node4&#45;&gt;Node3 -->
<g id="edge3_Node000003_Node000004" class="edge">
<title>Node4&#45;&gt;Node3</title>
<g id="a_edge3_Node000003_Node000004"><a xlink:title=" ">
<path fill="none" stroke="#63b8ff" d="M277.39,-48C286.46,-48 295.35,-48 303.87,-48"/>
<polygon fill="#63b8ff" stroke="#63b8ff" points="277.1,-44.5 267.1,-48 277.1,-51.5 277.1,-44.5"/>
</a>
</g>
</g>
</g>
</svg>
