<?xml version="1.0" encoding="UTF-8" standalone="no"?>
<!DOCTYPE svg PUBLIC "-//W3C//DTD SVG 1.1//EN"
 "http://www.w3.org/Graphics/SVG/1.1/DTD/svg11.dtd">
<!-- Generated by graphviz version 2.43.0 (0)
 -->
<!-- Title: DirektDSP::TabDesc Pages: 1 -->
<svg width="844pt" height="93pt"
 viewBox="0.00 0.00 844.00 93.00" xmlns="http://www.w3.org/2000/svg" xmlns:xlink="http://www.w3.org/1999/xlink">
<g id="graph0" class="graph" transform="scale(1 1) rotate(0) translate(4 89)">
<title>DirektDSP::TabDesc</title>
<!-- Node1 -->
<g id="Node000001" class="node">
<title>Node1</title>
<g id="a_Node000001"><a xlink:title=" ">
<polygon fill="#999999" stroke="#666666" points="836,-52 723,-52 723,-33 836,-33 836,-52"/>
<text text-anchor="middle" x="779.5" y="-40" font-family="Helvetica,sans-Serif" font-size="10.00">DirektDSP::TabDesc</text>
</a>
</g>
</g>
<!-- Node2 -->
<g id="Node000002" class="node">
<title>Node2</title>
<g id="a_Node000002"><a xlink:title=" ">
<polygon fill="white" stroke="#666666" points="647,-52 459,-52 459,-33 647,-33 647,-52"/>
<text text-anchor="middle" x="553" y="-40" font-family="Helvetica,sans-Serif" font-size="10.00">std::unique_ptr&lt; NodeDescriptor &gt;</text>
</a>
</g>
</g>
<!-- Node2&#45;&gt;Node1 -->
<g id="edge1_Node000001_Node000002" class="edge">
<title>Node2&#45;&gt;Node1</title>
<g id="a_edge1_Node000001_Node000002"><a xlink:title=" ">
<path fill="none" stroke="#9a32cd" stroke-dasharray="5,2" d="M657.54,-42.5C680.02,-42.5 702.97,-42.5 722.75,-42.5"/>
<polygon fill="#9a32cd" stroke="#9a32cd" points="657.26,-39 647.26,-42.5 657.26,-46 657.26,-39"/>
</a>
</g>
<text text-anchor="middle" x="685" y="-45.5" font-family="Helvetica,sans-Serif" font-size="10.00" fill="grey"> content</text>
</g>
<!-- Node3 -->
<g id="Node000003" class="node">
<title>Node3</title>
<g id="a_Node000003"><a xlink:href="structDirektDSP_1_1NodeDescriptor.html" target="_top" xlink:title=" ">
<polygon fill="white" stroke="#666666" points="406,-52 258,-52 258,-33 406,-33 406,-52"/>
<text text-anchor="middle" x="332" y="-40" font-family="Helvetica,sans-Serif" font-size="10.00">DirektDSP::NodeDescriptor</text>
</a>
</g>
</g>
<!-- Node3&#45;&gt;Node2 -->
<g id="edge2_Node000002_Node000003" class="edge">
<title>Node3&#45;&gt;Node2</title>
<g id="a_edge2_Node000002_Node000003"><a xlink:title=" ">
<path fill="none" stroke="#9a32cd" stroke-dasharray="5,2" d="M416.27,-42.5C430.23,-42.5 444.79,-42.5 458.98,-42.5"/>
<polygon fill="#9a32cd" stroke="#9a32cd" points="416.23,-39 406.23,-42.5 416.23,-46 416.23,-39"/>
</a>
</g>
<text text-anchor="middle" x="432.5" y="-45.5" font-family="Helvetica,sans-Serif" font-size="10.00" fill="grey"> ptr</text>
</g>
<!-- Node4 -->
<g id="Node000004" class="node">
<title>Node4</title>
<g id="a_Node000004"><a xlink:title=" ">
<polygon fill="white" stroke="#666666" points="221,-85 0,-85 0,0 221,0 221,-85"/>
<text text-anchor="start" x="8" y="-73" font-family="Helvetica,sans-Serif" font-size="10.00">std::variant&lt; KnobDesc,</text>
<text text-anchor="start" x="8" y="-62" font-family="Helvetica,sans-Serif" font-size="10.00"> ToggleDesc, ComboBoxDesc,</text>
<text text-anchor="start" x="8" y="-51" font-family="Helvetica,sans-Serif" font-size="10.00"> SliderDesc, ButtonDesc,</text>
<text text-anchor="start" x="8" y="-40" font-family="Helvetica,sans-Serif" font-size="10.00"> RadioGroupDesc, XYPadDesc,</text>
<text text-anchor="start" x="8" y="-29" font-family="Helvetica,sans-Serif" font-size="10.00"> MeterDesc, LabelDesc, SpacerDesc,</text>
<text text-anchor="start" x="8" y="-18" font-family="Helvetica,sans-Serif" font-size="10.00"> DividerDesc, SectionDesc, HBoxDesc,</text>
<text text-anchor="middle" x="110.5" y="-7" font-family="Helvetica,sans-Serif" font-size="10.00"> VBoxDesc, TabPanelDesc, CustomDesc &gt;</text>
</a>
</g>
</g>
<!-- Node4&#45;&gt;Node3 -->
<g id="edge3_Node000003_Node000004" class="edge">
<title>Node4&#45;&gt;Node3</title>
<g id="a_edge3_Node000003_Node000004"><a xlink:title=" ">
<path fill="none" stroke="#63b8ff" d="M231.44,-42.5C240.43,-42.5 249.34,-42.5 257.91,-42.5"/>
<polygon fill="#63b8ff" stroke="#63b8ff" points="231.25,-39 221.25,-42.5 231.25,-46 231.25,-39"/>
</a>
</g>
</g>
</g>
</svg>
