<?xml version="1.0" encoding="UTF-8" standalone="no"?>
<!DOCTYPE svg PUBLIC "-//W3C//DTD SVG 1.1//EN"
 "http://www.w3.org/Graphics/SVG/1.1/DTD/svg11.dtd">
<!-- Generated by graphviz version 2.43.0 (0)
 -->
<!-- Title: DirektDSP::TabPanelDesc Pages: 1 -->
<svg width="310pt" height="302pt"
 viewBox="0.00 0.00 309.50 302.00" xmlns="http://www.w3.org/2000/svg" xmlns:xlink="http://www.w3.org/1999/xlink">

<svg id="main" version="1.1" xmlns="http://www.w3.org/2000/svg" xmlns:xlink="http://www.w3.org/1999/xlink" xml:space="preserve" onload="init(evt)">
<style type="text/css"><![CDATA[
.node, .edge {opacity: 0.7;}
.node.selected, .edge.selected {opacity: 1;}
.edge:hover path { stroke: red; }
.edge:hover polygon { stroke: red; fill: red; }
]]></style>
<script type="application/ecmascript" xlink:href="svg.min.js"/>
<svg id="graph" class="graph">
<g id="graph0" class="graph" transform="scale(1 1) rotate(0) translate(4 298)">
<title>DirektDSP::TabPanelDesc</title>
<!-- Node1 -->
<g id="Node000001" class="node">
<title>Node1</title>
<g id="a_Node000001"><a xlink:title=" ">
<polygon fill="#999999" stroke="#666666" points="204,-19 65,-19 65,0 204,0 204,-19"/>
<text text-anchor="middle" x="134.5" y="-7" font-family="Helvetica,sans-Serif" font-size="10.00">DirektDSP::TabPanelDesc</text>
</a>
</g>
</g>
<!-- Node2 -->
<g id="Node000002" class="node">
<title>Node2</title>
<g id="a_Node000002"><a xlink:href="structDirektDSP_1_1NodeProps.html" target="_top" xlink:title=" ">
<polygon fill="white" stroke="#666666" points="125,-90.5 0,-90.5 0,-71.5 125,-71.5 125,-90.5"/>
<text text-anchor="middle" x="62.5" y="-78.5" font-family="Helvetica,sans-Serif" font-size="10.00">DirektDSP::NodeProps</text>
</a>
</g>
</g>
<!-- Node2&#45;&gt;Node1 -->
<g id="edge1_Node000001_Node000002" class="edge">
<title>Node2&#45;&gt;Node1</title>
<g id="a_edge1_Node000001_Node000002"><a xlink:title=" ">
<path fill="none" stroke="#9a32cd" stroke-dasharray="5,2" d="M78.64,-64.42C93.15,-50.42 113.9,-30.38 125.6,-19.09"/>
<polygon fill="#9a32cd" stroke="#9a32cd" points="76.09,-62.01 71.33,-71.48 80.95,-67.05 76.09,-62.01"/>
</a>
</g>
<text text-anchor="middle" x="120" y="-40" font-family="Helvetica,sans-Serif" font-size="10.00" fill="grey"> props</text>
</g>
<!-- Node3 -->
<g id="Node000003" class="node">
<title>Node3</title>
<g id="a_Node000003"><a xlink:href="structDirektDSP_1_1SizeHint.html" target="_top" xlink:title=" ">
<polygon fill="white" stroke="#666666" points="119,-162 6,-162 6,-143 119,-143 119,-162"/>
<text text-anchor="middle" x="62.5" y="-150" font-family="Helvetica,sans-Serif" font-size="10.00">DirektDSP::SizeHint</text>
</a>
</g>
</g>
<!-- Node3&#45;&gt;Node2 -->
<g id="edge2_Node000002_Node000003" class="edge">
<title>Node3&#45;&gt;Node2</title>
<g id="a_edge2_Node000002_Node000003"><a xlink:title=" ">
<path fill="none" stroke="#9a32cd" stroke-dasharray="5,2" d="M62.5,-132.71C62.5,-119 62.5,-101.05 62.5,-90.59"/>
<polygon fill="#9a32cd" stroke="#9a32cd" points="59,-132.98 62.5,-142.98 66,-132.98 59,-132.98"/>
</a>
</g>
<text text-anchor="middle" x="74" y="-117" font-family="Helvetica,sans-Serif" font-size="10.00" fill="grey"> size</text>
</g>
<!-- Node4 -->
<g id="Node000004" class="node">
<title>Node4</title>
<g id="a_Node000004"><a xlink:title=" ">
<polygon fill="white" stroke="#666666" points="272,-96 143,-96 143,-66 272,-66 272,-96"/>
<text text-anchor="start" x="151" y="-84" font-family="Helvetica,sans-Serif" font-size="10.00">std::vector&lt; DirektDSP</text>
<text text-anchor="middle" x="207.5" y="-73" font-family="Helvetica,sans-Serif" font-size="10.00">::TabDesc &gt;</text>
</a>
</g>
</g>
<!-- Node4&#45;&gt;Node1 -->
<g id="edge3_Node000001_Node000004" class="edge">
<title>Node4&#45;&gt;Node1</title>
<g id="a_edge3_Node000001_Node000004"><a xlink:title=" ">
<path fill="none" stroke="#9a32cd" stroke-dasharray="5,2" d="M185.38,-58.94C171.42,-45.65 154.11,-29.17 143.71,-19.27"/>
<polygon fill="#9a32cd" stroke="#9a32cd" points="183.07,-61.58 192.73,-65.94 187.9,-56.51 183.07,-61.58"/>
</a>
</g>
<text text-anchor="middle" x="185" y="-40" font-family="Helvetica,sans-Serif" font-size="10.00" fill="grey"> tabs</text>
</g>
<!-- Node5 -->
<g id="Node000005" class="node">
<title>Node5</title>
<g id="a_Node000005"><a xlink:href="structDirektDSP_1_1TabDesc.html" target="_top" xlink:title=" ">
<polygon fill="white" stroke="#666666" points="264,-162 151,-162 151,-143 264,-143 264,-162"/>
<text text-anchor="middle" x="207.5" y="-150" font-family="Helvetica,sans-Serif" font-size="10.00">DirektDSP::TabDesc</text>
</a>
</g>
</g>
<!-- Node5&#45;&gt;Node4 -->
<g id="edge4_Node000004_Node000005" class="edge">
<title>Node5&#45;&gt;Node4</title>
<g id="a_edge4_Node000004_Node000005"><a xlink:title=" ">
<path fill="none" stroke="#9a32cd" stroke-dasharray="5,2" d="M207.5,-132.71C207.5,-121.19 207.5,-106.68 207.5,-96.14"/>
<polygon fill="#9a32cd" stroke="#9a32cd" points="204,-132.98 207.5,-142.98 211,-132.98 204,-132.98"/>
</a>
</g>
<text text-anchor="middle" x="232" y="-117" font-family="Helvetica,sans-Serif" font-size="10.00" fill="grey"> elements</text>
</g>
<!-- Node6 -->
<g id="Node000006" class="node">
<title>Node6</title>
<g id="a_Node000006"><a xlink:title=" ">
<polygon fill="white" stroke="#666666" points="301.5,-228 113.5,-228 113.5,-209 301.5,-209 301.5,-228"/>
<text text-anchor="middle" x="207.5" y="-216" font-family="Helvetica,sans-Serif" font-size="10.00">std::unique_ptr&lt; NodeDescriptor &gt;</text>
</a>
</g>
</g>
<!-- Node6&#45;&gt;Node5 -->
<g id="edge5_Node000005_Node000006" class="edge">
<title>Node6&#45;&gt;Node5</title>
<g id="a_edge5_Node000005_Node000006"><a xlink:title=" ">
<path fill="none" stroke="#9a32cd" stroke-dasharray="5,2" d="M207.5,-198.58C207.5,-186.63 207.5,-171.72 207.5,-162.41"/>
<polygon fill="#9a32cd" stroke="#9a32cd" points="204,-198.87 207.5,-208.87 211,-198.87 204,-198.87"/>
</a>
</g>
<text text-anchor="middle" x="227.5" y="-183" font-family="Helvetica,sans-Serif" font-size="10.00" fill="grey"> content</text>
</g>
<!-- Node7 -->
<g id="Node000007" class="node">
<title>Node7</title>
<g id="a_Node000007"><a xlink:href="structDirektDSP_1_1NodeDescriptor.html" target="_top" xlink:title=" ">
<polygon fill="#fff0f0" stroke="red" points="281.5,-294 133.5,-294 133.5,-275 281.5,-275 281.5,-294"/>
<text text-anchor="middle" x="207.5" y="-282" font-family="Helvetica,sans-Serif" font-size="10.00">DirektDSP::NodeDescriptor</text>
</a>
</g>
</g>
<!-- Node7&#45;&gt;Node6 -->
<g id="edge6_Node000006_Node000007" class="edge">
<title>Node7&#45;&gt;Node6</title>
<g id="a_edge6_Node000006_Node000007"><a xlink:title=" ">
<path fill="none" stroke="#9a32cd" stroke-dasharray="5,2" d="M207.5,-264.58C207.5,-252.63 207.5,-237.72 207.5,-228.41"/>
<polygon fill="#9a32cd" stroke="#9a32cd" points="204,-264.87 207.5,-274.87 211,-264.87 204,-264.87"/>
</a>
</g>
<text text-anchor="middle" x="216" y="-249" font-family="Helvetica,sans-Serif" font-size="10.00" fill="grey"> ptr</text>
</g>
</g>
</svg>
</svg>

<style type='text/css'>
<![CDATA[
[data-mouse-over-selected='false'] { opacity: 0.7; }
[data-mouse-over-selected='true']  { opacity: 1.0; }
]]>
</style>
<script type="application/ecmascript"><![CDATA[
document.addEventListener('DOMContentLoaded', (event) => {
  highlightEdges();
  highlightAdjacentNodes();
});
]]></script>
</svg>
