<?xml version="1.0" encoding="UTF-8" standalone="no"?>
<!DOCTYPE svg PUBLIC "-//W3C//DTD SVG 1.1//EN"
 "http://www.w3.org/Graphics/SVG/1.1/DTD/svg11.dtd">
<!-- Generated by graphviz version 2.43.0 (0)
 -->
<!-- Title: DirektDSP::MacroKnobDesc Pages: 1 -->
<svg width="282pt" height="170pt"
 viewBox="0.00 0.00 281.50 170.00" xmlns="http://www.w3.org/2000/svg" xmlns:xlink="http://www.w3.org/1999/xlink">
<g id="graph0" class="graph" transform="scale(1 1) rotate(0) translate(4 166)">
<title>DirektDSP::MacroKnobDesc</title>
<!-- Node1 -->
<g id="Node000001" class="node">
<title>Node1</title>
<g id="a_Node000001"><a xlink:title="One rotary macro control that drives multiple parameters with independent ranges/curves.">
<polygon fill="#999999" stroke="#666666" points="210,-19 59,-19 59,0 210,0 210,-19"/>
<text text-anchor="middle" x="134.5" y="-7" font-family="Helvetica,sans-Serif" font-size="10.00">DirektDSP::MacroKnobDesc</text>
</a>
</g>
</g>
<!-- Node2 -->
<g id="Node000002" class="node">
<title>Node2</title>
<g id="a_Node000002"><a xlink:href="structDirektDSP_1_1NodeProps.html" target="_top" xlink:title=" ">
<polygon fill="white" stroke="#666666" points="125,-90.5 0,-90.5 0,-71.5 125,-71.5 125,-90.5"/>
<text text-anchor="middle" x="62.5" y="-78.5" font-family="Helvetica,sans-Serif" font-size="10.00">DirektDSP::NodeProps</text>
</a>
</g>
</g>
<!-- Node2&#45;&gt;Node1 -->
<g id="edge1_Node000001_Node000002" class="edge">
<title>Node2&#45;&gt;Node1</title>
<g id="a_edge1_Node000001_Node000002"><a xlink:title=" ">
<path fill="none" stroke="#9a32cd" stroke-dasharray="5,2" d="M78.64,-64.42C93.15,-50.42 113.9,-30.38 125.6,-19.09"/>
<polygon fill="#9a32cd" stroke="#9a32cd" points="76.09,-62.01 71.33,-71.48 80.95,-67.05 76.09,-62.01"/>
</a>
</g>
<text text-anchor="middle" x="121" y="-40" font-family="Helvetica,sans-Serif" font-size="10.00" fill="grey"> props</text>
</g>
<!-- Node3 -->
<g id="Node000003" class="node">
<title>Node3</title>
<g id="a_Node000003"><a xlink:href="structDirektDSP_1_1SizeHint.html" target="_top" xlink:title=" ">
<polygon fill="white" stroke="#666666" points="119,-162 6,-162 6,-143 119,-143 119,-162"/>
<text text-anchor="middle" x="62.5" y="-150" font-family="Helvetica,sans-Serif" font-size="10.00">DirektDSP::SizeHint</text>
</a>
</g>
</g>
<!-- Node3&#45;&gt;Node2 -->
<g id="edge2_Node000002_Node000003" class="edge">
<title>Node3&#45;&gt;Node2</title>
<g id="a_edge2_Node000002_Node000003"><a xlink:title=" ">
<path fill="none" stroke="#9a32cd" stroke-dasharray="5,2" d="M62.5,-132.71C62.5,-119 62.5,-101.05 62.5,-90.59"/>
<polygon fill="#9a32cd" stroke="#9a32cd" points="59,-132.98 62.5,-142.98 66,-132.98 59,-132.98"/>
</a>
</g>
<text text-anchor="middle" x="74" y="-117" font-family="Helvetica,sans-Serif" font-size="10.00" fill="grey"> size</text>
</g>
<!-- Node4 -->
<g id="Node000004" class="node">
<title>Node4</title>
<g id="a_Node000004"><a xlink:title=" ">
<polygon fill="white" stroke="#666666" points="272,-96 143,-96 143,-66 272,-66 272,-96"/>
<text text-anchor="start" x="151" y="-84" font-family="Helvetica,sans-Serif" font-size="10.00">std::vector&lt; DirektDSP</text>
<text text-anchor="middle" x="207.5" y="-73" font-family="Helvetica,sans-Serif" font-size="10.00">::MacroTarget &gt;</text>
</a>
</g>
</g>
<!-- Node4&#45;&gt;Node1 -->
<g id="edge3_Node000001_Node000004" class="edge">
<title>Node4&#45;&gt;Node1</title>
<g id="a_edge3_Node000001_Node000004"><a xlink:title=" ">
<path fill="none" stroke="#9a32cd" stroke-dasharray="5,2" d="M185.38,-58.94C171.42,-45.65 154.11,-29.17 143.71,-19.27"/>
<polygon fill="#9a32cd" stroke="#9a32cd" points="183.07,-61.58 192.73,-65.94 187.9,-56.51 183.07,-61.58"/>
</a>
</g>
<text text-anchor="middle" x="192.5" y="-40" font-family="Helvetica,sans-Serif" font-size="10.00" fill="grey"> targets</text>
</g>
<!-- Node5 -->
<g id="Node000005" class="node">
<title>Node5</title>
<g id="a_Node000005"><a xlink:href="structDirektDSP_1_1MacroTarget.html" target="_top" xlink:title="One APVTS parameter written by a MacroKnobDesc knob.">
<polygon fill="white" stroke="#666666" points="273.5,-162 141.5,-162 141.5,-143 273.5,-143 273.5,-162"/>
<text text-anchor="middle" x="207.5" y="-150" font-family="Helvetica,sans-Serif" font-size="10.00">DirektDSP::MacroTarget</text>
</a>
</g>
</g>
<!-- Node5&#45;&gt;Node4 -->
<g id="edge4_Node000004_Node000005" class="edge">
<title>Node5&#45;&gt;Node4</title>
<g id="a_edge4_Node000004_Node000005"><a xlink:title=" ">
<path fill="none" stroke="#9a32cd" stroke-dasharray="5,2" d="M207.5,-132.71C207.5,-121.19 207.5,-106.68 207.5,-96.14"/>
<polygon fill="#9a32cd" stroke="#9a32cd" points="204,-132.98 207.5,-142.98 211,-132.98 204,-132.98"/>
</a>
</g>
<text text-anchor="middle" x="232" y="-117" font-family="Helvetica,sans-Serif" font-size="10.00" fill="grey"> elements</text>
</g>
</g>
</svg>
