<?xml version="1.0" encoding="UTF-8" standalone="no"?>
<!DOCTYPE svg PUBLIC "-//W3C//DTD SVG 1.1//EN"
 "http://www.w3.org/Graphics/SVG/1.1/DTD/svg11.dtd">
<!-- Generated by graphviz version 2.43.0 (0)
 -->
<!-- Title: DirektDSP::MacroDesc Pages: 1 -->
<svg width="300pt" height="170pt"
 viewBox="0.00 0.00 299.50 170.00" xmlns="http://www.w3.org/2000/svg" xmlns:xlink="http://www.w3.org/1999/xlink">
<g id="graph0" class="graph" transform="scale(1 1) rotate(0) translate(4 166)">
<title>DirektDSP::MacroDesc</title>
<!-- Node1 -->
<g id="Node000001" class="node">
<title>Node1</title>
<g id="a_Node000001"><a xlink:title="Descriptor for a macro control.">
<polygon fill="#999999" stroke="#666666" points="197.5,-19 71.5,-19 71.5,0 197.5,0 197.5,-19"/>
<text text-anchor="middle" x="134.5" y="-7" font-family="Helvetica,sans-Serif" font-size="10.00">DirektDSP::MacroDesc</text>
</a>
</g>
</g>
<!-- Node2 -->
<g id="Node000002" class="node">
<title>Node2</title>
<g id="a_Node000002"><a xlink:href="structDirektDSP_1_1NodeProps.html" target="_top" xlink:title=" ">
<polygon fill="white" stroke="#666666" points="125,-90.5 0,-90.5 0,-71.5 125,-71.5 125,-90.5"/>
<text text-anchor="middle" x="62.5" y="-78.5" font-family="Helvetica,sans-Serif" font-size="10.00">DirektDSP::NodeProps</text>
</a>
</g>
</g>
<!-- Node2&#45;&gt;Node1 -->
<g id="edge1_Node000001_Node000002" class="edge">
<title>Node2&#45;&gt;Node1</title>
<g id="a_edge1_Node000001_Node000002"><a xlink:title=" ">
<path fill="none" stroke="#9a32cd" stroke-dasharray="5,2" d="M78.64,-64.42C93.15,-50.42 113.9,-30.38 125.6,-19.09"/>
<polygon fill="#9a32cd" stroke="#9a32cd" points="76.09,-62.01 71.33,-71.48 80.95,-67.05 76.09,-62.01"/>
</a>
</g>
<text text-anchor="middle" x="121" y="-40" font-family="Helvetica,sans-Serif" font-size="10.00" fill="grey"> props</text>
</g>
<!-- Node3 -->
<g id="Node000003" class="node">
<title>Node3</title>
<g id="a_Node000003"><a xlink:href="structDirektDSP_1_1SizeHint.html" target="_top" xlink:title=" ">
<polygon fill="white" stroke="#666666" points="117,-162 4,-162 4,-143 117,-143 117,-162"/>
<text text-anchor="middle" x="60.5" y="-150" font-family="Helvetica,sans-Serif" font-size="10.00">DirektDSP::SizeHint</text>
</a>
</g>
</g>
<!-- Node3&#45;&gt;Node2 -->
<g id="edge2_Node000002_Node000003" class="edge">
<title>Node3&#45;&gt;Node2</title>
<g id="a_edge2_Node000002_Node000003"><a xlink:title=" ">
<path fill="none" stroke="#9a32cd" stroke-dasharray="5,2" d="M61.04,-132.71C61.44,-119 61.95,-101.05 62.25,-90.59"/>
<polygon fill="#9a32cd" stroke="#9a32cd" points="57.53,-132.88 60.75,-142.98 64.53,-133.08 57.53,-132.88"/>
</a>
</g>
<text text-anchor="middle" x="74" y="-117" font-family="Helvetica,sans-Serif" font-size="10.00" fill="grey"> size</text>
</g>
<!-- Node4 -->
<g id="Node000004" class="node">
<title>Node4</title>
<g id="a_Node000004"><a xlink:title=" ">
<polygon fill="white" stroke="#666666" points="276,-96 147,-96 147,-66 276,-66 276,-96"/>
<text text-anchor="start" x="155" y="-84" font-family="Helvetica,sans-Serif" font-size="10.00">std::vector&lt; DirektDSP</text>
<text text-anchor="middle" x="211.5" y="-73" font-family="Helvetica,sans-Serif" font-size="10.00">::MacroTargetDesc &gt;</text>
</a>
</g>
</g>
<!-- Node4&#45;&gt;Node1 -->
<g id="edge3_Node000001_Node000004" class="edge">
<title>Node4&#45;&gt;Node1</title>
<g id="a_edge3_Node000001_Node000004"><a xlink:title=" ">
<path fill="none" stroke="#9a32cd" stroke-dasharray="5,2" d="M188.17,-58.94C173.44,-45.65 155.19,-29.17 144.21,-19.27"/>
<polygon fill="#9a32cd" stroke="#9a32cd" points="186.15,-61.83 195.92,-65.94 190.84,-56.64 186.15,-61.83"/>
</a>
</g>
<text text-anchor="middle" x="194.5" y="-40" font-family="Helvetica,sans-Serif" font-size="10.00" fill="grey"> targets</text>
</g>
<!-- Node5 -->
<g id="Node000005" class="node">
<title>Node5</title>
<g id="a_Node000005"><a xlink:href="structDirektDSP_1_1MacroTargetDesc.html" target="_top" xlink:title="One macro mapping target.">
<polygon fill="white" stroke="#666666" points="291.5,-162 135.5,-162 135.5,-143 291.5,-143 291.5,-162"/>
<text text-anchor="middle" x="213.5" y="-150" font-family="Helvetica,sans-Serif" font-size="10.00">DirektDSP::MacroTargetDesc</text>
</a>
</g>
</g>
<!-- Node5&#45;&gt;Node4 -->
<g id="edge4_Node000004_Node000005" class="edge">
<title>Node5&#45;&gt;Node4</title>
<g id="a_edge4_Node000004_Node000005"><a xlink:title=" ">
<path fill="none" stroke="#9a32cd" stroke-dasharray="5,2" d="M212.96,-132.71C212.63,-121.19 212.21,-106.68 211.91,-96.14"/>
<polygon fill="#9a32cd" stroke="#9a32cd" points="209.47,-133.08 213.25,-142.98 216.47,-132.88 209.47,-133.08"/>
</a>
</g>
<text text-anchor="middle" x="237" y="-117" font-family="Helvetica,sans-Serif" font-size="10.00" fill="grey"> elements</text>
</g>
</g>
</svg>
