<?xml version="1.0" encoding="UTF-8" standalone="no"?>
<!DOCTYPE svg PUBLIC "-//W3C//DTD SVG 1.1//EN"
 "http://www.w3.org/Graphics/SVG/1.1/DTD/svg11.dtd">
<!-- Generated by graphviz version 2.43.0 (0)
 -->
<!-- Title: DirektDSP::BuiltSection Pages: 1 -->
<svg width="778pt" height="102pt"
 viewBox="0.00 0.00 778.00 101.50" xmlns="http://www.w3.org/2000/svg" xmlns:xlink="http://www.w3.org/1999/xlink">
<g id="graph0" class="graph" transform="scale(1 1) rotate(0) translate(4 97.5)">
<title>DirektDSP::BuiltSection</title>
<!-- Node1 -->
<g id="Node000001" class="node">
<title>Node1</title>
<g id="a_Node000001"><a xlink:title=" ">
<polygon fill="#999999" stroke="#666666" points="770,-48.5 639,-48.5 639,-29.5 770,-29.5 770,-48.5"/>
<text text-anchor="middle" x="704.5" y="-36.5" font-family="Helvetica,sans-Serif" font-size="10.00">DirektDSP::BuiltSection</text>
</a>
</g>
</g>
<!-- Node2 -->
<g id="Node000002" class="node">
<title>Node2</title>
<g id="a_Node000002"><a xlink:title=" ">
<polygon fill="white" stroke="#666666" points="559,-78 409,-78 409,-48 559,-48 559,-78"/>
<text text-anchor="start" x="417" y="-66" font-family="Helvetica,sans-Serif" font-size="10.00">std::unique_ptr&lt; DirektDSP</text>
<text text-anchor="middle" x="484" y="-55" font-family="Helvetica,sans-Serif" font-size="10.00">::DirektSection &gt;</text>
</a>
</g>
</g>
<!-- Node2&#45;&gt;Node1 -->
<g id="edge1_Node000001_Node000002" class="edge">
<title>Node2&#45;&gt;Node1</title>
<g id="a_edge1_Node000001_Node000002"><a xlink:title=" ">
<path fill="none" stroke="#9a32cd" stroke-dasharray="5,2" d="M569.41,-53.73C592.49,-51.19 617.14,-48.49 638.92,-46.09"/>
<polygon fill="#9a32cd" stroke="#9a32cd" points="568.84,-50.27 559.28,-54.84 569.6,-57.23 568.84,-50.27"/>
</a>
</g>
<text text-anchor="middle" x="599.5" y="-55" font-family="Helvetica,sans-Serif" font-size="10.00" fill="grey"> section</text>
</g>
<!-- Node3 -->
<g id="Node000003" class="node">
<title>Node3</title>
<g id="a_Node000003"><a xlink:href="classDirektDSP_1_1DirektSection.html" target="_top" xlink:title=" ">
<polygon fill="white" stroke="#666666" points="323,-72.5 185,-72.5 185,-53.5 323,-53.5 323,-72.5"/>
<text text-anchor="middle" x="254" y="-60.5" font-family="Helvetica,sans-Serif" font-size="10.00">DirektDSP::DirektSection</text>
</a>
</g>
</g>
<!-- Node3&#45;&gt;Node2 -->
<g id="edge2_Node000002_Node000003" class="edge">
<title>Node3&#45;&gt;Node2</title>
<g id="a_edge2_Node000002_Node000003"><a xlink:title=" ">
<path fill="none" stroke="#9a32cd" stroke-dasharray="5,2" d="M333.41,-63C357.87,-63 384.74,-63 408.89,-63"/>
<polygon fill="#9a32cd" stroke="#9a32cd" points="333.1,-59.5 323.1,-63 333.1,-66.5 333.1,-59.5"/>
</a>
</g>
<text text-anchor="middle" x="365.5" y="-66" font-family="Helvetica,sans-Serif" font-size="10.00" fill="grey"> ptr</text>
</g>
<!-- Node4 -->
<g id="Node000004" class="node">
<title>Node4</title>
<g id="a_Node000004"><a xlink:title=" ">
<polygon fill="white" stroke="#666666" points="102.5,-93.5 3.5,-93.5 3.5,-74.5 102.5,-74.5 102.5,-93.5"/>
<text text-anchor="middle" x="53" y="-81.5" font-family="Helvetica,sans-Serif" font-size="10.00">juce::Component</text>
</a>
</g>
</g>
<!-- Node4&#45;&gt;Node3 -->
<g id="edge3_Node000003_Node000004" class="edge">
<title>Node4&#45;&gt;Node3</title>
<g id="a_edge3_Node000003_Node000004"><a xlink:title=" ">
<path fill="none" stroke="#63b8ff" d="M112.82,-77.79C135.45,-75.4 161.48,-72.66 184.91,-70.19"/>
<polygon fill="#63b8ff" stroke="#63b8ff" points="112.26,-74.33 102.68,-78.86 112.99,-81.29 112.26,-74.33"/>
</a>
</g>
</g>
<!-- Node5 -->
<g id="Node000005" class="node">
<title>Node5</title>
<g id="a_Node000005"><a xlink:title=" ">
<polygon fill="white" stroke="#666666" points="106,-56 0,-56 0,-26 106,-26 106,-56"/>
<text text-anchor="start" x="8" y="-44" font-family="Helvetica,sans-Serif" font-size="10.00">std::vector&lt; juce::</text>
<text text-anchor="middle" x="53" y="-33" font-family="Helvetica,sans-Serif" font-size="10.00">Component * &gt;</text>
</a>
</g>
</g>
<!-- Node5&#45;&gt;Node3 -->
<g id="edge4_Node000003_Node000005" class="edge">
<title>Node5&#45;&gt;Node3</title>
<g id="a_edge4_Node000003_Node000005"><a xlink:title=" ">
<path fill="none" stroke="#9a32cd" stroke-dasharray="5,2" d="M116.15,-47.87C137.94,-50.28 162.53,-53 184.79,-55.46"/>
<polygon fill="#9a32cd" stroke="#9a32cd" points="116.35,-44.37 106.02,-46.75 115.58,-51.33 116.35,-44.37"/>
</a>
</g>
<text text-anchor="middle" x="145.5" y="-56" font-family="Helvetica,sans-Serif" font-size="10.00" fill="grey"> controls</text>
</g>
<!-- Node6 -->
<g id="Node000006" class="node">
<title>Node6</title>
<g id="a_Node000006"><a xlink:title=" ">
<polygon fill="white" stroke="#666666" points="560,-30 408,-30 408,0 560,0 560,-30"/>
<text text-anchor="start" x="416" y="-18" font-family="Helvetica,sans-Serif" font-size="10.00">std::vector&lt; std::unique</text>
<text text-anchor="middle" x="484" y="-7" font-family="Helvetica,sans-Serif" font-size="10.00">_ptr&lt; juce::Component &gt; &gt;</text>
</a>
</g>
</g>
<!-- Node6&#45;&gt;Node1 -->
<g id="edge5_Node000001_Node000006" class="edge">
<title>Node6&#45;&gt;Node1</title>
<g id="a_edge5_Node000001_Node000006"><a xlink:title=" ">
<path fill="none" stroke="#9a32cd" stroke-dasharray="5,2" d="M570.2,-24.36C592.99,-26.86 617.24,-29.53 638.73,-31.89"/>
<polygon fill="#9a32cd" stroke="#9a32cd" points="570.52,-20.87 560.2,-23.26 569.75,-27.83 570.52,-20.87"/>
</a>
</g>
<text text-anchor="middle" x="599.5" y="-33" font-family="Helvetica,sans-Serif" font-size="10.00" fill="grey"> controls</text>
</g>
<!-- Node7 -->
<g id="Node000007" class="node">
<title>Node7</title>
<g id="a_Node000007"><a xlink:title=" ">
<polygon fill="white" stroke="#666666" points="314.5,-30 193.5,-30 193.5,0 314.5,0 314.5,-30"/>
<text text-anchor="start" x="201.5" y="-18" font-family="Helvetica,sans-Serif" font-size="10.00">std::unique_ptr&lt; juce</text>
<text text-anchor="middle" x="254" y="-7" font-family="Helvetica,sans-Serif" font-size="10.00">::Component &gt;</text>
</a>
</g>
</g>
<!-- Node7&#45;&gt;Node6 -->
<g id="edge6_Node000006_Node000007" class="edge">
<title>Node7&#45;&gt;Node6</title>
<g id="a_edge6_Node000006_Node000007"><a xlink:title=" ">
<path fill="none" stroke="#9a32cd" stroke-dasharray="5,2" d="M324.85,-15C351.12,-15 381.08,-15 407.81,-15"/>
<polygon fill="#9a32cd" stroke="#9a32cd" points="324.61,-11.5 314.61,-15 324.61,-18.5 324.61,-11.5"/>
</a>
</g>
<text text-anchor="middle" x="365.5" y="-18" font-family="Helvetica,sans-Serif" font-size="10.00" fill="grey"> elements</text>
</g>
</g>
</svg>
