<?xml version="1.0" encoding="UTF-8" standalone="no"?>
<!DOCTYPE svg PUBLIC "-//W3C//DTD SVG 1.1//EN"
 "http://www.w3.org/Graphics/SVG/1.1/DTD/svg11.dtd">
<!-- Generated by graphviz version 2.43.0 (0)
 -->
<!-- Title: DirektDSP::SectionDesc Pages: 1 -->
<svg width="269pt" height="225pt"
 viewBox="0.00 0.00 268.50 225.00" xmlns="http://www.w3.org/2000/svg" xmlns:xlink="http://www.w3.org/1999/xlink">
<g id="graph0" class="graph" transform="scale(1 1) rotate(0) translate(4 221)">
<title>DirektDSP::SectionDesc</title>
<!-- Node1 -->
<g id="Node000001" class="node">
<title>Node1</title>
<g id="a_Node000001"><a xlink:title=" ">
<polygon fill="#999999" stroke="#666666" points="197.5,-19 65.5,-19 65.5,0 197.5,0 197.5,-19"/>
<text text-anchor="middle" x="131.5" y="-7" font-family="Helvetica,sans-Serif" font-size="10.00">DirektDSP::SectionDesc</text>
</a>
</g>
</g>
<!-- Node2 -->
<g id="Node000002" class="node">
<title>Node2</title>
<g id="a_Node000002"><a xlink:href="structDirektDSP_1_1NodeProps.html" target="_top" xlink:title=" ">
<polygon fill="white" stroke="#666666" points="125,-85 0,-85 0,-66 125,-66 125,-85"/>
<text text-anchor="middle" x="62.5" y="-73" font-family="Helvetica,sans-Serif" font-size="10.00">DirektDSP::NodeProps</text>
</a>
</g>
</g>
<!-- Node2&#45;&gt;Node1 -->
<g id="edge1_Node000001_Node000002" class="edge">
<title>Node2&#45;&gt;Node1</title>
<g id="a_edge1_Node000001_Node000002"><a xlink:title=" ">
<path fill="none" stroke="#9a32cd" stroke-dasharray="5,2" d="M79.39,-58.83C92.75,-46.44 110.92,-29.59 121.9,-19.41"/>
<polygon fill="#9a32cd" stroke="#9a32cd" points="76.76,-56.5 71.81,-65.87 81.52,-61.63 76.76,-56.5"/>
</a>
</g>
<text text-anchor="middle" x="117" y="-40" font-family="Helvetica,sans-Serif" font-size="10.00" fill="grey"> props</text>
</g>
<!-- Node3 -->
<g id="Node000003" class="node">
<title>Node3</title>
<g id="a_Node000003"><a xlink:href="structDirektDSP_1_1SizeHint.html" target="_top" xlink:title=" ">
<polygon fill="white" stroke="#666666" points="119,-151 6,-151 6,-132 119,-132 119,-151"/>
<text text-anchor="middle" x="62.5" y="-139" font-family="Helvetica,sans-Serif" font-size="10.00">DirektDSP::SizeHint</text>
</a>
</g>
</g>
<!-- Node3&#45;&gt;Node2 -->
<g id="edge2_Node000002_Node000003" class="edge">
<title>Node3&#45;&gt;Node2</title>
<g id="a_edge2_Node000002_Node000003"><a xlink:title=" ">
<path fill="none" stroke="#9a32cd" stroke-dasharray="5,2" d="M62.5,-121.58C62.5,-109.63 62.5,-94.72 62.5,-85.41"/>
<polygon fill="#9a32cd" stroke="#9a32cd" points="59,-121.87 62.5,-131.87 66,-121.87 59,-121.87"/>
</a>
</g>
<text text-anchor="middle" x="74" y="-106" font-family="Helvetica,sans-Serif" font-size="10.00" fill="grey"> size</text>
</g>
<!-- Node4 -->
<g id="Node000004" class="node">
<title>Node4</title>
<g id="a_Node000004"><a xlink:title=" ">
<polygon fill="white" stroke="#666666" points="259.5,-85 143.5,-85 143.5,-66 259.5,-66 259.5,-85"/>
<text text-anchor="middle" x="201.5" y="-73" font-family="Helvetica,sans-Serif" font-size="10.00">std::vector&lt; Node &gt;</text>
</a>
</g>
</g>
<!-- Node4&#45;&gt;Node1 -->
<g id="edge3_Node000001_Node000004" class="edge">
<title>Node4&#45;&gt;Node1</title>
<g id="a_edge3_Node000001_Node000004"><a xlink:title=" ">
<path fill="none" stroke="#9a32cd" stroke-dasharray="5,2" d="M184.36,-58.83C170.81,-46.44 152.37,-29.59 141.24,-19.41"/>
<polygon fill="#9a32cd" stroke="#9a32cd" points="182.32,-61.7 192.06,-65.87 187.04,-56.54 182.32,-61.7"/>
</a>
</g>
<text text-anchor="middle" x="192" y="-40" font-family="Helvetica,sans-Serif" font-size="10.00" fill="grey"> children</text>
</g>
<!-- Node5 -->
<g id="Node000005" class="node">
<title>Node5</title>
<g id="a_Node000005"><a xlink:title=" ">
<polygon fill="white" stroke="#666666" points="260.5,-151 142.5,-151 142.5,-132 260.5,-132 260.5,-151"/>
<text text-anchor="middle" x="201.5" y="-139" font-family="Helvetica,sans-Serif" font-size="10.00">std::unique_ptr&lt; T &gt;</text>
</a>
</g>
</g>
<!-- Node5&#45;&gt;Node4 -->
<g id="edge4_Node000004_Node000005" class="edge">
<title>Node5&#45;&gt;Node4</title>
<g id="a_edge4_Node000004_Node000005"><a xlink:title=" ">
<path fill="none" stroke="#9a32cd" stroke-dasharray="5,2" d="M201.5,-121.58C201.5,-109.63 201.5,-94.72 201.5,-85.41"/>
<polygon fill="#9a32cd" stroke="#9a32cd" points="198,-121.87 201.5,-131.87 205,-121.87 198,-121.87"/>
</a>
</g>
<text text-anchor="middle" x="226" y="-106" font-family="Helvetica,sans-Serif" font-size="10.00" fill="grey"> elements</text>
</g>
<!-- Node6 -->
<g id="Node000006" class="node">
<title>Node6</title>
<g id="a_Node000006"><a xlink:title=" ">
<polygon fill="white" stroke="#666666" points="216,-217 187,-217 187,-198 216,-198 216,-217"/>
<text text-anchor="middle" x="201.5" y="-205" font-family="Helvetica,sans-Serif" font-size="10.00">T</text>
</a>
</g>
</g>
<!-- Node6&#45;&gt;Node5 -->
<g id="edge5_Node000005_Node000006" class="edge">
<title>Node6&#45;&gt;Node5</title>
<g id="a_edge5_Node000005_Node000006"><a xlink:title=" ">
<path fill="none" stroke="#9a32cd" stroke-dasharray="5,2" d="M201.5,-187.58C201.5,-175.63 201.5,-160.72 201.5,-151.41"/>
<polygon fill="#9a32cd" stroke="#9a32cd" points="198,-187.87 201.5,-197.87 205,-187.87 198,-187.87"/>
</a>
</g>
<text text-anchor="middle" x="210" y="-172" font-family="Helvetica,sans-Serif" font-size="10.00" fill="grey"> ptr</text>
</g>
</g>
</svg>
