<?xml version="1.0" encoding="UTF-8" standalone="no"?>
<!DOCTYPE svg PUBLIC "-//W3C//DTD SVG 1.1//EN"
 "http://www.w3.org/Graphics/SVG/1.1/DTD/svg11.dtd">
<!-- Generated by graphviz version 2.43.0 (0)
 -->
<!-- Title: DirektDSP::BuildContext Pages: 1 -->
<svg width="625pt" height="76pt"
 viewBox="0.00 0.00 625.00 75.50" xmlns="http://www.w3.org/2000/svg" xmlns:xlink="http://www.w3.org/1999/xlink">
<g id="graph0" class="graph" transform="scale(1 1) rotate(0) translate(4 71.5)">
<title>DirektDSP::BuildContext</title>
<!-- Node1 -->
<g id="Node000001" class="node">
<title>Node1</title>
<g id="a_Node000001"><a xlink:title=" ">
<polygon fill="#999999" stroke="#666666" points="617,-45.5 482,-45.5 482,-26.5 617,-26.5 617,-45.5"/>
<text text-anchor="middle" x="549.5" y="-33.5" font-family="Helvetica,sans-Serif" font-size="10.00">DirektDSP::BuildContext</text>
</a>
</g>
</g>
<!-- Node2 -->
<g id="Node000002" class="node">
<title>Node2</title>
<g id="a_Node000002"><a xlink:href="classDirektDSP_1_1DirektLookAndFeel.html" target="_top" xlink:title=" ">
<polygon fill="white" stroke="#666666" points="373.5,-67.5 209.5,-67.5 209.5,-48.5 373.5,-48.5 373.5,-67.5"/>
<text text-anchor="middle" x="291.5" y="-55.5" font-family="Helvetica,sans-Serif" font-size="10.00">DirektDSP::DirektLookAndFeel</text>
</a>
</g>
</g>
<!-- Node2&#45;&gt;Node1 -->
<g id="edge1_Node000001_Node000002" class="edge">
<title>Node2&#45;&gt;Node1</title>
<g id="a_edge1_Node000001_Node000002"><a xlink:title=" ">
<path fill="none" stroke="#9a32cd" stroke-dasharray="5,2" d="M384.2,-50.12C416.48,-47.35 452.11,-44.28 481.92,-41.72"/>
<polygon fill="#9a32cd" stroke="#9a32cd" points="383.52,-46.67 373.85,-51.01 384.11,-53.64 383.52,-46.67"/>
</a>
</g>
<text text-anchor="middle" x="428.5" y="-51" font-family="Helvetica,sans-Serif" font-size="10.00" fill="grey"> lookAndFeel</text>
</g>
<!-- Node3 -->
<g id="Node000003" class="node">
<title>Node3</title>
<g id="a_Node000003"><a xlink:title=" ">
<polygon fill="white" stroke="#666666" points="123,-67.5 0,-67.5 0,-48.5 123,-48.5 123,-67.5"/>
<text text-anchor="middle" x="61.5" y="-55.5" font-family="Helvetica,sans-Serif" font-size="10.00">juce::LookAndFeel_V4</text>
</a>
</g>
</g>
<!-- Node3&#45;&gt;Node2 -->
<g id="edge2_Node000002_Node000003" class="edge">
<title>Node3&#45;&gt;Node2</title>
<g id="a_edge2_Node000002_Node000003"><a xlink:title=" ">
<path fill="none" stroke="#63b8ff" d="M133.11,-58C157.17,-58 184.26,-58 209.1,-58"/>
<polygon fill="#63b8ff" stroke="#63b8ff" points="133,-54.5 123,-58 133,-61.5 133,-54.5"/>
</a>
</g>
</g>
<!-- Node4 -->
<g id="Node000004" class="node">
<title>Node4</title>
<g id="a_Node000004"><a xlink:title=" ">
<polygon fill="white" stroke="#666666" points="375,-30 208,-30 208,0 375,0 375,-30"/>
<text text-anchor="start" x="216" y="-18" font-family="Helvetica,sans-Serif" font-size="10.00">std::map&lt; juce::String,</text>
<text text-anchor="middle" x="291.5" y="-7" font-family="Helvetica,sans-Serif" font-size="10.00"> const std::atomic&lt; float &gt; * &gt;</text>
</a>
</g>
</g>
<!-- Node4&#45;&gt;Node1 -->
<g id="edge3_Node000001_Node000004" class="edge">
<title>Node4&#45;&gt;Node1</title>
<g id="a_edge3_Node000001_Node000004"><a xlink:title=" ">
<path fill="none" stroke="#9a32cd" stroke-dasharray="5,2" d="M385.15,-16.69C410.74,-17.72 438.49,-19.38 464,-22 474.8,-23.11 486.31,-24.73 497.25,-26.47"/>
<polygon fill="#9a32cd" stroke="#9a32cd" points="385.21,-13.19 375.08,-16.31 384.94,-20.18 385.21,-13.19"/>
</a>
</g>
<text text-anchor="middle" x="428.5" y="-25" font-family="Helvetica,sans-Serif" font-size="10.00" fill="grey"> meterSources</text>
</g>
<!-- Node5 -->
<g id="Node000005" class="node">
<title>Node5</title>
<g id="a_Node000005"><a xlink:title=" ">
<polygon fill="white" stroke="#666666" points="119.5,-24.5 3.5,-24.5 3.5,-5.5 119.5,-5.5 119.5,-24.5"/>
<text text-anchor="middle" x="61.5" y="-12.5" font-family="Helvetica,sans-Serif" font-size="10.00">std::atomic&lt; float &gt;</text>
</a>
</g>
</g>
<!-- Node5&#45;&gt;Node4 -->
<g id="edge4_Node000004_Node000005" class="edge">
<title>Node5&#45;&gt;Node4</title>
<g id="a_edge4_Node000004_Node000005"><a xlink:title=" ">
<path fill="none" stroke="#9a32cd" stroke-dasharray="5,2" d="M129.98,-15C154.39,-15 182.24,-15 207.81,-15"/>
<polygon fill="#9a32cd" stroke="#9a32cd" points="129.74,-11.5 119.74,-15 129.74,-18.5 129.74,-11.5"/>
</a>
</g>
<text text-anchor="middle" x="165.5" y="-18" font-family="Helvetica,sans-Serif" font-size="10.00" fill="grey"> elements</text>
</g>
</g>
</svg>
